<svg xmlns="http://www.w3.org/2000/svg" xmlns:xlink="http://www.w3.org/1999/xlink" width="500" zoomAndPan="magnify" viewBox="0 0 375 374.999991" height="500" preserveAspectRatio="xMidYMid meet" version="1.0"><defs><clipPath id="3ac7e1d302"><path d="M 131.25 131.25 L 243.75 131.25 L 243.75 243.75 L 131.25 243.75 Z M 131.25 131.25 " clip-rule="nonzero"/></clipPath><clipPath id="64d3220027"><path d="M 148.5 131.25 L 226.5 131.25 C 231.074219 131.25 235.460938 133.066406 238.699219 136.300781 C 241.933594 139.539062 243.75 143.925781 243.75 148.5 L 243.75 226.5 C 243.75 231.074219 241.933594 235.460938 238.699219 238.699219 C 235.460938 241.933594 231.074219 243.75 226.5 243.75 L 148.5 243.75 C 143.925781 243.75 139.539062 241.933594 136.300781 238.699219 C 133.066406 235.460938 131.25 231.074219 131.25 226.5 L 131.25 148.5 C 131.25 143.925781 133.066406 139.539062 136.300781 136.300781 C 139.539062 133.066406 143.925781 131.25 148.5 131.25 Z M 148.5 131.25 " clip-rule="nonzero"/></clipPath><clipPath id="097bb401bb"><path d="M 12 273 L 363 273 L 363 289.765625 L 12 289.765625 Z M 12 273 " clip-rule="nonzero"/></clipPath><clipPath id="b7de4c5ace"><path d="M 12 85.015625 L 363 85.015625 L 363 101 L 12 101 Z M 12 85.015625 " clip-rule="nonzero"/></clipPath><clipPath id="77e920c5bd"><path d="M 12 85.015625 L 173 85.015625 L 173 196 L 12 196 Z M 12 85.015625 " clip-rule="nonzero"/></clipPath></defs><g clip-path="url(#3ac7e1d302)"><g clip-path="url(#64d3220027)"><path fill="#d91023" d="M 131.25 131.25 L 243.75 131.25 L 243.75 243.75 L 131.25 243.75 Z M 131.25 131.25 " fill-opacity="1" fill-rule="nonzero"/></g></g><g clip-path="url(#097bb401bb)"><path fill="#cb001c" d="M 12.15625 273.816406 L 362.960938 273.816406 L 362.960938 289.535156 L 12.15625 289.535156 Z M 12.15625 273.816406 " fill-opacity="1" fill-rule="nonzero"/></g><path fill="#ffffff" d="M 12.15625 258.082031 L 362.960938 258.082031 L 362.960938 273.816406 L 12.15625 273.816406 Z M 12.15625 258.082031 " fill-opacity="1" fill-rule="nonzero"/><path fill="#cb001c" d="M 12.15625 242.355469 L 362.960938 242.355469 L 362.960938 258.082031 L 12.15625 258.082031 Z M 12.15625 242.355469 " fill-opacity="1" fill-rule="nonzero"/><path fill="#ffffff" d="M 12.15625 226.609375 L 362.960938 226.609375 L 362.960938 242.355469 L 12.15625 242.355469 Z M 12.15625 226.609375 " fill-opacity="1" fill-rule="nonzero"/><path fill="#cb001c" d="M 12.15625 210.886719 L 362.960938 210.886719 L 362.960938 226.609375 L 12.15625 226.609375 Z M 12.15625 210.886719 " fill-opacity="1" fill-rule="nonzero"/><path fill="#ffffff" d="M 12.15625 195.160156 L 362.960938 195.160156 L 362.960938 210.886719 L 12.15625 210.886719 Z M 12.15625 195.160156 " fill-opacity="1" fill-rule="nonzero"/><path fill="#cb001c" d="M 12.15625 179.425781 L 362.960938 179.425781 L 362.960938 195.160156 L 12.15625 195.160156 Z M 12.15625 179.425781 " fill-opacity="1" fill-rule="nonzero"/><path fill="#ffffff" d="M 12.15625 163.6875 L 362.960938 163.6875 L 362.960938 179.414062 L 12.15625 179.414062 Z M 12.15625 163.6875 " fill-opacity="1" fill-rule="nonzero"/><path fill="#cb001c" d="M 12.15625 147.953125 L 362.960938 147.953125 L 362.960938 163.6875 L 12.15625 163.6875 Z M 12.15625 147.953125 " fill-opacity="1" fill-rule="nonzero"/><path fill="#ffffff" d="M 12.15625 132.210938 L 362.960938 132.210938 L 362.960938 147.945312 L 12.15625 147.945312 Z M 12.15625 132.210938 " fill-opacity="1" fill-rule="nonzero"/><path fill="#cb001c" d="M 12.15625 116.492188 L 362.960938 116.492188 L 362.960938 132.210938 L 12.15625 132.210938 Z M 12.15625 116.492188 " fill-opacity="1" fill-rule="nonzero"/><path fill="#ffffff" d="M 12.15625 100.75 L 362.960938 100.75 L 362.960938 116.484375 L 12.15625 116.484375 Z M 12.15625 100.75 " fill-opacity="1" fill-rule="nonzero"/><g clip-path="url(#b7de4c5ace)"><path fill="#cb001c" d="M 12.15625 85.015625 L 362.960938 85.015625 L 362.960938 100.75 L 12.15625 100.75 Z M 12.15625 85.015625 " fill-opacity="1" fill-rule="nonzero"/></g><g clip-path="url(#77e920c5bd)"><path fill="#2a3560" d="M 12.15625 85.015625 L 172.316406 85.015625 L 172.316406 195.160156 L 12.15625 195.160156 Z M 12.15625 85.015625 " fill-opacity="1" fill-rule="nonzero"/></g><path fill="#ffffff" d="M 26.605469 97.148438 L 27.957031 101.320312 L 32.328125 101.320312 L 28.792969 103.886719 L 30.140625 108.058594 L 26.605469 105.472656 L 23.058594 108.058594 L 24.414062 103.886719 L 20.871094 101.320312 L 25.246094 101.320312 Z M 26.605469 97.148438 " fill-opacity="1" fill-rule="nonzero"/><path fill="#ffffff" d="M 26.605469 115.539062 L 27.957031 119.699219 L 32.328125 119.699219 L 28.792969 122.277344 L 30.140625 126.4375 L 26.605469 123.863281 L 23.058594 126.4375 L 24.414062 122.277344 L 20.871094 119.699219 L 25.246094 119.699219 Z M 26.605469 115.539062 " fill-opacity="1" fill-rule="nonzero"/><path fill="#ffffff" d="M 26.605469 133.921875 L 27.957031 138.078125 L 32.328125 138.078125 L 28.792969 140.65625 L 30.140625 144.816406 L 26.605469 142.238281 L 23.058594 144.816406 L 24.414062 140.65625 L 20.871094 138.078125 L 25.246094 138.078125 Z M 26.605469 133.921875 " fill-opacity="1" fill-rule="nonzero"/><path fill="#ffffff" d="M 26.605469 152.308594 L 27.957031 156.472656 L 32.328125 156.472656 L 28.792969 159.046875 L 30.140625 163.195312 L 26.605469 160.632812 L 23.058594 163.195312 L 24.414062 159.046875 L 20.871094 156.472656 L 25.246094 156.472656 Z M 26.605469 152.308594 " fill-opacity="1" fill-rule="nonzero"/><path fill="#ffffff" d="M 26.605469 170.691406 L 27.957031 174.847656 L 32.328125 174.847656 L 28.792969 177.425781 L 30.140625 181.585938 L 26.605469 179.019531 L 23.058594 181.585938 L 24.414062 177.425781 L 20.871094 174.847656 L 25.246094 174.847656 Z M 26.605469 170.691406 " fill-opacity="1" fill-rule="nonzero"/><path fill="#ffffff" d="M 39.421875 106.84375 L 40.761719 111 L 45.136719 111 L 41.601562 113.578125 L 42.949219 117.742188 L 39.421875 115.164062 L 35.871094 117.742188 L 37.226562 113.578125 L 33.683594 111 L 38.066406 111 Z M 39.421875 106.84375 " fill-opacity="1" fill-rule="nonzero"/><path fill="#ffffff" d="M 39.421875 125.21875 L 40.761719 129.382812 L 45.136719 129.382812 L 41.601562 131.957031 L 42.949219 136.117188 L 39.421875 133.550781 L 35.871094 136.117188 L 37.226562 131.957031 L 33.683594 129.382812 L 38.066406 129.382812 Z M 39.421875 125.21875 " fill-opacity="1" fill-rule="nonzero"/><path fill="#ffffff" d="M 39.421875 143.609375 L 40.761719 147.773438 L 45.136719 147.773438 L 41.601562 150.347656 L 42.949219 154.496094 L 39.421875 151.929688 L 35.871094 154.496094 L 37.226562 150.347656 L 33.683594 147.773438 L 38.066406 147.773438 Z M 39.421875 143.609375 " fill-opacity="1" fill-rule="nonzero"/><path fill="#ffffff" d="M 39.421875 161.992188 L 40.761719 166.152344 L 45.136719 166.152344 L 41.601562 168.722656 L 42.949219 172.886719 L 39.421875 170.308594 L 35.871094 172.886719 L 37.226562 168.722656 L 33.683594 166.152344 L 38.066406 166.152344 Z M 39.421875 161.992188 " fill-opacity="1" fill-rule="nonzero"/><path fill="#ffffff" d="M 52.394531 97.148438 L 53.742188 101.320312 L 58.128906 101.320312 L 54.582031 103.886719 L 55.929688 108.058594 L 52.394531 105.472656 L 48.84375 108.058594 L 50.195312 103.886719 L 46.644531 101.320312 L 51.039062 101.320312 Z M 52.394531 97.148438 " fill-opacity="1" fill-rule="nonzero"/><path fill="#ffffff" d="M 52.394531 115.539062 L 53.742188 119.699219 L 58.128906 119.699219 L 54.582031 122.277344 L 55.929688 126.4375 L 52.394531 123.863281 L 48.84375 126.4375 L 50.195312 122.277344 L 46.644531 119.699219 L 51.039062 119.699219 Z M 52.394531 115.539062 " fill-opacity="1" fill-rule="nonzero"/><path fill="#ffffff" d="M 52.394531 133.921875 L 53.742188 138.078125 L 58.128906 138.078125 L 54.582031 140.65625 L 55.929688 144.816406 L 52.394531 142.238281 L 48.84375 144.816406 L 50.195312 140.65625 L 46.644531 138.078125 L 51.039062 138.078125 Z M 52.394531 133.921875 " fill-opacity="1" fill-rule="nonzero"/><path fill="#ffffff" d="M 52.394531 152.308594 L 53.742188 156.472656 L 58.128906 156.472656 L 54.582031 159.046875 L 55.929688 163.195312 L 52.394531 160.632812 L 48.84375 163.195312 L 50.195312 159.046875 L 46.644531 156.472656 L 51.039062 156.472656 Z M 52.394531 152.308594 " fill-opacity="1" fill-rule="nonzero"/><path fill="#ffffff" d="M 52.394531 170.691406 L 53.742188 174.847656 L 58.128906 174.847656 L 54.582031 177.425781 L 55.929688 181.585938 L 52.394531 179.019531 L 48.84375 181.585938 L 50.195312 177.425781 L 46.644531 174.847656 L 51.039062 174.847656 Z M 52.394531 170.691406 " fill-opacity="1" fill-rule="nonzero"/><path fill="#ffffff" d="M 65.195312 106.84375 L 66.558594 111 L 70.929688 111 L 67.386719 113.578125 L 68.742188 117.742188 L 65.195312 115.164062 L 61.640625 117.742188 L 63.007812 113.578125 L 59.472656 111 L 63.839844 111 Z M 65.195312 106.84375 " fill-opacity="1" fill-rule="nonzero"/><path fill="#ffffff" d="M 65.195312 125.21875 L 66.558594 129.382812 L 70.929688 129.382812 L 67.386719 131.957031 L 68.742188 136.117188 L 65.195312 133.550781 L 61.640625 136.117188 L 63.007812 131.957031 L 59.472656 129.382812 L 63.839844 129.382812 Z M 65.195312 125.21875 " fill-opacity="1" fill-rule="nonzero"/><path fill="#ffffff" d="M 65.195312 143.609375 L 66.558594 147.773438 L 70.929688 147.773438 L 67.386719 150.347656 L 68.742188 154.496094 L 65.195312 151.929688 L 61.640625 154.496094 L 63.007812 150.347656 L 59.472656 147.773438 L 63.839844 147.773438 Z M 65.195312 143.609375 " fill-opacity="1" fill-rule="nonzero"/><path fill="#ffffff" d="M 65.195312 161.992188 L 66.558594 166.152344 L 70.929688 166.152344 L 67.386719 168.722656 L 68.742188 172.886719 L 65.195312 170.308594 L 61.640625 172.886719 L 63.007812 168.722656 L 59.472656 166.152344 L 63.839844 166.152344 Z M 65.195312 161.992188 " fill-opacity="1" fill-rule="nonzero"/><path fill="#ffffff" d="M 78.167969 97.148438 L 79.53125 101.320312 L 83.902344 101.320312 L 80.359375 103.886719 L 81.703125 108.058594 L 78.167969 105.472656 L 74.632812 108.058594 L 75.996094 103.886719 L 72.445312 101.320312 L 76.820312 101.320312 Z M 78.167969 97.148438 " fill-opacity="1" fill-rule="nonzero"/><path fill="#ffffff" d="M 78.167969 115.539062 L 79.53125 119.699219 L 83.902344 119.699219 L 80.359375 122.277344 L 81.703125 126.4375 L 78.167969 123.863281 L 74.632812 126.4375 L 75.996094 122.277344 L 72.445312 119.699219 L 76.820312 119.699219 Z M 78.167969 115.539062 " fill-opacity="1" fill-rule="nonzero"/><path fill="#ffffff" d="M 78.167969 133.921875 L 79.53125 138.078125 L 83.902344 138.078125 L 80.359375 140.65625 L 81.703125 144.816406 L 78.167969 142.238281 L 74.632812 144.816406 L 75.996094 140.65625 L 72.445312 138.078125 L 76.820312 138.078125 Z M 78.167969 133.921875 " fill-opacity="1" fill-rule="nonzero"/><path fill="#ffffff" d="M 78.167969 152.308594 L 79.53125 156.472656 L 83.902344 156.472656 L 80.359375 159.046875 L 81.703125 163.195312 L 78.167969 160.632812 L 74.632812 163.195312 L 75.996094 159.046875 L 72.445312 156.472656 L 76.820312 156.472656 Z M 78.167969 152.308594 " fill-opacity="1" fill-rule="nonzero"/><path fill="#ffffff" d="M 78.167969 170.691406 L 79.53125 174.847656 L 83.902344 174.847656 L 80.359375 177.425781 L 81.703125 181.585938 L 78.167969 179.019531 L 74.632812 181.585938 L 75.996094 177.425781 L 72.445312 174.847656 L 76.820312 174.847656 Z M 78.167969 170.691406 " fill-opacity="1" fill-rule="nonzero"/><path fill="#ffffff" d="M 90.976562 106.84375 L 92.339844 111 L 96.710938 111 L 93.175781 113.578125 L 94.523438 117.742188 L 90.976562 115.164062 L 87.4375 117.742188 L 88.773438 113.578125 L 85.253906 111 L 89.625 111 Z M 90.976562 106.84375 " fill-opacity="1" fill-rule="nonzero"/><path fill="#ffffff" d="M 90.976562 125.21875 L 92.339844 129.382812 L 96.710938 129.382812 L 93.175781 131.957031 L 94.523438 136.117188 L 90.976562 133.550781 L 87.4375 136.117188 L 88.773438 131.957031 L 85.253906 129.382812 L 89.625 129.382812 Z M 90.976562 125.21875 " fill-opacity="1" fill-rule="nonzero"/><path fill="#ffffff" d="M 90.976562 143.609375 L 92.339844 147.773438 L 96.710938 147.773438 L 93.175781 150.347656 L 94.523438 154.496094 L 90.976562 151.929688 L 87.4375 154.496094 L 88.773438 150.347656 L 85.253906 147.773438 L 89.625 147.773438 Z M 90.976562 143.609375 " fill-opacity="1" fill-rule="nonzero"/><path fill="#ffffff" d="M 90.976562 161.992188 L 92.339844 166.152344 L 96.710938 166.152344 L 93.175781 168.722656 L 94.523438 172.886719 L 90.976562 170.308594 L 87.4375 172.886719 L 88.773438 168.722656 L 85.253906 166.152344 L 89.625 166.152344 Z M 90.976562 161.992188 " fill-opacity="1" fill-rule="nonzero"/><path fill="#ffffff" d="M 103.957031 97.148438 L 105.304688 101.320312 L 109.691406 101.320312 L 106.140625 103.886719 L 107.503906 108.058594 L 103.957031 105.472656 L 100.414062 108.058594 L 101.769531 103.886719 L 98.21875 101.320312 L 102.601562 101.320312 Z M 103.957031 97.148438 " fill-opacity="1" fill-rule="nonzero"/><path fill="#ffffff" d="M 103.957031 115.539062 L 105.304688 119.699219 L 109.691406 119.699219 L 106.140625 122.277344 L 107.503906 126.4375 L 103.957031 123.863281 L 100.414062 126.4375 L 101.769531 122.277344 L 98.21875 119.699219 L 102.601562 119.699219 Z M 103.957031 115.539062 " fill-opacity="1" fill-rule="nonzero"/><path fill="#ffffff" d="M 103.957031 133.921875 L 105.304688 138.078125 L 109.691406 138.078125 L 106.140625 140.65625 L 107.503906 144.816406 L 103.957031 142.238281 L 100.414062 144.816406 L 101.769531 140.65625 L 98.21875 138.078125 L 102.601562 138.078125 Z M 103.957031 133.921875 " fill-opacity="1" fill-rule="nonzero"/><path fill="#ffffff" d="M 103.957031 152.308594 L 105.304688 156.472656 L 109.691406 156.472656 L 106.140625 159.046875 L 107.503906 163.195312 L 103.957031 160.632812 L 100.414062 163.195312 L 101.769531 159.046875 L 98.21875 156.472656 L 102.601562 156.472656 Z M 103.957031 152.308594 " fill-opacity="1" fill-rule="nonzero"/><path fill="#ffffff" d="M 103.957031 170.691406 L 105.304688 174.847656 L 109.691406 174.847656 L 106.140625 177.425781 L 107.503906 181.585938 L 103.957031 179.019531 L 100.414062 181.585938 L 101.769531 177.425781 L 98.21875 174.847656 L 102.601562 174.847656 Z M 103.957031 170.691406 " fill-opacity="1" fill-rule="nonzero"/><path fill="#ffffff" d="M 116.777344 106.84375 L 118.125 111 L 122.492188 111 L 118.949219 113.578125 L 120.3125 117.742188 L 116.777344 115.164062 L 113.214844 117.742188 L 114.578125 113.578125 L 111.039062 111 L 115.414062 111 Z M 116.777344 106.84375 " fill-opacity="1" fill-rule="nonzero"/><path fill="#ffffff" d="M 116.777344 125.21875 L 118.125 129.382812 L 122.492188 129.382812 L 118.949219 131.957031 L 120.3125 136.117188 L 116.777344 133.550781 L 113.214844 136.117188 L 114.578125 131.957031 L 111.039062 129.382812 L 115.414062 129.382812 Z M 116.777344 125.21875 " fill-opacity="1" fill-rule="nonzero"/><path fill="#ffffff" d="M 116.777344 143.609375 L 118.125 147.773438 L 122.492188 147.773438 L 118.949219 150.347656 L 120.3125 154.496094 L 116.777344 151.929688 L 113.214844 154.496094 L 114.578125 150.347656 L 111.039062 147.773438 L 115.414062 147.773438 Z M 116.777344 143.609375 " fill-opacity="1" fill-rule="nonzero"/><path fill="#ffffff" d="M 116.777344 161.992188 L 118.125 166.152344 L 122.492188 166.152344 L 118.949219 168.722656 L 120.3125 172.886719 L 116.777344 170.308594 L 113.214844 172.886719 L 114.578125 168.722656 L 111.039062 166.152344 L 115.414062 166.152344 Z M 116.777344 161.992188 " fill-opacity="1" fill-rule="nonzero"/><path fill="#ffffff" d="M 129.742188 97.148438 L 131.09375 101.320312 L 135.464844 101.320312 L 131.941406 103.886719 L 133.285156 108.058594 L 129.742188 105.472656 L 126.207031 108.058594 L 127.554688 103.886719 L 124.007812 101.320312 L 128.378906 101.320312 Z M 129.742188 97.148438 " fill-opacity="1" fill-rule="nonzero"/><path fill="#ffffff" d="M 129.742188 115.539062 L 131.09375 119.699219 L 135.464844 119.699219 L 131.941406 122.277344 L 133.285156 126.4375 L 129.742188 123.863281 L 126.207031 126.4375 L 127.554688 122.277344 L 124.007812 119.699219 L 128.378906 119.699219 Z M 129.742188 115.539062 " fill-opacity="1" fill-rule="nonzero"/><path fill="#ffffff" d="M 129.742188 133.921875 L 131.09375 138.078125 L 135.464844 138.078125 L 131.941406 140.65625 L 133.285156 144.816406 L 129.742188 142.238281 L 126.207031 144.816406 L 127.554688 140.65625 L 124.007812 138.078125 L 128.378906 138.078125 Z M 129.742188 133.921875 " fill-opacity="1" fill-rule="nonzero"/><path fill="#ffffff" d="M 129.742188 152.308594 L 131.09375 156.472656 L 135.464844 156.472656 L 131.941406 159.046875 L 133.285156 163.195312 L 129.742188 160.632812 L 126.207031 163.195312 L 127.554688 159.046875 L 124.007812 156.472656 L 128.378906 156.472656 Z M 129.742188 152.308594 " fill-opacity="1" fill-rule="nonzero"/><path fill="#ffffff" d="M 129.742188 170.691406 L 131.09375 174.847656 L 135.464844 174.847656 L 131.941406 177.425781 L 133.285156 181.585938 L 129.742188 179.019531 L 126.207031 181.585938 L 127.554688 177.425781 L 124.007812 174.847656 L 128.378906 174.847656 Z M 129.742188 170.691406 " fill-opacity="1" fill-rule="nonzero"/><path fill="#ffffff" d="M 142.558594 106.84375 L 143.898438 111 L 148.285156 111 L 144.742188 113.578125 L 146.085938 117.742188 L 142.558594 115.164062 L 139 117.742188 L 140.351562 113.578125 L 136.828125 111 L 141.203125 111 Z M 142.558594 106.84375 " fill-opacity="1" fill-rule="nonzero"/><path fill="#ffffff" d="M 142.558594 125.21875 L 143.898438 129.382812 L 148.285156 129.382812 L 144.742188 131.957031 L 146.085938 136.117188 L 142.558594 133.550781 L 139 136.117188 L 140.351562 131.957031 L 136.828125 129.382812 L 141.203125 129.382812 Z M 142.558594 125.21875 " fill-opacity="1" fill-rule="nonzero"/><path fill="#ffffff" d="M 142.558594 143.609375 L 143.898438 147.773438 L 148.285156 147.773438 L 144.742188 150.347656 L 146.085938 154.496094 L 142.558594 151.929688 L 139 154.496094 L 140.351562 150.347656 L 136.828125 147.773438 L 141.203125 147.773438 Z M 142.558594 143.609375 " fill-opacity="1" fill-rule="nonzero"/><path fill="#ffffff" d="M 142.558594 161.992188 L 143.898438 166.152344 L 148.285156 166.152344 L 144.742188 168.722656 L 146.085938 172.886719 L 142.558594 170.308594 L 139 172.886719 L 140.351562 168.722656 L 136.828125 166.152344 L 141.203125 166.152344 Z M 142.558594 161.992188 " fill-opacity="1" fill-rule="nonzero"/><path fill="#ffffff" d="M 155.523438 97.148438 L 156.878906 101.320312 L 161.253906 101.320312 L 157.710938 103.886719 L 159.066406 108.058594 L 155.523438 105.472656 L 151.976562 108.058594 L 153.335938 103.886719 L 149.789062 101.320312 L 154.175781 101.320312 Z M 155.523438 97.148438 " fill-opacity="1" fill-rule="nonzero"/><path fill="#ffffff" d="M 155.523438 115.539062 L 156.878906 119.699219 L 161.253906 119.699219 L 157.710938 122.277344 L 159.066406 126.4375 L 155.523438 123.863281 L 151.976562 126.4375 L 153.335938 122.277344 L 149.789062 119.699219 L 154.175781 119.699219 Z M 155.523438 115.539062 " fill-opacity="1" fill-rule="nonzero"/><path fill="#ffffff" d="M 155.523438 133.921875 L 156.878906 138.078125 L 161.253906 138.078125 L 157.710938 140.65625 L 159.066406 144.816406 L 155.523438 142.238281 L 151.976562 144.816406 L 153.335938 140.65625 L 149.789062 138.078125 L 154.175781 138.078125 Z M 155.523438 133.921875 " fill-opacity="1" fill-rule="nonzero"/><path fill="#ffffff" d="M 155.523438 152.308594 L 156.878906 156.472656 L 161.253906 156.472656 L 157.710938 159.046875 L 159.066406 163.195312 L 155.523438 160.632812 L 151.976562 163.195312 L 153.335938 159.046875 L 149.789062 156.472656 L 154.175781 156.472656 Z M 155.523438 152.308594 " fill-opacity="1" fill-rule="nonzero"/><path fill="#ffffff" d="M 155.523438 170.691406 L 156.878906 174.847656 L 161.253906 174.847656 L 157.710938 177.425781 L 159.066406 181.585938 L 155.523438 179.019531 L 151.976562 181.585938 L 153.335938 177.425781 L 149.789062 174.847656 L 154.175781 174.847656 Z M 155.523438 170.691406 " fill-opacity="1" fill-rule="nonzero"/></svg>