<svg xmlns="http://www.w3.org/2000/svg" xmlns:xlink="http://www.w3.org/1999/xlink" width="500" zoomAndPan="magnify" viewBox="0 0 375 374.999991" height="500" preserveAspectRatio="xMidYMid meet" version="1.0"><defs><clipPath id="ef3a56a8d7"><path d="M 170.652344 59.183594 L 216.390625 59.183594 L 216.390625 133.683594 L 170.652344 133.683594 Z M 170.652344 59.183594 " clip-rule="nonzero"/></clipPath><clipPath id="9910367bd8"><path d="M 187.902344 59.183594 L 199.140625 59.183594 C 203.714844 59.183594 208.101562 61 211.335938 64.234375 C 214.570312 67.46875 216.390625 71.859375 216.390625 76.433594 L 216.390625 116.371094 C 216.390625 120.945312 214.570312 125.332031 211.335938 128.570312 C 208.101562 131.804688 203.714844 133.621094 199.140625 133.621094 L 187.902344 133.621094 C 183.328125 133.621094 178.941406 131.804688 175.707031 128.570312 C 172.46875 125.332031 170.652344 120.945312 170.652344 116.371094 L 170.652344 76.433594 C 170.652344 71.859375 172.46875 67.46875 175.707031 64.234375 C 178.941406 61 183.328125 59.183594 187.902344 59.183594 Z M 187.902344 59.183594 " clip-rule="nonzero"/></clipPath><clipPath id="0d0feb96e0"><path d="M 55.792969 1 L 280 1 L 280 361 L 55.792969 361 Z M 55.792969 1 " clip-rule="nonzero"/></clipPath><clipPath id="9912a1e56a"><path d="M 55.792969 238 L 280 238 L 280 361 L 55.792969 361 Z M 55.792969 238 " clip-rule="nonzero"/></clipPath><clipPath id="080b4ab235"><path d="M 55.792969 251 L 280 251 L 280 361 L 55.792969 361 Z M 55.792969 251 " clip-rule="nonzero"/></clipPath></defs><g clip-path="url(#ef3a56a8d7)"><g clip-path="url(#9910367bd8)"><path fill="#65a1b7" d="M 170.652344 59.183594 L 216.390625 59.183594 L 216.390625 133.683594 L 170.652344 133.683594 Z M 170.652344 59.183594 " fill-opacity="1" fill-rule="nonzero"/></g></g><g clip-path="url(#0d0feb96e0)"><path fill="#ffbe8d" d="M 218.9375 26.199219 C 211.265625 20.402344 206.953125 10.707031 209.9375 9.890625 C 211.21875 9.542969 212.679688 10.3125 213.9375 11.308594 C 211.3125 8.414062 208.296875 4.359375 210.996094 3.425781 C 213.84375 2.445312 217.679688 5.578125 219.96875 7.820312 C 217.664062 5.222656 214.570312 1.203125 218.273438 1.945312 C 223.660156 3.023438 229.585938 9.890625 229.585938 9.890625 C 225.679688 4.367188 225.949219 0.0546875 231.199219 4.503906 C 236.453125 8.949219 245.339844 17.300781 247.5 27.140625 C 249.65625 36.976562 260.023438 46.40625 260.023438 46.40625 L 243.992188 56.917969 C 236.050781 41.832031 229.453125 43.984375 220.695312 38.65625 C 211.945312 33.328125 210.457031 26.332031 212.617188 24.71875 C 214.761719 23.101562 218.9375 26.199219 218.9375 26.199219 Z M 123.324219 89.789062 L 138.671875 82.515625 L 138.671875 81.707031 C 138.671875 81.707031 138.132812 70.792969 139.480469 66.621094 C 140.824219 62.441406 146.480469 58.269531 148.496094 51.9375 C 150.515625 45.605469 147.824219 43.183594 144.1875 48.164062 C 144.1875 48.164062 149.1875 34.082031 149.1875 29.640625 C 149.1875 24.789062 146.386719 27.148438 143.871094 32.402344 C 143.871094 32.402344 146.605469 24.589844 145.128906 23.378906 C 143.765625 22.273438 141.511719 24.140625 139.898438 28.230469 C 140.347656 26.742188 140.753906 24.34375 138.726562 24.101562 C 135.769531 23.742188 131.527344 34.027344 131.527344 34.027344 C 131.527344 34.027344 132.871094 29.308594 131.527344 27.695312 C 130.183594 26.078125 118.332031 37.9375 120.753906 55.984375 C 123.191406 74.03125 123.324219 89.789062 123.324219 89.789062 Z M 271.53125 334.238281 C 265.964844 329.511719 258.628906 325.460938 254.390625 321.035156 C 252.742188 319.316406 251.558594 317.550781 251.121094 315.660156 C 250.972656 315.011719 250.882812 314.265625 250.84375 313.4375 C 250.664062 309.121094 251.953125 302.527344 253.796875 295.515625 C 255.417969 289.382812 257.457031 282.914062 259.324219 277.398438 C 262.085938 269.230469 264.453125 263.117188 264.453125 263.117188 L 229.910156 254.023438 C 229.910156 254.191406 227.476562 260.753906 225.480469 270.890625 C 224.476562 276.019531 223.582031 282.074219 223.179688 288.675781 C 223.171875 288.699219 223.171875 288.734375 223.171875 288.757812 C 222.824219 294.503906 221.929688 300.203125 220.410156 305.726562 C 219.40625 309.445312 218.109375 313.097656 216.527344 316.625 C 213.402344 323.589844 210.71875 332.234375 212.539062 338.898438 C 216.179688 352.246094 229.507812 345.777344 244.253906 353.859375 C 258.992188 361.941406 274.144531 365.984375 278.589844 350.019531 C 280.378906 343.609375 276.714844 338.628906 271.53125 334.238281 Z M 139.21875 230.382812 C 135.730469 233.5625 132.824219 236.363281 130.300781 238.804688 C 129.851562 239.238281 129.40625 239.664062 128.980469 240.085938 C 122.28125 246.574219 118.355469 250.320312 112.824219 252.070312 C 109.644531 253.074219 105.933594 253.429688 100.871094 253.265625 C 97.738281 253.167969 94.101562 252.867188 89.734375 252.410156 C 84.15625 251.824219 79.472656 251.632812 75.53125 251.769531 C 59.085938 252.355469 55.792969 258.773438 55.792969 266.757812 C 55.792969 276.660156 73.371094 290.195312 85.484375 289.191406 C 97.605469 288.179688 99.425781 293.632812 112.558594 297.875 C 125.683594 302.125 127.304688 291.210938 137.800781 278.765625 C 138.125 278.378906 138.464844 277.992188 138.820312 277.597656 C 143.109375 272.792969 149.296875 267.273438 155.277344 262.3125 C 161.003906 257.578125 166.535156 253.34375 170.03125 250.722656 C 172.253906 249.0625 173.65625 248.039062 173.757812 247.960938 C 201.257812 225.765625 162.246094 209.367188 139.21875 230.382812 Z M 139.21875 230.382812 " fill-opacity="1" fill-rule="nonzero"/></g><g clip-path="url(#9912a1e56a)"><path fill="#fff5f8" d="M 278.589844 350.019531 C 274.144531 365.984375 258.992188 361.941406 244.253906 353.859375 C 229.507812 345.777344 216.179688 352.246094 212.539062 338.898438 C 210.71875 332.234375 213.402344 323.589844 216.527344 316.625 C 218.109375 313.097656 219.40625 309.445312 220.410156 305.726562 C 221.929688 300.203125 222.824219 294.503906 223.171875 288.757812 C 223.171875 288.734375 223.171875 288.699219 223.179688 288.675781 C 236.960938 295.722656 247.75 296.148438 253.796875 295.515625 C 251.953125 302.527344 250.664062 309.121094 250.84375 313.4375 C 250.882812 314.265625 250.972656 315.011719 251.121094 315.660156 C 251.558594 317.550781 252.742188 319.316406 254.390625 321.035156 C 258.628906 325.460938 265.964844 329.511719 271.53125 334.238281 C 276.714844 338.628906 280.378906 343.609375 278.589844 350.019531 Z M 132.34375 241.375 C 132.34375 241.375 132.34375 241.375 132.335938 241.367188 C 131.550781 240.417969 130.871094 239.554688 130.300781 238.804688 C 129.851562 239.238281 129.40625 239.664062 128.980469 240.085938 C 122.28125 246.574219 118.355469 250.320312 112.824219 252.070312 C 109.644531 253.074219 105.933594 253.429688 100.871094 253.265625 C 97.738281 253.167969 94.101562 252.867188 89.734375 252.410156 C 84.15625 251.824219 79.472656 251.632812 75.53125 251.769531 C 59.085938 252.355469 55.792969 258.773438 55.792969 266.757812 C 55.792969 276.660156 73.371094 290.195312 85.484375 289.191406 C 97.605469 288.179688 99.425781 293.632812 112.558594 297.875 C 125.683594 302.125 127.304688 291.210938 137.800781 278.765625 C 138.125 278.378906 138.464844 277.992188 138.820312 277.597656 C 143.109375 272.792969 149.296875 267.273438 155.277344 262.3125 C 144.34375 254.839844 136.71875 246.71875 132.34375 241.375 Z M 132.34375 241.375 " fill-opacity="1" fill-rule="nonzero"/></g><path fill="#f64697" d="M 274.054688 151.265625 C 274 163.804688 274.292969 181.164062 275.679688 200.878906 C 277.941406 233.039062 276.5625 264.019531 275.9375 274.953125 C 275.804688 277.246094 273.8125 278.964844 271.515625 278.765625 C 259.03125 277.644531 221.28125 273.304688 197.285156 260.300781 C 169.519531 245.253906 145.617188 252.582031 108.703125 229.804688 C 106.1875 228.25 106.140625 224.59375 108.609375 222.957031 C 122.035156 214.050781 157.191406 189.300781 165.476562 169.054688 C 165.476562 169.054688 134.265625 162.078125 124.574219 130.253906 C 114.882812 98.425781 120.03125 92.363281 119.722656 91.453125 C 119.550781 90.929688 117.769531 85.515625 116.265625 80.957031 C 115.367188 78.203125 117.542969 75.390625 120.429688 75.628906 C 125.167969 76.015625 132.019531 75.753906 138.839844 72.589844 C 141.394531 71.402344 144.351562 73.199219 144.566406 76.015625 L 144.605469 76.554688 C 144.730469 78.210938 145.816406 79.664062 147.398438 80.164062 C 150.910156 81.257812 159.027344 83.21875 170.207031 104.363281 C 186.773438 135.683594 231.328125 116.148438 231.730469 100.988281 C 232.109375 86.78125 233.828125 74.601562 239.269531 64.238281 C 239.933594 62.964844 239.925781 61.453125 239.183594 60.226562 L 236.992188 56.625 C 235.796875 54.660156 236.453125 52.105469 238.449219 50.972656 C 242.878906 48.449219 250.472656 43.714844 256.539062 37.800781 C 258.527344 35.871094 261.816406 36.472656 263.019531 38.964844 L 265.085938 43.238281 C 265.363281 43.808594 265.757812 44.308594 266.261719 44.6875 C 271.539062 48.726562 302.574219 74.949219 281.707031 118.179688 C 276.714844 128.488281 274.113281 139.796875 274.054688 151.265625 Z M 274.054688 151.265625 " fill-opacity="1" fill-rule="nonzero"/><path fill="#fff5f8" d="M 239.40625 133.140625 C 233.75 144.730469 215.300781 135.023438 215.300781 135.023438 C 215.300781 135.023438 206.984375 152.273438 196.132812 146.882812 C 185.277344 141.492188 195.910156 127.855469 195.910156 127.855469 L 228.496094 118.425781 C 228.503906 118.417969 245.0625 121.554688 239.40625 133.140625 Z M 239.40625 133.140625 " fill-opacity="1" fill-rule="nonzero"/><path fill="#ffbe8d" d="M 226.5 113.789062 L 228.773438 119.265625 C 228.773438 119.265625 221.90625 133.949219 210.054688 133.140625 C 198.203125 132.335938 196.1875 128.691406 196.1875 128.691406 L 195.457031 123.960938 C 189.320312 123.074219 183.472656 120.390625 178.625 116.433594 C 170.964844 119.320312 160.238281 110.125 162.113281 101.648438 C 162.824219 98.433594 164.492188 96.730469 166.457031 95.914062 C 163.488281 77.933594 176.433594 59.503906 194.390625 56.0625 C 210.195312 53.03125 226.34375 59.09375 232.617188 72.660156 C 234.894531 71.75 237.632812 71.710938 240.433594 74.164062 C 247.109375 79.992188 245.671875 94.277344 235.640625 95.511719 C 234.824219 102.328125 232.144531 108.652344 226.5 113.789062 Z M 226.5 113.789062 " fill-opacity="1" fill-rule="nonzero"/><path fill="#000000" d="M 236.882812 72.257812 C 236.882812 72.257812 233.195312 70.886719 229.4375 74.609375 L 220.5625 65.671875 C 220.5625 65.671875 209.871094 72.621094 194.53125 61.476562 C 195.871094 64.390625 197.871094 66.992188 200.433594 68.957031 C 201.113281 69.480469 201.480469 70.308594 201.003906 71.125 C 200.609375 71.796875 199.515625 72.21875 198.835938 71.695312 C 196.472656 69.875 194.453125 67.640625 192.910156 65.125 C 193.242188 68.164062 194.074219 71.15625 195.410156 73.902344 C 195.78125 74.671875 195.625 75.613281 194.839844 76.070312 C 194.144531 76.484375 193.054688 76.269531 192.671875 75.503906 C 191.289062 72.652344 190.371094 69.652344 189.929688 66.582031 C 188.273438 73.285156 184.550781 82.460938 176.257812 86.023438 L 176.929688 95.265625 C 176.929688 95.265625 171.953125 93.816406 166.027344 96.121094 C 160.101562 98.425781 157.539062 77.941406 167.238281 65.410156 C 171.164062 60.335938 175.5625 56.347656 180.640625 53.457031 C 175.410156 38.101562 163.203125 40.160156 165.339844 34.34375 C 167.492188 28.46875 173.964844 33.148438 173.964844 33.148438 C 173.964844 33.148438 169.769531 27.519531 175.640625 24.519531 C 181.511719 21.527344 184.890625 28.230469 184.890625 28.230469 C 185.988281 20.5625 195.523438 22.722656 191.929688 30.988281 C 189.027344 37.667969 192.691406 45.828125 194.199219 48.71875 C 198.449219 48.003906 203.078125 47.796875 208.179688 48.164062 C 226.882812 49.507812 237.585938 59.847656 236.882812 72.257812 Z M 236.882812 72.257812 " fill-opacity="1" fill-rule="nonzero"/><path fill="#f64697" d="M 196.511719 46.285156 C 196.511719 48.945312 193.859375 51.097656 191.203125 51.097656 C 190.101562 51.097656 189.089844 50.726562 188.273438 50.101562 C 188.355469 50.433594 188.402344 50.78125 188.402344 51.132812 C 188.402344 54.066406 186.019531 56.046875 183.09375 56.046875 C 180.167969 56.046875 177.785156 54.066406 177.785156 51.132812 C 177.785156 48.195312 179.460938 45.542969 182.390625 45.542969 C 183.851562 45.542969 185.347656 46.199219 186.480469 47.222656 C 186.414062 46.921875 186.382812 46.601562 186.382812 46.277344 C 186.382812 43.621094 188.941406 41.480469 191.597656 41.480469 C 194.265625 41.480469 196.511719 43.628906 196.511719 46.285156 Z M 196.511719 46.285156 " fill-opacity="1" fill-rule="nonzero"/><g clip-path="url(#080b4ab235)"><path fill="#033d68" d="M 278.589844 350.019531 C 274.144531 365.984375 258.992188 361.941406 244.253906 353.859375 C 229.507812 345.777344 216.179688 352.246094 212.539062 338.898438 C 210.71875 332.234375 213.402344 323.589844 216.527344 316.625 C 218.109375 313.097656 219.40625 309.445312 220.410156 305.726562 C 231.914062 314.355469 244.4375 314.257812 250.84375 313.4375 C 250.882812 314.265625 250.972656 315.011719 251.121094 315.660156 C 251.558594 317.550781 252.742188 319.316406 254.390625 321.035156 C 258.628906 325.460938 265.964844 329.511719 271.53125 334.238281 C 276.714844 338.628906 280.378906 343.609375 278.589844 350.019531 Z M 112.824219 252.070312 C 109.644531 253.074219 105.933594 253.429688 100.871094 253.265625 C 97.738281 253.167969 94.101562 252.867188 89.734375 252.410156 C 84.15625 251.824219 79.472656 251.632812 75.53125 251.769531 C 59.085938 252.355469 55.792969 258.773438 55.792969 266.757812 C 55.792969 276.660156 73.371094 290.195312 85.484375 289.191406 C 97.605469 288.179688 99.425781 293.632812 112.558594 297.875 C 125.683594 302.125 127.304688 291.210938 137.800781 278.765625 C 138.125 278.378906 138.464844 277.992188 138.820312 277.597656 C 115.324219 269.378906 112.714844 257.378906 112.824219 252.070312 Z M 112.824219 252.070312 " fill-opacity="1" fill-rule="nonzero"/></g><path fill="#fff5f8" d="M 209.863281 105.621094 C 200.300781 109.964844 194.785156 98.851562 194.785156 98.851562 C 205.828125 89.964844 217.277344 88.609375 217.277344 88.609375 C 217.277344 88.609375 219.421875 101.273438 209.863281 105.621094 Z M 100.871094 253.265625 C 97.738281 253.167969 94.101562 252.867188 89.734375 252.410156 C 84.15625 251.824219 79.472656 251.632812 75.53125 251.769531 C 81.457031 259.851562 102.21875 271.707031 105.539062 266.554688 C 108.507812 261.9375 103.957031 256.058594 100.871094 253.265625 Z M 254.390625 321.035156 C 249.246094 321.636719 243.9375 322.957031 241.226562 325.769531 C 234.957031 332.234375 260.640625 343.316406 271.53125 334.238281 C 265.964844 329.511719 258.628906 325.460938 254.390625 321.035156 Z M 254.390625 321.035156 " fill-opacity="1" fill-rule="nonzero"/><path fill="#033d68" d="M 236.105469 31.144531 C 234.585938 29.679688 232.324219 29.664062 230.347656 29.855469 C 227.886719 30.101562 225.441406 30.628906 222.996094 30.003906 C 219.304688 29.054688 216.421875 25.507812 212.515625 25.398438 C 210.988281 25.359375 210.988281 22.984375 212.515625 23.023438 C 216.929688 23.152344 219.785156 26.878906 223.90625 27.78125 C 226.492188 28.351562 229.152344 27.425781 231.746094 27.402344 C 233.960938 27.378906 236.160156 27.898438 237.792969 29.46875 C 238.882812 30.527344 237.207031 32.207031 236.105469 31.144531 Z M 222.167969 24.070312 C 223.003906 25.34375 225.054688 24.15625 224.214844 22.875 C 221.375 18.550781 218.226562 14.4375 214.792969 10.574219 C 213.78125 9.425781 212.105469 11.109375 213.117188 12.25 C 216.414062 15.972656 219.4375 19.914062 222.167969 24.070312 Z M 227.160156 19.097656 C 227.539062 19.613281 228.1875 19.875 228.78125 19.523438 C 229.285156 19.222656 229.585938 18.425781 229.207031 17.902344 C 226.351562 13.992188 223.265625 10.265625 219.945312 6.734375 C 218.890625 5.617188 217.214844 7.304688 218.265625 8.414062 C 221.445312 11.785156 224.421875 15.355469 227.160156 19.097656 Z M 235.574219 19.476562 C 236.382812 20.769531 238.441406 19.582031 237.625 18.28125 C 235.410156 14.730469 232.988281 11.308594 230.386719 8.023438 C 229.992188 7.519531 229.121094 7.605469 228.710938 8.023438 C 228.210938 8.523438 228.3125 9.195312 228.710938 9.703125 C 231.175781 12.820312 233.464844 16.089844 235.574219 19.476562 Z M 142.777344 48.734375 C 141.796875 51.472656 138.246094 52.074219 135.769531 52.476562 C 132.699219 52.984375 128.757812 53.671875 127.320312 56.863281 C 127.050781 57.449219 127.152344 58.136719 127.746094 58.484375 C 128.253906 58.785156 129.105469 58.644531 129.367188 58.058594 C 130.769531 54.9375 135.40625 55.042969 138.238281 54.433594 C 141.132812 53.804688 144.011719 52.292969 145.0625 49.359375 C 145.585938 47.925781 143.292969 47.300781 142.777344 48.734375 Z M 140.703125 45.257812 C 141.980469 40.769531 143.425781 36.328125 145.039062 31.953125 C 145.261719 31.351562 144.796875 30.652344 144.210938 30.488281 C 143.546875 30.304688 142.976562 30.710938 142.746094 31.320312 C 141.125 35.695312 139.683594 40.136719 138.410156 44.625 C 138 46.097656 140.292969 46.730469 140.703125 45.257812 Z M 136.023438 44.0625 C 137.191406 38.457031 139.035156 33.019531 141.550781 27.875 C 142.222656 26.507812 140.175781 25.304688 139.503906 26.679688 C 136.898438 32.007812 134.945312 37.628906 133.726562 43.4375 C 133.417969 44.925781 135.707031 45.558594 136.023438 44.0625 Z M 128.085938 45.96875 C 129.441406 41.207031 131.195312 36.574219 133.363281 32.117188 C 134.027344 30.75 131.980469 29.546875 131.316406 30.921875 C 129.066406 35.5625 127.214844 40.382812 125.800781 45.34375 C 125.382812 46.808594 127.667969 47.433594 128.085938 45.96875 Z M 218.242188 88.445312 C 218.265625 88.578125 220.410156 101.914062 210.269531 106.523438 C 208.558594 107.296875 206.96875 107.621094 205.503906 107.621094 C 198.132812 107.621094 193.941406 99.398438 193.890625 99.296875 C 193.6875 98.875 193.796875 98.378906 194.152344 98.085938 C 205.292969 89.117188 216.667969 87.683594 217.144531 87.628906 C 217.679688 87.566406 218.15625 87.921875 218.242188 88.445312 Z M 216.40625 89.75 C 213.511719 90.289062 204.691406 92.394531 196.058594 99.105469 C 197.40625 101.363281 202.128906 108.042969 209.460938 104.71875 C 216.714844 101.417969 216.644531 92.6875 216.40625 89.75 Z M 172.640625 158.265625 C 172.050781 157.988281 171.34375 158.25 171.066406 158.84375 C 158.710938 185.53125 126.21875 209.839844 107.953125 221.953125 C 107.40625 222.316406 107.257812 223.050781 107.621094 223.597656 C 107.851562 223.945312 108.230469 224.128906 108.609375 224.128906 C 108.832031 224.128906 109.058594 224.066406 109.265625 223.929688 C 127.738281 211.675781 160.617188 187.050781 173.21875 159.839844 C 173.496094 159.246094 173.234375 158.542969 172.640625 158.265625 Z M 191.84375 88.824219 C 191.851562 88.824219 191.851562 88.832031 191.84375 88.824219 C 191.8125 88.800781 191.820312 88.808594 191.84375 88.824219 Z M 192.808594 90.082031 C 192.863281 90.296875 192.878906 90.507812 192.863281 90.722656 C 192.871094 90.867188 192.863281 91.007812 192.832031 91.160156 C 192.816406 91.421875 192.746094 91.664062 192.59375 91.894531 C 192.46875 92.125 192.300781 92.3125 192.089844 92.449219 C 191.898438 92.625 191.675781 92.742188 191.414062 92.804688 C 191.390625 92.8125 191.367188 92.820312 191.34375 92.828125 C 191.25 92.84375 191.148438 92.851562 191.066406 92.867188 C 190.988281 92.875 190.886719 92.890625 190.789062 92.90625 C 190.773438 92.90625 190.765625 92.90625 190.75 92.90625 C 190.742188 92.90625 190.726562 92.90625 190.71875 92.90625 C 190.710938 92.90625 190.710938 92.90625 190.703125 92.90625 C 190.617188 92.898438 190.523438 92.882812 190.433594 92.867188 C 190.347656 92.859375 190.253906 92.84375 190.164062 92.828125 C 190.140625 92.828125 190.117188 92.820312 190.09375 92.8125 C 189.914062 92.757812 189.730469 92.671875 189.558594 92.589844 C 189.53125 92.582031 189.515625 92.566406 189.492188 92.550781 C 189.421875 92.496094 189.34375 92.441406 189.28125 92.386719 C 189.214844 92.339844 189.136719 92.273438 189.066406 92.21875 C 189.058594 92.210938 189.050781 92.203125 189.035156 92.195312 C 189.027344 92.1875 189.019531 92.179688 189.011719 92.171875 C 189.011719 92.171875 189.003906 92.164062 189.003906 92.164062 C 188.898438 92.03125 188.796875 91.894531 188.695312 91.761719 C 188.6875 91.753906 188.6875 91.753906 188.679688 91.746094 C 188.535156 91.515625 188.457031 91.269531 188.441406 91.007812 C 188.394531 90.835938 188.394531 90.660156 188.441406 90.484375 C 188.457031 90.226562 188.527344 89.980469 188.679688 89.75 C 188.78125 89.613281 188.882812 89.480469 188.988281 89.347656 C 189.050781 89.289062 189.113281 89.234375 189.167969 89.1875 C 189.320312 89.054688 189.429688 88.949219 189.636719 88.824219 C 189.777344 88.738281 190.300781 88.546875 190.132812 88.609375 C 190.140625 88.609375 190.15625 88.601562 190.164062 88.601562 C 190.164062 88.601562 190.171875 88.601562 190.171875 88.601562 C 190.347656 88.578125 190.523438 88.554688 190.695312 88.53125 C 190.703125 88.53125 190.703125 88.53125 190.710938 88.53125 C 190.804688 88.53125 190.996094 88.5625 191.003906 88.570312 C 191.027344 88.570312 191.210938 88.585938 191.296875 88.609375 C 191.304688 88.609375 191.304688 88.609375 191.3125 88.617188 C 191.472656 88.679688 191.628906 88.753906 191.789062 88.816406 C 191.789062 88.816406 191.796875 88.816406 191.796875 88.824219 C 191.804688 88.824219 191.8125 88.832031 191.820312 88.839844 C 191.890625 88.894531 192.144531 89.078125 192.230469 89.15625 C 192.238281 89.15625 192.238281 89.164062 192.238281 89.164062 C 192.554688 89.472656 192.679688 89.671875 192.808594 90.082031 Z M 189.222656 91.632812 C 189.207031 91.609375 189.191406 91.585938 189.175781 91.5625 C 189.175781 91.570312 189.175781 91.570312 189.183594 91.578125 C 189.199219 91.59375 189.207031 91.617188 189.222656 91.632812 Z M 214.34375 79.332031 C 214.320312 79.316406 214.296875 79.300781 214.269531 79.292969 C 213.796875 79.0625 213.703125 79.046875 213.171875 78.992188 C 213.148438 78.992188 213.125 78.992188 213.101562 78.992188 C 212.902344 79.007812 212.695312 79.023438 212.507812 79.070312 C 212.492188 79.078125 212.46875 79.078125 212.453125 79.085938 C 212.269531 79.152344 212.09375 79.222656 211.921875 79.308594 C 211.898438 79.316406 211.882812 79.332031 211.859375 79.347656 C 211.707031 79.460938 211.542969 79.570312 211.40625 79.707031 C 211.257812 79.847656 211.128906 80.023438 211.027344 80.195312 C 210.933594 80.363281 210.871094 80.542969 210.804688 80.71875 C 210.796875 80.742188 210.789062 80.773438 210.78125 80.796875 C 210.695312 81.3125 210.679688 81.4375 210.78125 81.960938 C 210.789062 81.984375 210.789062 82.007812 210.796875 82.03125 C 210.863281 82.207031 210.925781 82.40625 211.027344 82.570312 C 211.035156 82.578125 211.042969 82.59375 211.050781 82.601562 C 211.105469 82.671875 211.164062 82.746094 211.210938 82.816406 C 211.265625 82.886719 211.320312 82.957031 211.375 83.023438 C 211.390625 83.046875 211.414062 83.0625 211.4375 83.085938 C 211.589844 83.210938 211.730469 83.339844 211.898438 83.441406 C 212.054688 83.535156 212.378906 83.65625 212.4375 83.671875 C 212.460938 83.679688 212.484375 83.6875 212.507812 83.695312 C 212.523438 83.695312 212.539062 83.695312 212.554688 83.703125 C 212.746094 83.757812 212.933594 83.796875 213.140625 83.796875 C 213.355469 83.796875 213.558594 83.75 213.757812 83.6875 C 213.765625 83.6875 213.773438 83.6875 213.78125 83.679688 C 213.953125 83.640625 214.105469 83.558594 214.246094 83.472656 C 214.277344 83.457031 214.3125 83.441406 214.335938 83.425781 C 214.335938 83.425781 214.34375 83.425781 214.34375 83.417969 C 214.523438 83.355469 214.691406 83.257812 214.832031 83.132812 C 215.046875 82.988281 215.21875 82.808594 215.339844 82.578125 C 215.402344 82.421875 215.472656 82.261719 215.535156 82.105469 C 215.632812 81.753906 215.632812 81.398438 215.535156 81.050781 C 215.472656 80.890625 215.402344 80.734375 215.339844 80.574219 C 215.332031 80.566406 215.324219 80.558594 215.316406 80.550781 C 215.269531 80.417969 215.210938 80.28125 215.140625 80.164062 C 215.039062 79.980469 214.910156 79.824219 214.769531 79.671875 C 214.652344 79.539062 214.492188 79.4375 214.34375 79.332031 Z M 202.816406 89.324219 C 202.949219 89.410156 203.101562 89.457031 203.257812 89.464844 C 203.417969 89.496094 203.574219 89.496094 203.734375 89.441406 C 203.988281 89.394531 204.230469 89.3125 204.46875 89.21875 C 204.546875 89.1875 204.621094 89.148438 204.699219 89.117188 C 204.785156 89.085938 204.871094 89.054688 204.953125 89.003906 C 204.953125 89.003906 204.953125 89.003906 204.960938 89.003906 C 204.96875 88.996094 204.984375 88.996094 204.992188 88.988281 C 205.054688 88.957031 205.117188 88.917969 205.179688 88.886719 C 205.292969 88.878906 205.402344 88.847656 205.503906 88.800781 C 205.65625 88.753906 205.78125 88.671875 205.886719 88.554688 C 206.003906 88.445312 206.082031 88.316406 206.128906 88.175781 C 206.203125 88.03125 206.242188 87.882812 206.234375 87.714844 C 206.21875 87.40625 206.121094 87.089844 205.886719 86.875 C 205.804688 86.8125 205.726562 86.75 205.648438 86.695312 C 205.464844 86.582031 205.261719 86.535156 205.046875 86.535156 C 204.984375 86.527344 204.921875 86.527344 204.855469 86.527344 C 204.800781 86.519531 204.746094 86.511719 204.699219 86.511719 C 204.683594 86.511719 204.667969 86.511719 204.652344 86.511719 C 204.5 86.519531 204.351562 86.542969 204.214844 86.589844 C 204.089844 86.617188 203.964844 86.640625 203.835938 86.6875 C 203.363281 86.859375 202.933594 87.105469 202.578125 87.46875 C 202.515625 87.550781 202.453125 87.628906 202.398438 87.707031 C 202.308594 87.84375 202.261719 87.992188 202.253906 88.152344 C 202.222656 88.253906 202.222656 88.363281 202.253906 88.46875 C 202.261719 88.625 202.308594 88.777344 202.398438 88.910156 C 202.5 89.070312 202.640625 89.210938 202.816406 89.324219 Z M 205.519531 73.445312 C 206.203125 71.859375 207.746094 70.625 209.414062 70.238281 C 211.351562 69.789062 213.28125 70.347656 214.824219 71.550781 C 215.347656 71.964844 215.21875 72.804688 214.824219 73.230469 C 214.359375 73.746094 213.628906 73.609375 213.148438 73.230469 C 213.28125 73.332031 213.078125 73.183594 213.054688 73.167969 C 212.972656 73.113281 212.886719 73.054688 212.800781 73.007812 C 212.664062 72.929688 212.523438 72.859375 212.378906 72.789062 C 212.339844 72.769531 212.324219 72.753906 212.316406 72.753906 C 212.316406 72.753906 212.316406 72.753906 212.285156 72.746094 C 212.214844 72.714844 212.136719 72.691406 212.0625 72.667969 C 211.898438 72.613281 211.722656 72.566406 211.550781 72.527344 C 211.46875 72.511719 211.390625 72.496094 211.320312 72.480469 C 211.304688 72.480469 211.296875 72.480469 211.28125 72.46875 C 211.097656 72.453125 210.925781 72.445312 210.742188 72.445312 C 210.664062 72.445312 210.585938 72.453125 210.503906 72.453125 C 210.464844 72.453125 210.386719 72.460938 210.355469 72.460938 C 210.21875 72.488281 210.085938 72.511719 209.953125 72.542969 C 209.792969 72.582031 209.636719 72.636719 209.476562 72.691406 C 209.460938 72.699219 209.460938 72.699219 209.453125 72.699219 C 209.4375 72.707031 209.429688 72.714844 209.40625 72.722656 C 209.34375 72.753906 209.269531 72.789062 209.207031 72.828125 C 209.082031 72.898438 208.953125 72.96875 208.828125 73.054688 C 208.835938 73.054688 208.726562 73.128906 208.679688 73.160156 C 208.644531 73.183594 208.589844 73.230469 208.582031 73.238281 C 208.457031 73.347656 208.335938 73.460938 208.226562 73.585938 C 208.179688 73.640625 208.132812 73.699219 208.085938 73.753906 C 208.0625 73.777344 208.0625 73.777344 208.054688 73.792969 C 208.054688 73.792969 208.054688 73.800781 208.039062 73.816406 C 207.863281 74.078125 207.710938 74.347656 207.585938 74.632812 C 207.324219 75.242188 206.472656 75.328125 205.964844 75.058594 C 205.332031 74.742188 205.277344 74.015625 205.519531 73.445312 Z M 211.296875 72.480469 C 211.398438 72.496094 211.359375 72.488281 211.296875 72.480469 Z M 187.886719 79.355469 C 186.171875 79.839844 184.707031 80.996094 184.128906 82.722656 C 183.933594 83.308594 184.359375 84.042969 184.960938 84.183594 C 185.617188 84.335938 186.210938 83.988281 186.425781 83.355469 C 186.441406 83.308594 186.457031 83.25 186.480469 83.203125 C 186.488281 83.1875 186.496094 83.171875 186.503906 83.15625 C 186.574219 83.039062 186.636719 82.917969 186.714844 82.800781 C 186.730469 82.777344 186.742188 82.769531 186.75 82.761719 C 186.796875 82.707031 186.84375 82.648438 186.890625 82.59375 C 186.984375 82.492188 187.089844 82.394531 187.191406 82.300781 C 187.199219 82.292969 187.253906 82.253906 187.285156 82.230469 C 187.316406 82.207031 187.355469 82.183594 187.367188 82.175781 C 187.492188 82.085938 187.617188 82.015625 187.753906 81.945312 C 187.824219 81.90625 187.894531 81.875 187.964844 81.84375 C 187.972656 81.835938 187.980469 81.835938 187.992188 81.835938 C 188 81.835938 188 81.828125 188.015625 81.828125 C 188.179688 81.761719 188.347656 81.707031 188.519531 81.660156 C 188.671875 81.621094 188.828125 81.582031 188.980469 81.550781 C 189.058594 81.535156 189.136719 81.519531 189.214844 81.503906 C 189.242188 81.492188 189.265625 81.492188 189.28125 81.492188 C 189.558594 81.453125 189.832031 81.4375 190.109375 81.445312 C 190.230469 81.445312 190.355469 81.453125 190.472656 81.46875 C 190.5 81.476562 190.539062 81.476562 190.578125 81.484375 C 190.648438 81.503906 190.710938 81.519531 190.78125 81.535156 C 190.847656 81.550781 190.910156 81.582031 190.980469 81.597656 C 191.035156 81.636719 191.097656 81.660156 191.164062 81.691406 C 191.203125 81.714844 191.390625 81.859375 191.21875 81.714844 C 191.699219 82.105469 192.4375 82.222656 192.894531 81.714844 C 193.289062 81.28125 193.410156 80.457031 192.894531 80.039062 C 191.472656 78.882812 189.574219 78.882812 187.886719 79.355469 Z M 187.886719 79.355469 " fill-opacity="1" fill-rule="nonzero"/></svg>