<svg xmlns="http://www.w3.org/2000/svg" xmlns:xlink="http://www.w3.org/1999/xlink" width="500" zoomAndPan="magnify" viewBox="0 0 375 374.999991" height="500" preserveAspectRatio="xMidYMid meet" version="1.0"><defs><clipPath id="09b288004c"><path d="M 170.652344 59.183594 L 216.390625 59.183594 L 216.390625 133.683594 L 170.652344 133.683594 Z M 170.652344 59.183594 " clip-rule="nonzero"/></clipPath><clipPath id="2c0cb07d77"><path d="M 187.902344 59.183594 L 199.140625 59.183594 C 203.714844 59.183594 208.101562 61 211.335938 64.234375 C 214.570312 67.46875 216.390625 71.859375 216.390625 76.433594 L 216.390625 116.371094 C 216.390625 120.945312 214.570312 125.332031 211.335938 128.570312 C 208.101562 131.804688 203.714844 133.621094 199.140625 133.621094 L 187.902344 133.621094 C 183.328125 133.621094 178.941406 131.804688 175.707031 128.570312 C 172.46875 125.332031 170.652344 120.945312 170.652344 116.371094 L 170.652344 76.433594 C 170.652344 71.859375 172.46875 67.46875 175.707031 64.234375 C 178.941406 61 183.328125 59.183594 187.902344 59.183594 Z M 187.902344 59.183594 " clip-rule="nonzero"/></clipPath><clipPath id="865e59354c"><path d="M 6.644531 30.410156 L 368 30.410156 L 368 366.410156 L 6.644531 366.410156 Z M 6.644531 30.410156 " clip-rule="nonzero"/></clipPath></defs><g clip-path="url(#09b288004c)"><g clip-path="url(#2c0cb07d77)"><path fill="#65a1b7" d="M 170.652344 59.183594 L 216.390625 59.183594 L 216.390625 133.683594 L 170.652344 133.683594 Z M 170.652344 59.183594 " fill-opacity="1" fill-rule="nonzero"/></g></g><path fill="#febd08" d="M 117.84375 39.234375 C 117.84375 39.234375 234.03125 32.992188 235.070312 32.992188 C 236.109375 32.992188 272.890625 62.90625 273.539062 64.078125 C 274.191406 65.246094 271.851562 75.78125 271.851562 75.78125 L 131.226562 83.910156 Z M 117.84375 39.234375 " fill-opacity="1" fill-rule="nonzero"/><path fill="#8bd8f1" d="M 117.710938 41.835938 L 147.085938 75.652344 L 159.300781 159.804688 L 153.453125 234.722656 L 109.980469 188.484375 L 116.414062 163.707031 Z M 117.710938 41.835938 " fill-opacity="1" fill-rule="nonzero"/><path fill="#fe7f02" d="M 142.015625 70.578125 L 275.488281 65.898438 L 275.878906 205.457031 L 191.078125 196.09375 L 145.265625 205.847656 L 143.511719 197.847656 Z M 142.015625 70.578125 " fill-opacity="1" fill-rule="nonzero"/><path fill="#b357c9" d="M 160.210938 82.414062 L 258.726562 78.773438 C 258.726562 78.773438 259.765625 81.246094 260.152344 81.636719 C 260.542969 82.023438 260.285156 178.535156 260.285156 178.535156 L 162.941406 181.914062 L 159.820312 177.234375 Z M 160.210938 82.414062 " fill-opacity="1" fill-rule="nonzero"/><path fill="#d585e8" d="M 182.304688 104.394531 L 238.351562 102.933594 L 238.449219 161.070312 L 182.5 163.21875 Z M 182.304688 104.394531 " fill-opacity="1" fill-rule="nonzero"/><path fill="#d585e8" d="M 27.90625 214.171875 L 9.582031 201.164062 C 9.582031 201.164062 55.589844 159.21875 56.367188 159.023438 C 57.148438 158.828125 114.460938 165.265625 114.460938 165.265625 C 114.460938 165.265625 140.390625 195.898438 140.585938 196.480469 C 140.78125 197.066406 170.21875 196.480469 170.21875 196.480469 C 170.21875 196.480469 170.21875 230.429688 168.851562 231.210938 C 167.488281 231.988281 27.90625 214.171875 27.90625 214.171875 Z M 27.90625 214.171875 " fill-opacity="1" fill-rule="nonzero"/><path fill="#fe7f02" d="M 133.46875 231.40625 L 144.484375 216.578125 L 158.132812 197.164062 L 178.796875 196.871094 L 177.625 307.003906 L 144.484375 352.460938 L 136.6875 348.363281 Z M 133.46875 231.40625 " fill-opacity="1" fill-rule="nonzero"/><path fill="#a6c437" d="M 9.777344 202.140625 L 142.339844 218.332031 L 142.925781 351.972656 L 140.390625 352.949219 L 10.554688 337.148438 Z M 9.777344 202.140625 " fill-opacity="1" fill-rule="nonzero"/><path fill="#e87890" d="M 26.214844 325.765625 C 26.214844 325.765625 70.597656 228.085938 71.378906 227.503906 C 72.160156 226.917969 75.179688 226.234375 75.179688 226.234375 C 75.179688 226.234375 123.527344 337.246094 123.136719 337.246094 C 122.75 337.246094 100.328125 335.292969 100.328125 335.292969 L 92.140625 306.90625 L 73.816406 267.300781 L 45.449219 328.464844 Z M 26.214844 325.765625 " fill-opacity="1" fill-rule="nonzero"/><path fill="#e87890" d="M 50.03125 304.761719 L 108.125 313.832031 C 108.125 313.832031 111.050781 336.464844 108.320312 336.074219 C 105.59375 335.683594 38.042969 327.195312 38.042969 326.808594 C 38.042969 326.417969 50.03125 304.761719 50.03125 304.761719 Z M 50.03125 304.761719 " fill-opacity="1" fill-rule="nonzero"/><path fill="#aa5788" d="M 276.660156 175.605469 L 306.292969 175.996094 C 306.292969 175.996094 360.292969 218.136719 363.410156 219.894531 C 366.53125 221.648438 366.140625 240.183594 366.140625 240.183594 C 366.140625 240.183594 288.550781 268.667969 277.050781 269.839844 C 265.546875 271.007812 226.167969 247.402344 225.777344 246.425781 C 225.386719 245.453125 193.351562 196.742188 193.351562 196.742188 L 275.101562 192.839844 Z M 276.660156 175.605469 " fill-opacity="1" fill-rule="nonzero"/><path fill="#ffce52" d="M 192.703125 195.441406 L 266.132812 244.085938 L 290.890625 329.929688 L 254.4375 363.875 C 254.4375 363.875 246.832031 363.679688 246.246094 363.289062 C 245.664062 362.898438 189.90625 313.34375 189.90625 313.34375 L 190.492188 196.222656 Z M 192.703125 195.441406 " fill-opacity="1" fill-rule="nonzero"/><path fill="#e87890" d="M 249.5625 231.988281 L 365.554688 222.886719 L 365.167969 354.511719 L 249.367188 363.484375 Z M 249.5625 231.988281 " fill-opacity="1" fill-rule="nonzero"/><path fill="#a6c437" d="M 264.378906 305.152344 C 264.378906 305.152344 260.152344 284.144531 270.421875 264.507812 C 280.6875 244.867188 295.894531 235.890625 317.859375 240.3125 C 339.824219 244.734375 354.25 268.148438 354.378906 289.21875 C 354.507812 310.289062 347.882812 333.960938 322.40625 344.753906 C 296.933594 355.550781 276.917969 330.320312 276.917969 330.320312 C 276.917969 330.320312 264.441406 313.28125 264.378906 305.152344 Z M 264.378906 305.152344 " fill-opacity="1" fill-rule="nonzero"/><path fill="#e87890" d="M 281.46875 308.597656 C 281.46875 308.597656 276.011719 290.910156 284.847656 275.953125 C 293.683594 260.992188 311.554688 256.085938 325.691406 266.328125 C 339.824219 276.570312 337.09375 293.445312 336.898438 301.25 C 336.703125 309.054688 331.34375 328.464844 309.703125 329.246094 C 288.0625 330.027344 281.46875 308.597656 281.46875 308.597656 Z M 281.46875 308.597656 " fill-opacity="1" fill-rule="nonzero"/><g clip-path="url(#865e59354c)"><path fill="#000000" d="M 142.984375 357.335938 C 98.097656 351.824219 53.277344 346.320312 8.527344 340.824219 C 7.191406 339.246094 6.945312 337.460938 6.949219 335.5625 C 6.953125 330.261719 6.90625 324.964844 6.882812 319.664062 C 6.863281 315.953125 6.84375 312.242188 6.839844 308.53125 C 6.835938 305.09375 6.859375 301.65625 6.855469 298.21875 C 6.851562 294.457031 6.757812 290.691406 6.847656 286.929688 C 6.929688 283.382812 6.84375 279.839844 6.851562 276.296875 C 6.859375 272.589844 6.832031 268.878906 6.839844 265.171875 C 6.84375 261.792969 6.875 258.410156 6.890625 255.027344 C 6.914062 250.71875 6.945312 246.410156 6.953125 242.101562 C 6.957031 239.097656 6.90625 236.09375 6.90625 233.089844 C 6.917969 225.546875 6.917969 218.007812 6.972656 210.46875 C 6.996094 207.523438 7.152344 204.582031 7.246094 201.636719 C 7.28125 200.542969 7.621094 199.625 8.59375 198.984375 C 9.089844 198.660156 9.527344 198.230469 9.941406 197.800781 C 11.539062 196.160156 13.070312 194.449219 14.710938 192.855469 C 17.136719 190.496094 19.632812 188.210938 22.105469 185.902344 C 23.542969 184.5625 24.96875 183.207031 26.445312 181.914062 C 28.949219 179.722656 31.492188 177.570312 34.019531 175.402344 C 35.632812 174.019531 37.230469 172.617188 38.867188 171.257812 C 40.882812 169.589844 42.917969 167.949219 44.960938 166.3125 C 48.023438 163.855469 51.097656 161.417969 54.164062 158.964844 C 54.800781 158.457031 55.425781 157.929688 56.042969 157.394531 C 56.71875 156.808594 57.511719 156.703125 58.347656 156.800781 C 60.898438 157.09375 63.445312 157.410156 65.996094 157.699219 C 70.554688 158.210938 75.113281 158.707031 79.671875 159.214844 C 85.152344 159.828125 90.636719 160.445312 96.117188 161.058594 C 101.921875 161.707031 107.730469 162.355469 113.539062 162.996094 C 113.695312 163.011719 113.855469 162.976562 114.046875 162.960938 C 114.421875 162.519531 114.492188 162.035156 114.421875 161.453125 C 114.183594 159.496094 114.1875 157.535156 114.394531 155.574219 C 114.421875 155.308594 114.476562 155.023438 114.417969 154.765625 C 114.132812 153.523438 114.226562 152.265625 114.226562 151.007812 C 114.222656 121.652344 114.21875 92.292969 114.230469 62.933594 C 114.234375 61.25 114.066406 59.550781 114.453125 57.875 C 114.523438 57.566406 114.453125 57.21875 114.40625 56.898438 C 114.265625 55.917969 114.15625 54.945312 114.460938 53.972656 C 114.507812 53.824219 114.503906 53.644531 114.480469 53.484375 C 114.171875 51.308594 114.480469 49.132812 114.46875 46.960938 C 114.453125 44.449219 114.671875 41.941406 114.554688 39.433594 C 114.515625 38.65625 114.527344 37.90625 115.148438 37.199219 C 115.875 37.085938 116.675781 36.925781 117.480469 36.84375 C 118.785156 36.710938 120.089844 36.605469 121.398438 36.535156 C 128.164062 36.179688 134.929688 35.847656 141.691406 35.488281 C 151.347656 34.976562 161 34.445312 170.65625 33.933594 C 175.78125 33.660156 180.910156 33.421875 186.039062 33.148438 C 190.894531 32.886719 195.746094 32.589844 200.597656 32.328125 C 205.289062 32.078125 209.980469 31.859375 214.671875 31.605469 C 221.328125 31.238281 227.980469 30.847656 234.632812 30.46875 C 235.066406 30.445312 235.5 30.429688 235.847656 30.414062 C 240.820312 34.484375 245.722656 38.5 250.621094 42.507812 C 258.660156 49.082031 266.695312 55.65625 274.738281 62.222656 C 275.328125 62.703125 275.964844 63.125 276.570312 63.589844 C 277.609375 64.394531 278.164062 65.394531 278.316406 66.765625 C 278.53125 68.671875 278.296875 70.574219 278.457031 72.480469 C 278.554688 73.664062 278.40625 74.867188 278.394531 76.0625 C 278.386719 77.148438 278.378906 78.234375 278.496094 79.324219 C 278.632812 80.625 278.5625 81.945312 278.5625 83.257812 C 278.566406 98.785156 278.5625 114.308594 278.570312 129.835938 C 278.570312 138.417969 278.589844 147 278.59375 155.582031 C 278.59375 161.210938 278.585938 166.839844 278.585938 172.46875 C 278.585938 172.894531 278.648438 173.316406 278.683594 173.738281 C 279.347656 174.007812 279.953125 173.902344 280.539062 173.90625 C 288.351562 173.914062 296.164062 173.910156 303.976562 173.910156 C 304.359375 173.910156 304.742188 173.9375 305.125 173.90625 C 305.941406 173.835938 306.609375 174.082031 307.164062 174.710938 C 307.449219 175.035156 307.796875 175.3125 308.144531 175.574219 C 327.351562 190.210938 346.566406 204.84375 365.777344 219.476562 C 367.160156 220.136719 367.394531 221.417969 367.539062 222.742188 C 367.582031 223.121094 367.546875 223.507812 367.546875 223.890625 C 367.550781 228.261719 367.542969 232.632812 367.558594 237.007812 C 367.570312 239.246094 367.65625 241.484375 367.65625 243.722656 C 367.652344 246.777344 367.578125 249.832031 367.574219 252.890625 C 367.574219 255.453125 367.636719 258.011719 367.660156 260.574219 C 367.667969 261.503906 367.636719 262.429688 367.632812 263.359375 C 367.632812 263.792969 367.664062 264.226562 367.675781 264.660156 C 367.691406 265.257812 367.78125 265.867188 367.703125 266.457031 C 367.496094 268.035156 367.667969 269.609375 367.695312 271.1875 C 367.714844 272.21875 367.667969 273.257812 367.640625 274.292969 C 367.636719 274.453125 367.558594 274.621094 367.578125 274.777344 C 367.941406 277.484375 367.453125 280.207031 367.761719 282.921875 C 367.875 283.933594 367.5625 284.996094 367.675781 286.007812 C 367.792969 287.058594 367.703125 288.066406 367.632812 289.101562 C 367.558594 290.234375 367.625 291.382812 367.695312 292.523438 C 367.773438 293.722656 367.910156 294.917969 367.613281 296.109375 C 367.597656 296.160156 367.582031 296.21875 367.589844 296.269531 C 368.03125 298.703125 367.394531 301.152344 367.710938 303.59375 C 367.851562 304.675781 367.894531 305.773438 367.636719 306.855469 C 367.609375 306.960938 367.570312 307.074219 367.589844 307.175781 C 368.035156 309.769531 367.394531 312.386719 367.746094 314.992188 C 367.859375 315.839844 367.695312 316.730469 367.652344 317.601562 C 367.644531 317.761719 367.5625 317.929688 367.585938 318.082031 C 367.984375 320.734375 367.527344 323.398438 367.730469 326.0625 C 367.894531 328.164062 367.632812 330.300781 367.597656 332.421875 C 367.578125 333.5625 367.636719 334.703125 367.667969 335.847656 C 367.675781 336.171875 367.726562 336.5 367.722656 336.828125 C 367.679688 338.949219 367.625 341.074219 367.585938 343.199219 C 367.570312 343.964844 367.585938 344.726562 367.589844 345.492188 C 367.589844 347.839844 367.597656 350.1875 367.597656 352.535156 C 367.597656 353.46875 367.542969 354.382812 367.105469 355.246094 C 366.792969 355.863281 366.371094 356.351562 365.722656 356.566406 C 365.054688 356.789062 364.371094 357.007812 363.675781 357.085938 C 361.832031 357.292969 359.976562 357.429688 358.128906 357.578125 C 354.152344 357.898438 350.179688 358.210938 346.207031 358.519531 C 341.519531 358.882812 336.835938 359.238281 332.152344 359.597656 C 326.164062 360.058594 320.171875 360.511719 314.183594 360.984375 C 303.675781 361.8125 293.167969 362.65625 282.660156 363.484375 C 277.921875 363.859375 273.183594 364.195312 268.445312 364.574219 C 261.421875 365.132812 254.398438 365.683594 247.382812 366.3125 C 246.183594 366.417969 245.3125 366.132812 244.429688 365.332031 C 237.882812 359.375 231.300781 353.453125 224.726562 347.523438 C 215.191406 338.921875 205.65625 330.324219 196.121094 321.722656 C 193.644531 319.488281 191.183594 317.242188 188.683594 315.039062 C 188.050781 314.480469 187.8125 313.878906 187.816406 313.042969 C 187.824219 311.023438 187.691406 309.003906 187.691406 306.988281 C 187.691406 304.640625 187.773438 302.296875 187.800781 299.953125 C 187.808594 299.242188 187.722656 298.535156 187.722656 297.828125 C 187.71875 295.917969 187.691406 294.007812 187.757812 292.097656 C 187.851562 289.316406 187.664062 286.539062 187.671875 283.761719 C 187.675781 281.855469 187.785156 279.945312 187.824219 278.039062 C 187.835938 277.386719 187.742188 276.730469 187.742188 276.078125 C 187.730469 274.167969 187.691406 272.257812 187.75 270.347656 C 187.832031 267.675781 187.703125 265.007812 187.695312 262.339844 C 187.691406 260.375 187.800781 258.410156 187.824219 256.449219 C 187.835938 255.523438 187.761719 254.59375 187.742188 253.667969 C 187.71875 252.355469 187.695312 251.046875 187.703125 249.734375 C 187.710938 247.5 187.75 245.265625 187.769531 243.03125 C 187.78125 241.445312 187.785156 239.863281 187.789062 238.28125 C 187.789062 236.480469 187.78125 234.679688 187.785156 232.878906 C 187.792969 230.199219 187.808594 227.523438 187.8125 224.847656 C 187.824219 220.804688 187.800781 216.757812 187.851562 212.710938 C 187.898438 209.164062 188.042969 205.617188 188.105469 202.070312 C 188.125 200.882812 188.253906 199.679688 187.972656 198.441406 C 187.152344 198.167969 186.335938 198.363281 185.535156 198.375 C 184.769531 198.382812 184.007812 198.433594 183.242188 198.472656 C 182.4375 198.511719 181.621094 198.464844 180.757812 198.632812 C 180.707031 199.144531 180.632812 199.566406 180.632812 199.988281 C 180.648438 203.210938 180.691406 206.4375 180.703125 209.660156 C 180.710938 212.066406 180.675781 214.46875 180.675781 216.871094 C 180.675781 218.070312 180.730469 219.273438 180.734375 220.472656 C 180.738281 221.617188 180.707031 222.761719 180.695312 223.90625 C 180.675781 225.378906 180.648438 226.855469 180.648438 228.328125 C 180.648438 229.199219 180.695312 230.074219 180.71875 230.945312 C 180.726562 231.273438 180.738281 231.601562 180.738281 231.929688 C 180.730469 233.890625 180.792969 235.859375 180.691406 237.816406 C 180.585938 239.832031 180.855469 241.84375 180.660156 243.863281 C 180.539062 245.105469 180.636719 246.367188 180.644531 247.621094 C 180.652344 248.546875 180.6875 249.472656 180.695312 250.402344 C 180.714844 252.414062 180.730469 254.429688 180.734375 256.441406 C 180.738281 258.078125 180.710938 259.714844 180.710938 261.347656 C 180.710938 262.054688 180.761719 262.765625 180.773438 263.472656 C 180.78125 263.90625 180.769531 264.34375 180.742188 264.777344 C 180.722656 265.105469 180.636719 265.429688 180.640625 265.753906 C 180.664062 267.222656 180.792969 268.695312 180.726562 270.160156 C 180.628906 272.230469 180.925781 274.296875 180.660156 276.367188 C 180.59375 276.894531 180.761719 277.449219 180.769531 277.992188 C 180.78125 279.300781 180.753906 280.605469 180.757812 281.910156 C 180.757812 283 180.773438 284.089844 180.785156 285.179688 C 180.789062 285.398438 180.835938 285.625 180.800781 285.835938 C 180.621094 286.921875 180.699219 288 180.746094 289.09375 C 180.816406 290.722656 180.71875 292.359375 180.710938 293.992188 C 180.707031 295.898438 180.746094 297.804688 180.730469 299.707031 C 180.714844 302 180.664062 304.292969 180.625 306.585938 C 180.609375 307.453125 180.171875 308.140625 179.671875 308.800781 C 177.789062 311.285156 175.910156 313.769531 174.035156 316.253906 C 163.953125 329.597656 153.875 342.941406 143.796875 356.285156 C 143.566406 356.589844 143.332031 356.890625 142.984375 357.335938 Z M 139.355469 352.003906 C 139.828125 351.316406 139.757812 350.773438 139.703125 350.226562 C 139.652344 349.742188 139.570312 349.246094 139.617188 348.765625 C 139.714844 347.726562 139.789062 346.703125 139.609375 345.667969 C 139.53125 345.246094 139.621094 344.796875 139.636719 344.359375 C 139.648438 343.980469 139.707031 343.597656 139.660156 343.226562 C 139.429688 341.378906 139.828125 339.523438 139.574219 337.675781 C 139.535156 337.417969 139.648438 337.140625 139.671875 336.867188 C 139.699219 336.542969 139.769531 336.203125 139.710938 335.894531 C 139.355469 334.054688 139.789062 332.199219 139.566406 330.359375 C 139.539062 330.148438 139.609375 329.925781 139.613281 329.707031 C 139.621094 329.277344 139.648438 328.839844 139.601562 328.414062 C 139.496094 327.484375 139.59375 326.574219 139.683594 325.644531 C 139.773438 324.683594 139.613281 323.699219 139.582031 322.722656 C 139.570312 322.398438 139.648438 322.074219 139.640625 321.753906 C 139.605469 319.851562 139.394531 317.933594 139.566406 316.050781 C 139.714844 314.414062 139.441406 312.808594 139.613281 311.171875 C 139.800781 309.402344 139.496094 307.589844 139.535156 305.800781 C 139.566406 304.445312 139.546875 303.09375 139.539062 301.738281 C 139.527344 299.566406 139.550781 297.398438 139.546875 295.226562 C 139.542969 293.765625 139.585938 292.304688 139.554688 290.839844 C 139.535156 290.03125 139.597656 289.222656 139.5625 288.40625 C 139.484375 286.777344 139.679688 285.144531 139.542969 283.511719 C 139.519531 283.25 139.613281 282.972656 139.644531 282.703125 C 139.675781 282.433594 139.761719 282.148438 139.707031 281.894531 C 139.320312 280.167969 139.808594 278.417969 139.5625 276.691406 C 139.519531 276.371094 139.605469 276.035156 139.609375 275.710938 C 139.613281 275.171875 139.578125 274.628906 139.601562 274.089844 C 139.675781 272.246094 139.613281 270.398438 139.660156 268.554688 C 139.667969 268.175781 139.703125 267.796875 139.699219 267.414062 C 139.667969 265.675781 139.625 263.933594 139.601562 262.191406 C 139.597656 261.867188 139.675781 261.539062 139.703125 261.214844 C 139.726562 260.886719 139.757812 260.5625 139.753906 260.234375 C 139.742188 258.382812 139.710938 256.527344 139.714844 254.675781 C 139.714844 252.820312 139.757812 250.964844 139.761719 249.105469 C 139.765625 244.789062 139.757812 240.472656 139.757812 236.15625 C 139.761719 231.511719 139.769531 226.863281 139.769531 222.21875 C 139.769531 221.851562 139.695312 221.488281 139.652344 221.097656 C 139.300781 221.007812 139.046875 220.914062 138.78125 220.882812 C 134.285156 220.332031 129.789062 219.785156 125.289062 219.238281 C 119.542969 218.539062 113.796875 217.839844 108.050781 217.136719 C 103.988281 216.636719 99.925781 216.125 95.859375 215.625 C 90.929688 215.019531 85.996094 214.425781 81.0625 213.820312 C 76.292969 213.234375 71.527344 212.632812 66.757812 212.046875 C 61.773438 211.433594 56.785156 210.839844 51.796875 210.226562 C 46.867188 209.625 41.9375 209.011719 37.007812 208.402344 C 31.859375 207.761719 26.710938 207.121094 21.5625 206.480469 C 18.90625 206.152344 16.253906 205.820312 13.597656 205.507812 C 13.238281 205.464844 12.871094 205.523438 12.355469 205.542969 C 12.503906 207.042969 12.234375 208.4375 12.402344 209.855469 C 12.527344 210.882812 12.695312 211.953125 12.53125 212.953125 C 12.3125 214.28125 12.53125 215.554688 12.578125 216.855469 C 12.628906 218.328125 12.636719 219.804688 12.636719 221.277344 C 12.640625 257.628906 12.632812 293.980469 12.660156 330.332031 C 12.660156 332.019531 12.242188 333.667969 12.417969 335.367188 C 12.515625 336.324219 12.546875 336.464844 13.523438 336.589844 C 14.28125 336.691406 15.042969 336.789062 15.800781 336.878906 C 21.765625 337.597656 27.730469 338.304688 33.691406 339.035156 C 39.328125 339.726562 44.960938 340.445312 50.59375 341.136719 C 59.050781 342.175781 67.503906 343.199219 75.960938 344.238281 C 81.921875 344.96875 87.882812 345.71875 93.84375 346.457031 C 98.773438 347.0625 103.707031 347.664062 108.636719 348.265625 C 113.515625 348.867188 118.394531 349.46875 123.269531 350.066406 C 127.386719 350.574219 131.503906 351.085938 135.625 351.585938 C 136.863281 351.738281 138.105469 351.867188 139.355469 352.003906 Z M 247.023438 233.765625 C 246.476562 233.390625 245.988281 233.042969 245.492188 232.714844 C 232.980469 224.503906 220.46875 216.292969 207.957031 208.085938 C 203.527344 205.179688 199.097656 202.269531 194.660156 199.375 C 194.320312 199.152344 194.019531 198.75 193.410156 198.960938 C 193.371094 208.375 193.460938 217.8125 193.46875 227.246094 C 193.480469 236.75 193.53125 246.25 193.546875 255.75 C 193.558594 265.261719 193.5625 274.769531 193.542969 284.28125 C 193.527344 293.773438 193.667969 303.261719 193.347656 312.730469 C 195.042969 314.261719 196.664062 315.722656 198.285156 317.1875 C 211.996094 329.554688 225.703125 341.925781 239.414062 354.292969 C 241.5625 356.234375 243.710938 358.175781 245.871094 360.105469 C 246.128906 360.335938 246.339844 360.75 246.871094 360.535156 C 246.953125 358.929688 246.972656 357.3125 246.878906 355.683594 C 246.761719 353.726562 246.789062 351.757812 246.789062 349.792969 C 246.789062 349.03125 246.890625 348.273438 246.941406 347.511719 C 246.960938 347.1875 247.011719 346.855469 246.96875 346.535156 C 246.570312 343.597656 246.855469 340.644531 246.816406 337.703125 C 246.800781 336.679688 246.828125 335.65625 246.824219 334.628906 C 246.804688 331.632812 246.585938 328.628906 246.96875 325.636719 C 247.007812 325.316406 246.949219 324.984375 246.914062 324.660156 C 246.878906 324.28125 246.769531 323.902344 246.78125 323.527344 C 246.875 320.585938 246.578125 317.636719 246.980469 314.699219 C 247.003906 314.539062 247.019531 314.363281 246.980469 314.210938 C 246.609375 312.699219 246.742188 311.160156 246.796875 309.640625 C 246.867188 307.679688 246.554688 305.707031 246.980469 303.761719 C 247.027344 303.554688 246.960938 303.328125 246.945312 303.109375 C 246.894531 302.402344 246.800781 301.699219 246.792969 300.992188 C 246.773438 299.085938 246.78125 297.175781 246.804688 295.265625 C 246.8125 294.667969 246.90625 294.070312 246.933594 293.472656 C 246.957031 293.039062 246.953125 292.605469 246.933594 292.171875 C 246.902344 291.574219 246.804688 290.976562 246.800781 290.382812 C 246.785156 288.363281 246.789062 286.34375 246.804688 284.324219 C 246.808594 283.78125 246.894531 283.238281 246.925781 282.695312 C 246.949219 282.261719 246.964844 281.824219 246.941406 281.394531 C 246.910156 280.742188 246.804688 280.09375 246.800781 279.441406 C 246.789062 277.476562 246.804688 275.511719 246.828125 273.546875 C 246.832031 273.003906 246.910156 272.460938 246.933594 271.917969 C 246.949219 271.429688 246.953125 270.941406 246.933594 270.453125 C 246.914062 269.855469 246.816406 269.253906 246.832031 268.660156 C 246.898438 265.933594 246.703125 263.203125 247.007812 260.480469 C 247.035156 260.214844 246.984375 259.9375 246.964844 259.664062 C 246.929688 259.066406 246.855469 258.46875 246.867188 257.871094 C 246.882812 256.558594 246.964844 255.25 246.972656 253.9375 C 246.984375 251.320312 246.953125 248.699219 246.960938 246.082031 C 246.972656 242.527344 247.003906 238.976562 247.023438 235.425781 C 247.023438 234.882812 247.023438 234.339844 247.023438 233.765625 Z M 252.230469 233.996094 C 252.199219 234.746094 252.160156 235.28125 252.164062 235.816406 C 252.164062 238.875 252.175781 241.933594 252.1875 244.992188 C 252.191406 246.195312 252.199219 247.394531 252.214844 248.59375 C 252.234375 250.339844 252.277344 252.085938 252.289062 253.832031 C 252.300781 255.6875 252.277344 257.539062 252.289062 259.394531 C 252.296875 261.085938 252.355469 262.777344 252.355469 264.46875 C 252.355469 266.324219 252.28125 268.179688 252.296875 270.03125 C 252.316406 272.488281 252.441406 274.945312 252.441406 277.40625 C 252.457031 301.617188 252.457031 325.832031 252.449219 350.042969 C 252.449219 351.789062 252.367188 353.535156 252.351562 355.28125 C 252.335938 356.96875 252.351562 358.660156 252.367188 360.351562 C 252.371094 360.5 252.460938 360.652344 252.535156 360.863281 C 252.90625 360.886719 253.277344 360.9375 253.648438 360.929688 C 257.050781 360.828125 360.671875 352.550781 361.96875 352.273438 C 362.011719 351.933594 362.097656 351.566406 362.09375 351.195312 C 362.082031 350.105469 362.011719 349.015625 362.011719 347.921875 C 362.007812 346.015625 362.054688 344.109375 362.054688 342.203125 C 362.054688 340.457031 362 338.710938 362 336.964844 C 361.996094 335.113281 362.039062 333.261719 362.039062 331.410156 C 362.035156 329.664062 361.984375 327.917969 361.984375 326.171875 C 361.980469 324.324219 362.023438 322.472656 362.019531 320.621094 C 362.015625 318.875 361.960938 317.132812 361.960938 315.386719 C 361.960938 313.480469 362.007812 311.578125 362.007812 309.671875 C 362.011719 307.984375 361.960938 306.292969 361.964844 304.601562 C 361.964844 302.699219 362.011719 300.792969 362.011719 298.886719 C 362.007812 297.199219 361.945312 295.507812 361.953125 293.820312 C 361.957031 292.078125 362.007812 290.335938 362.046875 288.59375 C 362.125 285.054688 361.941406 281.515625 362.058594 277.972656 C 362.179688 274.328125 361.972656 270.675781 362.058594 267.019531 C 362.144531 263.367188 362.089844 259.710938 362.09375 256.058594 C 362.09375 252.234375 362.089844 248.414062 362.09375 244.59375 C 362.09375 241.257812 362.101562 237.925781 362.105469 234.59375 C 362.105469 231.96875 362.109375 229.34375 362.101562 226.722656 C 362.101562 226.296875 362.195312 225.839844 361.730469 225.402344 C 325.355469 228.257812 288.894531 231.117188 252.230469 233.996094 Z M 273.078125 68.738281 C 272.730469 68.683594 272.519531 68.617188 272.308594 68.621094 C 270.234375 68.644531 268.160156 68.648438 266.085938 68.71875 C 261.171875 68.875 256.261719 69.082031 251.351562 69.242188 C 245.34375 69.4375 239.339844 69.613281 233.335938 69.792969 C 229.023438 69.921875 224.710938 70.042969 220.398438 70.164062 C 216.359375 70.277344 212.316406 70.367188 208.277344 70.496094 C 203.308594 70.652344 198.34375 70.851562 193.375 71 C 188.738281 71.140625 184.09375 71.234375 179.453125 71.351562 C 179.183594 71.355469 178.910156 71.378906 178.636719 71.386719 C 176.179688 71.472656 173.722656 71.558594 171.269531 71.636719 C 170.339844 71.667969 169.414062 71.679688 168.484375 71.710938 C 166.082031 71.785156 163.679688 71.867188 161.28125 71.949219 C 160.1875 71.984375 159.097656 72.011719 158.003906 72.050781 C 156.3125 72.113281 154.621094 72.183594 152.929688 72.242188 C 150.527344 72.332031 148.128906 72.414062 145.726562 72.503906 C 145.410156 72.519531 145.097656 72.574219 144.730469 72.613281 C 144.582031 73.277344 144.601562 73.863281 144.648438 74.457031 C 144.726562 75.4375 144.832031 76.417969 144.839844 77.398438 C 144.867188 81.332031 144.863281 85.265625 144.871094 89.199219 C 144.875 90.839844 144.871094 92.476562 144.886719 94.117188 C 144.894531 95.371094 144.957031 96.625 144.953125 97.882812 C 144.945312 100.0625 144.769531 102.253906 144.910156 104.425781 C 145.050781 106.613281 144.957031 108.789062 144.960938 110.972656 C 144.960938 112.550781 144.941406 114.132812 144.957031 115.710938 C 144.960938 116.585938 145.046875 117.457031 145.046875 118.328125 C 145.042969 119.53125 144.988281 120.730469 144.972656 121.929688 C 144.949219 123.402344 144.921875 124.875 144.929688 126.34375 C 144.9375 127.652344 145.019531 128.960938 145.015625 130.273438 C 145.011719 132.398438 144.949219 134.523438 144.941406 136.648438 C 144.929688 138.996094 144.960938 141.339844 144.960938 143.6875 C 144.960938 145.101562 144.914062 146.519531 144.921875 147.933594 C 144.925781 149.300781 144.996094 150.664062 144.988281 152.027344 C 144.980469 154.097656 144.910156 156.171875 144.902344 158.242188 C 144.898438 159.277344 145.011719 160.316406 145.011719 161.351562 C 145.015625 164.621094 144.859375 167.890625 144.933594 171.167969 C 145.027344 175.097656 144.949219 179.027344 144.933594 182.960938 C 144.917969 186.347656 144.878906 189.734375 144.867188 193.121094 C 144.867188 193.648438 144.691406 194.21875 145.148438 194.734375 C 145.382812 194.75 145.652344 194.785156 145.921875 194.777344 C 152.199219 194.59375 158.476562 194.410156 164.757812 194.214844 C 172.78125 193.964844 180.808594 193.703125 188.832031 193.464844 C 190.359375 193.417969 191.890625 193.46875 193.417969 193.464844 C 193.796875 193.464844 194.179688 193.4375 194.558594 193.40625 C 195.429688 193.34375 196.300781 193.238281 197.171875 193.210938 C 208.089844 192.878906 219.007812 192.558594 229.929688 192.226562 C 234.078125 192.101562 238.226562 191.957031 242.375 191.824219 C 247.507812 191.660156 252.636719 191.5 257.769531 191.34375 C 262.410156 191.199219 267.050781 191.070312 271.691406 190.921875 C 272.109375 190.90625 272.527344 190.800781 273.019531 190.726562 C 273.0625 190.15625 273.171875 189.671875 273.125 189.199219 C 272.957031 187.511719 273.324219 185.8125 272.996094 184.132812 C 272.953125 183.921875 272.996094 183.695312 272.996094 183.476562 C 273.007812 181.734375 273.089844 179.984375 273.011719 178.246094 C 272.929688 176.449219 273.199219 174.667969 273.015625 172.855469 C 272.820312 170.96875 272.945312 169.042969 272.964844 167.136719 C 272.984375 165.339844 273.164062 163.550781 272.980469 161.753906 C 272.921875 161.164062 273.109375 160.546875 273.050781 159.957031 C 272.753906 157.015625 273.273438 154.074219 272.988281 151.136719 C 272.957031 150.8125 273.03125 150.484375 273.046875 150.15625 C 273.066406 149.828125 273.113281 149.496094 273.078125 149.171875 C 272.773438 146.234375 273.265625 143.292969 272.996094 140.351562 C 272.933594 139.707031 273.140625 139.035156 273.074219 138.394531 C 272.773438 135.507812 273.285156 132.617188 272.996094 129.734375 C 272.960938 129.359375 273.042969 128.972656 273.058594 128.589844 C 273.078125 128.210938 273.113281 127.824219 273.089844 127.445312 C 272.976562 125.371094 272.914062 123.304688 273.144531 121.234375 C 273.171875 121.015625 273.183594 120.792969 273.160156 120.578125 C 272.910156 118.402344 273.117188 116.222656 273.078125 114.042969 C 273.054688 112.679688 273.246094 111.308594 273.148438 109.957031 C 272.980469 107.609375 273.113281 105.269531 273.117188 102.925781 C 273.117188 101.617188 273.171875 100.308594 273.167969 99 C 273.160156 96.816406 273.109375 94.636719 273.105469 92.453125 C 273.105469 90.980469 273.164062 89.503906 273.164062 88.03125 C 273.171875 84.972656 273.148438 81.917969 273.148438 78.859375 C 273.148438 75.800781 273.164062 72.738281 273.164062 69.679688 C 273.164062 69.414062 273.117188 69.148438 273.078125 68.738281 Z M 153.65625 199.390625 C 150.277344 199.527344 147.28125 199.449219 144.292969 199.699219 C 143.421875 199.769531 142.550781 199.859375 141.679688 199.863281 C 140.953125 199.863281 140.148438 199.695312 139.882812 198.960938 C 139.53125 197.984375 138.847656 197.300781 138.21875 196.5625 C 131.039062 188.109375 123.851562 179.664062 116.664062 171.21875 C 115.886719 170.304688 115.097656 169.398438 114.332031 168.46875 C 113.996094 168.0625 113.601562 167.832031 113.078125 167.792969 C 112.699219 167.761719 112.320312 167.707031 111.941406 167.664062 C 107.816406 167.214844 103.691406 166.773438 99.566406 166.316406 C 95.28125 165.839844 91 165.34375 86.714844 164.863281 C 78.847656 163.980469 70.980469 163.105469 63.113281 162.230469 C 61.867188 162.09375 60.617188 161.972656 59.367188 161.839844 C 58.917969 161.789062 58.519531 161.855469 58.160156 162.183594 C 57.476562 162.808594 56.765625 163.40625 56.050781 163.996094 C 53.734375 165.894531 51.414062 167.785156 49.09375 169.679688 C 47.027344 171.367188 44.957031 173.054688 42.894531 174.757812 C 41.507812 175.902344 40.140625 177.070312 38.753906 178.222656 C 37.207031 179.507812 35.625 180.757812 34.097656 182.074219 C 32.324219 183.601562 30.578125 185.171875 28.839844 186.746094 C 26.453125 188.90625 24.046875 191.046875 21.722656 193.269531 C 19.429688 195.457031 17.230469 197.738281 14.992188 199.980469 C 14.800781 200.171875 14.597656 200.371094 14.789062 200.757812 C 15.058594 200.804688 15.367188 200.871094 15.683594 200.910156 C 17.6875 201.15625 19.695312 201.394531 21.699219 201.644531 C 26.359375 202.222656 31.011719 202.8125 35.671875 203.382812 C 40.765625 204.007812 45.863281 204.601562 50.957031 205.226562 C 56.539062 205.914062 62.113281 206.628906 67.691406 207.3125 C 77.011719 208.457031 86.332031 209.585938 95.652344 210.730469 C 103.289062 211.671875 110.925781 212.628906 118.566406 213.570312 C 123.929688 214.234375 129.296875 214.875 134.660156 215.53125 C 136.503906 215.757812 138.347656 215.96875 140.183594 216.230469 C 140.914062 216.332031 141.472656 216.171875 141.878906 215.546875 C 141.96875 215.410156 142.074219 215.285156 142.171875 215.152344 C 145.769531 210.273438 149.367188 205.390625 152.964844 200.507812 C 153.144531 200.261719 153.289062 199.984375 153.65625 199.390625 Z M 359.121094 220.734375 C 358.628906 219.980469 358.09375 219.6875 357.625 219.332031 C 351.9375 214.988281 346.242188 210.65625 340.550781 206.320312 C 328.859375 197.414062 317.167969 188.511719 305.488281 179.59375 C 304.769531 179.042969 304.0625 178.703125 303.113281 178.707031 C 295.414062 178.738281 287.714844 178.722656 280.011719 178.730469 C 279.589844 178.730469 279.167969 178.808594 278.691406 178.851562 C 278.648438 179.3125 278.585938 179.683594 278.585938 180.054688 C 278.570312 183.5 278.585938 186.941406 278.558594 190.386719 C 278.546875 191.476562 278.441406 192.566406 278.34375 193.652344 C 278.3125 194.027344 278.195312 194.398438 278.0625 194.753906 C 277.855469 195.3125 277.457031 195.570312 276.824219 195.636719 C 275.464844 195.777344 274.109375 195.652344 272.753906 195.691406 C 263.746094 195.957031 254.742188 196.25 245.734375 196.527344 C 233.015625 196.914062 220.292969 197.292969 207.574219 197.679688 C 205.882812 197.730469 204.191406 197.804688 202.5 197.878906 C 202.257812 197.890625 201.9375 197.792969 201.808594 198.25 C 202.226562 198.542969 202.65625 198.863281 203.105469 199.15625 C 210.5 204.015625 217.898438 208.867188 225.296875 213.722656 C 232.832031 218.667969 240.375 223.601562 247.894531 228.566406 C 248.757812 229.136719 249.597656 229.410156 250.648438 229.308594 C 253.746094 229.015625 256.855469 228.820312 259.957031 228.570312 C 264.527344 228.207031 269.097656 227.820312 273.671875 227.457031 C 278.679688 227.058594 283.6875 226.683594 288.695312 226.292969 C 295.066406 225.792969 301.433594 225.285156 307.804688 224.789062 C 312.429688 224.429688 317.058594 224.089844 321.6875 223.726562 C 326.3125 223.367188 330.9375 222.976562 335.566406 222.613281 C 342.207031 222.097656 348.851562 221.59375 355.496094 221.082031 C 356.039062 221.039062 356.582031 220.964844 357.125 220.914062 C 357.707031 220.855469 358.292969 220.808594 359.121094 220.734375 Z M 121.332031 41.394531 C 121.503906 42.179688 121.957031 42.519531 122.296875 42.921875 C 126.078125 47.378906 129.867188 51.832031 133.65625 56.28125 C 136.558594 59.695312 139.476562 63.09375 142.355469 66.527344 C 142.960938 67.246094 143.578125 67.605469 144.578125 67.570312 C 152.929688 67.292969 161.28125 67.082031 169.632812 66.839844 C 176.234375 66.652344 182.839844 66.449219 189.441406 66.253906 C 189.714844 66.246094 189.988281 66.21875 190.261719 66.210938 C 192.769531 66.128906 195.28125 66.042969 197.789062 65.964844 C 198.609375 65.9375 199.429688 65.929688 200.246094 65.902344 C 202.59375 65.824219 204.9375 65.738281 207.285156 65.660156 C 208.265625 65.628906 209.25 65.621094 210.230469 65.589844 C 212.6875 65.511719 215.144531 65.425781 217.597656 65.347656 C 218.527344 65.320312 219.453125 65.296875 220.382812 65.265625 C 222.671875 65.191406 224.964844 65.117188 227.257812 65.042969 C 228.402344 65.003906 229.550781 64.972656 230.695312 64.9375 C 232.714844 64.871094 234.734375 64.804688 236.753906 64.738281 C 238.171875 64.691406 239.589844 64.648438 241.007812 64.601562 C 242.753906 64.546875 244.5 64.484375 246.246094 64.429688 C 247.882812 64.375 249.523438 64.328125 251.160156 64.277344 C 252.851562 64.226562 254.542969 64.171875 256.234375 64.125 C 260.054688 64.015625 263.875 63.917969 267.695312 63.800781 C 267.976562 63.792969 268.394531 63.929688 268.46875 63.347656 C 268.046875 62.988281 267.601562 62.589844 267.140625 62.214844 C 259.953125 56.335938 252.761719 50.457031 245.574219 44.578125 C 242.359375 41.949219 239.15625 39.3125 235.929688 36.695312 C 234.105469 35.214844 234.609375 35.394531 232.40625 35.5 C 229.460938 35.640625 226.515625 35.773438 223.570312 35.929688 C 218.71875 36.195312 213.867188 36.488281 209.015625 36.75 C 201.382812 37.15625 193.746094 37.539062 186.113281 37.945312 C 177.003906 38.425781 167.898438 38.917969 158.792969 39.40625 C 156.449219 39.53125 154.105469 39.65625 151.757812 39.773438 C 148.867188 39.921875 145.980469 40.058594 143.089844 40.210938 C 138.128906 40.476562 133.167969 40.75 128.203125 41.019531 C 125.972656 41.140625 123.742188 41.261719 121.332031 41.394531 Z M 159.929688 199.230469 C 159.535156 199.75 159.136719 200.265625 158.75 200.792969 C 154.570312 206.464844 150.429688 212.167969 146.179688 217.789062 C 145.21875 219.054688 144.851562 220.359375 144.855469 221.859375 C 144.855469 222.132812 144.859375 222.40625 144.867188 222.679688 C 144.902344 223.878906 144.972656 225.082031 144.972656 226.28125 C 144.96875 229.9375 144.941406 233.597656 144.921875 237.253906 C 144.910156 240.53125 144.886719 243.808594 144.882812 247.082031 C 144.875 252.601562 144.878906 258.117188 144.882812 263.632812 C 144.886719 266.417969 144.910156 269.199219 144.910156 271.984375 C 144.910156 273.730469 144.867188 275.476562 144.875 277.222656 C 144.882812 278.421875 144.976562 279.621094 144.976562 280.820312 C 144.972656 285.128906 144.9375 289.4375 144.933594 293.746094 C 144.933594 296.582031 144.96875 299.417969 144.972656 302.253906 C 144.976562 305.636719 144.964844 309.019531 144.957031 312.398438 C 144.941406 317.855469 144.921875 323.3125 144.902344 328.765625 C 144.894531 331.113281 144.882812 333.460938 144.878906 335.808594 C 144.875 339.03125 144.871094 342.253906 144.886719 345.476562 C 144.886719 345.753906 144.71875 346.15625 145.273438 346.285156 C 145.589844 345.882812 145.925781 345.460938 146.253906 345.03125 C 154.253906 334.4375 162.253906 323.847656 170.253906 313.253906 C 171.703125 311.335938 173.148438 309.417969 174.605469 307.503906 C 174.976562 307.015625 175.238281 306.519531 175.222656 305.867188 C 175.167969 303.738281 175.152344 301.609375 175.136719 299.480469 C 175.128906 298.496094 175.15625 297.515625 175.160156 296.53125 C 175.175781 294.296875 175.1875 292.058594 175.199219 289.824219 C 175.199219 289.714844 175.175781 289.605469 175.175781 289.496094 C 175.167969 288.1875 175.15625 286.882812 175.15625 285.574219 C 175.15625 283.285156 175.167969 280.996094 175.175781 278.707031 C 175.175781 278.65625 175.160156 278.601562 175.160156 278.546875 C 175.152344 277.292969 175.136719 276.039062 175.140625 274.785156 C 175.144531 274.023438 175.210938 273.257812 175.203125 272.496094 C 175.171875 270.042969 175.117188 267.589844 175.082031 265.136719 C 175.074219 264.753906 175.128906 264.371094 175.144531 263.992188 C 175.167969 263.171875 175.191406 262.351562 175.199219 261.535156 C 175.210938 260.609375 175.207031 259.679688 175.203125 258.753906 C 175.195312 257.988281 175.167969 257.226562 175.164062 256.460938 C 175.15625 255.367188 175.160156 254.277344 175.167969 253.1875 C 175.171875 252.421875 175.214844 251.65625 175.207031 250.890625 C 175.1875 248.4375 175.140625 245.980469 175.132812 243.523438 C 175.128906 242.324219 175.203125 241.121094 175.203125 239.921875 C 175.203125 237.515625 175.160156 235.113281 175.164062 232.710938 C 175.167969 227.792969 175.191406 222.878906 175.210938 217.960938 C 175.230469 212.058594 175.257812 206.160156 175.265625 200.257812 C 175.265625 199.785156 175.398438 199.269531 174.945312 198.769531 C 170.003906 198.8125 164.992188 198.976562 159.929688 199.230469 Z M 139.394531 190.078125 C 139.394531 188.691406 139.390625 187.441406 139.394531 186.195312 C 139.40625 183.300781 139.429688 180.40625 139.4375 177.511719 C 139.445312 176.152344 139.445312 174.789062 139.417969 173.425781 C 139.390625 171.742188 139.269531 170.054688 139.292969 168.371094 C 139.328125 166.085938 139.332031 163.804688 139.277344 161.519531 C 139.261719 160.816406 139.398438 160.105469 139.390625 159.402344 C 139.371094 157.550781 139.308594 155.699219 139.265625 153.847656 C 139.261719 153.628906 139.269531 153.410156 139.273438 153.191406 C 139.300781 151.675781 139.359375 150.15625 139.34375 148.636719 C 139.328125 146.734375 139.257812 144.828125 139.210938 142.921875 C 139.207031 142.757812 139.207031 142.59375 139.210938 142.433594 C 139.25 140.914062 139.320312 139.394531 139.316406 137.875 C 139.3125 136.078125 139.226562 134.28125 139.214844 132.480469 C 139.210938 131.722656 139.347656 130.960938 139.339844 130.199219 C 139.324219 128.402344 139.226562 126.609375 139.226562 124.816406 C 139.226562 122.640625 139.28125 120.46875 139.214844 118.292969 C 139.195312 117.535156 139.300781 116.769531 139.296875 116.011719 C 139.285156 114.046875 139.238281 112.085938 139.230469 110.125 C 139.226562 109.582031 139.359375 109.039062 139.355469 108.5 C 139.332031 106.707031 139.277344 104.914062 139.238281 103.125 C 139.234375 102.90625 139.269531 102.6875 139.273438 102.46875 C 139.277344 101.980469 139.273438 101.492188 139.273438 101.003906 C 139.265625 99.210938 139.214844 97.414062 139.28125 95.621094 C 139.304688 94.96875 139.371094 94.328125 139.277344 93.671875 C 139.21875 93.242188 139.226562 92.796875 139.269531 92.363281 C 139.359375 91.4375 139.304688 90.519531 139.28125 89.589844 C 139.238281 88.070312 139.332031 86.550781 139.296875 85.027344 C 139.253906 83.285156 139.414062 81.542969 139.4375 79.800781 C 139.46875 77.234375 139.390625 74.664062 139.5 72.097656 C 139.550781 70.960938 139.214844 70.132812 138.476562 69.3125 C 136.9375 67.609375 135.484375 65.832031 133.996094 64.085938 C 129.640625 58.96875 125.285156 53.847656 120.925781 48.734375 C 120.617188 48.371094 120.269531 48.035156 119.792969 47.527344 C 119.710938 48.089844 119.613281 48.449219 119.613281 48.804688 C 119.609375 53.664062 119.613281 58.523438 119.632812 63.386719 C 119.644531 65.453125 119.726562 67.519531 119.738281 69.585938 C 119.75 71.21875 119.640625 72.855469 119.703125 74.488281 C 119.777344 76.441406 119.738281 78.402344 119.71875 80.351562 C 119.707031 82.199219 119.734375 84.050781 119.707031 85.902344 C 119.695312 86.714844 119.890625 87.554688 119.761719 88.34375 C 119.507812 89.921875 119.761719 91.492188 119.667969 93.066406 C 119.523438 95.503906 119.921875 97.957031 119.625 100.40625 C 119.585938 100.722656 119.679688 101.058594 119.710938 101.382812 C 119.734375 101.652344 119.820312 101.9375 119.773438 102.195312 C 119.492188 103.714844 119.695312 105.242188 119.695312 106.761719 C 119.695312 107.960938 119.792969 109.160156 119.734375 110.351562 C 119.699219 111.007812 119.605469 111.644531 119.734375 112.300781 C 119.804688 112.664062 119.742188 113.058594 119.726562 113.4375 C 119.703125 113.871094 119.644531 114.304688 119.644531 114.738281 C 119.625 117.183594 119.976562 119.632812 119.632812 122.078125 C 119.59375 122.339844 119.675781 122.621094 119.703125 122.890625 C 119.734375 123.214844 119.839844 123.554688 119.785156 123.863281 C 119.515625 125.382812 119.621094 126.914062 119.710938 128.429688 C 119.835938 130.496094 119.496094 132.5625 119.785156 134.621094 C 119.480469 136.25 119.695312 137.882812 119.722656 139.515625 C 119.738281 140.441406 119.914062 141.386719 119.765625 142.285156 C 119.511719 143.863281 119.742188 145.429688 119.660156 147.003906 C 119.53125 149.554688 119.738281 152.117188 119.632812 154.679688 C 119.53125 157.132812 119.578125 159.59375 119.621094 162.046875 C 119.652344 163.679688 119.722656 165.304688 119.300781 166.929688 C 125.847656 174.609375 132.371094 182.257812 138.894531 189.902344 C 138.953125 189.972656 139.085938 189.972656 139.394531 190.078125 Z M 73.882812 221.566406 C 75.054688 222.449219 75.570312 223.5625 76.070312 224.742188 C 77.746094 228.660156 79.5 232.542969 81.226562 236.441406 C 86.980469 249.429688 92.734375 262.417969 98.488281 275.40625 C 105.214844 290.589844 111.945312 305.777344 118.671875 320.960938 C 120.6875 325.507812 122.691406 330.058594 124.71875 334.597656 C 125.03125 335.289062 125.453125 335.929688 125.789062 336.613281 C 126.003906 337.050781 126.195312 337.507812 126.320312 337.976562 C 126.652344 339.203125 125.863281 340.140625 124.5625 340.007812 C 122.175781 339.765625 119.792969 339.476562 117.410156 339.199219 C 112.90625 338.671875 108.40625 338.140625 103.90625 337.605469 C 99.566406 337.09375 95.230469 336.570312 90.890625 336.066406 C 83.730469 335.238281 76.570312 334.425781 69.410156 333.589844 C 64.476562 333.015625 59.546875 332.398438 54.613281 331.824219 C 48.375 331.097656 42.132812 330.402344 35.894531 329.679688 C 32.75 329.3125 29.605469 328.925781 26.464844 328.527344 C 25.984375 328.464844 25.492188 328.359375 25.050781 328.167969 C 24.03125 327.726562 23.574219 326.261719 24.304688 325.421875 C 25.085938 324.519531 25.480469 323.460938 25.945312 322.421875 C 38.914062 293.6875 51.871094 264.945312 64.828125 236.207031 C 66.425781 232.671875 68.023438 229.136719 69.605469 225.59375 C 69.894531 224.949219 70.085938 224.261719 70.378906 223.617188 C 71.03125 222.191406 71.324219 221.28125 73.550781 221.515625 C 73.660156 221.527344 73.769531 221.546875 73.882812 221.566406 Z M 30.558594 324.175781 C 60.003906 327.617188 89.21875 331.054688 118.4375 334.425781 C 118.644531 334.449219 118.859375 334.375 119.054688 334.351562 C 119.082031 334.191406 119.148438 334.0625 119.109375 333.984375 C 103.914062 299.613281 88.710938 265.25 73.5 230.886719 C 73.398438 230.652344 73.238281 230.441406 73.109375 230.222656 C 72.945312 230.316406 72.804688 230.347656 72.769531 230.425781 C 58.835938 261.289062 44.90625 292.15625 30.980469 323.023438 C 30.847656 323.316406 30.757812 323.625 30.558594 324.175781 Z M 22.433594 251.027344 C 22.3125 249.710938 21.511719 248.726562 20.292969 248.15625 C 19.507812 247.789062 18.433594 247.980469 17.910156 248.601562 C 17.34375 249.265625 17.09375 250.035156 17.550781 250.859375 C 17.890625 251.472656 18.269531 252.070312 18.683594 252.636719 C 19.0625 253.152344 19.601562 253.390625 20.195312 253.320312 C 21.640625 253.410156 22.539062 252.175781 22.433594 251.027344 Z M 21.425781 241.074219 C 21.117188 239.988281 19.773438 238.921875 18.660156 238.878906 C 17.304688 238.824219 16.324219 240.230469 16.902344 241.441406 C 17.15625 241.972656 17.460938 242.53125 17.886719 242.917969 C 18.484375 243.460938 19.214844 243.855469 20.097656 243.527344 C 20.949219 243.210938 21.515625 242.414062 21.511719 241.503906 C 21.492188 241.390625 21.46875 241.230469 21.425781 241.074219 Z M 17.640625 232.757812 C 18.128906 233.425781 18.847656 233.730469 19.625 233.65625 C 20.335938 233.585938 20.949219 233.226562 21.246094 232.472656 C 21.800781 231.074219 20.460938 229.027344 18.964844 229.019531 C 18.859375 229.019531 18.75 229.050781 18.644531 229.078125 C 17.609375 229.316406 17.128906 229.953125 17.140625 231.175781 C 17.105469 231.695312 17.28125 232.265625 17.640625 232.757812 Z M 21.765625 220.238281 C 21.246094 219.785156 20.632812 219.476562 19.84375 219.769531 C 19.042969 220.070312 18.570312 220.59375 18.464844 221.402344 C 18.339844 222.34375 19.199219 223.574219 20.121094 223.933594 C 20.496094 224.078125 20.824219 224.113281 21.207031 223.953125 C 22.125 223.574219 22.570312 222.941406 22.542969 222.015625 C 22.546875 221.269531 22.25 220.664062 21.765625 220.238281 Z M 201.960938 301.382812 C 201.414062 298.65625 200.777344 295.949219 200.75 293.148438 C 200.75 292.984375 200.757812 292.804688 200.695312 292.660156 C 200.378906 291.929688 200.472656 291.160156 200.457031 290.398438 C 200.429688 288.867188 200.550781 287.316406 200.34375 285.8125 C 199.824219 282.03125 200.472656 278.285156 200.472656 274.523438 C 200.472656 274.472656 200.480469 274.417969 200.484375 274.363281 C 200.679688 272.964844 200.863281 271.5625 201.070312 270.167969 C 201.3125 268.554688 201.609375 266.945312 202.144531 265.398438 C 202.480469 264.414062 202.871094 263.394531 204.226562 263.457031 C 204.324219 263.460938 204.4375 263.394531 204.527344 263.339844 C 205.257812 262.871094 205.644531 262.078125 204.742188 261.347656 C 204.082031 260.816406 203.421875 260.695312 202.621094 261.058594 C 201.308594 261.65625 200.417969 262.667969 199.777344 263.898438 C 198.609375 266.15625 198.0625 268.601562 197.78125 271.105469 C 197.625 272.511719 197.640625 273.941406 197.394531 275.324219 C 197.160156 276.632812 197.171875 277.929688 197.152344 279.238281 C 197.144531 279.675781 197.214844 280.136719 197.101562 280.546875 C 196.808594 281.625 196.867188 282.714844 196.855469 283.804688 C 196.839844 285.554688 196.632812 287.34375 196.921875 289.042969 C 197.238281 290.882812 196.859375 292.765625 197.441406 294.5625 C 197.355469 296.21875 197.777344 297.8125 198.089844 299.410156 C 198.519531 301.613281 199.144531 303.757812 200.179688 305.769531 C 200.511719 306.417969 200.945312 306.988281 201.523438 307.394531 C 202.699219 308.222656 203.242188 308.230469 204.292969 307.351562 C 204.890625 306.851562 205.382812 306.261719 205.617188 305.511719 C 205.859375 304.734375 206.066406 303.9375 206.234375 303.140625 C 206.832031 300.316406 207.449219 297.488281 207.367188 294.570312 C 207.359375 294.25 207.46875 293.929688 207.511719 293.605469 C 207.566406 293.171875 207.648438 292.738281 207.652344 292.308594 C 207.664062 288.371094 207.664062 284.4375 207.65625 280.503906 C 207.652344 279.628906 207.648438 278.753906 207.5625 277.882812 C 207.316406 275.34375 207.007812 272.808594 206.773438 270.265625 C 206.683594 269.308594 206.132812 268.796875 205.335938 268.464844 C 205.152344 268.390625 204.894531 268.398438 204.707031 268.460938 C 204.171875 268.640625 203.757812 268.992188 203.472656 269.484375 C 203.242188 269.878906 203.15625 270.273438 203.339844 270.730469 C 203.4375 270.976562 203.421875 271.265625 203.441406 271.539062 C 203.554688 273.222656 203.660156 274.90625 203.773438 276.59375 C 203.789062 276.808594 203.839844 277.023438 203.859375 277.242188 C 203.929688 277.945312 204.015625 278.648438 204.054688 279.351562 C 204.089844 280.007812 204.082031 280.664062 204.078125 281.320312 C 204.074219 283.496094 204.359375 285.660156 204.152344 287.851562 C 203.917969 290.289062 204.035156 292.75 203.816406 295.207031 C 203.628906 297.265625 203.289062 299.304688 203.105469 301.359375 C 203.058594 301.871094 202.828125 302.367188 202.644531 302.992188 C 202.207031 302.429688 202.070312 301.921875 201.960938 301.382812 Z M 240.132812 271.28125 C 239.449219 270.355469 238.558594 269.625 237.488281 269.167969 C 236.210938 268.625 234.710938 269.730469 234.835938 271.097656 C 234.972656 272.617188 236.714844 274.429688 238.242188 274.644531 C 239.464844 274.816406 240.507812 273.898438 240.5 272.414062 C 240.429688 272.1875 240.398438 271.644531 240.132812 271.28125 Z M 237.988281 285.527344 C 238.84375 285.898438 239.488281 285.585938 240.097656 285.132812 C 240.722656 284.671875 240.875 283.957031 240.699219 283.210938 C 240.441406 282.101562 239.816406 281.210938 238.871094 280.589844 C 238.371094 280.265625 237.78125 280.09375 237.152344 280.285156 C 236.210938 280.566406 235.710938 281.304688 235.734375 282.421875 C 235.757812 283.820312 236.660156 284.953125 237.988281 285.527344 Z M 239.183594 260.136719 C 238.878906 258.8125 238.117188 257.777344 236.90625 257.121094 C 236.226562 256.757812 235.511719 256.792969 234.917969 257.277344 C 234.292969 257.78125 233.996094 258.511719 234.171875 259.300781 C 234.433594 260.460938 235.148438 261.359375 236.121094 262.015625 C 236.417969 262.214844 236.824219 262.253906 236.824219 262.25 C 238.402344 262.441406 239.464844 261.375 239.183594 260.136719 Z M 234.441406 250.023438 C 234.601562 250.972656 235.109375 251.78125 235.8125 252.371094 C 236.320312 252.800781 236.984375 253.132812 237.757812 252.847656 C 239.042969 252.378906 239.578125 251.023438 238.917969 249.824219 C 238.570312 249.199219 238.144531 248.628906 237.519531 248.261719 C 237.160156 248.050781 236.738281 247.9375 236.585938 247.878906 C 235.121094 247.871094 234.246094 248.863281 234.441406 250.023438 Z M 356.433594 293.816406 C 356.289062 304.984375 353.359375 316.265625 346.796875 326.484375 C 342.164062 333.691406 336.207031 339.535156 328.621094 343.605469 C 320.992188 347.695312 312.859375 349.335938 304.246094 348.347656 C 296.699219 347.484375 289.902344 344.667969 283.804688 340.15625 C 275.585938 334.078125 269.84375 326.101562 266.015625 316.691406 C 263.566406 310.671875 262.167969 304.402344 261.671875 297.925781 C 260.792969 286.507812 262.707031 275.597656 267.671875 265.265625 C 271.152344 258.023438 275.941406 251.777344 282.226562 246.730469 C 287.957031 242.132812 294.394531 239.027344 301.636719 237.71875 C 309.988281 236.207031 318.058594 237.242188 325.808594 240.695312 C 332.574219 243.710938 338.203125 248.214844 342.910156 253.894531 C 349.25 261.546875 353.1875 270.34375 355.152344 280.046875 C 356.007812 284.289062 356.429688 288.582031 356.433594 293.816406 Z M 351.910156 292.96875 C 351.945312 290.0625 351.6875 287.183594 351.289062 284.308594 C 350.1875 276.347656 347.585938 268.921875 343.300781 262.117188 C 338.941406 255.1875 333.289062 249.585938 325.976562 245.789062 C 318.984375 242.160156 311.566406 240.808594 303.753906 241.933594 C 297.363281 242.855469 291.589844 245.347656 286.410156 249.203125 C 279.453125 254.386719 274.398438 261.078125 270.929688 268.984375 C 266.398438 279.300781 265.054688 290.0625 266.5625 301.210938 C 267.632812 309.121094 270.195312 316.496094 274.394531 323.285156 C 278.3125 329.613281 283.335938 334.863281 289.75 338.695312 C 297.171875 343.128906 305.1875 344.941406 313.792969 343.789062 C 320.3125 342.914062 326.183594 340.390625 331.460938 336.476562 C 337.632812 331.894531 342.3125 326.058594 345.761719 319.21875 C 349.925781 310.96875 351.832031 302.179688 351.910156 292.96875 Z M 261.578125 180.503906 C 258.824219 180.613281 256.207031 180.726562 253.589844 180.816406 C 249.113281 180.972656 244.636719 181.113281 240.164062 181.265625 C 235.46875 181.429688 230.777344 181.601562 226.082031 181.765625 C 218.769531 182.027344 211.457031 182.285156 204.144531 182.539062 C 194.320312 182.878906 184.496094 183.195312 174.671875 183.546875 C 170.199219 183.707031 165.726562 183.941406 161.253906 184.113281 C 160.230469 184.152344 159.191406 184.25 158.242188 183.636719 C 157.789062 183.34375 157.5 183.015625 157.484375 182.472656 C 157.4375 180.835938 157.386719 179.203125 157.347656 177.566406 C 157.335938 177.078125 157.367188 176.589844 157.378906 176.101562 C 157.398438 175.234375 157.410156 174.363281 157.433594 173.496094 C 157.4375 173.222656 157.527344 172.9375 157.476562 172.679688 C 157.199219 171.324219 157.335938 169.957031 157.351562 168.597656 C 157.375 166.535156 157.179688 164.460938 157.453125 162.402344 C 157.472656 162.238281 157.511719 162.066406 157.480469 161.914062 C 157.203125 160.613281 157.347656 159.304688 157.355469 158 C 157.367188 155.878906 157.261719 153.753906 157.457031 151.632812 C 157.476562 151.417969 157.519531 151.191406 157.480469 150.980469 C 157.203125 149.460938 157.421875 147.929688 157.375 146.40625 C 157.324219 144.558594 157.441406 142.707031 157.457031 140.855469 C 157.46875 139.65625 157.410156 138.457031 157.414062 137.257812 C 157.429688 133.328125 157.464844 129.398438 157.472656 125.464844 C 157.488281 118.140625 157.484375 110.820312 157.5 103.496094 C 157.5 102.734375 157.605469 101.976562 157.640625 101.214844 C 157.660156 100.894531 157.621094 100.566406 157.621094 100.242188 C 157.625 99.265625 157.648438 98.285156 157.632812 97.308594 C 157.628906 96.765625 157.519531 96.226562 157.535156 95.6875 C 157.585938 93.945312 157.582031 92.199219 157.664062 90.457031 C 157.738281 88.796875 157.714844 87.101562 157.636719 85.425781 C 157.589844 84.429688 157.582031 83.4375 157.847656 82.5 C 158.046875 81.789062 158.527344 81.160156 158.941406 80.386719 C 193.058594 79.152344 227.207031 77.984375 261.335938 76.78125 C 261.53125 77.207031 261.59375 77.578125 261.8125 77.777344 C 262.6875 78.5625 262.722656 79.589844 262.75 80.632812 C 262.824219 83.582031 262.957031 86.527344 262.964844 89.476562 C 262.992188 102.101562 262.996094 114.726562 262.992188 127.347656 C 262.992188 143.472656 262.984375 159.589844 262.960938 175.714844 C 262.957031 176.742188 262.769531 177.773438 262.660156 178.804688 C 262.640625 178.960938 262.59375 179.136719 262.507812 179.261719 C 262.226562 179.664062 261.921875 180.046875 261.578125 180.503906 Z M 235.902344 157.976562 C 235.902344 157.25 235.902344 156.597656 235.902344 155.945312 C 235.902344 148.292969 235.902344 140.644531 235.90625 132.992188 C 235.90625 131.847656 235.898438 130.703125 235.921875 129.554688 C 235.984375 126.339844 235.789062 123.117188 236.144531 119.90625 C 236.167969 119.691406 236.152344 119.472656 236.140625 119.253906 C 236.085938 118.167969 235.988281 117.082031 235.976562 115.992188 C 235.9375 112.78125 236.164062 109.570312 236.078125 106.355469 C 236.070312 106.042969 235.988281 105.738281 235.9375 105.40625 C 234.769531 105.40625 233.679688 105.367188 232.597656 105.414062 C 227.6875 105.625 222.777344 105.867188 217.871094 106.089844 C 207.886719 106.542969 197.90625 106.996094 187.921875 107.449219 C 187.214844 107.484375 186.503906 107.527344 185.800781 107.605469 C 185.332031 107.65625 185.0625 107.957031 185.164062 108.386719 C 185.355469 109.203125 185.347656 109.988281 185.152344 110.804688 C 185.066406 111.15625 185.179688 111.5625 185.21875 111.941406 C 185.261719 112.316406 185.363281 112.695312 185.367188 113.070312 C 185.394531 115.800781 185.410156 118.53125 185.414062 121.257812 C 185.425781 133.9375 185.429688 146.613281 185.445312 159.289062 C 185.445312 159.652344 185.53125 160.015625 185.578125 160.390625 C 185.882812 160.425781 186.097656 160.480469 186.308594 160.472656 C 202.617188 159.710938 218.925781 158.949219 235.230469 158.179688 C 235.386719 158.171875 235.535156 158.089844 235.902344 157.976562 Z M 165.269531 85.203125 C 165.652344 85.636719 165.890625 85.929688 166.15625 86.199219 C 167.769531 87.824219 169.378906 89.457031 171.007812 91.066406 C 173.179688 93.210938 175.183594 95.523438 177.480469 97.539062 C 177.769531 97.792969 178.023438 98.082031 178.3125 98.332031 C 179.632812 99.46875 180.984375 100.570312 182.273438 101.738281 C 183.089844 102.476562 183.960938 102.847656 185.082031 102.792969 C 191.191406 102.496094 197.300781 102.25 203.40625 101.964844 C 209.023438 101.703125 214.636719 101.414062 220.253906 101.152344 C 225.324219 100.914062 230.398438 100.707031 235.46875 100.476562 C 235.734375 100.464844 235.996094 100.386719 236.074219 100.375 C 236.921875 99.496094 237.625 98.738281 238.359375 98.011719 C 238.945312 97.441406 239.601562 96.945312 240.167969 96.363281 C 241.730469 94.761719 243.242188 93.113281 244.8125 91.523438 C 247.726562 88.570312 250.671875 85.644531 253.601562 82.707031 C 253.777344 82.53125 253.933594 82.339844 254.109375 82.148438 C 253.945312 82.023438 253.863281 81.90625 253.78125 81.90625 C 224.488281 82.921875 195.191406 83.941406 165.894531 84.96875 C 165.75 84.972656 165.613281 85.070312 165.269531 85.203125 Z M 180.039062 161.882812 C 180.039062 161.28125 180.039062 160.625 180.039062 159.972656 C 180.039062 150.296875 180.035156 140.621094 180.042969 130.945312 C 180.042969 128.652344 180.074219 126.363281 180.113281 124.070312 C 180.148438 121.894531 180.25 119.71875 180.253906 117.542969 C 180.265625 114.496094 180.214844 111.453125 180.191406 108.40625 C 180.191406 108.296875 180.175781 108.183594 180.195312 108.078125 C 180.625 105.828125 180.070312 105.914062 178.785156 104.558594 C 178.523438 104.285156 178.222656 104.046875 177.941406 103.789062 C 176.121094 102.140625 174.242188 100.554688 172.496094 98.828125 C 170.171875 96.527344 167.945312 94.128906 165.691406 91.757812 C 165.015625 91.046875 164.390625 90.289062 163.734375 89.558594 C 163.453125 89.25 163.226562 88.839844 162.683594 88.875 C 162.339844 89.21875 162.382812 89.679688 162.378906 90.097656 C 162.363281 91.785156 162.363281 93.476562 162.386719 95.164062 C 162.410156 96.636719 162.5 98.105469 162.503906 99.578125 C 162.507812 101.757812 162.441406 103.933594 162.441406 106.113281 C 162.445312 107.09375 162.582031 108.070312 162.582031 109.046875 C 162.613281 120.089844 162.632812 131.128906 162.640625 142.171875 C 162.644531 147.527344 162.609375 152.878906 162.605469 158.234375 C 162.605469 160.144531 162.6875 162.058594 162.6875 163.96875 C 162.6875 165.824219 162.625 167.679688 162.613281 169.535156 C 162.597656 171.828125 162.601562 174.121094 162.613281 176.417969 C 162.613281 176.664062 162.550781 176.976562 163.011719 177.164062 C 164.988281 175.730469 166.660156 173.855469 168.519531 172.207031 C 170.441406 170.503906 172.269531 168.703125 174.175781 166.988281 C 176.042969 165.3125 177.957031 163.691406 180.039062 161.882812 Z M 257.316406 85.566406 C 257.21875 85.582031 257.085938 85.5625 257.03125 85.621094 C 255.484375 87.164062 253.917969 88.6875 252.417969 90.273438 C 250.429688 92.375 248.523438 94.554688 246.527344 96.648438 C 245.136719 98.113281 243.675781 99.511719 242.207031 100.902344 C 241.566406 101.511719 241.289062 102.171875 241.328125 103.066406 C 241.429688 105.25 241.476562 107.433594 241.496094 109.617188 C 241.53125 113.160156 241.527344 116.707031 241.539062 120.253906 C 241.546875 123.855469 241.5625 127.457031 241.566406 131.058594 C 241.570312 134.882812 241.550781 138.703125 241.550781 142.523438 C 241.550781 145.851562 241.574219 149.179688 241.566406 152.507812 C 241.558594 154.367188 241.507812 156.222656 241.492188 158.078125 C 241.488281 158.566406 241.542969 159.058594 241.570312 159.550781 C 241.59375 159.953125 241.753906 160.269531 242.074219 160.53125 C 243.210938 161.46875 244.316406 162.4375 245.453125 163.371094 C 249.167969 166.410156 252.890625 169.445312 256.617188 172.46875 C 256.839844 172.648438 257.027344 173.019531 257.496094 172.765625 C 257.496094 143.800781 257.496094 114.804688 257.488281 85.804688 C 257.488281 85.726562 257.378906 85.644531 257.316406 85.566406 Z M 168.320312 178.914062 C 169.207031 178.914062 169.691406 178.929688 170.171875 178.910156 C 184.191406 178.433594 198.210938 177.949219 212.230469 177.464844 C 215.773438 177.34375 219.320312 177.203125 222.867188 177.074219 C 227.394531 176.914062 231.921875 176.753906 236.445312 176.589844 C 241.847656 176.394531 247.246094 176.195312 252.648438 175.992188 C 252.894531 175.984375 253.207031 176.054688 253.304688 175.695312 C 253.253906 175.59375 253.234375 175.472656 253.160156 175.410156 C 251.628906 174.097656 250.09375 172.796875 248.558594 171.492188 C 246.8125 170.011719 245.054688 168.542969 243.335938 167.035156 C 242.0625 165.921875 240.84375 164.746094 239.585938 163.621094 C 239.351562 163.414062 239.046875 163.21875 238.75 163.171875 C 238 163.054688 237.234375 162.9375 236.480469 162.96875 C 230.042969 163.246094 223.613281 163.554688 217.179688 163.851562 C 209.925781 164.191406 202.675781 164.527344 195.421875 164.871094 C 191.714844 165.046875 188.007812 165.25 184.300781 165.410156 C 183.273438 165.453125 182.386719 165.734375 181.625 166.445312 C 180.511719 167.488281 179.355469 168.488281 178.238281 169.527344 C 176.285156 171.355469 174.351562 173.203125 172.40625 175.035156 C 172.011719 175.40625 171.585938 175.753906 171.175781 176.113281 C 170.285156 176.902344 169.414062 177.710938 168.320312 178.914062 Z M 84.441406 175.871094 C 84.96875 176.390625 85.617188 176.71875 86.347656 176.511719 C 87.355469 176.230469 88.101562 175.550781 88.207031 174.480469 C 88.261719 173.875 88.050781 173.207031 87.828125 172.617188 C 87.40625 171.503906 86.359375 171 85.199219 171.242188 C 84.222656 171.453125 83.496094 172.425781 83.5 173.867188 C 83.453125 174.457031 83.792969 175.230469 84.441406 175.871094 Z M 77.589844 169.566406 C 76.953125 169.152344 75.753906 169.15625 75.125 169.582031 C 74.527344 169.988281 74.089844 171.179688 74.359375 171.90625 C 74.582031 172.511719 74.863281 173.109375 75.222656 173.644531 C 75.734375 174.40625 76.703125 174.679688 77.519531 174.394531 C 78.503906 174.054688 79.058594 173.324219 79.074219 172.34375 C 79.085938 171.394531 78.394531 170.097656 77.589844 169.566406 Z M 68.925781 167.519531 C 67.902344 166.558594 66.578125 166.738281 65.96875 167.992188 C 65.769531 168.40625 65.71875 168.941406 65.75 169.410156 C 65.808594 170.246094 66.242188 170.964844 66.75 171.605469 C 67.289062 172.289062 68.300781 172.511719 69.117188 172.210938 C 69.992188 171.886719 70.398438 171.285156 70.375 170.144531 C 70.289062 169.195312 69.742188 168.289062 68.925781 167.519531 Z M 62.253906 170.347656 C 62.289062 169.359375 61.148438 168.21875 60.128906 168.21875 C 59.109375 168.222656 58.125 169.214844 58.144531 170.230469 C 58.164062 171.222656 59.300781 172.300781 60.339844 172.300781 C 61.191406 172.304688 62.226562 171.25 62.253906 170.347656 Z M 333.613281 214.777344 C 331.949219 214.382812 330.4375 213.621094 328.996094 212.738281 C 325.261719 210.449219 321.726562 207.902344 318.761719 204.636719 C 317.804688 203.578125 316.984375 202.433594 316.390625 201.125 C 316.15625 200.613281 316.023438 200.113281 316.371094 199.53125 C 316.558594 199.507812 316.765625 199.460938 316.976562 199.453125 C 317.410156 199.441406 317.855469 199.503906 318.28125 199.441406 C 319.042969 199.335938 319.394531 198.429688 318.960938 197.800781 C 318.292969 196.84375 316.757812 196.324219 315.617188 196.675781 C 313.347656 197.371094 312.355469 199.261719 313.089844 201.539062 C 313.476562 202.738281 314.054688 203.84375 314.773438 204.882812 C 317.101562 208.265625 320.210938 210.832031 323.488281 213.207031 C 325.695312 214.808594 328.058594 216.191406 330.480469 217.441406 C 332.296875 218.382812 334.238281 218.886719 336.320312 218.707031 C 338.285156 218.535156 339.832031 216.832031 339.011719 214.828125 C 338.785156 214.273438 338.589844 213.683594 338.246094 213.207031 C 337.351562 211.976562 336.445312 210.738281 335.429688 209.609375 C 333.125 207.046875 330.480469 204.839844 327.84375 202.636719 C 327.011719 201.941406 326.140625 201.261719 325.074219 200.921875 C 324.34375 200.691406 323.703125 200.867188 323.175781 201.476562 C 322.617188 202.128906 322.535156 202.714844 322.894531 203.4375 C 323.222656 204.097656 323.785156 204.519531 324.367188 204.941406 C 327.421875 207.15625 330.234375 209.652344 332.816406 212.402344 C 333.484375 213.105469 334.121094 213.847656 334.75 214.96875 C 334.140625 214.867188 333.871094 214.839844 333.613281 214.777344 Z M 301.394531 184.355469 C 301.964844 184.523438 302.644531 184.09375 302.839844 183.5625 C 302.96875 183.21875 302.710938 182.570312 302.328125 182.273438 C 302.285156 182.242188 302.238281 182.210938 302.1875 182.191406 C 301.636719 181.957031 301.105469 181.640625 300.527344 181.511719 C 298.226562 181 295.726562 182.867188 296.292969 185.417969 C 296.59375 186.78125 297.199219 187.996094 298.09375 189.03125 C 300.242188 191.53125 302.945312 193.207031 306.09375 194.15625 C 306.402344 194.246094 306.730469 194.3125 307.050781 194.324219 C 308.796875 194.371094 309.960938 193.214844 309.851562 191.476562 C 309.757812 189.945312 309.027344 188.65625 307.996094 187.585938 C 307.085938 186.640625 305.9375 186.359375 305.171875 188.023438 C 305.128906 188.117188 305.132812 188.230469 305.117188 188.339844 C 305.242188 189.128906 305.925781 189.722656 305.996094 190.671875 C 305.6875 190.628906 305.464844 190.652344 305.296875 190.5625 C 304.484375 190.128906 303.609375 189.761719 302.90625 189.1875 C 301.855469 188.332031 300.886719 187.363281 299.96875 186.363281 C 299.464844 185.8125 299.070312 185.113281 299.503906 184.261719 C 300.152344 184 300.757812 184.164062 301.394531 184.355469 Z M 158.402344 43.148438 C 158.0625 42.113281 157.324219 41.402344 156.449219 40.8125 C 156.324219 40.730469 156.140625 40.710938 155.980469 40.691406 C 155.175781 40.59375 154.449219 40.742188 153.957031 41.449219 C 153.449219 42.175781 153.316406 42.992188 153.765625 43.757812 C 154.117188 44.355469 154.578125 44.929688 155.105469 45.375 C 155.789062 45.953125 156.613281 45.890625 157.410156 45.511719 C 158.210938 45.128906 158.402344 44.417969 158.480469 43.65625 C 158.453125 43.46875 158.449219 43.300781 158.402344 43.148438 Z M 164.902344 46.335938 C 166.214844 46.960938 167.890625 45.972656 168.007812 44.515625 C 168.09375 43.492188 167.585938 42.773438 166.898438 42.113281 C 166.238281 41.484375 165.488281 41.3125 164.660156 41.640625 C 163.792969 41.984375 163.269531 42.636719 163.191406 43.476562 C 163.101562 44.582031 163.90625 45.859375 164.902344 46.335938 Z M 146.296875 42.4375 C 145.734375 42.554688 145.550781 42.976562 145.332031 43.4375 C 144.964844 44.210938 145.332031 44.820312 145.671875 45.433594 C 146.386719 46.730469 148.847656 47.089844 149.457031 45.273438 C 149.523438 45.070312 149.582031 44.867188 149.613281 44.757812 C 149.261719 43.398438 148.582031 42.484375 146.957031 42.214844 C 146.808594 42.265625 146.558594 42.382812 146.296875 42.4375 Z M 136.925781 43.476562 C 135.925781 44.054688 135.660156 45.222656 136.371094 46.105469 C 136.699219 46.519531 137.140625 46.886719 137.601562 47.140625 C 138.542969 47.65625 139.726562 47.234375 140.261719 46.273438 C 140.765625 45.371094 140.367188 44.167969 139.359375 43.65625 C 138.929688 43.4375 138.457031 43.300781 137.914062 43.09375 C 137.527344 43.242188 137.203125 43.316406 136.925781 43.476562 Z M 155 278.898438 C 155.410156 278.714844 155.679688 278.160156 155.578125 277.816406 C 155.214844 276.617188 153.8125 275.648438 152.644531 276.53125 C 152.164062 276.898438 151.710938 277.25 151.390625 277.792969 C 150.78125 278.832031 150.222656 279.882812 149.871094 281.046875 C 148.863281 284.402344 148.222656 287.816406 148.164062 291.328125 C 148.152344 292.148438 148.027344 292.964844 148.03125 293.78125 C 148.035156 295.195312 147.757812 296.613281 148.082031 298.027344 C 148.140625 298.289062 148.113281 298.570312 148.125 298.84375 C 148.199219 301.023438 148.058594 303.214844 148.421875 305.382812 C 148.484375 305.753906 148.421875 306.148438 148.460938 306.527344 C 148.621094 308.152344 148.753906 309.78125 148.980469 311.394531 C 149.164062 312.683594 149.441406 313.960938 149.730469 315.230469 C 149.988281 316.355469 150.453125 317.402344 151.15625 318.332031 C 151.730469 319.085938 152.542969 319.496094 153.429688 319.398438 C 154.421875 319.289062 155.25 318.742188 155.800781 317.820312 C 156.964844 315.871094 157.644531 313.726562 158.03125 311.535156 C 158.496094 308.910156 158.6875 306.234375 158.957031 303.578125 C 159.039062 302.765625 158.894531 301.921875 159.03125 301.125 C 159.304688 299.550781 159.21875 297.964844 159.234375 296.394531 C 159.261719 293.777344 159.070312 291.160156 158.949219 288.542969 C 158.925781 287.996094 158.785156 287.460938 158.738281 286.917969 C 158.679688 286.203125 158.277344 285.707031 157.765625 285.273438 C 157.101562 284.707031 156.335938 284.71875 155.726562 285.355469 C 155.140625 285.964844 154.75 286.695312 154.863281 287.570312 C 155.246094 290.566406 155.046875 293.574219 155.101562 296.578125 C 155.160156 299.855469 154.933594 303.113281 154.585938 306.375 C 154.386719 308.21875 153.964844 310.027344 153.847656 311.882812 C 153.828125 312.246094 153.628906 312.605469 153.492188 312.960938 C 153.46875 313.023438 153.332031 313.042969 153.207031 313.101562 C 153.128906 312.976562 153.042969 312.851562 152.972656 312.71875 C 152.5625 311.902344 152.722656 311.003906 152.609375 310.144531 C 152.335938 308.09375 152.027344 306.046875 152.054688 303.96875 C 152.058594 303.808594 152.0625 303.636719 152.023438 303.480469 C 151.6875 302.136719 151.78125 300.765625 151.777344 299.402344 C 151.769531 296.78125 151.757812 294.160156 151.789062 291.535156 C 151.800781 290.503906 151.910156 289.472656 152 288.441406 C 152.097656 287.355469 152.257812 286.277344 152.332031 285.1875 C 152.464844 283.226562 152.886719 281.324219 153.480469 279.390625 C 154.082031 279.199219 154.5625 279.09375 155 278.898438 Z M 154.691406 250.8125 C 155.199219 251.015625 155.675781 250.910156 156.035156 250.515625 C 156.382812 250.132812 156.488281 249.703125 156.316406 249.160156 C 156.007812 248.203125 155.421875 247.546875 154.5 247.195312 C 154.257812 247.101562 153.953125 247.015625 153.714844 247.078125 C 152.808594 247.308594 151.941406 247.648438 151.40625 248.496094 C 150.53125 249.886719 149.773438 251.335938 149.410156 252.949219 C 148.820312 255.566406 148.605469 258.222656 148.777344 260.902344 C 148.851562 262.039062 149.007812 263.171875 149.1875 264.296875 C 149.445312 265.921875 150.09375 267.429688 150.769531 268.914062 C 151.253906 269.984375 152.027344 270.808594 153.191406 271.207031 C 153.695312 271.378906 154.144531 271.34375 154.609375 271.113281 C 155.632812 270.609375 156.394531 269.816406 156.785156 268.777344 C 157.28125 267.453125 157.726562 266.101562 158.015625 264.722656 C 158.328125 263.238281 158.453125 261.714844 158.613281 260.203125 C 158.652344 259.84375 158.566406 259.441406 158.433594 259.097656 C 158.140625 258.3125 157.539062 257.871094 156.695312 257.835938 C 155.898438 257.808594 155.292969 258.230469 154.980469 259.066406 C 154.773438 259.621094 154.613281 260.207031 154.519531 260.792969 C 154.265625 262.34375 154.066406 263.90625 153.824219 265.460938 C 153.808594 265.5625 153.617188 265.632812 153.433594 265.777344 C 153.023438 264.113281 152.667969 262.558594 152.621094 260.898438 C 152.53125 257.992188 152.976562 255.148438 153.300781 252.285156 C 153.367188 251.707031 153.601562 251.144531 153.816406 250.363281 C 154.222656 250.574219 154.449219 250.714844 154.691406 250.8125 Z M 53.503906 308.90625 C 52.777344 307.777344 52.835938 306.785156 53.257812 305.671875 C 53.632812 304.699219 54.101562 303.785156 54.519531 302.84375 C 59.476562 291.71875 64.429688 280.589844 69.390625 269.464844 C 69.96875 268.171875 70.578125 266.894531 71.207031 265.625 C 71.421875 265.195312 71.691406 264.765625 72.023438 264.421875 C 72.679688 263.746094 73.03125 263.722656 73.914062 264.140625 C 74.308594 264.324219 74.699219 264.515625 75.175781 264.746094 C 76.121094 266.808594 77.105469 268.941406 78.078125 271.074219 C 83.964844 284 89.847656 296.925781 95.726562 309.851562 C 95.929688 310.296875 96.105469 310.757812 96.257812 311.222656 C 96.648438 312.425781 95.949219 313.410156 94.691406 313.414062 C 94.371094 313.414062 94.046875 313.339844 93.730469 313.277344 C 93.039062 313.140625 92.355469 312.921875 91.65625 312.851562 C 86.011719 312.25 80.363281 311.675781 74.714844 311.101562 C 68.144531 310.429688 61.574219 309.769531 55 309.101562 C 54.515625 309.046875 54.03125 308.976562 53.503906 308.90625 Z M 59.308594 304.605469 C 59.519531 304.652344 59.765625 304.734375 60.019531 304.761719 C 61.320312 304.902344 62.625 305.027344 63.925781 305.160156 C 72.011719 305.996094 80.09375 306.832031 88.179688 307.660156 C 88.527344 307.695312 88.925781 307.859375 89.226562 307.457031 C 89.1875 307.296875 89.175781 307.132812 89.109375 306.988281 C 83.945312 295.667969 78.777344 284.347656 73.605469 273.027344 C 73.585938 272.984375 73.539062 272.941406 73.492188 272.914062 C 73.453125 272.894531 73.40625 272.894531 73.324219 272.875 C 73.230469 272.980469 73.085938 273.082031 73.023438 273.21875 C 68.429688 283.539062 63.839844 293.859375 59.253906 304.183594 C 59.21875 304.265625 59.277344 304.390625 59.308594 304.605469 Z M 340.167969 296.566406 C 340.089844 303.480469 337.988281 311.109375 333.351562 317.972656 C 330.59375 322.054688 327.171875 325.488281 322.863281 327.917969 C 313.640625 333.117188 304.339844 333.152344 295.109375 327.972656 C 289.683594 324.925781 285.6875 320.414062 282.691406 315 C 275.625 302.242188 276.082031 285.578125 283.847656 273.246094 C 286.902344 268.398438 290.820312 264.394531 295.941406 261.761719 C 305.992188 256.589844 315.757812 257.328125 325.03125 263.683594 C 330.730469 267.59375 334.589844 273.039062 337.175781 279.40625 C 339.238281 284.484375 340.183594 289.773438 340.167969 296.566406 Z M 282.195312 294.355469 C 282.171875 300.9375 283.480469 306.859375 286.40625 312.375 C 288.882812 317.046875 292.214844 320.992188 296.785156 323.71875 C 304.8125 328.5 312.9375 328.519531 320.992188 323.773438 C 325.375 321.191406 328.636719 317.46875 331.101562 313.050781 C 336.871094 302.703125 337.199219 289.472656 331.984375 278.832031 C 329.785156 274.34375 326.78125 270.5 322.71875 267.554688 C 314.171875 261.359375 303.726562 261.398438 295.238281 267.488281 C 292.6875 269.316406 290.523438 271.542969 288.707031 274.101562 C 284.332031 280.273438 282.359375 287.207031 282.195312 294.355469 Z M 282.195312 294.355469 " fill-opacity="1" fill-rule="nonzero"/></g></svg>