<svg xmlns="http://www.w3.org/2000/svg" xmlns:xlink="http://www.w3.org/1999/xlink" width="500" zoomAndPan="magnify" viewBox="0 0 375 374.999991" height="500" preserveAspectRatio="xMidYMid meet" version="1.0"><defs><clipPath id="83b303fa2a"><path d="M 170.652344 59.183594 L 216.390625 59.183594 L 216.390625 133.683594 L 170.652344 133.683594 Z M 170.652344 59.183594 " clip-rule="nonzero"/></clipPath><clipPath id="75e4a9cb6e"><path d="M 187.902344 59.183594 L 199.140625 59.183594 C 203.714844 59.183594 208.101562 61 211.335938 64.234375 C 214.570312 67.46875 216.390625 71.859375 216.390625 76.433594 L 216.390625 116.371094 C 216.390625 120.945312 214.570312 125.332031 211.335938 128.570312 C 208.101562 131.804688 203.714844 133.621094 199.140625 133.621094 L 187.902344 133.621094 C 183.328125 133.621094 178.941406 131.804688 175.707031 128.570312 C 172.46875 125.332031 170.652344 120.945312 170.652344 116.371094 L 170.652344 76.433594 C 170.652344 71.859375 172.46875 67.46875 175.707031 64.234375 C 178.941406 61 183.328125 59.183594 187.902344 59.183594 Z M 187.902344 59.183594 " clip-rule="nonzero"/></clipPath></defs><g clip-path="url(#83b303fa2a)"><g clip-path="url(#75e4a9cb6e)"><path fill="#65a1b7" d="M 170.652344 59.183594 L 216.390625 59.183594 L 216.390625 133.683594 L 170.652344 133.683594 Z M 170.652344 59.183594 " fill-opacity="1" fill-rule="nonzero"/></g></g><path fill="#b3dec1" d="M 255.160156 356.796875 C 243.734375 367.582031 224.414062 366.917969 202.226562 366.703125 C 196.4375 366.644531 192.660156 365.453125 190.378906 363.644531 C 188.089844 364.695312 184.933594 365.339844 180.699219 365.382812 C 158.515625 365.609375 139.183594 366.261719 127.765625 355.480469 C 116.34375 344.695312 138.089844 317.953125 138.089844 317.953125 L 167.746094 320.265625 C 167.746094 320.265625 179.382812 337.429688 187.515625 342.9375 C 189.125 344.023438 190.6875 345.558594 192.003906 347.308594 C 193.0625 346.109375 194.234375 345.058594 195.421875 344.253906 C 203.550781 338.753906 215.320312 321.921875 215.320312 321.921875 L 246.953125 320.273438 C 246.945312 320.257812 266.585938 346.015625 255.160156 356.796875 Z M 255.160156 356.796875 " fill-opacity="1" fill-rule="nonzero"/><path fill="#eda288" d="M 238.984375 247.628906 C 249.15625 269.421875 246.933594 320.265625 246.933594 320.265625 C 243.683594 330.222656 235.871094 338.015625 225.917969 341.230469 C 220.371094 343.023438 214.726562 338.753906 214.933594 332.917969 L 215.3125 321.910156 C 214.984375 304.75 204.875 255.414062 204.761719 254.234375 C 201.140625 213.949219 228.816406 225.835938 238.984375 247.628906 Z M 145.386719 245.421875 C 135.21875 267.214844 137.4375 318.058594 137.4375 318.058594 C 140.6875 328.015625 148.5 335.808594 158.453125 339.023438 C 164.003906 340.816406 169.644531 336.550781 169.441406 330.714844 C 169.09375 320.515625 169.628906 310.300781 171.101562 300.195312 C 174.144531 279.285156 179.53125 252.886719 179.609375 252.027344 C 183.230469 211.75 155.554688 223.636719 145.386719 245.421875 Z M 145.386719 245.421875 " fill-opacity="1" fill-rule="nonzero"/><path fill="#a04c38" d="M 263.855469 60.117188 C 293.183594 76.625 270 91.296875 286.457031 106.652344 C 305.5625 124.476562 304.042969 140.476562 296.796875 159.296875 C 289.554688 178.113281 325.007812 195.457031 311.5 211.3125 C 304 220.113281 294.363281 219.035156 287.273438 216.335938 C 280.933594 213.921875 273.941406 214.171875 267.753906 216.964844 C 260.253906 220.363281 249.058594 223.113281 236.378906 218.570312 C 213.316406 210.320312 195.851562 217.578125 161.921875 227.8125 C 142.746094 233.59375 126.621094 223.777344 116.222656 214.148438 C 108.144531 206.664062 97.105469 203.511719 86.257812 205.335938 C 75.230469 207.199219 66.144531 204.261719 64.390625 192.820312 C 61.757812 175.65625 79.546875 173.339844 87.125 162.777344 C 94.707031 152.210938 74.9375 144.289062 79.546875 132.410156 C 84.160156 120.53125 96.023438 119.203125 98 109.960938 C 99.980469 100.71875 85.8125 94.117188 94.042969 80.910156 C 102.277344 67.703125 119.085938 76.617188 122.707031 60.773438 C 126.332031 44.929688 132.265625 31.722656 152.035156 33.703125 C 171.804688 35.6875 166.203125 22.152344 186.300781 14.886719 C 206.398438 7.621094 220.894531 25.453125 220.894531 25.453125 C 253.171875 25.109375 234.53125 43.609375 263.855469 60.117188 Z M 263.855469 60.117188 " fill-opacity="1" fill-rule="nonzero"/><path fill="#b3dec1" d="M 189.355469 120.410156 C 216.558594 117.652344 226.820312 133.175781 233.410156 168.597656 C 240 204.019531 255.160156 263.25 255.160156 263.25 C 236.492188 274.914062 197.613281 268.308594 197.613281 268.308594 C 196.296875 261.042969 188.390625 229.535156 188.390625 229.535156 C 186.636719 235.664062 182.027344 266.328125 182.027344 266.328125 C 163.359375 275.566406 127.335938 264.34375 127.335938 264.34375 C 130.191406 237.050781 144.859375 197.871094 144.859375 197.871094 C 149.195312 139.777344 162.152344 123.167969 189.355469 120.410156 Z M 189.355469 120.410156 " fill-opacity="1" fill-rule="nonzero"/><path fill="#eda288" d="M 245.5 156.726562 C 245.5 156.726562 267.246094 184.457031 260.871094 200.96875 C 254.503906 217.476562 238.695312 220.335938 227.269531 204.707031 C 219.097656 193.535156 218.707031 159.804688 218.707031 159.804688 C 218.707031 159.804688 214.097656 153.863281 213.433594 142.855469 C 213.433594 142.855469 211.988281 141.105469 210.941406 138.667969 C 204.632812 140.332031 197.46875 140.941406 189.355469 140.210938 C 184.648438 139.789062 180.347656 138.804688 176.417969 137.398438 C 175.410156 140.476562 173.449219 142.847656 173.449219 142.847656 C 172.785156 153.855469 168.175781 159.796875 168.175781 159.796875 C 168.175781 159.796875 167.789062 193.527344 159.613281 204.699219 C 148.183594 220.328125 130.390625 217.464844 124.023438 200.957031 C 117.660156 184.449219 140.277344 158.699219 140.277344 158.699219 C 140.277344 158.699219 130.320312 144.613281 136.171875 131.554688 C 139.519531 124.097656 147.398438 121.8125 155.460938 122.226562 C 152.980469 119.054688 150.953125 115.640625 149.351562 112.125 C 129.609375 118.476562 118.148438 88.546875 129.296875 81.453125 C 136.6875 76.753906 142.882812 78.78125 146.332031 80.796875 C 152.0625 58.945312 173.691406 40.394531 199.714844 41.636719 C 227.242188 42.945312 248.648438 66.917969 247.054688 94.488281 C 250.394531 93.667969 254.730469 93.910156 259.984375 96.925781 C 270.199219 102.796875 264.589844 123.875 247.347656 126.847656 C 248.707031 128.117188 249.851562 129.660156 250.703125 131.554688 C 256.5625 144.625 245.5 156.726562 245.5 156.726562 Z M 245.5 156.726562 " fill-opacity="1" fill-rule="nonzero"/><path fill="#f64697" d="M 181.242188 97.273438 C 180.917969 98.96875 180.019531 100.632812 178.714844 101.773438 C 177.097656 103.175781 175.074219 103.652344 172.976562 103.390625 C 171.632812 103.226562 170.171875 102.910156 168.777344 102.382812 C 168.683594 102.382812 168.589844 102.390625 168.492188 102.390625 C 166.636719 102.296875 164.75 101.695312 163.433594 100.304688 C 162.09375 98.890625 161.4375 96.925781 161.40625 94.996094 C 161.335938 91.367188 163.476562 87.746094 166.738281 86.132812 C 170.058594 84.488281 174.867188 83.816406 177.957031 86.296875 C 180.933594 88.695312 181.941406 93.675781 181.242188 97.273438 Z M 238.519531 114.945312 C 234.683594 116.78125 229.316406 116.417969 226.332031 113.109375 C 223.140625 109.566406 223.800781 104.347656 226.226562 100.589844 C 227.355469 98.847656 228.835938 97.21875 230.746094 96.332031 C 232.816406 95.367188 235.234375 95.296875 237.238281 96.445312 C 238.367188 96.789062 239.449219 97.339844 240.386719 98.089844 C 242.402344 99.695312 243.546875 102.066406 243.726562 104.53125 C 243.742188 104.625 243.769531 104.710938 243.785156 104.804688 C 244.476562 108.933594 242.289062 113.140625 238.519531 114.945312 Z M 232.816406 111.445312 C 233.6875 111.582031 234.597656 111.519531 235.449219 111.324219 C 235.199219 111.367188 234.949219 111.402344 234.691406 111.410156 C 233.523438 111.453125 232.464844 111.175781 231.535156 110.667969 C 231.929688 110.988281 232.363281 111.246094 232.816406 111.445312 Z M 240.164062 106.496094 C 240.15625 106.246094 240.128906 106.003906 240.085938 105.753906 C 240.050781 106.417969 239.941406 107.082031 239.734375 107.683594 C 239.613281 108.054688 239.433594 108.402344 239.242188 108.726562 C 239.699219 108.046875 240.007812 107.289062 240.164062 106.496094 Z M 240.164062 106.496094 " fill-opacity="1" fill-rule="nonzero"/><path fill="#033d68" d="M 196.960938 156.304688 C 196.632812 156.070312 196.273438 155.875 195.902344 155.710938 C 195.832031 155.582031 195.738281 155.46875 195.585938 155.382812 C 194.449219 154.753906 193.097656 154.832031 191.972656 155.425781 C 190.921875 155.976562 190.121094 156.976562 189.570312 158.011719 C 188.640625 159.742188 188.1875 162.183594 189.398438 163.898438 C 190.859375 165.96875 193.519531 165.761719 195.59375 164.847656 C 197.675781 163.933594 199.816406 162.070312 199.328125 159.5625 C 199.050781 158.199219 198.054688 157.082031 196.960938 156.304688 Z M 195.445312 162.992188 C 194.269531 163.648438 192.433594 164.304688 191.222656 163.363281 C 190.078125 162.476562 190.285156 160.734375 190.757812 159.492188 C 191.128906 158.519531 192.023438 157.199219 193.105469 156.769531 C 193.148438 156.777344 193.183594 156.796875 193.226562 156.796875 C 194.90625 156.855469 196.589844 157.777344 197.398438 159.277344 C 198.292969 160.933594 196.769531 162.253906 195.445312 162.992188 Z M 175.136719 76.089844 C 181.21875 75.730469 187.023438 73.046875 191.28125 68.695312 C 192.160156 67.796875 193.519531 69.179688 192.652344 70.066406 C 188.023438 74.796875 181.734375 77.644531 175.136719 78.03125 C 173.886719 78.101562 173.894531 76.160156 175.136719 76.089844 Z M 213.632812 76.644531 C 213.410156 75.417969 215.277344 74.902344 215.5 76.125 C 216.023438 79.023438 217.503906 81.632812 219.777344 83.503906 C 222.140625 85.453125 225.238281 86.332031 228.265625 86.125 C 229.515625 86.039062 229.503906 87.980469 228.265625 88.066406 C 221.273438 88.539062 214.871094 83.558594 213.632812 76.644531 Z M 222.296875 90.410156 C 221.710938 89.945312 221.074219 89.738281 220.324219 89.730469 C 219.722656 89.71875 219.0625 89.78125 218.476562 89.917969 C 217.710938 90.109375 217.046875 90.617188 216.773438 91.375 C 216.523438 92.054688 216.757812 92.832031 217.289062 93.316406 C 217.746094 93.71875 218.332031 93.917969 218.933594 94.011719 C 219.722656 94.132812 220.488281 94.132812 221.28125 94.003906 C 221.976562 93.894531 222.675781 93.546875 222.984375 92.882812 C 223.328125 92.152344 223.113281 91.402344 222.554688 90.902344 C 222.539062 90.703125 222.449219 90.53125 222.296875 90.410156 Z M 221.308594 92.347656 C 221.339844 92.339844 221.410156 92.523438 221.308594 92.347656 Z M 188.839844 87.023438 C 189.210938 86.875 189.578125 86.730469 189.871094 86.453125 C 190.242188 86.117188 190.414062 85.566406 190.277344 85.082031 C 190.148438 84.644531 189.820312 84.289062 189.425781 84.066406 C 189.097656 83.875 188.71875 83.753906 188.339844 83.675781 C 187.402344 83.382812 186.351562 83.367188 185.449219 83.738281 C 184.660156 84.058594 183.9375 84.730469 184.011719 85.660156 C 184.054688 86.195312 184.3125 86.632812 184.769531 86.925781 C 185.0625 87.117188 185.433594 87.210938 185.769531 87.28125 C 186.5 87.417969 187.203125 87.417969 187.9375 87.289062 C 188.246094 87.21875 188.546875 87.132812 188.839844 87.023438 Z M 187.996094 85.601562 C 188.003906 85.601562 188.003906 85.601562 188.011719 85.609375 C 188.023438 85.609375 188.039062 85.617188 188.054688 85.625 C 188.003906 85.617188 187.953125 85.582031 187.996094 85.601562 Z M 199.660156 96.1875 C 199.144531 95.78125 198.894531 95.082031 199.164062 94.460938 C 199.429688 93.832031 200.015625 93.625 200.644531 93.582031 C 201.246094 93.53125 201.855469 93.566406 202.457031 93.660156 C 202.535156 93.667969 202.613281 93.675781 202.699219 93.695312 C 202.929688 93.738281 203.15625 93.789062 203.378906 93.839844 C 203.394531 93.847656 203.402344 93.859375 203.421875 93.867188 C 204.015625 94.066406 204.582031 94.375 204.796875 95.003906 C 205.039062 95.738281 204.558594 96.425781 203.859375 96.640625 C 203.414062 96.78125 202.921875 96.824219 202.457031 96.839844 C 201.976562 96.859375 201.496094 96.804688 201.019531 96.71875 C 200.539062 96.625 200.050781 96.488281 199.660156 96.1875 Z M 208.988281 109.445312 C 203.335938 110.503906 197.546875 108.882812 192.753906 105.839844 C 191.703125 105.175781 192.675781 103.496094 193.734375 104.167969 C 198.054688 106.917969 203.351562 108.554688 208.472656 107.582031 C 212.953125 106.726562 217.003906 104.023438 219.085938 99.890625 C 219.648438 98.78125 221.316406 99.761719 220.757812 100.875 C 218.484375 105.390625 213.917969 108.511719 208.988281 109.445312 Z M 234.960938 129.703125 C 235.734375 132.105469 236.15625 134.617188 236.265625 137.140625 C 236.320312 138.390625 234.382812 138.382812 234.332031 137.140625 C 234.238281 134.867188 233.839844 132.617188 233.160156 130.441406 C 232.835938 129.398438 232.449219 128.375 231.984375 127.375 C 231.535156 126.410156 231.070312 125.441406 230.289062 124.703125 C 229.386719 123.839844 230.753906 122.46875 231.65625 123.332031 C 232.5 124.132812 233.058594 125.140625 233.550781 126.183594 C 234.097656 127.324219 234.574219 128.496094 234.960938 129.703125 Z M 152.90625 123.675781 C 148.957031 128.304688 146.769531 134.277344 146.753906 140.367188 C 146.746094 141.617188 144.808594 141.617188 144.816406 140.367188 C 144.84375 133.746094 147.253906 127.332031 151.535156 122.304688 C 152.347656 121.355469 153.714844 122.738281 152.90625 123.675781 Z M 245.585938 126.832031 C 244.191406 125.683594 242.746094 124.503906 240.964844 124.03125 C 240.921875 124.019531 240.871094 124.011719 240.828125 123.996094 C 243.105469 127.574219 244.199219 131.875 243.847656 136.117188 C 243.742188 137.347656 241.808594 137.355469 241.910156 136.117188 C 242.273438 131.8125 241.085938 127.554688 238.554688 124.054688 C 238.460938 123.925781 238.425781 123.78125 238.417969 123.625 C 237.386719 123.539062 236.335938 123.503906 235.328125 123.410156 C 231.769531 123.074219 228.101562 122.648438 224.550781 123.304688 C 223.355469 123.53125 222.183594 123.867188 221.074219 124.339844 C 222.992188 125.476562 224.414062 127.253906 225.453125 129.253906 C 226.949219 132.125 227.90625 135.304688 228.480469 138.484375 C 228.707031 139.710938 226.839844 140.226562 226.613281 139.003906 C 226.097656 136.132812 225.28125 133.234375 223.980469 130.617188 C 222.949219 128.539062 221.496094 126.433594 219.25 125.554688 C 219.171875 125.519531 219.105469 125.488281 219.042969 125.445312 C 218.039062 126.117188 217.132812 126.953125 216.386719 127.96875 C 214.46875 130.574219 213.640625 133.796875 213.074219 136.933594 C 212.875 138.027344 211.214844 137.5625 211.414062 136.476562 C 212.042969 133.011719 213.03125 129.476562 215.242188 126.660156 C 217.425781 123.875 220.660156 122.28125 224.101562 121.648438 C 228.101562 120.910156 232.15625 121.410156 236.164062 121.769531 C 238.152344 121.953125 240.257812 121.898438 242.152344 122.597656 C 243.914062 123.246094 245.378906 124.445312 246.816406 125.625 C 247.65625 126.3125 246.4375 127.53125 245.585938 126.832031 Z M 176.46875 134.933594 C 176.882812 135.96875 175.222656 136.410156 174.808594 135.390625 C 174.042969 133.484375 174.371094 131.175781 172.914062 129.582031 C 172.605469 129.246094 172.261719 128.933594 171.898438 128.640625 C 171.867188 128.660156 171.839844 128.683594 171.804688 128.703125 C 169.714844 129.8125 168.449219 131.855469 167.496094 133.960938 C 166.351562 136.496094 165.578125 139.210938 165.105469 141.941406 C 164.890625 143.175781 163.023438 142.648438 163.238281 141.425781 C 163.753906 138.441406 164.640625 135.527344 165.914062 132.78125 C 166.867188 130.71875 168.191406 128.746094 170.09375 127.46875 C 169.386719 127.082031 168.664062 126.746094 167.96875 126.441406 C 166.4375 125.78125 164.835938 125.289062 163.210938 124.925781 C 163.152344 125.003906 163.082031 125.074219 162.996094 125.132812 C 157.929688 128.640625 156.855469 135.269531 155.949219 140.925781 C 155.753906 142.160156 153.886719 141.632812 154.082031 140.410156 C 155.003906 134.660156 156.242188 128.441406 160.734375 124.476562 C 159.125 124.246094 157.5 124.125 155.882812 124.082031 C 154.773438 124.054688 154.773438 122.332031 155.882812 122.355469 C 160.425781 122.476562 164.984375 123.203125 169.148438 125.089844 C 171.074219 125.96875 173.191406 127.097656 174.515625 128.796875 C 175.917969 130.617188 175.652344 132.898438 176.46875 134.933594 Z M 194.992188 180.925781 C 192.996094 180.105469 190.714844 180.699219 189.199219 182.199219 C 187.617188 183.769531 187.128906 186.164062 187.851562 188.261719 C 188.273438 189.46875 189.039062 190.621094 190.128906 191.320312 C 191.410156 192.140625 192.882812 191.855469 194.25 191.433594 C 194.578125 191.328125 194.742188 191.105469 194.808594 190.847656 C 194.835938 190.839844 194.863281 190.839844 194.878906 190.828125 C 196.769531 189.941406 198.113281 188 198.269531 185.90625 C 198.441406 183.699219 196.988281 181.742188 194.992188 180.925781 Z M 194.019531 189.339844 C 193.820312 189.433594 193.699219 189.613281 193.640625 189.820312 C 192.832031 190.070312 191.902344 190.355469 191.128906 189.90625 C 190.449219 189.519531 189.941406 188.8125 189.632812 188.105469 C 189.011719 186.699219 189.113281 184.984375 190.105469 183.769531 C 191.042969 182.613281 192.566406 181.984375 194.027344 182.40625 C 195.378906 182.796875 196.511719 184 196.566406 185.449219 C 196.617188 187.140625 195.507812 188.640625 194.019531 189.339844 Z M 194.019531 189.339844 " fill-opacity="1" fill-rule="nonzero"/><path fill="#a04c38" d="M 247.0625 94.503906 C 224.085938 87.953125 229.609375 72.4375 218.484375 66.566406 C 210.785156 62.503906 207.988281 53.953125 207 49.066406 C 206.242188 54.867188 207.15625 60.832031 209.703125 66.179688 C 210.175781 67.179688 208.695312 68.046875 208.214844 67.046875 C 205.898438 62.1875 204.824219 56.84375 205.066406 51.53125 C 203.308594 56.710938 202.679688 62.238281 203.265625 67.738281 C 203.386719 68.839844 201.667969 68.832031 201.546875 67.738281 C 200.945312 62.058594 201.613281 56.324219 203.4375 50.953125 C 200.539062 55.039062 195.421875 59.894531 187.4375 59.808594 C 173.671875 59.660156 170.601562 65.089844 166.058594 70.074219 C 161.515625 75.066406 155.148438 87.28125 145.609375 80.382812 C 136.070312 73.488281 174.414062 34.273438 187.738281 30.894531 C 201.0625 27.523438 250.847656 47.324219 255.167969 68.601562 C 259.476562 89.894531 247.0625 94.503906 247.0625 94.503906 Z M 247.0625 94.503906 " fill-opacity="1" fill-rule="nonzero"/></svg>