<svg xmlns="http://www.w3.org/2000/svg" xmlns:xlink="http://www.w3.org/1999/xlink" width="500" zoomAndPan="magnify" viewBox="0 0 375 374.999991" height="500" preserveAspectRatio="xMidYMid meet" version="1.0"><defs><clipPath id="2b8246ba38"><path d="M 164.632812 150.28125 L 210.367188 150.28125 L 210.367188 224.78125 L 164.632812 224.78125 Z M 164.632812 150.28125 " clip-rule="nonzero"/></clipPath><clipPath id="bf182da184"><path d="M 181.882812 150.28125 L 193.117188 150.28125 C 197.691406 150.28125 202.082031 152.097656 205.316406 155.332031 C 208.550781 158.566406 210.367188 162.957031 210.367188 167.53125 L 210.367188 207.46875 C 210.367188 212.042969 208.550781 216.433594 205.316406 219.667969 C 202.082031 222.902344 197.691406 224.71875 193.117188 224.71875 L 181.882812 224.71875 C 177.308594 224.71875 172.917969 222.902344 169.683594 219.667969 C 166.449219 216.433594 164.632812 212.042969 164.632812 207.46875 L 164.632812 167.53125 C 164.632812 162.957031 166.449219 158.566406 169.683594 155.332031 C 172.917969 152.097656 177.308594 150.28125 181.882812 150.28125 Z M 181.882812 150.28125 " clip-rule="nonzero"/></clipPath><clipPath id="4ee121cfb5"><path d="M 38.921875 179.613281 L 348 179.613281 L 348 364.777344 L 38.921875 364.777344 Z M 38.921875 179.613281 " clip-rule="nonzero"/></clipPath><clipPath id="f559de9582"><path d="M 44 10.042969 L 347 10.042969 L 347 364.792969 L 44 364.792969 Z M 44 10.042969 " clip-rule="nonzero"/></clipPath><clipPath id="bfc592c980"><path d="M 57 23 L 255 23 L 255 364.792969 L 57 364.792969 Z M 57 23 " clip-rule="nonzero"/></clipPath></defs><g clip-path="url(#2b8246ba38)"><g clip-path="url(#bf182da184)"><path fill="#65a1b7" d="M 164.632812 150.28125 L 210.367188 150.28125 L 210.367188 224.78125 L 164.632812 224.78125 Z M 164.632812 150.28125 " fill-opacity="1" fill-rule="nonzero"/></g></g><g clip-path="url(#4ee121cfb5)"><path fill="#614140" d="M 65.25 257.332031 C 72.523438 263.324219 82.691406 264.042969 92.113281 264.054688 C 94.03125 257.417969 98.179688 251.484375 102.121094 245.488281 C 100.265625 242.613281 98.140625 239.910156 95.789062 237.425781 C 100.023438 230.117188 103.746094 222.394531 105.238281 214.09375 C 106.789062 205.453125 105.695312 196.046875 100.699219 188.828125 C 99.585938 187.21875 98.167969 185.65625 96.273438 185.167969 C 94.675781 184.757812 92.957031 185.191406 91.519531 185.996094 C 88.625 187.613281 86.734375 190.625 85.703125 193.777344 C 84.679688 196.929688 84.402344 200.265625 84.003906 203.554688 C 83.082031 211.035156 67.429688 215.601562 59.613281 220.988281 C 59.609375 220.988281 59.605469 220.988281 59.601562 220.984375 C 58.15625 224.425781 57.085938 227.996094 56.570312 231.699219 C 55.261719 241.03125 57.96875 251.335938 65.25 257.332031 Z M 344.457031 227.945312 C 343.894531 226.148438 343.597656 223.691406 342.796875 221.558594 C 340.152344 220.4375 338.203125 216.996094 339.292969 213.582031 C 335.230469 205.503906 329.230469 197.910156 322.382812 192.046875 C 321.007812 190.871094 319.414062 189.28125 317.921875 188.25 C 313.011719 188.269531 307.429688 191.570312 301.925781 181.1875 C 295.796875 179.800781 288.929688 179.476562 282.722656 180.867188 C 261.992188 185.507812 249.15625 205.652344 238.308594 223.90625 C 235.050781 229.386719 231.722656 234.898438 228.277344 240.339844 C 227.757812 239.664062 227.253906 239.007812 226.773438 238.375 C 220.230469 229.648438 211.917969 222.242188 202.460938 216.796875 C 199.09375 214.855469 195.523438 213.136719 191.679688 212.5625 C 187.839844 211.984375 183.667969 212.667969 180.65625 215.121094 C 178.9375 216.519531 177.683594 218.410156 176.640625 220.367188 C 173.722656 225.855469 172.308594 232.253906 173.359375 238.378906 C 174.75 246.480469 180.171875 253.257812 185.757812 259.292969 C 190.992188 264.945312 196.644531 270.375 203.121094 274.464844 C 193.8125 284.828125 183.347656 293.917969 171.160156 300.796875 C 170.15625 306.929688 170.332031 313.042969 173.082031 318.617188 C 176.089844 324.71875 181.136719 329.734375 183.519531 336.105469 C 185.777344 342.132812 186.035156 352.191406 192.300781 353.679688 C 196.210938 354.609375 195.292969 358.207031 194.441406 360.289062 C 195.734375 362.753906 198.109375 364.777344 201.65625 364.777344 C 207.300781 364.777344 255.347656 364.777344 269.640625 364.777344 C 274.246094 364.777344 273.402344 360.527344 272.929688 357.9375 C 270.71875 348.097656 263.785156 343.671875 257.785156 341.679688 C 264.359375 338.605469 271.257812 335.441406 277.683594 332.164062 C 276.832031 327.546875 278.726562 327.230469 281.421875 330.171875 C 288.933594 326.148438 296.453125 321.550781 303.382812 316.746094 C 302.808594 312.625 304.320312 311.917969 307.574219 313.738281 C 314.160156 308.855469 320.550781 303.257812 325.996094 297.351562 C 325.515625 290.90625 326.898438 290.046875 331.425781 291.011719 C 334.832031 286.613281 337.839844 281.261719 340.476562 276.238281 C 341.214844 274.835938 341.914062 273.40625 342.566406 271.957031 C 338.152344 265.484375 341.1875 263.226562 346.832031 258.8125 C 347.269531 256.671875 347.738281 254.320312 347.890625 252.132812 C 348.464844 243.960938 346.882812 235.765625 344.457031 227.945312 Z M 64.242188 340.0625 C 64.242188 340.0625 43.449219 339.476562 39.304688 357.9375 C 38.832031 360.527344 37.984375 364.777344 42.589844 364.777344 C 56.886719 364.777344 104.929688 364.777344 110.578125 364.777344 C 114.113281 364.777344 116.488281 362.765625 117.777344 360.308594 C 109.253906 335.21875 94.535156 299.382812 64.242188 340.0625 Z M 62.019531 338.964844 C 62.769531 339.308594 63.511719 339.671875 64.242188 340.0625 C 63.542969 339.785156 62.792969 339.414062 62.019531 338.964844 " fill-opacity="1" fill-rule="nonzero"/></g><g clip-path="url(#f559de9582)"><path fill="#a5463f" d="M 322.050781 274.191406 C 317.210938 265.523438 312.371094 256.855469 307.503906 248.207031 C 314.480469 243.378906 321.117188 238.007812 327.808594 232.746094 C 332.578125 242.40625 337.308594 252.085938 342.007812 261.785156 C 335.332031 265.882812 328.675781 270.019531 322.050781 274.191406 Z M 296.542969 290.441406 C 295.964844 290.8125 295.394531 291.183594 294.816406 291.554688 C 289.992188 282.871094 285.316406 274.105469 280.789062 265.261719 C 287.601562 260.367188 294.976562 256.304688 302.0625 251.808594 C 306.699219 260.554688 311.3125 269.3125 315.914062 278.082031 C 309.445312 282.183594 302.984375 286.300781 296.542969 290.441406 Z M 270.734375 307.132812 C 267.066406 298.925781 263.480469 290.683594 259.84375 282.46875 C 259.988281 282.351562 260.140625 282.234375 260.289062 282.113281 C 265.773438 277.648438 271 272.851562 276.546875 268.46875 C 280.917969 277.246094 285.496094 285.921875 290.285156 294.480469 C 283.757812 298.683594 277.242188 302.902344 270.734375 307.132812 Z M 267.417969 309.292969 C 267.421875 309.082031 267.421875 308.871094 267.421875 308.660156 C 267.496094 308.820312 267.570312 308.980469 267.640625 309.144531 C 267.566406 309.191406 267.492188 309.242188 267.417969 309.292969 Z M 244.253906 249.097656 C 246 244.976562 247.292969 240.523438 248.046875 235.988281 C 251.457031 233.660156 254.867188 231.332031 258.277344 229 C 262.320312 238.015625 266.308594 247.058594 270.503906 255.992188 C 271.480469 258.066406 272.472656 260.136719 273.472656 262.203125 C 267.886719 266.613281 262.296875 271.007812 256.675781 275.363281 C 252.695312 266.515625 248.613281 257.730469 244.253906 249.097656 Z M 250.113281 280.398438 C 245.25 278.445312 240.460938 278.421875 237.019531 278.839844 C 236.457031 274.78125 235.671875 270.636719 234.644531 266.40625 C 234.464844 265.679688 234.289062 264.960938 234.113281 264.242188 C 234.128906 264.226562 234.148438 264.210938 234.164062 264.191406 C 230.433594 267.679688 226.183594 269.953125 221.648438 270.4375 C 217.605469 270.867188 187.261719 282.191406 182.929688 279.363281 C 165.191406 267.757812 186.960938 229.789062 193.792969 220.746094 C 196.5 221.246094 207.253906 231.269531 209.726562 232.472656 C 215.230469 235.148438 219.945312 239.203125 224.253906 243.546875 C 224.765625 244.0625 225.269531 244.589844 225.769531 245.121094 C 226.339844 245.726562 226.898438 246.339844 227.453125 246.964844 C 227.46875 246.984375 227.484375 247.003906 227.503906 247.023438 C 228.046875 247.644531 228.585938 248.28125 229.109375 248.929688 C 232.304688 252.871094 234.976562 257.210938 236.371094 261.917969 C 238.328125 259.707031 240.109375 257.152344 241.671875 254.363281 C 245.601562 262.210938 249.460938 270.09375 253.242188 278.011719 C 252.203125 278.808594 251.15625 279.601562 250.113281 280.398438 Z M 269.390625 221.40625 C 273.40625 218.664062 277.421875 215.917969 281.441406 213.171875 C 286.835938 223.214844 292.210938 233.269531 297.5625 243.332031 C 290.871094 248.484375 284.226562 253.714844 277.589844 258.953125 C 272.195312 248.214844 267.007812 237.371094 262.058594 226.417969 C 264.5 224.746094 266.945312 223.078125 269.390625 221.40625 Z M 308.710938 194.539062 C 313.691406 204.386719 318.632812 214.253906 323.539062 224.140625 C 316.449219 229.105469 309.480469 234.25 302.578125 239.496094 C 297.042969 229.691406 291.5 219.890625 285.925781 210.109375 C 293.523438 204.917969 301.117188 199.726562 308.710938 194.539062 Z M 98.464844 195.738281 C 98.464844 195.738281 98.464844 195.738281 98.464844 195.742188 C 95.394531 204.113281 91.78125 214.828125 87.851562 228.101562 C 87.847656 228.105469 87.847656 228.109375 87.847656 228.113281 C 87.277344 227.144531 87.035156 226.015625 87.167969 224.898438 C 90.125 200.085938 95.480469 189.195312 95.480469 189.195312 L 98.464844 190.695312 Z M 346.832031 258.8125 C 346.378906 259.085938 346.382812 259.09375 345.929688 259.371094 C 343.445312 253.964844 340.996094 248.542969 338.574219 243.105469 C 336.511719 238.460938 334.472656 233.804688 332.425781 229.144531 C 335.828125 226.523438 339.273438 223.96875 342.796875 221.558594 C 341.753906 218.847656 340.589844 216.175781 339.292969 213.582031 C 335.710938 215.871094 332.160156 218.207031 328.648438 220.605469 C 324.351562 210.957031 319.933594 201.363281 315.09375 191.976562 C 314.863281 191.53125 314.625 191.097656 314.394531 190.65625 C 315.570312 189.851562 316.746094 189.050781 317.921875 188.25 C 313.035156 185 307.585938 182.554688 301.925781 181.1875 C 302.328125 181.976562 302.734375 182.761719 303.136719 183.550781 C 295.542969 189.175781 287.972656 194.828125 280.445312 200.53125 C 277.558594 195.476562 274.667969 190.421875 271.773438 185.371094 C 270.402344 186.152344 269.074219 186.996094 267.777344 187.910156 C 270.625 193.167969 273.484375 198.417969 276.324219 203.679688 C 270.242188 208.304688 264.183594 212.957031 258.148438 217.636719 C 256.101562 212.980469 254.101562 208.308594 252.132812 203.617188 C 250.964844 205.148438 249.832031 206.714844 248.726562 208.308594 C 250.671875 212.351562 252.574219 216.425781 254.4375 220.515625 C 252.539062 221.992188 250.644531 223.476562 248.746094 224.960938 C 248.726562 224.511719 248.71875 224.066406 248.6875 223.617188 C 247.179688 202.839844 238.386719 188.355469 233.605469 181.902344 C 233.203125 181.324219 232.859375 180.683594 232.5625 180.011719 C 225.09375 175.949219 207.644531 180.113281 206.292969 177.082031 C 243.265625 170.539062 249.207031 154.925781 248.8125 132.835938 C 248.4375 111.816406 243.871094 106.425781 243.871094 106.425781 C 240.96875 90.566406 236.023438 77.8125 229.914062 67.550781 C 242.183594 63.210938 250.976562 51.519531 250.976562 37.773438 C 250.976562 24.648438 244.523438 10.058594 224.105469 10.058594 C 212.382812 10.058594 201.554688 18.820312 197.074219 32.738281 C 196.878906 33.347656 196.777344 34.410156 196.769531 35.78125 C 175.769531 24.664062 156.117188 25.414062 156.117188 25.414062 C 156.117188 25.414062 135.78125 24.632812 114.378906 36.363281 C 114.398438 34.703125 114.296875 33.429688 114.074219 32.738281 C 109.589844 18.820312 98.761719 10.058594 87.039062 10.058594 C 66.621094 10.058594 60.167969 24.648438 60.167969 37.773438 C 60.167969 51.851562 69.394531 63.78125 82.136719 67.855469 C 76.109375 78.0625 71.230469 90.726562 68.363281 106.425781 C 68.363281 106.425781 57.679688 134.253906 63.0625 146.628906 C 71.132812 165.160156 73.480469 173.578125 89.550781 177.394531 C 88.152344 179.515625 86.824219 181.679688 85.410156 183.792969 C 80.164062 191.628906 73.757812 198.617188 68.207031 206.238281 C 64.859375 210.835938 61.808594 215.757812 59.613281 220.988281 C 66.914062 221.222656 74.179688 222.996094 80.730469 226.230469 C 83.003906 227.347656 85.1875 228.644531 87.265625 230.085938 C 84.1875 240.605469 80.925781 252.675781 77.589844 266.40625 C 76.558594 270.636719 75.773438 274.78125 75.214844 278.839844 C 68.210938 277.992188 55.617188 278.953125 48.183594 294.320312 C 37.476562 316.457031 54.828125 336.375 64.242188 340.0625 C 63.542969 339.785156 62.792969 339.414062 62.019531 338.964844 C 62.769531 339.308594 63.511719 339.671875 64.242188 340.0625 C 75.839844 346.269531 99.234375 360.980469 117.777344 360.308594 C 117.984375 359.960938 118.195312 359.519531 118.492188 358.617188 C 129.152344 362.539062 141.683594 364.699219 156.039062 364.773438 L 156.039062 364.777344 C 156.046875 364.777344 156.054688 364.777344 156.0625 364.777344 C 156.082031 364.777344 156.097656 364.773438 156.117188 364.773438 C 156.132812 364.773438 156.152344 364.777344 156.171875 364.777344 C 156.179688 364.777344 156.183594 364.777344 156.191406 364.777344 L 156.191406 364.773438 C 170.550781 364.699219 183.078125 362.539062 193.738281 358.617188 C 194.269531 360.3125 194.101562 359.617188 194.441406 360.289062 C 214.285156 361.226562 247.988281 340.0625 247.988281 340.0625 C 253.519531 337.894531 261.789062 330.125 265.5 319.59375 C 267.214844 318.378906 268.941406 317.179688 270.683594 316.007812 C 273.050781 321.375 275.378906 326.761719 277.683594 332.164062 C 278.933594 331.507812 280.179688 330.839844 281.421875 330.171875 C 278.808594 324.800781 276.277344 319.390625 273.804688 313.949219 C 275.964844 312.554688 278.160156 311.210938 280.394531 309.941406 C 285.105469 307.269531 289.996094 304.921875 294.796875 302.414062 C 297.59375 307.238281 300.472656 312.015625 303.394531 316.761719 C 304.808594 315.777344 306.195312 314.765625 307.574219 313.738281 C 304.839844 309.136719 302.140625 304.515625 299.492188 299.867188 C 299.5625 299.824219 299.636719 299.785156 299.707031 299.746094 C 306.816406 295.695312 313.472656 290.90625 320.226562 286.289062 C 322.152344 289.976562 324.074219 293.664062 325.996094 297.351562 C 327.882812 295.304688 329.699219 293.195312 331.425781 291.011719 C 329.773438 288.039062 328.128906 285.066406 326.476562 282.097656 C 332.019531 278.441406 336.871094 275.371094 342.566406 271.957031 C 346.570312 262.515625 346.945312 258.746094 346.832031 258.8125 " fill-opacity="1" fill-rule="nonzero"/></g><g clip-path="url(#bfc592c980)"><path fill="#e79d4a" d="M 88.402344 58.59375 C 93.234375 52.332031 98.53125 47.253906 103.957031 43.128906 C 102.917969 38.613281 99.972656 26.605469 90.289062 23.964844 C 80.339844 21.253906 69.304688 31.378906 74.550781 45.660156 C 77.386719 53.378906 83.21875 56.972656 88.402344 58.59375 Z M 223.339844 57.972656 C 228.03125 56.113281 232.914062 52.515625 235.433594 45.660156 C 240.679688 31.378906 229.644531 21.253906 219.691406 23.964844 C 210.894531 26.363281 207.660156 36.496094 206.363281 41.714844 C 212.273438 45.949219 218.070312 51.269531 223.339844 57.972656 Z M 234.742188 130.375 C 233.957031 131.121094 233.5625 132.191406 233.382812 133.257812 C 233.183594 134.484375 233.242188 135.75 233.554688 136.949219 C 233.941406 138.4375 234.980469 139.988281 236.515625 140.089844 C 237.503906 140.152344 238.453125 139.558594 239.019531 138.746094 C 239.582031 137.933594 239.804688 136.929688 239.871094 135.941406 C 240.046875 133.375 238.492188 126.816406 234.742188 130.375 Z M 225.039062 115.363281 C 221.324219 115.039062 220.507812 119.96875 220.941406 122.613281 C 221.121094 123.742188 221.445312 124.875 222.105469 125.8125 C 222.765625 126.75 223.804688 127.464844 224.949219 127.523438 C 227.195312 127.636719 228.8125 125.292969 229.246094 123.082031 C 229.769531 120.398438 228.425781 115.667969 225.039062 115.363281 Z M 213.535156 138.722656 C 212.902344 139.65625 212.3125 140.664062 212.171875 141.78125 C 212.027344 142.898438 212.425781 144.152344 213.394531 144.734375 C 214.378906 145.324219 215.71875 145.058594 216.578125 144.300781 C 217.433594 143.539062 217.859375 142.382812 217.964844 141.246094 C 218.257812 138.109375 215.824219 135.335938 213.535156 138.722656 Z M 88.085938 128.085938 C 85.074219 127.101562 84.546875 132.777344 84.984375 134.664062 C 85.183594 135.515625 85.546875 136.351562 86.183594 136.949219 C 86.820312 137.546875 87.761719 137.863281 88.59375 137.597656 C 89.503906 137.308594 90.085938 136.417969 90.390625 135.515625 C 91.070312 133.542969 90.550781 128.890625 88.085938 128.085938 Z M 78.15625 114.917969 C 74.371094 112.492188 71.242188 118.097656 72.757812 121.292969 C 73.382812 122.613281 74.941406 123.375 76.390625 123.195312 C 80.292969 122.714844 81.429688 117.007812 78.15625 114.917969 Z M 68.597656 140.339844 C 65.804688 136.390625 63.960938 141.070312 64.378906 144.003906 C 64.5 144.847656 64.675781 145.683594 64.910156 146.503906 C 65.179688 147.464844 65.6875 148.550781 66.671875 148.738281 C 70.5625 149.492188 69.878906 142.152344 68.597656 140.339844 Z M 198.011719 193.835938 C 201.429688 202.460938 194.886719 204.101562 198.425781 214.574219 C 197.847656 215.59375 197.84375 220.109375 196.964844 220.746094 C 188.132812 227.167969 179.308594 266.328125 200.820312 280.398438 C 205.148438 283.226562 217.605469 270.867188 221.648438 270.4375 C 222.867188 276.679688 223.863281 282.914062 224.550781 289.054688 C 229.035156 329.113281 197.6875 364.226562 157.347656 364.765625 C 156.964844 364.769531 156.578125 364.773438 156.191406 364.773438 L 156.191406 364.777344 C 156.183594 364.777344 156.179688 364.777344 156.171875 364.777344 C 156.152344 364.777344 156.132812 364.773438 156.117188 364.773438 C 156.097656 364.773438 156.082031 364.777344 156.0625 364.777344 C 156.054688 364.777344 156.046875 364.777344 156.039062 364.777344 L 156.039062 364.773438 C 155.753906 364.773438 155.472656 364.773438 155.1875 364.765625 C 114.800781 364.316406 83.332031 329.097656 87.835938 288.992188 C 91.585938 255.589844 104.179688 219.535156 114.351562 193.859375 C 75.996094 185.992188 62.070312 166.730469 58.601562 146.882812 C 58.601562 146.863281 58.597656 146.847656 58.597656 146.828125 C 58.515625 146.378906 58.445312 145.925781 58.375 145.472656 C 58.367188 145.4375 58.367188 145.402344 58.359375 145.367188 C 58.296875 144.933594 58.234375 144.5 58.179688 144.066406 C 58.175781 144.027344 58.171875 143.988281 58.167969 143.949219 C 58.113281 143.519531 58.0625 143.089844 58.019531 142.660156 C 58.007812 142.546875 58 142.429688 57.988281 142.3125 C 57.953125 141.960938 57.917969 141.605469 57.886719 141.253906 C 57.878906 141.097656 57.867188 140.9375 57.855469 140.78125 C 57.832031 140.46875 57.808594 140.160156 57.792969 139.847656 C 57.773438 139.605469 57.765625 139.359375 57.753906 139.117188 C 57.746094 138.894531 57.730469 138.667969 57.71875 138.445312 C 57.707031 138.140625 57.703125 137.832031 57.695312 137.527344 C 57.6875 137.367188 57.683594 137.203125 57.679688 137.042969 C 57.660156 136.109375 57.660156 135.179688 57.679688 134.253906 C 57.734375 130.96875 58.035156 128.03125 58.503906 125.414062 C 58.691406 124.367188 58.902344 123.371094 59.136719 122.421875 C 59.371094 121.476562 59.628906 120.578125 59.898438 119.726562 C 60.039062 119.300781 60.175781 118.886719 60.320312 118.484375 C 60.753906 117.28125 61.21875 116.179688 61.695312 115.175781 C 61.855469 114.839844 62.015625 114.519531 62.179688 114.207031 C 62.503906 113.582031 62.832031 112.996094 63.160156 112.457031 C 63.652344 111.644531 64.144531 110.929688 64.613281 110.292969 C 65.085938 109.660156 65.539062 109.113281 65.957031 108.648438 C 66.097656 108.488281 66.234375 108.34375 66.363281 108.207031 C 66.757812 107.789062 67.109375 107.457031 67.40625 107.191406 C 67.503906 107.101562 67.597656 107.023438 67.683594 106.949219 C 68.109375 106.589844 68.363281 106.425781 68.363281 106.425781 C 79.28125 96.078125 90.585938 99.789062 90.585938 99.789062 C 90.585938 99.789062 89.148438 63.734375 115.597656 57.945312 C 145.578125 51.382812 150.210938 94.378906 152.890625 114.257812 L 158.796875 114.257812 C 161.480469 94.378906 168.570312 50.207031 196.09375 57.945312 C 222.15625 65.277344 221.101562 99.789062 221.101562 99.789062 C 221.101562 99.789062 232.949219 96.078125 243.871094 106.425781 C 243.871094 106.425781 254.179688 113.234375 254.554688 134.253906 C 254.980469 158.007812 244.40625 184.273438 198.011719 193.835938 Z M 237.125 313.046875 L 236.933594 312.953125 C 236.527344 312.753906 236.039062 312.957031 235.894531 313.386719 C 234.226562 318.328125 224.4375 344.515625 201.28125 353.863281 C 200.683594 354.101562 200.660156 354.941406 201.238281 355.222656 C 201.371094 355.285156 201.511719 355.3125 201.65625 355.292969 C 204.203125 355.007812 227.578125 351.382812 237.515625 313.917969 C 237.609375 313.570312 237.445312 313.203125 237.125 313.046875 Z M 89.265625 338.699219 C 89.738281 339.222656 89.355469 340.0625 88.648438 340.0625 C 88.488281 340.0625 88.335938 340.015625 88.203125 339.929688 C 85.828125 338.414062 64.554688 323.53125 72.925781 281.8125 C 73.003906 281.425781 73.347656 281.144531 73.738281 281.144531 L 73.96875 281.144531 C 74.464844 281.144531 74.851562 281.578125 74.785156 282.074219 C 74.03125 287.753906 70.984375 318.285156 89.265625 338.699219 " fill-opacity="1" fill-rule="nonzero"/></g><path fill="#291f44" d="M 249.914062 263.15625 L 242.652344 252.5625 C 242.441406 252.984375 242.222656 253.394531 242 253.800781 C 244.539062 259.816406 242.5 261.699219 238.351562 259.503906 C 230.839844 269.484375 220.117188 274.308594 209.011719 267.042969 C 187.5 252.972656 197.65625 231.660156 206.488281 225.238281 C 207.816406 224.273438 208.886719 222.9375 209.75 221.34375 C 207.089844 213.171875 207.964844 211.894531 212.3125 212.828125 C 212.441406 211.964844 212.542969 211.085938 212.628906 210.199219 C 210.734375 207.574219 208.878906 204.914062 207.070312 202.222656 C 210.847656 192.714844 203.746094 193.578125 201.789062 194.070312 C 200.347656 191.761719 197.226562 191.203125 195.058594 192.855469 C 194.1875 193.519531 193.316406 194.191406 192.441406 194.867188 C 176.785156 198.945312 167 203.929688 169.832031 213.179688 C 164.496094 217.707031 159.273438 222.300781 154.242188 226.886719 C 153.515625 227.550781 153.03125 228.433594 152.839844 229.402344 C 152.332031 231.960938 151.554688 234.960938 151.007812 237.578125 C 150.75 238.828125 151.027344 240.121094 151.757812 241.164062 L 203.867188 315.265625 C 204.835938 316.644531 206.777344 316.886719 208.058594 315.792969 L 248.984375 280.769531 C 249.996094 279.898438 250.585938 278.636719 250.601562 277.304688 L 250.722656 265.820312 C 250.734375 264.871094 250.449219 263.941406 249.914062 263.15625 Z M 187.566406 111.097656 C 196.5 111.097656 201.886719 100.398438 201.886719 93.253906 C 201.886719 85.175781 197.152344 77.351562 189.085938 75.175781 C 189.085938 75.175781 202.058594 70.949219 208.945312 85.792969 C 209.199219 86.347656 209.746094 86.714844 210.359375 86.714844 C 211.476562 86.714844 212.234375 85.566406 211.785156 84.546875 C 210.023438 80.570312 205.28125 72.421875 195.675781 71.363281 C 184.347656 70.117188 170.785156 79.441406 170.785156 92.808594 C 170.785156 105.21875 178.632812 111.097656 187.566406 111.097656 Z M 118.773438 75.175781 C 118.773438 75.175781 131.738281 70.949219 138.625 85.792969 C 138.882812 86.347656 139.429688 86.714844 140.039062 86.714844 C 141.15625 86.714844 141.917969 85.566406 141.464844 84.546875 C 139.703125 80.570312 134.960938 72.421875 125.355469 71.363281 C 114.027344 70.117188 100.464844 79.441406 100.464844 92.808594 C 100.464844 105.21875 108.3125 111.097656 117.246094 111.097656 C 126.179688 111.097656 131.566406 100.398438 131.566406 93.253906 C 131.566406 85.175781 126.832031 77.351562 118.773438 75.175781 Z M 143.851562 144.523438 C 136.5625 144.523438 131.445312 140.21875 129.324219 138.039062 C 128.679688 137.375 128.871094 136.257812 129.761719 135.878906 C 130.253906 135.671875 130.820312 135.8125 131.210938 136.175781 C 133.433594 138.210938 140.324219 142.964844 148.644531 139.363281 C 151.871094 137.96875 153.960938 134.785156 153.953125 131.273438 C 153.9375 126.824219 153.933594 126.621094 153.929688 125.195312 C 149.699219 123.84375 145.578125 117.832031 145.578125 115.660156 C 145.578125 113.207031 152.988281 112.988281 155.570312 112.988281 C 158.160156 112.988281 165.566406 113.207031 165.566406 115.660156 C 165.566406 117.832031 161.441406 123.851562 157.207031 125.199219 C 157.199219 126.640625 157.183594 129.113281 157.164062 132.738281 C 157.148438 134.953125 158.304688 137.015625 160.199219 138.167969 C 169.527344 143.851562 177.511719 138.398438 179.933594 136.175781 C 180.324219 135.8125 180.890625 135.671875 181.382812 135.878906 C 182.277344 136.257812 182.46875 137.375 181.824219 138.039062 C 179.699219 140.21875 174.585938 144.523438 167.296875 144.523438 C 159.742188 144.523438 155.570312 138.367188 155.570312 138.367188 C 155.570312 138.367188 151.402344 144.523438 143.851562 144.523438 " fill-opacity="1" fill-rule="nonzero"/><path fill="#ececec" d="M 154.105469 160.152344 L 155.222656 146.457031 C 155.253906 146.074219 155.8125 146.078125 155.835938 146.460938 L 156.714844 160.152344 C 164.523438 160.152344 165.066406 158.289062 165.066406 158.289062 C 166.636719 153.820312 167.730469 149.183594 168.332031 144.484375 C 167.988281 144.503906 167.648438 144.523438 167.296875 144.523438 C 159.742188 144.523438 155.570312 138.367188 155.570312 138.367188 C 155.570312 138.367188 151.402344 144.523438 143.851562 144.523438 C 143.386719 144.523438 142.933594 144.503906 142.488281 144.472656 C 143.089844 149.175781 144.183594 153.816406 145.753906 158.289062 C 145.753906 158.289062 146.296875 160.152344 154.105469 160.152344 Z M 242 253.800781 C 240.894531 255.835938 239.671875 257.75 238.351562 259.503906 L 250.617188 275.863281 L 250.722656 266 C 248.277344 262.570312 245.289062 258.390625 242 253.800781 Z M 196.070312 195.5 C 193.871094 196.960938 167.363281 218.773438 158.546875 226.097656 C 157.210938 227.207031 156.257812 228.710938 155.828125 230.394531 L 154.214844 236.726562 C 154.097656 237.191406 154.640625 237.535156 155.015625 237.230469 L 194.070312 204.761719 C 195.160156 203.859375 196.785156 204.046875 197.632812 205.179688 L 209.75 221.34375 C 211.03125 218.960938 211.839844 216.003906 212.3125 212.828125 C 207.847656 206.785156 204 201.664062 201.371094 198.34375 C 199.226562 195.632812 197.714844 194.410156 196.070312 195.5 Z M 169.832031 213.183594 C 177.246094 206.886719 184.859375 200.726562 192.445312 194.871094 C 182.054688 196.613281 170.023438 197.574219 156.117188 197.574219 C 155.933594 197.574219 155.753906 197.570312 155.570312 197.570312 C 129.132812 197.519531 109.503906 193.992188 95.066406 188.230469 C 96.652344 191.957031 108.597656 219.4375 116.417969 220.410156 C 124.808594 221.460938 156.191406 205.152344 156.191406 205.152344 C 156.191406 205.152344 162.480469 209.238281 169.832031 213.183594 Z M 201.054688 193.175781 C 206.945312 191.824219 212.21875 190.1875 216.949219 188.316406 C 215.535156 190.363281 211.546875 196.089844 207.019531 202.144531 C 205.234375 199.480469 203.484375 196.789062 201.789062 194.070312 C 201.578125 193.734375 201.328125 193.4375 201.054688 193.175781 " fill-opacity="1" fill-rule="nonzero"/></svg>