<svg xmlns="http://www.w3.org/2000/svg" xmlns:xlink="http://www.w3.org/1999/xlink" width="500" zoomAndPan="magnify" viewBox="0 0 375 374.999991" height="500" preserveAspectRatio="xMidYMid meet" version="1.0"><defs><clipPath id="caa0f3f9e9"><path d="M 95.058594 168.6875 L 207.558594 168.6875 L 207.558594 281.1875 L 95.058594 281.1875 Z M 95.058594 168.6875 " clip-rule="nonzero"/></clipPath><clipPath id="e05c3537c0"><path d="M 112.308594 168.6875 L 190.308594 168.6875 C 194.886719 168.6875 199.273438 170.503906 202.507812 173.738281 C 205.742188 176.976562 207.558594 181.363281 207.558594 185.9375 L 207.558594 263.9375 C 207.558594 268.511719 205.742188 272.898438 202.507812 276.136719 C 199.273438 279.371094 194.886719 281.1875 190.308594 281.1875 L 112.308594 281.1875 C 107.734375 281.1875 103.347656 279.371094 100.113281 276.136719 C 96.878906 272.898438 95.058594 268.511719 95.058594 263.9375 L 95.058594 185.9375 C 95.058594 181.363281 96.878906 176.976562 100.113281 173.738281 C 103.347656 170.503906 107.734375 168.6875 112.308594 168.6875 Z M 112.308594 168.6875 " clip-rule="nonzero"/></clipPath><clipPath id="b490a6fbf6"><path d="M 53.644531 157 L 235 157 L 235 330 L 53.644531 330 Z M 53.644531 157 " clip-rule="nonzero"/></clipPath><clipPath id="5c0a57fea9"><path d="M 224 7 L 321.394531 7 L 321.394531 129 L 224 129 Z M 224 7 " clip-rule="nonzero"/></clipPath></defs><g clip-path="url(#caa0f3f9e9)"><g clip-path="url(#e05c3537c0)"><path fill="#ce4e60" d="M 95.058594 168.6875 L 207.558594 168.6875 L 207.558594 281.1875 L 95.058594 281.1875 Z M 95.058594 168.6875 " fill-opacity="1" fill-rule="nonzero"/></g></g><path fill="#e8a97e" d="M 98.914062 157.96875 C 97.351562 155.625 96.75 153.035156 96.941406 150.246094 C 97.082031 148.183594 97.113281 146.105469 97.410156 144.0625 C 97.632812 142.53125 97.363281 141.191406 96.507812 139.988281 C 95.402344 138.433594 94.265625 136.886719 93 135.460938 C 91.382812 133.632812 90.285156 131.542969 89.4375 129.296875 C 88.390625 126.53125 88.082031 123.746094 89.140625 120.898438 C 89.472656 120.003906 89.730469 119.078125 89.964844 118.152344 C 90.226562 117.148438 90.039062 116.148438 89.144531 115.601562 C 86 113.675781 84.160156 110.757812 82.699219 107.511719 C 82.023438 106.015625 80.765625 104.984375 79.601562 103.910156 C 75.777344 100.378906 74.238281 96.03125 75.15625 90.960938 C 75.542969 88.800781 75.234375 86.980469 74.355469 85.003906 C 71.8125 79.292969 73.714844 74.261719 79.277344 71.429688 C 79.5625 71.285156 79.851562 71.128906 80.15625 71.0625 C 82.878906 70.464844 84.507812 68.59375 85.808594 66.3125 C 86.125 65.761719 86.472656 65.214844 86.886719 64.734375 C 89.148438 62.085938 91.832031 60.210938 95.511719 60.414062 C 98.742188 60.59375 101.734375 60.054688 104.777344 58.769531 C 109.242188 56.882812 113.523438 58.589844 117.589844 60.554688 C 118.863281 61.171875 119.972656 62.140625 121.105469 63.015625 C 121.972656 63.683594 122.847656 63.730469 123.78125 63.292969 C 125.515625 62.484375 127.246094 61.675781 129.15625 61.339844 C 130.160156 61.160156 130.808594 60.46875 131.402344 59.683594 C 132.164062 58.667969 132.949219 57.65625 133.8125 56.726562 C 137.597656 52.660156 142.320312 51.328125 147.722656 52.121094 C 148.507812 52.234375 149.265625 52.515625 150.050781 52.664062 C 151.347656 52.90625 152.589844 52.761719 153.710938 52 C 153.976562 51.820312 154.257812 51.667969 154.507812 51.472656 C 159.664062 47.5 165.480469 46.992188 171.269531 49.246094 C 176.765625 51.386719 182 51.585938 187.492188 49.65625 C 191.167969 48.367188 194.773438 49.183594 198.160156 50.785156 C 200.015625 51.664062 201.347656 51.394531 202.902344 50.082031 C 205.714844 47.703125 208.894531 45.898438 212.492188 44.859375 C 215.371094 44.027344 218.296875 43.863281 220.878906 45.28125 C 223.472656 46.695312 226.324219 46.976562 229 47.949219 C 231.671875 51.277344 230.054688 54.382812 228.507812 57.496094 C 226.828125 59.539062 224.28125 59.335938 222.042969 59.988281 C 215.878906 61.773438 214.746094 64.546875 218.003906 69.917969 C 220.644531 74.269531 223.65625 78.308594 228.238281 80.875 C 230.902344 83.890625 230.761719 87.90625 231.972656 91.4375 C 233.933594 97.152344 236.71875 102.402344 240.246094 107.273438 C 241.5625 109.09375 242.792969 110.898438 242.410156 113.304688 C 241.160156 115.777344 240.894531 118.210938 241.328125 121.082031 C 242.292969 127.453125 242.199219 133.820312 237.398438 139.046875 C 236.382812 140.148438 236.050781 141.578125 236.019531 143.027344 C 235.804688 152.273438 230.390625 157.804688 222.710938 161.742188 C 219.792969 161.382812 217.566406 162.558594 215.484375 164.566406 C 209.453125 170.382812 202.371094 173.558594 193.816406 172.28125 C 191.652344 171.957031 190.121094 172.601562 188.707031 174.089844 C 187.722656 175.125 186.71875 176.15625 185.664062 177.125 C 180.078125 182.242188 173.785156 184.417969 166.351562 181.671875 C 163.285156 180.539062 160.273438 179.824219 157.160156 181.621094 C 145.941406 188.097656 135.914062 184.539062 126.679688 177.445312 C 123.34375 174.878906 120.375 172.535156 115.949219 171.957031 C 111.066406 171.320312 107.207031 168.292969 104.058594 164.507812 C 102.433594 162.546875 100.882812 160.527344 99.132812 158.675781 C 99.058594 158.441406 98.984375 158.207031 98.914062 157.972656 Z M 98.914062 157.96875 " fill-opacity="1" fill-rule="nonzero"/><g clip-path="url(#b490a6fbf6)"><path fill="#fcc841" d="M 72.144531 315.78125 C 69.800781 314.675781 69.050781 313.015625 69.953125 310.46875 C 71.140625 307.105469 72.097656 303.660156 73.15625 300.253906 C 75.003906 299.769531 76.070312 300.984375 77.277344 302.050781 C 82.601562 306.757812 88.6875 308.199219 95.457031 305.859375 C 98.542969 304.789062 101.523438 304.472656 104.804688 304.945312 C 113.894531 306.257812 122.300781 302.835938 124.769531 293.625 C 125.28125 291.710938 126.710938 290.417969 128.253906 289.210938 C 134.855469 284.054688 136.394531 277.617188 131.589844 271.007812 C 127.472656 265.34375 123.578125 259.734375 120.789062 253.25 C 118.988281 249.058594 115.054688 247.332031 110.28125 247.085938 C 98.71875 246.492188 88.417969 250.703125 78.160156 255.058594 C 73.054688 257.226562 67.792969 259.171875 63.363281 262.707031 C 62.335938 263.527344 61.132812 263.941406 59.8125 263.269531 C 59.425781 262.398438 58.929688 261.558594 58.675781 260.652344 C 57.421875 256.214844 56.199219 251.769531 55.035156 247.3125 C 53.648438 242.003906 53.765625 236.601562 54.222656 231.195312 C 54.371094 229.453125 54.589844 227.714844 54.660156 225.96875 C 55.203125 212.351562 58.917969 199.652344 65.816406 187.921875 C 70.046875 180.734375 75.523438 174.542969 81.890625 169.164062 C 85.167969 166.390625 88.429688 163.59375 92.082031 161.292969 C 94.242188 159.929688 96.410156 158.605469 98.917969 157.972656 C 98.917969 157.972656 98.941406 158.234375 98.941406 158.234375 C 101.902344 160.910156 103.6875 164.558594 106.632812 167.285156 C 109.273438 169.730469 112.085938 171.625 115.628906 172.417969 C 118.921875 173.152344 121.910156 174.316406 124.332031 176.980469 C 130.714844 184.015625 138.789062 187.082031 148.292969 186.632812 C 150.421875 186.53125 152.78125 185.652344 154.683594 187.515625 C 155.625 189.671875 154.207031 191.117188 153.140625 192.691406 C 149.621094 197.871094 146.839844 203.402344 145.566406 209.570312 C 144.648438 214.019531 145.722656 215.027344 150.1875 214.300781 C 154.109375 213.664062 155.226562 215.019531 154.351562 219.742188 C 153 227.042969 151.820312 234.375 150.695312 239.703125 C 151.964844 232.140625 154.285156 222.742188 155.019531 213.074219 C 155.136719 211.539062 155.925781 209.605469 157.820312 209.726562 C 159.957031 209.859375 159.566406 211.921875 159.738281 213.476562 C 160.78125 223.105469 159.417969 232.886719 161.664062 242.683594 C 162.589844 238.648438 161.40625 234.917969 160.824219 231.289062 C 159.980469 226.054688 160.523438 220.808594 159.820312 215.589844 C 159.265625 211.480469 161.292969 210.210938 164.886719 212.179688 C 166.375 212.992188 167.625 213.957031 169.144531 212.527344 C 170.539062 211.21875 170.863281 209.648438 170.441406 207.734375 C 168.5625 199.230469 164.308594 192.125 157.992188 186.1875 C 157.742188 182.925781 159.953125 182.597656 162.339844 182.6875 C 164.105469 182.75 165.734375 183.542969 167.371094 184.125 C 175 186.839844 181.519531 184.636719 187.023438 179.324219 C 190.207031 176.253906 193.394531 174.832031 197.984375 174.894531 C 205.625 174.996094 211.988281 171.269531 217.480469 166.109375 C 218.628906 165.03125 219.480469 163.617188 221.070312 163.046875 C 228.085938 162.355469 231.59375 166.992188 234.800781 172.085938 C 235.378906 174.058594 234.289062 175.355469 233.066406 176.71875 C 223.578125 187.289062 212.984375 196.675781 202.167969 205.855469 C 192.3125 214.214844 182.804688 222.976562 177.230469 235.003906 C 173.625 242.785156 173.328125 250.933594 174.898438 259.25 C 175.121094 260.4375 175.96875 261.164062 176.519531 262.113281 C 177.210938 263.824219 176.835938 265.496094 176.351562 267.183594 C 173.34375 277.679688 175.65625 283.050781 185.214844 287.855469 C 185.917969 288.207031 186.609375 288.589844 187.332031 288.90625 C 192.265625 293.835938 196.039062 299.761719 200.9375 304.722656 C 201.832031 305.628906 202.214844 306.914062 201.949219 308.273438 C 200.996094 311.382812 198.113281 312.421875 195.710938 313.835938 C 183.164062 321.222656 169.542969 325.152344 155.078125 326.621094 C 147.816406 327.355469 140.566406 328.324219 133.308594 329.117188 C 124.164062 330.121094 115.257812 327.996094 106.367188 326.363281 C 97.921875 324.808594 89.605469 322.617188 81.242188 320.671875 C 77.742188 319.855469 74.707031 318.300781 72.148438 315.792969 Z M 72.144531 315.78125 " fill-opacity="1" fill-rule="nonzero"/></g><g clip-path="url(#5c0a57fea9)"><path fill="#f25a73" d="M 227.144531 57.640625 C 227.761719 54.40625 228.382812 51.175781 229 47.9375 C 229.585938 46.464844 230.207031 45 230.753906 43.511719 C 236.355469 28.203125 246.535156 17.144531 261.605469 10.847656 C 270.777344 7.015625 280.332031 5.84375 290.121094 8.367188 C 301.414062 11.277344 309.601562 18.175781 315.28125 28.179688 C 318.957031 34.660156 320.859375 41.65625 321.089844 49.121094 C 321.390625 58.871094 320.65625 68.5 318.34375 78.003906 C 316.203125 86.78125 312.480469 94.753906 307.128906 102.058594 C 302.769531 108.007812 297.746094 113.308594 292.273438 118.183594 C 284.894531 124.757812 276.292969 128.519531 266.25 128.5625 C 261.445312 127.722656 256.859375 125.757812 251.882812 125.738281 C 249.277344 123.441406 246.347656 121.511719 244.03125 118.863281 C 242.515625 117.132812 241.285156 115.355469 241.59375 112.910156 C 240.8125 111.730469 240.109375 110.492188 239.238281 109.378906 C 233.378906 101.910156 229.609375 93.53125 228.050781 84.160156 C 227.894531 83.238281 227.523438 82.351562 227.253906 81.449219 C 223.332031 75.632812 223.269531 63.140625 227.140625 57.636719 Z M 227.144531 57.640625 " fill-opacity="1" fill-rule="nonzero"/></g><path fill="#e8a97e" d="M 72.144531 315.78125 C 75.980469 316.828125 79.796875 317.964844 83.660156 318.910156 C 94.644531 321.597656 105.625 324.382812 116.824219 326.003906 C 121.214844 326.636719 125.632812 327.554688 130.121094 327.226562 C 133.929688 326.949219 137.738281 326.628906 141.527344 326.15625 C 148 325.347656 154.433594 324.261719 160.917969 323.546875 C 173.703125 322.136719 185.25 317.355469 196.21875 310.953125 C 197.996094 309.917969 199.984375 309.167969 201.40625 307.574219 C 203.546875 306.046875 204.871094 307.742188 206.253906 308.882812 C 207.722656 310.089844 209.335938 311.140625 210.308594 312.328125 C 208.4375 309.886719 204.074219 308.652344 204.792969 304 C 205.777344 302.03125 207.699219 301.097656 209.417969 300.027344 C 224.558594 290.617188 236.160156 277.945312 244.820312 262.417969 C 247.183594 258.179688 247.585938 253.441406 249.292969 249.070312 C 250.960938 248.53125 252.59375 247.859375 254.296875 247.464844 C 264.488281 245.109375 272.894531 252.160156 271.871094 262.832031 C 271.449219 267.238281 271.175781 271.683594 270.46875 276.097656 C 269.484375 282.242188 268.164062 288.277344 266.5 294.253906 C 264.480469 301.496094 260.40625 307.507812 255.386719 312.960938 C 253.769531 314.71875 251.921875 316.273438 250.398438 318.101562 C 247.171875 321.972656 242.976562 324.140625 238.160156 324.984375 C 234.121094 325.691406 230.597656 327.347656 227.230469 329.53125 C 223.546875 331.917969 219.414062 333.09375 215.148438 333.800781 C 213.101562 334.140625 211.027344 334.015625 208.980469 333.511719 C 205.578125 332.671875 202.191406 331.863281 198.910156 330.5625 C 191.726562 327.726562 184.234375 326.292969 176.5 326.496094 C 173.167969 326.585938 169.84375 327.03125 166.515625 327.296875 C 165.277344 327.394531 164.398438 327.957031 163.992188 329.136719 C 163.375 330.945312 162.703125 332.738281 162.214844 334.582031 C 160.828125 339.773438 158.550781 344.414062 154.355469 347.941406 C 152.34375 349.628906 151.109375 351.84375 150.058594 354.183594 C 147.804688 359.1875 144.183594 362.769531 139.179688 365.074219 C 135.5625 366.738281 132.058594 368.644531 128.519531 370.472656 C 125.515625 372.023438 122.425781 373.230469 118.976562 373.257812 C 118.34375 373.265625 117.691406 373.328125 117.085938 373.503906 C 113.191406 374.636719 109.894531 373.339844 106.828125 371.058594 C 106.445312 370.777344 106.101562 370.4375 105.726562 370.140625 C 104.40625 369.09375 102.96875 368.816406 101.257812 369.058594 C 91.683594 370.390625 84.070312 366.613281 78.101562 359.464844 C 74.800781 355.511719 73.050781 350.644531 72.203125 345.539062 C 71.554688 341.625 70.894531 337.722656 71.941406 333.722656 C 72.335938 332.222656 72.09375 330.554688 72.121094 328.964844 C 72.164062 326.578125 72.167969 324.199219 72.734375 321.847656 C 73.226562 319.792969 73.105469 317.730469 72.144531 315.785156 Z M 72.144531 315.78125 " fill-opacity="1" fill-rule="nonzero"/><path fill="#fcc841" d="M 249.292969 249.070312 C 250.722656 252.175781 250.4375 255.160156 248.976562 258.222656 C 244.523438 267.574219 239.351562 276.429688 232 283.855469 C 230.773438 285.097656 229.460938 286.265625 228.316406 287.578125 C 222.605469 294.136719 215.359375 298.71875 208.125 303.324219 C 207.328125 303.828125 206.414062 304.148438 205.554688 304.554688 C 204.804688 304.949219 203.882812 305.101562 203.304688 304.585938 C 198.894531 300.621094 193.960938 297.039062 192.597656 290.71875 C 193.46875 287.484375 195.832031 287.375 198.21875 288.488281 C 207.242188 292.691406 218.4375 287.054688 222.308594 279.457031 C 223.589844 276.945312 225.445312 275.191406 227.859375 273.757812 C 236.808594 268.453125 239.195312 259.6875 239.871094 250.167969 C 240.046875 247.707031 238.15625 246.238281 236.300781 244.871094 C 227.625 238.46875 217.542969 236.515625 207.136719 235.703125 C 199.933594 235.140625 192.878906 236.574219 185.820312 237.738281 C 183.554688 238.113281 181.375 238.441406 179.683594 236.375 C 178.285156 233.417969 180.046875 231.117188 181.453125 228.875 C 187.007812 220.019531 194.351562 212.699219 202.175781 205.914062 C 212.398438 197.054688 222.609375 188.214844 231.6875 178.148438 C 232.820312 176.890625 233.726562 175.136719 235.941406 175.910156 C 241.652344 182.019531 245.929688 189.054688 249.125 196.726562 C 251.140625 201.566406 252.738281 206.558594 253.449219 211.804688 C 253.75 214.023438 254.046875 216.234375 253.855469 218.445312 C 253.417969 223.503906 253.128906 228.582031 251.945312 233.550781 C 251.050781 237.285156 249.871094 240.910156 247.644531 244.078125 C 246.394531 245.859375 246.601562 246.488281 247.894531 247.769531 C 248.34375 248.21875 248.820312 248.636719 249.289062 249.070312 Z M 249.292969 249.070312 " fill-opacity="1" fill-rule="nonzero"/><path fill="#e8a97e" d="M 73.195312 286.339844 C 72.3125 283.027344 70.339844 280.375 68.039062 277.933594 C 66.953125 276.78125 65.78125 275.710938 64.695312 274.558594 C 62.375 272.101562 60.566406 269.347656 59.945312 265.953125 C 63.875 260.796875 69.9375 259.296875 75.542969 257.308594 C 86.871094 253.292969 97.929688 248.085938 110.46875 248.714844 C 118.511719 249.121094 121.710938 251.578125 122.992188 259.460938 C 123.449219 262.289062 124.75 264.402344 126.824219 266.351562 C 130.148438 269.46875 132.382812 273.210938 132.519531 278.003906 C 132.640625 282.191406 131.238281 285.503906 127.5625 287.617188 C 125.542969 288.78125 124.113281 290.273438 123.277344 292.492188 C 119.867188 301.539062 113.910156 304.949219 104.3125 303.132812 C 101.226562 302.546875 98.421875 302.777344 95.425781 303.625 C 85.105469 306.539062 75.746094 302.699219 75.59375 291.996094 C 75.566406 289.886719 74.234375 288.128906 73.195312 286.339844 Z M 73.195312 286.339844 " fill-opacity="1" fill-rule="nonzero"/><path fill="#b06f43" d="M 73.195312 286.339844 C 75.5 286.136719 76.832031 287.339844 77.351562 289.429688 C 77.695312 290.808594 77.785156 292.253906 77.949219 293.675781 C 78.570312 299.074219 81.511719 301.773438 87.535156 302.441406 C 90.234375 302.742188 92.957031 302.5625 95.5 301.367188 C 98.382812 300.007812 101.320312 299.976562 104.339844 300.910156 C 108.003906 302.042969 111.601562 301.648438 115.058594 300.09375 C 118.132812 298.714844 120.265625 296.484375 120.972656 293.078125 C 121.167969 292.144531 121.433594 291.222656 121.640625 290.292969 C 122.015625 288.617188 122.996094 287.457031 124.5625 286.761719 C 125.289062 286.4375 126 286.070312 126.710938 285.710938 C 129.402344 284.355469 130.625 282.160156 130.667969 279.160156 C 130.734375 274.703125 128.695312 271.222656 125.75 268.140625 C 125.203125 267.570312 124.554688 267.085938 123.90625 266.621094 C 122.085938 265.308594 121.277344 263.476562 121.117188 261.308594 C 120.976562 259.402344 120.722656 257.546875 120.070312 255.707031 C 119.113281 253.035156 117.449219 251.492188 114.582031 251.136719 C 110.449219 250.621094 106.308594 250.355469 102.21875 251.199219 C 98.480469 251.972656 94.714844 252.785156 91.121094 254.035156 C 83.449219 256.699219 75.867188 259.625 68.28125 262.527344 C 66.507812 263.207031 64.894531 264.296875 63.148438 265.058594 C 62.144531 265.5 61.015625 265.664062 59.945312 265.949219 C 59.902344 265.054688 59.855469 264.15625 59.8125 263.261719 C 64.230469 258.964844 69.660156 256.355469 75.222656 253.917969 C 83.253906 250.398438 91.371094 247.171875 100.023438 245.5 C 104.441406 244.644531 108.894531 244.699219 113.339844 245.164062 C 116.292969 245.472656 118.519531 246.730469 120.378906 249.382812 C 122.78125 252.808594 124.992188 256.226562 126.121094 260.265625 C 126.570312 261.875 127.492188 263.066406 128.792969 264.085938 C 130.824219 265.671875 132.394531 267.691406 133.617188 269.941406 C 134.445312 271.46875 135.210938 273.070312 135.714844 274.726562 C 137.773438 281.476562 136.078125 286.617188 130.210938 290.476562 C 128.070312 291.882812 126.84375 293.421875 126.113281 295.902344 C 124.082031 302.789062 118.78125 306.019531 112.078125 307.199219 C 109.257812 307.695312 106.3125 307.722656 103.535156 306.964844 C 101.226562 306.332031 99.234375 306.703125 97.070312 307.515625 C 92.988281 309.042969 88.792969 309.652344 84.4375 308.449219 C 80.300781 307.308594 76.792969 305.367188 74.398438 301.691406 C 74.054688 301.164062 73.574219 300.730469 73.15625 300.253906 C 72.886719 298.378906 72.550781 296.511719 72.359375 294.632812 C 72.066406 291.820312 71.46875 288.957031 73.199219 286.339844 Z M 73.195312 286.339844 " fill-opacity="1" fill-rule="nonzero"/><path fill="#6a531b" d="M 235.949219 175.914062 C 234.347656 177.679688 232.742188 179.441406 231.140625 181.210938 C 225.6875 187.246094 219.804688 192.847656 213.761719 198.285156 C 207.132812 204.253906 200.3125 210.019531 194.125 216.460938 C 188.585938 222.226562 183.46875 228.308594 180.050781 235.628906 C 180.984375 238.054688 179.921875 240.277344 179.417969 242.582031 C 178.324219 247.558594 177.4375 252.570312 178.082031 257.707031 C 178.355469 259.886719 178.410156 261.917969 175.546875 262.386719 C 173.953125 262.203125 173.53125 260.957031 173.222656 259.710938 C 172.378906 256.296875 171.894531 252.820312 171.972656 249.304688 C 172.152344 241.480469 174.214844 234.226562 178.699219 227.714844 C 183.0625 221.378906 188.101562 215.632812 193.859375 210.550781 C 200.429688 204.75 207.152344 199.117188 213.820312 193.425781 C 220.019531 188.140625 225.84375 182.480469 231.25 176.386719 C 232.296875 175.207031 233.542969 174.148438 234.003906 172.539062 C 233.566406 170.207031 235.0625 168.566406 236.289062 167 C 243.21875 158.171875 248.242188 148.347656 252.003906 137.824219 C 252.847656 135.460938 253.636719 132.988281 256.238281 131.828125 C 258.476562 132.433594 259.246094 133.699219 258.046875 135.84375 C 253.640625 149.191406 247.167969 161.429688 238.339844 172.398438 C 237.453125 173.5 236.742188 174.738281 235.949219 175.910156 Z M 235.949219 175.914062 " fill-opacity="1" fill-rule="nonzero"/><path fill="#a74757" d="M 258.046875 135.84375 C 257.867188 134.324219 257.605469 132.859375 255.8125 132.386719 C 253.796875 135.070312 251.285156 136.289062 247.996094 134.875 C 244.863281 133.523438 243.351562 130.023438 244.714844 127.03125 C 246.199219 123.773438 248.613281 122.617188 252.007812 124.367188 C 253.277344 124.367188 254.632812 124.65625 255.796875 124.308594 C 259.144531 123.308594 261.683594 124.703125 264.113281 126.664062 C 264.851562 127.265625 265.542969 127.925781 266.253906 128.5625 C 267.265625 130.359375 268.320312 132.128906 269.277344 133.957031 C 269.871094 135.085938 270.238281 136.285156 269.855469 137.621094 C 268.964844 140.75 265.402344 141.957031 262.546875 140 C 261.773438 139.472656 261.113281 138.75 260.492188 138.035156 C 259.765625 137.191406 259.152344 136.25 258.042969 135.84375 Z M 258.046875 135.84375 " fill-opacity="1" fill-rule="nonzero"/><path fill="#b06f43" d="M 154.46875 187.707031 C 148.347656 189.226562 142.28125 189.328125 136.210938 187.3125 C 131.121094 185.617188 126.742188 182.875 123.214844 178.875 C 121.273438 176.671875 119.183594 175.3125 116.144531 174.691406 C 107.09375 172.835938 101.523438 167 98.9375 158.226562 C 100.121094 158.039062 101.085938 158.308594 101.917969 159.273438 C 103.582031 161.203125 105.289062 163.097656 107.066406 164.921875 C 110.316406 168.261719 114.371094 170.128906 118.96875 170.367188 C 121.773438 170.515625 123.78125 171.585938 125.582031 173.578125 C 130.027344 178.496094 135.660156 181.253906 142.125 182.476562 C 146.6875 183.339844 151.011719 183.023438 154.984375 180.371094 C 155.511719 180.019531 156.097656 179.75 156.632812 179.402344 C 158.941406 177.917969 161.371094 177.664062 163.945312 178.613281 C 165.140625 179.054688 166.367188 179.425781 167.5625 179.863281 C 173.644531 182.085938 178.839844 180.1875 183.515625 176.300781 C 184.976562 175.089844 186.257812 173.625 187.449219 172.136719 C 189.121094 170.050781 191.019531 169.128906 193.714844 169.976562 C 198.25 171.40625 202.546875 170.4375 206.652344 168.335938 C 209.503906 166.875 212.175781 165.152344 214.441406 162.851562 C 215.117188 162.167969 215.761719 161.457031 216.488281 160.839844 C 218.785156 158.886719 219.390625 158.925781 222.191406 161.097656 C 223.125 162.300781 222.460938 163.1875 221.609375 164.03125 C 217.304688 170.609375 211.035156 174.320312 203.628906 176.417969 C 200.984375 177.167969 198.289062 177.546875 195.640625 176.886719 C 193.417969 176.335938 191.996094 177.136719 190.660156 178.695312 C 189.835938 179.660156 188.949219 180.578125 188 181.414062 C 181.847656 186.820312 174.921875 188.988281 166.898438 186.265625 C 165.25 185.707031 163.640625 185.023438 162.054688 184.300781 C 160.414062 183.558594 159.324219 184.203125 158.410156 185.507812 C 157.796875 187.496094 156.652344 188.535156 154.464844 187.707031 Z M 154.46875 187.707031 " fill-opacity="1" fill-rule="nonzero"/><path fill="#ce8f63" d="M 84.550781 79.800781 C 84.542969 79.992188 84.527344 79.351562 84.605469 78.722656 C 85.042969 75.320312 87.101562 73.378906 90.570312 72.980469 C 93.78125 72.609375 96.511719 73.800781 99.019531 75.59375 C 100.695312 76.789062 102.253906 78.152344 103.859375 79.445312 C 105.402344 80.6875 105.839844 82.253906 105.226562 84.125 C 104.019531 87.796875 102.109375 91.117188 99.625 94.011719 C 97.046875 97.011719 92.148438 96.460938 89.8125 93.191406 C 87.949219 90.585938 86.695312 87.660156 85.300781 84.808594 C 84.652344 83.488281 84.519531 82.070312 84.550781 79.804688 Z M 84.550781 79.800781 " fill-opacity="1" fill-rule="nonzero"/><path fill="#cf8f63" d="M 227.144531 57.640625 C 227.175781 60.765625 227.304688 63.882812 226.605469 66.984375 C 226.335938 68.175781 226.269531 69.519531 226.535156 70.703125 C 227.335938 74.261719 227.132812 77.863281 227.257812 81.449219 C 225.070312 81.25 223.386719 80.113281 221.917969 78.585938 C 218.589844 75.121094 216.152344 71.023438 213.722656 66.929688 C 212.890625 65.523438 213.273438 64.144531 214.125 62.898438 C 216.230469 59.835938 219.222656 58.171875 222.855469 57.695312 C 224.261719 57.511719 225.710938 57.648438 227.144531 57.640625 Z M 227.144531 57.640625 " fill-opacity="1" fill-rule="nonzero"/><path fill="#da8662" d="M 188.785156 129.3125 C 186.867188 129.453125 185.101562 128.851562 183.339844 128.007812 C 179.066406 125.960938 179.59375 119.136719 182.960938 117.164062 C 187.0625 114.761719 191.148438 114.34375 195.597656 116.824219 C 199.320312 118.898438 199.773438 125.558594 195.28125 127.863281 C 193.273438 128.894531 191.117188 129.4375 188.785156 129.3125 Z M 188.785156 129.3125 " fill-opacity="1" fill-rule="nonzero"/><path fill="#261a14" d="M 168.140625 131.089844 C 166.851562 133.84375 164.945312 136.136719 162.226562 137.660156 C 160.679688 138.523438 159.070312 139.167969 157.246094 139.007812 C 156.429688 138.933594 155.617188 138.769531 155.46875 137.796875 C 155.367188 137.148438 155.65625 136.558594 156.253906 136.203125 C 157.347656 135.554688 158.480469 134.972656 159.542969 134.277344 C 161.699219 132.871094 163.539062 131.148438 164.660156 128.765625 C 165.035156 127.964844 164.984375 127.238281 164.410156 126.566406 C 163.589844 125.601562 162.726562 124.667969 161.9375 123.675781 C 161.109375 122.636719 160.820312 121.410156 160.949219 120.097656 C 161.046875 119.082031 161.496094 118.277344 162.496094 117.898438 C 164.765625 117.035156 167.140625 116.855469 169.53125 116.972656 C 170.894531 117.039062 171.84375 118.269531 171.628906 119.613281 C 171.507812 120.382812 171.203125 121.128906 170.957031 121.875 C 169.777344 125.492188 170.875 128.667969 174.210938 130.816406 C 175.398438 131.582031 176.777344 132.054688 178.050781 132.699219 C 179.886719 133.628906 180.589844 134.820312 180.011719 135.941406 C 179.4375 137.0625 178.027344 137.464844 176.199219 136.898438 C 173.878906 136.179688 171.902344 134.898438 170.269531 133.078125 C 169.65625 132.398438 169.324219 131.421875 168.140625 131.085938 Z M 168.140625 131.089844 " fill-opacity="1" fill-rule="nonzero"/><path fill="#da8662" d="M 138.230469 135.078125 C 133.8125 135.027344 131.417969 133.339844 130.730469 130.257812 C 130.367188 128.617188 130.574219 127.066406 131.78125 125.804688 C 132.4375 125.121094 133.113281 124.355469 133.9375 123.945312 C 137.578125 122.148438 141.449219 121.1875 145.503906 121.886719 C 149.355469 122.546875 150.890625 126.960938 148.441406 130.035156 C 145.65625 133.53125 141.808594 134.800781 138.226562 135.078125 Z M 138.230469 135.078125 " fill-opacity="1" fill-rule="nonzero"/><path fill="#2b1d16" d="M 148.5 111.558594 C 148.332031 112.132812 148.144531 113.25 147.683594 114.242188 C 146.648438 116.492188 143.9375 117.015625 142.085938 115.414062 C 140.039062 113.640625 139.074219 108.898438 140.285156 106.558594 C 141.015625 105.152344 142.789062 104.390625 144.347656 104.824219 C 147.050781 105.578125 148.613281 107.902344 148.5 111.558594 Z M 148.5 111.558594 " fill-opacity="1" fill-rule="nonzero"/><path fill="#2c1e16" d="M 182.121094 108.179688 C 182.121094 107.308594 182.097656 106.992188 182.125 106.675781 C 182.324219 104.488281 183.832031 102.789062 185.574219 102.769531 C 187.328125 102.753906 188.835938 104.441406 188.992188 106.660156 C 189.082031 107.929688 189.027344 109.191406 188.488281 110.386719 C 187.917969 111.644531 187.007812 112.492188 185.59375 112.484375 C 184.191406 112.476562 183.199219 111.664062 182.707031 110.378906 C 182.375 109.503906 182.222656 108.5625 182.125 108.179688 Z M 182.121094 108.179688 " fill-opacity="1" fill-rule="nonzero"/><path fill="#b06f43" d="M 175.546875 262.382812 C 176.839844 260.363281 176.433594 258.082031 176.382812 255.917969 C 176.238281 249.6875 177.34375 243.667969 179.085938 237.738281 C 179.300781 237 179.726562 236.328125 180.050781 235.625 C 181.109375 236.699219 182.367188 236.472656 183.632812 236.167969 C 187.199219 235.300781 190.816406 234.777344 194.449219 234.261719 C 205.898438 232.640625 217.003906 233.808594 227.878906 237.714844 C 231.84375 239.140625 235.339844 241.308594 238.625 243.859375 C 241.46875 246.074219 243.007812 248.773438 241.90625 252.601562 C 241.203125 255.039062 241.074219 257.628906 240.472656 260.101562 C 238.722656 267.308594 234.582031 272.742188 227.929688 276.109375 C 226.410156 276.875 225.378906 277.808594 224.703125 279.375 C 222.144531 285.328125 217.351562 288.964844 211.476562 291.078125 C 206.699219 292.796875 201.789062 292.96875 197.199219 290.128906 C 196.792969 289.878906 196.398438 289.597656 195.972656 289.390625 C 195.019531 288.925781 194.503906 289.273438 193.691406 290.890625 C 191.246094 292.09375 189.398438 288.660156 186.933594 290.03125 C 176.191406 288.230469 170.273438 278.476562 173.644531 268.191406 C 174.277344 266.257812 175.644531 264.558594 175.546875 262.382812 Z M 175.546875 262.382812 " fill-opacity="1" fill-rule="nonzero"/><path fill="#e24a21" d="M 154.46875 187.707031 C 155.75 186.914062 156.90625 185.898438 158.414062 185.507812 C 160.332031 185.496094 161.789062 186.425781 162.914062 187.855469 C 167.285156 193.417969 170.894531 199.378906 172.289062 206.445312 C 172.664062 208.351562 172.675781 210.238281 171.960938 212.085938 C 170.558594 215.699219 167.429688 216.644531 164.328125 214.347656 C 163.574219 213.792969 162.921875 213.105469 162.253906 212.507812 C 160.988281 212.8125 161.300781 213.761719 161.378906 214.4375 C 162.269531 222.023438 162.433594 229.679688 163.792969 237.222656 C 164.214844 239.550781 164.152344 241.980469 164.191406 244.367188 C 164.207031 245.300781 163.992188 246.265625 163.710938 247.164062 C 163.523438 247.757812 162.96875 248.1875 162.277344 248.261719 C 161.359375 248.359375 160.710938 247.875 160.402344 247.097656 C 159.992188 246.070312 159.574219 245 159.441406 243.914062 C 158.972656 239.960938 158.386719 236.003906 158.277344 232.039062 C 158.089844 225.195312 158.222656 218.347656 157.957031 211.457031 C 156.875 213.011719 156.601562 214.75 156.410156 216.542969 C 155.523438 224.9375 154.191406 233.265625 152.367188 241.507812 C 151.925781 243.511719 151.125 245.445312 150.429688 247.386719 C 150.203125 248.019531 149.582031 248.433594 148.933594 248.355469 C 148.269531 248.277344 147.878906 247.71875 147.792969 247.019531 C 147.570312 245.261719 147.777344 243.527344 148.109375 241.796875 C 149.441406 234.921875 150.773438 228.046875 152.085938 221.164062 C 152.4375 219.308594 152.722656 217.4375 153.050781 215.472656 C 151.359375 215.242188 150.691406 216.570312 149.632812 217.082031 C 146.625 218.539062 143.789062 217.195312 143.152344 213.882812 C 142.816406 212.140625 143.03125 210.40625 143.429688 208.675781 C 144.964844 202.027344 148.28125 196.25 152.15625 190.746094 C 152.890625 189.707031 153.699219 188.71875 154.472656 187.707031 Z M 154.46875 187.707031 " fill-opacity="1" fill-rule="nonzero"/><path fill="#6c541b" d="M 186.933594 290.03125 C 187.164062 289.460938 187.277344 288.796875 187.648438 288.339844 C 188.578125 287.191406 189.882812 286.96875 190.878906 287.859375 C 191.90625 288.773438 192.761719 289.875 193.691406 290.890625 C 197.175781 295.851562 201.128906 300.40625 205.554688 304.550781 C 208.046875 307.882812 211.277344 310.511719 214.050781 313.570312 C 214.578125 314.15625 215.070312 314.773438 215.550781 315.398438 C 215.617188 315.480469 215.558594 315.746094 215.464844 315.847656 C 215.273438 316.0625 214.972656 316.421875 214.800781 316.378906 C 213.890625 316.152344 212.886719 315.996094 212.132812 315.492188 C 209.628906 313.804688 207.203125 312 204.769531 310.207031 C 203.621094 309.363281 202.527344 308.449219 201.40625 307.570312 C 198.660156 304.707031 195.902344 301.855469 193.167969 298.980469 C 190.640625 296.3125 188.496094 293.371094 186.9375 290.027344 Z M 186.933594 290.03125 " fill-opacity="1" fill-rule="nonzero"/><path fill="#f8d2d9" d="M 240.75 45.328125 C 240.898438 44.558594 241.007812 43.601562 241.277344 42.695312 C 243.910156 33.867188 248.976562 26.6875 256.128906 20.9375 C 257.378906 19.933594 258.777344 19.136719 260.386719 18.855469 C 261.390625 18.679688 262.308594 19.03125 262.984375 19.765625 C 263.699219 20.542969 263.734375 21.550781 263.269531 22.441406 C 262.605469 23.707031 261.84375 24.929688 261.035156 26.113281 C 257.445312 31.394531 254.09375 36.792969 251.824219 42.808594 C 251.269531 44.285156 250.417969 45.667969 249.539062 46.984375 C 249.023438 47.757812 248.253906 48.402344 247.488281 48.957031 C 246.125 49.945312 244.59375 50.34375 243 49.496094 C 241.425781 48.660156 240.96875 47.148438 240.746094 45.328125 Z M 240.75 45.328125 " fill-opacity="1" fill-rule="nonzero"/><path fill="#f7cbd3" d="M 247.265625 63.613281 C 247.257812 65.660156 245.691406 67.257812 243.675781 67.28125 C 241.464844 67.308594 239.667969 65.496094 239.789062 63.359375 C 239.894531 61.441406 241.726562 59.789062 243.648438 59.878906 C 245.640625 59.972656 247.277344 61.660156 247.269531 63.613281 Z M 247.265625 63.613281 " fill-opacity="1" fill-rule="nonzero"/><path fill="#e8a97e" d="M 193.332031 240.195312 C 203.15625 239.648438 212.71875 242 222.183594 244.910156 C 226.5 246.238281 230.285156 248.542969 233.921875 251.179688 C 235.574219 252.378906 236.050781 253.824219 235.75 255.714844 C 234.585938 263.121094 231.066406 268.835938 223.945312 271.847656 C 222.191406 272.589844 221.082031 273.703125 220.386719 275.429688 C 218.882812 279.15625 216.023438 281.578125 212.5625 283.457031 C 209.964844 284.863281 207.242188 285.480469 204.308594 285.410156 C 202.511719 285.363281 200.800781 285.121094 199.429688 283.847656 C 197.675781 282.21875 195.789062 282.230469 193.6875 283.132812 C 191.621094 284.019531 189.488281 284.515625 187.191406 283.792969 C 181.8125 282.105469 178.582031 276.585938 179.886719 271 C 180.246094 269.464844 180.835938 267.964844 181.464844 266.507812 C 182.625 263.816406 182.664062 261.253906 180.816406 258.855469 C 176.421875 253.140625 178.457031 247.425781 180.8125 241.726562 C 181.292969 240.566406 182.402344 240.214844 183.574219 240.203125 C 186.757812 240.179688 189.941406 240.195312 193.328125 240.195312 Z M 193.332031 240.195312 " fill-opacity="1" fill-rule="nonzero"/><path fill="#f9bd3f" d="M 161.570312 195.308594 C 161.859375 195.371094 162.269531 195.335938 162.414062 195.511719 C 165.542969 199.402344 167.578125 203.785156 168.28125 208.746094 C 168.347656 209.203125 168.316406 209.699219 168.203125 210.140625 C 168.136719 210.398438 167.855469 210.695312 167.601562 210.789062 C 167.371094 210.875 167 210.78125 166.769531 210.636719 C 166.515625 210.480469 166.304688 210.203125 166.15625 209.933594 C 163.777344 205.617188 162.203125 201.011719 161.292969 196.175781 C 161.242188 195.914062 161.472656 195.597656 161.570312 195.304688 Z M 161.570312 195.308594 " fill-opacity="1" fill-rule="nonzero"/><path fill="#f6b03c" d="M 149.269531 209.582031 C 148.765625 209.328125 148.679688 208.875 148.757812 208.433594 C 148.894531 207.664062 149.082031 206.898438 149.304688 206.144531 C 150.515625 202.085938 151.75 198.039062 154.273438 194.546875 C 154.328125 194.46875 154.550781 194.515625 154.695312 194.503906 C 154.550781 198.976562 152.730469 202.996094 151.21875 207.09375 C 150.859375 208.078125 150.441406 209.175781 149.269531 209.582031 Z M 149.269531 209.582031 " fill-opacity="1" fill-rule="nonzero"/></svg>