<svg xmlns="http://www.w3.org/2000/svg" xmlns:xlink="http://www.w3.org/1999/xlink" width="500" zoomAndPan="magnify" viewBox="0 0 375 374.999991" height="500" preserveAspectRatio="xMidYMid meet" version="1.0"><defs><clipPath id="fcb30b1942"><path d="M 102.546875 215.484375 L 215.046875 215.484375 L 215.046875 327.984375 L 102.546875 327.984375 Z M 102.546875 215.484375 " clip-rule="nonzero"/></clipPath><clipPath id="785d1efca1"><path d="M 119.796875 215.484375 L 197.796875 215.484375 C 202.371094 215.484375 206.761719 217.300781 209.996094 220.535156 C 213.230469 223.773438 215.046875 228.160156 215.046875 232.734375 L 215.046875 310.734375 C 215.046875 315.308594 213.230469 319.695312 209.996094 322.933594 C 206.761719 326.167969 202.371094 327.984375 197.796875 327.984375 L 119.796875 327.984375 C 115.222656 327.984375 110.835938 326.167969 107.601562 322.933594 C 104.367188 319.695312 102.546875 315.308594 102.546875 310.734375 L 102.546875 232.734375 C 102.546875 228.160156 104.367188 223.773438 107.601562 220.535156 C 110.835938 217.300781 115.222656 215.484375 119.796875 215.484375 Z M 119.796875 215.484375 " clip-rule="nonzero"/></clipPath></defs><g clip-path="url(#fcb30b1942)"><g clip-path="url(#785d1efca1)"><path fill="#ce4e60" d="M 102.546875 215.484375 L 215.046875 215.484375 L 215.046875 327.984375 L 102.546875 327.984375 Z M 102.546875 215.484375 " fill-opacity="1" fill-rule="nonzero"/></g></g><path fill="#caa882" d="M 128.621094 81.984375 C 128.71875 82.125 128.78125 82.28125 128.796875 82.449219 C 128.96875 82.691406 129.121094 82.941406 129.25 83.203125 C 129.773438 84.242188 130.425781 84.773438 131.511719 83.832031 C 134.664062 81.097656 138.386719 79.285156 142.039062 77.359375 C 142.421875 76.5 143.117188 76.566406 143.851562 76.757812 C 145.738281 76.445312 147.625 76.132812 149.515625 75.824219 C 151.453125 75.507812 152.421875 74.289062 152.417969 72.171875 C 154.851562 72.160156 154.367188 74.121094 154.453125 75.453125 C 154.617188 77.988281 154.933594 80.421875 156.3125 82.644531 C 157.554688 84.652344 159.179688 86.125 161.289062 87.222656 C 170.03125 91.777344 179.328125 94.015625 189.132812 94.917969 C 196.277344 95.574219 203.292969 95.5625 210.222656 93.816406 C 221.386719 91.003906 228.515625 83.777344 232.21875 73.007812 C 232.703125 71.597656 232.8125 69.945312 234.589844 69.378906 C 236.085938 69.613281 237.582031 69.832031 239.078125 70.085938 C 243.664062 70.867188 247.6875 72.867188 251.296875 75.761719 C 252.21875 76.503906 253.152344 77.234375 254.082031 77.96875 C 254.753906 79.050781 255.636719 79.933594 256.683594 80.660156 C 258.566406 80.230469 258.707031 82.832031 260.378906 82.769531 C 261.710938 82.671875 262.125 81.515625 262.691406 80.644531 C 264.984375 77.113281 268.289062 75.230469 272.355469 74.550781 C 275.160156 74.078125 277.875 73.421875 280.535156 72.300781 C 286.976562 69.578125 294.027344 71.539062 298.335938 77.390625 C 300.074219 79.75 301.765625 80.960938 304.824219 80.523438 C 312.339844 79.449219 319.386719 88.773438 319.800781 95.140625 C 320.042969 98.847656 320.125 102.558594 318.6875 106.132812 C 318.097656 107.59375 317.8125 109.273438 319.371094 110.308594 C 325.335938 114.273438 323.9375 120.144531 323.417969 125.738281 C 323.191406 128.160156 322.023438 130.34375 320.652344 132.332031 C 318.699219 135.164062 316.96875 135.351562 314.15625 133.246094 C 313.644531 132.863281 313.191406 132.339844 312.429688 132.519531 C 311.925781 133.097656 312.375 133.550781 312.683594 133.953125 C 319.746094 143.078125 320.355469 152.625 314.585938 162.601562 C 313.519531 164.445312 312.667969 166.214844 314.117188 168.371094 C 319.179688 175.902344 317.640625 183.480469 313.417969 190.585938 C 311.445312 193.898438 311.492188 196.046875 313.511719 199.328125 C 318.183594 206.90625 315.894531 214.46875 312.054688 221.683594 C 310.652344 224.3125 308.507812 226.421875 306.082031 228.132812 C 304.09375 229.53125 303.402344 231.246094 304.15625 233.5 C 307.285156 242.859375 299.125 256.863281 289.828125 259.675781 C 287.964844 260.242188 287.050781 261.417969 287.140625 263.269531 C 287.671875 273.855469 274.585938 286.113281 262.039062 283.84375 C 259.828125 283.441406 258.566406 284.191406 257.675781 286.226562 C 252.480469 298.136719 242.960938 300.191406 232.71875 298.808594 C 230.558594 298.515625 228.414062 298.019531 226.421875 297.050781 C 223.796875 295.773438 221.558594 296.296875 219.660156 298.476562 C 219.375 298.804688 219.726562 298.390625 219.429688 298.710938 C 215.054688 303.46875 210.503906 307.484375 203.234375 307.117188 C 196.867188 306.796875 190.519531 306.949219 184.800781 303.617188 C 182.613281 302.339844 180.734375 302.824219 179.121094 304.363281 C 170.878906 312.234375 161.855469 311.414062 152.441406 306.945312 C 148.683594 305.160156 145.042969 303.175781 141.730469 300.628906 C 139.929688 299.246094 137.992188 298.964844 135.871094 299.789062 C 127.710938 302.957031 120.628906 300.566406 114.269531 295.320312 C 111.417969 292.964844 108.734375 290.34375 107.328125 286.738281 C 106.515625 284.644531 104.609375 284.027344 102.660156 283.550781 C 98.378906 282.503906 94.199219 281.09375 90.707031 278.375 C 82.128906 271.683594 77.316406 262.671875 75.546875 252.078125 C 75.101562 249.421875 74.070312 247.695312 71.847656 246.34375 C 62.285156 240.539062 57.363281 231.972656 56.28125 220.863281 C 55.722656 215.097656 56.1875 209.558594 57.800781 204.066406 C 58.355469 202.164062 58.121094 200.488281 57.230469 198.714844 C 52.046875 188.363281 53.109375 178.046875 57.640625 167.8125 C 58.039062 166.914062 58.347656 165.984375 58.765625 165.097656 C 59.804688 162.882812 58.910156 161.714844 56.769531 160.855469 C 44.789062 156.027344 41.195312 147.570312 45.878906 135.222656 C 46.597656 133.328125 46.242188 131.898438 44.984375 130.421875 C 37.328125 121.4375 37.910156 111.214844 40.601562 100.695312 C 40.710938 100.269531 41.015625 99.933594 41.34375 99.636719 C 42.160156 98.9375 43.109375 99.285156 44.015625 99.292969 C 46.84375 96.886719 48.1875 93.511719 49.984375 90.417969 C 55.8125 80.34375 64.214844 73.34375 75.546875 70.4375 C 81.292969 68.964844 86.90625 69.859375 91.078125 74.773438 C 92.550781 76.507812 94.054688 76.171875 95.75 75.335938 C 98.882812 73.789062 102.011719 72.226562 105.589844 71.945312 C 113.226562 71.335938 119.464844 73.996094 124.453125 79.792969 C 125.171875 80.628906 125.492188 82.078125 127.023438 82.015625 C 127.550781 81.867188 128.085938 81.640625 128.617188 81.996094 Z M 128.621094 81.984375 " fill-opacity="1" fill-rule="nonzero"/><path fill="#caa882" d="M 15.453125 176.898438 C 15.128906 175.980469 14.851562 175.042969 14.464844 174.148438 C 11.410156 167.085938 10.871094 159.671875 11.339844 152.109375 L 11.332031 152.117188 C 12.03125 150.195312 12.371094 148.195312 12.632812 146.175781 L 12.632812 146.183594 C 13.523438 144.515625 14.113281 142.738281 14.574219 140.910156 C 15.492188 139.734375 16.136719 138.425781 16.574219 137.003906 C 20.976562 130.265625 26.875 125.089844 33.558594 120.722656 C 34.640625 120.015625 35.738281 119.285156 36.308594 118.035156 C 38.199219 117.90625 38.328125 119.496094 38.605469 120.648438 C 39.492188 124.332031 40.871094 127.6875 43.710938 130.351562 C 45.269531 131.8125 45.164062 133.566406 44.3125 135.464844 C 42.027344 140.554688 41.683594 145.75 43.574219 151.089844 C 45.378906 156.195312 48.667969 159.597656 53.953125 161.113281 C 58.925781 162.539062 59.078125 163.941406 57.199219 168.707031 C 53.28125 178.648438 51.058594 188.824219 56.667969 199 C 57.789062 201.039062 57.449219 202.964844 56.839844 205 C 54.667969 212.242188 54.082031 219.527344 55.921875 226.964844 C 58.054688 235.59375 62.773438 242.230469 70.601562 246.515625 C 72.945312 247.800781 73.855469 249.589844 74.246094 252.234375 C 75.957031 263.8125 80.894531 273.601562 90.871094 280.359375 C 93.921875 282.421875 97.398438 283.457031 100.90625 284.226562 C 103.589844 284.816406 105.328125 286.050781 106.621094 288.523438 C 110.5625 296.066406 117.125 300.328125 125.179688 302.425781 C 128.234375 303.21875 131.335938 302.605469 134.179688 301.433594 C 137.195312 300.191406 139.519531 300.777344 141.996094 302.785156 C 146.972656 306.828125 152.753906 309.421875 158.84375 311.347656 C 165.496094 313.453125 171.691406 312.246094 177.148438 308.203125 C 180.277344 305.886719 182.824219 305.203125 186.660156 306.886719 C 193.875 310.058594 201.59375 309.800781 209.179688 308.113281 C 213.027344 307.253906 216.019531 304.796875 218.453125 301.714844 C 221.730469 297.558594 222.570312 297.554688 227.605469 299.308594 C 237.730469 302.832031 252.242188 301.0625 257.613281 289.175781 C 258.597656 287 260.171875 285.617188 262.742188 285.953125 C 269.457031 286.84375 274.871094 284.023438 279.789062 279.921875 C 284.503906 275.988281 287.507812 271.050781 288.128906 264.835938 C 288.324219 262.886719 289.378906 261.667969 291.105469 260.867188 C 300.167969 256.671875 304.464844 249.042969 306.257812 239.664062 C 306.585938 237.933594 306.335938 236.183594 305.945312 234.460938 C 305.390625 232 306.097656 230.144531 308.144531 228.4375 C 316.820312 221.195312 319.613281 208.300781 314.753906 198.128906 C 313.605469 195.726562 313.703125 193.785156 314.933594 191.371094 C 318.757812 183.890625 320.433594 176.175781 316.027344 168.230469 C 315.113281 166.582031 315.273438 164.882812 316.0625 163.195312 C 316.757812 161.710938 317.550781 160.269531 318.109375 158.726562 C 319.9375 153.679688 320.484375 148.542969 319.019531 143.320312 C 318.242188 140.550781 318.710938 138.355469 320.820312 136.1875 C 326.28125 130.570312 326.925781 123.65625 325.546875 116.335938 C 325.195312 114.46875 324.449219 112.742188 323.121094 111.394531 C 321.285156 109.527344 321.070312 107.472656 321.78125 105.066406 C 323.417969 99.503906 323.109375 94.070312 320.460938 88.824219 C 318.648438 85.230469 316.292969 82.199219 312.597656 80.316406 C 311.191406 79.601562 309.464844 78.84375 310.40625 76.628906 C 312.558594 75.445312 314.820312 75.800781 317.03125 76.292969 C 319.019531 76.738281 320.953125 77.429688 322.910156 78.015625 L 322.925781 78.023438 C 324.816406 79.273438 326.777344 80.382812 328.855469 81.289062 L 328.824219 81.265625 C 331.019531 83.054688 333.292969 84.757812 335.390625 86.652344 C 346.988281 97.121094 351.417969 110.214844 349.503906 125.585938 C 349.492188 125.695312 349.484375 125.804688 349.457031 125.914062 C 348.65625 129.222656 348.921875 132.0625 352.335938 133.976562 C 353.625 134.695312 354.566406 136.03125 355.664062 137.089844 C 355.664062 137.089844 355.679688 137.089844 355.679688 137.089844 C 359.59375 142.699219 362.441406 148.734375 363.722656 155.523438 C 366.390625 169.628906 364.664062 183.128906 358.277344 195.96875 C 357.070312 198.402344 356.9375 200.503906 357.703125 203.113281 C 361.207031 215.089844 361.488281 227.175781 358.410156 239.320312 C 357.25 243.90625 355.0625 248.058594 353.128906 252.324219 C 349.464844 257.507812 345.496094 262.429688 340.691406 266.625 C 339.972656 267.253906 339.574219 267.910156 339.996094 268.90625 C 342.890625 275.691406 341.964844 282.351562 339.296875 288.945312 L 339.253906 288.996094 C 338.03125 290.671875 336.976562 292.445312 336.082031 294.3125 L 336.082031 294.308594 C 334.566406 295.898438 333.265625 297.652344 332.125 299.527344 L 332.121094 299.53125 C 331.714844 299.886719 331.277344 300.214844 330.90625 300.605469 C 328.480469 303.1875 328.972656 302.804688 330.09375 305.308594 C 332.007812 309.566406 333.945312 313.855469 333.507812 318.730469 C 333.414062 319.792969 334.070312 320.582031 334.582031 321.398438 C 335.695312 323.175781 336.4375 325.085938 336.730469 327.160156 C 337.15625 330.1875 336.355469 332.738281 333.878906 334.691406 C 332.78125 335.5625 331.578125 336.347656 330.839844 337.601562 L 330.84375 337.601562 C 329.074219 338.898438 327.308594 340.199219 325.539062 341.496094 L 325.53125 341.496094 C 323.910156 341.9375 322.347656 342.515625 320.96875 343.5 L 320.96875 343.492188 C 320.253906 343.492188 319.613281 343.703125 319.09375 344.214844 L 319.082031 344.21875 C 315.46875 345.261719 311.941406 346.539062 308.507812 348.066406 L 308.515625 348.066406 C 303.050781 349.386719 297.585938 350.707031 292.117188 352.03125 C 292.117188 352.03125 292.121094 352.03125 292.121094 352.03125 C 289.214844 352.136719 286.351562 352.53125 283.546875 353.324219 L 283.539062 353.320312 C 278.9375 353.402344 274.449219 354.414062 269.902344 354.960938 C 255.164062 356.738281 240.421875 358.410156 225.605469 359.394531 C 209.144531 360.484375 192.65625 360.699219 176.175781 360.9375 C 161.546875 361.152344 146.933594 360.316406 132.367188 358.832031 C 130.742188 358.667969 129.101562 358.660156 127.46875 358.582031 C 127.277344 358.898438 127.113281 358.902344 126.992188 358.53125 C 125.253906 357.847656 123.4375 357.90625 121.621094 357.917969 L 121.621094 357.921875 C 116.289062 357.074219 110.96875 356.171875 105.628906 355.402344 C 102.421875 354.941406 99.277344 354.046875 96.015625 353.980469 L 96.019531 353.988281 C 92.789062 353.050781 89.503906 352.390625 86.15625 352.023438 L 86.167969 352.03125 C 82.738281 350.921875 79.257812 350.023438 75.71875 349.355469 L 75.695312 349.339844 C 73.480469 348.472656 71.265625 347.609375 69.054688 346.734375 C 66.523438 345.730469 64.242188 344.265625 61.972656 342.792969 L 61.949219 342.785156 C 61.496094 342.324219 61.070312 341.832031 60.585938 341.40625 C 58.257812 339.339844 57.179688 336.761719 57.09375 333.648438 C 56.941406 328.070312 57.632812 322.617188 59.136719 317.25 C 59.425781 316.210938 59.660156 315.15625 59.921875 314.105469 C 59.921875 314.105469 59.925781 314.101562 59.925781 314.101562 C 60.527344 312.871094 61.144531 311.644531 61.734375 310.40625 C 62.601562 308.582031 61.984375 307.375 59.882812 306.785156 L 59.890625 306.785156 C 54.699219 304.222656 49.550781 301.585938 45.332031 297.5 C 35.34375 287.816406 30.625 276.070312 31.507812 262.136719 C 31.65625 259.8125 32.203125 257.578125 33.417969 255.597656 C 34.441406 253.933594 34.015625 252.980469 32.316406 252.351562 L 32.332031 252.363281 C 31.679688 251.789062 31.066406 251.171875 30.375 250.648438 C 21.1875 243.683594 14.992188 234.644531 11.601562 223.65625 C 11.375 222.933594 11.070312 222.234375 10.800781 221.523438 C 10.558594 221.4375 10.453125 221.320312 10.488281 221.164062 C 10.527344 220.992188 10.582031 220.90625 10.648438 220.90625 C 10.425781 219.183594 10.167969 217.464844 9.976562 215.742188 C 8.871094 205.890625 10.144531 196.4375 14.773438 187.5625 C 14.792969 187.230469 14.941406 186.980469 15.25 186.832031 C 15.335938 186.773438 15.441406 186.726562 15.511719 186.648438 C 17.839844 183.984375 18 181.121094 15.992188 178.058594 C 15.523438 177.804688 15.347656 177.417969 15.464844 176.898438 Z M 15.453125 176.898438 " fill-opacity="1" fill-rule="nonzero"/><path fill="#fad259" d="M 234.589844 69.375 C 232.65625 83.605469 219.605469 95.246094 204.742188 96.484375 C 195.472656 97.257812 186.453125 96.230469 177.429688 94.851562 C 170.816406 93.84375 164.667969 91.007812 158.9375 87.621094 C 154.976562 85.28125 153.023438 81.328125 153.003906 76.59375 C 152.996094 75.09375 153.445312 73.53125 152.417969 72.164062 C 151.207031 67.871094 151.347656 63.535156 152.695312 59.371094 C 153.476562 56.964844 153.03125 55.523438 150.941406 54.335938 C 150.292969 53.972656 149.753906 53.417969 149.167969 52.945312 C 148.480469 51.832031 147.789062 50.71875 147.101562 49.601562 C 146.089844 47.574219 147.71875 46.929688 148.972656 46.171875 C 151.007812 44.945312 153.269531 44.128906 155.191406 42.683594 C 156.265625 41.875 157.355469 41.003906 157.09375 39.546875 C 156.800781 37.914062 155.164062 38 153.972656 37.699219 C 152.179688 37.242188 150.308594 37.546875 148.480469 37.363281 C 147.1875 37.238281 145.8125 37.179688 145.726562 35.371094 C 145.789062 34.089844 145.855469 32.804688 145.921875 31.523438 C 145.921875 31.523438 145.925781 31.5 145.925781 31.5 C 147.632812 27.441406 149.960938 23.816406 153.285156 20.863281 C 155.769531 18.65625 158.558594 16.980469 161.785156 16.175781 C 170.992188 13.890625 179.746094 14.144531 187.269531 20.9375 C 187.585938 21.222656 187.980469 21.425781 188.335938 21.667969 C 188.335938 21.667969 188.339844 21.683594 188.339844 21.683594 C 193.039062 27.296875 194.1875 33.933594 193.90625 40.988281 C 193.785156 44.0625 193.839844 44.066406 196.761719 45.148438 C 201.484375 46.898438 206.273438 48.285156 211.339844 48.675781 C 214.992188 48.960938 217.992188 47.9375 220.425781 45.207031 C 221.65625 43.820312 222.914062 42.457031 224.171875 41.09375 C 224.984375 40.210938 225.839844 39.363281 226.914062 38.785156 C 230.179688 37.019531 233.519531 38.570312 233.976562 42.257812 C 234.339844 45.171875 234.507812 48.144531 234.363281 51.070312 C 234.160156 55.117188 234.417969 59.125 234.605469 63.152344 C 234.703125 65.214844 234.597656 67.292969 234.582031 69.363281 Z M 234.589844 69.375 " fill-opacity="1" fill-rule="nonzero"/><path fill="#836541" d="M 310.410156 76.636719 C 310.589844 77.839844 311.65625 78.050781 312.5 78.496094 C 320.914062 82.957031 325.640625 92.480469 324.054688 101.859375 C 323.800781 103.363281 323.511719 104.890625 322.976562 106.3125 C 322.433594 107.765625 322.730469 108.769531 323.832031 109.792969 C 325.835938 111.652344 326.839844 114.082031 327.234375 116.730469 C 328.453125 124.898438 327.496094 132.472656 320.875 138.324219 C 319.886719 139.195312 319.710938 140.027344 320.085938 141.199219 C 322.632812 149.179688 321.4375 156.730469 317.363281 163.917969 C 316.726562 165.046875 316.535156 166.039062 317.238281 167.269531 C 322.09375 175.789062 320.53125 184.132812 316.179688 192.230469 C 315.125 194.191406 314.917969 195.515625 316.117188 197.515625 C 318.609375 201.648438 319.460938 206.21875 318.648438 211.070312 C 317.363281 218.738281 314.667969 225.609375 308.160156 230.417969 C 307.09375 231.207031 307.046875 232.117188 307.25 233.289062 C 309.285156 245.003906 304.039062 253.554688 295.253906 260.492188 C 294.25 261.285156 292.96875 261.8125 291.738281 262.207031 C 290.234375 262.691406 289.707031 263.609375 289.632812 265.101562 C 289.097656 276.269531 277.144531 286.597656 266.878906 287.671875 C 265.566406 287.808594 264.265625 287.742188 262.960938 287.539062 C 260.472656 287.15625 260.402344 287.148438 259.261719 289.511719 C 256.613281 294.992188 252.546875 299.015625 246.769531 300.910156 C 239.710938 303.226562 232.582031 303.234375 225.640625 300.214844 C 222.824219 298.988281 222.585938 298.761719 220.984375 301.089844 C 215.671875 308.796875 208.082031 310.976562 199.269531 310.652344 C 193.769531 310.453125 188.3125 310.128906 183.46875 307.148438 C 182.050781 306.277344 181.257812 307.054688 180.332031 307.855469 C 176.871094 310.855469 172.925781 312.769531 168.367188 313.585938 C 164.6875 314.25 161.160156 313.796875 157.707031 312.664062 C 151.222656 310.53125 145.167969 307.507812 139.890625 303.125 C 138.65625 302.101562 137.632812 301.734375 136.085938 302.429688 C 129.070312 305.582031 122.40625 304.40625 116.101562 300.449219 C 111.21875 297.390625 106.855469 293.757812 104.714844 288.175781 C 104.078125 286.507812 102.785156 286.253906 101.40625 285.953125 C 97.429688 285.089844 93.601562 283.847656 90.085938 281.75 C 86.550781 279.640625 83.628906 276.890625 81.292969 273.523438 C 77.085938 267.449219 73.386719 261.050781 72.867188 253.539062 C 72.640625 250.25 71.355469 248.738281 68.652344 247.144531 C 60.367188 242.257812 55.625 234.75 53.96875 225.300781 C 52.679688 217.945312 53.324219 210.722656 55.644531 203.640625 C 56.066406 202.351562 56.339844 201.199219 55.460938 199.925781 C 51.535156 194.226562 51.433594 187.804688 52.277344 181.3125 C 52.929688 176.324219 53.953125 171.425781 56.753906 167.046875 C 58.042969 165.035156 57.335938 163.5 54.921875 163.042969 C 40.921875 160.378906 38.421875 144.023438 42.667969 135.367188 C 43.914062 132.835938 43.914062 132.746094 41.894531 130.714844 C 38.898438 127.691406 37.617188 123.929688 36.933594 119.871094 C 36.824219 119.222656 36.757812 118.570312 36.308594 118.042969 C 36.238281 117.773438 36.167969 117.507812 36.101562 117.238281 C 35.957031 117.03125 35.984375 116.847656 36.160156 116.675781 C 36.613281 113.164062 37.0625 109.65625 37.515625 106.144531 C 37.363281 105.992188 37.320312 105.855469 37.386719 105.726562 C 37.453125 105.605469 37.515625 105.546875 37.578125 105.546875 C 38.074219 104.953125 38.179688 104.25 38.171875 103.511719 C 38.011719 103.34375 37.976562 103.199219 38.054688 103.066406 C 38.128906 102.941406 38.199219 102.882812 38.261719 102.882812 C 39.71875 100.128906 40.375 97.011719 42.109375 94.382812 C 44.898438 92.03125 46.089844 88.59375 48.050781 85.675781 C 48.292969 85.085938 48.53125 84.496094 48.777344 83.902344 C 48.871094 83.582031 49.078125 83.375 49.390625 83.257812 C 51.316406 81.675781 53.089844 79.949219 54.507812 77.886719 L 54.539062 77.859375 C 56.292969 76.820312 57.613281 75.269531 59.15625 73.980469 L 59.164062 73.972656 C 61.136719 72.667969 63.105469 71.363281 65.078125 70.058594 L 65.085938 70.054688 C 68.953125 68.363281 72.785156 66.546875 77.085938 66.1875 C 82.472656 65.738281 87.324219 67.457031 92.019531 69.835938 C 92.765625 71.167969 93.695312 72.097656 95.382812 71.386719 C 95.804688 71.179688 96.222656 70.96875 96.640625 70.765625 L 96.644531 70.765625 C 98.53125 70.683594 100.074219 69.554688 101.839844 69.082031 C 103.179688 68.71875 104.464844 68.082031 105.910156 68.214844 C 110.835938 68.359375 115.738281 68.910156 119.664062 72.175781 C 123.265625 75.175781 127.234375 78.050781 128.074219 83.214844 C 128.035156 83.851562 128.15625 84.589844 127.371094 84.878906 C 126.75 85.113281 126.328125 84.683594 125.996094 84.253906 C 125.460938 83.5625 125.011719 82.808594 124.484375 82.113281 C 120.039062 76.238281 114.199219 73.132812 106.761719 73.261719 C 103.738281 73.3125 101.019531 74.484375 98.339844 75.738281 C 97.152344 76.292969 96.027344 76.988281 94.820312 77.488281 C 92.886719 78.289062 91.644531 78.128906 90.46875 76.480469 C 86.703125 71.214844 81.464844 70.933594 75.800781 71.875 C 74.175781 72.148438 72.605469 72.644531 71.125 73.355469 C 62.21875 77.625 54.957031 83.671875 50.46875 92.660156 C 48.699219 96.203125 46.601562 99.5 43.609375 102.152344 C 42.691406 101.582031 43.28125 100.644531 43.074219 99.898438 C 42.890625 99.226562 42.714844 98.957031 42.234375 99.695312 C 40.785156 105.445312 39.964844 111.21875 40.679688 117.195312 C 41.230469 121.832031 42.777344 125.945312 46.097656 129.1875 C 48.308594 131.34375 48.730469 133.210938 47.21875 136.089844 C 44.253906 141.738281 44.890625 147.507812 47.867188 153.042969 C 49.097656 155.332031 51.011719 156.964844 53.410156 157.949219 C 55.125 158.652344 56.910156 159.1875 58.667969 159.78125 C 61.066406 160.585938 61.730469 161.878906 60.878906 164.257812 C 60.664062 164.871094 60.351562 165.476562 59.964844 165.992188 C 57.871094 168.796875 56.980469 172.03125 56.449219 175.414062 C 55.679688 180.273438 54.898438 185.105469 55.824219 190.0625 C 56.351562 192.890625 57.023438 195.644531 58.644531 198.027344 C 60.011719 200.035156 60.089844 202.007812 59.371094 204.242188 C 57.113281 211.265625 56.875 218.429688 58.507812 225.585938 C 60.390625 233.835938 64.894531 240.339844 72.203125 244.785156 C 72.765625 245.125 73.324219 245.476562 73.90625 245.777344 C 75.941406 246.832031 76.726562 248.480469 76.988281 250.777344 C 78.191406 261.355469 83.050781 270.058594 91.210938 276.828125 C 94.714844 279.734375 99.046875 281.175781 103.449219 282.132812 C 106.257812 282.746094 107.753906 284.21875 109.179688 286.785156 C 113.398438 294.355469 119.789062 299.132812 128.777344 299.683594 C 131 299.820312 133.140625 299.300781 135.136719 298.34375 C 137.9375 297.003906 140.300781 297.535156 142.722656 299.421875 C 147.496094 303.15625 152.875 305.847656 158.636719 307.726562 C 165.8125 310.066406 172.21875 308.695312 177.792969 303.574219 C 178.277344 303.128906 178.78125 302.707031 179.269531 302.269531 C 180.953125 300.746094 182.796875 300.585938 184.6875 301.777344 C 191.605469 306.132812 199.304688 305.765625 206.960938 305.394531 C 209.644531 305.261719 211.996094 303.964844 213.914062 302.035156 C 215.609375 300.328125 217.308594 298.625 218.925781 296.84375 C 221.128906 294.421875 223.519531 293.929688 226.5625 295.375 C 231.875 297.898438 237.503906 298.292969 243.222656 297.054688 C 249.613281 295.671875 253.828125 291.707031 256.238281 285.722656 C 256.359375 285.417969 256.453125 285.101562 256.570312 284.796875 C 257.609375 282.035156 258.511719 281.25 261.214844 282.097656 C 269.773438 284.785156 279.863281 277.820312 283.3125 271.46875 C 284.855469 268.621094 285.746094 265.675781 285.613281 262.382812 C 285.507812 259.804688 286.019531 259.035156 288.210938 258.5 C 294.9375 256.84375 298.523438 251.882812 301.335938 246.152344 C 303.375 241.992188 303.957031 237.667969 302.460938 233.113281 C 301.457031 230.046875 301.816406 229.21875 304.558594 227.335938 C 311.269531 222.734375 313.914062 216.023438 314.425781 208.277344 C 314.679688 204.425781 313.382812 200.984375 310.828125 198.023438 C 308.78125 195.644531 308.71875 194.929688 310.640625 192.289062 C 312.804688 189.316406 314.167969 186.027344 315.113281 182.515625 C 316.417969 177.660156 315.609375 173.140625 312.714844 169.117188 C 311.140625 166.925781 310.894531 165.023438 312.609375 162.90625 C 313.019531 162.402344 313.289062 161.785156 313.636719 161.230469 C 319.25 152.28125 317.015625 140.355469 311.042969 134.476562 C 310.253906 133.703125 309.585938 132.828125 309.320312 131.734375 C 308.980469 130.347656 309.582031 129.652344 311.035156 129.734375 C 313.089844 129.855469 314.316406 131.300781 315.621094 132.628906 C 317.121094 134.152344 317.257812 134.179688 318.59375 132.519531 C 322.714844 127.410156 323.082031 121.558594 321.78125 115.4375 C 321.449219 113.871094 320.355469 112.824219 318.957031 112 C 316.257812 110.410156 315.90625 109.625 316.90625 106.671875 C 318.003906 103.421875 318.71875 100.160156 318.496094 96.714844 C 318.136719 91.21875 315.5625 86.933594 311.234375 83.699219 C 309.050781 82.074219 306.429688 81.355469 303.769531 82.15625 C 301.042969 82.980469 299.535156 81.996094 298.121094 79.726562 C 295.285156 75.167969 291.234375 72.5 285.640625 72.660156 C 283.851562 72.710938 282.152344 73.152344 280.609375 73.996094 C 278.746094 75.019531 276.78125 75.609375 274.6875 75.710938 C 269.582031 75.960938 265.796875 78.402344 263.035156 82.597656 C 262.671875 83.144531 262.304688 83.691406 261.886719 84.195312 C 260.945312 85.332031 260.0625 85.191406 259.273438 84.007812 C 259.300781 83.230469 259.132812 82.386719 260.03125 81.929688 C 261.425781 80.265625 262.097656 78.148438 263.652344 76.546875 C 265.9375 74.1875 268.605469 72.691406 271.796875 72.09375 C 273.183594 71.832031 274.597656 71.6875 275.753906 70.753906 L 275.765625 70.742188 C 277.078125 70.667969 278.332031 70.308594 279.503906 69.765625 C 285.726562 66.890625 291.882812 67.871094 298.035156 69.996094 C 301.375 72.898438 304.234375 76.621094 309.273438 76.675781 C 309.652344 76.667969 310.035156 76.660156 310.410156 76.648438 Z M 310.410156 76.636719 " fill-opacity="1" fill-rule="nonzero"/><path fill="#c0773c" d="M 145.730469 35.375 C 146.765625 36.226562 147.996094 35.960938 149.164062 35.945312 C 151.558594 35.917969 153.933594 35.988281 156.265625 36.597656 C 159.53125 37.457031 160.195312 39.355469 158.144531 42.070312 C 156.871094 43.757812 155.070312 44.785156 153.242188 45.742188 C 151.609375 46.59375 149.933594 47.363281 148.269531 48.148438 C 147.625 48.449219 147.265625 48.941406 147.105469 49.609375 C 146.933594 49.648438 146.757812 49.667969 146.582031 49.679688 L 146.554688 49.667969 C 145.675781 48.71875 144.550781 49.144531 143.515625 49.160156 C 137.929688 49.238281 135.863281 46.179688 138.0625 41.074219 C 138.230469 40.679688 138.402344 40.289062 138.574219 39.894531 L 138.582031 39.878906 C 140.488281 37.625 143.355469 36.894531 145.726562 35.375 Z M 145.730469 35.375 " fill-opacity="1" fill-rule="nonzero"/><path fill="#c4a37f" d="M 309.269531 76.660156 C 307.582031 77.746094 305.707031 77.042969 303.925781 77.207031 C 303.363281 77.257812 302.902344 76.917969 302.570312 76.457031 C 301.132812 74.429688 299.519531 72.578125 297.539062 71.039062 C 296.867188 70.519531 297.488281 70.164062 298.03125 69.980469 C 302.1875 71.519531 305.796875 73.976562 309.269531 76.664062 Z M 309.269531 76.660156 " fill-opacity="1" fill-rule="nonzero"/><path fill="#ac8e71" d="M 128.074219 83.207031 C 126.675781 80.523438 125.242188 77.894531 123.050781 75.703125 C 118.886719 71.535156 113.925781 69.230469 108.082031 68.738281 C 107.324219 68.675781 106.566406 68.660156 105.90625 68.210938 C 116.132812 67.53125 124.15625 72.398438 128.617188 81.984375 C 128.4375 82.390625 128.253906 82.800781 128.070312 83.207031 Z M 128.074219 83.207031 " fill-opacity="1" fill-rule="nonzero"/><path fill="#a98b70" d="M 48.050781 85.671875 C 47.539062 87.9375 46.324219 89.910156 45.265625 91.929688 C 44.636719 93.132812 43.757812 94.332031 42.109375 94.375 C 43.65625 91.175781 45.527344 88.203125 48.050781 85.671875 Z M 48.050781 85.671875 " fill-opacity="1" fill-rule="nonzero"/><path fill="#b89978" d="M 95.382812 71.382812 C 93.292969 72.980469 92.476562 72.601562 92.015625 69.835938 C 93.136719 70.351562 94.257812 70.867188 95.382812 71.382812 Z M 95.382812 71.382812 " fill-opacity="1" fill-rule="nonzero"/><path fill="#ac8e71" d="M 129.25 83.203125 C 129.101562 82.953125 128.949219 82.703125 128.796875 82.449219 C 128.949219 82.699219 129.101562 82.953125 129.25 83.203125 Z M 129.25 83.203125 " fill-opacity="1" fill-rule="nonzero"/><path fill="#b17461" d="M 60.523438 110.789062 C 60.816406 107.085938 61.121094 103.359375 63.40625 100.207031 C 66.917969 95.34375 71.6875 93.324219 77.632812 94.171875 C 81.636719 94.738281 85.191406 96.269531 88.058594 99.207031 C 88.839844 100.007812 89.867188 100.417969 90.824219 100.941406 C 95.527344 103.535156 96.648438 109 92.839844 112.730469 C 88.550781 116.9375 84.613281 121.492188 80.121094 125.476562 C 73.210938 131.613281 65.757812 129.699219 62.542969 121.03125 C 62.011719 119.601562 61.488281 118.132812 61.273438 116.636719 C 60.996094 114.699219 60.34375 112.796875 60.523438 110.785156 Z M 60.523438 110.789062 " fill-opacity="1" fill-rule="nonzero"/><path fill="#b17461" d="M 295.265625 87.699219 C 298.488281 87.558594 301.304688 88.511719 303.898438 90.335938 C 309.101562 93.988281 311.035156 99.496094 309.042969 105.511719 C 307.929688 108.882812 305.957031 111.792969 303.375 114.179688 C 300.902344 116.464844 297.863281 117.144531 294.550781 116.214844 C 290.734375 115.148438 287.210938 113.441406 283.984375 111.164062 C 279.5625 108.042969 276.980469 102.625 280.253906 96.273438 C 283.507812 89.964844 288.992188 88.296875 295.265625 87.699219 Z M 295.265625 87.699219 " fill-opacity="1" fill-rule="nonzero"/><path fill="#3a2b26" d="M 200.019531 206.339844 C 198.90625 207.867188 198.050781 209.125 197.105469 210.316406 C 194.277344 213.882812 190.960938 216.824219 186.601562 218.425781 C 185.132812 218.964844 183.644531 219.203125 182.097656 218.902344 C 181.285156 218.746094 180.664062 218.316406 180.542969 217.441406 C 180.425781 216.582031 180.84375 215.964844 181.617188 215.609375 C 182.3125 215.292969 183.03125 215.027344 183.734375 214.730469 C 188.339844 212.75 192.109375 209.632812 195.5625 206.070312 C 196.539062 205.066406 196.660156 204.335938 195.300781 203.539062 C 192.644531 201.980469 190.546875 199.695312 188.132812 197.816406 C 186.378906 196.453125 185.367188 194.65625 185.996094 192.367188 C 186.628906 190.054688 188.453125 189.214844 190.660156 188.855469 C 193.894531 188.332031 197.113281 187.703125 200.339844 187.140625 C 201.746094 186.890625 203.167969 186.835938 204.585938 187.089844 C 208.066406 187.722656 209.453125 189.984375 208.183594 193.285156 C 207.363281 195.417969 206.234375 197.429688 205.25 199.503906 C 203.703125 202.757812 203.726562 202.875 206.351562 205.378906 C 208.515625 207.445312 211.027344 208.960938 213.796875 210.070312 C 214.910156 210.519531 216.0625 210.902344 216.988281 211.710938 C 217.855469 212.476562 218.433594 213.40625 218.191406 214.589844 C 217.917969 215.921875 216.90625 216.585938 215.667969 216.871094 C 214.230469 217.203125 212.847656 216.882812 211.5 216.363281 C 207.398438 214.777344 204.136719 212.125 201.578125 208.585938 C 201.132812 207.972656 200.714844 207.339844 200.023438 206.339844 Z M 200.019531 206.339844 " fill-opacity="1" fill-rule="nonzero"/><path fill="#3a2b26" d="M 162.359375 182.609375 C 162.316406 184.25 162.238281 185.878906 161.675781 187.449219 C 160.972656 189.394531 159.941406 191.0625 157.726562 191.390625 C 155.394531 191.730469 153.410156 190.886719 151.945312 189.027344 C 149.367188 185.761719 149.554688 177.914062 152.242188 174.785156 C 154.570312 172.074219 158.246094 172.230469 160.390625 175.128906 C 161.640625 176.820312 162.359375 179.546875 162.359375 182.609375 Z M 162.359375 182.609375 " fill-opacity="1" fill-rule="nonzero"/><path fill="#3b2c26" d="M 226.578125 178.574219 C 227.769531 179.613281 228.941406 179.480469 229.964844 179.796875 C 231.316406 180.210938 232.734375 180.449219 233.972656 181.183594 C 235.320312 181.980469 236.074219 183.105469 235.65625 184.722656 C 235.324219 186.027344 233.933594 186.976562 232.28125 186.660156 C 228.320312 185.894531 224.363281 185.058594 220.464844 184.007812 C 218.074219 183.363281 217.398438 181.230469 218.648438 179.074219 C 219.082031 178.328125 219.675781 177.664062 220.246094 177.007812 C 222.957031 173.871094 225.6875 170.746094 228.417969 167.625 C 228.847656 167.136719 229.269531 166.601562 229.800781 166.242188 C 231.148438 165.335938 232.449219 166.027344 232.519531 167.65625 C 232.570312 168.910156 231.976562 169.980469 231.433594 171.046875 C 230.097656 173.671875 228.351562 176.042969 226.574219 178.566406 Z M 226.578125 178.574219 " fill-opacity="1" fill-rule="nonzero"/><path fill="#b69670" d="M 42.234375 99.6875 C 42.402344 98.316406 42.660156 96.984375 43.929688 95.378906 C 43.914062 98.015625 43.132812 100.074219 43.609375 102.148438 C 42.660156 101.601562 42.910156 100.390625 42.234375 99.6875 Z M 42.234375 99.6875 " fill-opacity="1" fill-rule="nonzero"/><path fill="#e5a937" d="M 197.679688 73.980469 C 188.914062 74 182.070312 68.992188 179.679688 61.546875 C 179.164062 59.945312 179.171875 58.324219 179.390625 56.691406 C 179.519531 55.773438 180.019531 55.019531 180.9375 54.757812 C 181.789062 54.515625 182.402344 55.085938 182.886719 55.6875 C 183.503906 56.449219 184.078125 57.246094 184.605469 58.074219 C 188.53125 64.207031 193.917969 65.679688 200.769531 64.519531 C 203.03125 64.136719 205.199219 63.390625 207.269531 62.347656 C 208.855469 61.550781 210.574219 60.902344 212.140625 62.292969 C 213.226562 63.257812 212.847656 65.378906 211.488281 67.390625 C 210.09375 69.460938 208.109375 70.824219 205.882812 71.75 C 202.960938 72.960938 199.933594 73.910156 197.675781 73.976562 Z M 197.679688 73.980469 " fill-opacity="1" fill-rule="nonzero"/><path fill="#6a5a46" d="M 162.632812 31.132812 C 162.621094 32.535156 161.316406 33.863281 159.914062 33.894531 C 158.375 33.925781 156.980469 32.457031 157.089844 30.917969 C 157.1875 29.488281 158.539062 28.265625 159.957031 28.324219 C 161.371094 28.386719 162.640625 29.71875 162.632812 31.132812 Z M 162.632812 31.132812 " fill-opacity="1" fill-rule="nonzero"/><path fill="#d5ad52" d="M 168.378906 63.4375 C 169.402344 64.480469 169.578125 65.394531 169.230469 66.753906 C 168.082031 65.800781 168.054688 64.84375 168.378906 63.4375 Z M 168.378906 63.4375 " fill-opacity="1" fill-rule="nonzero"/></svg>