<svg xmlns="http://www.w3.org/2000/svg" xmlns:xlink="http://www.w3.org/1999/xlink" width="3456" zoomAndPan="magnify" viewBox="0 0 2592 3455.999975" height="4608" preserveAspectRatio="xMidYMid meet" version="1.0"><defs><g/><clipPath id="675dd1c20e"><path d="M 113.339844 126.558594 L 2478.660156 126.558594 L 2478.660156 3330 L 113.339844 3330 Z M 113.339844 126.558594 " clip-rule="nonzero"/></clipPath><clipPath id="dcc240ae35"><path d="M 234.839844 126.558594 L 2357.160156 126.558594 C 2424.265625 126.558594 2478.660156 180.957031 2478.660156 248.058594 L 2478.660156 3207.941406 C 2478.660156 3275.042969 2424.265625 3329.441406 2357.160156 3329.441406 L 234.839844 3329.441406 C 167.734375 3329.441406 113.339844 3275.042969 113.339844 3207.941406 L 113.339844 248.058594 C 113.339844 180.957031 167.734375 126.558594 234.839844 126.558594 Z M 234.839844 126.558594 " clip-rule="nonzero"/></clipPath><clipPath id="5e8e66ca87"><path d="M 259.199219 259.199219 L 2332.800781 259.199219 L 2332.800781 650.792969 L 259.199219 650.792969 Z M 259.199219 259.199219 " clip-rule="nonzero"/></clipPath><clipPath id="4f32228f00"><path d="M 367 2057 L 2238 2057 L 2238 3329.097656 L 367 3329.097656 Z M 367 2057 " clip-rule="nonzero"/></clipPath><clipPath id="3697955a52"><path d="M 351.050781 3233 L 645 3233 L 645 3329.097656 L 351.050781 3329.097656 Z M 351.050781 3233 " clip-rule="nonzero"/></clipPath><clipPath id="e7b6b25316"><path d="M 2010 3202 L 2241.050781 3202 L 2241.050781 3329.097656 L 2010 3329.097656 Z M 2010 3202 " clip-rule="nonzero"/></clipPath></defs><rect x="-259.2" width="3110.4" fill="#ffffff" y="-345.599998" height="4147.19997" fill-opacity="1"/><rect x="-259.2" width="3110.4" fill="#5c514f" y="-345.599998" height="4147.19997" fill-opacity="1"/><g clip-path="url(#675dd1c20e)"><g clip-path="url(#dcc240ae35)"><path fill="#ffa53a" d="M 113.339844 126.558594 L 2478.660156 126.558594 L 2478.660156 3332.679688 L 113.339844 3332.679688 Z M 113.339844 126.558594 " fill-opacity="1" fill-rule="nonzero"/></g></g><g clip-path="url(#5e8e66ca87)"><path fill="#ffffff" d="M 259.199219 259.199219 L 2333.421875 259.199219 L 2333.421875 650.792969 L 259.199219 650.792969 Z M 259.199219 259.199219 " fill-opacity="1" fill-rule="nonzero"/></g><g fill="#000000" fill-opacity="1"><g transform="translate(1100.434291, 567.121947)"><g><path d="M 49.75 -187.015625 C 49.75 -183.421875 49.75 -179.820312 49.75 -176.21875 C 49.75 -172.625 49.75 -169.03125 49.75 -165.4375 C 49.75 -164.238281 49.695312 -163.085938 49.59375 -161.984375 C 49.5 -160.890625 49.453125 -159.84375 49.453125 -158.84375 C 49.453125 -154.25 49.5 -149.601562 49.59375 -144.90625 C 49.695312 -140.207031 49.75 -135.460938 49.75 -130.671875 C 49.75 -128.078125 49.695312 -125.476562 49.59375 -122.875 C 49.5 -120.28125 49.453125 -117.582031 49.453125 -114.78125 C 49.453125 -112.1875 49.5 -109.488281 49.59375 -106.6875 C 49.695312 -103.894531 49.847656 -101.097656 50.046875 -98.296875 C 50.046875 -96.304688 50.09375 -94.359375 50.1875 -92.453125 C 50.289062 -90.554688 50.34375 -88.609375 50.34375 -86.609375 C 50.34375 -81.210938 50.34375 -75.765625 50.34375 -70.265625 C 50.34375 -64.773438 50.242188 -59.234375 50.046875 -53.640625 C 50.046875 -51.441406 49.992188 -49.191406 49.890625 -46.890625 C 49.796875 -44.597656 49.648438 -42.351562 49.453125 -40.15625 C 49.453125 -38.957031 49.398438 -37.707031 49.296875 -36.40625 C 49.203125 -35.113281 49.15625 -33.867188 49.15625 -32.671875 C 48.957031 -27.671875 48.804688 -22.625 48.703125 -17.53125 C 48.597656 -12.4375 48.445312 -7.390625 48.25 -2.390625 C 48.25 -1.992188 48.195312 -1.59375 48.09375 -1.1875 C 48 -0.789062 47.953125 -0.394531 47.953125 0 C 47.347656 2 46.050781 3 44.0625 3 C 39.664062 3.195312 35.21875 3.296875 30.71875 3.296875 C 26.21875 3.296875 21.671875 3.296875 17.078125 3.296875 C 16.878906 3.296875 16.628906 3.296875 16.328125 3.296875 C 16.035156 3.296875 15.6875 3.296875 15.28125 3.296875 C 13.082031 3.097656 11.984375 2 11.984375 0 C 11.984375 -1 12.03125 -1.894531 12.125 -2.6875 C 12.226562 -3.488281 12.28125 -4.289062 12.28125 -5.09375 C 12.28125 -8.09375 12.332031 -11.140625 12.4375 -14.234375 C 12.539062 -17.328125 12.488281 -20.375 12.28125 -23.375 C 11.882812 -35.96875 11.882812 -48.457031 12.28125 -60.84375 C 12.6875 -67.03125 12.890625 -73.171875 12.890625 -79.265625 C 12.890625 -85.359375 12.890625 -91.40625 12.890625 -97.40625 C 13.085938 -105.59375 13.132812 -113.832031 13.03125 -122.125 C 12.9375 -130.414062 12.890625 -138.660156 12.890625 -146.859375 C 12.890625 -148.453125 12.835938 -150.097656 12.734375 -151.796875 C 12.640625 -153.492188 12.59375 -155.144531 12.59375 -156.75 C 12.59375 -160.738281 12.59375 -164.78125 12.59375 -168.875 C 12.59375 -172.976562 12.59375 -176.925781 12.59375 -180.71875 C 12.59375 -183.519531 12.539062 -186.367188 12.4375 -189.265625 C 12.332031 -192.160156 12.28125 -195.003906 12.28125 -197.796875 C 12.28125 -199.597656 12.332031 -201.394531 12.4375 -203.1875 C 12.539062 -204.988281 12.691406 -206.789062 12.890625 -208.59375 C 13.085938 -210.988281 14.382812 -212.285156 16.78125 -212.484375 C 18.175781 -212.691406 19.472656 -212.84375 20.671875 -212.9375 C 21.878906 -213.039062 23.179688 -213.09375 24.578125 -213.09375 C 26.773438 -213.09375 28.972656 -213.09375 31.171875 -213.09375 C 33.367188 -213.09375 35.46875 -213.09375 37.46875 -213.09375 C 38.46875 -213.09375 39.566406 -213.09375 40.765625 -213.09375 C 41.960938 -213.09375 43.160156 -213.191406 44.359375 -213.390625 C 47.753906 -213.585938 49.453125 -212.085938 49.453125 -208.890625 C 49.453125 -205.296875 49.453125 -201.648438 49.453125 -197.953125 C 49.453125 -194.253906 49.453125 -190.609375 49.453125 -187.015625 C 49.453125 -187.015625 49.550781 -187.015625 49.75 -187.015625 Z M 49.75 -187.015625 "/></g></g></g><g fill="#000000" fill-opacity="1"><g transform="translate(1162.773357, 567.121947)"><g><path d="M 57.546875 -28.765625 C 57.347656 -24.367188 57.144531 -19.921875 56.9375 -15.421875 C 56.738281 -10.929688 56.539062 -6.488281 56.34375 -2.09375 C 56.144531 2.101562 54.046875 4.203125 50.046875 4.203125 C 47.847656 4.203125 45.648438 4.203125 43.453125 4.203125 C 41.253906 4.203125 39.054688 4.203125 36.859375 4.203125 C 34.660156 3.992188 32.460938 3.789062 30.265625 3.59375 C 28.066406 3.394531 25.867188 3.296875 23.671875 3.296875 C 22.878906 3.097656 22.03125 3 21.125 3 C 20.226562 3 19.28125 3 18.28125 3 C 14.6875 3 12.988281 1.203125 13.1875 -2.390625 C 13.582031 -13.378906 13.929688 -24.367188 14.234375 -35.359375 C 14.535156 -46.347656 14.585938 -57.335938 14.390625 -68.328125 C 14.390625 -80.117188 14.390625 -91.859375 14.390625 -103.546875 C 14.390625 -115.234375 14.390625 -126.875 14.390625 -138.46875 C 14.191406 -142.257812 14.09375 -146.050781 14.09375 -149.84375 C 14.09375 -153.644531 13.890625 -157.441406 13.484375 -161.234375 C 13.484375 -163.640625 13.332031 -166.039062 13.03125 -168.4375 C 12.738281 -170.832031 12.488281 -173.226562 12.28125 -175.625 C 12.28125 -177.226562 12.226562 -178.878906 12.125 -180.578125 C 12.03125 -182.273438 12.082031 -183.921875 12.28125 -185.515625 C 12.488281 -188.910156 12.640625 -192.253906 12.734375 -195.546875 C 12.835938 -198.847656 12.988281 -202.195312 13.1875 -205.59375 C 13.382812 -209.59375 15.679688 -211.691406 20.078125 -211.890625 C 23.078125 -212.085938 26.070312 -212.132812 29.0625 -212.03125 C 32.0625 -211.9375 34.960938 -211.890625 37.765625 -211.890625 C 41.554688 -211.890625 45.25 -211.890625 48.84375 -211.890625 C 52.445312 -211.890625 56.046875 -211.789062 59.640625 -211.59375 C 64.429688 -211.394531 69.222656 -211.242188 74.015625 -211.140625 C 78.816406 -211.035156 83.71875 -210.882812 88.71875 -210.6875 C 89.707031 -210.6875 90.648438 -210.6875 91.546875 -210.6875 C 92.453125 -210.6875 93.304688 -210.6875 94.109375 -210.6875 C 95.898438 -210.6875 97.695312 -210.585938 99.5 -210.390625 C 101.300781 -210.191406 103.097656 -209.691406 104.890625 -208.890625 C 105.492188 -208.691406 106.09375 -208.539062 106.6875 -208.4375 C 107.289062 -208.34375 107.894531 -208.195312 108.5 -208 C 116.289062 -205.800781 122.582031 -201.601562 127.375 -195.40625 C 127.769531 -194.800781 128.21875 -194.25 128.71875 -193.75 C 129.21875 -193.257812 129.566406 -192.8125 129.765625 -192.40625 C 130.367188 -191.601562 130.921875 -190.851562 131.421875 -190.15625 C 131.921875 -189.457031 132.367188 -188.707031 132.765625 -187.90625 C 135.566406 -182.113281 137.816406 -176.117188 139.515625 -169.921875 C 141.210938 -163.734375 142.257812 -157.34375 142.65625 -150.75 C 143.257812 -143.5625 143.5625 -136.367188 143.5625 -129.171875 C 143.757812 -123.378906 143.15625 -117.734375 141.75 -112.234375 C 140.351562 -106.742188 138.554688 -101.398438 136.359375 -96.203125 C 135.359375 -93.609375 134.007812 -91.0625 132.3125 -88.5625 C 130.613281 -86.0625 128.867188 -83.613281 127.078125 -81.21875 C 126.273438 -80.019531 125.320312 -78.96875 124.21875 -78.0625 C 123.125 -77.164062 122.078125 -76.21875 121.078125 -75.21875 C 120.078125 -74.625 119.878906 -73.828125 120.484375 -72.828125 C 122.078125 -69.828125 123.671875 -66.828125 125.265625 -63.828125 C 126.867188 -60.835938 128.367188 -57.84375 129.765625 -54.84375 C 130.566406 -53.644531 131.21875 -52.394531 131.71875 -51.09375 C 132.21875 -49.800781 132.769531 -48.453125 133.375 -47.046875 C 134.96875 -43.453125 136.664062 -39.757812 138.46875 -35.96875 C 139.664062 -32.769531 140.863281 -29.671875 142.0625 -26.671875 C 143.257812 -23.671875 144.457031 -20.570312 145.65625 -17.375 C 146.050781 -16.582031 146.5 -15.835938 147 -15.140625 C 147.5 -14.441406 147.847656 -13.59375 148.046875 -12.59375 C 149.453125 -9.988281 150.550781 -7.488281 151.34375 -5.09375 C 151.75 -3.5 151.453125 -1.953125 150.453125 -0.453125 C 149.453125 1.046875 148.15625 1.992188 146.5625 2.390625 C 145.757812 2.597656 144.957031 2.703125 144.15625 2.703125 C 143.351562 2.703125 142.453125 2.800781 141.453125 3 C 137.054688 3 132.710938 3 128.421875 3 C 124.128906 3 119.785156 3 115.390625 3 C 114.585938 3 113.6875 3 112.6875 3 C 111.6875 3 110.6875 3 109.6875 3 C 108.09375 3.394531 106.992188 2.796875 106.390625 1.203125 C 106.390625 1.203125 106.191406 1 105.796875 0.59375 C 103.796875 -3.195312 101.695312 -6.941406 99.5 -10.640625 C 97.300781 -14.335938 95.203125 -18.082031 93.203125 -21.875 C 91.203125 -26.070312 89.253906 -30.269531 87.359375 -34.46875 C 85.460938 -38.664062 83.613281 -42.757812 81.8125 -46.75 C 81.019531 -48.75 80.125 -50.644531 79.125 -52.4375 C 78.125 -54.238281 77.125 -56.039062 76.125 -57.84375 C 75.925781 -59.039062 75.023438 -59.640625 73.421875 -59.640625 C 72.628906 -59.441406 71.679688 -59.289062 70.578125 -59.1875 C 69.484375 -59.09375 68.4375 -59.046875 67.4375 -59.046875 C 66.03125 -58.835938 64.726562 -58.679688 63.53125 -58.578125 C 62.332031 -58.484375 61.035156 -58.335938 59.640625 -58.140625 C 58.835938 -58.140625 58.335938 -58.039062 58.140625 -57.84375 C 57.941406 -57.644531 57.84375 -57.046875 57.84375 -56.046875 C 57.644531 -52.453125 57.546875 -48.804688 57.546875 -45.109375 C 57.546875 -41.410156 57.546875 -37.660156 57.546875 -33.859375 C 57.546875 -33.066406 57.546875 -32.269531 57.546875 -31.46875 C 57.546875 -30.664062 57.546875 -29.765625 57.546875 -28.765625 Z M 58.140625 -134.5625 C 58.335938 -134.5625 58.4375 -134.5625 58.4375 -134.5625 C 58.4375 -129.570312 58.484375 -124.578125 58.578125 -119.578125 C 58.679688 -114.585938 58.734375 -109.59375 58.734375 -104.59375 C 58.734375 -103.789062 58.679688 -102.988281 58.578125 -102.1875 C 58.484375 -101.394531 58.535156 -100.5 58.734375 -99.5 C 58.734375 -98.300781 59.4375 -97.703125 60.84375 -97.703125 C 63.4375 -97.703125 66.03125 -97.75 68.625 -97.84375 C 71.226562 -97.945312 73.726562 -98.203125 76.125 -98.609375 C 79.914062 -99.203125 83.410156 -100.097656 86.609375 -101.296875 C 89.410156 -102.097656 91.609375 -104.097656 93.203125 -107.296875 C 93.398438 -108.691406 94 -109.988281 95 -111.1875 C 96 -113.582031 97 -116.078125 98 -118.671875 C 99 -121.273438 99.597656 -123.976562 99.796875 -126.78125 C 100.398438 -130.769531 100.703125 -134.710938 100.703125 -138.609375 C 100.703125 -142.503906 100.601562 -146.351562 100.40625 -150.15625 C 100.40625 -154.550781 99.304688 -158.945312 97.109375 -163.34375 C 96.304688 -165.539062 94.804688 -167.140625 92.609375 -168.140625 C 90.609375 -169.128906 88.410156 -169.925781 86.015625 -170.53125 C 83.617188 -171.132812 81.222656 -171.4375 78.828125 -171.4375 C 75.628906 -171.4375 72.476562 -171.382812 69.375 -171.28125 C 66.28125 -171.175781 63.132812 -171.125 59.9375 -171.125 C 58.9375 -171.125 58.335938 -171.023438 58.140625 -170.828125 C 57.941406 -170.628906 57.84375 -170.03125 57.84375 -169.03125 C 57.84375 -163.4375 57.890625 -157.742188 57.984375 -151.953125 C 58.085938 -146.160156 58.140625 -140.363281 58.140625 -134.5625 Z M 58.140625 -134.5625 "/></g></g></g><g fill="#000000" fill-opacity="1"><g transform="translate(1326.413344, 567.121947)"><g><path d="M 147.75 2.703125 C 146.550781 2.898438 145.300781 3 144 3 C 142.707031 3 141.363281 3.097656 139.96875 3.296875 C 139.363281 3.296875 138.757812 3.34375 138.15625 3.4375 C 137.5625 3.539062 136.960938 3.59375 136.359375 3.59375 C 134.566406 3.789062 132.769531 3.941406 130.96875 4.046875 C 129.164062 4.148438 127.269531 4.300781 125.28125 4.5 C 123.875 4.695312 122.519531 4.695312 121.21875 4.5 C 119.925781 4.300781 118.679688 3.800781 117.484375 3 C 116.484375 2.394531 115.582031 1.59375 114.78125 0.59375 C 113.382812 -2.394531 112.085938 -5.390625 110.890625 -8.390625 C 109.691406 -11.390625 108.789062 -14.488281 108.1875 -17.6875 C 107.988281 -18.6875 107.789062 -19.632812 107.59375 -20.53125 C 107.394531 -21.425781 107.296875 -22.273438 107.296875 -23.078125 C 106.890625 -24.273438 106.191406 -24.773438 105.203125 -24.578125 C 103.203125 -24.578125 101.148438 -24.578125 99.046875 -24.578125 C 96.953125 -24.578125 94.804688 -24.476562 92.609375 -24.28125 C 90.410156 -24.070312 88.210938 -23.867188 86.015625 -23.671875 C 83.816406 -23.472656 81.617188 -23.273438 79.421875 -23.078125 C 76.828125 -22.878906 74.179688 -22.78125 71.484375 -22.78125 C 68.785156 -22.78125 66.035156 -22.78125 63.234375 -22.78125 C 61.441406 -22.78125 60.394531 -22.78125 60.09375 -22.78125 C 59.789062 -22.78125 59.441406 -21.679688 59.046875 -19.484375 C 58.835938 -17.484375 58.484375 -15.535156 57.984375 -13.640625 C 57.492188 -11.742188 56.75 -9.894531 55.75 -8.09375 C 55.34375 -7.09375 54.890625 -6.039062 54.390625 -4.9375 C 53.890625 -3.84375 53.441406 -2.796875 53.046875 -1.796875 C 52.441406 0.203125 51.144531 1.203125 49.15625 1.203125 C 47.957031 1.398438 46.804688 1.546875 45.703125 1.640625 C 44.609375 1.742188 43.460938 1.796875 42.265625 1.796875 C 38.460938 1.992188 34.613281 2.191406 30.71875 2.390625 C 26.820312 2.597656 22.875 2.800781 18.875 3 C 17.675781 3 16.523438 2.945312 15.421875 2.84375 C 14.328125 2.75 13.28125 2.597656 12.28125 2.390625 C 11.488281 2.390625 10.492188 1.992188 9.296875 1.203125 C 6.492188 -0.398438 5.59375 -2.898438 6.59375 -6.296875 C 7.59375 -9.691406 8.59375 -13.1875 9.59375 -16.78125 C 10.59375 -20.375 11.488281 -23.867188 12.28125 -27.265625 C 13.082031 -29.460938 13.832031 -31.710938 14.53125 -34.015625 C 15.226562 -36.316406 15.976562 -38.460938 16.78125 -40.453125 C 18.582031 -46.847656 20.082031 -53.242188 21.28125 -59.640625 C 22.476562 -66.628906 23.976562 -73.523438 25.78125 -80.328125 C 27.175781 -85.117188 28.570312 -89.910156 29.96875 -94.703125 C 31.363281 -99.503906 32.765625 -104.398438 34.171875 -109.390625 C 35.566406 -113.984375 36.910156 -118.476562 38.203125 -122.875 C 39.503906 -127.269531 40.859375 -131.664062 42.265625 -136.0625 C 43.859375 -141.851562 45.503906 -147.695312 47.203125 -153.59375 C 48.898438 -159.488281 50.546875 -165.332031 52.140625 -171.125 C 52.546875 -172.125 52.894531 -173.222656 53.1875 -174.421875 C 53.488281 -175.617188 53.742188 -176.820312 53.953125 -178.03125 C 54.941406 -181.625 55.835938 -185.164062 56.640625 -188.65625 C 57.441406 -192.15625 58.34375 -195.703125 59.34375 -199.296875 C 59.738281 -200.296875 60.1875 -201.34375 60.6875 -202.4375 C 61.1875 -203.539062 61.738281 -204.59375 62.34375 -205.59375 C 62.9375 -207.195312 64.035156 -208 65.640625 -208 C 67.035156 -208.195312 68.378906 -208.34375 69.671875 -208.4375 C 70.972656 -208.539062 72.328125 -208.691406 73.734375 -208.890625 C 76.328125 -209.296875 78.867188 -209.695312 81.359375 -210.09375 C 83.859375 -210.488281 86.3125 -210.785156 88.71875 -210.984375 C 89.707031 -211.191406 90.75 -211.34375 91.84375 -211.4375 C 92.945312 -211.539062 94 -211.492188 95 -211.296875 C 96 -211.085938 96.945312 -210.929688 97.84375 -210.828125 C 98.75 -210.734375 99.601562 -210.785156 100.40625 -210.984375 C 103.601562 -211.191406 105.597656 -209.695312 106.390625 -206.5 C 106.992188 -204.5 107.546875 -202.546875 108.046875 -200.640625 C 108.546875 -198.742188 108.992188 -196.800781 109.390625 -194.8125 C 109.585938 -194.40625 109.6875 -193.953125 109.6875 -193.453125 C 109.6875 -192.953125 109.785156 -192.503906 109.984375 -192.109375 C 110.984375 -189.515625 111.78125 -186.867188 112.375 -184.171875 C 112.976562 -181.472656 113.582031 -178.722656 114.1875 -175.921875 C 114.582031 -173.523438 115.128906 -171.175781 115.828125 -168.875 C 116.535156 -166.582031 117.1875 -164.238281 117.78125 -161.84375 C 118.976562 -158.039062 120.226562 -154.289062 121.53125 -150.59375 C 122.832031 -146.90625 123.976562 -143.0625 124.96875 -139.0625 C 125.96875 -136.0625 126.914062 -132.960938 127.8125 -129.765625 C 128.71875 -126.566406 129.570312 -123.375 130.375 -120.1875 C 132.164062 -112.988281 134.007812 -105.742188 135.90625 -98.453125 C 137.8125 -91.160156 139.765625 -83.914062 141.765625 -76.71875 C 142.765625 -72.925781 143.8125 -69.03125 144.90625 -65.03125 C 146.007812 -61.039062 146.957031 -57.046875 147.75 -53.046875 C 148.15625 -50.847656 148.601562 -48.550781 149.09375 -46.15625 C 149.59375 -43.757812 149.945312 -41.460938 150.15625 -39.265625 C 150.550781 -37.859375 150.898438 -36.554688 151.203125 -35.359375 C 151.503906 -34.160156 151.753906 -32.863281 151.953125 -31.46875 C 152.347656 -29.664062 152.742188 -27.816406 153.140625 -25.921875 C 153.546875 -24.023438 153.945312 -22.078125 154.34375 -20.078125 C 154.75 -18.679688 155.195312 -17.179688 155.6875 -15.578125 C 156.1875 -13.984375 156.640625 -12.390625 157.046875 -10.796875 C 157.441406 -9.796875 157.789062 -8.742188 158.09375 -7.640625 C 158.394531 -6.546875 158.644531 -5.5 158.84375 -4.5 C 159.039062 -3.09375 158.640625 -1.738281 157.640625 -0.4375 C 156.640625 0.851562 155.441406 1.695312 154.046875 2.09375 C 153.046875 2.289062 151.992188 2.488281 150.890625 2.6875 C 149.796875 2.894531 148.75 2.898438 147.75 2.703125 Z M 83.015625 -129.171875 C 83.015625 -129.171875 82.960938 -129.171875 82.859375 -129.171875 C 82.765625 -129.171875 82.617188 -129.171875 82.421875 -129.171875 C 82.222656 -128.367188 81.972656 -127.414062 81.671875 -126.3125 C 81.367188 -125.21875 81.117188 -124.171875 80.921875 -123.171875 C 79.722656 -117.785156 78.523438 -112.34375 77.328125 -106.84375 C 76.128906 -101.351562 75.03125 -95.804688 74.03125 -90.203125 C 73.425781 -87.410156 72.875 -84.566406 72.375 -81.671875 C 71.875 -78.773438 71.425781 -75.925781 71.03125 -73.125 C 70.832031 -71.925781 71.332031 -71.328125 72.53125 -71.328125 C 73.726562 -71.328125 74.875 -71.328125 75.96875 -71.328125 C 77.070312 -71.328125 78.222656 -71.328125 79.421875 -71.328125 C 82.210938 -71.722656 85.054688 -71.972656 87.953125 -72.078125 C 90.859375 -72.179688 93.707031 -72.429688 96.5 -72.828125 C 98.101562 -73.023438 99.003906 -73.273438 99.203125 -73.578125 C 99.398438 -73.878906 99.300781 -74.726562 98.90625 -76.125 C 98.707031 -76.519531 98.609375 -76.816406 98.609375 -77.015625 C 98.609375 -77.222656 98.503906 -77.425781 98.296875 -77.625 C 98.097656 -79.019531 97.75 -80.316406 97.25 -81.515625 C 96.75 -82.710938 96.300781 -84.015625 95.90625 -85.421875 C 95.101562 -89.410156 94.203125 -93.503906 93.203125 -97.703125 C 92.203125 -101.898438 91.003906 -105.894531 89.609375 -109.6875 C 88.804688 -111.882812 88.054688 -114.03125 87.359375 -116.125 C 86.660156 -118.226562 85.910156 -120.378906 85.109375 -122.578125 C 84.710938 -123.578125 84.363281 -124.675781 84.0625 -125.875 C 83.757812 -127.070312 83.410156 -128.171875 83.015625 -129.171875 Z M 83.015625 -129.171875 "/></g></g></g><g clip-path="url(#4f32228f00)"><path fill="#eed687" d="M 1928.535156 3076.285156 C 1927.164062 3154.285156 1937.5625 3231.984375 1936.140625 3310.105469 C 1935.664062 3336.105469 1927.355469 3359.628906 1922.171875 3384.203125 C 1920.5 3392.128906 1914.632812 3396.382812 1907.777344 3399.871094 C 1899.964844 3403.867188 1891.671875 3404.757812 1883.148438 3404.472656 C 1801.910156 3401.734375 1720.988281 3409.945312 1639.878906 3412.105469 C 1536.722656 3414.84375 1433.578125 3420.207031 1330.503906 3425.53125 C 1288.417969 3427.707031 1246.355469 3429.101562 1204.253906 3430.320312 C 1123.140625 3432.675781 1041.902344 3433.058594 960.96875 3438.039062 C 915.679688 3440.773438 870.414062 3440.773438 825.246094 3443.292969 C 799.25 3444.757812 785.566406 3426.378906 783.460938 3405.921875 C 782.734375 3397.492188 782.734375 3389.0625 783.460938 3380.632812 C 788.933594 3305.042969 794.761719 3229.492188 800.113281 3153.902344 C 802.929688 3113.96875 804.421875 3073.902344 806.105469 3033.988281 C 809.636719 2950.816406 816.054688 2867.847656 822.140625 2784.9375 C 824.753906 2749.355469 824.003906 2713.285156 831.828125 2678.089844 C 832.816406 2673.644531 834.183594 2668.277344 827.945312 2661.667969 C 812.507812 2702.132812 797.839844 2741.285156 782.679688 2780.214844 C 734.3125 2903.917969 693.617188 3030.183594 657.371094 3157.898438 C 653.277344 3172.09375 650.429688 3186.535156 648.820312 3201.21875 C 646.082031 3227.917969 639.433594 3253.371094 612.230469 3266.90625 C 606.839844 3272.992188 600.21875 3274.894531 592.445312 3272.570312 C 531.84375 3254.4375 468.164062 3256.148438 406.671875 3243.683594 C 396.519531 3241.628906 385.585938 3242.121094 377.789062 3233.515625 C 368.210938 3220.050781 366.046875 3206.394531 368.730469 3189.152344 C 377.28125 3134.183594 382.414062 3078.707031 389.816406 3023.574219 C 417.988281 2812.03125 472.433594 2607.21875 550.21875 2408.675781 C 571.003906 2355.625 599.355469 2306.046875 633.535156 2260.3125 C 659.109375 2226.035156 693.414062 2201.183594 728.496094 2177.882812 C 758.269531 2158.121094 789.496094 2140.511719 820.335938 2122.390625 C 857.390625 2100.632812 899.054688 2093.738281 940.429688 2086.089844 C 959.382812 2075.8125 972.75 2087.675781 986.609375 2097.679688 C 988.59375 2100.460938 989.898438 2103.53125 990.523438 2106.886719 C 965.484375 2209.902344 1074.824219 2335.003906 1154.035156 2367.40625 C 1230.496094 2398.6875 1308.914062 2406.527344 1389.027344 2384.511719 C 1475.875 2360.660156 1535.613281 2304.296875 1573.636719 2224.230469 C 1593.175781 2183.082031 1602.25 2138.484375 1612.441406 2094.230469 C 1616.136719 2078.179688 1617.027344 2056.886719 1642.546875 2057.171875 C 1644.542969 2062.359375 1647.800781 2066.054688 1653.492188 2067.328125 C 1687.699219 2074.894531 1718.664062 2091.152344 1751.269531 2103.015625 C 1818.835938 2127.648438 1868.464844 2175.089844 1914.097656 2228.910156 C 1977.875 2304.171875 2019.113281 2391.023438 2051.488281 2482.96875 C 2087.859375 2586.242188 2119.480469 2690.871094 2148.253906 2796.582031 C 2182.558594 2922.585938 2207.652344 3050.460938 2234.867188 3177.972656 C 2237.003906 3188 2243.679688 3199.003906 2226.851562 3202.671875 C 2175.523438 3217.914062 2122.707031 3227.617188 2072.4375 3247.0625 C 2051.832031 3255.027344 2031.40625 3263.355469 2011.164062 3272.050781 C 1997.878906 3261.171875 1997.003906 3244.570312 1992.5 3229.929688 C 1972.851562 3166.039062 1953.902344 3101.929688 1934.691406 3037.886719 C 1924.988281 3023.613281 1922.5 3007.617188 1919.640625 2991.210938 C 1933.636719 3018.730469 1921.007812 3048.09375 1928.535156 3076.285156 Z M 1928.535156 3076.285156 " fill-opacity="1" fill-rule="nonzero"/></g><path fill="#f1d1bd" d="M 985.804688 2105.65625 C 985.394531 2103.550781 984.984375 2101.457031 984.558594 2099.347656 C 976.265625 2089.769531 977.59375 2077.632812 975.664062 2066.382812 C 960.464844 1977.710938 921.261719 1903.226562 847.042969 1849.640625 C 801.355469 1816.632812 751.523438 1801.59375 695.246094 1816.195312 C 636.847656 1813.855469 593.226562 1781.507812 573.714844 1726.183594 C 577.574219 1716.371094 580.417969 1706.464844 579.5 1695.640625 C 577.050781 1666.902344 584.976562 1641.558594 605.390625 1620.621094 C 609.277344 1616.613281 610.519531 1611.578125 611.425781 1606.363281 C 663.417969 1607.15625 670.152344 1612.070312 681.316406 1658.035156 C 686.285156 1678.480469 692.042969 1698.703125 699.992188 1718.175781 C 703.867188 1727.648438 707.765625 1740.90625 720.246094 1738.800781 C 734.203125 1736.433594 730.082031 1722.378906 729.988281 1712.484375 C 729.386719 1648.441406 726.992188 1584.359375 736.101562 1520.632812 C 745.214844 1456.90625 757.652344 1394.425781 785.363281 1335.898438 C 804.792969 1333.160156 797.800781 1306.328125 815.902344 1302.222656 C 864.09375 1306.722656 912.585938 1303.929688 960.792969 1310.5 C 1003.207031 1316.273438 1006.753906 1312.085938 1017.480469 1271.609375 C 1021.804688 1255.285156 1026.605469 1239.027344 1034.160156 1223.921875 C 1039.632812 1212.972656 1044.984375 1196.675781 1059.980469 1201.4375 C 1072.292969 1205.335938 1069.558594 1221.058594 1067.886719 1232.417969 C 1065.164062 1250.152344 1063.832031 1267.992188 1063.894531 1285.9375 C 1063.894531 1302.878906 1071.707031 1309.554688 1088.523438 1311.828125 C 1162.027344 1321.777344 1235.847656 1316.589844 1309.53125 1317.917969 C 1327.453125 1318.246094 1336.609375 1310.773438 1338.375 1292.382812 C 1340.070312 1274.59375 1341.765625 1256.433594 1348.539062 1239.765625 C 1355.832031 1221.839844 1367.339844 1220.71875 1378.492188 1236.386719 C 1389.191406 1251.4375 1392.011719 1269.449219 1394.242188 1287.25 C 1396.976562 1308.789062 1408.226562 1318.722656 1430.160156 1317.984375 C 1493.292969 1315.878906 1556.628906 1322.5 1619.597656 1313.511719 C 1642.09375 1310.292969 1658.582031 1318.066406 1668.996094 1338.714844 C 1690.984375 1382.285156 1703.339844 1429.292969 1717.761719 1475.558594 C 1723.546875 1494.128906 1713.65625 1508.015625 1699.808594 1519.523438 C 1685.414062 1531.511719 1670.855469 1529.515625 1656.023438 1520.386719 C 1643.460938 1512.65625 1631.160156 1504.457031 1617.847656 1498 C 1530.578125 1455.578125 1429.886719 1498.589844 1400.289062 1591.050781 C 1397.550781 1599.617188 1391.339844 1609.019531 1403.285156 1615.996094 C 1415.078125 1630.734375 1410.453125 1650.441406 1418.460938 1666.382812 C 1424.4375 1678.289062 1426.585938 1692.699219 1440.542969 1699.226562 C 1467.800781 1730.574219 1499.148438 1749.679688 1543.605469 1750.664062 C 1597.992188 1751.882812 1636.648438 1730.453125 1665.585938 1686.828125 C 1668.503906 1682.433594 1671.375 1678.027344 1675.644531 1674.851562 C 1691.378906 1662.113281 1687.382812 1641.53125 1695.035156 1625.589844 C 1699.742188 1612.414062 1699 1598.757812 1698.386719 1585.222656 C 1697.796875 1572.195312 1701.3125 1562.984375 1715.488281 1559.769531 C 1729.980469 1556.5 1740.117188 1561.261719 1746.070312 1574.5625 C 1754.28125 1592.75 1759.300781 1611.933594 1763.257812 1631.378906 C 1764.226562 1636.179688 1764.554688 1641.023438 1764.242188 1645.910156 C 1765.023438 1641.09375 1764.417969 1636.332031 1764.324219 1631.363281 C 1763.761719 1622.773438 1766.335938 1614.738281 1768.25 1606.597656 C 1781.933594 1548.835938 1811.777344 1531.335938 1869.230469 1547.097656 C 1883.378906 1551 1896.898438 1556.675781 1910.800781 1561.289062 C 1923.347656 1590.710938 1934.402344 1620.636719 1940.546875 1652.152344 C 1931.203125 1718.339844 1905.96875 1773.226562 1837.417969 1797.355469 C 1829.207031 1800.253906 1823.339844 1806.34375 1817.425781 1812.40625 C 1811.953125 1817.621094 1805.359375 1820.847656 1798.382812 1823.421875 C 1670.609375 1870.398438 1593.136719 1963 1556.726562 2091.902344 C 1552.019531 2108.585938 1541.359375 2116.808594 1526.734375 2121.132812 C 1496.847656 2129.960938 1480.746094 2148.777344 1470.496094 2178.960938 C 1426.082031 2309.808594 1264.59375 2348.742188 1163.339844 2254.226562 C 1136.261719 2228.964844 1109.046875 2203.675781 1103.136719 2163.910156 C 1100.398438 2145.683594 1084.757812 2142.90625 1070.296875 2138.964844 C 1040.945312 2130.863281 1010.007812 2126.757812 985.804688 2105.65625 Z M 985.804688 2105.65625 " fill-opacity="1" fill-rule="nonzero"/><path fill="#822e20" d="M 793.980469 1331.449219 C 761.511719 1413.308594 742.601562 1498.175781 739.25 1586.179688 C 737.539062 1631.433594 736.007812 1676.808594 740.753906 1722.050781 C 742.125 1735.445312 741.097656 1747.898438 725.828125 1752.949219 C 713.402344 1757.054688 702.648438 1750.390625 695.273438 1732.328125 C 682.957031 1702.070312 672.695312 1671.007812 667.824219 1638.5625 C 665.8125 1625.167969 661.148438 1616.75 645.78125 1618.832031 C 632.277344 1620.664062 621.414062 1614.535156 611.410156 1606.363281 C 592.773438 1565.613281 593.074219 1522.246094 595.457031 1479.101562 C 601.09375 1376.636719 637.667969 1283.992188 689.035156 1196.59375 C 776.015625 1048.558594 909.820312 969.4375 1074.15625 934.078125 C 1190.597656 909.046875 1304.683594 922.035156 1418.707031 948.953125 C 1476.269531 962.527344 1533.09375 977.6875 1586.128906 1004.5625 C 1707.171875 1065.785156 1804.320312 1151.078125 1862.785156 1276.261719 C 1888.6875 1331.804688 1900.347656 1390.304688 1902.917969 1450.789062 C 1904.492188 1487.738281 1906.09375 1524.503906 1910.703125 1561.152344 C 1901.125 1574.492188 1892.355469 1563.300781 1883.789062 1559.894531 C 1857.957031 1549.617188 1832.535156 1545.347656 1805.398438 1556.71875 C 1793.851562 1561.5625 1785.957031 1566.625 1783.382812 1579.476562 C 1779.527344 1598.796875 1774.558594 1617.898438 1770.070312 1637.085938 C 1766.144531 1640.984375 1762.175781 1640.945312 1758.167969 1637.207031 C 1753.257812 1621.226562 1748.351562 1605.261719 1743.445312 1589.3125 C 1735.054688 1561.945312 1735.054688 1561.945312 1705.132812 1570.003906 C 1706.949219 1590.257812 1712.972656 1611.179688 1701.027344 1630.613281 C 1679.132812 1628.765625 1681.28125 1608.8125 1676.027344 1595.664062 C 1649.6875 1529.597656 1571.148438 1491.292969 1505.113281 1514.503906 C 1468.523438 1527.367188 1445.238281 1556.171875 1424.710938 1587.398438 C 1417.871094 1597.730469 1415.421875 1611.332031 1402.136719 1616.65625 C 1400.316406 1619.132812 1398.632812 1621.757812 1396.664062 1624.058594 C 1394.691406 1626.355469 1392.476562 1629.667969 1390.203125 1629.820312 C 1385.347656 1630.132812 1382.84375 1626.191406 1383.101562 1621.609375 C 1383.445312 1615.367188 1383.566406 1608.828125 1385.484375 1602.984375 C 1429.269531 1469.03125 1550.71875 1441.265625 1645.871094 1503.089844 C 1650.289062 1505.964844 1654.859375 1508.644531 1659.0625 1511.808594 C 1668.980469 1519.265625 1677.449219 1529.773438 1691.789062 1517.898438 C 1707.785156 1504.636719 1714.519531 1491.402344 1709.140625 1475.40625 C 1695.457031 1434.519531 1685.113281 1392.414062 1667.023438 1353.042969 C 1651.589844 1319.449219 1651.425781 1320.050781 1615.164062 1323.0625 C 1541.578125 1329.164062 1467.855469 1326.128906 1393.324219 1326.988281 C 1381.132812 1294.488281 1388.820312 1256.679688 1361.949219 1227.5625 C 1349.058594 1251.632812 1349.402344 1275.851562 1347.8125 1299.429688 C 1345.980469 1326.6875 1346.582031 1327.058594 1320.121094 1326.894531 C 1238.964844 1326.375 1157.796875 1326.894531 1076.699219 1321.816406 C 1060.582031 1320.816406 1054.011719 1316.234375 1055.21875 1299.730469 C 1056.847656 1277.726562 1054.765625 1255.570312 1058.9375 1233.554688 C 1060.800781 1223.769531 1064.25 1213.261719 1059.636719 1202.96875 C 1048.949219 1202.410156 1048.472656 1211.589844 1045.75 1217.652344 C 1033.667969 1244.625 1023.417969 1272.390625 1019.96875 1301.839844 C 1018.246094 1316.5625 1012.253906 1321.144531 997.613281 1320.132812 C 939.828125 1316.136719 881.976562 1313.140625 824.152344 1309.800781 C 818.914062 1309.5 813.671875 1309.515625 808.429688 1309.390625 C 803.191406 1316.464844 802.054688 1326.238281 793.980469 1331.449219 Z M 793.980469 1331.449219 " fill-opacity="1" fill-rule="nonzero"/><path fill="#d38672" d="M 985.804688 2105.65625 C 1022.089844 2115.933594 1057.460938 2129.425781 1094.570312 2136.828125 C 1107.144531 2139.332031 1111.6875 2147.3125 1111.851562 2159.394531 C 1112.195312 2185.285156 1125 2205.304688 1142.488281 2223.105469 C 1168.402344 2249.519531 1194.988281 2274.382812 1231.34375 2286.765625 C 1332.597656 2321.222656 1432.582031 2270.617188 1463.433594 2176.445312 C 1464.078125 2174.445312 1465.472656 2172.585938 1465.691406 2170.558594 C 1469.238281 2139.195312 1487.996094 2122.226562 1517.6875 2116 C 1540.128906 2111.292969 1549.953125 2099.949219 1551.15625 2075.074219 C 1552.414062 2048.800781 1568.945312 2025.890625 1581.753906 2002.945312 C 1623.609375 1927.679688 1679.558594 1866.28125 1759.164062 1829.648438 C 1777.226562 1821.328125 1796.398438 1815.402344 1815.046875 1808.382812 C 1823.640625 1820.699219 1816.183594 1832.386719 1813.898438 1844.304688 C 1811.96875 1850.597656 1806.835938 1854.457031 1802.675781 1859.054688 C 1783.191406 1924.273438 1746.796875 1978.269531 1694.71875 2021.894531 C 1678.558594 2035.429688 1660.839844 2046.609375 1642.546875 2057.007812 C 1624.757812 2063.988281 1622.597656 2080.558594 1619.871094 2095.804688 C 1611.882812 2140.46875 1600.496094 2184.082031 1581.847656 2225.53125 C 1544.34375 2308.757812 1482.769531 2365.328125 1394.816406 2391.4375 C 1312.910156 2415.753906 1232.207031 2408.457031 1154.160156 2376.207031 C 1098.195312 2353.078125 1055.640625 2312.476562 1022.609375 2262.1875 C 1008.214844 2240.292969 995.503906 2217.304688 986.925781 2192.058594 C 977.074219 2163.0625 975.132812 2134.613281 985.804688 2105.65625 Z M 985.804688 2105.65625 " fill-opacity="1" fill-rule="nonzero"/><path fill="#822e20" d="M 1809.148438 1845.519531 C 1811.109375 1833.132812 1813.070312 1820.75 1815.03125 1808.367188 C 1817.167969 1800.160156 1819.136719 1792.222656 1829.414062 1790.140625 C 1881.914062 1779.453125 1905.410156 1740.03125 1924.113281 1695.285156 C 1930.078125 1681.011719 1929.683594 1664.398438 1940.449219 1652.015625 C 1969.609375 1739.496094 2017.226562 1815.582031 2081.550781 1881.375 C 2102.921875 1903.269531 2125.253906 1924.179688 2145.996094 1946.59375 C 2163.785156 1965.75 2160.898438 1980.214844 2136.898438 1990.476562 C 2083.535156 2013.371094 2034.6875 2044.515625 1985.179688 2074.292969 C 1953.488281 2093.234375 1920.230469 2108.832031 1885.40625 2121.09375 C 1851.195312 2133.285156 1837.199219 2126.90625 1832.398438 2091.4375 C 1825.035156 2037.207031 1820.65625 1982.566406 1815.5 1928.050781 C 1813.308594 1905.007812 1814.375 1881.660156 1808.984375 1858.90625 C 1804.730469 1854.445312 1805.289062 1849.941406 1809.148438 1845.519531 Z M 1809.148438 1845.519531 " fill-opacity="1" fill-rule="nonzero"/><path fill="#822e20" d="M 573.726562 1726.183594 C 583.304688 1726.878906 583.550781 1735.5 587.09375 1741.605469 C 610.875 1782.65625 644.851562 1807.507812 693.824219 1808.34375 C 699.023438 1811.789062 704.945312 1814.9375 706.820312 1821.246094 C 719.300781 1863.160156 733.214844 1904.292969 759.679688 1940.078125 C 765.769531 1948.289062 762.8125 1958.03125 758.066406 1966.667969 C 754.4375 2006.582031 749.335938 2046.335938 738.742188 2085.046875 C 727.347656 2126.675781 710.367188 2136.308594 669.425781 2126.101562 C 596.90625 2107.929688 525.589844 2085.964844 458.421875 2052.207031 C 403.523438 2024.675781 400.023438 2009.910156 436.007812 1961.34375 C 460.472656 1928.320312 484.433594 1894.917969 507.886719 1861.136719 C 536.785156 1819.617188 562.628906 1776.445312 573.726562 1726.183594 Z M 573.726562 1726.183594 " fill-opacity="1" fill-rule="nonzero"/><g clip-path="url(#3697955a52)"><path fill="#f1d1bd" d="M 377.828125 3233.363281 C 427.167969 3234.609375 475.292969 3247.1875 524.414062 3249.636719 C 554.75 3251.140625 582.757812 3262.335938 612.273438 3266.742188 C 612.75 3281.257812 622.082031 3292.152344 628.335938 3304.070312 C 642.609375 3331.289062 646.125 3360.175781 643.25 3389.992188 C 639.980469 3423.683594 623.410156 3439.570312 591.71875 3438.957031 C 582.855469 3438.777344 581.949219 3442.664062 579.5 3449.039062 C 569.457031 3475.191406 567.542969 3473.671875 540.382812 3471.113281 C 514.765625 3468.703125 492.054688 3457.867188 467.628906 3452.394531 C 452.375 3448.984375 438.609375 3444.921875 421.914062 3448.015625 C 400.023438 3452.121094 383.78125 3437.476562 372.65625 3419.878906 C 359.574219 3399.214844 351.007812 3376.71875 351.53125 3351.457031 C 352.363281 3310.226562 354.839844 3269.546875 377.828125 3233.363281 Z M 377.828125 3233.363281 " fill-opacity="1" fill-rule="nonzero"/></g><g clip-path="url(#e7b6b25316)"><path fill="#f1d1bd" d="M 2011.152344 3271.941406 C 2013.273438 3255.929688 2027.570312 3252.6875 2038.667969 3249.390625 C 2081.917969 3236.566406 2123.503906 3218.421875 2167.589844 3208.335938 C 2187.25 3203.863281 2206.722656 3200.714844 2226.835938 3202.535156 C 2231.886719 3221.132812 2247.359375 3233.488281 2255.105469 3250.894531 C 2266.460938 3276.457031 2272.496094 3302.046875 2271.949219 3330.070312 C 2271.511719 3351.964844 2263.984375 3370.699219 2246.347656 3381.398438 C 2223.796875 3395.082031 2202.945312 3412.132812 2172.71875 3412.066406 C 2151.332031 3412.066406 2129.523438 3417.648438 2107.425781 3417.539062 C 2088.964844 3417.539062 2076.378906 3408.480469 2070.835938 3393.003906 C 2066.511719 3380.894531 2063.804688 3372.683594 2048.617188 3372.476562 C 2032.714844 3372.257812 2026.105469 3358.792969 2020.304688 3346.175781 C 2009.398438 3322.488281 2010.726562 3297.144531 2011.152344 3271.941406 Z M 2011.152344 3271.941406 " fill-opacity="1" fill-rule="nonzero"/></g><path fill="#d38672" d="M 758.0625 1966.652344 C 755.328125 1958.839844 759.269531 1949.671875 752.988281 1942.5 C 722.132812 1907.238281 710.886719 1863.367188 699.089844 1819.699219 C 698.023438 1815.71875 695.617188 1812.105469 693.824219 1808.328125 C 769.542969 1786.816406 829.816406 1818.578125 881.992188 1867.730469 C 947.984375 1929.882812 984.175781 2007.171875 984.613281 2099.335938 C 968.824219 2098.402344 956.742188 2085.347656 940.511719 2085.910156 C 922.164062 2069.707031 899.464844 2060.457031 879.199219 2047.265625 C 843.789062 2024.207031 808.417969 2001.21875 778.453125 1971.019531 C 772.625 1965.148438 767.148438 1957.183594 758.0625 1966.652344 Z M 758.0625 1966.652344 " fill-opacity="1" fill-rule="nonzero"/><path fill="#fcf8ec" d="M 1928.535156 3076.285156 C 1917.054688 3047.710938 1926.945312 3016.636719 1916.617188 2987.777344 C 1928.726562 3002.734375 1931.667969 3020.289062 1934.691406 3037.777344 C 1924.058594 3049.246094 1931.859375 3063.652344 1928.535156 3076.285156 Z M 1928.535156 3076.285156 " fill-opacity="1" fill-rule="nonzero"/><path fill="#f2dfd8" d="M 1809.148438 1845.519531 L 1808.984375 1858.90625 C 1806.878906 1858.90625 1804.769531 1858.988281 1802.664062 1859.054688 C 1802.15625 1853.265625 1802.703125 1847.984375 1809.148438 1845.519531 Z M 1809.148438 1845.519531 " fill-opacity="1" fill-rule="nonzero"/><path fill="#d38672" d="M 1156.308594 2831.707031 C 1155.925781 2802 1158.90625 2776.070312 1161.972656 2750.097656 C 1163.910156 2734.390625 1167.824219 2719.191406 1173.710938 2704.5 C 1186.628906 2671.480469 1212.023438 2654.101562 1246.011719 2651.707031 C 1280 2649.3125 1304.097656 2668.238281 1321.089844 2695.742188 C 1342.65625 2730.636719 1348.566406 2770.335938 1352.5625 2810.292969 C 1353.300781 2817.628906 1353.179688 2825.042969 1353.289062 2832.421875 C 1353.507812 2846.570312 1360.511719 2852.195312 1374.703125 2853.945312 C 1418.488281 2859.417969 1461.972656 2866.988281 1502.734375 2885.5 C 1558.3125 2910.734375 1579.359375 2967.125 1550.488281 3015.5 C 1536.695312 3038.542969 1514.800781 3050.148438 1489.527344 3056.8125 C 1458.140625 3065.023438 1459.578125 3065.117188 1463.929688 3097.316406 C 1469.019531 3134.933594 1470.167969 3172.855469 1460.300781 3210.210938 C 1456.5 3224.675781 1450.722656 3238.320312 1441.144531 3249.691406 C 1405.570312 3292.109375 1351.605469 3302.742188 1301.238281 3244.011719 C 1286.390625 3226.699219 1275.554688 3205.929688 1261.886719 3185.167969 C 1235.628906 3203.464844 1212.105469 3224.757812 1182.523438 3236.15625 C 1148.222656 3249.363281 1114.109375 3256.191406 1079.449219 3236.910156 C 1045.476562 3218.011719 1029.78125 3180.53125 1039.769531 3142.832031 C 1047.570312 3113.492188 1065.519531 3090.214844 1084.128906 3066.0625 C 1076.523438 3052.707031 1061.894531 3050.640625 1050.386719 3044.714844 C 1016.945312 3027.515625 988.15625 3005.457031 967.921875 2973.214844 C 939.078125 2927.25 945.792969 2850.59375 1021.996094 2824.988281 C 1056.847656 2813.277344 1090.285156 2819.515625 1124.371094 2825.195312 C 1133.621094 2826.753906 1142.800781 2828.929688 1156.308594 2831.707031 Z M 1156.308594 2831.707031 " fill-opacity="1" fill-rule="nonzero"/><path fill="#d38672" d="M 1586.761719 1934.863281 C 1583.542969 1969.566406 1567.605469 1999.179688 1547.078125 2025.933594 C 1530.261719 2047.828125 1504.578125 2056.324219 1478.296875 2060.347656 C 1457.539062 2063.523438 1435.371094 2065.410156 1415.601562 2059.335938 C 1354.027344 2040.398438 1292.972656 2050.25 1231.714844 2058.761719 C 1196.136719 2063.714844 1160.414062 2061.320312 1124.753906 2061.636719 C 1113.917969 2061.730469 1103 2057.433594 1097.128906 2048.59375 C 1087.332031 2033.855469 1072.28125 2022.511719 1068.011719 2004.203125 C 1071.5 1987.78125 1084.839844 1980.679688 1097.785156 1973.617188 C 1140.761719 1950.21875 1187.300781 1941.078125 1235.285156 1947.097656 C 1264.691406 1950.792969 1291.863281 1948.605469 1318.75 1937.617188 C 1393.652344 1906.992188 1470.867188 1907.878906 1548.953125 1920.402344 C 1562.542969 1922.578125 1576.15625 1924.753906 1586.761719 1934.863281 Z M 1586.761719 1934.863281 " fill-opacity="1" fill-rule="nonzero"/><path fill="#822e20" d="M 1124.277344 1712.882812 C 1118.253906 1725.652344 1112.230469 1738.453125 1106.199219 1751.277344 L 1105.585938 1755.042969 C 1104.992188 1757.539062 1104.039062 1759.886719 1102.726562 1762.089844 C 1100.605469 1765.300781 1098.054688 1768.117188 1095.066406 1770.539062 C 1092.078125 1772.960938 1088.792969 1774.875 1085.210938 1776.28125 C 1049.292969 1804.824219 1006.5625 1809.804688 963.433594 1807.671875 C 921.234375 1805.589844 891.910156 1780.660156 871.894531 1744.339844 C 850.984375 1721.53125 858.210938 1693.273438 856.703125 1666.683594 C 872.945312 1586.742188 932.179688 1536.875 1006.109375 1540.394531 C 1023.460938 1541.214844 1038.414062 1548 1054 1554.746094 C 1077.042969 1564.75 1063.34375 1587.710938 1071.910156 1600.109375 C 1080.476562 1612.507812 1106.789062 1593.269531 1117.066406 1616.875 C 1125.179688 1635.523438 1132.28125 1653.820312 1130.980469 1674.414062 C 1130.910156 1682.734375 1131.210938 1691.070312 1130.433594 1699.375 C 1129.394531 1704.371094 1127.902344 1709.117188 1124.277344 1712.882812 Z M 1124.277344 1712.882812 " fill-opacity="1" fill-rule="nonzero"/><path fill="#822e20" d="M 1586.761719 1934.863281 C 1569.519531 1936.984375 1553.414062 1930.308594 1536.96875 1927.503906 C 1459.289062 1914.257812 1383.71875 1919.457031 1310.554688 1949.617188 C 1288.265625 1958.824219 1266.441406 1959.648438 1242.703125 1957.199219 C 1178.925781 1950.628906 1118.609375 1960.113281 1068.066406 2004.203125 C 1065.589844 2002.554688 1063.6875 2000.402344 1062.359375 1997.742188 C 1049.03125 1951.683594 1050.539062 1906.058594 1070.1875 1862.269531 C 1081.925781 1836.121094 1097.746094 1812.378906 1130.488281 1808.902344 C 1131.253906 1809.613281 1132.59375 1810.269531 1132.730469 1811.039062 C 1141.597656 1864.5 1181.101562 1868.511719 1224.148438 1869.195312 C 1292.355469 1870.191406 1360.253906 1866.085938 1427.847656 1856.878906 C 1475.050781 1850.460938 1513.363281 1832.769531 1544.152344 1797.339844 C 1577.988281 1837.132812 1594.175781 1882.34375 1586.761719 1934.863281 Z M 1586.761719 1934.863281 " fill-opacity="1" fill-rule="nonzero"/><path fill="#822e20" d="M 1681.460938 1674.660156 C 1672.292969 1688.523438 1665.503906 1703.660156 1654.09375 1716.355469 C 1605.4375 1770.382812 1522.738281 1765.332031 1479.101562 1744.394531 C 1459.113281 1734.816406 1447.632812 1717.300781 1435.441406 1700.332031 C 1386.414062 1641.957031 1428.378906 1531.9375 1529.949219 1516.089844 C 1549.609375 1513.023438 1569.902344 1512.667969 1589.113281 1519.605469 C 1605.777344 1525.628906 1620.117188 1533.839844 1613.824219 1556.210938 C 1610.925781 1566.503906 1612.292969 1578.011719 1626.5625 1572.988281 C 1661.429688 1560.671875 1671.035156 1584.757812 1681.171875 1608.566406 C 1684.851562 1617.160156 1688.902344 1625.851562 1689.519531 1635.496094 C 1689.519531 1642.339844 1688.261719 1649.015625 1687.878906 1655.804688 C 1685.59375 1662.015625 1686.753906 1669.433594 1681.460938 1674.660156 Z M 1681.460938 1674.660156 " fill-opacity="1" fill-rule="nonzero"/><path fill="#ffffff" d="M 1544.136719 1797.40625 C 1533.394531 1832.550781 1507.632812 1850.488281 1473.191406 1857.179688 C 1382.882812 1874.777344 1291.960938 1885.683594 1199.667969 1877.855469 C 1195.46875 1877.5 1191.238281 1877.296875 1187.082031 1876.613281 C 1135.578125 1868.210938 1129.613281 1861.011719 1130.433594 1808.945312 C 1143.019531 1797.3125 1160.125 1798.460938 1174.738281 1796.792969 C 1227.566406 1790.742188 1280.507812 1785.667969 1332.925781 1776.527344 C 1374.070312 1769.34375 1415.285156 1762.953125 1457.128906 1761.746094 C 1491.375 1760.789062 1524.570312 1762.484375 1544.136719 1797.40625 Z M 1544.136719 1797.40625 " fill-opacity="1" fill-rule="nonzero"/><path fill="#843022" d="M 845.527344 1656.023438 C 837.316406 1660.375 841.421875 1679.027344 828.695312 1674.769531 C 815.285156 1670.253906 822.25 1657.1875 824.742188 1647.402344 C 826.492188 1640.4375 828.546875 1633.554688 830.460938 1626.617188 C 814.957031 1619.570312 792.628906 1633.773438 782.925781 1608.484375 C 804.738281 1604.585938 827.066406 1608.484375 844.5 1591.214844 C 838.574219 1578.230469 829.722656 1566.09375 828.191406 1551.367188 C 827.917969 1548.632812 829.378906 1544.664062 831.445312 1543.15625 C 835.265625 1540.285156 839.300781 1542.226562 842.394531 1545.648438 C 849.234375 1553.324219 849.863281 1565.585938 861.246094 1571.238281 C 908.988281 1518.363281 970.890625 1501.734375 1038.566406 1511.027344 C 1095.050781 1518.839844 1137.945312 1549.601562 1157.605469 1606.390625 C 1160.945312 1616.050781 1164.84375 1625.796875 1158.785156 1635.730469 C 1145.386719 1636.8125 1145.59375 1622.496094 1137.136719 1618.941406 C 1128.339844 1616.328125 1124.167969 1608.773438 1119.101562 1602.136719 C 1054.945312 1517.976562 935.765625 1521.835938 876.613281 1609.496094 C 866.105469 1624.878906 862.453125 1644.898438 845.527344 1656.023438 Z M 845.527344 1656.023438 " fill-opacity="1" fill-rule="nonzero"/><path fill="#fdfcfc" d="M 1683.007812 1637.289062 C 1679.871094 1618.296875 1671.363281 1601.628906 1661.113281 1585.550781 C 1654.367188 1574.90625 1646.855469 1570.5 1635.867188 1579.886719 C 1635 1580.464844 1634.085938 1580.964844 1633.132812 1581.390625 C 1622.882812 1587.261719 1611.128906 1593.707031 1601.660156 1583.441406 C 1593.683594 1574.820312 1599.882812 1563.667969 1604.398438 1554.132812 C 1606.613281 1549.425781 1608.914062 1544.757812 1611.144531 1540.121094 C 1564.730469 1513.132812 1515.910156 1516.132812 1472.820312 1548.234375 C 1430.691406 1579.625 1415.269531 1624.398438 1428.804688 1676.140625 C 1430.925781 1684.214844 1433.183594 1692.273438 1435.386719 1700.332031 C 1429.335938 1706.109375 1426.257812 1701.070312 1423.644531 1696.71875 C 1420.003906 1690.71875 1416.804688 1684.492188 1414.042969 1678.039062 C 1411.28125 1671.585938 1408.988281 1664.96875 1407.160156 1658.191406 C 1405.332031 1651.414062 1403.988281 1644.542969 1403.132812 1637.578125 C 1402.273438 1630.609375 1401.910156 1623.617188 1402.039062 1616.601562 C 1413.464844 1589.367188 1427.242188 1563.738281 1447.988281 1542.132812 C 1490.488281 1497.847656 1547.625 1486.300781 1603.523438 1511.726562 C 1643.449219 1529.882812 1673.933594 1556.621094 1686.042969 1601.027344 C 1688.863281 1611.386719 1688.78125 1624.386719 1700.929688 1630.558594 C 1696.734375 1644.597656 1692.53125 1658.640625 1688.316406 1672.691406 C 1687.042969 1676.972656 1684.511719 1676.796875 1681.472656 1674.660156 C 1682.03125 1668.476562 1682.59375 1662.285156 1683.171875 1656.09375 C 1683.949219 1654.644531 1684.539062 1653.125 1684.933594 1651.527344 C 1685.328125 1649.933594 1685.519531 1648.3125 1685.503906 1646.671875 C 1685.492188 1645.027344 1685.273438 1643.410156 1684.847656 1641.820312 C 1684.425781 1640.234375 1683.8125 1638.722656 1683.007812 1637.289062 Z M 1683.007812 1637.289062 " fill-opacity="1" fill-rule="nonzero"/><path fill="#fcfafa" d="M 845.527344 1656.023438 C 852.53125 1640.792969 858.292969 1624.835938 866.75 1610.457031 C 901.175781 1551.886719 956.808594 1532.933594 1019.996094 1536.109375 C 1074.578125 1538.847656 1114.082031 1568.570312 1136.988281 1618.925781 C 1137.152344 1639.683594 1136.851562 1660.472656 1137.644531 1681.214844 C 1137.964844 1687.457031 1137.492188 1693.640625 1136.226562 1699.757812 C 1134.960938 1705.878906 1132.945312 1711.742188 1130.171875 1717.34375 C 1126.78125 1723.9375 1126.355469 1714.605469 1124.179688 1712.921875 C 1124.550781 1708.816406 1124.933594 1704.617188 1125.300781 1700.457031 C 1129.40625 1692.136719 1128.84375 1683.773438 1125.628906 1675.359375 C 1124.277344 1660.578125 1120.863281 1646.292969 1115.382812 1632.5 C 1105.296875 1607.335938 1104.734375 1607.089844 1079.300781 1616.078125 C 1072.144531 1618.613281 1064.988281 1620.871094 1058.773438 1614.628906 C 1052.5625 1608.390625 1054.257812 1600.863281 1056.679688 1593.882812 C 1059.101562 1586.90625 1062.6875 1580.472656 1065.710938 1573.890625 C 1015.359375 1533.167969 940.0625 1542.9375 898.246094 1595.554688 C 890.351562 1605.484375 883.523438 1616.101562 877.765625 1627.40625 C 872.007812 1638.710938 867.429688 1650.476562 864.039062 1662.703125 C 859.003906 1678.546875 863.164062 1694.859375 861.507812 1710.84375 C 860.890625 1716.699219 865.285156 1726.46875 852.683594 1725.363281 C 849.660156 1714.066406 847.546875 1702.605469 846.347656 1690.976562 C 845.148438 1679.347656 844.875 1667.695312 845.527344 1656.023438 Z M 845.527344 1656.023438 " fill-opacity="1" fill-rule="nonzero"/><path fill="#853223" d="M 1117.433594 1486.601562 C 1109.882812 1485.136719 1102.574219 1484.136719 1095.542969 1482.277344 C 1043.664062 1468.59375 991.828125 1454.792969 940.035156 1440.882812 C 928.363281 1437.734375 910.808594 1436.914062 914.898438 1419.65625 C 918.878906 1402.882812 936.039062 1408.710938 947.410156 1411.007812 C 1006.246094 1422.847656 1063.386719 1441.277344 1119.816406 1461.640625 C 1120.804688 1462.015625 1121.714844 1462.523438 1122.550781 1463.171875 C 1128.859375 1467.824219 1140.542969 1469.644531 1136.808594 1480.550781 C 1133.855469 1489.078125 1123.769531 1483.605469 1117.433594 1486.601562 Z M 1117.433594 1486.601562 " fill-opacity="1" fill-rule="nonzero"/><path fill="#853223" d="M 1604.644531 1384.324219 C 1604.5 1385.355469 1604.285156 1386.371094 1603.996094 1387.371094 C 1603.710938 1388.371094 1603.351562 1389.347656 1602.925781 1390.296875 C 1602.5 1391.246094 1602.011719 1392.160156 1601.453125 1393.039062 C 1600.898438 1393.917969 1600.28125 1394.753906 1599.609375 1395.546875 C 1598.933594 1396.339844 1598.207031 1397.082031 1597.425781 1397.769531 C 1596.644531 1398.457031 1595.820312 1399.089844 1594.953125 1399.660156 C 1594.082031 1400.234375 1593.179688 1400.738281 1592.234375 1401.183594 C 1591.292969 1401.625 1590.328125 1402 1589.332031 1402.304688 C 1526.390625 1423.339844 1467.320312 1452.9375 1407.703125 1481.386719 C 1399.644531 1485.246094 1390.886719 1487.804688 1385.59375 1478.335938 C 1379.378906 1467.195312 1387.332031 1460.546875 1396.085938 1455.921875 C 1454.527344 1424.789062 1515.484375 1399.417969 1578.167969 1378.207031 C 1583.941406 1376.253906 1590.480469 1376.308594 1596.777344 1376.238281 C 1601.347656 1376.183594 1604.371094 1379.015625 1604.644531 1384.324219 Z M 1604.644531 1384.324219 " fill-opacity="1" fill-rule="nonzero"/><path fill="#d68c78" d="M 1261.625 1722.433594 C 1255.167969 1720.886719 1251.882812 1716.960938 1252.28125 1711.144531 C 1253.195312 1697.816406 1262.882812 1691.601562 1273.417969 1686.128906 C 1287.308594 1678.847656 1299.9375 1682.1875 1311.855469 1690.492188 C 1322.089844 1697.636719 1322.144531 1708.285156 1319.820312 1718.902344 C 1318.449219 1725.347656 1314.234375 1730.328125 1307.273438 1731.476562 C 1300.894531 1732.546875 1297.789062 1728.46875 1296.160156 1722.980469 C 1290.46875 1703.714844 1280.742188 1706.355469 1269.070312 1717.765625 C 1266.933594 1719.804688 1263.84375 1721.023438 1261.625 1722.433594 Z M 1261.625 1722.433594 " fill-opacity="1" fill-rule="nonzero"/><path fill="#f3e7e2" d="M 852.683594 1725.304688 C 862.261719 1716.796875 856.785156 1705.574219 858.003906 1695.597656 C 859.375 1684.5 854.503906 1672.335938 864.039062 1662.648438 C 862.671875 1690.261719 861.371094 1717.863281 871.8125 1744.339844 C 868.609375 1748.691406 864.777344 1748.554688 862.234375 1744.339844 C 858.539062 1738.292969 855.816406 1731.683594 852.683594 1725.304688 Z M 852.683594 1725.304688 " fill-opacity="1" fill-rule="nonzero"/><path fill="#9a4f3c" d="M 1663.726562 1751.8125 C 1664.015625 1745.859375 1661.824219 1737.648438 1670.089844 1736.488281 C 1681.035156 1734.925781 1689.246094 1740.085938 1693.445312 1751.539062 C 1682.253906 1759.625 1672.921875 1747.652344 1663.21875 1751.320312 Z M 1663.726562 1751.8125 " fill-opacity="1" fill-rule="nonzero"/><path fill="#832f21" d="M 1663.21875 1751.277344 C 1662.550781 1758.519531 1661.851562 1765.757812 1661.058594 1774.980469 C 1649.238281 1770.574219 1642.464844 1764.128906 1647.582031 1752.292969 C 1651.328125 1743.628906 1658.199219 1750.539062 1663.726562 1751.8125 Z M 1663.21875 1751.277344 " fill-opacity="1" fill-rule="nonzero"/><path fill="#832e20" d="M 846.347656 1776.445312 C 844.308594 1776.046875 842.242188 1775.636719 840.246094 1775.253906 C 832.925781 1773.886719 822.59375 1776.882812 821.855469 1765.058594 C 821.582031 1760.707031 827.164062 1758.957031 831.363281 1758.902344 C 843.679688 1758.765625 847.878906 1765.429688 845.785156 1776.949219 Z M 846.347656 1776.445312 " fill-opacity="1" fill-rule="nonzero"/><path fill="#984d3b" d="M 845.785156 1776.992188 C 870.949219 1781.289062 855.734375 1792.972656 851.804688 1806.972656 C 840.683594 1795.398438 844.664062 1785.75 846.332031 1776.484375 Z M 845.785156 1776.992188 " fill-opacity="1" fill-rule="nonzero"/><path fill="#f0e3db" d="M 793.980469 1331.449219 C 795.882812 1322.214844 794.625 1310.925781 808.308594 1309.324219 C 810.238281 1324.949219 805.914062 1331.628906 793.980469 1331.449219 Z M 793.980469 1331.449219 " fill-opacity="1" fill-rule="nonzero"/><path fill="#954837" d="M 1758.167969 1637.207031 L 1770.070312 1637.085938 C 1770.222656 1641.09375 1770.644531 1645.105469 1770.46875 1649.085938 C 1770.332031 1652.042969 1769.414062 1654.957031 1768.59375 1659.210938 C 1757.539062 1654.738281 1758.070312 1645.871094 1758.167969 1637.207031 Z M 1758.167969 1637.207031 " fill-opacity="1" fill-rule="nonzero"/><path fill="#f0e2db" d="M 1085.167969 1776.28125 C 1088.796875 1768.453125 1095.046875 1762.855469 1101.34375 1757.285156 C 1101.765625 1756.195312 1102.347656 1755.203125 1103.097656 1754.300781 C 1103.84375 1753.402344 1104.714844 1752.648438 1105.707031 1752.03125 L 1106.160156 1751.277344 C 1109.660156 1767.261719 1106.925781 1770.519531 1085.167969 1776.28125 Z M 1085.167969 1776.28125 " fill-opacity="1" fill-rule="nonzero"/><path fill="#d38672" d="M 1062.304688 1997.757812 C 1065.34375 1998.90625 1067.585938 2000.753906 1068.011719 2004.214844 C 1064.070312 2003.902344 1062.15625 2001.738281 1062.304688 1997.757812 Z M 1062.304688 1997.757812 " fill-opacity="1" fill-rule="nonzero"/><path fill="#e2bca8" d="M 1696.496094 1541.390625 L 1717.691406 1518.773438 C 1728.007812 1525.300781 1726.476562 1535.796875 1729.664062 1545.878906 C 1718.019531 1551.585938 1708.113281 1548.507812 1696.496094 1541.390625 Z M 1696.496094 1541.390625 " fill-opacity="1" fill-rule="nonzero"/><path fill="#ffffff" d="M 1268.617188 3150.328125 C 1226.691406 3144.855469 1185.507812 3128.121094 1161.464844 3084.359375 C 1139.3125 3044.058594 1164.3125 2955.550781 1203.882812 2930.863281 C 1220.300781 2920.574219 1238.816406 2915.015625 1258.285156 2919.21875 C 1289.46875 2925.949219 1318.96875 2937.199219 1344.105469 2957.617188 C 1379.214844 2986.132812 1391.546875 3033.933594 1375.453125 3077.84375 C 1374.449219 3080.535156 1373.34375 3083.179688 1372.136719 3085.78125 C 1370.925781 3088.386719 1369.621094 3090.9375 1368.214844 3093.441406 C 1366.808594 3095.945312 1365.3125 3098.386719 1363.714844 3100.773438 C 1362.121094 3103.160156 1360.4375 3105.484375 1358.664062 3107.738281 C 1356.890625 3109.996094 1355.035156 3112.179688 1353.09375 3114.292969 C 1351.152344 3116.40625 1349.132812 3118.441406 1347.03125 3120.398438 C 1344.933594 3122.355469 1342.761719 3124.230469 1340.519531 3126.019531 C 1338.273438 3127.808594 1335.964844 3129.507812 1333.589844 3131.121094 C 1331.214844 3132.730469 1328.78125 3134.25 1326.289062 3135.671875 C 1323.796875 3137.097656 1321.253906 3138.421875 1318.660156 3139.648438 C 1316.066406 3140.875 1313.429688 3142 1310.746094 3143.023438 C 1308.066406 3144.046875 1305.351562 3144.964844 1302.597656 3145.777344 C 1299.847656 3146.59375 1297.066406 3147.300781 1294.261719 3147.898438 C 1291.453125 3148.496094 1288.628906 3148.988281 1285.785156 3149.367188 C 1282.9375 3149.75 1280.085938 3150.019531 1277.21875 3150.179688 C 1274.355469 3150.339844 1271.488281 3150.390625 1268.617188 3150.328125 Z M 1268.617188 3150.328125 " fill-opacity="1" fill-rule="nonzero"/><path fill="#ece1df" d="M 1066.027344 1668.421875 C 1058.035156 1667.777344 1053.792969 1663.523438 1053.957031 1656.230469 C 1054.164062 1647.5 1059.597656 1642.683594 1068.121094 1642.65625 C 1075.34375 1642.65625 1080.105469 1646.757812 1079.777344 1654.382812 C 1079.410156 1663.097656 1073.71875 1667.191406 1066.027344 1668.421875 Z M 1066.027344 1668.421875 " fill-opacity="1" fill-rule="nonzero"/><path fill="#f1d1bd" d="M 1125.644531 1675.320312 C 1132.894531 1683.773438 1133.074219 1692.148438 1125.316406 1700.414062 C 1123.695312 1692.027344 1123.804688 1683.660156 1125.644531 1675.320312 Z M 1125.644531 1675.320312 " fill-opacity="1" fill-rule="nonzero"/><path fill="#f1d1bd" d="M 1105.707031 1752.03125 L 1101.34375 1757.285156 Z M 1105.707031 1752.03125 " fill-opacity="1" fill-rule="nonzero"/><path fill="#f3edec" d="M 1642.546875 1619.417969 C 1639.917969 1629.464844 1633.144531 1632.910156 1623.757812 1631.832031 C 1616.78125 1631.007812 1612.003906 1627.066406 1612.238281 1619.71875 C 1612.59375 1609.195312 1619.707031 1605.542969 1629.09375 1605.722656 C 1637.90625 1605.898438 1641.792969 1611.398438 1642.546875 1619.417969 Z M 1642.546875 1619.417969 " fill-opacity="1" fill-rule="nonzero"/><path fill="#f1d1bd" d="M 1683.007812 1637.289062 C 1689.695312 1643.515625 1690.082031 1649.785156 1683.15625 1656.09375 C 1682.277344 1653.023438 1681.824219 1649.894531 1681.796875 1646.703125 C 1681.773438 1643.507812 1682.175781 1640.371094 1683.007812 1637.289062 Z M 1683.007812 1637.289062 " fill-opacity="1" fill-rule="nonzero"/></svg>