<svg xmlns="http://www.w3.org/2000/svg" xmlns:xlink="http://www.w3.org/1999/xlink" width="500" zoomAndPan="magnify" viewBox="0 0 375 374.999991" height="500" preserveAspectRatio="xMidYMid meet" version="1.0"><defs><clipPath id="d058b88d02"><path d="M 58.457031 150.355469 L 69.542969 150.355469 L 69.542969 162.394531 L 58.457031 162.394531 Z M 58.457031 150.355469 " clip-rule="nonzero"/></clipPath><clipPath id="a23d9c5f60"><path d="M 180 23.292969 L 184 23.292969 L 184 26 L 180 26 Z M 180 23.292969 " clip-rule="nonzero"/></clipPath><clipPath id="33b97c0931"><path d="M 171.402344 252.679688 L 173.71875 252.679688 L 173.71875 254.597656 L 171.402344 254.597656 Z M 171.402344 252.679688 " clip-rule="nonzero"/></clipPath><clipPath id="c095ef55ed"><path d="M 278 173 L 283.957031 173 L 283.957031 179 L 278 179 Z M 278 173 " clip-rule="nonzero"/></clipPath><clipPath id="ad81ed1db1"><path d="M 279 144 L 283.957031 144 L 283.957031 149 L 279 149 Z M 279 144 " clip-rule="nonzero"/></clipPath><clipPath id="bfd6c77bff"><path d="M 77.691406 154.226562 L 296.425781 154.226562 L 296.425781 346.847656 L 77.691406 346.847656 Z M 77.691406 154.226562 " clip-rule="nonzero"/></clipPath><clipPath id="e36d9b7039"><path d="M 98 229 L 240 229 L 240 346.847656 L 98 346.847656 Z M 98 229 " clip-rule="nonzero"/></clipPath><clipPath id="53e3e32a54"><path d="M 190 186 L 297.300781 186 L 297.300781 224 L 190 224 Z M 190 186 " clip-rule="nonzero"/></clipPath></defs><rect x="-37.5" width="450" fill="#ffffff" y="-37.499999" height="449.999989" fill-opacity="1"/><rect x="-37.5" width="450" fill="#ebecf0" y="-37.499999" height="449.999989" fill-opacity="1"/><path fill="#fdfd96" d="M 190.226562 143.660156 C 189.9375 143.929688 189.78125 144.332031 189.90625 144.847656 C 190.257812 146.328125 192.148438 147.652344 193.648438 147.734375 C 194.507812 147.789062 195.335938 147 195.125 146.109375 C 194.839844 144.867188 194.082031 144.03125 192.960938 143.457031 C 192.113281 143.035156 190.835938 142.746094 190.226562 143.660156 " fill-opacity="1" fill-rule="nonzero"/><path fill="#fdfd96" d="M 200.507812 165.90625 C 201.183594 166.996094 202.851562 167.324219 203.757812 166.300781 C 205.015625 164.902344 205.394531 163.253906 205.125 161.402344 C 204.917969 160.019531 204.175781 158.21875 202.550781 158.246094 C 201.972656 158.125 201.34375 158.28125 200.820312 158.875 C 199.320312 160.574219 199.328125 164.011719 200.507812 165.90625 " fill-opacity="1" fill-rule="nonzero"/><path fill="#fdfd96" d="M 195.796875 185.914062 C 197.785156 186.285156 199.503906 185.726562 201.054688 184.441406 C 202.222656 183.488281 203.457031 181.804688 202.535156 180.328125 C 202.328125 179.726562 201.832031 179.230469 200.988281 179.078125 C 198.601562 178.640625 195.445312 180.558594 194.355469 182.691406 C 193.738281 183.921875 194.351562 185.644531 195.796875 185.914062 " fill-opacity="1" fill-rule="nonzero"/><path fill="#fdfd96" d="M 181.378906 191.535156 C 179.546875 191.191406 177.117188 192.664062 176.285156 194.308594 C 175.804688 195.25 176.277344 196.566406 177.386719 196.773438 C 178.917969 197.0625 180.234375 196.628906 181.429688 195.652344 C 182.332031 194.917969 183.28125 193.613281 182.554688 192.472656 C 182.390625 192.019531 182.015625 191.648438 181.378906 191.535156 " fill-opacity="1" fill-rule="nonzero"/><path fill="#fdfd96" d="M 157.347656 206.332031 C 158.5625 207.3125 159.933594 207.554688 161.457031 207.242188 C 162.609375 207.015625 164.0625 206.3125 163.953125 204.957031 C 164.023438 204.480469 163.863281 203.980469 163.355469 203.574219 C 161.894531 202.414062 159.054688 202.570312 157.539062 203.628906 C 156.667969 204.230469 156.464844 205.625 157.347656 206.332031 " fill-opacity="1" fill-rule="nonzero"/><path fill="#fdfd96" d="M 143.570312 197.445312 C 143.886719 197.023438 144 196.457031 143.714844 195.808594 C 142.910156 193.957031 140.132812 192.664062 138.15625 192.898438 C 137.023438 193.035156 136.121094 194.257812 136.601562 195.375 C 137.257812 196.925781 138.445312 197.851562 140.042969 198.335938 C 141.246094 198.699219 142.980469 198.773438 143.570312 197.445312 " fill-opacity="1" fill-rule="nonzero"/><path fill="#fdfd96" d="M 119.792969 188.875 C 120.941406 189.21875 122.601562 189.289062 123.167969 188.015625 C 123.464844 187.613281 123.570312 187.074219 123.300781 186.460938 C 122.535156 184.6875 119.878906 183.457031 117.988281 183.675781 C 116.902344 183.808594 116.042969 184.980469 116.503906 186.046875 C 117.136719 187.527344 118.265625 188.40625 119.792969 188.875 " fill-opacity="1" fill-rule="nonzero"/><path fill="#fdfd96" d="M 112.714844 166.320312 C 113.207031 167.675781 114.324219 169.324219 115.949219 168.964844 C 116.554688 168.964844 117.152344 168.675781 117.5625 167.96875 C 118.710938 165.957031 117.996094 162.519531 116.421875 160.855469 C 115.515625 159.910156 113.777344 159.910156 113.070312 161.125 C 112.097656 162.800781 112.0625 164.519531 112.714844 166.320312 " fill-opacity="1" fill-rule="nonzero"/><path fill="#fdfd96" d="M 119.839844 146.804688 C 120.234375 147.054688 120.746094 147.117188 121.308594 146.824219 C 122.917969 145.984375 123.902344 143.398438 123.566406 141.636719 C 123.367188 140.621094 122.210938 139.898438 121.234375 140.394531 C 119.882812 141.097656 119.132812 142.21875 118.796875 143.6875 C 118.550781 144.792969 118.597656 146.359375 119.839844 146.804688 " fill-opacity="1" fill-rule="nonzero"/><path fill="#fdfd96" d="M 127.019531 127.527344 C 127.617188 127.917969 128.398438 128.011719 129.253906 127.5625 C 131.667969 126.300781 133.140625 122.429688 132.636719 119.777344 C 132.339844 118.269531 130.605469 117.171875 129.140625 117.925781 C 127.117188 118.960938 125.984375 120.648438 125.484375 122.855469 C 125.117188 124.511719 125.179688 126.855469 127.019531 127.527344 " fill-opacity="1" fill-rule="nonzero"/><path fill="#fdfd96" d="M 141.816406 110.164062 C 141.960938 110.613281 142.316406 110.988281 142.9375 111.113281 C 144.695312 111.464844 147.054688 110.097656 147.886719 108.535156 C 148.363281 107.644531 147.933594 106.371094 146.871094 106.144531 C 145.40625 105.84375 144.132812 106.226562 142.964844 107.148438 C 142.089844 107.84375 141.152344 109.0625 141.816406 110.164062 " fill-opacity="1" fill-rule="nonzero"/><path fill="#fdfd96" d="M 168.058594 97.289062 C 168.671875 96.132812 168.121094 94.472656 166.742188 94.183594 C 164.84375 93.789062 163.191406 94.296875 161.679688 95.488281 C 160.542969 96.378906 159.332031 97.957031 160.183594 99.394531 C 160.367188 99.976562 160.832031 100.460938 161.636719 100.625 C 163.914062 101.078125 166.976562 99.308594 168.058594 97.289062 " fill-opacity="1" fill-rule="nonzero"/><path fill="#fdfd96" d="M 187.957031 103.015625 C 187.257812 101.089844 185.882812 99.890625 183.96875 99.195312 C 182.53125 98.675781 180.441406 98.464844 179.621094 100.019531 C 179.203125 100.515625 179.027344 101.203125 179.328125 102.023438 C 180.183594 104.320312 183.476562 106.082031 185.898438 105.925781 C 187.285156 105.84375 188.464844 104.414062 187.957031 103.015625 " fill-opacity="1" fill-rule="nonzero"/><path fill="#fdfd96" d="M 206.230469 113.253906 C 205.765625 111.980469 204.851562 111.175781 203.578125 110.71875 C 202.621094 110.363281 201.214844 110.226562 200.683594 111.289062 C 200.414062 111.613281 200.300781 112.0625 200.496094 112.59375 C 201.066406 114.125 203.253906 115.292969 204.863281 115.191406 C 205.785156 115.128906 206.566406 114.1875 206.230469 113.253906 " fill-opacity="1" fill-rule="nonzero"/><path fill="#fdfd96" d="M 220.542969 131.46875 C 221.304688 129.5 221.050781 127.636719 220.035156 125.804688 C 219.273438 124.429688 217.785156 122.847656 216.09375 123.515625 C 215.441406 123.617188 214.84375 124.03125 214.527344 124.863281 C 213.632812 127.222656 215 130.816406 216.980469 132.339844 C 218.121094 133.207031 220 132.898438 220.542969 131.46875 " fill-opacity="1" fill-rule="nonzero"/><path fill="#fdfd96" d="M 228.578125 152.34375 C 229.351562 150.355469 229.089844 148.457031 228.066406 146.605469 C 227.292969 145.214844 225.789062 143.613281 224.074219 144.28125 C 223.410156 144.378906 222.800781 144.796875 222.480469 145.644531 C 221.574219 148.046875 222.953125 151.679688 224.96875 153.222656 C 226.121094 154.105469 228.023438 153.792969 228.578125 152.34375 " fill-opacity="1" fill-rule="nonzero"/><path fill="#fdfd96" d="M 233.207031 169.945312 C 233.804688 168.871094 234.238281 167.238281 233.082031 166.394531 C 232.746094 166.011719 232.238281 165.792969 231.566406 165.929688 C 229.640625 166.3125 227.828125 168.683594 227.640625 170.617188 C 227.539062 171.726562 228.511719 172.835938 229.679688 172.605469 C 231.289062 172.296875 232.414062 171.363281 233.207031 169.945312 " fill-opacity="1" fill-rule="nonzero"/><path fill="#fdfd96" d="M 213.089844 188.875 C 212.941406 190.382812 214.269531 191.886719 215.851562 191.585938 C 218.042969 191.171875 219.570312 189.898438 220.648438 187.960938 C 221.453125 186.507812 222.039062 184.285156 220.484375 183.144531 C 220.027344 182.621094 219.328125 182.324219 218.414062 182.503906 C 215.796875 183.023438 213.34375 186.253906 213.089844 188.875 " fill-opacity="1" fill-rule="nonzero"/><path fill="#fdfd96" d="M 201.039062 206.089844 C 200.949219 207.097656 201.828125 208.101562 202.886719 207.902344 C 204.34375 207.625 205.363281 206.773438 206.082031 205.480469 C 206.621094 204.519531 207.011719 203.03125 205.96875 202.273438 C 205.667969 201.925781 205.203125 201.722656 204.59375 201.847656 C 202.847656 202.1875 201.210938 204.339844 201.039062 206.089844 " fill-opacity="1" fill-rule="nonzero"/><path fill="#fdfd96" d="M 187.761719 223.828125 C 187.667969 224.769531 188.5 225.722656 189.496094 225.527344 C 190.867188 225.269531 191.832031 224.46875 192.503906 223.257812 C 193.011719 222.34375 193.378906 220.941406 192.398438 220.226562 C 192.113281 219.902344 191.675781 219.714844 191.105469 219.832031 C 189.460938 220.152344 187.917969 222.183594 187.761719 223.828125 " fill-opacity="1" fill-rule="nonzero"/><path fill="#fdfd96" d="M 173.636719 225.121094 C 173.792969 224.722656 173.761719 224.253906 173.402344 223.808594 C 172.371094 222.523438 169.90625 222.109375 168.402344 222.71875 C 167.546875 223.074219 167.101562 224.222656 167.71875 225 C 168.570312 226.074219 169.699219 226.542969 171.0625 226.582031 C 172.082031 226.601562 173.457031 226.292969 173.636719 225.121094 " fill-opacity="1" fill-rule="nonzero"/><path fill="#fdfd96" d="M 151.632812 221.457031 C 151.785156 221.058594 151.753906 220.589844 151.390625 220.140625 C 150.363281 218.867188 147.902344 218.445312 146.402344 219.054688 C 145.542969 219.40625 145.097656 220.566406 145.714844 221.34375 C 146.570312 222.410156 147.695312 222.886719 149.050781 222.917969 C 150.074219 222.945312 151.449219 222.628906 151.632812 221.457031 " fill-opacity="1" fill-rule="nonzero"/><path fill="#fdfd96" d="M 130.3125 217.941406 C 130.503906 217.457031 130.457031 216.882812 130.015625 216.332031 C 128.757812 214.765625 125.746094 214.25 123.90625 215.007812 C 122.855469 215.429688 122.308594 216.839844 123.066406 217.792969 C 124.109375 219.105469 125.492188 219.675781 127.152344 219.726562 C 128.40625 219.757812 130.085938 219.375 130.3125 217.941406 " fill-opacity="1" fill-rule="nonzero"/><path fill="#fdfd96" d="M 110.921875 213.113281 C 111.945312 210.71875 110.695312 206.972656 108.71875 205.328125 C 107.589844 204.382812 105.640625 204.621094 105.023438 206.070312 C 104.15625 208.058594 104.339844 209.984375 105.304688 211.910156 C 106.03125 213.355469 107.496094 215.046875 109.261719 214.429688 C 109.9375 214.351562 110.566406 213.953125 110.921875 213.113281 " fill-opacity="1" fill-rule="nonzero"/><path fill="#fdfd96" d="M 102.625 190.683594 C 103.261719 189.195312 102.480469 186.851562 101.246094 185.828125 C 100.542969 185.238281 99.328125 185.382812 98.9375 186.285156 C 98.402344 187.527344 98.511719 188.730469 99.121094 189.9375 C 99.570312 190.832031 100.484375 191.886719 101.585938 191.507812 C 102.007812 191.457031 102.402344 191.210938 102.625 190.683594 " fill-opacity="1" fill-rule="nonzero"/><path fill="#fdfd96" d="M 96.308594 170.453125 C 97.214844 168.328125 96.105469 165.007812 94.351562 163.546875 C 93.347656 162.707031 91.621094 162.925781 91.070312 164.199219 C 90.300781 165.96875 90.46875 167.675781 91.320312 169.386719 C 91.964844 170.671875 93.261719 172.164062 94.828125 171.625 C 95.425781 171.558594 95.988281 171.203125 96.308594 170.453125 " fill-opacity="1" fill-rule="nonzero"/><path fill="#fdfd96" d="M 88.566406 148.636719 C 89.273438 146.992188 88.410156 144.402344 87.042969 143.261719 C 86.261719 142.609375 84.917969 142.777344 84.488281 143.769531 C 83.890625 145.148438 84.015625 146.480469 84.683594 147.808594 C 85.1875 148.8125 86.199219 149.980469 87.421875 149.542969 C 87.886719 149.488281 88.320312 149.214844 88.566406 148.636719 " fill-opacity="1" fill-rule="nonzero"/><path fill="#fdfd96" d="M 93.949219 125.828125 C 94.066406 124.71875 93.109375 123.601562 91.9375 123.804688 C 90.328125 124.097656 89.191406 125.007812 88.382812 126.425781 C 87.773438 127.480469 87.320312 129.105469 88.453125 129.960938 C 88.78125 130.351562 89.289062 130.578125 89.964844 130.453125 C 91.898438 130.101562 93.734375 127.753906 93.949219 125.828125 " fill-opacity="1" fill-rule="nonzero"/><path fill="#fdfd96" d="M 107.367188 108.316406 C 107.472656 107.300781 106.597656 106.277344 105.527344 106.472656 C 104.054688 106.734375 103.011719 107.570312 102.269531 108.867188 C 101.714844 109.832031 101.296875 111.328125 102.34375 112.105469 C 102.644531 112.457031 103.109375 112.667969 103.726562 112.550781 C 105.492188 112.230469 107.175781 110.078125 107.367188 108.316406 " fill-opacity="1" fill-rule="nonzero"/><path fill="#fdfd96" d="M 121.070312 90.683594 C 121.179688 89.667969 120.292969 88.632812 119.222656 88.828125 C 117.730469 89.089844 116.6875 89.9375 115.941406 91.234375 C 115.378906 92.214844 114.960938 93.710938 116 94.496094 C 116.304688 94.859375 116.773438 95.074219 117.398438 94.960938 C 119.179688 94.628906 120.871094 92.464844 121.070312 90.683594 " fill-opacity="1" fill-rule="nonzero"/><path fill="#fdfd96" d="M 140.222656 82.453125 C 138.929688 81.457031 137.496094 81.242188 135.921875 81.59375 C 134.738281 81.859375 133.246094 82.621094 133.378906 84.027344 C 133.316406 84.527344 133.492188 85.054688 134.035156 85.464844 C 135.585938 86.636719 138.535156 86.40625 140.089844 85.269531 C 140.980469 84.617188 141.15625 83.15625 140.222656 82.453125 " fill-opacity="1" fill-rule="nonzero"/><path fill="#fdfd96" d="M 156.140625 82.195312 C 156.089844 82.621094 156.242188 83.066406 156.703125 83.417969 C 158.035156 84.421875 160.566406 84.222656 161.898438 83.25 C 162.660156 82.691406 162.8125 81.4375 162.011719 80.828125 C 160.902344 79.976562 159.675781 79.792969 158.320312 80.089844 C 157.300781 80.328125 156.007812 80.980469 156.140625 82.195312 " fill-opacity="1" fill-rule="nonzero"/><path fill="#fdfd96" d="M 176.882812 80.421875 C 176.800781 81.058594 177.027344 81.726562 177.714844 82.246094 C 179.667969 83.726562 183.382812 83.4375 185.339844 81.996094 C 186.457031 81.179688 186.679688 79.34375 185.5 78.445312 C 183.878906 77.203125 182.074219 76.933594 180.089844 77.378906 C 178.601562 77.710938 176.722656 78.664062 176.882812 80.421875 " fill-opacity="1" fill-rule="nonzero"/><path fill="#fdfd96" d="M 205.867188 87.515625 C 205.359375 85.546875 204.117188 84.230469 202.292969 83.363281 C 200.933594 82.714844 198.894531 82.316406 197.941406 83.769531 C 197.480469 84.214844 197.242188 84.871094 197.460938 85.703125 C 198.085938 88.054688 201.160156 90.101562 203.5625 90.1875 C 204.941406 90.226562 206.234375 88.933594 205.867188 87.515625 " fill-opacity="1" fill-rule="nonzero"/><path fill="#fdfd96" d="M 217.390625 96.664062 C 217.039062 97.011719 216.859375 97.519531 217.027344 98.160156 C 217.515625 99.992188 219.90625 101.578125 221.769531 101.636719 C 222.84375 101.667969 223.851562 100.664062 223.5625 99.566406 C 223.167969 98.035156 222.203125 97.011719 220.785156 96.335938 C 219.726562 95.835938 218.125 95.515625 217.390625 96.664062 " fill-opacity="1" fill-rule="nonzero"/><path fill="#fdfd96" d="M 235.253906 108.40625 C 234.804688 108.84375 234.574219 109.484375 234.792969 110.292969 C 235.398438 112.605469 238.410156 114.601562 240.761719 114.675781 C 242.105469 114.714844 243.375 113.453125 243.011719 112.066406 C 242.515625 110.136719 241.304688 108.855469 239.523438 108.007812 C 238.183594 107.367188 236.179688 106.976562 235.253906 108.40625 " fill-opacity="1" fill-rule="nonzero"/><path fill="#fdfd96" d="M 247.589844 134.203125 C 248.246094 132.9375 248.210938 131.65625 247.660156 130.347656 C 247.246094 129.367188 246.355469 128.1875 245.167969 128.527344 C 244.722656 128.550781 244.292969 128.78125 244.023438 129.316406 C 243.25 130.847656 243.902344 133.363281 245.128906 134.523438 C 245.832031 135.195312 247.117188 135.125 247.589844 134.203125 " fill-opacity="1" fill-rule="nonzero"/><path fill="#fdfd96" d="M 253.734375 156.410156 C 254.554688 154.816406 254.507812 153.214844 253.820312 151.566406 C 253.300781 150.332031 252.1875 148.855469 250.691406 149.265625 C 250.128906 149.289062 249.585938 149.585938 249.238281 150.261719 C 248.265625 152.1875 249.097656 155.355469 250.632812 156.828125 C 251.519531 157.664062 253.136719 157.574219 253.734375 156.410156 " fill-opacity="1" fill-rule="nonzero"/><path fill="#fdfd96" d="M 259.941406 178.738281 C 260.960938 176.757812 260.90625 174.769531 260.050781 172.730469 C 259.40625 171.203125 258.03125 169.378906 256.191406 169.882812 C 255.488281 169.910156 254.8125 170.273438 254.386719 171.113281 C 253.179688 173.496094 254.199219 177.417969 256.105469 179.230469 C 257.203125 180.277344 259.207031 180.164062 259.941406 178.738281 " fill-opacity="1" fill-rule="nonzero"/><path fill="#ffffff" d="M 181.410156 175.382812 C 182.160156 174.273438 182.964844 173.1875 183.734375 172.089844 C 184.738281 172.617188 185.753906 173.125 186.710938 173.691406 C 187.902344 174.378906 189.09375 172.335938 188.109375 171.457031 C 187.253906 170.710938 186.4375 169.914062 185.597656 169.160156 C 186.308594 167.851562 186.878906 166.496094 187.1875 164.996094 C 187.492188 163.464844 185.742188 162.683594 184.75 163.867188 C 183.949219 164.796875 183.320312 165.835938 182.734375 166.890625 C 181.710938 166.226562 180.601562 165.6875 179.339844 165.390625 C 177.816406 165.015625 177.214844 167.148438 178.042969 168.089844 C 178.902344 169.0625 179.914062 169.851562 180.988281 170.542969 C 180.480469 171.734375 179.980469 172.925781 179.433594 174.085938 C 178.816406 175.414062 180.539062 176.644531 181.410156 175.382812 " fill-opacity="1" fill-rule="nonzero"/><path fill="#ffffff" d="M 243.46875 207.519531 C 244.441406 206.207031 245.480469 204.921875 246.480469 203.617188 C 247.683594 204.308594 248.890625 204.984375 250.042969 205.730469 C 251.464844 206.628906 253.023438 204.199219 251.859375 203.066406 C 250.859375 202.105469 249.890625 201.101562 248.902344 200.128906 C 249.84375 198.574219 250.609375 196.929688 251.0625 195.117188 C 251.519531 193.253906 249.414062 192.21875 248.132812 193.601562 C 247.117188 194.703125 246.289062 195.945312 245.515625 197.207031 C 244.292969 196.347656 242.964844 195.625 241.4375 195.1875 C 239.59375 194.671875 238.757812 197.25 239.71875 198.4375 C 240.71875 199.671875 241.917969 200.6875 243.203125 201.589844 C 242.515625 203.015625 241.835938 204.457031 241.109375 205.851562 C 240.289062 207.4375 242.339844 209.03125 243.46875 207.519531 " fill-opacity="1" fill-rule="nonzero"/><path fill="#ffffff" d="M 262.3125 127.605469 C 262.398438 126.300781 262.542969 124.988281 262.648438 123.671875 C 263.761719 123.621094 264.867188 123.546875 265.960938 123.546875 C 267.3125 123.535156 267.308594 121.21875 266.039062 120.96875 C 264.941406 120.75 263.855469 120.492188 262.765625 120.265625 C 262.726562 118.816406 262.535156 117.375 262.050781 115.957031 C 261.550781 114.511719 259.683594 114.714844 259.421875 116.207031 C 259.21875 117.386719 259.191406 118.589844 259.226562 119.769531 C 258.027344 119.71875 256.820312 119.8125 255.601562 120.183594 C 254.132812 120.628906 254.679688 122.730469 255.847656 123.113281 C 257.0625 123.515625 258.304688 123.671875 259.558594 123.726562 C 259.71875 124.988281 259.882812 126.242188 260.003906 127.503906 C 260.136719 128.929688 262.207031 129.117188 262.3125 127.605469 " fill-opacity="1" fill-rule="nonzero"/><g clip-path="url(#d058b88d02)"><path fill="#ffffff" d="M 63.726562 159.042969 C 64.59375 159.859375 65.46875 160.667969 66.277344 161.515625 C 67.285156 162.5625 69.074219 160.84375 68.324219 159.664062 C 67.683594 158.660156 67.078125 157.625 66.453125 156.621094 C 67.542969 155.511719 68.515625 154.289062 69.257812 152.871094 C 70.007812 151.410156 68.460938 150.117188 67.113281 151.019531 C 66.042969 151.734375 65.105469 152.601562 64.210938 153.503906 C 63.359375 152.539062 62.398438 151.671875 61.207031 151.007812 C 59.777344 150.199219 58.558594 152.175781 59.128906 153.367188 C 59.710938 154.597656 60.507812 155.675781 61.398438 156.691406 C 60.539062 157.746094 59.691406 158.816406 58.804688 159.828125 C 57.796875 160.996094 59.1875 162.738281 60.429688 161.703125 C 61.507812 160.800781 62.628906 159.933594 63.726562 159.042969 " fill-opacity="1" fill-rule="nonzero"/></g><path fill="#ffffff" d="M 117.273438 155.179688 C 116.503906 156.214844 117.785156 157.59375 118.761719 156.640625 C 119.605469 155.8125 120.496094 155.011719 121.355469 154.195312 C 122.136719 154.828125 122.929688 155.449219 123.664062 156.101562 C 124.574219 156.910156 125.96875 155.34375 125.265625 154.414062 C 124.65625 153.605469 124.082031 152.777344 123.488281 151.972656 C 124.335938 150.964844 125.070312 149.878906 125.601562 148.636719 C 126.140625 147.363281 124.753906 146.378906 123.679688 147.226562 C 122.832031 147.902344 122.09375 148.6875 121.402344 149.507812 C 120.625 148.75 119.761719 148.089844 118.714844 147.601562 C 117.460938 147.011719 116.566406 148.761719 117.121094 149.726562 C 117.691406 150.71875 118.4375 151.578125 119.25 152.363281 C 118.59375 153.316406 117.949219 154.257812 117.273438 155.179688 " fill-opacity="1" fill-rule="nonzero"/><path fill="#ffffff" d="M 186.074219 139.453125 C 185.605469 138.480469 185.167969 137.484375 184.710938 136.511719 C 185.808594 135.628906 186.804688 134.648438 187.617188 133.445312 C 188.445312 132.214844 187.195312 130.898438 185.894531 131.574219 C 184.855469 132.101562 183.925781 132.773438 183.03125 133.488281 C 182.367188 132.535156 181.597656 131.65625 180.597656 130.929688 C 179.398438 130.058594 178.101562 131.707031 178.476562 132.824219 C 178.878906 133.996094 179.476562 135.050781 180.171875 136.054688 C 179.292969 136.917969 178.417969 137.773438 177.511719 138.59375 C 176.492188 139.535156 177.550781 141.234375 178.777344 140.445312 C 179.835938 139.753906 180.941406 139.089844 182.011719 138.40625 C 182.703125 139.234375 183.402344 140.050781 184.039062 140.890625 C 184.832031 141.9375 186.617188 140.582031 186.074219 139.453125 " fill-opacity="1" fill-rule="nonzero"/><path fill="#ffffff" d="M 242.117188 105.128906 C 242.277344 104.144531 242.480469 103.148438 242.65625 102.15625 C 243.503906 102.195312 244.351562 102.21875 245.1875 102.300781 C 246.21875 102.394531 246.382812 100.625 245.429688 100.34375 C 244.609375 100.09375 243.800781 99.824219 242.992188 99.566406 C 243.0625 98.460938 243.019531 97.351562 242.753906 96.234375 C 242.480469 95.09375 241.042969 95.128906 240.734375 96.234375 C 240.492188 97.125 240.386719 98.023438 240.328125 98.9375 C 239.421875 98.8125 238.492188 98.792969 237.535156 98.988281 C 236.386719 99.214844 236.65625 100.863281 237.515625 101.234375 C 238.410156 101.628906 239.347656 101.847656 240.300781 101.972656 C 240.328125 102.945312 240.359375 103.917969 240.359375 104.878906 C 240.359375 105.976562 241.925781 106.265625 242.117188 105.128906 " fill-opacity="1" fill-rule="nonzero"/><path fill="#ffffff" d="M 271.191406 89.804688 C 271.160156 88.828125 271.175781 87.835938 271.164062 86.851562 C 271.988281 86.726562 272.808594 86.601562 273.625 86.523438 C 274.632812 86.429688 274.46875 84.699219 273.5 84.597656 C 272.671875 84.511719 271.839844 84.398438 271.015625 84.296875 C 270.878906 83.21875 270.632812 82.160156 270.171875 81.136719 C 269.699219 80.089844 268.320312 80.378906 268.230469 81.511719 C 268.164062 82.398438 268.226562 83.300781 268.332031 84.179688 C 267.4375 84.222656 266.542969 84.378906 265.664062 84.742188 C 264.597656 85.175781 265.15625 86.707031 266.050781 86.902344 C 266.980469 87.121094 267.925781 87.152344 268.859375 87.101562 C 269.070312 88.03125 269.28125 88.964844 269.457031 89.886719 C 269.65625 90.941406 271.21875 90.941406 271.191406 89.804688 " fill-opacity="1" fill-rule="nonzero"/><path fill="#ffffff" d="M 76.929688 190.082031 C 77.707031 189.058594 78.53125 188.054688 79.328125 187.039062 C 80.265625 187.597656 81.210938 188.136719 82.105469 188.726562 C 83.214844 189.453125 84.457031 187.546875 83.558594 186.65625 C 82.773438 185.890625 82.023438 185.09375 81.257812 184.316406 C 82.007812 183.105469 82.625 181.820312 82.992188 180.402344 C 83.363281 178.953125 81.722656 178.113281 80.703125 179.191406 C 79.898438 180.050781 79.238281 181.011719 78.628906 182.007812 C 77.671875 181.3125 76.632812 180.742188 75.4375 180.390625 C 73.992188 179.957031 73.316406 181.976562 74.0625 182.917969 C 74.839844 183.902344 75.769531 184.699219 76.769531 185.414062 C 76.21875 186.542969 75.675781 187.660156 75.097656 188.75 C 74.441406 189.992188 76.035156 191.253906 76.929688 190.082031 " fill-opacity="1" fill-rule="nonzero"/><path fill="#ffffff" d="M 232.011719 233.570312 C 232.027344 232.671875 232.082031 231.75 232.113281 230.839844 C 232.878906 230.765625 233.644531 230.683594 234.402344 230.652344 C 235.339844 230.601562 235.261719 228.996094 234.375 228.859375 C 233.609375 228.746094 232.847656 228.601562 232.089844 228.476562 C 232.015625 227.472656 231.832031 226.488281 231.457031 225.527344 C 231.0625 224.53125 229.777344 224.738281 229.644531 225.785156 C 229.539062 226.601562 229.5625 227.433594 229.625 228.25 C 228.789062 228.257812 227.960938 228.351562 227.128906 228.652344 C 226.125 229.003906 226.574219 230.445312 227.394531 230.671875 C 228.246094 230.910156 229.109375 230.984375 229.980469 230.972656 C 230.132812 231.84375 230.285156 232.710938 230.40625 233.570312 C 230.546875 234.554688 231.984375 234.617188 232.011719 233.570312 " fill-opacity="1" fill-rule="nonzero"/><path fill="#ffffff" d="M 136.171875 43.75 C 136.15625 41.988281 136.21875 40.195312 136.230469 38.425781 C 137.714844 38.230469 139.207031 38.035156 140.675781 37.917969 C 142.496094 37.773438 142.253906 34.65625 140.515625 34.441406 C 139.019531 34.265625 137.535156 34.027344 136.042969 33.828125 C 135.839844 31.871094 135.433594 29.957031 134.640625 28.09375 C 133.820312 26.199219 131.328125 26.675781 131.128906 28.703125 C 130.96875 30.316406 131.058594 31.925781 131.222656 33.519531 C 129.605469 33.570312 127.992188 33.816406 126.386719 34.441406 C 124.457031 35.183594 125.410156 37.949219 127.019531 38.355469 C 128.691406 38.777344 130.378906 38.859375 132.070312 38.800781 C 132.417969 40.484375 132.769531 42.164062 133.054688 43.839844 C 133.382812 45.757812 136.183594 45.789062 136.171875 43.75 " fill-opacity="1" fill-rule="nonzero"/><path fill="#f6d1de" d="M 82.957031 96.617188 C 83.148438 96.285156 83.335938 95.953125 83.527344 95.621094 C 84.917969 93.179688 81.125 91.015625 79.730469 93.46875 C 79.542969 93.800781 79.351562 94.121094 79.167969 94.453125 C 77.773438 96.90625 81.566406 99.058594 82.957031 96.617188 " fill-opacity="1" fill-rule="nonzero"/><path fill="#f6d1de" d="M 98.78125 68.351562 C 98.953125 68.058594 99.121094 67.757812 99.289062 67.46875 C 100.535156 65.285156 97.148438 63.347656 95.898438 65.535156 C 95.734375 65.832031 95.5625 66.125 95.398438 66.421875 C 94.148438 68.609375 97.539062 70.546875 98.78125 68.351562 " fill-opacity="1" fill-rule="nonzero"/><path fill="#f6d1de" d="M 129.613281 56.949219 C 132.03125 56.234375 130.917969 52.488281 128.5 53.203125 C 128.175781 53.304688 127.847656 53.398438 127.523438 53.492188 C 125.101562 54.21875 126.21875 57.957031 128.636719 57.238281 C 128.960938 57.148438 129.285156 57.042969 129.613281 56.949219 " fill-opacity="1" fill-rule="nonzero"/><path fill="#f6d1de" d="M 162.429688 45.199219 C 162.058594 45.042969 161.683594 44.898438 161.3125 44.753906 C 158.554688 43.6875 156.886719 47.960938 159.644531 49.039062 C 160.019531 49.183594 160.390625 49.328125 160.761719 49.472656 C 163.523438 50.550781 165.191406 46.265625 162.429688 45.199219 " fill-opacity="1" fill-rule="nonzero"/><path fill="#f6d1de" d="M 189.414062 61.257812 C 189.878906 61.433594 190.347656 61.621094 190.816406 61.796875 C 194.277344 63.152344 196.359375 57.789062 192.902344 56.441406 C 192.4375 56.253906 191.972656 56.070312 191.5 55.894531 C 188.042969 54.546875 185.953125 59.902344 189.414062 61.257812 " fill-opacity="1" fill-rule="nonzero"/><path fill="#f6d1de" d="M 222.742188 68.566406 C 222.347656 68.410156 221.960938 68.257812 221.570312 68.101562 C 218.667969 66.972656 216.917969 71.464844 219.820312 72.597656 C 220.214844 72.75 220.601562 72.90625 220.996094 73.050781 C 223.890625 74.1875 225.640625 69.695312 222.742188 68.566406 " fill-opacity="1" fill-rule="nonzero"/><path fill="#f6d1de" d="M 249.617188 84.78125 C 250.101562 84.96875 250.574219 85.15625 251.058594 85.339844 C 254.601562 86.726562 256.746094 81.230469 253.203125 79.84375 C 252.71875 79.65625 252.238281 79.46875 251.761719 79.285156 C 248.210938 77.898438 246.070312 83.40625 249.617188 84.78125 " fill-opacity="1" fill-rule="nonzero"/><path fill="#f6d1de" d="M 129.382812 213.125 C 129.183594 212.84375 128.976562 212.574219 128.773438 212.304688 C 127.261719 210.285156 124.128906 212.625 125.640625 214.644531 C 125.847656 214.914062 126.050781 215.191406 126.257812 215.460938 C 127.761719 217.480469 130.894531 215.140625 129.382812 213.125 " fill-opacity="1" fill-rule="nonzero"/><path fill="#f6d1de" d="M 110.582031 187 C 110.316406 186.648438 110.046875 186.292969 109.785156 185.933594 C 107.8125 183.304688 103.734375 186.355469 105.699219 188.988281 C 105.96875 189.347656 106.234375 189.703125 106.5 190.054688 C 108.46875 192.683594 112.554688 189.640625 110.582031 187 " fill-opacity="1" fill-rule="nonzero"/><path fill="#f6d1de" d="M 105.964844 156.527344 C 105.980469 156.113281 105.996094 155.707031 106.007812 155.292969 C 106.113281 152.25 101.390625 152.082031 101.285156 155.128906 C 101.273438 155.542969 101.257812 155.945312 101.242188 156.359375 C 101.132812 159.40625 105.855469 159.570312 105.964844 156.527344 " fill-opacity="1" fill-rule="nonzero"/><path fill="#f6d1de" d="M 106.605469 124.074219 C 106.617188 123.746094 106.632812 123.425781 106.644531 123.101562 C 106.722656 120.699219 103.003906 120.566406 102.921875 122.96875 C 102.902344 123.289062 102.894531 123.621094 102.882812 123.941406 C 102.800781 126.34375 106.523438 126.480469 106.605469 124.074219 " fill-opacity="1" fill-rule="nonzero"/><path fill="#f6d1de" d="M 153.179688 112.964844 C 152.910156 112.988281 152.640625 113.019531 152.371094 113.039062 C 150.378906 113.226562 150.664062 116.3125 152.65625 116.125 C 152.925781 116.101562 153.195312 116.074219 153.464844 116.050781 C 155.449219 115.863281 155.167969 112.777344 153.179688 112.964844 " fill-opacity="1" fill-rule="nonzero"/><path fill="#f6d1de" d="M 185.691406 113.183594 C 187.808594 112.988281 187.503906 109.703125 185.390625 109.902344 C 185.101562 109.921875 184.816406 109.953125 184.53125 109.972656 C 182.414062 110.171875 182.714844 113.453125 184.832031 113.257812 C 185.117188 113.234375 185.402344 113.203125 185.691406 113.183594 " fill-opacity="1" fill-rule="nonzero"/><path fill="#f6d1de" d="M 103.261719 224.054688 C 106.476562 226.136719 109.695312 221.144531 106.480469 219.078125 C 106.046875 218.785156 105.613281 218.507812 105.175781 218.226562 C 101.960938 216.15625 98.742188 221.136719 101.957031 223.21875 C 102.390625 223.496094 102.828125 223.777344 103.261719 224.054688 " fill-opacity="1" fill-rule="nonzero"/><path fill="#f6d1de" d="M 130.875 240.207031 C 132.558594 241.296875 134.242188 238.6875 132.558594 237.609375 C 132.328125 237.453125 132.101562 237.308594 131.875 237.164062 C 130.199219 236.078125 128.515625 238.6875 130.191406 239.773438 C 130.421875 239.917969 130.648438 240.0625 130.875 240.207031 " fill-opacity="1" fill-rule="nonzero"/><path fill="#f6d1de" d="M 160.21875 245.191406 C 163.554688 244.371094 162.285156 239.195312 158.945312 240.011719 C 158.496094 240.125 158.046875 240.242188 157.589844 240.34375 C 154.253906 241.171875 155.523438 246.339844 158.863281 245.519531 C 159.320312 245.40625 159.765625 245.304688 160.21875 245.191406 " fill-opacity="1" fill-rule="nonzero"/><path fill="#f6d1de" d="M 190.257812 237.808594 C 190.710938 237.703125 191.164062 237.589844 191.621094 237.472656 C 194.972656 236.648438 193.695312 231.449219 190.339844 232.277344 C 189.882812 232.390625 189.433594 232.496094 188.980469 232.609375 C 185.625 233.4375 186.902344 238.636719 190.257812 237.808594 " fill-opacity="1" fill-rule="nonzero"/><path fill="#f6d1de" d="M 212.8125 219.96875 C 212.675781 220.246094 212.535156 220.527344 212.394531 220.816406 C 211.363281 222.898438 214.601562 224.492188 215.628906 222.410156 C 215.769531 222.121094 215.910156 221.839844 216.050781 221.558594 C 217.078125 219.46875 213.84375 217.875 212.8125 219.96875 " fill-opacity="1" fill-rule="nonzero"/><path fill="#f6d1de" d="M 227.273438 191.109375 C 227.148438 191.355469 227.023438 191.605469 226.902344 191.863281 C 225.980469 193.71875 228.867188 195.148438 229.785156 193.285156 C 229.910156 193.035156 230.035156 192.789062 230.15625 192.527344 C 231.078125 190.664062 228.191406 189.246094 227.273438 191.109375 " fill-opacity="1" fill-rule="nonzero"/><path fill="#f6d1de" d="M 244.921875 165.003906 C 245.125 164.589844 245.332031 164.175781 245.535156 163.753906 C 247.058594 160.667969 242.28125 158.316406 240.757812 161.390625 C 240.550781 161.816406 240.347656 162.230469 240.136719 162.644531 C 238.621094 165.730469 243.402344 168.089844 244.921875 165.003906 " fill-opacity="1" fill-rule="nonzero"/><path fill="#f6d1de" d="M 274.355469 182.515625 C 274.378906 182.121094 274.402344 181.726562 274.425781 181.34375 C 274.609375 178.445312 270.121094 178.167969 269.9375 181.0625 C 269.914062 181.449219 269.886719 181.84375 269.867188 182.234375 C 269.683594 185.136719 274.171875 185.414062 274.355469 182.515625 " fill-opacity="1" fill-rule="nonzero"/><path fill="#f6d1de" d="M 276.714844 150.363281 C 276.746094 149.921875 276.769531 149.464844 276.804688 149.007812 C 277.011719 145.664062 271.820312 145.34375 271.609375 148.6875 C 271.585938 149.144531 271.550781 149.589844 271.527344 150.042969 C 271.316406 153.390625 276.507812 153.71875 276.714844 150.363281 " fill-opacity="1" fill-rule="nonzero"/><path fill="#f6d1de" d="M 278.746094 118.101562 C 278.765625 117.761719 278.785156 117.429688 278.804688 117.09375 C 279.582031 117.492188 280.644531 117.222656 280.804688 116.082031 C 281.03125 114.460938 279.066406 114.167969 278.285156 114.96875 C 276.980469 113.417969 273.78125 113.800781 273.617188 116.414062 C 273.585938 116.867188 273.5625 117.324219 273.53125 117.78125 C 273.324219 121.136719 278.53125 121.464844 278.746094 118.101562 " fill-opacity="1" fill-rule="nonzero"/><path fill="#f6d1de" d="M 76.5625 164.882812 C 76.464844 164.613281 76.371094 164.34375 76.273438 164.0625 C 75.546875 162.066406 72.4375 163.183594 73.160156 165.183594 C 73.257812 165.460938 73.359375 165.730469 73.453125 166 C 74.175781 168.011719 77.289062 166.890625 76.5625 164.882812 " fill-opacity="1" fill-rule="nonzero"/><path fill="#f6d1de" d="M 86.773438 82.761719 C 87.144531 80.070312 82.722656 80.269531 83.230469 82.722656 C 83.628906 84.617188 86.464844 84.894531 86.773438 82.761719 " fill-opacity="1" fill-rule="nonzero"/><path fill="#f6d1de" d="M 96.832031 53.644531 C 97.238281 50.738281 92.441406 50.945312 92.996094 53.605469 C 93.421875 55.664062 96.503906 55.976562 96.832031 53.644531 " fill-opacity="1" fill-rule="nonzero"/><path fill="#f6d1de" d="M 124.851562 38.714844 C 125.460938 34.347656 118.28125 34.667969 119.109375 38.652344 C 119.753906 41.730469 124.359375 42.183594 124.851562 38.714844 " fill-opacity="1" fill-rule="nonzero"/><path fill="#f6d1de" d="M 152.941406 27.945312 C 153.375 24.820312 148.230469 25.046875 148.824219 27.90625 C 149.285156 30.113281 152.589844 30.433594 152.941406 27.945312 " fill-opacity="1" fill-rule="nonzero"/><g clip-path="url(#a23d9c5f60)"><path fill="#f6d1de" d="M 183.03125 25.089844 C 183.246094 23.527344 180.683594 23.640625 180.980469 25.070312 C 181.210938 26.164062 182.851562 26.332031 183.03125 25.089844 " fill-opacity="1" fill-rule="nonzero"/></g><path fill="#f6d1de" d="M 213.519531 30.917969 C 213.761719 29.167969 210.894531 29.292969 211.222656 30.890625 C 211.484375 32.121094 213.320312 32.296875 213.519531 30.917969 " fill-opacity="1" fill-rule="nonzero"/><path fill="#f6d1de" d="M 240.925781 47.921875 C 241.515625 43.707031 234.578125 44.015625 235.375 47.867188 C 236.003906 50.839844 240.453125 51.277344 240.925781 47.921875 " fill-opacity="1" fill-rule="nonzero"/><path fill="#f6d1de" d="M 66.617188 139.347656 C 67.15625 135.527344 60.855469 135.808594 61.578125 139.296875 C 62.148438 142 66.1875 142.394531 66.617188 139.347656 " fill-opacity="1" fill-rule="nonzero"/><path fill="#f6d1de" d="M 73.308594 168.898438 C 73.578125 166.972656 70.40625 167.105469 70.769531 168.878906 C 71.054688 170.234375 73.089844 170.429688 73.308594 168.898438 " fill-opacity="1" fill-rule="nonzero"/><path fill="#f6d1de" d="M 81.371094 198.667969 C 81.671875 196.515625 78.117188 196.667969 78.523438 198.648438 C 78.847656 200.171875 81.128906 200.394531 81.371094 198.667969 " fill-opacity="1" fill-rule="nonzero"/><path fill="#f6d1de" d="M 91.292969 226.03125 C 91.882812 221.800781 84.902344 222.097656 85.703125 225.980469 C 86.335938 228.976562 90.816406 229.410156 91.292969 226.03125 " fill-opacity="1" fill-rule="nonzero"/><path fill="#f6d1de" d="M 116.9375 241.929688 C 117.390625 238.695312 112.066406 238.925781 112.679688 241.886719 C 113.160156 244.164062 116.570312 244.507812 116.9375 241.929688 " fill-opacity="1" fill-rule="nonzero"/><path fill="#f6d1de" d="M 143.460938 252.167969 C 143.828125 249.570312 139.554688 249.765625 140.042969 252.136719 C 140.425781 253.96875 143.171875 254.238281 143.460938 252.167969 " fill-opacity="1" fill-rule="nonzero"/><g clip-path="url(#33b97c0931)"><path fill="#f6d1de" d="M 173.425781 253.816406 C 173.625 252.40625 171.3125 252.507812 171.578125 253.792969 C 171.785156 254.777344 173.265625 254.933594 173.425781 253.816406 " fill-opacity="1" fill-rule="nonzero"/></g><path fill="#f6d1de" d="M 201.691406 253.546875 C 201.933594 254.683594 203.628906 254.847656 203.8125 253.566406 C 204.035156 251.960938 201.390625 252.074219 201.691406 253.546875 " fill-opacity="1" fill-rule="nonzero"/><path fill="#f6d1de" d="M 231.011719 246.367188 C 231.460938 243.160156 226.175781 243.386719 226.789062 246.328125 C 227.261719 248.585938 230.648438 248.925781 231.011719 246.367188 " fill-opacity="1" fill-rule="nonzero"/><path fill="#f6d1de" d="M 215.558594 118.433594 C 215.9375 115.730469 211.492188 115.929688 212.003906 118.390625 C 212.40625 120.296875 215.253906 120.574219 215.558594 118.433594 " fill-opacity="1" fill-rule="nonzero"/><path fill="#f6d1de" d="M 195.574219 100.839844 C 195.960938 98.097656 191.4375 98.292969 191.960938 100.800781 C 192.363281 102.746094 195.269531 103.023438 195.574219 100.839844 " fill-opacity="1" fill-rule="nonzero"/><path fill="#f6d1de" d="M 164.925781 97 C 165.289062 94.421875 161.046875 94.609375 161.535156 96.960938 C 161.917969 98.78125 164.636719 99.050781 164.925781 97 " fill-opacity="1" fill-rule="nonzero"/><path fill="#f6d1de" d="M 90.085938 110.523438 C 90.597656 106.828125 84.515625 107.097656 85.210938 110.472656 C 85.761719 113.078125 89.667969 113.460938 90.085938 110.523438 " fill-opacity="1" fill-rule="nonzero"/><path fill="#f6d1de" d="M 110.074219 86.9375 C 110.644531 82.835938 103.890625 83.136719 104.667969 86.882812 C 105.28125 89.773438 109.609375 90.195312 110.074219 86.9375 " fill-opacity="1" fill-rule="nonzero"/><path fill="#f6d1de" d="M 135.863281 72.222656 C 136.078125 70.691406 133.550781 70.804688 133.847656 72.203125 C 134.070312 73.277344 135.691406 73.445312 135.863281 72.222656 " fill-opacity="1" fill-rule="nonzero"/><path fill="#f6d1de" d="M 167.980469 63.605469 C 168.578125 59.332031 161.550781 59.644531 162.359375 63.546875 C 162.996094 66.558594 167.496094 67.003906 167.980469 63.605469 " fill-opacity="1" fill-rule="nonzero"/><path fill="#f6d1de" d="M 194.355469 77.027344 C 194.703125 74.554688 190.625 74.726562 191.097656 76.996094 C 191.457031 78.746094 194.078125 79.003906 194.355469 77.027344 " fill-opacity="1" fill-rule="nonzero"/><path fill="#f6d1de" d="M 111.617188 135.703125 C 112.1875 131.632812 105.496094 131.933594 106.269531 135.652344 C 106.867188 138.519531 111.164062 138.945312 111.617188 135.703125 " fill-opacity="1" fill-rule="nonzero"/><path fill="#f6d1de" d="M 124.488281 110.117188 C 124.898438 112.074219 127.820312 112.363281 128.136719 110.160156 C 128.523438 107.386719 123.957031 107.59375 124.488281 110.117188 " fill-opacity="1" fill-rule="nonzero"/><path fill="#f6d1de" d="M 152.605469 91.667969 C 152.808594 90.167969 150.339844 90.277344 150.628906 91.644531 C 150.851562 92.703125 152.433594 92.859375 152.605469 91.667969 " fill-opacity="1" fill-rule="nonzero"/><path fill="#f6d1de" d="M 191.660156 192.859375 C 192.015625 190.269531 187.773438 190.457031 188.265625 192.816406 C 188.640625 194.640625 191.363281 194.910156 191.660156 192.859375 " fill-opacity="1" fill-rule="nonzero"/><path fill="#f6d1de" d="M 208.214844 171.996094 C 208.53125 169.746094 204.820312 169.902344 205.25 171.964844 C 205.582031 173.558594 207.964844 173.796875 208.214844 171.996094 " fill-opacity="1" fill-rule="nonzero"/><path fill="#f6d1de" d="M 210.464844 141.324219 C 210.847656 138.601562 206.355469 138.800781 206.875 141.296875 C 207.28125 143.210938 210.15625 143.5 210.464844 141.324219 " fill-opacity="1" fill-rule="nonzero"/><path fill="#f6d1de" d="M 233.609375 143.3125 C 233.960938 140.808594 229.84375 140.996094 230.316406 143.28125 C 230.683594 145.042969 233.332031 145.3125 233.609375 143.3125 " fill-opacity="1" fill-rule="nonzero"/><path fill="#f6d1de" d="M 220.714844 114.09375 C 221.019531 115.5625 223.203125 115.773438 223.4375 114.125 C 223.726562 112.054688 220.320312 112.210938 220.714844 114.09375 " fill-opacity="1" fill-rule="nonzero"/><path fill="#f6d1de" d="M 258.875 232.609375 C 259.355469 229.191406 253.722656 229.441406 254.371094 232.566406 C 254.878906 234.980469 258.492188 235.332031 258.875 232.609375 " fill-opacity="1" fill-rule="nonzero"/><path fill="#f6d1de" d="M 271.105469 204.339844 C 271.597656 200.808594 265.796875 201.070312 266.464844 204.289062 C 266.988281 206.773438 270.707031 207.148438 271.105469 204.339844 " fill-opacity="1" fill-rule="nonzero"/><g clip-path="url(#c095ef55ed)"><path fill="#f6d1de" d="M 283.414062 176.085938 C 283.941406 172.316406 277.734375 172.597656 278.449219 176.03125 C 279.007812 178.695312 282.992188 179.085938 283.414062 176.085938 " fill-opacity="1" fill-rule="nonzero"/></g><g clip-path="url(#ad81ed1db1)"><path fill="#f6d1de" d="M 279.835938 146.804688 C 280.234375 148.6875 283.0625 148.96875 283.367188 146.835938 C 283.742188 144.152344 279.328125 144.351562 279.835938 146.804688 " fill-opacity="1" fill-rule="nonzero"/></g><g clip-path="url(#bfd6c77bff)"><path fill="#d6d1e9" d="M 196.046875 224.242188 C 196.328125 224.226562 196.601562 224.214844 196.863281 224.214844 C 197.570312 224.214844 198.011719 224.316406 198.335938 224.5625 C 198.492188 224.671875 198.636719 224.792969 198.777344 224.914062 L 198.984375 225.101562 L 199.265625 225.132812 C 201.523438 225.382812 204.6875 226.140625 207.585938 228.222656 L 217.269531 228.222656 C 220.195312 224.257812 223.542969 220.011719 227.5 215.265625 L 227.929688 214.753906 L 227.546875 214.203125 C 226.855469 213.199219 226.558594 211.484375 226.730469 209.488281 L 226.792969 208.726562 L 203.195312 203.441406 L 203.375 204.703125 C 203.550781 205.945312 203.519531 207.328125 203.277344 209.027344 C 203.230469 209.304688 203.183594 209.570312 203.136719 209.835938 L 203.105469 210.011719 C 202.316406 214.25 200.59375 217.660156 197.851562 220.445312 C 197.109375 221.199219 196.292969 221.953125 195.425781 222.699219 L 193.441406 224.394531 Z M 77.691406 245.984375 L 97.613281 228.21875 L 133.824219 228.21875 C 137.980469 224.207031 143.398438 223.664062 145.210938 223.601562 L 145.304688 224.246094 L 146.402344 223.675781 C 146.914062 223.414062 147.4375 223.285156 148.011719 223.285156 C 148.261719 223.285156 148.519531 223.308594 148.785156 223.359375 L 151.496094 223.855469 L 149.730469 221.925781 C 147.867188 219.890625 146.269531 217.546875 144.96875 214.9375 L 144.816406 214.632812 L 144.601562 214.5 C 142.953125 213.511719 141.453125 212.363281 140.140625 211.082031 L 140.019531 210.96875 L 139.871094 210.902344 C 137.714844 209.984375 136.203125 207.972656 135.917969 205.648438 L 135.898438 205.484375 L 135.820312 205.339844 C 128.832031 192.367188 133.710938 173.230469 140 166.269531 C 144.035156 161.828125 151.675781 157.9375 159.941406 156.109375 C 164.207031 155.164062 168.910156 154.664062 173.542969 154.664062 C 181.167969 154.664062 188.488281 156.011719 193.621094 158.367188 C 200.667969 161.597656 205.128906 167.441406 206.183594 174.808594 C 206.746094 179.207031 204.898438 179.769531 204.289062 179.953125 L 203.652344 180.144531 L 203.667969 180.8125 C 203.679688 181.355469 203.695312 181.851562 203.71875 182.257812 C 203.816406 185.445312 203.578125 188.652344 203.03125 191.527344 L 202.824219 192.632812 L 289.371094 187.722656 L 290.394531 187.667969 L 290.539062 187.773438 L 290.929688 187.683594 C 291.035156 187.660156 291.121094 187.648438 291.191406 187.648438 C 293.660156 187.648438 296.425781 195.21875 296.425781 205.347656 C 296.425781 215.476562 293.660156 223.046875 291.191406 223.046875 C 291.105469 223.046875 291.007812 223.035156 290.894531 223.003906 L 290.570312 222.921875 L 290.511719 222.953125 C 290.046875 222.871094 289.199219 222.695312 289.199219 222.695312 L 242.191406 212.171875 L 242.003906 213.035156 C 241.59375 214.929688 240.113281 217.117188 238.914062 218.347656 C 238.625 218.644531 238.082031 219.199219 237.738281 219.335938 L 237.242188 219.535156 L 237.191406 220.070312 C 237.183594 220.128906 236.589844 226.183594 233.464844 236.964844 L 240.488281 244.261719 L 249.019531 279.609375 L 240.203125 279.609375 L 240.203125 347.019531 L 112.832031 347.019531 L 97.457031 331.648438 L 97.457031 331.257812 L 97.460938 331.253906 L 97.675781 257.070312 L 88.21875 265.074219 L 77.691406 245.984375 " fill-opacity="1" fill-rule="nonzero"/></g><path fill="#fabca4" d="M 209.277344 228.429688 C 210.601562 229.585938 211.835938 231.054688 212.855469 232.90625 C 213.882812 231.402344 214.945312 229.90625 216.019531 228.429688 C 219.777344 223.292969 223.703125 218.449219 226.824219 214.703125 C 225.902344 213.367188 225.6875 211.324219 225.855469 209.414062 C 226.074219 206.855469 225.265625 199.972656 230.519531 201.6875 C 231.613281 202.042969 242.863281 213.222656 242.863281 213.222656 C 242.433594 215.203125 240.957031 217.511719 239.542969 218.960938 C 239.023438 219.496094 238.53125 219.964844 238.066406 220.152344 C 238.066406 220.152344 237.484375 226.433594 234.125 237.847656 C 233.542969 239.828125 232.875 241.964844 232.113281 244.242188 L 203.515625 244.242188 L 199.363281 224.261719 C 199.363281 224.261719 201.835938 224.625 203.347656 225.117188 C 205.257812 225.742188 207.359375 226.761719 209.277344 228.429688 " fill-opacity="1" fill-rule="nonzero"/><path fill="#fabca4" d="M 115.523438 244.242188 C 115.613281 242.777344 115.957031 241.429688 116.671875 240.621094 C 116.691406 240.597656 116.714844 240.59375 116.738281 240.59375 C 117.398438 239.804688 118.675781 239.441406 119.804688 239.761719 C 120.792969 238.425781 122.722656 238.164062 124.230469 238.882812 C 124.316406 238.925781 124.367188 238.984375 124.394531 239.050781 C 125.496094 238.464844 126.929688 238.457031 127.871094 239.328125 C 127.996094 239.269531 128.210938 239.199219 128.417969 239.136719 C 128.203125 237.84375 128.28125 236.46875 128.746094 235 C 129.621094 232.234375 130.902344 230.09375 132.382812 228.429688 C 137.84375 222.28125 145.976562 222.726562 145.976562 222.726562 L 146.464844 222.726562 L 139.535156 244.242188 L 130.910156 244.242188 C 130.601562 244.90625 130.171875 245.5 129.613281 246.042969 C 129.101562 246.539062 128.171875 246.378906 128.039062 245.429688 C 128.003906 245.160156 128.023438 244.726562 128.066406 244.242188 L 128.015625 244.242188 C 127.621094 245.285156 126.917969 246.144531 125.710938 246.042969 C 125.164062 246 124.910156 245.859375 124.523438 245.070312 C 124.445312 244.910156 124.4375 244.609375 124.464844 244.242188 L 124.429688 244.242188 C 124.125 244.664062 123.832031 245.117188 123.320312 245.300781 C 122.578125 245.570312 121.765625 245.519531 121.378906 244.75 C 121.316406 244.628906 121.269531 244.457031 121.230469 244.242188 L 120.863281 244.242188 C 120.746094 244.441406 120.613281 244.632812 120.511719 244.800781 C 120.277344 245.175781 119.746094 245.625 119.28125 245.667969 C 118.691406 245.726562 118.28125 245.25 118.210938 244.6875 C 118.191406 244.539062 118.191406 244.390625 118.199219 244.242188 L 115.523438 244.242188 " fill-opacity="1" fill-rule="nonzero"/><path fill="#fabca4" d="M 144.148438 215.253906 C 143.675781 214.296875 140.421875 212.09375 139.523438 211.710938 C 137.125 210.6875 135.375 208.441406 135.046875 205.757812 C 135.007812 205.457031 134.984375 205.152344 134.984375 204.84375 C 134.984375 201.53125 136.539062 196.105469 139.523438 195.128906 C 139.523438 195.117188 139.523438 195.105469 139.523438 195.09375 C 142.597656 196.546875 146.230469 194.167969 148.148438 190.714844 C 149.273438 188.796875 150.015625 186.703125 150.722656 184.617188 C 151.042969 185.734375 151.636719 186.695312 152.617188 187.382812 C 156.574219 189.992188 160.628906 188.515625 163.609375 185.882812 C 166.714844 183.261719 169.929688 177.527344 171.226562 173.8125 C 171.5 173 171.824219 172.042969 172.136719 171.003906 C 172.25 171.167969 172.363281 171.335938 172.46875 171.492188 C 175.242188 175.527344 179.671875 179.714844 184.335938 181.605469 C 189.183594 183.5 194.386719 182.128906 196.011719 176.589844 C 197.21875 177.132812 200.335938 178.679688 201.523438 178.972656 C 202.25 180.652344 202.660156 183.695312 203.085938 185.554688 C 203.507812 187.402344 202.84375 189.757812 203.003906 191.742188 L 204.242188 204.578125 C 204.460938 206.105469 204.363281 207.644531 204.144531 209.171875 C 204.085938 209.515625 204.027344 209.84375 203.972656 210.171875 C 203.183594 214.378906 201.511719 217.984375 198.476562 221.0625 C 197.6875 221.863281 196.855469 222.628906 195.996094 223.367188 C 190.75 227.855469 184.269531 231.066406 177.238281 232.011719 C 174.390625 232.441406 171.441406 232.496094 168.453125 232.113281 C 160.183594 231.050781 153.730469 227.601562 149.078125 222.515625 C 147.140625 220.398438 145.507812 217.992188 144.195312 215.355469 C 144.179688 215.320312 144.164062 215.289062 144.148438 215.253906 " fill-opacity="1" fill-rule="nonzero"/><path fill="#462718" d="M 171.84375 198.605469 C 171.902344 197.484375 171.125 196.535156 170.105469 196.484375 C 169.089844 196.433594 168.21875 197.296875 168.160156 198.414062 C 168.101562 199.535156 168.882812 200.484375 169.898438 200.535156 C 170.914062 200.585938 171.789062 199.722656 171.84375 198.605469 " fill-opacity="1" fill-rule="nonzero"/><path fill="#462718" d="M 192.398438 198.132812 C 192.457031 197.011719 191.679688 196.0625 190.660156 196.011719 C 189.640625 195.960938 188.769531 196.824219 188.710938 197.941406 C 188.65625 199.0625 189.433594 200.011719 190.453125 200.0625 C 191.472656 200.117188 192.34375 199.25 192.398438 198.132812 " fill-opacity="1" fill-rule="nonzero"/><path fill="#462718" d="M 187.933594 188.464844 C 189.296875 187.683594 191.8125 187.03125 192.785156 188.761719 C 192.976562 189.097656 192.664062 189.453125 192.308594 189.382812 C 191.675781 189.253906 191.136719 188.953125 190.476562 188.914062 C 189.757812 188.875 189 189.171875 188.347656 189.445312 C 187.78125 189.6875 187.421875 188.761719 187.933594 188.464844 " fill-opacity="1" fill-rule="nonzero"/><path fill="#462718" d="M 167.902344 189.902344 C 169.261719 189.121094 171.777344 188.46875 172.75 190.199219 C 172.941406 190.539062 172.628906 190.890625 172.273438 190.820312 C 171.640625 190.691406 171.105469 190.390625 170.441406 190.351562 C 169.722656 190.3125 168.964844 190.609375 168.316406 190.886719 C 167.742188 191.125 167.386719 190.199219 167.902344 189.902344 " fill-opacity="1" fill-rule="nonzero"/><path fill="#462718" d="M 289.324219 186.847656 L 290.652344 186.773438 C 290.652344 186.773438 290.683594 186.789062 290.738281 186.832031 C 288.105469 187.574219 288.0625 223.023438 290.683594 223.855469 C 290.667969 223.898438 289.007812 223.554688 289.007812 223.554688 C 286.488281 220.933594 282.640625 214.222656 282.640625 205.707031 C 282.640625 196.835938 286.632812 189.179688 289.324219 186.847656 " fill-opacity="1" fill-rule="nonzero"/><path fill="#462718" d="M 139.351562 165.679688 C 143.871094 160.707031 152.089844 156.945312 159.75 155.25 C 171.773438 152.589844 185.480469 153.667969 193.988281 157.570312 C 200.957031 160.761719 205.890625 166.566406 207.054688 174.699219 C 207.535156 178.449219 206.417969 180.222656 204.546875 180.792969 C 204.558594 181.324219 204.574219 181.8125 204.597656 182.234375 C 204.691406 185.339844 204.484375 188.59375 203.894531 191.691406 L 203.003906 191.738281 C 202.84375 189.757812 202.546875 187.808594 202.125 185.957031 C 201.703125 184.101562 201.132812 182.328125 200.402344 180.652344 C 199.21875 180.351562 197.976562 179.890625 196.769531 179.347656 C 195.148438 184.886719 188.519531 185.773438 183.667969 183.878906 C 179.003906 181.988281 175.476562 178.335938 172.707031 174.300781 C 172.597656 174.144531 172.484375 173.980469 172.371094 173.8125 C 172.058594 174.851562 171.734375 175.8125 171.464844 176.625 C 170.164062 180.335938 168.066406 185.503906 164.960938 188.125 C 161.980469 190.757812 157.070312 193.441406 153.113281 190.832031 C 152.128906 190.144531 151.535156 189.183594 151.214844 188.066406 C 150.507812 190.152344 149.765625 192.246094 148.640625 194.167969 C 146.722656 197.617188 143.203125 199.203125 140.128906 197.753906 C 137.144531 198.730469 134.984375 201.53125 134.984375 204.84375 C 134.984375 205.152344 135.007812 205.457031 135.046875 205.757812 C 127.679688 192.078125 133.117188 172.582031 139.351562 165.679688 " fill-opacity="1" fill-rule="nonzero"/><path fill="#462718" d="M 142.855469 212.285156 C 143.246094 213.300781 143.671875 214.296875 144.148438 215.253906 C 142.402344 214.207031 140.867188 213.015625 139.523438 211.710938 C 140.421875 212.09375 141.410156 212.304688 142.445312 212.304688 C 142.585938 212.304688 142.71875 212.292969 142.855469 212.285156 " fill-opacity="1" fill-rule="nonzero"/><path fill="#f59382" d="M 157.554688 201.128906 C 154.492188 201.128906 152.007812 203.609375 152.007812 206.675781 C 152.007812 209.738281 154.492188 212.21875 157.554688 212.21875 C 160.617188 212.21875 163.097656 209.738281 163.097656 206.675781 C 163.097656 203.609375 160.617188 201.128906 157.554688 201.128906 " fill-opacity="1" fill-rule="nonzero"/><path fill="#f59382" d="M 202.8125 198.167969 C 202.882812 198.152344 202.957031 198.152344 203.027344 198.152344 C 203.027344 198.210938 203.011719 198.265625 203.011719 198.324219 C 202.855469 200.3125 203.800781 202.128906 204.15625 204.046875 C 204.488281 205.75 204.386719 207.46875 204.144531 209.171875 C 204.101562 209.171875 204.070312 209.183594 204.027344 209.183594 C 200.980469 209.515625 198.246094 207.324219 197.902344 204.277344 C 197.574219 201.242188 199.761719 198.492188 202.8125 198.167969 " fill-opacity="1" fill-rule="nonzero"/><path fill="#f59382" d="M 181.488281 200.753906 C 181.273438 200.675781 181.046875 200.554688 180.777344 200.53125 C 180.523438 200.457031 180.242188 200.484375 179.972656 200.492188 C 179.695312 200.535156 179.421875 200.589844 179.164062 200.699219 C 178.890625 200.765625 178.675781 200.90625 178.460938 200.996094 C 178.042969 201.242188 177.734375 201.398438 177.734375 201.398438 C 177.734375 201.398438 177.769531 201.320312 177.84375 201.195312 C 177.933594 201.078125 178.011719 200.878906 178.191406 200.699219 C 178.386719 200.539062 178.585938 200.265625 178.894531 200.128906 C 179.171875 199.941406 179.527344 199.851562 179.890625 199.78125 C 180.074219 199.761719 180.261719 199.789062 180.441406 199.792969 C 180.628906 199.78125 180.796875 199.875 180.960938 199.929688 C 181.300781 200.019531 181.519531 200.277344 181.726562 200.429688 C 181.921875 200.601562 182 200.828125 182.085938 200.941406 C 182.160156 201.070312 182.191406 201.148438 182.191406 201.148438 C 182.191406 201.148438 182.109375 201.109375 181.984375 201.035156 C 181.859375 200.964844 181.691406 200.851562 181.488281 200.753906 " fill-opacity="1" fill-rule="nonzero"/><path fill="#f59382" d="M 188.144531 204.21875 C 188.144531 209.191406 183.949219 214.070312 178.179688 212.738281 C 173.597656 211.679688 172.167969 207.847656 171.875 204.957031 C 176.746094 205.429688 183.375 205.058594 188.144531 204.21875 " fill-opacity="1" fill-rule="nonzero"/><path fill="#f59382" d="M 212.375 233.425781 C 212.433594 233.347656 212.546875 233.335938 212.625 233.398438 C 212.703125 233.457031 212.714844 233.570312 212.65625 233.648438 C 210.96875 235.816406 208.945312 239.144531 206.636719 243.535156 C 206.605469 243.597656 206.542969 243.628906 206.480469 243.628906 C 206.453125 243.628906 206.421875 243.625 206.394531 243.609375 C 206.308594 243.5625 206.277344 243.457031 206.320312 243.371094 C 208.636719 238.957031 210.671875 235.613281 212.375 233.425781 " fill-opacity="1" fill-rule="nonzero"/><path fill="#f59382" d="M 128.46875 239.308594 C 128.378906 239.339844 128.265625 239.28125 128.238281 239.195312 C 128.207031 239.097656 128.265625 239.003906 128.355469 238.976562 C 128.425781 238.945312 128.511719 238.941406 128.566406 238.929688 C 128.726562 238.886719 128.867188 238.859375 128.9375 238.859375 C 129.441406 238.832031 129.96875 238.980469 130.457031 239.238281 C 131.414062 239.765625 131.789062 240.46875 131.746094 241.539062 C 131.746094 242.300781 131.574219 243.363281 131.386719 244.242188 L 131.027344 244.242188 C 131.199219 243.363281 131.386719 242.285156 131.386719 241.539062 C 131.414062 240.609375 131.113281 239.941406 130.285156 239.480469 C 129.855469 239.253906 129.414062 239.152344 128.980469 239.167969 C 128.925781 239.183594 128.8125 239.210938 128.667969 239.253906 C 128.597656 239.269531 128.523438 239.28125 128.46875 239.308594 " fill-opacity="1" fill-rule="nonzero"/><path fill="#f59382" d="M 128.242188 239.835938 C 128.742188 240.3125 128.8125 241.03125 128.824219 241.691406 C 128.835938 242.417969 128.769531 243.460938 128.371094 244.09375 C 128.328125 244.160156 128.238281 244.113281 128.25 244.042969 C 128.476562 242.800781 129.101562 241.035156 128.144531 239.929688 C 128.085938 239.867188 128.175781 239.773438 128.242188 239.835938 " fill-opacity="1" fill-rule="nonzero"/><path fill="#f59382" d="M 124.847656 239.601562 C 125.710938 240.851562 125.714844 242.867188 124.894531 244.144531 C 124.84375 244.222656 124.699219 244.171875 124.734375 244.078125 C 125.304688 242.699219 125.519531 241.019531 124.710938 239.683594 C 124.65625 239.59375 124.789062 239.519531 124.847656 239.601562 " fill-opacity="1" fill-rule="nonzero"/><path fill="#f59382" d="M 120.464844 240.042969 C 121.769531 240.414062 122.191406 242.574219 121.648438 243.667969 C 121.597656 243.773438 121.457031 243.695312 121.472656 243.59375 C 121.644531 242.515625 121.640625 240.703125 120.417969 240.207031 C 120.316406 240.167969 120.355469 240.011719 120.464844 240.042969 " fill-opacity="1" fill-rule="nonzero"/><path fill="#f59382" d="M 117.210938 241.875 C 117.464844 241.453125 117.847656 241.527344 118.101562 241.902344 C 118.421875 242.371094 118.503906 243.09375 118.421875 243.640625 C 118.410156 243.71875 118.277344 243.699219 118.28125 243.617188 C 118.296875 243.195312 118 241.527344 117.386719 242.011719 C 117.292969 242.085938 117.140625 241.992188 117.210938 241.875 " fill-opacity="1" fill-rule="nonzero"/><g clip-path="url(#e36d9b7039)"><path fill="#65a7bc" d="M 98.332031 255.578125 L 112.117188 243.914062 L 98.933594 230.574219 C 98.65625 230.292969 98.660156 229.839844 98.941406 229.5625 C 99.222656 229.285156 99.675781 229.289062 99.953125 229.570312 L 113.679688 243.457031 C 113.714844 243.492188 113.746094 243.53125 113.773438 243.574219 C 113.828125 243.652344 113.871094 243.742188 113.894531 243.839844 L 122.222656 279.820312 L 239.132812 279.820312 C 239.53125 279.820312 239.847656 280.304688 239.847656 280.699219 C 239.847656 281.09375 239.53125 281.578125 239.132812 281.578125 L 121.652344 281.578125 C 121.320312 281.578125 121.03125 281.148438 120.953125 280.824219 L 113.789062 249.726562 L 113.914062 345.402344 C 113.914062 345.796875 113.59375 346.140625 113.199219 346.140625 C 112.804688 346.140625 112.480469 345.828125 112.480469 345.433594 L 112.351562 245.589844 L 99.257812 256.671875 C 99.125 256.785156 98.960938 256.839844 98.796875 256.839844 C 98.59375 256.839844 98.390625 256.753906 98.25 256.585938 C 97.992188 256.285156 98.03125 255.835938 98.332031 255.578125 " fill-opacity="1" fill-rule="nonzero"/></g><path fill="#65a7bc" d="M 195.882812 242.742188 L 201.25 241.675781 L 201.167969 241.253906 L 195.796875 242.320312 Z M 191.703125 230.636719 L 189.5625 236.007812 L 189.960938 236.164062 L 192.101562 230.796875 Z M 177.710938 233.402344 L 177.480469 233.765625 L 181.414062 236.273438 L 181.644531 235.910156 Z M 158.40625 238.78125 L 158.148438 239.125 L 161.007812 241.273438 L 161.265625 240.925781 Z M 151.351562 239.144531 L 147.414062 242.367188 L 147.6875 242.699219 L 151.621094 239.480469 Z M 148.453125 228.871094 L 148.042969 228.996094 L 149.117188 232.574219 L 149.527344 232.449219 Z M 198.863281 223.855469 C 199.035156 223.984375 199.203125 224.121094 199.363281 224.261719 C 203.460938 227.921875 203.074219 235.980469 203.515625 244.242188 L 189.988281 244.242188 L 189.925781 244.171875 L 189.84375 244.242188 L 176.339844 244.242188 L 174.058594 243.757812 L 173.964844 244.175781 L 174.285156 244.242188 L 139.535156 244.242188 C 140.058594 234.996094 141.613281 225.167969 146 222.894531 C 146.867188 222.445312 147.84375 222.289062 148.945312 222.496094 C 148.988281 222.503906 149.035156 222.511719 149.078125 222.515625 C 151.554688 225.222656 154.542969 227.460938 158.042969 229.125 L 157.789062 229.464844 L 160.652344 231.609375 L 160.90625 231.265625 L 158.070312 229.140625 C 160.972656 230.515625 164.226562 231.5 167.835938 232.019531 L 168.050781 232.328125 L 168.375 232.101562 C 168.402344 232.101562 168.425781 232.109375 168.453125 232.113281 C 171.441406 232.496094 174.390625 232.441406 177.238281 232.011719 C 184.269531 231.066406 190.75 227.855469 195.996094 223.367188 C 197.121094 223.300781 198.097656 223.289062 198.863281 223.855469 " fill-opacity="1" fill-rule="nonzero"/><g clip-path="url(#53e3e32a54)"><path fill="#65a7bc" d="M 229.292969 207.722656 C 229.289062 206.203125 228.867188 204.558594 227.714844 204.550781 C 226.96875 204.546875 226.074219 206.855469 225.855469 209.414062 L 204.242188 204.578125 L 191.90625 201.816406 C 191.90625 201.816406 190.175781 201.800781 190.234375 197.648438 C 190.320312 192.554688 191.90625 192.367188 191.90625 192.367188 L 203.003906 191.742188 L 203.894531 191.691406 L 289.324219 186.847656 L 290.652344 186.773438 C 290.652344 186.773438 290.683594 186.789062 290.734375 186.828125 C 290.886719 186.792969 291.039062 186.769531 291.191406 186.769531 C 294.566406 186.769531 297.300781 195.089844 297.300781 205.347656 C 297.300781 215.609375 294.566406 223.925781 291.191406 223.925781 C 291.019531 223.925781 290.847656 223.898438 290.675781 223.855469 C 290.679688 223.855469 290.683594 223.855469 290.683594 223.855469 C 288.0625 223.023438 285.445312 215.796875 285.445312 205.351562 C 285.445312 194.832031 288.105469 187.574219 290.738281 186.832031 C 290.683594 186.789062 290.652344 186.773438 290.652344 186.773438 L 289.324219 186.847656 C 286.632812 189.179688 284.726562 196.476562 284.726562 205.351562 C 284.726562 213.863281 286.488281 220.933594 289.007812 223.554688 L 242.863281 213.222656 L 229.054688 210.132812 C 229.136719 209.210938 229.292969 208.207031 229.292969 207.722656 " fill-opacity="1" fill-rule="nonzero"/></g></svg>