<svg xmlns="http://www.w3.org/2000/svg" xmlns:xlink="http://www.w3.org/1999/xlink" width="500" zoomAndPan="magnify" viewBox="0 0 375 374.999991" height="500" preserveAspectRatio="xMidYMid meet" version="1.0"><defs><clipPath id="cad953d3d5"><path d="M 164.632812 150.28125 L 210.367188 150.28125 L 210.367188 224.78125 L 164.632812 224.78125 Z M 164.632812 150.28125 " clip-rule="nonzero"/></clipPath><clipPath id="cf5bcebad0"><path d="M 181.882812 150.28125 L 193.117188 150.28125 C 197.691406 150.28125 202.082031 152.097656 205.316406 155.332031 C 208.550781 158.566406 210.367188 162.957031 210.367188 167.53125 L 210.367188 207.46875 C 210.367188 212.042969 208.550781 216.433594 205.316406 219.667969 C 202.082031 222.902344 197.691406 224.71875 193.117188 224.71875 L 181.882812 224.71875 C 177.308594 224.71875 172.917969 222.902344 169.683594 219.667969 C 166.449219 216.433594 164.632812 212.042969 164.632812 207.46875 L 164.632812 167.53125 C 164.632812 162.957031 166.449219 158.566406 169.683594 155.332031 C 172.917969 152.097656 177.308594 150.28125 181.882812 150.28125 Z M 181.882812 150.28125 " clip-rule="nonzero"/></clipPath><clipPath id="cd31e8cda1"><path d="M 114 27.703125 L 300 27.703125 L 300 92 L 114 92 Z M 114 27.703125 " clip-rule="nonzero"/></clipPath><clipPath id="99610a5ca5"><path d="M 133 284 L 289 284 L 289 347.203125 L 133 347.203125 Z M 133 284 " clip-rule="nonzero"/></clipPath><clipPath id="441161abe0"><path d="M 133 306 L 172 306 L 172 347.203125 L 133 347.203125 Z M 133 306 " clip-rule="nonzero"/></clipPath><clipPath id="61f0c46813"><path d="M 133 318 L 289 318 L 289 347.203125 L 133 347.203125 Z M 133 318 " clip-rule="nonzero"/></clipPath><clipPath id="9e8922359c"><path d="M 256 189 L 369.898438 189 L 369.898438 312 L 256 312 Z M 256 189 " clip-rule="nonzero"/></clipPath><clipPath id="a559a3d106"><path d="M 5.398438 128 L 99 128 L 99 207 L 5.398438 207 Z M 5.398438 128 " clip-rule="nonzero"/></clipPath></defs><g clip-path="url(#cad953d3d5)"><g clip-path="url(#cf5bcebad0)"><path fill="#65a1b7" d="M 164.632812 150.28125 L 210.367188 150.28125 L 210.367188 224.78125 L 164.632812 224.78125 Z M 164.632812 150.28125 " fill-opacity="1" fill-rule="nonzero"/></g></g><path fill="#000000" d="M 183.59375 270.070312 C 183.480469 270.058594 183.765625 270.867188 183.78125 270.957031 C 183.929688 271.492188 184.066406 272.015625 184.191406 272.566406 C 184.566406 274.1875 184.917969 275.8125 185.304688 277.421875 C 186.027344 280.527344 186.703125 283.636719 187.316406 286.757812 C 187.589844 288.144531 187.679688 290.089844 188.402344 291.335938 C 189.402344 293.074219 193.277344 293.234375 194.914062 293.460938 C 200.597656 294.234375 206.410156 295.183594 212.167969 294.808594 C 215.367188 294.59375 218.566406 294.121094 221.539062 292.910156 C 222.390625 292.5625 223.664062 292.199219 224.125 291.3125 C 224.664062 290.289062 224.351562 288.753906 224.277344 287.667969 C 224.101562 285.285156 223.875 282.902344 223.625 280.527344 C 223.339844 277.660156 223.066406 274.773438 222.691406 271.902344 C 222.464844 270.183594 222.253906 268.246094 221.003906 266.910156 C 218.527344 264.265625 213.582031 265.078125 210.382812 265.1875 C 204.210938 265.390625 198.074219 266.0625 192 267.171875 C 189.414062 267.648438 186.203125 267.960938 183.804688 269.160156 " fill-opacity="1" fill-rule="nonzero"/><path fill="#000000" d="M 209.496094 296.082031 C 205.160156 296.082031 200.824219 295.480469 196.613281 294.894531 L 194.761719 294.644531 C 194.539062 294.621094 194.277344 294.582031 193.988281 294.558594 C 191.8125 294.320312 188.539062 293.960938 187.378906 291.9375 C 186.742188 290.828125 186.527344 289.390625 186.339844 288.128906 C 186.277344 287.730469 186.230469 287.332031 186.152344 286.980469 C 185.566406 284.035156 184.917969 280.992188 184.140625 277.683594 C 183.96875 276.921875 183.792969 276.148438 183.617188 275.386719 C 183.429688 274.539062 183.230469 273.6875 183.03125 272.828125 C 182.90625 272.304688 182.769531 271.792969 182.628906 271.269531 C 182.394531 270.53125 182.179688 269.917969 182.617188 269.359375 C 182.53125 268.859375 182.78125 268.335938 183.269531 268.085938 C 185.34375 267.050781 187.902344 266.636719 190.164062 266.273438 C 190.726562 266.1875 191.265625 266.101562 191.789062 266 C 197.949219 264.878906 204.195312 264.203125 210.34375 264.003906 C 210.820312 263.992188 211.34375 263.953125 211.894531 263.917969 C 215.230469 263.703125 219.402344 263.453125 221.878906 266.101562 C 223.351562 267.671875 223.625 269.84375 223.863281 271.605469 L 223.875 271.753906 C 224.214844 274.324219 224.476562 276.945312 224.726562 279.480469 L 224.8125 280.402344 C 225.0625 282.9375 225.289062 285.234375 225.464844 287.582031 C 225.476562 287.78125 225.5 287.992188 225.527344 288.203125 C 225.636719 289.316406 225.789062 290.703125 225.1875 291.851562 C 224.589844 292.996094 223.316406 293.484375 222.390625 293.847656 L 222.003906 293.996094 C 219.328125 295.09375 216.230469 295.730469 212.257812 295.980469 C 211.332031 296.054688 210.417969 296.082031 209.496094 296.082031 Z M 184.792969 270.144531 C 184.828125 270.269531 184.878906 270.40625 184.90625 270.492188 C 184.90625 270.507812 184.941406 270.605469 184.941406 270.617188 C 185.09375 271.167969 185.242188 271.71875 185.378906 272.277344 C 185.578125 273.140625 185.777344 274 185.964844 274.863281 C 186.140625 275.625 186.304688 276.386719 186.492188 277.148438 C 187.265625 280.480469 187.929688 283.550781 188.515625 286.53125 C 188.589844 286.917969 188.652344 287.34375 188.714844 287.792969 C 188.867188 288.839844 189.039062 290.039062 189.464844 290.75 C 190.027344 291.726562 193 292.050781 194.261719 292.1875 C 194.574219 292.222656 194.863281 292.25 195.101562 292.285156 L 196.949219 292.535156 C 201.933594 293.234375 207.097656 293.945312 212.105469 293.621094 C 215.816406 293.386719 218.679688 292.796875 221.101562 291.8125 L 221.539062 291.636719 C 222.078125 291.425781 222.902344 291.113281 223.078125 290.765625 C 223.339844 290.253906 223.238281 289.265625 223.152344 288.46875 C 223.128906 288.21875 223.101562 287.980469 223.089844 287.753906 C 222.925781 285.445312 222.703125 283.164062 222.453125 280.652344 L 222.363281 279.730469 C 222.113281 277.207031 221.851562 274.613281 221.515625 272.066406 L 221.488281 271.917969 C 221.289062 270.355469 221.078125 268.746094 220.140625 267.75 C 218.429688 265.925781 214.878906 266.136719 212.042969 266.3125 C 211.46875 266.351562 210.933594 266.375 210.433594 266.398438 C 204.398438 266.601562 198.273438 267.261719 192.226562 268.359375 C 191.6875 268.460938 191.140625 268.546875 190.566406 268.632812 C 188.652344 268.945312 186.503906 269.296875 184.804688 270.019531 C 184.792969 270.058594 184.792969 270.105469 184.792969 270.144531 Z M 184.792969 270.144531 " fill-opacity="1" fill-rule="nonzero"/><path fill="#000000" d="M 125.839844 227.507812 C 126.039062 227.671875 124.203125 227.320312 124.054688 227.296875 C 122.527344 226.933594 121.015625 226.484375 119.519531 226.011719 C 115.53125 224.738281 111.621094 223.265625 107.761719 221.679688 C 96.390625 217.011719 84.53125 211.582031 75.636719 202.871094 C 72.574219 199.875 67.851562 194.78125 70.125 190.125 C 71.898438 186.492188 81.796875 179.730469 86.117188 180.664062 C 89.703125 181.4375 93.164062 185.035156 96.214844 186.941406 C 101.335938 190.136719 107.722656 192.035156 112.332031 195.941406 C 118.554688 201.222656 121.242188 211.65625 121.628906 219.433594 " fill-opacity="1" fill-rule="nonzero"/><path fill="#000000" d="M 125.703125 228.445312 C 125.304688 228.445312 124.726562 228.355469 123.855469 228.15625 C 122.492188 227.832031 121.066406 227.433594 119.242188 226.847656 C 115.582031 225.683594 111.722656 224.261719 107.421875 222.492188 C 96.589844 218.046875 84.269531 212.542969 75.011719 203.492188 C 72.710938 201.246094 66.613281 195.269531 69.324219 189.726562 C 71.261719 185.757812 81.484375 178.730469 86.316406 179.777344 C 88.953125 180.351562 91.378906 182.210938 93.726562 184.023438 C 94.777344 184.820312 95.765625 185.582031 96.703125 186.167969 C 98.699219 187.417969 100.976562 188.503906 103.175781 189.539062 C 106.558594 191.148438 110.070312 192.820312 112.921875 195.230469 C 119.394531 200.710938 122.128906 211.28125 122.527344 219.355469 C 122.554688 219.855469 122.179688 220.269531 121.679688 220.292969 C 121.167969 220.320312 120.765625 219.945312 120.742188 219.445312 C 120.367188 212.105469 117.792969 201.707031 111.757812 196.589844 C 109.085938 194.332031 105.6875 192.710938 102.398438 191.148438 C 100.164062 190.089844 97.839844 188.976562 95.753906 187.679688 C 94.738281 187.042969 93.714844 186.257812 92.640625 185.433594 C 90.453125 183.746094 88.179688 182 85.945312 181.527344 C 82.019531 180.691406 72.546875 187.21875 70.9375 190.511719 C 69.011719 194.445312 73.0625 199.074219 76.273438 202.21875 C 85.292969 211.042969 97.4375 216.460938 108.109375 220.84375 C 112.359375 222.589844 116.179688 224 119.792969 225.148438 C 121.566406 225.710938 122.953125 226.109375 124.265625 226.421875 C 124.453125 226.460938 125.226562 226.609375 125.601562 226.648438 C 125.878906 226.570312 126.191406 226.632812 126.414062 226.820312 C 126.726562 227.082031 126.839844 227.558594 126.652344 227.933594 C 126.503906 228.230469 126.328125 228.445312 125.703125 228.445312 Z M 125.703125 228.445312 " fill-opacity="1" fill-rule="nonzero"/><path fill="#ff431d" d="M 207.609375 271.742188 C 188.140625 279.355469 164.425781 271.878906 147.207031 259.996094 C 105.199219 230.988281 83.78125 152.09375 112.058594 108.472656 C 117.855469 99.523438 128.101562 91.960938 137.949219 87.476562 C 154.378906 80.027344 197.835938 80.125 205.832031 88.726562 C 206.035156 88.953125 206.234375 89.164062 206.433594 89.386719 C 206.796875 88.9375 207.171875 88.503906 207.570312 88.066406 C 215.566406 79.453125 259.039062 79.351562 275.457031 86.816406 C 285.316406 91.296875 295.5625 98.863281 301.347656 107.796875 C 329.621094 151.410156 308.207031 230.316406 266.199219 259.324219 C 249.527344 270.867188 226.726562 278.230469 207.609375 271.742188 Z M 207.609375 271.742188 " fill-opacity="1" fill-rule="nonzero"/><path fill="#000000" d="M 190.550781 276.011719 C 174.507812 276.011719 158.253906 269.058594 146.542969 260.96875 C 126.203125 246.929688 109.597656 220.394531 102.136719 189.988281 C 94.402344 158.460938 97.652344 128.515625 111.070312 107.8125 C 116.507812 99.4375 126.378906 91.421875 137.472656 86.378906 C 153.71875 79.003906 197.039062 78.589844 206.421875 87.589844 C 206.519531 87.476562 206.621094 87.367188 206.722656 87.253906 C 215.394531 77.929688 259.550781 78.265625 275.980469 85.730469 C 287.089844 90.773438 296.960938 98.785156 302.382812 107.160156 C 315.804688 127.855469 319.0625 157.8125 311.316406 189.339844 C 303.859375 219.730469 287.25 246.265625 266.910156 260.320312 C 251.617188 270.878906 228.0625 279.71875 207.644531 273.003906 C 202.121094 275.097656 196.351562 276.011719 190.550781 276.011719 Z M 172.972656 83.335938 C 159.914062 83.335938 146.207031 85.042969 138.449219 88.578125 C 127.738281 93.433594 118.253906 101.121094 113.058594 109.121094 C 84.03125 153.90625 108.070312 231.527344 147.882812 259.011719 C 163.4375 269.746094 187.179688 278.445312 207.171875 270.632812 C 207.433594 270.53125 207.71875 270.519531 207.996094 270.617188 C 227.648438 277.308594 250.617188 268.671875 265.535156 258.363281 C 305.34375 230.878906 329.386719 153.253906 300.359375 108.472656 C 295.171875 100.460938 285.675781 92.78125 274.96875 87.929688 C 258.589844 80.488281 215.691406 81.125 208.445312 88.902344 C 208.070312 89.3125 207.707031 89.726562 207.359375 90.160156 C 207.132812 90.4375 206.808594 90.597656 206.445312 90.609375 C 206.082031 90.625 205.746094 90.460938 205.519531 90.199219 C 205.335938 89.988281 205.148438 89.773438 204.945312 89.5625 C 201.160156 85.457031 187.480469 83.335938 172.972656 83.335938 Z M 172.972656 83.335938 " fill-opacity="1" fill-rule="nonzero"/><path fill="#000000" d="M 206.722656 29.164062 C 206.820312 29.078125 206.910156 29.003906 207.007812 28.914062 C 207.007812 28.992188 208.621094 29.214844 208.695312 29.238281 C 212.757812 30.015625 216.804688 30.875 220.867188 31.710938 C 221.800781 31.898438 222.800781 32.109375 223.738281 32.308594 C 241.417969 36.140625 258.875 41.046875 276.382812 45.628906 C 281.605469 46.988281 291.425781 49.398438 298.023438 51.433594 C 298.183594 51.480469 287.75 56.25 286.128906 57.046875 C 276.28125 61.890625 265.808594 66.386719 257.289062 70.714844 L 256.390625 82.5 C 253.203125 84.207031 240.269531 86.84375 235.960938 87.652344 C 227.726562 89.199219 222.089844 90.023438 216.390625 90.398438 C 215.53125 90.523438 214.628906 90.597656 213.667969 90.609375 C 211.144531 90.660156 208.871094 90.6875 206.746094 90.6875 C 204.621094 90.6875 202.347656 90.660156 199.824219 90.609375 C 198.863281 90.597656 197.960938 90.523438 197.101562 90.398438 C 191.402344 90.011719 185.765625 89.199219 177.53125 87.652344 C 173.222656 86.84375 160.289062 84.207031 157.101562 82.5 L 156.203125 70.714844 C 147.683594 66.386719 137.199219 61.890625 127.363281 57.046875 C 125.742188 56.25 115.308594 51.480469 115.46875 51.433594 C 122.066406 49.398438 131.898438 47 137.109375 45.628906 C 154.605469 41.046875 172.058594 36.140625 189.753906 32.308594 C 190.691406 32.109375 191.675781 31.898438 192.625 31.710938 C 196.675781 30.886719 200.722656 30.015625 204.796875 29.238281 C 204.871094 29.226562 206.484375 28.992188 206.484375 28.914062 C 206.535156 29.003906 206.621094 29.078125 206.722656 29.164062 Z M 206.722656 29.164062 " fill-opacity="1" fill-rule="nonzero"/><g clip-path="url(#cd31e8cda1)"><path fill="#000000" d="M 206.722656 91.871094 C 204.597656 91.871094 202.308594 91.847656 199.773438 91.796875 C 198.773438 91.773438 197.800781 91.695312 196.898438 91.574219 C 191.378906 91.210938 185.839844 90.425781 177.28125 88.8125 C 176.59375 88.6875 160.375 85.605469 156.503906 83.535156 C 156.140625 83.347656 155.902344 82.984375 155.878906 82.574219 L 155.027344 71.464844 C 150.644531 69.253906 145.820312 67.019531 140.710938 64.675781 C 136.125 62.566406 131.386719 60.367188 126.789062 58.109375 C 126.191406 57.808594 124.351562 56.960938 122.292969 56.011719 C 114.167969 52.242188 114.167969 52.242188 114.230469 51.34375 C 114.269531 50.84375 114.605469 50.433594 115.082031 50.285156 C 120.167969 48.722656 127.277344 46.902344 132.460938 45.578125 C 134.085938 45.167969 135.550781 44.792969 136.773438 44.46875 C 140.820312 43.40625 144.871094 42.332031 148.90625 41.257812 C 162.152344 37.738281 175.832031 34.09375 189.453125 31.136719 C 190.390625 30.9375 191.390625 30.726562 192.339844 30.539062 L 195.75 29.839844 C 198.675781 29.226562 201.597656 28.628906 204.523438 28.066406 L 204.710938 28.042969 C 205.496094 27.917969 205.820312 27.855469 205.957031 27.828125 C 205.957031 27.828125 205.957031 27.828125 205.972656 27.828125 C 206.207031 27.730469 206.484375 27.703125 206.722656 27.765625 C 206.972656 27.703125 207.234375 27.730469 207.46875 27.828125 C 207.46875 27.828125 207.46875 27.828125 207.484375 27.828125 C 207.621094 27.855469 207.945312 27.917969 208.734375 28.042969 L 208.90625 28.066406 C 211.832031 28.617188 214.753906 29.226562 217.667969 29.828125 L 221.089844 30.539062 C 222.039062 30.726562 223.027344 30.9375 223.976562 31.136719 C 237.597656 34.082031 251.277344 37.726562 264.511719 41.257812 C 268.558594 42.332031 272.609375 43.417969 276.667969 44.480469 C 277.894531 44.804688 279.355469 45.179688 280.980469 45.589844 C 286.453125 46.988281 293.273438 48.734375 298.359375 50.296875 C 298.835938 50.445312 299.171875 50.871094 299.195312 51.355469 C 299.257812 52.253906 299.257812 52.253906 291.164062 56 C 289.101562 56.960938 287.238281 57.824219 286.640625 58.121094 C 282.042969 60.382812 277.304688 62.566406 272.71875 64.6875 C 267.621094 67.046875 262.785156 69.269531 258.402344 71.476562 L 257.550781 82.585938 C 257.511719 82.996094 257.289062 83.359375 256.925781 83.546875 C 253.054688 85.617188 236.835938 88.6875 236.148438 88.828125 C 227.574219 90.4375 222.050781 91.222656 216.429688 91.597656 C 215.617188 91.722656 214.65625 91.796875 213.65625 91.808594 C 211.132812 91.847656 208.84375 91.871094 206.722656 91.871094 Z M 158.203125 81.710938 C 161.578125 83.136719 171.496094 85.308594 177.71875 86.480469 C 186.179688 88.078125 191.625 88.839844 197.148438 89.214844 C 198.050781 89.339844 198.910156 89.402344 199.8125 89.425781 C 202.324219 89.476562 204.597656 89.5 206.707031 89.5 C 208.820312 89.5 211.09375 89.476562 213.605469 89.425781 C 214.503906 89.414062 215.367188 89.339844 216.179688 89.226562 C 221.789062 88.851562 227.238281 88.078125 235.695312 86.480469 C 241.917969 85.308594 251.839844 83.148438 255.214844 81.710938 L 256.0625 70.628906 C 256.101562 70.214844 256.339844 69.84375 256.714844 69.65625 C 261.300781 67.320312 266.359375 64.988281 271.707031 62.515625 C 276.28125 60.40625 281.003906 58.222656 285.566406 55.976562 C 286.175781 55.675781 288.050781 54.800781 290.136719 53.828125 C 291.523438 53.179688 293.273438 52.367188 294.710938 51.707031 C 290.101562 50.382812 284.589844 48.972656 280.367188 47.898438 C 278.742188 47.488281 277.253906 47.101562 276.03125 46.789062 C 271.96875 45.726562 267.921875 44.65625 263.875 43.570312 C 250.667969 40.050781 237.007812 36.417969 223.453125 33.484375 C 222.515625 33.285156 221.527344 33.070312 220.589844 32.882812 L 217.15625 32.171875 C 214.253906 31.574219 211.34375 30.976562 208.433594 30.414062 L 208.332031 30.402344 C 207.921875 30.339844 207.558594 30.289062 207.257812 30.226562 C 206.910156 30.414062 206.472656 30.414062 206.121094 30.226562 C 205.820312 30.289062 205.457031 30.339844 205.046875 30.402344 L 204.921875 30.414062 C 202.023438 30.960938 199.113281 31.5625 196.199219 32.171875 L 192.789062 32.871094 C 191.851562 33.058594 190.863281 33.273438 189.925781 33.472656 C 176.359375 36.40625 162.699219 40.050781 149.492188 43.570312 C 145.445312 44.640625 141.398438 45.726562 137.347656 46.789062 C 136.125 47.113281 134.648438 47.488281 133.023438 47.898438 C 128.800781 48.984375 123.292969 50.382812 118.667969 51.707031 C 120.105469 52.378906 121.878906 53.203125 123.277344 53.851562 C 125.351562 54.816406 127.214844 55.675781 127.828125 55.976562 C 132.386719 58.222656 137.125 60.40625 141.683594 62.515625 C 147.042969 64.988281 152.105469 67.320312 156.679688 69.65625 C 157.054688 69.84375 157.289062 70.214844 157.328125 70.628906 Z M 158.203125 81.710938 " fill-opacity="1" fill-rule="nonzero"/></g><path fill="#fff100" d="M 288.789062 120.714844 L 275.15625 120.714844 L 278.566406 83.722656 L 285.390625 83.722656 Z M 288.789062 120.714844 " fill-opacity="1" fill-rule="nonzero"/><path fill="#000000" d="M 288.789062 121.902344 L 275.144531 121.902344 C 274.808594 121.902344 274.480469 121.765625 274.257812 121.515625 C 274.03125 121.265625 273.917969 120.941406 273.945312 120.605469 L 277.355469 83.609375 C 277.417969 82.996094 277.929688 82.523438 278.542969 82.523438 L 285.363281 82.523438 C 285.976562 82.523438 286.503906 82.996094 286.550781 83.609375 L 289.964844 120.605469 C 289.988281 120.941406 289.886719 121.265625 289.652344 121.515625 C 289.449219 121.765625 289.125 121.902344 288.789062 121.902344 Z M 276.46875 119.519531 L 287.488281 119.519531 L 284.289062 84.917969 L 279.65625 84.917969 Z M 276.46875 119.519531 " fill-opacity="1" fill-rule="nonzero"/><path fill="#ff431d" d="M 281.980469 77.269531 C 285.277344 77.269531 287.964844 79.953125 287.964844 83.246094 C 287.964844 86.542969 285.277344 89.226562 281.980469 89.226562 C 278.679688 89.226562 275.992188 86.542969 275.992188 83.246094 C 275.992188 79.941406 278.667969 77.269531 281.980469 77.269531 Z M 281.980469 77.269531 " fill-opacity="1" fill-rule="nonzero"/><path fill="#000000" d="M 281.980469 90.410156 C 278.019531 90.410156 274.808594 87.191406 274.808594 83.234375 C 274.808594 79.277344 278.03125 76.058594 281.980469 76.058594 C 285.941406 76.058594 289.164062 79.277344 289.164062 83.234375 C 289.152344 87.191406 285.925781 90.410156 281.980469 90.410156 Z M 281.980469 78.453125 C 279.34375 78.453125 277.191406 80.601562 277.191406 83.234375 C 277.191406 85.867188 279.34375 88.015625 281.980469 88.015625 C 284.617188 88.015625 286.765625 85.867188 286.765625 83.234375 C 286.765625 80.601562 284.617188 78.453125 281.980469 78.453125 Z M 281.980469 78.453125 " fill-opacity="1" fill-rule="nonzero"/><path fill="#000000" d="M 282.304688 78.953125 C 281.640625 78.953125 281.105469 78.417969 281.105469 77.753906 L 281.105469 58.660156 C 281.105469 57.996094 281.640625 57.460938 282.304688 57.460938 C 282.964844 57.460938 283.503906 57.996094 283.503906 58.660156 L 283.503906 77.753906 C 283.503906 78.417969 282.964844 78.953125 282.304688 78.953125 Z M 282.304688 78.953125 " fill-opacity="1" fill-rule="nonzero"/><path fill="#2dcc7d" d="M 226.039062 285.820312 C 226.050781 285.894531 225.886719 285.820312 225.824219 285.832031 C 224.988281 285.882812 224.152344 286.035156 223.300781 286.121094 C 221.253906 286.332031 219.191406 286.433594 217.128906 286.582031 C 210.53125 287.058594 203.757812 287.21875 197.136719 286.832031 C 194.101562 286.65625 189.515625 285.460938 186.554688 286.34375 C 183.980469 287.105469 183.753906 295.792969 183.566406 298.039062 C 183.519531 298.566406 183.792969 301.046875 183.292969 301.371094 C 182.730469 301.746094 179.792969 299.960938 179.21875 299.773438 C 175.347656 298.550781 171.136719 298.140625 167.097656 298.601562 C 151.269531 300.4375 138.210938 310.632812 135.3125 326.621094 C 134.722656 329.855469 134.097656 333.800781 134.960938 337.070312 C 135.636719 339.640625 140.558594 340.703125 142.597656 341.414062 C 151.117188 344.398438 159.902344 345.96875 168.9375 346.007812 C 178.71875 346.042969 188.628906 344.582031 198.035156 341.925781 C 201.484375 340.953125 208.246094 337.53125 211.257812 337.195312 C 212.554688 337.046875 214.644531 338.316406 215.878906 338.667969 C 218.890625 339.542969 221.953125 340.179688 225.050781 340.589844 C 236.371094 342.074219 258.027344 342.738281 279.71875 331.726562 C 281.605469 330.765625 285.464844 328.957031 286.628906 326.984375 C 289.125 322.703125 286.390625 315.441406 284.277344 311.671875 C 277.792969 300.085938 261.898438 293.847656 249.078125 295.007812 C 244.980469 295.382812 241.058594 296.441406 237.273438 298.039062 C 236.523438 298.351562 233.671875 300.386719 232.875 300.113281 C 231.886719 299.777344 231.199219 297.464844 230.910156 296.628906 C 229.699219 293.273438 227.9375 288.929688 226.039062 285.820312 Z M 226.039062 285.820312 " fill-opacity="1" fill-rule="nonzero"/><g clip-path="url(#99610a5ca5)"><path fill="#000000" d="M 169.273438 347.203125 C 169.160156 347.203125 169.046875 347.203125 168.921875 347.203125 C 159.925781 347.179688 150.941406 345.605469 142.195312 342.550781 C 141.882812 342.4375 141.496094 342.324219 141.058594 342.1875 C 138.460938 341.386719 134.535156 340.191406 133.800781 337.382812 C 132.898438 333.960938 133.5 329.929688 134.136719 326.421875 C 136.972656 310.796875 149.855469 299.414062 166.960938 297.429688 C 171.148438 296.941406 175.507812 297.367188 179.582031 298.640625 C 179.832031 298.714844 180.167969 298.890625 180.769531 299.203125 C 181.144531 299.386719 181.84375 299.75 182.40625 300 C 182.417969 299.5625 182.394531 299.078125 182.394531 298.828125 C 182.378906 298.441406 182.367188 298.117188 182.394531 297.953125 C 182.417969 297.691406 182.429688 297.339844 182.46875 296.941406 C 182.804688 291.710938 183.40625 286.058594 186.230469 285.210938 C 188.539062 284.523438 191.5625 284.933594 194.226562 285.308594 C 195.324219 285.460938 196.351562 285.609375 197.226562 285.660156 C 203.210938 286.007812 209.882812 285.921875 217.054688 285.410156 C 217.667969 285.371094 218.265625 285.320312 218.878906 285.285156 C 220.289062 285.195312 221.753906 285.097656 223.175781 284.949219 C 223.488281 284.910156 223.789062 284.871094 224.101562 284.835938 C 224.652344 284.761719 225.203125 284.683594 225.75 284.660156 C 225.789062 284.660156 225.824219 284.660156 225.875 284.660156 C 226.351562 284.597656 226.8125 284.808594 227.0625 285.222656 C 229.210938 288.742188 231.097656 293.648438 232.035156 296.253906 L 232.160156 296.59375 C 232.671875 298.066406 233 298.675781 233.210938 298.925781 C 233.785156 298.738281 235.011719 298.003906 235.558594 297.664062 C 236.171875 297.304688 236.523438 297.09375 236.808594 296.96875 C 240.84375 295.257812 244.929688 294.207031 248.980469 293.835938 C 261.300781 292.722656 278.207031 298.390625 285.328125 311.097656 C 285.925781 312.167969 291.085938 321.71875 287.664062 327.597656 C 286.527344 329.554688 283.640625 331.117188 280.78125 332.550781 L 280.265625 332.800781 C 258.113281 344.035156 236.070312 343.25 224.902344 341.789062 C 221.753906 341.375 218.605469 340.714844 215.542969 339.828125 C 215.054688 339.691406 214.519531 339.453125 213.941406 339.203125 C 213.09375 338.828125 211.957031 338.332031 211.382812 338.394531 C 209.769531 338.566406 206.671875 339.851562 203.921875 340.976562 C 201.824219 341.835938 199.824219 342.660156 198.347656 343.085938 C 188.679688 345.820312 178.894531 347.203125 169.273438 347.203125 Z M 170.398438 299.613281 C 169.335938 299.613281 168.285156 299.675781 167.25 299.789062 C 150.96875 301.671875 139.183594 312.042969 136.511719 326.835938 C 135.925781 330.09375 135.363281 333.8125 136.136719 336.757812 C 136.535156 338.28125 139.945312 339.328125 141.785156 339.890625 C 142.246094 340.027344 142.671875 340.164062 143.007812 340.277344 C 151.492188 343.25 160.226562 344.769531 168.949219 344.808594 C 178.40625 344.847656 188.140625 343.484375 197.722656 340.765625 C 199.074219 340.378906 201 339.589844 203.046875 338.753906 C 206.070312 337.507812 209.207031 336.222656 211.144531 336.007812 C 212.320312 335.871094 213.707031 336.472656 214.917969 337.007812 C 215.417969 337.21875 215.890625 337.433594 216.230469 337.53125 C 219.167969 338.378906 222.191406 339.015625 225.226562 339.417969 C 236.121094 340.851562 257.625 341.613281 279.203125 330.667969 L 279.730469 330.40625 C 281.480469 329.53125 284.742188 327.894531 285.628906 326.386719 C 287.578125 323.039062 285.765625 316.710938 283.265625 312.257812 C 276.632812 300.425781 260.773438 295.15625 249.21875 296.207031 C 245.417969 296.554688 241.570312 297.542969 237.769531 299.152344 C 237.621094 299.214844 237.171875 299.488281 236.820312 299.699219 C 234.824219 300.898438 233.535156 301.597656 232.523438 301.25 C 231.210938 300.796875 230.523438 299.078125 229.925781 297.355469 L 229.8125 297.042969 C 228.960938 294.671875 227.300781 290.339844 225.414062 287.058594 C 225.089844 287.09375 224.765625 287.132812 224.4375 287.179688 C 224.113281 287.230469 223.789062 287.269531 223.453125 287.304688 C 221.976562 287.46875 220.492188 287.554688 219.054688 287.644531 C 218.453125 287.679688 217.839844 287.71875 217.242188 287.769531 C 209.96875 288.292969 203.183594 288.378906 197.101562 288.019531 C 196.136719 287.957031 195.050781 287.804688 193.914062 287.65625 C 191.488281 287.320312 188.742188 286.933594 186.929688 287.480469 C 186.492188 287.617188 185.40625 288.816406 184.867188 297.078125 C 184.84375 297.503906 184.816406 297.878906 184.792969 298.140625 C 184.78125 298.253906 184.792969 298.476562 184.804688 298.726562 C 184.867188 300.597656 184.855469 301.785156 183.992188 302.359375 C 183.054688 302.984375 181.816406 302.394531 179.707031 301.3125 C 179.34375 301.125 179.03125 300.960938 178.882812 300.898438 C 176.132812 300.0625 173.246094 299.613281 170.398438 299.613281 Z M 170.398438 299.613281 " fill-opacity="1" fill-rule="nonzero"/></g><path fill="#000000" d="M 150.519531 316.238281 C 147.355469 316.238281 144.257812 315.089844 141.746094 311.644531 C 141.421875 311.195312 141.445312 310.585938 141.808594 310.171875 C 142.832031 308.988281 143.945312 307.851562 145.132812 306.800781 C 150.316406 302.234375 156.851562 299.164062 164.164062 297.839844 C 164.398438 297.703125 164.6875 297.652344 164.960938 297.703125 C 165.625 297.589844 166.285156 297.503906 166.960938 297.429688 C 171.148438 296.941406 175.507812 297.367188 179.582031 298.640625 C 179.945312 298.75 181.195312 299.25 182.242188 299.664062 L 182.378906 297.941406 C 182.40625 297.679688 182.417969 297.328125 182.457031 296.929688 C 182.792969 291.699219 183.394531 286.046875 186.214844 285.195312 C 188.527344 284.511719 191.550781 284.921875 194.214844 285.296875 C 195.3125 285.445312 196.335938 285.597656 197.210938 285.644531 L 197.375 285.660156 C 197.710938 285.683594 198.023438 285.847656 198.238281 286.109375 C 198.449219 286.371094 198.550781 286.707031 198.488281 287.042969 L 198.386719 287.644531 C 198.324219 288.019531 198.261719 288.355469 198.238281 288.628906 C 197.722656 293.183594 197.460938 297.953125 197.398438 303.644531 C 197.398438 303.917969 197.425781 304.320312 197.460938 304.78125 C 197.636719 307.050781 197.699219 308.886719 196.824219 309.933594 C 195.773438 311.207031 193.714844 310.484375 192.351562 310.011719 C 192.140625 309.933594 191.964844 309.871094 191.839844 309.835938 C 188.054688 308.835938 184.554688 308.351562 181.144531 308.351562 C 181.03125 308.351562 180.917969 308.351562 180.820312 308.351562 C 176.28125 308.386719 171.773438 309.175781 167.386719 310.660156 C 165.9375 311.144531 164.351562 311.859375 162.652344 312.617188 C 161.3125 313.21875 159.925781 313.828125 158.515625 314.390625 C 156.054688 315.378906 153.265625 316.238281 150.519531 316.238281 Z M 144.269531 310.996094 C 147.195312 314.402344 151.167969 314.726562 157.679688 312.183594 C 159.039062 311.644531 160.402344 311.046875 161.714844 310.460938 C 162.476562 310.121094 163.214844 309.785156 163.9375 309.484375 C 162.324219 307.015625 158.738281 305.617188 157.140625 305.105469 C 156.066406 304.753906 155.179688 304.53125 154.355469 304.394531 C 154.066406 304.34375 153.78125 304.304688 153.480469 304.292969 C 153.453125 304.292969 153.265625 304.320312 153.253906 304.320312 C 153.117188 304.332031 152.980469 304.332031 152.84375 304.304688 C 150.628906 305.515625 148.582031 306.964844 146.71875 308.601562 C 145.855469 309.347656 145.03125 310.148438 144.269531 310.996094 Z M 156.703125 302.457031 C 157.078125 302.558594 157.476562 302.683594 157.890625 302.820312 C 160.277344 303.605469 164.351562 305.34375 166.199219 308.574219 C 166.347656 308.523438 166.5 308.460938 166.648438 308.414062 C 168.535156 307.761719 170.449219 307.25 172.382812 306.863281 C 171.085938 304.269531 169.421875 302.371094 167.425781 301.210938 C 166.9375 300.921875 166.375 300.738281 165.761719 300.535156 C 165.414062 300.425781 165.0625 300.3125 164.710938 300.164062 C 161.914062 300.660156 159.226562 301.433594 156.703125 302.457031 Z M 184.617188 306.128906 C 187.140625 306.351562 189.753906 306.816406 192.488281 307.539062 C 192.652344 307.578125 192.890625 307.664062 193.175781 307.761719 C 193.300781 307.800781 193.488281 307.875 193.699219 307.9375 C 192.039062 306.042969 189.863281 304.480469 187.742188 303.695312 C 186.703125 303.308594 185.667969 303.03125 184.679688 302.882812 C 184.578125 302.871094 184.390625 302.832031 184.179688 302.796875 C 183.855469 302.734375 183.082031 302.582031 182.894531 302.582031 C 182.855469 302.582031 182.832031 302.582031 182.792969 302.570312 C 183.457031 303.644531 183.992188 304.792969 184.503906 305.867188 Z M 169.398438 299.636719 C 171.621094 301.160156 173.445312 303.445312 174.820312 306.441406 C 176.808594 306.152344 178.820312 305.992188 180.832031 305.980469 C 181.195312 305.980469 181.542969 305.980469 181.90625 305.980469 C 180.945312 303.992188 179.867188 302.058594 178.070312 301.011719 C 177.507812 300.6875 176.871094 300.460938 176.269531 300.261719 C 176.21875 300.25 176.171875 300.226562 176.121094 300.199219 C 173.910156 299.75 171.648438 299.5625 169.398438 299.636719 Z M 184.578125 300.4375 C 184.59375 300.4375 184.59375 300.4375 184.605469 300.4375 C 184.792969 300.472656 184.953125 300.5 185.042969 300.511719 C 186.191406 300.699219 187.378906 301.011719 188.554688 301.449219 C 190.925781 302.320312 193.289062 303.96875 195.164062 305.992188 C 195.136719 305.578125 195.113281 305.203125 195.101562 304.957031 C 195.0625 304.417969 195.027344 303.945312 195.027344 303.621094 C 195.089844 297.839844 195.351562 292.996094 195.875 288.355469 C 195.886719 288.21875 195.914062 288.082031 195.9375 287.917969 C 195.289062 287.84375 194.601562 287.753906 193.886719 287.65625 C 191.464844 287.320312 188.714844 286.945312 186.902344 287.480469 C 186.464844 287.617188 185.378906 288.816406 184.84375 297.078125 C 184.816406 297.503906 184.792969 297.878906 184.765625 298.140625 Z M 266.972656 312.042969 C 265.171875 312.042969 263.347656 311.171875 261.800781 310.433594 C 261.335938 310.210938 260.886719 309.996094 260.488281 309.824219 L 260.1875 309.699219 C 256.5 308.210938 252.640625 307.375 248.703125 307.214844 C 243.382812 306.988281 237.546875 307.738281 230.847656 309.484375 C 230.5625 309.5625 230 309.761719 229.300781 309.984375 C 225.039062 311.433594 222.964844 311.980469 221.902344 311.46875 C 218.089844 309.609375 216.128906 296.367188 216.042969 295.804688 C 215.355469 291.0625 214.792969 286.832031 214.792969 286.832031 C 214.753906 286.507812 214.84375 286.183594 215.054688 285.921875 C 215.269531 285.671875 215.566406 285.507812 215.890625 285.484375 C 216.480469 285.445312 217.167969 285.398438 217.890625 285.347656 C 219.691406 285.234375 221.738281 285.097656 223.175781 284.949219 C 223.488281 284.910156 223.789062 284.871094 224.101562 284.835938 C 224.652344 284.761719 225.203125 284.683594 225.75 284.660156 C 225.789062 284.660156 225.824219 284.660156 225.875 284.660156 C 226.351562 284.597656 226.8125 284.808594 227.0625 285.222656 C 229.210938 288.742188 231.097656 293.648438 232.035156 296.253906 L 232.160156 296.59375 C 232.625 297.941406 232.9375 298.566406 233.148438 298.851562 C 233.410156 298.675781 233.722656 298.539062 234.058594 298.527344 C 234.609375 298.238281 235.210938 297.878906 235.558594 297.664062 C 236.171875 297.304688 236.523438 297.09375 236.808594 296.96875 C 240.84375 295.257812 244.929688 294.207031 248.980469 293.835938 C 256.488281 293.160156 264.875 294.90625 271.96875 298.664062 C 272.921875 299.164062 273.855469 299.714844 274.730469 300.261719 C 275.121094 300.511719 275.332031 300.949219 275.28125 301.410156 C 274.71875 306.179688 272.570312 309.773438 269.222656 311.507812 C 268.484375 311.882812 267.734375 312.042969 266.972656 312.042969 Z M 255.339844 305.691406 C 257.289062 306.128906 259.199219 306.726562 261.074219 307.488281 L 261.410156 307.625 C 261.847656 307.8125 262.335938 308.039062 262.835938 308.289062 C 264.648438 309.148438 266.699219 310.136719 268.109375 309.398438 C 271.296875 307.738281 272.40625 304.230469 272.796875 301.882812 C 272.171875 301.496094 271.507812 301.136719 270.847656 300.785156 C 268.296875 299.4375 265.585938 298.363281 262.8125 297.589844 C 262.710938 297.628906 262.585938 297.652344 262.472656 297.664062 C 262.085938 297.714844 261.101562 298.578125 260.726562 298.902344 C 260.5625 299.039062 260.425781 299.164062 260.300781 299.277344 C 257.886719 301.234375 256.25 303.34375 255.339844 305.691406 Z M 217.328125 287.769531 C 217.542969 289.367188 217.941406 292.300781 218.402344 295.457031 C 219.078125 300.101562 220.804688 306.777344 222.363281 308.800781 C 224.164062 305.992188 226.789062 303.359375 230.398438 300.738281 C 230.675781 300.535156 230.925781 300.347656 231.175781 300.1875 C 230.636719 299.425781 230.25 298.402344 229.886719 297.367188 L 229.773438 297.054688 C 228.925781 294.683594 227.261719 290.351562 225.375 287.070312 C 225.050781 287.105469 224.726562 287.144531 224.402344 287.195312 C 224.078125 287.242188 223.75 287.28125 223.414062 287.320312 C 221.925781 287.480469 219.851562 287.605469 218.027344 287.730469 C 217.804688 287.742188 217.566406 287.753906 217.328125 287.769531 Z M 234.023438 301.160156 C 233.984375 301.1875 233.960938 301.199219 233.933594 301.222656 C 233.3125 301.621094 232.636719 302.085938 231.8125 302.671875 C 229.023438 304.679688 226.886719 306.691406 225.300781 308.773438 C 226.511719 308.425781 227.824219 307.976562 228.539062 307.738281 C 229.300781 307.476562 229.925781 307.265625 230.25 307.1875 C 231.636719 306.828125 232.984375 306.503906 234.308594 306.226562 C 235.109375 303.496094 236.371094 301.097656 238.058594 299.039062 C 237.957031 299.089844 237.847656 299.125 237.746094 299.175781 C 237.597656 299.238281 237.148438 299.511719 236.796875 299.726562 C 235.671875 300.375 234.773438 300.898438 234.023438 301.160156 Z M 243.59375 297.179688 C 243.53125 297.242188 243.46875 297.304688 243.394531 297.355469 C 240.359375 299.449219 238.257812 302.195312 236.996094 305.691406 C 239.484375 305.265625 241.84375 304.980469 244.132812 304.855469 C 244.457031 301.921875 245.742188 298.851562 247.640625 296.503906 L 247.753906 296.367188 C 246.367188 296.554688 244.980469 296.828125 243.59375 297.179688 Z M 246.867188 304.792969 C 247.515625 304.792969 248.167969 304.804688 248.804688 304.832031 C 250.203125 304.894531 251.578125 305.015625 252.953125 305.242188 C 253.988281 302.347656 255.902344 299.773438 258.777344 297.417969 C 258.886719 297.328125 259.011719 297.214844 259.152344 297.09375 C 259.261719 296.992188 259.375 296.890625 259.5 296.792969 C 256.8125 296.269531 254.113281 296.019531 251.503906 296.082031 C 251.441406 296.117188 251.378906 296.144531 251.316406 296.167969 C 250.792969 296.367188 250.117188 297.214844 249.679688 297.765625 L 249.492188 298.003906 C 247.941406 299.914062 246.867188 302.394531 246.542969 304.78125 C 246.644531 304.792969 246.753906 304.792969 246.867188 304.792969 Z M 246.867188 304.792969 " fill-opacity="1" fill-rule="nonzero"/><path fill="#fffbfa" d="M 145.933594 307.6875 C 150.054688 308.488281 153.753906 310.183594 157.191406 312.605469 C 157.503906 312.832031 157.816406 313.054688 158.113281 313.28125 C 165.226562 318.710938 169.710938 327.335938 170.261719 336.246094 C 170.324219 337.269531 170.347656 338.34375 170.285156 339.417969 C 170.171875 341.726562 169.710938 344.058594 168.585938 346.019531 C 159.675781 345.945312 151.003906 344.371094 142.597656 341.425781 C 140.558594 340.714844 135.636719 339.652344 134.960938 337.082031 C 134.425781 335.023438 134.472656 332.6875 134.722656 330.429688 C 134.875 329.121094 135.097656 327.832031 135.3125 326.636719 C 136.421875 320.507812 139.023438 315.226562 142.707031 310.945312 C 143.707031 309.785156 144.78125 308.699219 145.933594 307.6875 Z M 145.933594 307.6875 " fill-opacity="1" fill-rule="nonzero"/><g clip-path="url(#441161abe0)"><path fill="#000000" d="M 168.585938 347.203125 C 159.703125 347.128906 150.832031 345.570312 142.207031 342.550781 C 141.894531 342.4375 141.507812 342.324219 141.070312 342.1875 C 138.472656 341.386719 134.550781 340.191406 133.8125 337.382812 C 133.3125 335.460938 133.226562 333.136719 133.550781 330.292969 C 133.710938 328.917969 133.9375 327.570312 134.148438 326.421875 C 135.273438 320.246094 137.847656 314.777344 141.808594 310.160156 C 142.832031 308.972656 143.945312 307.839844 145.132812 306.789062 C 145.40625 306.539062 145.78125 306.441406 146.15625 306.515625 C 150.292969 307.3125 154.117188 308.988281 157.878906 311.621094 C 158.203125 311.84375 158.527344 312.082031 158.839844 312.332031 C 166.160156 317.921875 170.871094 326.835938 171.460938 336.171875 C 171.535156 337.320312 171.546875 338.429688 171.496094 339.464844 C 171.359375 342.300781 170.734375 344.695312 169.636719 346.605469 C 169.410156 346.980469 169.023438 347.203125 168.585938 347.203125 Z M 146.28125 308.988281 C 145.34375 309.847656 144.445312 310.773438 143.632812 311.71875 C 139.945312 316.015625 137.546875 321.09375 136.511719 326.847656 C 136.3125 327.957031 136.085938 329.257812 135.9375 330.554688 C 135.648438 333.113281 135.710938 335.136719 136.136719 336.769531 C 136.535156 338.292969 139.945312 339.339844 141.785156 339.902344 C 142.246094 340.039062 142.671875 340.179688 143.007812 340.289062 C 151.144531 343.148438 159.515625 344.660156 167.886719 344.808594 C 168.597656 343.324219 169.011719 341.5 169.109375 339.355469 C 169.160156 338.40625 169.148438 337.382812 169.085938 336.320312 C 168.546875 327.671875 164.175781 319.410156 157.402344 314.230469 C 157.117188 314.003906 156.816406 313.792969 156.515625 313.578125 C 153.203125 311.269531 149.855469 309.761719 146.28125 308.988281 Z M 146.28125 308.988281 " fill-opacity="1" fill-rule="nonzero"/></g><path fill="#fffbfa" d="M 271.40625 299.714844 C 272.320312 300.199219 273.21875 300.710938 274.082031 301.273438 C 278.316406 303.96875 281.917969 307.476562 284.277344 311.683594 C 285.363281 313.628906 286.613281 316.488281 287.238281 319.394531 C 287.828125 322.140625 287.839844 324.914062 286.628906 326.996094 C 285.476562 328.980469 281.605469 330.792969 279.71875 331.742188 C 273.308594 334.984375 266.910156 337.21875 260.773438 338.71875 C 260.675781 338.679688 260.574219 338.628906 260.476562 338.582031 C 257.824219 337.355469 256.164062 335.410156 255.203125 333.089844 C 253.316406 328.546875 254.152344 322.589844 255.6875 317.960938 C 256.8125 314.566406 258.449219 311.394531 260.625 308.574219 C 260.976562 308.125 261.335938 307.675781 261.710938 307.238281 C 264.398438 304.15625 267.746094 301.585938 271.40625 299.714844 Z M 271.40625 299.714844 " fill-opacity="1" fill-rule="nonzero"/><path fill="#000000" d="M 260.789062 339.914062 C 260.625 339.914062 260.476562 339.878906 260.324219 339.816406 C 260.210938 339.765625 260.101562 339.714844 259.988281 339.667969 C 257.25 338.394531 255.265625 336.332031 254.113281 333.550781 C 251.679688 327.707031 253.628906 320.445312 254.566406 317.585938 C 255.75 313.992188 257.476562 310.722656 259.6875 307.851562 C 260.050781 307.375 260.425781 306.914062 260.824219 306.464844 C 263.535156 303.332031 267.011719 300.625 270.871094 298.652344 C 271.21875 298.476562 271.632812 298.476562 271.96875 298.664062 C 272.921875 299.164062 273.855469 299.714844 274.730469 300.261719 C 279.34375 303.195312 283.003906 306.941406 285.328125 311.097656 C 285.988281 312.28125 287.625 315.441406 288.414062 319.148438 C 289.152344 322.628906 288.902344 325.476562 287.664062 327.597656 C 286.527344 329.554688 283.640625 331.117188 280.78125 332.550781 L 280.265625 332.800781 C 274.230469 335.859375 267.773438 338.242188 261.0625 339.878906 C 260.976562 339.902344 260.875 339.914062 260.789062 339.914062 Z M 271.394531 301.0625 C 268.035156 302.871094 265 305.265625 262.613281 308.027344 C 262.25 308.449219 261.898438 308.875 261.5625 309.3125 C 259.523438 311.96875 257.925781 315.003906 256.8125 318.335938 C 255.953125 320.929688 254.175781 327.535156 256.300781 332.625 C 257.214844 334.8125 258.75 336.433594 260.886719 337.445312 C 267.285156 335.859375 273.433594 333.574219 279.179688 330.65625 L 279.703125 330.390625 C 281.453125 329.519531 284.714844 327.882812 285.601562 326.375 C 286.515625 324.800781 286.675781 322.464844 286.078125 319.621094 C 285.578125 317.273438 284.515625 314.515625 283.242188 312.246094 C 281.105469 308.425781 277.71875 304.980469 273.445312 302.257812 C 272.796875 301.859375 272.109375 301.449219 271.394531 301.0625 Z M 271.394531 301.0625 " fill-opacity="1" fill-rule="nonzero"/><path fill="#fffbfa" d="M 168.585938 346.242188 C 159.675781 345.945312 151.003906 344.371094 142.597656 341.425781 C 140.558594 340.714844 135.636719 339.652344 134.960938 337.082031 C 134.425781 335.023438 134.472656 332.6875 134.722656 330.429688 C 138.449219 332.175781 141.320312 333.789062 144.746094 334.972656 C 152.855469 337.804688 161.675781 339.578125 170.285156 339.417969 C 170.484375 339.417969 170.683594 339.402344 170.886719 339.402344 C 179.667969 339.140625 188.742188 337.46875 197.125 334.847656 C 201.085938 333.613281 205.785156 330.34375 209.917969 330.144531 C 212.40625 330.019531 215.316406 331.589844 217.691406 332.203125 C 221.640625 333.226562 225.738281 333.898438 229.785156 334.335938 C 238.332031 335.273438 246.894531 334.835938 255.191406 333.089844 C 262.1875 331.617188 269.007812 329.230469 275.480469 325.949219 C 277.816406 324.761719 283.691406 321.992188 287.226562 319.382812 C 287.8125 322.128906 287.828125 324.902344 286.613281 326.984375 C 285.464844 328.96875 281.589844 330.777344 279.703125 331.726562 C 273.292969 334.972656 266.898438 337.207031 260.761719 338.703125 C 246.117188 342.273438 233.011719 341.636719 225.039062 340.589844 C 221.925781 340.175781 218.878906 339.542969 215.867188 338.667969 C 214.644531 338.304688 212.554688 337.042969 211.246094 337.195312 C 208.21875 337.53125 201.460938 340.953125 198.023438 341.925781 C 188.617188 344.582031 178.707031 346.042969 168.921875 345.03125 Z M 168.585938 346.242188 " fill-opacity="1" fill-rule="nonzero"/><g clip-path="url(#61f0c46813)"><path fill="#000000" d="M 169.023438 347.042969 C 169.011719 347.042969 168.546875 347.117188 168.535156 347.117188 C 159.441406 346.816406 150.59375 345.46875 142.207031 342.535156 C 141.894531 342.425781 141.507812 342.3125 141.070312 342.175781 C 138.472656 341.375 134.550781 340.179688 133.8125 337.371094 C 133.3125 335.449219 133.226562 333.125 133.550781 330.28125 C 133.585938 329.894531 133.8125 329.554688 134.148438 329.367188 C 134.488281 329.183594 134.886719 329.167969 135.238281 329.332031 C 136.335938 329.84375 137.359375 330.34375 138.347656 330.828125 C 140.734375 332.003906 142.796875 333.011719 145.144531 333.835938 C 153.78125 336.859375 162.476562 338.367188 170.273438 338.207031 L 170.859375 338.191406 C 179.183594 337.945312 188.140625 336.382812 196.773438 333.699219 C 198.1875 333.261719 199.710938 332.539062 201.335938 331.777344 C 204.148438 330.453125 207.058594 329.082031 209.871094 328.945312 C 211.769531 328.84375 213.730469 329.554688 215.605469 330.242188 C 216.453125 330.554688 217.265625 330.855469 217.992188 331.042969 C 221.589844 331.964844 225.613281 332.675781 229.925781 333.152344 C 238.296875 334.0625 246.71875 333.648438 254.953125 331.925781 C 261.863281 330.480469 268.597656 328.109375 274.957031 324.886719 L 276.132812 324.300781 C 278.917969 322.914062 283.566406 320.605469 286.527344 318.421875 C 286.851562 318.183594 287.277344 318.125 287.664062 318.273438 C 288.039062 318.421875 288.328125 318.746094 288.414062 319.148438 C 289.152344 322.628906 288.902344 325.476562 287.664062 327.597656 C 286.527344 329.554688 283.640625 331.117188 280.78125 332.550781 L 280.265625 332.800781 C 274.230469 335.859375 267.773438 338.242188 261.0625 339.878906 C 246.378906 343.449219 233.296875 342.886719 224.902344 341.789062 C 221.753906 341.375 218.605469 340.714844 215.554688 339.828125 C 215.066406 339.691406 214.53125 339.453125 213.957031 339.203125 C 213.105469 338.828125 211.96875 338.332031 211.394531 338.394531 C 209.78125 338.566406 206.683594 339.851562 203.933594 340.976562 C 201.835938 341.835938 199.835938 342.660156 198.363281 343.085938 C 188.117188 345.980469 178.519531 347.078125 169.808594 346.332031 L 169.734375 346.582031 C 169.585938 347.078125 169.5625 347.042969 169.023438 347.042969 Z M 135.773438 332.238281 C 135.675781 334.023438 135.785156 335.523438 136.125 336.769531 C 136.523438 338.292969 139.933594 339.339844 141.773438 339.902344 C 142.234375 340.039062 142.660156 340.179688 142.996094 340.289062 C 150.867188 343.046875 159.175781 344.570312 167.699219 344.945312 L 167.785156 344.707031 C 167.949219 344.160156 168.472656 343.785156 169.0625 343.859375 C 177.71875 344.746094 187.367188 343.710938 197.710938 340.789062 C 199.0625 340.402344 200.984375 339.617188 203.035156 338.78125 C 206.058594 337.53125 209.195312 336.246094 211.132812 336.035156 C 212.304688 335.898438 213.691406 336.496094 214.90625 337.03125 C 215.40625 337.246094 215.878906 337.457031 216.21875 337.558594 C 219.152344 338.40625 222.175781 339.042969 225.214844 339.441406 C 233.410156 340.515625 246.179688 341.0625 260.5 337.582031 C 267.035156 335.984375 273.320312 333.675781 279.191406 330.703125 L 279.71875 330.441406 C 281.464844 329.570312 284.726562 327.933594 285.613281 326.421875 C 286.328125 325.199219 286.589844 323.515625 286.378906 321.46875 C 283.378906 323.402344 279.617188 325.273438 277.21875 326.460938 L 276.054688 327.035156 C 269.507812 330.34375 262.585938 332.789062 255.464844 334.273438 C 246.980469 336.046875 238.308594 336.472656 229.6875 335.535156 C 225.265625 335.046875 221.128906 334.324219 217.417969 333.363281 C 216.566406 333.152344 215.71875 332.828125 214.804688 332.5 C 213.144531 331.890625 211.417969 331.265625 210.007812 331.339844 C 207.671875 331.453125 204.972656 332.726562 202.371094 333.949219 C 200.671875 334.75 199.074219 335.511719 197.511719 335.996094 C 188.664062 338.753906 179.480469 340.339844 170.960938 340.601562 L 170.347656 340.613281 C 162.261719 340.765625 153.292969 339.214844 144.382812 336.109375 C 141.894531 335.234375 139.671875 334.148438 137.324219 333 C 136.796875 332.75 136.296875 332.5 135.773438 332.238281 Z M 135.773438 332.238281 " fill-opacity="1" fill-rule="nonzero"/></g><path fill="#000000" d="M 211.082031 338.417969 C 210.480469 338.417969 209.957031 337.96875 209.894531 337.34375 C 209.019531 329.019531 208.558594 322.054688 208.070312 314.691406 C 207.820312 310.820312 207.558594 306.828125 207.222656 302.433594 C 207.160156 301.621094 207.082031 300.5 206.996094 299.214844 C 206.722656 295.257812 206.347656 289.828125 205.996094 287.179688 C 205.910156 286.53125 206.371094 285.933594 207.019531 285.847656 C 207.671875 285.757812 208.269531 286.21875 208.359375 286.871094 C 208.71875 289.589844 209.09375 295.058594 209.371094 299.050781 C 209.457031 300.324219 209.53125 301.449219 209.59375 302.257812 C 209.933594 306.664062 210.195312 310.660156 210.457031 314.539062 C 210.945312 321.878906 211.394531 328.820312 212.269531 337.105469 C 212.34375 337.769531 211.867188 338.355469 211.207031 338.417969 C 211.167969 338.417969 211.132812 338.417969 211.082031 338.417969 Z M 211.082031 338.417969 " fill-opacity="1" fill-rule="nonzero"/><path fill="#000000" d="M 293.636719 213.691406 C 293.5 213.890625 294.074219 213.441406 294.113281 213.417969 C 294.636719 213.078125 295.1875 212.765625 295.722656 212.457031 C 297.308594 211.554688 299.085938 210.90625 300.808594 210.332031 C 305.683594 208.75 310.65625 209.085938 315.554688 210.410156 C 319.640625 211.519531 323.675781 213.179688 327 215.835938 C 330.933594 218.996094 333.734375 223.050781 338.667969 224.863281 C 343.203125 226.535156 348.964844 225.824219 349.628906 220.082031 C 350.277344 214.414062 346.328125 208.785156 342.816406 204.742188 C 333.808594 194.371094 315.589844 185.96875 301.734375 187.679688 C 290.339844 189.078125 285.503906 201.808594 291.949219 210.90625 " fill-opacity="1" fill-rule="nonzero"/><path fill="#000000" d="M 342.890625 226.859375 C 341.40625 226.859375 339.820312 226.570312 338.246094 225.996094 C 334.644531 224.675781 332.121094 222.242188 329.671875 219.894531 C 328.585938 218.84375 327.449219 217.761719 326.238281 216.785156 C 323.414062 214.515625 319.800781 212.816406 315.226562 211.582031 C 309.957031 210.160156 305.355469 210.121094 301.171875 211.480469 C 299.746094 211.945312 297.921875 212.59375 296.296875 213.503906 C 295.773438 213.804688 295.25 214.101562 294.738281 214.425781 C 294.347656 214.714844 293.523438 215.339844 292.761719 214.601562 C 292.335938 214.191406 292.300781 213.492188 292.648438 213.003906 C 292.800781 212.792969 293.011719 212.640625 293.25 212.566406 C 293.273438 212.542969 293.300781 212.53125 293.324219 212.515625 C 293.347656 212.503906 293.425781 212.441406 293.449219 212.429688 C 294 212.082031 294.5625 211.742188 295.136719 211.433594 C 296.9375 210.421875 298.910156 209.722656 300.433594 209.222656 C 305.070312 207.710938 310.117188 207.726562 315.851562 209.285156 C 320.75 210.609375 324.636719 212.457031 327.734375 214.9375 C 329.023438 215.976562 330.199219 217.097656 331.335938 218.183594 C 333.707031 220.46875 335.945312 222.613281 339.070312 223.761719 C 341.792969 224.761719 344.566406 224.710938 346.304688 223.636719 C 347.515625 222.890625 348.226562 221.652344 348.429688 219.96875 C 348.902344 215.863281 346.765625 211.144531 341.90625 205.539062 C 332.570312 194.792969 314.605469 187.316406 301.871094 188.878906 C 297.097656 189.464844 293.285156 192.234375 291.414062 196.492188 C 289.4375 200.960938 290 206.101562 292.925781 210.222656 C 293.300781 210.757812 293.175781 211.507812 292.636719 211.882812 C 292.101562 212.269531 291.351562 212.128906 290.976562 211.59375 C 287.5625 206.777344 286.902344 200.773438 289.226562 195.519531 C 291.460938 190.476562 295.960938 187.179688 301.582031 186.492188 C 315.015625 184.847656 333.921875 192.683594 343.71875 203.96875 C 349.039062 210.097656 351.363281 215.414062 350.8125 220.230469 C 350.539062 222.652344 349.414062 224.523438 347.578125 225.660156 C 346.265625 226.460938 344.640625 226.859375 342.890625 226.859375 Z M 342.890625 226.859375 " fill-opacity="1" fill-rule="nonzero"/><path fill="#fff100" d="M 309.03125 190.402344 C 309.03125 190.402344 278.429688 211.742188 262.625 222.777344 C 260.175781 224.488281 258.511719 227.097656 257.988281 230.027344 C 257.464844 232.960938 258.136719 235.984375 259.835938 238.429688 C 271.296875 254.816406 295.074219 288.828125 306.519531 305.203125 C 308.230469 307.652344 310.84375 309.3125 313.777344 309.835938 C 316.714844 310.359375 319.738281 309.6875 322.1875 307.988281 C 338.007812 296.953125 368.59375 275.609375 368.59375 275.609375 Z M 309.03125 190.402344 " fill-opacity="1" fill-rule="nonzero"/><g clip-path="url(#9e8922359c)"><path fill="#000000" d="M 315.765625 311.207031 C 315.027344 311.207031 314.304688 311.144531 313.566406 311.007812 C 310.292969 310.421875 307.445312 308.613281 305.542969 305.890625 L 258.863281 239.117188 C 256.964844 236.394531 256.226562 233.097656 256.8125 229.828125 C 257.386719 226.558594 259.210938 223.714844 261.9375 221.816406 L 308.34375 189.4375 C 308.878906 189.066406 309.628906 189.191406 310.003906 189.738281 L 369.570312 274.949219 C 369.746094 275.210938 369.820312 275.523438 369.769531 275.835938 C 369.71875 276.148438 369.53125 276.421875 369.28125 276.609375 L 322.863281 308.988281 C 320.75 310.445312 318.289062 311.207031 315.765625 311.207031 Z M 308.730469 192.074219 L 263.296875 223.761719 C 261.101562 225.296875 259.625 227.59375 259.152344 230.242188 C 258.675781 232.886719 259.261719 235.546875 260.8125 237.753906 L 307.492188 304.53125 C 309.03125 306.726562 311.328125 308.199219 313.980469 308.675781 C 316.628906 309.148438 319.289062 308.5625 321.5 307.015625 L 366.933594 275.324219 Z M 308.730469 192.074219 " fill-opacity="1" fill-rule="nonzero"/></g><path fill="#fffbfa" d="M 311.316406 194.207031 L 317.503906 203.058594 L 268.507812 237.230469 C 266.574219 238.589844 263.609375 237.707031 261.898438 235.257812 C 260.1875 232.8125 260.375 229.730469 262.324219 228.382812 Z M 311.316406 194.207031 " fill-opacity="1" fill-rule="nonzero"/><path fill="#000000" d="M 266.433594 239.078125 C 265.898438 239.078125 265.335938 238.992188 264.773438 238.828125 C 263.273438 238.378906 261.898438 237.355469 260.925781 235.957031 C 259.9375 234.558594 259.449219 232.925781 259.550781 231.351562 C 259.648438 229.679688 260.398438 228.28125 261.636719 227.421875 L 310.628906 193.246094 C 311.167969 192.871094 311.917969 192.996094 312.292969 193.546875 L 318.476562 202.394531 C 318.652344 202.65625 318.726562 202.96875 318.675781 203.28125 C 318.628906 203.59375 318.441406 203.867188 318.191406 204.054688 L 269.195312 238.230469 C 268.398438 238.789062 267.445312 239.078125 266.433594 239.078125 Z M 311.015625 195.878906 L 263 229.367188 C 262.363281 229.804688 261.988281 230.566406 261.925781 231.488281 C 261.863281 232.523438 262.199219 233.625 262.875 234.585938 C 264.199219 236.480469 266.421875 237.242188 267.820312 236.269531 L 315.839844 202.78125 Z M 311.015625 195.878906 " fill-opacity="1" fill-rule="nonzero"/><path fill="#fffbfa" d="M 353.027344 222.164062 C 351.039062 219.457031 346.867188 217.023438 345.527344 216.324219 C 339.59375 213.191406 331.996094 210.519531 326.648438 216.574219 C 325.125 218.296875 324.25 220.628906 323.976562 222.902344 C 323.914062 223.453125 323.761719 226.171875 323.761719 226.171875 C 323.761719 226.171875 319.140625 226.246094 316.527344 226.648438 C 310.742188 227.519531 305.308594 231.613281 301.707031 236.207031 C 298.210938 240.664062 295.761719 246.691406 296.6875 252.433594 C 296.984375 254.292969 297.761719 256.441406 298.746094 257.824219 C 298.785156 257.875 298.761719 257.949219 298.722656 257.988281 C 297.421875 259.148438 296.160156 259.722656 294.710938 262.707031 C 292.949219 266.324219 293.398438 270.65625 295.296875 274.089844 C 297.011719 277.183594 299.734375 279.355469 303.21875 280.03125 C 304.40625 280.253906 308.117188 280.191406 308.117188 280.191406 C 308.992188 280.839844 309.65625 283.238281 311.453125 284.910156 C 315.804688 288.953125 319.101562 288.453125 324.761719 285.972656 C 326.9375 285.023438 330.058594 283.289062 330.058594 283.289062 C 330.523438 283.25 331.132812 284.734375 333.621094 285.957031 C 335.746094 287.007812 338.246094 286.183594 340.304688 285.121094 C 352.1875 278.992188 361.636719 260.347656 359.410156 247.863281 C 358.949219 245.292969 358.160156 242.808594 356.660156 240.652344 C 356.085938 239.828125 355.363281 238.804688 354.488281 237.878906 C 354.488281 237.878906 355.386719 233.5625 355.574219 231.964844 C 356.011719 228.304688 355.199219 225.113281 353.027344 222.164062 Z M 353.027344 222.164062 " fill-opacity="1" fill-rule="nonzero"/><path fill="#000000" d="M 317.839844 289.117188 C 315.402344 289.117188 313.167969 288.144531 310.644531 285.796875 C 309.492188 284.722656 308.78125 283.449219 308.207031 282.414062 C 308.019531 282.078125 307.792969 281.664062 307.605469 281.402344 C 306.480469 281.414062 304.019531 281.414062 302.984375 281.214844 C 299.285156 280.503906 296.1875 278.183594 294.25 274.675781 C 292.023438 270.65625 291.789062 265.988281 293.636719 262.195312 C 294.910156 259.574219 296.125 258.597656 297.183594 257.738281 C 297.210938 257.726562 297.222656 257.699219 297.246094 257.6875 C 296.4375 256.253906 295.796875 254.40625 295.511719 252.632812 C 294.625 247.128906 296.535156 240.875 300.773438 235.484375 C 305.042969 230.054688 310.867188 226.308594 316.351562 225.484375 C 318.238281 225.199219 321.074219 225.074219 322.636719 225.023438 C 322.6875 224.1875 322.75 223.113281 322.800781 222.765625 C 323.125 220.070312 324.175781 217.585938 325.761719 215.789062 C 331.835938 208.910156 340.269531 212.207031 346.089844 215.261719 C 346.652344 215.5625 351.625 218.234375 353.988281 221.453125 C 356.324219 224.636719 357.222656 228.121094 356.761719 232.113281 C 356.613281 233.398438 356.039062 236.28125 355.773438 237.542969 C 356.539062 238.417969 357.160156 239.304688 357.636719 239.988281 C 359.085938 242.046875 360.023438 244.496094 360.585938 247.679688 C 362.910156 260.796875 353.136719 279.878906 340.84375 286.207031 C 337.730469 287.816406 335.183594 288.09375 333.082031 287.058594 C 331.421875 286.246094 330.511719 285.320312 329.949219 284.734375 C 328.898438 285.296875 326.835938 286.382812 325.238281 287.082031 C 322.375 288.328125 320.027344 289.117188 317.839844 289.117188 Z M 308.132812 279.007812 C 308.382812 279.007812 308.632812 279.09375 308.84375 279.242188 C 309.429688 279.679688 309.84375 280.417969 310.316406 281.265625 C 310.832031 282.1875 311.417969 283.238281 312.292969 284.0625 C 316.078125 287.582031 318.726562 287.34375 324.300781 284.898438 C 326.398438 283.972656 329.472656 282.289062 329.496094 282.265625 C 329.648438 282.1875 329.808594 282.140625 329.972656 282.113281 C 330.722656 282.050781 331.171875 282.527344 331.621094 283 C 332.097656 283.5 332.808594 284.234375 334.160156 284.910156 C 335.53125 285.582031 337.371094 285.320312 339.769531 284.085938 C 351.050781 278.269531 360.386719 260.109375 358.25 248.089844 C 357.75 245.269531 356.9375 243.121094 355.6875 241.363281 C 355.164062 240.625 354.449219 239.601562 353.625 238.730469 C 353.351562 238.441406 353.238281 238.042969 353.324219 237.667969 C 353.339844 237.628906 354.226562 233.386719 354.402344 231.851562 C 354.800781 228.445312 354.0625 225.597656 352.078125 222.878906 C 350.414062 220.605469 346.839844 218.359375 344.992188 217.386719 C 336.757812 213.054688 331.382812 213.042969 327.5625 217.371094 C 326.285156 218.808594 325.449219 220.832031 325.1875 223.050781 C 325.136719 223.425781 325.035156 225.210938 324.972656 226.246094 C 324.9375 226.871094 324.425781 227.359375 323.800781 227.371094 C 323.75 227.371094 319.226562 227.457031 316.726562 227.832031 C 311.828125 228.570312 306.570312 231.976562 302.671875 236.945312 C 298.910156 241.75 297.125 247.464844 297.886719 252.246094 C 298.171875 254.003906 298.910156 255.976562 299.746094 257.140625 C 300.132812 257.675781 300.046875 258.425781 299.535156 258.886719 C 299.257812 259.136719 298.984375 259.359375 298.710938 259.585938 C 297.710938 260.394531 296.847656 261.09375 295.8125 263.242188 C 294.324219 266.289062 294.535156 270.230469 296.375 273.527344 C 297.984375 276.449219 300.445312 278.292969 303.46875 278.882812 C 304.246094 279.03125 306.730469 279.042969 308.132812 279.007812 C 308.105469 279.007812 308.117188 279.007812 308.132812 279.007812 Z M 297.773438 258.511719 C 297.785156 258.523438 297.785156 258.523438 297.773438 258.511719 C 297.785156 258.523438 297.785156 258.523438 297.773438 258.511719 Z M 297.933594 257.113281 C 297.921875 257.113281 297.921875 257.113281 297.933594 257.113281 C 297.921875 257.113281 297.921875 257.113281 297.933594 257.113281 Z M 297.933594 257.113281 " fill-opacity="1" fill-rule="nonzero"/><path fill="#000000" d="M 329.285156 284.898438 C 328.847656 284.898438 328.421875 284.648438 328.210938 284.222656 C 327.921875 283.636719 328.171875 282.914062 328.761719 282.625 C 335.109375 279.53125 340.042969 272.464844 340.519531 265.8125 C 340.570312 265.152344 341.128906 264.675781 341.792969 264.703125 C 342.457031 264.753906 342.941406 265.3125 342.90625 265.976562 C 342.378906 273.414062 336.871094 281.316406 329.808594 284.761719 C 329.636719 284.859375 329.460938 284.898438 329.285156 284.898438 Z M 307.09375 281.402344 C 306.457031 281.402344 305.933594 280.902344 305.90625 280.253906 C 305.882812 279.59375 306.394531 279.042969 307.054688 279.019531 C 307.417969 279.007812 308.195312 278.917969 309.167969 278.769531 C 310.71875 278.542969 311.980469 278.121094 313.453125 277.632812 L 313.917969 277.484375 C 320.601562 275.273438 326.050781 269.734375 327.460938 263.703125 C 327.609375 263.066406 328.261719 262.667969 328.898438 262.816406 C 329.535156 262.96875 329.933594 263.617188 329.785156 264.253906 C 328.160156 271.167969 322.226562 277.257812 314.667969 279.753906 L 314.203125 279.90625 C 312.691406 280.402344 311.265625 280.878906 309.554688 281.128906 C 308.757812 281.242188 307.742188 281.378906 307.167969 281.402344 C 307.132812 281.402344 307.105469 281.402344 307.09375 281.402344 Z M 305.445312 261.53125 C 304.96875 261.53125 304.496094 261.496094 304.03125 261.433594 C 302.222656 261.183594 300.421875 260.421875 298.824219 259.222656 L 298.648438 259.097656 C 298.171875 258.761719 297.511719 258.300781 297.246094 257.589844 C 297.023438 256.964844 297.347656 256.289062 297.960938 256.066406 C 298.558594 255.851562 299.210938 256.140625 299.460938 256.714844 C 299.558594 256.828125 299.859375 257.039062 300.007812 257.152344 L 300.234375 257.3125 C 301.507812 258.261719 302.933594 258.875 304.34375 259.0625 C 307.417969 259.484375 310.542969 258.0625 312.480469 255.328125 C 312.84375 254.816406 313.140625 254.230469 313.453125 253.617188 C 313.929688 252.695312 314.417969 251.746094 315.164062 250.910156 C 316.089844 249.886719 317.316406 249.25 318.390625 248.703125 C 318.613281 248.589844 318.839844 248.464844 319.0625 248.351562 C 319.652344 248.039062 320.375 248.25 320.6875 248.824219 C 321 249.398438 320.789062 250.125 320.214844 250.449219 C 319.976562 250.574219 319.738281 250.699219 319.5 250.824219 C 318.515625 251.335938 317.578125 251.820312 316.941406 252.53125 C 316.402344 253.121094 316.003906 253.894531 315.578125 254.71875 C 315.242188 255.378906 314.878906 256.078125 314.417969 256.726562 C 312.265625 259.773438 308.917969 261.53125 305.445312 261.53125 Z M 299.496094 256.789062 Z M 355.050781 239.800781 C 354.726562 239.800781 354.3125 239.652344 353.9375 239.101562 C 353.886719 239.027344 353.824219 238.941406 353.789062 238.890625 C 353.574219 238.640625 353.351562 238.402344 353.113281 238.167969 C 352.414062 237.457031 351.640625 236.742188 350.738281 235.984375 C 348.191406 233.835938 345.441406 232.152344 342.566406 230.964844 C 341.957031 230.714844 341.667969 230.015625 341.917969 229.40625 C 342.167969 228.792969 342.867188 228.507812 343.480469 228.757812 C 346.578125 230.042969 349.539062 231.851562 352.277344 234.148438 C 353.238281 234.960938 354.074219 235.71875 354.824219 236.496094 C 355.101562 236.78125 355.375 237.070312 355.625 237.367188 C 355.6875 237.441406 355.800781 237.605469 355.898438 237.742188 C 355.988281 237.828125 356.050781 237.929688 356.113281 238.042969 C 356.386719 238.605469 356.199219 239.316406 355.664062 239.628906 C 355.5625 239.703125 355.335938 239.800781 355.050781 239.800781 Z M 332.820312 229.03125 C 332.710938 229.03125 332.609375 229.019531 332.496094 228.980469 C 329.898438 228.257812 327.625 227.792969 325.550781 227.570312 C 325.113281 227.519531 324.625 227.53125 324.113281 227.519531 C 323.386719 227.519531 322.652344 227.519531 321.914062 227.394531 C 321.261719 227.28125 320.824219 226.660156 320.949219 226.011719 C 321.0625 225.359375 321.6875 224.925781 322.339844 225.035156 C 322.863281 225.125 323.476562 225.136719 324.113281 225.125 C 324.664062 225.125 325.238281 225.125 325.8125 225.1875 C 328.023438 225.421875 330.433594 225.898438 333.160156 226.671875 C 333.796875 226.847656 334.171875 227.507812 333.984375 228.144531 C 333.820312 228.679688 333.347656 229.03125 332.820312 229.03125 Z M 332.820312 229.03125 " fill-opacity="1" fill-rule="nonzero"/><path fill="#fffbfa" d="M 158.902344 133.773438 C 166.9375 133.773438 173.472656 147.949219 173.472656 165.414062 C 173.472656 182.875 166.949219 197.054688 158.902344 197.054688 C 150.867188 197.054688 144.34375 182.875 144.34375 165.414062 C 144.34375 147.949219 150.867188 133.773438 158.902344 133.773438 Z M 158.902344 133.773438 " fill-opacity="1" fill-rule="nonzero"/><path fill="#000000" d="M 158.902344 198.25 C 150.066406 198.25 143.144531 183.824219 143.144531 165.414062 C 143.144531 147.003906 150.066406 132.574219 158.902344 132.574219 C 167.734375 132.574219 174.660156 147.003906 174.660156 165.414062 C 174.660156 183.824219 167.734375 198.25 158.902344 198.25 Z M 158.902344 134.957031 C 151.65625 134.957031 145.53125 148.898438 145.53125 165.414062 C 145.53125 181.925781 151.65625 195.867188 158.902344 195.867188 C 166.148438 195.867188 172.273438 181.925781 172.273438 165.414062 C 172.273438 148.898438 166.148438 134.957031 158.902344 134.957031 Z M 158.902344 134.957031 " fill-opacity="1" fill-rule="nonzero"/><path fill="#fffbfa" d="M 212.707031 133.773438 C 220.742188 133.773438 227.261719 147.949219 227.261719 165.414062 C 227.261719 182.875 220.742188 197.054688 212.707031 197.054688 C 204.671875 197.054688 198.148438 182.875 198.148438 165.414062 C 198.148438 147.949219 204.671875 133.773438 212.707031 133.773438 Z M 212.707031 133.773438 " fill-opacity="1" fill-rule="nonzero"/><path fill="#000000" d="M 212.707031 198.25 C 203.871094 198.25 196.949219 183.824219 196.949219 165.414062 C 196.949219 147.003906 203.871094 132.574219 212.707031 132.574219 C 221.539062 132.574219 228.460938 147.003906 228.460938 165.414062 C 228.460938 183.824219 221.550781 198.25 212.707031 198.25 Z M 212.707031 134.957031 C 205.460938 134.957031 199.335938 148.898438 199.335938 165.414062 C 199.335938 181.925781 205.460938 195.867188 212.707031 195.867188 C 219.953125 195.867188 226.074219 181.925781 226.074219 165.414062 C 226.074219 148.898438 219.953125 134.957031 212.707031 134.957031 Z M 212.707031 134.957031 " fill-opacity="1" fill-rule="nonzero"/><path fill="#000000" d="M 203.371094 165.335938 C 203.371094 165.5625 203.371094 165.773438 203.371094 165.988281 C 203.371094 177.207031 206.796875 186.320312 210.996094 186.320312 C 215.207031 186.320312 218.617188 177.207031 218.617188 165.988281 C 218.617188 154.765625 215.191406 145.65625 210.996094 145.65625 C 208.207031 145.65625 205.769531 149.636719 204.445312 155.578125 L 210.996094 160.082031 Z M 203.371094 165.335938 " fill-opacity="1" fill-rule="nonzero"/><path fill="#000000" d="M 210.996094 187.515625 C 205.257812 187.515625 202.171875 176.421875 202.171875 165.988281 L 202.171875 165.3125 C 202.171875 164.925781 202.371094 164.5625 202.683594 164.351562 L 208.882812 160.082031 L 203.757812 156.5625 C 203.359375 156.289062 203.160156 155.789062 203.273438 155.316406 C 204.820312 148.414062 207.632812 144.457031 210.996094 144.457031 C 216.730469 144.457031 219.816406 155.550781 219.816406 165.988281 C 219.816406 176.421875 216.730469 187.515625 210.996094 187.515625 Z M 204.558594 165.960938 L 204.558594 165.988281 C 204.558594 176.945312 207.957031 185.132812 210.996094 185.132812 C 214.03125 185.132812 217.429688 176.945312 217.429688 165.988281 C 217.429688 155.027344 214.03125 146.839844 210.996094 146.839844 C 209.382812 146.839844 207.195312 149.386719 205.796875 155.054688 L 211.679688 159.097656 C 212.007812 159.320312 212.195312 159.683594 212.195312 160.082031 C 212.195312 160.46875 212.007812 160.84375 211.679688 161.070312 Z M 204.558594 165.960938 " fill-opacity="1" fill-rule="nonzero"/><path fill="#000000" d="M 149.554688 165.335938 C 149.554688 165.5625 149.554688 165.773438 149.554688 165.988281 C 149.554688 177.207031 152.980469 186.320312 157.179688 186.320312 C 161.390625 186.320312 164.800781 177.207031 164.800781 165.988281 C 164.800781 154.765625 161.375 145.65625 157.179688 145.65625 C 154.390625 145.65625 151.953125 149.636719 150.628906 155.578125 L 157.179688 160.082031 Z M 149.554688 165.335938 " fill-opacity="1" fill-rule="nonzero"/><path fill="#000000" d="M 157.191406 187.515625 C 151.457031 187.515625 148.367188 176.421875 148.367188 165.988281 L 148.367188 165.3125 C 148.367188 164.925781 148.570312 164.5625 148.882812 164.339844 L 155.078125 160.070312 L 149.957031 156.550781 C 149.554688 156.277344 149.355469 155.777344 149.46875 155.300781 C 151.019531 148.402344 153.828125 144.445312 157.191406 144.445312 C 162.925781 144.445312 166.011719 155.539062 166.011719 165.972656 C 166.011719 176.421875 162.914062 187.515625 157.191406 187.515625 Z M 150.753906 165.960938 L 150.753906 165.988281 C 150.753906 176.945312 154.152344 185.132812 157.191406 185.132812 C 160.226562 185.132812 163.625 176.945312 163.625 165.988281 C 163.625 155.027344 160.226562 146.839844 157.191406 146.839844 C 155.578125 146.839844 153.390625 149.386719 151.992188 155.054688 L 157.878906 159.097656 C 158.203125 159.320312 158.390625 159.683594 158.390625 160.082031 C 158.390625 160.46875 158.203125 160.84375 157.878906 161.070312 Z M 150.753906 165.960938 " fill-opacity="1" fill-rule="nonzero"/><path fill="#000000" d="M 169.722656 128.179688 C 169.25 128.179688 168.796875 127.894531 168.609375 127.429688 C 166.285156 121.578125 160.0625 117.035156 153.640625 119.566406 C 151.53125 120.40625 149.40625 121.964844 147.355469 124.210938 C 146.496094 125.148438 145.90625 125.910156 145.433594 126.65625 C 145.40625 126.707031 145.058594 127.371094 145.007812 127.46875 L 143.945312 126.933594 L 142.894531 127.53125 C 142.535156 126.894531 142.820312 126.371094 143.410156 125.410156 C 143.96875 124.523438 144.632812 123.664062 145.59375 122.613281 C 147.894531 120.09375 150.316406 118.320312 152.765625 117.359375 C 160.578125 114.289062 168.074219 119.628906 170.824219 126.570312 C 171.058594 127.183594 170.761719 127.882812 170.148438 128.117188 C 170.023438 128.15625 169.871094 128.179688 169.722656 128.179688 Z M 197.75 128.179688 C 197.597656 128.179688 197.449219 128.15625 197.3125 128.09375 C 196.699219 127.855469 196.398438 127.15625 196.636719 126.546875 C 199.386719 119.605469 206.894531 114.261719 214.691406 117.335938 C 217.15625 118.296875 219.566406 120.066406 221.863281 122.589844 C 222.800781 123.625 223.488281 124.5 224.039062 125.371094 C 224.75 126.507812 224.863281 126.957031 224.5625 127.507812 L 222.503906 126.308594 L 223.515625 126.933594 L 222.441406 127.457031 C 222.390625 127.355469 222.050781 126.71875 221.988281 126.609375 C 221.539062 125.894531 220.929688 125.121094 220.089844 124.199219 C 218.042969 121.953125 215.917969 120.378906 213.804688 119.554688 C 207.394531 117.035156 201.160156 121.578125 198.835938 127.417969 C 198.675781 127.894531 198.222656 128.179688 197.75 128.179688 Z M 197.75 128.179688 " fill-opacity="1" fill-rule="nonzero"/><path fill="#fffbfa" d="M 185.605469 185.757812 C 192.714844 185.757812 198.5 189.402344 198.5 193.882812 C 198.5 198.363281 192.726562 202.007812 185.605469 202.007812 C 178.496094 202.007812 172.710938 198.363281 172.710938 193.882812 C 172.722656 189.402344 178.496094 185.757812 185.605469 185.757812 Z M 185.605469 185.757812 " fill-opacity="1" fill-rule="nonzero"/><path fill="#000000" d="M 185.605469 203.207031 C 177.707031 203.207031 171.523438 199.113281 171.523438 193.882812 C 171.523438 188.652344 177.707031 184.558594 185.605469 184.558594 C 193.5 184.558594 199.6875 188.652344 199.6875 193.882812 C 199.699219 199.113281 193.5 203.207031 185.605469 203.207031 Z M 185.605469 186.957031 C 179.269531 186.957031 173.910156 190.125 173.910156 193.882812 C 173.910156 197.640625 179.269531 200.824219 185.605469 200.824219 C 191.9375 200.824219 197.300781 197.652344 197.300781 193.882812 C 197.300781 190.125 191.953125 186.957031 185.605469 186.957031 Z M 185.605469 186.957031 " fill-opacity="1" fill-rule="nonzero"/><path fill="#000000" d="M 187.628906 230.304688 C 185.230469 230.390625 182.894531 230.253906 181.09375 229.992188 C 170.222656 228.40625 160.363281 225.050781 154.179688 215.675781 C 152.128906 212.578125 150.492188 208.8125 149.34375 204.242188 C 149.355469 204.21875 149.96875 204.703125 150.03125 204.742188 C 150.519531 205.089844 151.019531 205.414062 151.53125 205.726562 C 153.105469 206.664062 154.730469 207.523438 156.378906 208.335938 C 160.9375 210.609375 165.800781 212.355469 170.761719 213.542969 C 171.335938 213.679688 171.921875 213.816406 172.507812 213.929688 C 175.046875 214.453125 177.671875 214.839844 180.355469 215.0625 C 182.730469 215.261719 185.15625 215.339844 187.628906 215.300781 C 190.101562 215.351562 192.527344 215.261719 194.902344 215.0625 C 197.585938 214.839844 200.210938 214.453125 202.746094 213.929688 C 203.335938 213.804688 203.921875 213.679688 204.496094 213.542969 C 209.457031 212.355469 214.316406 210.59375 218.878906 208.335938 C 220.515625 207.523438 222.152344 206.675781 223.726562 205.726562 C 224.238281 205.414062 224.738281 205.105469 225.226562 204.742188 C 225.289062 204.703125 225.902344 204.21875 225.914062 204.242188 C 224.765625 208.8125 223.128906 212.566406 221.078125 215.675781 C 214.894531 225.050781 205.035156 228.40625 194.164062 229.992188 C 192.363281 230.253906 190.027344 230.378906 187.628906 230.304688 Z M 187.628906 230.304688 " fill-opacity="1" fill-rule="nonzero"/><path fill="#000000" d="M 186.191406 231.515625 C 184.328125 231.515625 182.492188 231.390625 180.917969 231.164062 C 171.671875 229.816406 160.164062 226.910156 153.179688 216.324219 C 150.992188 213.015625 149.320312 209.046875 148.179688 204.53125 C 148.019531 203.894531 148.40625 203.242188 149.042969 203.082031 C 149.644531 202.933594 149.957031 203.167969 150.707031 203.742188 C 151.144531 204.066406 151.582031 204.355469 152.140625 204.691406 C 153.480469 205.492188 154.953125 206.289062 156.902344 207.25 C 161.375 209.472656 166.125 211.195312 171.035156 212.367188 C 171.597656 212.503906 172.171875 212.628906 172.757812 212.753906 C 175.246094 213.277344 177.832031 213.652344 180.457031 213.867188 C 182.792969 214.066406 185.203125 214.140625 187.605469 214.101562 C 190.050781 214.152344 192.464844 214.066406 194.800781 213.867188 C 197.425781 213.640625 200.023438 213.265625 202.511719 212.753906 C 203.085938 212.628906 203.660156 212.503906 204.234375 212.367188 C 209.132812 211.195312 213.878906 209.472656 218.355469 207.25 C 220.304688 206.289062 221.765625 205.492188 223.113281 204.691406 C 223.664062 204.367188 224.113281 204.066406 224.515625 203.769531 C 225.289062 203.167969 225.613281 202.917969 226.214844 203.070312 C 226.851562 203.230469 227.226562 203.878906 227.074219 204.515625 C 225.9375 209.035156 224.265625 213.003906 222.078125 216.3125 C 215.09375 226.894531 203.585938 229.804688 194.339844 231.152344 C 192.363281 231.4375 189.976562 231.550781 187.628906 231.476562 C 187.140625 231.515625 186.667969 231.515625 186.191406 231.515625 Z M 151.394531 207.027344 C 152.378906 210.019531 153.65625 212.703125 155.179688 215.015625 C 161.640625 224.8125 172.507812 227.53125 181.269531 228.804688 C 183.09375 229.066406 185.390625 229.179688 187.589844 229.105469 C 187.617188 229.105469 187.640625 229.105469 187.679688 229.105469 C 189.878906 229.179688 192.175781 229.066406 194 228.804688 C 202.746094 227.53125 213.617188 224.8125 220.078125 215.015625 C 221.601562 212.691406 222.878906 210.019531 223.863281 207.027344 C 222.589844 207.761719 221.191406 208.511719 219.417969 209.398438 C 214.78125 211.695312 209.855469 213.480469 204.785156 214.703125 C 204.195312 214.839844 203.597656 214.976562 202.996094 215.101562 C 200.410156 215.636719 197.722656 216.023438 195 216.261719 C 192.578125 216.460938 190.089844 216.550781 187.605469 216.5 C 185.15625 216.550781 182.667969 216.460938 180.257812 216.261719 C 177.53125 216.039062 174.847656 215.636719 172.273438 215.101562 C 171.671875 214.976562 171.074219 214.839844 170.484375 214.703125 C 165.398438 213.480469 160.488281 211.707031 155.851562 209.398438 C 154.054688 208.511719 152.667969 207.761719 151.394531 207.027344 Z M 151.394531 207.027344 " fill-opacity="1" fill-rule="nonzero"/><path fill="#fffbfa" d="M 187.628906 222.738281 C 183.269531 222.765625 178.980469 222.328125 174.746094 221.566406 C 168.234375 220.382812 161.863281 218.421875 155.566406 216.164062 C 155.105469 216 154.640625 215.835938 154.179688 215.675781 C 152.128906 212.578125 150.492188 208.8125 149.34375 204.242188 C 149.355469 204.21875 149.96875 204.703125 150.03125 204.742188 C 150.519531 205.089844 151.019531 205.414062 151.53125 205.726562 C 153.105469 206.664062 154.730469 207.523438 156.378906 208.335938 C 160.9375 210.609375 165.800781 212.355469 170.761719 213.542969 C 171.335938 213.679688 171.921875 213.816406 172.507812 213.929688 C 175.046875 214.453125 177.671875 214.839844 180.355469 215.0625 C 182.730469 215.261719 185.15625 215.339844 187.628906 215.300781 C 190.101562 215.351562 192.527344 215.261719 194.902344 215.0625 C 197.585938 214.839844 200.210938 214.453125 202.746094 213.929688 C 203.335938 213.804688 203.921875 213.679688 204.496094 213.542969 C 209.457031 212.355469 214.316406 210.59375 218.878906 208.335938 C 220.515625 207.523438 222.152344 206.675781 223.726562 205.726562 C 224.238281 205.414062 224.738281 205.105469 225.226562 204.742188 C 225.289062 204.703125 225.902344 204.21875 225.914062 204.242188 C 224.765625 208.8125 223.128906 212.566406 221.078125 215.675781 C 220.617188 215.835938 220.152344 216 219.691406 216.164062 C 213.394531 218.410156 207.007812 220.382812 200.511719 221.566406 C 196.261719 222.328125 191.976562 222.765625 187.628906 222.738281 Z M 187.628906 222.738281 " fill-opacity="1" fill-rule="nonzero"/><path fill="#000000" d="M 187.179688 223.9375 C 183.105469 223.9375 178.957031 223.550781 174.519531 222.738281 C 168.796875 221.703125 162.636719 219.96875 155.152344 217.285156 L 153.78125 216.796875 C 153.53125 216.710938 153.316406 216.550781 153.179688 216.324219 C 150.992188 213.015625 149.320312 209.046875 148.179688 204.53125 C 148.019531 203.894531 148.40625 203.242188 149.042969 203.082031 C 149.644531 202.933594 149.957031 203.167969 150.707031 203.742188 C 151.144531 204.066406 151.582031 204.355469 152.140625 204.691406 C 153.480469 205.492188 154.953125 206.289062 156.902344 207.25 C 161.375 209.472656 166.125 211.195312 171.035156 212.367188 C 171.597656 212.503906 172.171875 212.628906 172.757812 212.753906 C 175.246094 213.277344 177.832031 213.652344 180.457031 213.867188 C 182.792969 214.066406 185.203125 214.140625 187.601562 214.101562 C 190.039062 214.152344 192.453125 214.066406 194.800781 213.867188 C 197.425781 213.640625 200.023438 213.265625 202.511719 212.753906 C 203.085938 212.628906 203.660156 212.503906 204.234375 212.367188 C 209.132812 211.195312 213.878906 209.472656 218.355469 207.25 C 220.304688 206.289062 221.765625 205.492188 223.113281 204.691406 C 223.664062 204.367188 224.113281 204.066406 224.515625 203.769531 C 225.289062 203.167969 225.613281 202.917969 226.214844 203.070312 C 226.851562 203.230469 227.226562 203.878906 227.074219 204.515625 C 225.9375 209.035156 224.265625 213.003906 222.078125 216.3125 C 221.941406 216.523438 221.726562 216.699219 221.476562 216.785156 L 220.101562 217.273438 C 212.617188 219.957031 206.457031 221.679688 200.734375 222.726562 C 196.136719 223.5625 191.875 223.964844 187.640625 223.925781 C 187.480469 223.9375 187.328125 223.9375 187.179688 223.9375 Z M 187.628906 221.542969 C 187.789062 221.554688 187.929688 221.542969 188.066406 221.542969 C 192 221.542969 196 221.167969 200.296875 220.382812 C 205.894531 219.355469 211.929688 217.660156 219.292969 215.027344 L 220.289062 214.675781 C 221.714844 212.441406 222.914062 209.871094 223.851562 207.027344 C 222.578125 207.761719 221.179688 208.511719 219.402344 209.398438 C 214.769531 211.695312 209.84375 213.480469 204.773438 214.703125 C 204.183594 214.839844 203.585938 214.976562 202.984375 215.101562 C 200.398438 215.636719 197.710938 216.023438 194.988281 216.261719 C 192.5625 216.460938 190.078125 216.550781 187.589844 216.5 C 185.140625 216.550781 182.65625 216.460938 180.242188 216.261719 C 177.519531 216.039062 174.832031 215.636719 172.257812 215.101562 C 171.660156 214.976562 171.058594 214.839844 170.472656 214.703125 C 165.386719 213.480469 160.476562 211.707031 155.839844 209.398438 C 154.054688 208.511719 152.667969 207.773438 151.394531 207.027344 C 152.328125 209.882812 153.53125 212.441406 154.953125 214.675781 L 155.953125 215.027344 C 163.3125 217.660156 169.347656 219.355469 174.945312 220.382812 C 179.40625 221.191406 183.519531 221.589844 187.628906 221.542969 C 187.617188 221.542969 187.628906 221.542969 187.628906 221.542969 Z M 187.628906 221.542969 " fill-opacity="1" fill-rule="nonzero"/><path fill="#000000" d="M 235.585938 210.296875 C 235.546875 210.296875 235.507812 210.296875 235.460938 210.296875 C 230.160156 209.757812 225.914062 207.050781 224.078125 203.058594 C 223.453125 201.695312 223.339844 200.496094 223.289062 199.410156 C 223.265625 198.75 223.777344 198.203125 224.4375 198.175781 C 225.113281 198.164062 225.652344 198.664062 225.675781 199.324219 C 225.714844 200.296875 225.824219 201.148438 226.25 202.070312 C 227.726562 205.289062 231.261719 207.488281 235.695312 207.9375 C 236.359375 208 236.835938 208.585938 236.773438 209.246094 C 236.710938 209.847656 236.183594 210.296875 235.585938 210.296875 Z M 139.671875 210.296875 C 139.058594 210.296875 138.546875 209.835938 138.484375 209.222656 C 138.421875 208.5625 138.898438 207.988281 139.558594 207.910156 C 143.996094 207.460938 147.53125 205.277344 149.007812 202.046875 C 149.429688 201.121094 149.542969 200.285156 149.570312 199.300781 C 149.59375 198.636719 150.15625 198.125 150.804688 198.152344 C 151.46875 198.175781 151.980469 198.726562 151.953125 199.386719 C 151.917969 200.484375 151.792969 201.671875 151.167969 203.03125 C 149.332031 207.039062 145.082031 209.746094 139.785156 210.269531 C 139.746094 210.296875 139.710938 210.296875 139.671875 210.296875 Z M 139.671875 210.296875 " fill-opacity="1" fill-rule="nonzero"/><path fill="#fffbfa" d="M 65.777344 200.808594 C 73.375 212.566406 91.277344 198.574219 94.152344 190.1875 C 97.328125 180.878906 90.890625 177.070312 90.890625 177.070312 C 91.929688 176.085938 93.179688 174.722656 93.527344 174.011719 C 94.863281 171.265625 95.765625 168.246094 95.800781 165.175781 C 95.863281 159.398438 91.480469 155.117188 91.367188 149.609375 C 91.203125 142.171875 104.222656 134.546875 92.214844 130.101562 C 82.894531 126.671875 78.820312 137.28125 76.246094 143.945312 C 75.335938 146.304688 74.683594 150.199219 71.785156 150.996094 C 68.738281 151.832031 64.902344 149.75 62.265625 148.449219 C 55.84375 145.292969 50.046875 140.824219 43.148438 138.640625 C 38.375 137.128906 30.378906 135.570312 27.304688 140.925781 C 25.46875 144.144531 26.714844 146.902344 26.714844 146.902344 C 25.515625 146.878906 23.40625 146.390625 22.429688 146.441406 C 19.433594 146.589844 16.160156 147.4375 13.835938 149.410156 C 11.296875 151.558594 10.1875 155.128906 11.597656 158.222656 C 11.949219 158.984375 14.171875 161.832031 14.171875 161.832031 C 13.070312 162.21875 11.285156 162.929688 10.023438 164.066406 C 8.210938 165.699219 7.386719 167.472656 7.113281 169.90625 C 6.625 174.273438 10.621094 176.433594 14.523438 176.957031 C 21.820312 177.929688 31.265625 175.484375 37.710938 179.917969 C 41.472656 182.5 42.898438 186.816406 45.347656 190.425781 C 49.90625 197.117188 57.21875 202.457031 65.777344 200.808594 Z M 65.777344 200.808594 " fill-opacity="1" fill-rule="nonzero"/><g clip-path="url(#a559a3d106)"><path fill="#000000" d="M 73.824219 206.515625 C 70.285156 206.515625 67.351562 205.015625 65.226562 202.109375 C 57.566406 203.21875 49.84375 199.148438 44.386719 191.074219 C 43.621094 189.949219 42.960938 188.765625 42.3125 187.617188 C 40.847656 184.996094 39.460938 182.523438 37.050781 180.878906 C 33.0625 178.144531 27.617188 178.242188 22.355469 178.355469 C 19.667969 178.40625 16.894531 178.46875 14.382812 178.132812 C 8.785156 177.382812 5.476562 174.101562 5.949219 169.769531 C 6.261719 166.996094 7.273438 164.964844 9.25 163.179688 C 10.023438 162.480469 11.035156 161.855469 12.285156 161.292969 C 11.585938 160.359375 10.773438 159.234375 10.535156 158.710938 C 8.972656 155.277344 10.023438 151.082031 13.097656 148.488281 C 15.347656 146.589844 18.644531 145.429688 22.40625 145.242188 C 23.03125 145.207031 23.917969 145.34375 24.855469 145.480469 C 24.96875 145.492188 25.078125 145.515625 25.191406 145.53125 C 25.042969 144.21875 25.140625 142.347656 26.292969 140.324219 C 28.878906 135.792969 35 134.796875 43.523438 137.503906 C 48.035156 138.941406 52.09375 141.324219 56.03125 143.621094 C 58.230469 144.90625 60.515625 146.242188 62.816406 147.375 L 63.414062 147.675781 C 65.8125 148.875 69.101562 150.496094 71.488281 149.847656 C 73.210938 149.375 73.960938 147.078125 74.609375 145.054688 C 74.785156 144.507812 74.960938 143.980469 75.136719 143.519531 C 77.785156 136.628906 82.21875 125.148438 92.617188 129.003906 C 95.726562 130.152344 97.5625 131.636719 98.214844 133.535156 C 99.1875 136.34375 97.425781 139.226562 95.550781 142.273438 C 94.039062 144.730469 92.492188 147.265625 92.539062 149.597656 C 92.589844 152.019531 93.578125 154.242188 94.628906 156.589844 C 95.800781 159.234375 97.015625 161.957031 96.988281 165.199219 C 96.964844 168.195312 96.152344 171.339844 94.601562 174.550781 C 94.253906 175.273438 93.378906 176.257812 92.679688 176.984375 C 94.578125 178.753906 97.839844 183.097656 95.277344 190.574219 C 93.117188 196.914062 83.792969 205.390625 75.460938 206.414062 C 74.898438 206.476562 74.347656 206.515625 73.824219 206.515625 Z M 65.777344 199.625 C 66.175781 199.625 66.550781 199.824219 66.777344 200.171875 C 68.726562 203.195312 71.550781 204.503906 75.160156 204.054688 C 82.332031 203.167969 91.117188 195.355469 93.015625 189.8125 C 95.851562 181.527344 90.339844 178.144531 90.277344 178.105469 C 89.953125 177.917969 89.742188 177.582031 89.703125 177.207031 C 89.667969 176.832031 89.804688 176.457031 90.066406 176.210938 C 91.277344 175.074219 92.242188 173.914062 92.441406 173.5 C 93.839844 170.617188 94.566406 167.820312 94.589844 165.175781 C 94.613281 162.453125 93.554688 160.070312 92.441406 157.5625 C 91.339844 155.101562 90.214844 152.558594 90.152344 149.648438 C 90.09375 146.617188 91.828125 143.769531 93.515625 141.023438 C 95.078125 138.476562 96.5625 136.054688 95.953125 134.308594 C 95.550781 133.136719 94.140625 132.101562 91.777344 131.226562 C 84.21875 128.429688 80.507812 136.167969 77.359375 144.34375 C 77.183594 144.792969 77.035156 145.265625 76.871094 145.78125 C 76.109375 148.125 75.074219 151.320312 72.097656 152.144531 C 68.824219 153.042969 65.078125 151.171875 62.328125 149.8125 L 61.742188 149.523438 C 59.355469 148.351562 57.042969 146.988281 54.804688 145.679688 C 50.996094 143.445312 47.046875 141.125 42.785156 139.777344 C 38.535156 138.425781 31.015625 136.855469 28.339844 141.511719 C 26.839844 144.121094 27.792969 146.378906 27.804688 146.402344 C 27.980469 146.777344 27.941406 147.214844 27.714844 147.550781 C 27.492188 147.886719 27.140625 148.113281 26.691406 148.089844 C 26.054688 148.074219 25.253906 147.949219 24.46875 147.839844 C 23.730469 147.726562 22.894531 147.613281 22.492188 147.625 C 20.617188 147.726562 17.109375 148.199219 14.609375 150.308594 C 12.359375 152.21875 11.558594 155.265625 12.683594 157.722656 C 12.859375 158.109375 14.085938 159.769531 15.121094 161.09375 C 15.359375 161.394531 15.433594 161.792969 15.320312 162.167969 C 15.207031 162.542969 14.933594 162.828125 14.570312 162.953125 C 12.910156 163.527344 11.660156 164.203125 10.835938 164.949219 C 9.285156 166.347656 8.5625 167.820312 8.3125 170.03125 C 7.800781 174.613281 13.535156 175.609375 14.683594 175.773438 C 17.019531 176.085938 19.582031 176.035156 22.292969 175.984375 C 27.929688 175.871094 33.777344 175.757812 38.398438 178.929688 C 41.261719 180.902344 42.847656 183.734375 44.382812 186.46875 C 44.996094 187.566406 45.648438 188.714844 46.347656 189.75 C 51.445312 197.277344 58.617188 200.972656 65.539062 199.648438 C 65.625 199.625 65.703125 199.625 65.777344 199.625 Z M 65.777344 199.625 " fill-opacity="1" fill-rule="nonzero"/></g><path fill="#000000" d="M 65.015625 202.144531 C 64.8125 202.144531 64.589844 202.09375 64.375 201.957031 C 63.988281 201.707031 63.765625 201.195312 63.828125 200.734375 C 63.902344 200.199219 64.3125 199.800781 64.8125 199.722656 C 64.902344 199.675781 64.953125 199.636719 65 199.625 C 65.289062 199.488281 65.5625 199.335938 65.839844 199.164062 C 66.738281 198.613281 67.625 197.976562 68.550781 197.214844 C 71.273438 194.992188 73.484375 192.199219 74.484375 189.738281 C 74.734375 189.128906 75.433594 188.839844 76.046875 189.078125 C 76.660156 189.328125 76.945312 190.027344 76.710938 190.636719 C 75.558594 193.445312 73.085938 196.605469 70.0625 199.0625 C 69.050781 199.886719 68.074219 200.585938 67.089844 201.183594 C 66.738281 201.398438 66.386719 201.597656 66.015625 201.769531 C 65.8125 201.910156 65.453125 202.144531 65.015625 202.144531 Z M 81.109375 184.320312 C 80.644531 184.320312 80.207031 184.058594 80.019531 183.609375 C 79.757812 183.011719 80.019531 182.300781 80.632812 182.039062 C 82.980469 181 85.695312 179.679688 88.117188 177.820312 C 88.816406 177.28125 89.554688 176.707031 90.214844 176.085938 C 90.402344 175.910156 90.589844 175.746094 90.753906 175.546875 C 90.816406 175.484375 90.890625 175.398438 90.980469 175.308594 C 91.042969 175.246094 91.105469 175.1875 91.152344 175.125 C 91.566406 174.613281 92.316406 174.523438 92.828125 174.9375 C 93.339844 175.347656 93.429688 176.097656 93.015625 176.609375 C 92.914062 176.734375 92.777344 176.871094 92.664062 176.996094 L 92.554688 177.109375 C 92.328125 177.355469 92.089844 177.59375 91.839844 177.820312 C 91.105469 178.492188 90.328125 179.117188 89.578125 179.691406 C 86.96875 181.714844 84.082031 183.109375 81.609375 184.195312 C 81.433594 184.296875 81.269531 184.320312 81.109375 184.320312 Z M 64.625 175 C 64.027344 175 63.515625 174.550781 63.441406 173.949219 C 62.816406 168.71875 63.753906 164.601562 66.300781 161.355469 C 67 160.457031 68.1875 159.210938 69.8125 158.3125 C 70.386719 157.984375 71.113281 158.199219 71.4375 158.773438 C 71.75 159.347656 71.550781 160.070312 70.960938 160.394531 C 69.6875 161.105469 68.738281 162.105469 68.164062 162.828125 C 66.015625 165.550781 65.238281 169.09375 65.789062 173.664062 C 65.863281 174.3125 65.402344 174.910156 64.738281 174.984375 C 64.726562 175 64.675781 175 64.625 175 Z M 45.097656 172.441406 C 44.835938 172.441406 44.558594 172.351562 44.347656 172.175781 C 37.8125 166.859375 25.105469 158.648438 13.382812 163.402344 C 12.773438 163.652344 12.074219 163.351562 11.824219 162.742188 C 11.574219 162.128906 11.871094 161.429688 12.472656 161.179688 C 25.316406 155.953125 38.898438 164.664062 45.847656 170.316406 C 46.359375 170.730469 46.433594 171.492188 46.023438 172.003906 C 45.785156 172.289062 45.433594 172.441406 45.097656 172.441406 Z M 55.167969 163.476562 C 54.832031 163.476562 54.492188 163.339844 54.257812 163.054688 C 46.785156 154.265625 36.460938 149.113281 23.582031 147.738281 C 22.929688 147.664062 22.457031 147.078125 22.519531 146.429688 C 22.59375 145.78125 23.15625 145.292969 23.832031 145.367188 C 37.335938 146.816406 48.183594 152.246094 56.066406 161.507812 C 56.492188 162.003906 56.429688 162.765625 55.929688 163.191406 C 55.71875 163.378906 55.441406 163.476562 55.167969 163.476562 Z M 55.167969 163.476562 " fill-opacity="1" fill-rule="nonzero"/><path fill="#fffbfa" d="M 166.75 344.894531 L 167.660156 344.945312 L 183.179688 343.671875 L 170.058594 341.363281 Z M 166.75 344.894531 " fill-opacity="1" fill-rule="nonzero"/></svg>