<svg xmlns="http://www.w3.org/2000/svg" xmlns:xlink="http://www.w3.org/1999/xlink" width="500" zoomAndPan="magnify" viewBox="0 0 375 374.999991" height="500" preserveAspectRatio="xMidYMid meet" version="1.0"><defs><clipPath id="4ae78eb438"><path d="M 164.632812 150.28125 L 210.367188 150.28125 L 210.367188 224.78125 L 164.632812 224.78125 Z M 164.632812 150.28125 " clip-rule="nonzero"/></clipPath><clipPath id="e9d75ae580"><path d="M 181.882812 150.28125 L 193.117188 150.28125 C 197.691406 150.28125 202.082031 152.097656 205.316406 155.332031 C 208.550781 158.566406 210.367188 162.957031 210.367188 167.53125 L 210.367188 207.46875 C 210.367188 212.042969 208.550781 216.433594 205.316406 219.667969 C 202.082031 222.902344 197.691406 224.71875 193.117188 224.71875 L 181.882812 224.71875 C 177.308594 224.71875 172.917969 222.902344 169.683594 219.667969 C 166.449219 216.433594 164.632812 212.042969 164.632812 207.46875 L 164.632812 167.53125 C 164.632812 162.957031 166.449219 158.566406 169.683594 155.332031 C 172.917969 152.097656 177.308594 150.28125 181.882812 150.28125 Z M 181.882812 150.28125 " clip-rule="nonzero"/></clipPath><clipPath id="be16bea382"><path d="M 30.101562 234 L 151 234 L 151 318 L 30.101562 318 Z M 30.101562 234 " clip-rule="nonzero"/></clipPath><clipPath id="a38b064a12"><path d="M 30.101562 237 L 149 237 L 149 317 L 30.101562 317 Z M 30.101562 237 " clip-rule="nonzero"/></clipPath><clipPath id="7358fa32e0"><path d="M 118 142 L 285 142 L 285 371.566406 L 118 371.566406 Z M 118 142 " clip-rule="nonzero"/></clipPath></defs><g clip-path="url(#4ae78eb438)"><g clip-path="url(#e9d75ae580)"><path fill="#65a1b7" d="M 164.632812 150.28125 L 210.367188 150.28125 L 210.367188 224.78125 L 164.632812 224.78125 Z M 164.632812 150.28125 " fill-opacity="1" fill-rule="nonzero"/></g></g><path fill="#ffffff" d="M 132.1875 188.859375 C 136.742188 195.125 142.945312 201.0625 142.945312 201.0625 L 149.390625 162.480469 C 149.390625 162.480469 141.519531 165.84375 135.1875 170.019531 C 131.835938 172.230469 128.910156 174.667969 127.820312 176.957031 C 126.503906 179.71875 128.921875 184.375 132.1875 188.859375 Z M 132.1875 188.859375 " fill-opacity="1" fill-rule="nonzero"/><path fill="#ffffff" d="M 119.800781 214.410156 C 122.792969 222.257812 134.75 232.539062 134.75 232.539062 L 142.945312 201.0625 C 142.945312 201.0625 135.625 201.339844 129.082031 203.21875 C 124.929688 204.410156 121.09375 206.246094 119.632812 209.050781 C 118.863281 210.535156 119.039062 212.390625 119.800781 214.410156 Z M 119.800781 214.410156 " fill-opacity="1" fill-rule="nonzero"/><path fill="#5c0000" d="M 142.941406 203.996094 C 143.253906 203.996094 143.566406 203.949219 143.867188 203.847656 C 144.902344 203.503906 145.660156 202.617188 145.839844 201.542969 L 152.289062 162.964844 C 152.464844 161.90625 152.050781 160.835938 151.207031 160.171875 C 150.363281 159.507812 149.222656 159.359375 148.234375 159.78125 C 144.988281 161.167969 128.621094 168.449219 125.167969 175.695312 C 123.285156 179.644531 125.425781 185.246094 131.910156 193.324219 C 136.152344 198.613281 140.714844 202.996094 140.910156 203.179688 C 141.464844 203.710938 142.195312 203.996094 142.941406 203.996094 Z M 145.570312 167.492188 L 141 194.847656 C 139.605469 193.335938 138 191.523438 136.464844 189.609375 C 129.386719 180.777344 130.46875 178.242188 130.480469 178.21875 C 131.992188 175.039062 139.257812 170.640625 145.570312 167.492188 Z M 145.570312 167.492188 " fill-opacity="1" fill-rule="nonzero"/><path fill="#5c0000" d="M 134.753906 235.472656 C 135.046875 235.472656 135.339844 235.429688 135.628906 235.339844 C 136.597656 235.039062 137.339844 234.257812 137.597656 233.277344 L 145.785156 201.800781 C 146.019531 200.898438 145.816406 199.941406 145.230469 199.21875 C 144.648438 198.496094 143.753906 198.101562 142.828125 198.125 C 139.28125 198.261719 121.375 199.367188 117.027344 207.695312 C 114.820312 211.921875 116.949219 217.71875 123.542969 225.417969 C 127.890625 230.496094 132.636719 234.59375 132.835938 234.765625 C 133.375 235.226562 134.058594 235.472656 134.753906 235.472656 Z M 139.0625 204.300781 L 133.136719 227.074219 C 126.445312 220.578125 120.886719 213.003906 122.242188 210.410156 C 123.953125 207.132812 132.105469 205.066406 139.0625 204.300781 Z M 139.0625 204.300781 " fill-opacity="1" fill-rule="nonzero"/><path fill="#183c10" d="M 142.945312 201.0625 L 149.390625 162.476562 C 149.390625 162.476562 141.519531 165.839844 135.183594 170.019531 C 136.175781 174.238281 136.867188 181.738281 132.1875 188.859375 C 136.742188 195.121094 142.945312 201.0625 142.945312 201.0625 Z M 142.945312 201.0625 " fill-opacity="0.25" fill-rule="nonzero"/><path fill="#183c10" d="M 119.800781 214.410156 C 122.792969 222.257812 134.75 232.539062 134.75 232.539062 L 142.945312 201.0625 C 142.945312 201.0625 135.625 201.339844 129.082031 203.21875 C 129.304688 208.792969 127.730469 214.800781 119.800781 214.410156 Z M 119.800781 214.410156 " fill-opacity="0.25" fill-rule="nonzero"/><path fill="#ffffff" d="M 49.527344 249.101562 L 71.894531 251.402344 L 66.625 240.59375 L 63.992188 235.195312 C 62.609375 232.355469 58.582031 232.273438 57.082031 235.058594 L 54.621094 239.640625 Z M 49.527344 249.101562 " fill-opacity="1" fill-rule="nonzero"/><path fill="#ffffff" d="M 76.089844 254.476562 L 104.457031 254.082031 L 95.636719 240.480469 L 91.632812 234.308594 C 89.957031 231.722656 86.078125 232.023438 84.828125 234.835938 L 82.585938 239.871094 Z M 76.089844 254.476562 " fill-opacity="1" fill-rule="nonzero"/><path fill="#ffffff" d="M 104.457031 254.082031 L 137.464844 247.75 L 122.816406 230.546875 L 120.882812 228.277344 C 118.988281 226.054688 115.402344 226.648438 114.320312 229.359375 L 111.015625 237.648438 Z M 104.457031 254.082031 " fill-opacity="1" fill-rule="nonzero"/><path fill="#5c0000" d="M 71.894531 254.335938 C 72.847656 254.335938 73.75 253.875 74.304688 253.082031 C 74.914062 252.210938 75.003906 251.074219 74.535156 250.113281 L 66.636719 233.910156 C 65.511719 231.597656 63.210938 230.128906 60.640625 230.078125 C 58.066406 230.011719 55.714844 231.402344 54.496094 233.664062 L 46.9375 247.707031 C 46.472656 248.570312 46.46875 249.609375 46.925781 250.472656 C 47.386719 251.339844 48.25 251.921875 49.222656 252.019531 L 71.59375 254.324219 C 71.695312 254.332031 71.796875 254.335938 71.894531 254.335938 Z M 60.5 235.953125 C 60.507812 235.953125 60.515625 235.953125 60.523438 235.953125 C 60.738281 235.957031 61.132812 236.03125 61.351562 236.480469 L 66.9375 247.9375 L 54.195312 246.628906 L 59.671875 236.449219 C 59.902344 236.023438 60.28125 235.953125 60.5 235.953125 Z M 60.5 235.953125 " fill-opacity="1" fill-rule="nonzero"/><path fill="#5c0000" d="M 76.085938 257.414062 C 76.101562 257.414062 76.113281 257.414062 76.128906 257.414062 L 104.496094 257.015625 C 105.566406 257.003906 106.542969 256.40625 107.050781 255.464844 C 107.554688 254.523438 107.503906 253.378906 106.921875 252.484375 L 94.097656 232.710938 C 92.734375 230.609375 90.335938 229.429688 87.839844 229.621094 C 85.339844 229.816406 83.160156 231.359375 82.140625 233.648438 L 73.402344 253.285156 C 72.992188 254.199219 73.082031 255.257812 73.632812 256.09375 C 74.179688 256.917969 75.101562 257.414062 76.085938 257.414062 Z M 99.097656 251.21875 L 80.640625 251.476562 L 87.511719 236.035156 C 87.710938 235.589844 88.09375 235.492188 88.300781 235.476562 C 88.511719 235.460938 88.898438 235.496094 89.164062 235.902344 Z M 99.097656 251.21875 " fill-opacity="1" fill-rule="nonzero"/><path fill="#5c0000" d="M 104.457031 257.015625 C 104.640625 257.015625 104.824219 257 105.011719 256.964844 L 138.015625 250.636719 C 139.042969 250.441406 139.890625 249.710938 140.238281 248.726562 C 140.582031 247.742188 140.378906 246.644531 139.703125 245.847656 L 123.121094 226.378906 C 121.554688 224.542969 119.199219 223.675781 116.816406 224.070312 C 114.4375 224.460938 112.480469 226.03125 111.585938 228.273438 L 101.726562 252.992188 C 101.328125 253.988281 101.507812 255.125 102.191406 255.949219 C 102.753906 256.632812 103.589844 257.015625 104.457031 257.015625 Z M 131.957031 245.816406 L 109.175781 250.183594 L 117.050781 230.449219 C 117.222656 230.019531 117.574219 229.898438 117.773438 229.867188 C 117.96875 229.835938 118.34375 229.832031 118.640625 230.183594 Z M 131.957031 245.816406 " fill-opacity="1" fill-rule="nonzero"/><path fill="#183c10" d="M 111.011719 237.648438 L 104.457031 254.082031 L 137.464844 247.75 L 122.816406 230.546875 C 121.867188 233.773438 118.992188 239.785156 111.011719 237.648438 Z M 111.011719 237.648438 " fill-opacity="0.25" fill-rule="nonzero"/><path fill="#183c10" d="M 76.089844 254.476562 L 104.457031 254.082031 L 95.636719 240.480469 C 91.28125 241.054688 86.554688 241.121094 82.585938 239.871094 Z M 76.089844 254.476562 " fill-opacity="0.25" fill-rule="nonzero"/><path fill="#183c10" d="M 49.527344 249.101562 L 71.894531 251.402344 L 66.625 240.59375 C 63.316406 241.355469 59.25 241.386719 54.621094 239.636719 Z M 49.527344 249.101562 " fill-opacity="0.25" fill-rule="nonzero"/><path fill="#58da3f" d="M 146.6875 237.140625 L 145.945312 292.65625 L 145.683594 312.535156 C 60.085938 327.148438 32.476562 240.671875 32.074219 239.390625 C 32.074219 239.390625 32.074219 239.390625 32.074219 239.382812 C 32.855469 239.695312 33.640625 240.003906 34.429688 240.289062 C 64.054688 251.378906 95.089844 249.308594 117 245.199219 C 134.882812 241.84375 146.6875 237.140625 146.6875 237.140625 Z M 146.6875 237.140625 " fill-opacity="1" fill-rule="nonzero"/><path fill="#ffffff" d="M 146.683594 237.140625 L 146.582031 245.082031 C 143.011719 246.382812 132.582031 249.941406 118.246094 252.628906 C 96.332031 256.738281 65.296875 258.808594 35.671875 247.722656 C 35.523438 247.671875 35.378906 247.613281 35.230469 247.554688 C 33.136719 242.730469 32.144531 239.632812 32.074219 239.394531 C 32.074219 239.394531 32.074219 239.394531 32.074219 239.386719 C 32.855469 239.695312 33.640625 240.003906 34.429688 240.292969 C 64.054688 251.378906 95.089844 249.308594 117 245.199219 C 134.882812 241.84375 146.683594 237.140625 146.683594 237.140625 Z M 146.683594 237.140625 " fill-opacity="0.6" fill-rule="nonzero"/><g clip-path="url(#be16bea382)"><path fill="#5c0000" d="M 127.589844 317.082031 C 133.894531 317.082031 140.371094 316.515625 147.007812 315.382812 C 148.40625 315.144531 149.433594 313.941406 149.453125 312.527344 L 150.453125 237.132812 C 150.464844 236.152344 149.988281 235.230469 149.179688 234.675781 C 148.371094 234.121094 147.339844 234.003906 146.425781 234.367188 C 146.277344 234.425781 131.332031 240.308594 110.035156 243.484375 C 90.5 246.398438 61.453125 247.574219 33.992188 236.613281 C 33.046875 236.234375 31.976562 236.371094 31.160156 236.972656 C 30.34375 237.574219 29.890625 238.550781 29.96875 239.5625 C 29.988281 239.785156 30.03125 240.011719 30.097656 240.226562 C 30.390625 241.167969 37.539062 263.460938 55.554688 283.824219 C 66.082031 295.71875 78.199219 304.566406 91.578125 310.117188 C 102.753906 314.757812 114.808594 317.082031 127.589844 317.082031 Z M 143.605469 309.980469 C 110.183594 315.003906 82.054688 304.90625 59.960938 279.933594 C 48.003906 266.417969 41.082031 252.082031 37.882812 244.300781 C 64.742188 253.355469 92.191406 252.101562 111.058594 249.269531 C 126.546875 246.945312 138.566406 243.320312 144.515625 241.300781 Z M 143.605469 309.980469 " fill-opacity="1" fill-rule="nonzero"/></g><path fill="#ffdf46" d="M 146.773438 292.613281 L 146.511719 312.488281 C 60.914062 327.105469 33.304688 240.625 32.902344 239.347656 C 33.636719 240.488281 75.507812 305.003906 146.773438 292.613281 Z M 146.773438 292.613281 " fill-opacity="1" fill-rule="nonzero"/><g clip-path="url(#a38b064a12)"><path fill="#5c0000" d="M 127.589844 316.347656 C 133.851562 316.347656 140.289062 315.785156 146.882812 314.660156 C 147.933594 314.480469 148.703125 313.578125 148.71875 312.515625 L 148.980469 292.640625 C 148.988281 291.984375 148.703125 291.359375 148.203125 290.933594 C 147.707031 290.507812 147.042969 290.328125 146.394531 290.441406 C 117.414062 295.480469 89.933594 288.367188 64.71875 269.296875 C 45.5625 254.8125 35.191406 238.832031 34.757812 238.15625 C 34.160156 237.226562 32.96875 236.882812 31.964844 237.351562 C 30.964844 237.820312 30.464844 238.953125 30.796875 240.007812 C 31.089844 240.941406 38.191406 263.089844 56.105469 283.335938 C 66.554688 295.148438 78.585938 303.933594 91.859375 309.441406 C 102.945312 314.039062 114.90625 316.347656 127.589844 316.347656 Z M 144.332031 310.613281 C 110.378906 315.898438 81.816406 305.742188 59.410156 280.417969 C 51.195312 271.132812 45.34375 261.457031 41.429688 253.757812 C 46.523438 259.457031 53.433594 266.292969 62.054688 272.8125 C 87.160156 291.796875 115.621094 299.511719 144.535156 295.203125 Z M 144.332031 310.613281 " fill-opacity="1" fill-rule="nonzero"/></g><path fill="#5c0000" d="M 59.574219 286.089844 C 59.710938 286.089844 59.84375 286.078125 59.984375 286.050781 C 61.179688 285.828125 61.96875 284.675781 61.746094 283.480469 C 60.027344 274.285156 60.832031 267.648438 60.839844 267.582031 C 60.992188 266.375 60.140625 265.273438 58.933594 265.121094 C 57.726562 264.964844 56.621094 265.816406 56.464844 267.019531 C 56.429688 267.316406 55.554688 274.359375 57.410156 284.289062 C 57.609375 285.347656 58.535156 286.089844 59.574219 286.089844 Z M 59.574219 286.089844 " fill-opacity="1" fill-rule="nonzero"/><path fill="#5c0000" d="M 86.078125 306.523438 C 86.4375 306.523438 86.800781 306.4375 87.140625 306.25 C 88.207031 305.660156 88.59375 304.324219 88.003906 303.257812 C 82.582031 293.441406 83.972656 283.0625 83.984375 282.957031 C 84.15625 281.753906 83.316406 280.640625 82.113281 280.46875 C 80.902344 280.292969 79.789062 281.136719 79.621094 282.339844 C 79.550781 282.824219 78.015625 294.296875 84.144531 305.386719 C 84.546875 306.113281 85.300781 306.523438 86.078125 306.523438 Z M 86.078125 306.523438 " fill-opacity="1" fill-rule="nonzero"/><path fill="#5c0000" d="M 114.609375 315.496094 C 114.964844 315.496094 115.324219 315.40625 115.660156 315.226562 C 116.726562 314.644531 117.125 313.308594 116.542969 312.238281 C 111.96875 303.851562 110.703125 292.011719 110.6875 291.894531 C 110.5625 290.683594 109.476562 289.804688 108.269531 289.929688 C 107.058594 290.054688 106.179688 291.136719 106.300781 292.34375 C 106.355469 292.863281 107.667969 305.167969 112.667969 314.34375 C 113.070312 315.078125 113.828125 315.496094 114.609375 315.496094 Z M 114.609375 315.496094 " fill-opacity="1" fill-rule="nonzero"/><path fill="#5c0000" d="M 147.382812 237.148438 L 146.644531 292.667969 L 146.382812 312.542969 C 60.78125 327.160156 33.171875 240.679688 32.769531 239.402344 C 32.769531 239.402344 32.769531 239.402344 32.769531 239.394531 C 33.554688 239.703125 34.335938 240.011719 35.125 240.296875 C 57.167969 294.726562 84.582031 296.753906 101.257812 291.34375 C 109.804688 288.570312 115.308594 280.375 114.976562 271.402344 C 114.632812 262.011719 115.945312 252.886719 117.699219 245.203125 C 135.582031 241.851562 147.382812 237.148438 147.382812 237.148438 Z M 147.382812 237.148438 " fill-opacity="0.2" fill-rule="nonzero"/><path fill="#58da3f" d="M 134.332031 339.347656 C 133.671875 341.4375 134.300781 343.722656 135.941406 345.175781 L 161.324219 367.742188 C 162.722656 368.988281 164.898438 368.816406 166.046875 367.339844 C 167.058594 366.035156 168.003906 363.964844 168.207031 360.71875 L 178.890625 366.4375 C 180.496094 367.296875 182.5 366.683594 183.328125 365.066406 C 184.117188 363.535156 184.800781 361.4375 184.578125 358.996094 L 189.753906 361.636719 C 192 362.785156 194.636719 361.0625 194.496094 358.542969 C 194.269531 354.484375 193.371094 348.804688 190.496094 343.75 L 190.464844 343.699219 C 189.304688 341.667969 187.820312 339.742188 185.925781 338.0625 C 185.925781 338.0625 186.695312 337.640625 187.914062 336.902344 C 190.578125 335.292969 195.351562 332.1875 198.917969 328.625 L 207.679688 354.023438 C 209.625 359.667969 214.96875 363.421875 220.945312 363.355469 C 233.40625 363.210938 254.230469 363.316406 263.625 365.402344 C 264.96875 365.699219 266.238281 364.6875 266.238281 363.3125 L 266.238281 360.246094 L 277.867188 360.898438 C 280.367188 361.039062 282.085938 358.445312 280.992188 356.191406 C 280.480469 355.144531 279.867188 353.992188 279.136719 352.78125 C 274.558594 345.195312 265.421875 335.535156 249.230469 337.589844 C 249.230469 337.589844 255.550781 330.621094 261.46875 318.78125 C 266.878906 307.957031 271.941406 293.058594 271.515625 275.6875 C 271.476562 273.859375 271.367188 272 271.199219 270.113281 C 271.199219 270.085938 271.199219 270.046875 271.191406 270.019531 C 270.609375 263.703125 269.273438 257.09375 266.949219 250.269531 C 257.523438 222.523438 249.011719 195.339844 243.617188 175.496094 C 239.421875 160.0625 237.113281 149.054688 237.707031 145.667969 L 173.511719 148.949219 L 147.261719 150.296875 C 147.261719 150.296875 137.972656 195.011719 127.824219 228.871094 C 115.859375 268.835938 120.945312 287.902344 141.75 315.878906 Z M 134.332031 339.347656 " fill-opacity="1" fill-rule="nonzero"/><g clip-path="url(#7358fa32e0)"><path fill="#5c0000" d="M 163.515625 371.511719 C 163.703125 371.511719 163.894531 371.503906 164.082031 371.484375 C 165.773438 371.328125 167.335938 370.472656 168.371094 369.136719 C 169.242188 368.019531 169.910156 366.707031 170.378906 365.214844 L 177.503906 369.027344 C 178.988281 369.820312 180.683594 369.980469 182.289062 369.480469 C 183.886719 368.984375 185.183594 367.890625 185.945312 366.40625 C 186.417969 365.480469 186.792969 364.527344 187.058594 363.558594 L 188.417969 364.25 C 190.417969 365.273438 192.734375 365.152344 194.613281 363.929688 C 196.503906 362.699219 197.554688 360.621094 197.429688 358.367188 C 197.105469 352.570312 195.605469 344.824219 190.601562 338.703125 C 192.542969 337.484375 195.101562 335.761719 197.578125 333.757812 L 204.898438 354.980469 C 207.238281 361.765625 213.609375 366.292969 220.785156 366.292969 C 220.847656 366.292969 220.910156 366.292969 220.976562 366.292969 C 232.726562 366.152344 253.804688 366.230469 262.988281 368.269531 C 264.503906 368.605469 266.066406 368.242188 267.277344 367.273438 C 268.472656 366.3125 269.164062 364.886719 269.175781 363.355469 L 277.703125 363.832031 C 279.929688 363.953125 281.992188 362.925781 283.222656 361.074219 C 284.460938 359.222656 284.613281 356.917969 283.636719 354.914062 C 280.613281 348.703125 272.21875 335.398438 255.484375 334.429688 C 262.765625 324.410156 276.902344 300.609375 274.136719 269.941406 C 274.132812 269.859375 274.125 269.765625 274.109375 269.660156 C 273.476562 262.835938 272.003906 255.996094 269.734375 249.324219 C 249.492188 189.796875 239.617188 151.753906 240.601562 146.183594 C 240.757812 145.300781 240.503906 144.398438 239.910156 143.726562 C 239.316406 143.058594 238.445312 142.695312 237.558594 142.738281 L 147.109375 147.363281 C 145.773438 147.433594 144.652344 148.394531 144.382812 149.699219 C 144.289062 150.144531 134.992188 194.679688 125.003906 228.03125 C 114.449219 263.269531 116.539062 283.695312 133.285156 308.984375 C 136.539062 313.894531 137.367188 319.980469 135.566406 325.679688 L 131.527344 338.460938 C 130.519531 341.652344 131.484375 345.148438 133.988281 347.371094 L 159.371094 369.933594 C 160.515625 370.953125 162 371.511719 163.515625 371.511719 Z M 168.207031 357.785156 C 167.714844 357.785156 167.222656 357.910156 166.777344 358.15625 C 165.902344 358.644531 165.335938 359.539062 165.273438 360.539062 C 165.140625 362.679688 164.605469 364.410156 163.726562 365.539062 C 163.710938 365.5625 163.660156 365.625 163.539062 365.636719 C 163.472656 365.644531 163.371094 365.632812 163.28125 365.550781 L 137.898438 342.984375 C 137.121094 342.296875 136.824219 341.21875 137.136719 340.234375 L 141.175781 327.453125 C 143.511719 320.054688 142.425781 312.144531 138.191406 305.75 C 122.386719 281.878906 120.550781 263.402344 130.640625 229.71875 C 139.417969 200.40625 147.652344 162.585938 149.671875 153.117188 L 234.789062 148.765625 C 236.203125 165.480469 253.398438 219.542969 264.167969 251.21875 C 266.296875 257.480469 267.675781 263.898438 268.265625 270.292969 C 268.265625 270.292969 268.265625 270.296875 268.265625 270.296875 C 268.265625 270.328125 268.269531 270.359375 268.269531 270.386719 C 271.699219 307.882812 247.296875 335.351562 247.050781 335.625 C 246.226562 336.535156 246.054688 337.863281 246.625 338.953125 C 247.195312 340.042969 248.378906 340.664062 249.601562 340.507812 C 266.382812 338.367188 274.816406 350.226562 278.347656 357.484375 C 278.371094 357.535156 278.433594 357.664062 278.328125 357.824219 C 278.222656 357.980469 278.089844 357.976562 278.03125 357.972656 L 266.402344 357.320312 C 265.589844 357.277344 264.804688 357.566406 264.214844 358.117188 C 263.628906 358.671875 263.296875 359.445312 263.296875 360.253906 L 263.296875 362.335938 C 253.695312 360.464844 235.074219 360.257812 220.910156 360.421875 C 220.867188 360.421875 220.828125 360.421875 220.785156 360.421875 C 216.121094 360.421875 211.980469 357.480469 210.457031 353.066406 L 201.695312 327.671875 C 201.367188 326.714844 200.5625 325.992188 199.578125 325.765625 C 198.589844 325.535156 197.554688 325.835938 196.839844 326.550781 C 192.015625 331.371094 184.589844 335.441406 184.515625 335.484375 C 183.675781 335.941406 183.109375 336.78125 183.003906 337.730469 C 182.894531 338.683594 183.257812 339.625 183.972656 340.261719 C 189.671875 345.308594 191.242188 353.074219 191.558594 358.699219 C 191.5625 358.753906 191.570312 358.902344 191.40625 359.007812 C 191.253906 359.109375 191.144531 359.050781 191.089844 359.023438 L 185.917969 356.378906 C 184.964844 355.894531 183.820312 355.964844 182.933594 356.5625 C 182.046875 357.160156 181.554688 358.195312 181.652344 359.261719 C 181.785156 360.75 181.46875 362.253906 180.710938 363.726562 C 180.675781 363.800781 180.617188 363.851562 180.535156 363.875 C 180.472656 363.894531 180.382812 363.902344 180.277344 363.851562 L 169.59375 358.132812 C 169.164062 357.898438 168.683594 357.785156 168.207031 357.785156 Z M 268.339844 270.730469 C 268.339844 270.730469 268.339844 270.730469 268.339844 270.734375 C 268.339844 270.730469 268.339844 270.730469 268.339844 270.730469 Z M 268.339844 270.726562 Z M 268.261719 270.113281 C 268.261719 270.117188 268.261719 270.117188 268.261719 270.117188 C 268.261719 270.117188 268.261719 270.117188 268.261719 270.113281 Z M 268.261719 270.113281 " fill-opacity="1" fill-rule="nonzero"/></g><path fill="#5c0000" d="M 171.136719 360.460938 C 170.890625 359.203125 170.617188 358.035156 170.324219 356.835938 C 170.03125 355.640625 169.714844 354.457031 169.367188 353.273438 C 169.015625 352.089844 168.648438 350.910156 168.207031 349.738281 C 167.765625 348.5625 167.289062 347.394531 166.65625 346.238281 C 166.285156 345.558594 165.429688 345.3125 164.75 345.683594 C 164.164062 346.003906 163.898438 346.6875 164.078125 347.304688 L 164.09375 347.355469 C 164.394531 348.382812 164.59375 349.5 164.753906 350.625 C 164.917969 351.746094 165.019531 352.902344 165.101562 354.054688 C 165.183594 355.207031 165.234375 356.367188 165.265625 357.527344 C 165.292969 358.679688 165.308594 359.875 165.28125 360.980469 C 165.246094 362.609375 166.539062 363.964844 168.171875 364 C 169.804688 364.039062 171.160156 362.746094 171.195312 361.113281 C 171.203125 360.902344 171.183594 360.691406 171.144531 360.492188 Z M 171.136719 360.460938 " fill-opacity="1" fill-rule="nonzero"/><path fill="#5c0000" d="M 187.449219 358.503906 C 187.042969 357.207031 186.609375 356.078125 186.136719 354.894531 C 185.664062 353.730469 185.160156 352.578125 184.601562 351.449219 C 183.480469 349.199219 182.199219 346.984375 180.464844 345.074219 C 180.117188 344.691406 179.523438 344.660156 179.136719 345.007812 C 178.820312 345.296875 178.746094 345.753906 178.929688 346.121094 L 178.949219 346.160156 C 179.953125 348.179688 180.535156 350.417969 180.964844 352.679688 C 181.171875 353.8125 181.332031 354.960938 181.460938 356.105469 C 181.582031 357.234375 181.6875 358.433594 181.714844 359.488281 C 181.75 361.113281 183.097656 362.398438 184.722656 362.359375 C 186.347656 362.320312 187.632812 360.976562 187.59375 359.351562 C 187.585938 359.078125 187.542969 358.8125 187.464844 358.5625 Z M 187.449219 358.503906 " fill-opacity="1" fill-rule="nonzero"/><path fill="#5c0000" d="M 269.171875 359.984375 C 269.140625 359.765625 269.109375 359.628906 269.078125 359.492188 C 269.050781 359.347656 269.015625 359.210938 268.980469 359.082031 C 268.910156 358.824219 268.84375 358.558594 268.761719 358.3125 C 268.609375 357.808594 268.429688 357.324219 268.238281 356.847656 C 268.050781 356.367188 267.824219 355.90625 267.613281 355.441406 C 267.367188 354.992188 267.136719 354.539062 266.875 354.105469 C 265.832031 352.359375 264.5 350.777344 262.929688 349.515625 C 262.5625 349.175781 262.140625 348.898438 261.726562 348.617188 C 261.308594 348.34375 260.914062 348.039062 260.464844 347.828125 L 259.152344 347.144531 C 258.707031 346.949219 258.242188 346.792969 257.792969 346.617188 L 257.113281 346.363281 C 256.886719 346.28125 256.648438 346.242188 256.417969 346.175781 L 255.027344 345.835938 C 254.101562 345.652344 253.160156 345.582031 252.238281 345.453125 C 251.628906 345.367188 251.066406 345.796875 250.980469 346.40625 C 250.90625 346.949219 251.238281 347.457031 251.742188 347.617188 L 251.898438 347.671875 C 252.703125 347.933594 253.515625 348.132812 254.285156 348.429688 L 255.414062 348.925781 C 255.597656 349.011719 255.792969 349.074219 255.96875 349.179688 L 256.488281 349.488281 C 256.832031 349.695312 257.1875 349.882812 257.515625 350.101562 L 258.457031 350.824219 C 258.78125 351.039062 259.039062 351.339844 259.320312 351.605469 C 259.597656 351.875 259.886719 352.128906 260.113281 352.445312 C 261.128906 353.59375 261.894531 354.925781 262.433594 356.339844 C 262.566406 356.691406 262.675781 357.054688 262.800781 357.40625 C 262.890625 357.773438 263 358.132812 263.070312 358.496094 C 263.144531 358.863281 263.214844 359.222656 263.253906 359.582031 C 263.28125 359.765625 263.289062 359.933594 263.304688 360.109375 C 263.316406 360.199219 263.316406 360.277344 263.316406 360.351562 C 263.320312 360.433594 263.324219 360.515625 263.3125 360.515625 C 263.460938 362.132812 264.890625 363.320312 266.507812 363.175781 C 268.125 363.027344 269.316406 361.597656 269.171875 359.984375 Z M 269.171875 359.984375 " fill-opacity="1" fill-rule="nonzero"/><path fill="#5c0000" d="M 187.617188 335.664062 C 187.433594 335.550781 187.367188 335.523438 187.253906 335.464844 C 187.144531 335.410156 187.058594 335.375 186.960938 335.328125 C 186.765625 335.234375 186.585938 335.167969 186.402344 335.09375 C 186.039062 334.953125 185.679688 334.824219 185.320312 334.714844 C 184.605469 334.488281 183.898438 334.316406 183.1875 334.175781 C 181.773438 333.894531 180.367188 333.761719 178.980469 333.71875 C 177.589844 333.699219 176.222656 333.761719 174.875 333.933594 C 174.203125 334 173.542969 334.140625 172.882812 334.242188 C 172.226562 334.371094 171.578125 334.527344 170.929688 334.671875 C 170.433594 334.78125 170.117188 335.273438 170.226562 335.773438 C 170.316406 336.191406 170.679688 336.480469 171.085938 336.5 L 171.152344 336.503906 C 171.785156 336.53125 172.40625 336.542969 173.027344 336.585938 C 173.648438 336.65625 174.261719 336.683594 174.871094 336.785156 C 176.085938 336.949219 177.273438 337.214844 178.421875 337.535156 C 179.5625 337.882812 180.664062 338.296875 181.6875 338.800781 C 182.195312 339.054688 182.6875 339.324219 183.140625 339.621094 C 183.371094 339.765625 183.585938 339.921875 183.789062 340.070312 C 183.886719 340.148438 183.996094 340.222656 184.074219 340.296875 C 184.113281 340.332031 184.167969 340.375 184.195312 340.402344 C 184.214844 340.429688 184.285156 340.488281 184.234375 340.460938 C 185.558594 341.394531 187.394531 341.078125 188.328125 339.753906 C 189.261719 338.429688 188.945312 336.597656 187.617188 335.664062 Z M 187.617188 335.664062 " fill-opacity="1" fill-rule="nonzero"/><path fill="#ffdf46" d="M 198.921875 328.628906 C 198.921875 328.628906 273.800781 325.367188 271.199219 270.117188 C 271.199219 270.089844 271.199219 270.050781 271.191406 270.023438 C 270.613281 263.707031 269.273438 257.097656 266.953125 250.273438 C 250.179688 200.945312 236.34375 153.414062 237.710938 145.671875 L 173.515625 148.953125 C 184.699219 172.941406 225.738281 279.289062 198.921875 328.628906 Z M 198.921875 328.628906 " fill-opacity="1" fill-rule="nonzero"/><path fill="#5c0000" d="M 198.921875 330.832031 C 198.953125 330.832031 198.984375 330.832031 199.015625 330.828125 C 200.683594 330.757812 240.105469 328.789062 261.011719 305.917969 C 269.890625 296.207031 274.058594 284.144531 273.40625 270.054688 C 273.402344 269.96875 273.398438 269.867188 273.382812 269.75 C 272.753906 262.976562 271.292969 256.183594 269.039062 249.5625 C 251.238281 197.214844 238.703125 152.714844 239.878906 146.054688 C 239.996094 145.394531 239.804688 144.71875 239.363281 144.214844 C 238.917969 143.710938 238.269531 143.433594 237.597656 143.472656 L 173.402344 146.757812 C 172.667969 146.792969 172.003906 147.191406 171.625 147.820312 C 171.246094 148.449219 171.207031 149.222656 171.515625 149.886719 C 177.199219 162.070312 190.113281 194.453125 198.320312 229.78125 C 208.472656 273.476562 208.007812 307.292969 196.980469 327.578125 C 196.601562 328.273438 196.628906 329.121094 197.050781 329.796875 C 197.457031 330.441406 198.164062 330.832031 198.921875 330.832031 Z M 269 270.234375 C 269.601562 283.121094 265.820312 294.128906 257.757812 302.945312 C 241.726562 320.484375 212.972656 325.019531 202.648438 326.105469 C 212.605469 304.457031 212.597656 271.75 202.617188 228.785156 C 194.921875 195.660156 183.113281 165.070312 176.859375 150.988281 L 235.464844 147.992188 C 236.277344 161.761719 250.335938 208.238281 264.867188 250.976562 C 267.015625 257.296875 268.40625 263.769531 269 270.222656 C 269 270.230469 269 270.234375 269 270.234375 Z M 269.054688 270.550781 C 269.054688 270.554688 269.054688 270.554688 269.054688 270.558594 C 269.054688 270.554688 269.054688 270.554688 269.054688 270.550781 Z M 269.050781 270.546875 C 269.050781 270.546875 269.050781 270.550781 269.054688 270.550781 C 269.054688 270.550781 269.050781 270.546875 269.050781 270.546875 Z M 269.050781 270.546875 " fill-opacity="1" fill-rule="nonzero"/><path fill="#5c0000" d="M 134.332031 341.761719 C 133.671875 343.855469 134.300781 346.136719 135.941406 347.589844 L 161.324219 370.15625 C 162.722656 371.402344 164.898438 371.230469 166.046875 369.753906 C 167.058594 368.449219 168.003906 366.382812 168.207031 363.136719 L 178.890625 368.855469 C 180.496094 369.710938 182.5 369.101562 183.328125 367.480469 C 184.117188 365.949219 184.800781 363.855469 184.578125 361.410156 L 189.753906 364.054688 C 192 365.199219 194.636719 363.476562 194.496094 360.960938 C 194.269531 356.902344 193.371094 351.21875 190.496094 346.167969 L 190.464844 346.117188 C 192.488281 359.441406 182.140625 352.722656 182.140625 352.722656 C 178.363281 364.96875 166.792969 353.882812 166.792969 353.882812 C 166.792969 353.882812 159.152344 356.855469 153.007812 348.03125 C 149.210938 342.574219 153.570312 329.191406 157.449219 319.773438 C 159.804688 314.054688 158.449219 307.480469 154.046875 303.136719 C 121.871094 271.382812 141.726562 209.691406 149.421875 189.605469 C 150.851562 185.867188 154.6875 183.613281 158.648438 184.199219 C 195.039062 189.589844 225.234375 183.601562 243.617188 177.910156 C 239.421875 162.476562 237.113281 151.472656 237.710938 148.085938 L 173.515625 151.367188 L 147.261719 152.710938 C 147.261719 152.710938 137.972656 197.425781 127.824219 231.289062 C 115.859375 271.253906 120.945312 290.320312 141.75 318.296875 Z M 134.332031 341.761719 " fill-opacity="0.2" fill-rule="nonzero"/><path fill="#5c0000" d="M 162.054688 256.496094 C 162.054688 256.496094 154.585938 270.585938 165.375 278.082031 C 176.15625 285.585938 199.785156 301.269531 199.785156 301.269531 C 199.785156 301.269531 197.535156 333.320312 174.546875 337.769531 L 187.917969 339.316406 C 190.578125 337.710938 195.355469 334.601562 198.917969 331.042969 L 207.679688 356.4375 C 209.628906 362.085938 214.972656 365.835938 220.945312 365.769531 C 233.40625 365.625 254.230469 365.730469 263.628906 367.816406 C 264.96875 368.113281 266.238281 367.101562 266.238281 365.730469 L 266.238281 362.664062 L 277.867188 363.316406 C 280.371094 363.457031 282.085938 360.859375 280.992188 358.609375 C 280.484375 357.5625 279.867188 356.40625 279.136719 355.195312 C 274.441406 355.261719 266.546875 354.351562 256.992188 349.214844 C 256.992188 349.214844 257.25 359.964844 228.917969 355.839844 C 224.996094 355.269531 221.769531 352.445312 220.722656 348.625 C 219.203125 343.09375 222.667969 337.441406 228.289062 336.265625 C 237.195312 334.402344 250.25 330.273438 261.472656 321.195312 C 266.878906 310.371094 271.941406 295.476562 271.515625 278.101562 C 265.214844 288.273438 255.835938 300.070312 243.78125 305.996094 C 234.550781 310.53125 223.386719 306.84375 218.695312 297.703125 L 198.65625 258.660156 C 198.65625 258.660156 164.804688 251.589844 149.394531 212.417969 C 149.390625 212.421875 147.464844 242.988281 162.054688 256.496094 Z M 162.054688 256.496094 " fill-opacity="0.2" fill-rule="nonzero"/><path fill="#58da3f" d="M 340.5 87.4375 C 340.582031 91.167969 339.972656 94.84375 338.859375 98.265625 C 336.199219 106.476562 330.675781 113.214844 324.972656 115.609375 C 322.863281 116.503906 320.722656 116.796875 318.703125 116.351562 C 318.703125 116.351562 324.964844 164.800781 269.417969 153.863281 C 269.417969 153.863281 226.679688 174.375 179.273438 173.164062 C 164.808594 172.796875 149.910156 170.402344 135.660156 164.800781 C 84.03125 144.484375 105.933594 99.15625 105.148438 84.308594 C 104.960938 80.753906 105.21875 75.804688 106.035156 70.253906 C 107.71875 58.886719 111.722656 44.988281 118.972656 35.277344 C 122.96875 29.914062 127.960938 25.820312 134.09375 24.128906 C 134.09375 24.128906 147.390625 10.0625 166.167969 18.660156 C 166.167969 18.660156 188.070312 5.378906 217.796875 19.4375 C 217.796875 19.4375 247.273438 3.378906 252.90625 40.628906 C 252.90625 40.636719 252.914062 40.636719 252.914062 40.640625 C 253.359375 43.636719 253.664062 46.980469 253.78125 50.703125 C 253.78125 50.703125 254.839844 51.054688 256.292969 51.847656 C 256.300781 51.855469 256.308594 51.855469 256.308594 51.855469 C 257.902344 52.730469 259.960938 54.132812 261.601562 56.171875 C 261.601562 56.171875 274.902344 52.265625 282.722656 57.734375 C 282.722656 57.734375 310.097656 47.574219 331.21875 67.113281 C 337.699219 73.109375 340.347656 80.359375 340.5 87.4375 Z M 340.5 87.4375 " fill-opacity="1" fill-rule="nonzero"/><path fill="#ffffff" d="M 252.902344 40.628906 C 242.542969 12.851562 213.730469 23.757812 213.730469 23.757812 C 210.675781 22.976562 207.816406 22.382812 205.15625 21.941406 C 205.066406 24.246094 200.394531 26.113281 194.644531 26.113281 C 188.839844 26.113281 184.136719 24.210938 184.136719 21.871094 C 184.136719 21.738281 184.152344 21.605469 184.179688 21.472656 C 176.492188 22.78125 173.371094 25.570312 173.371094 25.570312 C 147.089844 14.476562 130.257812 33.34375 130.257812 33.34375 C 121.019531 37.917969 111.554688 57.214844 106.035156 70.253906 C 107.71875 58.886719 111.722656 44.988281 118.972656 35.277344 C 122.96875 29.914062 127.960938 25.820312 134.09375 24.128906 C 134.09375 24.128906 147.390625 10.0625 166.167969 18.660156 C 166.167969 18.660156 188.070312 5.378906 217.796875 19.4375 C 217.796875 19.441406 247.273438 3.382812 252.902344 40.628906 Z M 252.902344 40.628906 " fill-opacity="0.6" fill-rule="nonzero"/><path fill="#ffffff" d="M 340.5 87.4375 C 340.582031 91.167969 339.972656 94.84375 338.859375 98.265625 C 337.613281 82.394531 328.5 66.613281 306.988281 62.671875 C 283.085938 58.285156 264.199219 76.921875 263.675781 77.441406 L 277.132812 61.085938 C 265.65625 58.800781 241.078125 70.59375 240.382812 70.929688 L 256.308594 60.527344 C 241.976562 50.230469 212.554688 60.253906 211.792969 60.519531 C 234.574219 43.75 255.644531 51.605469 256.292969 51.847656 C 256.300781 51.855469 256.308594 51.855469 256.308594 51.855469 C 257.902344 52.730469 259.960938 54.132812 261.597656 56.171875 C 261.597656 56.171875 274.902344 52.265625 282.722656 57.734375 C 282.722656 57.734375 310.097656 47.574219 331.21875 67.113281 C 337.699219 73.109375 340.347656 80.359375 340.5 87.4375 Z M 340.5 87.4375 " fill-opacity="0.6" fill-rule="nonzero"/><path fill="#ffdf46" d="M 318.703125 116.351562 C 318.703125 116.351562 324.964844 164.800781 269.417969 153.863281 C 269.417969 153.863281 226.679688 174.375 179.273438 173.164062 C 147.316406 161.675781 155.78125 119.765625 175.5 108.324219 C 197.335938 95.660156 202.328125 117.6875 216.511719 125.777344 C 230.703125 133.859375 244.0625 131.328125 256.308594 128.683594 C 268.550781 126.039062 279.332031 126.429688 292.355469 123.691406 C 305.378906 120.953125 309.992188 112.597656 309.992188 112.597656 C 315.960938 115.691406 320.9375 116.277344 324.972656 115.609375 C 322.863281 116.503906 320.722656 116.796875 318.703125 116.351562 Z M 318.703125 116.351562 " fill-opacity="1" fill-rule="nonzero"/><path fill="#5c0000" d="M 324.972656 118.023438 C 322.863281 118.917969 320.722656 119.214844 318.703125 118.765625 C 318.703125 118.765625 324.964844 167.214844 269.417969 156.277344 C 269.417969 156.277344 226.679688 176.789062 179.273438 175.578125 C 164.808594 175.210938 149.910156 172.820312 135.660156 167.214844 C 84.03125 146.898438 105.933594 101.570312 105.148438 86.722656 C 104.582031 75.886719 108.175781 52.15625 118.972656 37.691406 C 117.273438 47.632812 115.496094 66.214844 120.59375 86.589844 C 120.59375 86.589844 108.726562 140.394531 139.4375 150.621094 C 170.144531 160.847656 210.265625 149.203125 202.28125 113.175781 C 202.28125 113.175781 220.964844 125.445312 231.722656 124.1875 C 242.484375 122.933594 265.164062 113.492188 278.863281 117.734375 C 292.570312 121.984375 310.992188 100.746094 310.992188 100.746094 C 310.992188 100.746094 329.417969 119.3125 340.5 89.851562 C 340.777344 102.515625 333.046875 114.632812 324.972656 118.023438 Z M 324.972656 118.023438 " fill-opacity="0.2" fill-rule="nonzero"/><path fill="#5c0000" d="M 183.394531 176.152344 C 226.058594 176.15625 263.449219 159.847656 269.800781 156.925781 C 288.101562 160.351562 301.945312 157.824219 310.953125 149.402344 C 321.0625 139.949219 322.011719 125.890625 321.847656 119.429688 C 323.261719 119.289062 324.699219 118.914062 326.121094 118.3125 C 334.085938 114.960938 340.992188 105.027344 342.914062 94.148438 C 344.890625 82.941406 341.449219 72.574219 333.214844 64.957031 C 313.558594 46.773438 289.234375 52.632812 283.109375 54.515625 C 276.082031 50.550781 266.566406 52.023438 262.601562 52.898438 C 260.542969 50.839844 258.230469 49.5 256.640625 48.730469 C 255.808594 31.820312 251.027344 20.753906 242.417969 15.828125 C 232.765625 10.304688 221.617188 14.4375 217.765625 16.1875 C 191.496094 4.339844 171.382812 12.679688 166.023438 15.398438 C 148.617188 8.265625 135.539062 18.808594 132.585938 21.511719 C 107.621094 29.15625 101.496094 70.800781 102.210938 84.460938 C 102.351562 87.089844 101.621094 91.167969 100.777344 95.890625 C 98.996094 105.847656 96.558594 119.484375 99.996094 132.691406 C 104.082031 148.386719 115.71875 160.109375 134.585938 167.53125 C 147.996094 172.804688 163.007812 175.6875 179.199219 176.097656 C 180.597656 176.136719 182.003906 176.152344 183.394531 176.152344 Z M 269.417969 150.925781 C 268.980469 150.925781 268.542969 151.023438 268.144531 151.214844 C 267.722656 151.417969 225.453125 171.410156 179.347656 170.230469 C 163.84375 169.835938 149.507812 167.089844 136.738281 162.066406 C 97.660156 146.691406 103.015625 116.742188 106.5625 96.925781 C 107.472656 91.84375 108.257812 87.457031 108.082031 84.152344 C 107.347656 70.179688 114.242188 32.652344 134.875 26.960938 C 135.394531 26.816406 135.863281 26.535156 136.230469 26.148438 C 136.714844 25.644531 148.382812 13.75 164.941406 21.332031 C 165.828125 21.734375 166.859375 21.675781 167.691406 21.171875 C 168.527344 20.671875 188.707031 8.929688 216.535156 22.09375 C 217.386719 22.496094 218.378906 22.464844 219.203125 22.015625 C 219.3125 21.957031 230.753906 15.902344 239.519531 20.941406 C 246.535156 24.976562 250.34375 35.019531 250.839844 50.796875 C 250.878906 52.023438 251.679688 53.101562 252.847656 53.488281 C 252.875 53.5 256.78125 54.863281 259.304688 58.007812 C 260.046875 58.941406 261.28125 59.328125 262.425781 58.992188 C 262.542969 58.957031 274.480469 55.5625 281.035156 60.144531 C 281.824219 60.699219 282.839844 60.828125 283.742188 60.492188 C 284.792969 60.105469 309.726562 51.234375 329.21875 69.269531 C 338.28125 77.652344 338.058594 87.816406 337.121094 93.128906 C 335.347656 103.191406 329.09375 110.695312 323.832031 112.902344 C 323.828125 112.902344 323.824219 112.90625 323.820312 112.90625 C 322.207031 113.59375 320.699219 113.785156 319.339844 113.484375 C 318.402344 113.277344 317.425781 113.535156 316.71875 114.183594 C 316.011719 114.828125 315.664062 115.777344 315.789062 116.726562 C 315.808594 116.902344 317.933594 134.867188 306.90625 145.140625 C 299.203125 152.324219 286.78125 154.289062 269.988281 150.980469 C 269.796875 150.941406 269.609375 150.925781 269.417969 150.925781 Z M 269.417969 150.925781 " fill-opacity="1" fill-rule="nonzero"/><path fill="#5c0000" d="M 254.992188 48.113281 C 254.632812 48.015625 254.390625 47.964844 254.105469 47.90625 C 253.832031 47.847656 253.5625 47.796875 253.292969 47.75 C 252.753906 47.652344 252.222656 47.566406 251.6875 47.492188 C 250.621094 47.347656 249.5625 47.226562 248.5 47.152344 C 246.378906 46.992188 244.261719 46.976562 242.152344 47.074219 C 237.929688 47.265625 233.75 47.972656 229.726562 49.171875 C 225.703125 50.367188 221.859375 52.09375 218.296875 54.234375 C 214.75 56.410156 211.492188 58.996094 208.585938 61.890625 C 208.167969 62.304688 208.167969 62.980469 208.582031 63.394531 C 208.976562 63.789062 209.605469 63.808594 210.023438 63.457031 L 210.03125 63.449219 C 213.039062 60.886719 216.316406 58.6875 219.789062 56.910156 C 223.277344 55.167969 226.953125 53.851562 230.730469 53.042969 C 234.503906 52.230469 238.367188 51.882812 242.199219 52.007812 C 244.113281 52.070312 246.023438 52.230469 247.90625 52.523438 C 248.847656 52.664062 249.777344 52.84375 250.695312 53.042969 C 251.152344 53.144531 251.609375 53.253906 252.054688 53.371094 L 252.710938 53.550781 C 252.914062 53.609375 253.160156 53.6875 253.285156 53.730469 C 254.8125 54.289062 256.503906 53.507812 257.0625 51.980469 C 257.621094 50.457031 256.835938 48.765625 255.308594 48.207031 C 255.222656 48.175781 255.136719 48.148438 255.046875 48.125 Z M 254.992188 48.113281 " fill-opacity="1" fill-rule="nonzero"/><path fill="#5c0000" d="M 261.207031 53.308594 C 260.785156 53.488281 260.484375 53.636719 260.140625 53.804688 C 259.808594 53.96875 259.484375 54.136719 259.164062 54.308594 C 258.515625 54.640625 257.894531 55 257.269531 55.351562 C 256.035156 56.078125 254.820312 56.820312 253.640625 57.613281 C 251.285156 59.199219 249.011719 60.878906 246.875 62.710938 C 244.738281 64.542969 242.671875 66.441406 240.769531 68.492188 C 238.824219 70.503906 237.0625 72.671875 235.359375 74.863281 C 235.015625 75.308594 235.09375 75.945312 235.539062 76.289062 C 235.949219 76.605469 236.527344 76.5625 236.886719 76.199219 L 236.910156 76.175781 C 238.808594 74.25 240.738281 72.371094 242.820312 70.667969 C 244.863281 68.925781 247.042969 67.355469 249.253906 65.867188 C 251.46875 64.378906 253.785156 63.058594 256.136719 61.851562 C 257.3125 61.242188 258.507812 60.691406 259.707031 60.164062 C 260.308594 59.914062 260.910156 59.65625 261.511719 59.429688 C 261.8125 59.3125 262.113281 59.199219 262.40625 59.097656 C 262.695312 58.992188 263.023438 58.882812 263.242188 58.820312 C 264.804688 58.363281 265.703125 56.730469 265.25 55.171875 C 264.796875 53.609375 263.160156 52.710938 261.597656 53.164062 C 261.480469 53.199219 261.371094 53.238281 261.261719 53.285156 Z M 261.207031 53.308594 " fill-opacity="1" fill-rule="nonzero"/><path fill="#5c0000" d="M 281.257812 55.207031 C 281.027344 55.320312 280.878906 55.40625 280.707031 55.5 C 280.539062 55.59375 280.382812 55.6875 280.226562 55.785156 C 279.910156 55.96875 279.601562 56.160156 279.304688 56.355469 C 278.699219 56.738281 278.128906 57.152344 277.550781 57.558594 C 276.421875 58.394531 275.335938 59.269531 274.296875 60.195312 C 272.222656 62.042969 270.324219 64.066406 268.660156 66.257812 C 266.996094 68.4375 265.5 70.742188 264.3125 73.191406 C 264.023438 73.808594 263.671875 74.390625 263.433594 75.027344 L 262.664062 76.90625 C 262.386719 77.519531 262.207031 78.175781 261.996094 78.8125 L 261.378906 80.730469 C 261.226562 81.199219 261.488281 81.703125 261.957031 81.851562 C 262.386719 81.988281 262.847656 81.78125 263.035156 81.382812 L 263.066406 81.316406 L 263.890625 79.574219 C 264.167969 78.996094 264.414062 78.40625 264.753906 77.863281 L 265.703125 76.203125 C 265.996094 75.640625 266.398438 75.140625 266.742188 74.605469 C 268.132812 72.484375 269.78125 70.554688 271.546875 68.777344 C 273.308594 66.992188 275.25 65.402344 277.300781 64.011719 C 278.324219 63.3125 279.378906 62.667969 280.449219 62.074219 C 280.988281 61.792969 281.523438 61.5 282.066406 61.25 C 282.339844 61.117188 282.609375 60.996094 282.875 60.882812 C 283.011719 60.820312 283.144531 60.761719 283.269531 60.714844 C 283.394531 60.667969 283.539062 60.609375 283.609375 60.589844 C 285.183594 60.152344 286.109375 58.523438 285.671875 56.949219 C 285.238281 55.371094 283.605469 54.445312 282.027344 54.882812 C 281.851562 54.933594 281.679688 54.996094 281.519531 55.074219 Z M 281.257812 55.207031 " fill-opacity="1" fill-rule="nonzero"/><path fill="#5c0000" d="M 319.347656 114.132812 C 318.667969 113.945312 317.90625 113.710938 317.195312 113.46875 C 316.476562 113.226562 315.761719 112.96875 315.070312 112.6875 C 314.378906 112.40625 313.699219 112.117188 313.070312 111.789062 C 312.441406 111.464844 311.847656 111.117188 311.371094 110.761719 C 310.355469 110.003906 308.914062 110.207031 308.15625 111.222656 L 308.125 111.261719 C 307.816406 111.675781 307.394531 112.1875 307 112.644531 C 306.597656 113.113281 306.179688 113.570312 305.75 114.023438 C 304.894531 114.921875 303.992188 115.789062 303.058594 116.601562 C 301.195312 118.242188 299.191406 119.703125 297.0625 120.878906 C 294.9375 122.066406 292.683594 122.945312 290.371094 123.425781 C 289.792969 123.550781 289.210938 123.636719 288.628906 123.714844 C 288.039062 123.769531 287.492188 123.824219 286.816406 123.847656 C 285.523438 123.917969 284.226562 123.953125 282.929688 124 C 280.335938 124.085938 277.726562 124.101562 275.066406 124.144531 C 272.410156 124.191406 269.699219 124.300781 266.992188 124.578125 C 264.289062 124.847656 261.605469 125.28125 258.964844 125.824219 C 256.324219 126.363281 253.707031 127.054688 251.207031 127.695312 C 248.691406 128.332031 246.1875 128.894531 243.675781 129.292969 C 241.164062 129.679688 238.644531 129.902344 236.136719 129.886719 C 231.121094 129.882812 226.175781 128.777344 221.617188 126.675781 C 217.039062 124.59375 212.957031 121.4375 209.292969 117.851562 C 205.632812 114.246094 202.4375 110.125 199.503906 105.824219 L 199.5 105.816406 C 199.1875 105.359375 198.5625 105.242188 198.101562 105.554688 C 197.664062 105.851562 197.539062 106.441406 197.800781 106.890625 C 200.492188 111.476562 203.601562 115.855469 207.234375 119.839844 C 210.910156 123.769531 215.15625 127.316406 220.09375 129.804688 C 222.550781 131.050781 225.148438 132.058594 227.84375 132.71875 C 230.535156 133.398438 233.300781 133.75 236.058594 133.832031 C 238.816406 133.917969 241.566406 133.742188 244.265625 133.390625 C 246.964844 133.03125 249.617188 132.5 252.222656 131.914062 C 254.839844 131.320312 257.316406 130.6875 259.84375 130.199219 C 262.367188 129.710938 264.890625 129.332031 267.429688 129.105469 C 272.480469 128.636719 277.703125 128.851562 283.058594 128.730469 C 284.394531 128.703125 285.726562 128.644531 287.0625 128.578125 C 287.703125 128.554688 288.46875 128.484375 289.1875 128.414062 C 289.910156 128.320312 290.632812 128.210938 291.339844 128.054688 C 294.1875 127.460938 296.886719 126.386719 299.355469 125.007812 C 301.832031 123.628906 304.105469 121.96875 306.179688 120.121094 C 307.214844 119.191406 308.203125 118.214844 309.144531 117.199219 C 309.613281 116.6875 310.078125 116.167969 310.527344 115.632812 C 310.984375 115.085938 311.394531 114.582031 311.863281 113.933594 L 308.617188 114.433594 C 309.429688 115.027344 310.234375 115.46875 311.035156 115.867188 C 311.832031 116.265625 312.628906 116.589844 313.425781 116.898438 C 314.222656 117.207031 315.023438 117.46875 315.824219 117.71875 C 316.636719 117.96875 317.414062 118.191406 318.28125 118.40625 C 319.460938 118.699219 320.65625 117.976562 320.949219 116.792969 C 321.234375 115.632812 320.539062 114.457031 319.390625 114.144531 Z M 319.347656 114.132812 " fill-opacity="1" fill-rule="nonzero"/><path fill="#5c0000" d="M 195.65625 121.699219 C 195.992188 119.355469 196.40625 117.011719 197.035156 114.828125 C 197.65625 112.636719 198.476562 110.570312 199.582031 108.777344 C 200.125 107.875 200.773438 107.070312 201.46875 106.328125 C 202.175781 105.597656 202.925781 104.902344 203.792969 104.335938 C 205.484375 103.128906 207.519531 102.316406 209.761719 101.5 L 209.828125 101.476562 C 210.367188 101.277344 210.644531 100.679688 210.449219 100.144531 C 210.308594 99.761719 209.964844 99.511719 209.585938 99.464844 C 208.9375 99.394531 208.28125 99.328125 207.621094 99.339844 C 206.964844 99.378906 206.289062 99.386719 205.628906 99.519531 C 204.292969 99.714844 202.96875 100.164062 201.71875 100.785156 C 199.207031 102.039062 197.128906 104.183594 195.824219 106.597656 C 194.503906 109.015625 193.8125 111.640625 193.59375 114.222656 C 193.402344 116.816406 193.558594 119.359375 194.296875 121.851562 C 194.40625 122.21875 194.789062 122.425781 195.160156 122.320312 C 195.429688 122.238281 195.613281 122.011719 195.648438 121.753906 Z M 195.65625 121.699219 " fill-opacity="1" fill-rule="nonzero"/><path fill="#5c0000" d="M 164.316406 21.0625 C 164.726562 21.234375 165.261719 21.511719 165.734375 21.773438 C 166.21875 22.039062 166.703125 22.320312 167.183594 22.613281 C 168.140625 23.195312 169.074219 23.828125 169.976562 24.503906 C 171.777344 25.863281 173.441406 27.414062 174.789062 29.253906 L 174.808594 29.28125 C 175.070312 29.640625 175.570312 29.714844 175.929688 29.457031 C 176.222656 29.242188 176.328125 28.867188 176.214844 28.542969 C 175.800781 27.367188 175.296875 26.207031 174.691406 25.105469 C 174.082031 24.007812 173.410156 22.933594 172.671875 21.917969 C 171.933594 20.898438 171.144531 19.910156 170.308594 18.960938 C 169.886719 18.484375 169.460938 18.015625 169.011719 17.558594 C 168.554688 17.089844 168.140625 16.667969 167.578125 16.175781 L 167.457031 16.070312 C 166.21875 14.980469 164.328125 15.101562 163.242188 16.34375 C 162.152344 17.582031 162.273438 19.46875 163.511719 20.554688 C 163.757812 20.769531 164.035156 20.9375 164.316406 21.0625 Z M 164.316406 21.0625 " fill-opacity="1" fill-rule="nonzero"/><path fill="#5c0000" d="M 131.191406 22.820312 C 131.046875 23.082031 130.996094 23.214844 130.917969 23.394531 C 130.84375 23.570312 130.785156 23.730469 130.71875 23.894531 C 130.597656 24.222656 130.480469 24.546875 130.378906 24.867188 C 130.171875 25.511719 129.996094 26.148438 129.84375 26.785156 C 129.542969 28.054688 129.332031 29.324219 129.179688 30.582031 C 129.046875 31.847656 128.960938 33.097656 128.957031 34.34375 C 128.9375 35.585938 129 36.816406 129.09375 38.035156 C 129.113281 38.300781 129.34375 38.5 129.609375 38.480469 C 129.820312 38.464844 129.988281 38.320312 130.039062 38.128906 L 130.042969 38.113281 C 130.359375 36.960938 130.699219 35.824219 131.109375 34.722656 C 131.503906 33.617188 131.976562 32.550781 132.46875 31.515625 C 132.980469 30.484375 133.53125 29.492188 134.140625 28.5625 C 134.441406 28.097656 134.757812 27.644531 135.085938 27.226562 C 135.246094 27.011719 135.414062 26.8125 135.578125 26.617188 C 135.664062 26.523438 135.746094 26.425781 135.824219 26.34375 C 135.898438 26.269531 136.007812 26.148438 136.027344 26.164062 C 136.949219 24.828125 136.617188 23 135.28125 22.078125 C 133.949219 21.152344 132.117188 21.484375 131.191406 22.820312 Z M 131.191406 22.820312 " fill-opacity="1" fill-rule="nonzero"/><path fill="#5c0000" d="M 288.3125 86.902344 C 288.3125 87.308594 288.339844 87.714844 288.390625 88.117188 C 288.441406 88.519531 288.519531 88.910156 288.621094 89.289062 C 288.722656 89.667969 288.847656 90.027344 288.992188 90.367188 C 289.140625 90.707031 289.308594 91.023438 289.496094 91.3125 C 289.683594 91.601562 289.886719 91.863281 290.109375 92.089844 C 290.328125 92.316406 290.5625 92.507812 290.808594 92.667969 C 291.054688 92.824219 291.304688 92.941406 291.566406 93.019531 C 291.828125 93.101562 292.089844 93.140625 292.355469 93.140625 C 292.621094 93.140625 292.882812 93.101562 293.144531 93.019531 C 293.402344 92.941406 293.65625 92.824219 293.902344 92.667969 C 294.148438 92.507812 294.378906 92.316406 294.601562 92.089844 C 294.820312 91.863281 295.027344 91.601562 295.214844 91.3125 C 295.402344 91.023438 295.570312 90.707031 295.714844 90.367188 C 295.863281 90.027344 295.988281 89.667969 296.089844 89.289062 C 296.191406 88.910156 296.269531 88.519531 296.320312 88.117188 C 296.371094 87.714844 296.398438 87.308594 296.398438 86.902344 C 296.398438 86.492188 296.371094 86.085938 296.320312 85.683594 C 296.269531 85.28125 296.191406 84.890625 296.089844 84.511719 C 295.988281 84.132812 295.863281 83.773438 295.714844 83.433594 C 295.570312 83.09375 295.402344 82.777344 295.214844 82.488281 C 295.027344 82.199219 294.820312 81.9375 294.601562 81.710938 C 294.378906 81.484375 294.148438 81.292969 293.902344 81.132812 C 293.65625 80.976562 293.402344 80.859375 293.144531 80.78125 C 292.882812 80.699219 292.621094 80.660156 292.355469 80.660156 C 292.089844 80.660156 291.828125 80.699219 291.566406 80.78125 C 291.304688 80.859375 291.054688 80.976562 290.808594 81.132812 C 290.5625 81.292969 290.328125 81.484375 290.109375 81.710938 C 289.886719 81.9375 289.683594 82.199219 289.496094 82.488281 C 289.308594 82.777344 289.140625 83.09375 288.992188 83.433594 C 288.847656 83.773438 288.722656 84.132812 288.621094 84.511719 C 288.519531 84.890625 288.441406 85.28125 288.390625 85.683594 C 288.339844 86.085938 288.3125 86.492188 288.3125 86.902344 Z M 288.3125 86.902344 " fill-opacity="1" fill-rule="nonzero"/><path fill="#5c0000" d="M 319.546875 80.660156 C 319.546875 81.070312 319.574219 81.476562 319.625 81.878906 C 319.675781 82.277344 319.753906 82.667969 319.855469 83.046875 C 319.957031 83.425781 320.082031 83.785156 320.230469 84.125 C 320.375 84.46875 320.542969 84.78125 320.730469 85.074219 C 320.917969 85.363281 321.125 85.621094 321.34375 85.847656 C 321.566406 86.078125 321.796875 86.269531 322.042969 86.425781 C 322.289062 86.582031 322.539062 86.699219 322.800781 86.78125 C 323.0625 86.859375 323.324219 86.902344 323.589844 86.902344 C 323.855469 86.902344 324.117188 86.859375 324.378906 86.78125 C 324.640625 86.699219 324.890625 86.582031 325.136719 86.425781 C 325.382812 86.269531 325.613281 86.078125 325.835938 85.847656 C 326.054688 85.621094 326.261719 85.363281 326.449219 85.074219 C 326.636719 84.78125 326.804688 84.46875 326.949219 84.125 C 327.097656 83.785156 327.222656 83.425781 327.324219 83.046875 C 327.425781 82.667969 327.503906 82.277344 327.554688 81.878906 C 327.605469 81.476562 327.632812 81.070312 327.632812 80.660156 C 327.632812 80.25 327.605469 79.84375 327.554688 79.441406 C 327.503906 79.039062 327.425781 78.648438 327.324219 78.269531 C 327.222656 77.894531 327.097656 77.53125 326.949219 77.191406 C 326.804688 76.851562 326.636719 76.535156 326.449219 76.246094 C 326.261719 75.957031 326.054688 75.699219 325.835938 75.46875 C 325.613281 75.242188 325.382812 75.050781 325.136719 74.894531 C 324.890625 74.738281 324.640625 74.617188 324.378906 74.539062 C 324.117188 74.457031 323.855469 74.417969 323.589844 74.417969 C 323.324219 74.417969 323.0625 74.457031 322.800781 74.539062 C 322.539062 74.617188 322.289062 74.738281 322.042969 74.894531 C 321.796875 75.050781 321.566406 75.242188 321.34375 75.46875 C 321.125 75.699219 320.917969 75.957031 320.730469 76.246094 C 320.542969 76.535156 320.375 76.851562 320.230469 77.191406 C 320.082031 77.53125 319.957031 77.894531 319.855469 78.269531 C 319.753906 78.648438 319.675781 79.039062 319.625 79.441406 C 319.574219 79.84375 319.546875 80.25 319.546875 80.660156 Z M 319.546875 80.660156 " fill-opacity="1" fill-rule="nonzero"/><path fill="#ffffff" d="M 221.890625 128.734375 C 217.921875 126.953125 213.886719 124.292969 209.851562 120.4375 C 211.746094 117.097656 215.414062 112.839844 222.535156 108.925781 C 222.535156 108.925781 221.792969 119.308594 221.890625 128.734375 Z M 221.890625 128.734375 " fill-opacity="1" fill-rule="nonzero"/><path fill="#ffffff" d="M 244.0625 131.328125 C 242.730469 143.597656 234.664062 148.207031 234.664062 148.207031 C 233.558594 141.96875 231.355469 136.828125 231.355469 131.480469 C 235.785156 132.128906 240.066406 131.914062 244.0625 131.328125 Z M 244.0625 131.328125 " fill-opacity="1" fill-rule="nonzero"/><path fill="#ffffff" d="M 269.34375 126.664062 C 265.625 126.90625 261.605469 127.445312 256.308594 128.683594 C 256.335938 124.292969 257.09375 117.753906 260.386719 110.761719 C 260.386719 110.761719 267.199219 114.734375 269.34375 126.664062 Z M 269.34375 126.664062 " fill-opacity="1" fill-rule="nonzero"/><path fill="#ffffff" d="M 284.636719 143.800781 C 285.976562 138.449219 284.875 131.203125 283.808594 126.34375 C 284.992188 126.304688 286.246094 126.253906 287.578125 126.179688 C 291.089844 125.984375 294.296875 125.011719 297.101562 123.691406 C 298.109375 139.523438 284.636719 143.800781 284.636719 143.800781 Z M 284.636719 143.800781 " fill-opacity="1" fill-rule="nonzero"/><path fill="#ffffff" d="M 320.28125 116.742188 L 323.296875 128.726562 C 323.800781 130.722656 326.605469 130.804688 327.222656 128.839844 L 333.671875 108.324219 C 333.671875 108.324219 328 116.113281 320.28125 116.742188 Z M 320.28125 116.742188 " fill-opacity="1" fill-rule="nonzero"/><path fill="#5c0000" d="M 221.0625 127.472656 C 221.132812 127.292969 221.304688 127.136719 221.472656 127.097656 C 221.554688 127.078125 221.628906 127.078125 221.679688 127.089844 C 221.707031 127.097656 221.726562 127.109375 221.742188 127.121094 C 221.75 127.128906 221.683594 127.101562 221.660156 127.09375 L 220.820312 126.792969 C 220.261719 126.585938 219.71875 126.34375 219.175781 126.09375 C 218.101562 125.582031 217.050781 125 216.042969 124.355469 C 215.03125 123.707031 214.050781 123.007812 213.136719 122.226562 C 212.226562 121.445312 211.355469 120.605469 210.597656 119.664062 L 210.597656 119.660156 L 210.789062 120.96875 C 212.257812 118.652344 214.199219 116.648438 216.359375 114.929688 C 218.519531 113.207031 220.921875 111.773438 223.414062 110.535156 L 223.421875 110.535156 L 220.703125 108.792969 C 220.53125 112.132812 220.421875 115.441406 220.359375 118.765625 C 220.328125 120.429688 220.316406 122.089844 220.316406 123.753906 L 220.332031 126.25 L 220.339844 126.875 L 220.339844 126.953125 L 220.34375 126.976562 C 220.34375 126.988281 220.347656 127.003906 220.355469 127.011719 C 220.367188 127.035156 220.386719 127.050781 220.414062 127.066406 C 220.523438 127.117188 220.8125 127.203125 221.0625 127.472656 Z M 222.714844 130 C 222.964844 129.441406 223.25 128.699219 223.351562 127.929688 C 223.378906 127.738281 223.398438 127.546875 223.40625 127.363281 L 223.417969 127.085938 L 223.421875 126.878906 L 223.4375 126.265625 L 223.5 123.804688 C 223.554688 122.164062 223.625 120.523438 223.710938 118.882812 C 223.878906 115.605469 224.09375 112.3125 224.371094 109.058594 L 224.375 109.011719 C 224.457031 108.023438 223.722656 107.152344 222.730469 107.070312 C 222.339844 107.035156 221.964844 107.132812 221.652344 107.320312 L 221.644531 107.324219 C 219.085938 108.886719 216.632812 110.652344 214.441406 112.738281 C 212.253906 114.8125 210.3125 117.199219 208.914062 119.90625 L 208.851562 120.03125 C 208.636719 120.445312 208.753906 120.941406 209.105469 121.21875 L 209.109375 121.222656 C 210.125 121.964844 211.082031 122.757812 212.058594 123.53125 C 213.035156 124.308594 214 125.097656 215 125.851562 C 215.996094 126.601562 217.015625 127.335938 218.0625 128.042969 L 219.648438 129.089844 L 220.457031 129.601562 C 220.5 129.628906 220.5 129.636719 220.582031 129.679688 C 220.664062 129.722656 220.753906 129.765625 220.851562 129.800781 C 221.042969 129.878906 221.253906 129.945312 221.476562 129.988281 C 221.917969 130.074219 222.367188 130.050781 222.714844 130 Z M 222.714844 130 " fill-opacity="1" fill-rule="nonzero"/><path fill="#5c0000" d="M 242.789062 132.648438 C 242.523438 132.867188 242.246094 132.960938 242.101562 133.011719 C 242.023438 133.039062 241.976562 133.066406 241.953125 133.109375 C 241.941406 133.128906 241.933594 133.15625 241.933594 133.1875 C 241.929688 133.21875 241.894531 133.355469 241.875 133.4375 L 241.621094 134.570312 L 241.488281 135.136719 L 241.316406 135.691406 L 240.976562 136.796875 L 240.558594 137.871094 L 240.347656 138.40625 L 240.097656 138.925781 C 239.925781 139.269531 239.773438 139.621094 239.589844 139.957031 C 238.867188 141.304688 237.992188 142.566406 237 143.714844 C 236.511719 144.296875 235.96875 144.824219 235.417969 145.332031 C 235.136719 145.574219 234.855469 145.824219 234.5625 146.039062 C 234.417969 146.152344 234.273438 146.261719 234.128906 146.359375 C 234.058594 146.410156 233.984375 146.464844 233.917969 146.507812 L 233.75 146.617188 L 236.472656 147.890625 L 236.46875 147.882812 C 235.882812 144.984375 235.027344 142.203125 234.253906 139.5 C 233.488281 136.792969 232.816406 134.132812 232.738281 131.484375 L 231.15625 132.851562 C 233.328125 133.246094 235.535156 133.445312 237.742188 133.480469 C 238.84375 133.496094 239.949219 133.476562 241.046875 133.417969 C 241.59375 133.386719 242.144531 133.351562 242.691406 133.304688 L 243.511719 133.230469 C 243.574219 133.226562 243.523438 133.234375 243.492188 133.234375 C 243.460938 133.234375 243.425781 133.234375 243.386719 133.226562 C 243.308594 133.210938 243.222656 133.179688 243.140625 133.128906 C 242.972656 133.023438 242.835938 132.839844 242.789062 132.648438 Z M 245.335938 130.003906 C 245.023438 129.851562 244.625 129.703125 244.195312 129.640625 C 243.980469 129.605469 243.765625 129.59375 243.558594 129.597656 C 243.453125 129.601562 243.351562 129.605469 243.253906 129.617188 L 243.035156 129.648438 L 242.273438 129.769531 C 241.765625 129.847656 241.257812 129.921875 240.75 129.984375 C 239.730469 130.113281 238.707031 130.207031 237.6875 130.261719 C 235.640625 130.375 233.589844 130.332031 231.558594 130.113281 L 231.503906 130.109375 C 230.746094 130.027344 230.0625 130.574219 229.980469 131.335938 C 229.976562 131.382812 229.972656 131.433594 229.972656 131.484375 C 229.902344 134.546875 230.503906 137.492188 231.136719 140.292969 C 231.78125 143.097656 232.453125 145.8125 232.855469 148.519531 L 232.855469 148.527344 L 232.863281 148.578125 C 233.050781 149.5625 234.003906 150.210938 234.992188 150.023438 C 235.199219 149.984375 235.402344 149.90625 235.578125 149.804688 C 235.738281 149.710938 235.824219 149.648438 235.933594 149.578125 C 236.046875 149.507812 236.140625 149.441406 236.238281 149.371094 C 236.4375 149.234375 236.625 149.09375 236.808594 148.953125 C 237.183594 148.671875 237.523438 148.371094 237.871094 148.070312 C 238.546875 147.453125 239.195312 146.816406 239.777344 146.128906 C 240.960938 144.761719 241.988281 143.273438 242.835938 141.691406 C 243.050781 141.296875 243.230469 140.886719 243.429688 140.484375 L 243.71875 139.878906 L 243.964844 139.257812 L 244.449219 138.007812 L 244.84375 136.730469 L 245.039062 136.09375 L 245.191406 135.445312 L 245.484375 134.148438 C 245.511719 134.023438 245.53125 133.964844 245.558594 133.789062 C 245.585938 133.617188 245.609375 133.4375 245.628906 133.25 C 245.664062 132.882812 245.679688 132.5 245.664062 132.113281 C 245.636719 131.339844 245.484375 130.609375 245.335938 130.003906 Z M 245.335938 130.003906 " fill-opacity="1" fill-rule="nonzero"/><path fill="#5c0000" d="M 256.308594 130.519531 C 256.445312 130.519531 256.585938 130.503906 256.726562 130.472656 C 261.410156 129.375 265.339844 128.765625 269.464844 128.496094 C 269.988281 128.464844 270.46875 128.207031 270.792969 127.796875 C 271.113281 127.386719 271.246094 126.855469 271.152344 126.339844 C 268.882812 113.722656 261.621094 109.355469 261.3125 109.175781 C 260.867188 108.917969 260.332031 108.855469 259.839844 109.007812 C 259.347656 109.160156 258.941406 109.511719 258.722656 109.980469 C 255.261719 117.328125 254.5 124.199219 254.472656 128.671875 C 254.46875 129.234375 254.722656 129.765625 255.160156 130.121094 C 255.488281 130.382812 255.894531 130.519531 256.308594 130.519531 Z M 267.117188 125 C 264.226562 125.273438 261.367188 125.714844 258.226562 126.375 C 258.453125 122.910156 259.191406 118.460938 261.113281 113.6875 C 262.882812 115.394531 265.628906 118.878906 267.117188 125 Z M 267.117188 125 " fill-opacity="1" fill-rule="nonzero"/><path fill="#5c0000" d="M 284.636719 145.636719 C 284.824219 145.636719 285.011719 145.609375 285.195312 145.550781 C 285.34375 145.503906 300.019531 140.640625 298.933594 123.574219 C 298.898438 122.96875 298.558594 122.421875 298.035156 122.113281 C 297.511719 121.800781 296.867188 121.773438 296.320312 122.03125 C 293.40625 123.402344 290.433594 124.183594 287.472656 124.351562 C 286.242188 124.417969 285.023438 124.46875 283.75 124.507812 C 283.203125 124.527344 282.691406 124.785156 282.359375 125.214844 C 282.023438 125.644531 281.894531 126.203125 282.011719 126.734375 C 283.078125 131.59375 284.089844 138.421875 282.855469 143.359375 C 282.695312 144.003906 282.894531 144.6875 283.378906 145.140625 C 283.726562 145.464844 284.175781 145.636719 284.636719 145.636719 Z M 295.289062 126.429688 C 294.890625 134.429688 290.175781 138.660156 286.992188 140.625 C 287.324219 136.496094 286.769531 131.925781 286.042969 128.097656 C 286.589844 128.070312 287.132812 128.046875 287.679688 128.015625 C 290.230469 127.871094 292.777344 127.339844 295.289062 126.429688 Z M 295.289062 126.429688 " fill-opacity="1" fill-rule="nonzero"/><path fill="#183c10" d="M 325.28125 132.105469 C 326.988281 132.105469 328.460938 131.027344 328.976562 129.390625 L 335.425781 108.875 C 335.695312 108.015625 335.304688 107.089844 334.5 106.683594 C 333.699219 106.28125 332.71875 106.515625 332.1875 107.242188 C 332.136719 107.3125 326.898438 114.359375 320.132812 114.910156 C 319.597656 114.953125 319.105469 115.234375 318.789062 115.671875 C 318.472656 116.109375 318.371094 116.664062 318.5 117.1875 L 321.515625 129.175781 C 321.945312 130.875 323.410156 132.050781 325.164062 132.101562 C 325.203125 132.101562 325.242188 132.105469 325.28125 132.105469 Z M 329.722656 114.765625 L 325.46875 128.289062 C 325.449219 128.355469 325.410156 128.4375 325.269531 128.433594 C 325.117188 128.429688 325.097656 128.347656 325.078125 128.277344 L 322.554688 118.238281 C 325.3125 117.601562 327.746094 116.238281 329.722656 114.765625 Z M 329.722656 114.765625 " fill-opacity="1" fill-rule="nonzero"/><path fill="#5c0000" d="M 216.195312 16.976562 C 215.972656 17.148438 215.910156 17.226562 215.792969 17.34375 C 215.683594 17.449219 215.597656 17.550781 215.5 17.652344 C 215.316406 17.859375 215.144531 18.0625 214.984375 18.269531 C 214.660156 18.679688 214.371094 19.09375 214.097656 19.511719 C 213.554688 20.347656 213.09375 21.203125 212.6875 22.0625 C 212.292969 22.933594 211.941406 23.800781 211.65625 24.683594 C 211.363281 25.566406 211.140625 26.453125 210.941406 27.335938 C 210.828125 27.832031 211.136719 28.328125 211.636719 28.4375 C 212.011719 28.523438 212.386719 28.367188 212.597656 28.070312 L 212.617188 28.039062 C 213.105469 27.34375 213.605469 26.671875 214.144531 26.042969 C 214.679688 25.410156 215.253906 24.824219 215.835938 24.277344 C 216.425781 23.738281 217.039062 23.242188 217.664062 22.8125 C 217.976562 22.601562 218.292969 22.398438 218.609375 22.234375 C 218.761719 22.144531 218.917969 22.070312 219.066406 22.003906 C 219.140625 21.972656 219.214844 21.933594 219.28125 21.914062 C 219.332031 21.898438 219.441406 21.847656 219.402344 21.898438 C 220.761719 21.015625 221.148438 19.199219 220.265625 17.839844 C 219.378906 16.480469 217.558594 16.09375 216.195312 16.976562 Z M 216.195312 16.976562 " fill-opacity="1" fill-rule="nonzero"/><path fill="#5c0000" d="M 142.203125 60.835938 C 142.210938 60.835938 142.214844 60.835938 142.21875 60.835938 C 143.84375 60.828125 145.152344 59.503906 145.144531 57.882812 C 145.144531 57.390625 145.269531 45.542969 155.023438 44.539062 C 164.578125 43.554688 167.765625 54.242188 167.898438 54.695312 C 168.34375 56.253906 169.96875 57.15625 171.527344 56.714844 C 173.085938 56.273438 173.992188 54.660156 173.554688 53.101562 C 172.011719 47.597656 166.027344 37.507812 154.425781 38.699219 C 142.367188 39.9375 139.234375 51.808594 139.265625 57.914062 C 139.273438 59.527344 140.585938 60.835938 142.203125 60.835938 Z M 142.203125 60.835938 " fill-opacity="1" fill-rule="nonzero"/><path fill="#5c0000" d="M 222.535156 51.484375 C 224.15625 51.484375 225.472656 50.171875 225.476562 48.550781 C 225.480469 48.125 225.660156 37.859375 233.699219 36.410156 C 241.925781 34.929688 245.371094 45.230469 245.511719 45.667969 C 246.011719 47.207031 247.667969 48.058594 249.210938 47.5625 C 250.753906 47.066406 251.605469 45.421875 251.113281 43.878906 C 249.382812 38.457031 243.300781 28.714844 232.65625 30.628906 C 222.351562 32.484375 219.609375 43.15625 219.597656 48.539062 C 219.59375 50.164062 220.90625 51.480469 222.53125 51.484375 C 222.53125 51.484375 222.535156 51.484375 222.535156 51.484375 Z M 222.535156 51.484375 " fill-opacity="1" fill-rule="nonzero"/><path fill="#5c0000" d="M 84.722656 62.222656 L 86.125 58.410156 C 88.851562 50.960938 96.019531 45.957031 103.960938 45.957031 L 115.910156 45.957031 C 116.175781 39.671875 118.359375 33.636719 122.253906 28.535156 C 127.289062 21.964844 134.585938 17.742188 142.796875 16.648438 L 161.394531 14.167969 C 169.605469 13.070312 177.753906 15.246094 184.332031 20.269531 C 188.617188 23.550781 191.910156 27.785156 193.984375 32.609375 C 198.039062 30.679688 202.308594 30.589844 205.925781 31.296875 C 206.675781 26.558594 208.601562 22.058594 211.589844 18.144531 C 216.339844 11.941406 223.226562 7.960938 230.972656 6.925781 L 244.730469 5.089844 C 252.484375 4.0625 260.164062 6.105469 266.375 10.847656 C 272.585938 15.589844 276.574219 22.460938 277.609375 30.207031 C 277.824219 31.824219 277.925781 33.425781 277.925781 35.011719 C 277.925781 44.292969 275.570312 49.585938 269.5625 56.105469 C 267.585938 54.710938 263.324219 56.195312 259.523438 54.578125 C 265.734375 48.925781 269.175781 40.421875 267.984375 31.496094 C 267.292969 26.316406 264.625 21.722656 260.472656 18.550781 C 256.328125 15.378906 251.1875 14.011719 246.015625 14.710938 L 232.257812 16.539062 C 227.074219 17.230469 222.476562 19.886719 219.300781 24.042969 C 216.132812 28.183594 214.757812 33.316406 215.457031 38.492188 C 216.25 44.433594 218.972656 49.8125 223.210938 53.925781 C 220.96875 55.054688 217.683594 56.027344 214.28125 58.597656 C 208.652344 53.417969 207.214844 49.085938 206.144531 42.011719 C 204.164062 41.21875 200.007812 40.160156 196.554688 43.179688 L 196.710938 44.351562 C 199.511719 65.308594 184.714844 84.632812 163.75 87.421875 L 159.734375 87.957031 C 158.015625 88.1875 156.296875 88.304688 154.585938 88.304688 C 146.214844 88.296875 138.113281 85.574219 131.355469 80.410156 C 123.542969 74.441406 118.414062 65.894531 116.808594 56.238281 L 103.960938 56.238281 C 100.316406 56.238281 97.03125 58.53125 95.78125 61.945312 L 94.386719 65.757812 C 93.621094 67.839844 91.652344 69.132812 89.558594 69.132812 C 88.972656 69.132812 88.375 69.03125 87.789062 68.816406 C 85.117188 67.839844 83.75 64.886719 84.722656 62.222656 Z M 126.347656 50.101562 L 126.824219 53.660156 C 127.816406 61.09375 131.648438 67.691406 137.605469 72.242188 C 143.558594 76.796875 150.9375 78.757812 158.375 77.765625 L 162.386719 77.230469 C 177.734375 75.1875 188.558594 61.046875 186.515625 45.707031 L 186.066406 42.347656 C 186.0625 42.339844 186.0625 42.332031 186.0625 42.324219 L 186.039062 42.148438 C 186.03125 42.089844 186.023438 42.035156 186.007812 41.976562 L 186.007812 41.957031 C 185.238281 36.550781 182.429688 31.757812 178.078125 28.429688 C 174.433594 25.640625 170.054688 24.171875 165.535156 24.171875 C 164.605469 24.171875 163.679688 24.230469 162.753906 24.355469 L 144.15625 26.832031 C 138.664062 27.5625 133.792969 30.382812 130.433594 34.78125 C 127.070312 39.175781 125.621094 44.613281 126.347656 50.101562 Z M 126.347656 50.101562 " fill-opacity="1" fill-rule="nonzero"/><path fill="#5c0000" d="M 225.4375 55.847656 C 224.6875 55.28125 223.984375 54.664062 223.3125 54.019531 C 223.6875 54.351562 224.953125 55.4375 225.4375 55.847656 Z M 225.4375 55.847656 " fill-opacity="1" fill-rule="nonzero"/><path fill="#5c0000" d="M 186.007812 41.980469 C 186.023438 42.097656 186.039062 42.214844 186.058594 42.324219 L 186.039062 42.148438 C 186.03125 42.089844 186.023438 42.039062 186.007812 41.980469 Z M 186.007812 41.980469 " fill-opacity="1" fill-rule="nonzero"/><path fill="#0096f0" d="M 162.054688 259.9375 C 162.054688 262.363281 163.390625 264.683594 165.691406 265.835938 L 229.402344 297.878906 C 231.3125 298.832031 233.496094 299.097656 235.582031 298.609375 L 248.449219 295.625 C 251.125 295 253.375 293.214844 254.582031 290.753906 L 299.859375 198.59375 C 300.632812 197.03125 300.824219 195.328125 300.519531 193.734375 C 300.277344 192.449219 299.71875 191.246094 298.875 190.222656 C 298.226562 189.429688 297.410156 188.75 296.433594 188.25 L 226.886719 152.472656 C 225.527344 151.765625 223.859375 152.421875 223.324219 153.859375 L 221.015625 160.121094 L 211.042969 163.792969 L 207.75 161.984375 C 206.433594 161.265625 204.789062 161.824219 204.1875 163.191406 L 162.609375 257.273438 C 162.230469 258.140625 162.046875 259.042969 162.054688 259.9375 Z M 162.054688 259.9375 " fill-opacity="1" fill-rule="nonzero"/><path fill="#ffffff" d="M 162.054688 259.9375 C 162.054688 262.363281 163.390625 264.683594 165.691406 265.835938 L 165.816406 265.902344 C 165.902344 265.359375 166.058594 264.824219 166.292969 264.292969 L 207.867188 170.210938 C 208.472656 168.84375 210.117188 168.285156 211.433594 169.007812 L 214.726562 170.8125 L 224.699219 167.140625 L 227.007812 160.878906 C 227.542969 159.441406 229.210938 158.785156 230.570312 159.492188 L 300.117188 195.269531 C 300.292969 195.359375 300.46875 195.460938 300.640625 195.570312 C 300.675781 194.953125 300.632812 194.335938 300.523438 193.734375 C 300.28125 192.449219 299.71875 191.246094 298.875 190.226562 C 298.226562 189.433594 297.414062 188.75 296.4375 188.25 L 226.890625 152.472656 C 225.53125 151.765625 223.859375 152.421875 223.324219 153.859375 L 221.015625 160.125 L 211.042969 163.792969 L 207.753906 161.988281 C 206.4375 161.265625 204.789062 161.824219 204.1875 163.191406 L 162.613281 257.273438 C 162.230469 258.140625 162.046875 259.042969 162.054688 259.9375 Z M 162.054688 259.9375 " fill-opacity="0.6" fill-rule="nonzero"/><path fill="#5c0000" d="M 233.519531 301.050781 C 234.378906 301.050781 235.238281 300.953125 236.082031 300.757812 L 248.953125 297.769531 C 252.285156 296.992188 255.058594 294.789062 256.5625 291.726562 L 301.839844 199.566406 C 302.800781 197.625 303.09375 195.464844 302.6875 193.328125 C 302.121094 190.285156 300.210938 187.71875 297.449219 186.292969 L 227.902344 150.511719 C 226.691406 149.886719 225.265625 149.8125 223.996094 150.308594 C 222.730469 150.800781 221.730469 151.816406 221.261719 153.09375 L 219.300781 158.40625 L 211.226562 161.378906 L 208.8125 160.054688 C 207.644531 159.417969 206.257812 159.296875 204.996094 159.722656 C 203.738281 160.148438 202.707031 161.089844 202.171875 162.304688 L 160.597656 256.386719 C 158.703125 260.683594 160.503906 265.695312 164.703125 267.804688 L 228.414062 299.84375 C 230.007812 300.644531 231.761719 301.050781 233.519531 301.050781 Z M 225.722656 154.390625 C 225.769531 154.390625 225.824219 154.398438 225.878906 154.429688 L 295.425781 190.210938 C 296.96875 191.007812 298.035156 192.4375 298.355469 194.140625 C 298.582031 195.335938 298.417969 196.539062 297.882812 197.621094 L 252.601562 289.785156 C 251.683594 291.65625 249.988281 293.003906 247.949219 293.480469 L 235.085938 296.464844 C 233.511719 296.832031 231.84375 296.632812 230.390625 295.90625 L 166.683594 263.867188 C 164.585938 262.816406 163.683594 260.308594 164.632812 258.164062 L 206.207031 164.082031 C 206.257812 163.964844 206.347656 163.914062 206.414062 163.894531 C 206.480469 163.871094 206.582031 163.859375 206.691406 163.917969 L 209.984375 165.726562 C 210.546875 166.03125 211.210938 166.082031 211.808594 165.863281 L 221.78125 162.191406 C 222.386719 161.96875 222.863281 161.492188 223.089844 160.886719 L 225.398438 154.617188 C 225.441406 154.496094 225.53125 154.441406 225.597656 154.414062 C 225.628906 154.402344 225.671875 154.390625 225.722656 154.390625 Z M 225.722656 154.390625 " fill-opacity="1" fill-rule="nonzero"/><path fill="#ffffff" d="M 211.042969 163.796875 L 280.828125 201.058594 C 281.34375 201.335938 281.957031 201.34375 282.484375 201.089844 L 288.351562 198.207031 C 289.683594 197.550781 289.703125 195.65625 288.382812 194.972656 L 221.015625 160.125 Z M 211.042969 163.796875 " fill-opacity="1" fill-rule="nonzero"/><path fill="#5c0000" d="M 281.683594 203.472656 C 282.289062 203.472656 282.898438 203.335938 283.457031 203.0625 L 289.324219 200.179688 C 290.691406 199.507812 291.554688 198.144531 291.566406 196.621094 C 291.585938 195.097656 290.753906 193.71875 289.398438 193.015625 L 222.03125 158.167969 C 221.480469 157.882812 220.835938 157.839844 220.253906 158.058594 L 210.28125 161.726562 C 209.46875 162.027344 208.90625 162.777344 208.84375 163.640625 C 208.785156 164.507812 209.238281 165.328125 210.003906 165.734375 L 279.789062 203 C 280.378906 203.316406 281.03125 203.472656 281.683594 203.472656 Z M 286.679688 196.570312 L 281.691406 199.019531 L 216.414062 164.164062 L 220.867188 162.527344 Z M 286.679688 196.570312 " fill-opacity="1" fill-rule="nonzero"/><path fill="#5c0000" d="M 288.351562 200.40625 C 288.730469 200.40625 289.113281 200.3125 289.464844 200.105469 L 300.875 193.449219 C 301.925781 192.835938 302.28125 191.488281 301.667969 190.4375 C 301.054688 189.386719 299.703125 189.03125 298.652344 189.644531 L 287.238281 196.300781 C 286.1875 196.914062 285.832031 198.265625 286.449219 199.316406 C 286.855469 200.015625 287.59375 200.40625 288.351562 200.40625 Z M 288.351562 200.40625 " fill-opacity="1" fill-rule="nonzero"/><path fill="#5c0000" d="M 233.144531 301.054688 C 233.960938 301.054688 234.746094 300.597656 235.128906 299.816406 L 282.8125 202.023438 C 283.34375 200.929688 282.890625 199.613281 281.796875 199.078125 C 280.699219 198.546875 279.382812 199 278.847656 200.09375 L 231.164062 297.886719 C 230.632812 298.980469 231.085938 300.296875 232.183594 300.832031 C 232.492188 300.984375 232.820312 301.054688 233.144531 301.054688 Z M 233.144531 301.054688 " fill-opacity="1" fill-rule="nonzero"/><path fill="#ffffff" d="M 257.152344 203.496094 L 212.324219 181.1875 L 200.003906 205.894531 L 244.832031 228.203125 Z M 257.152344 203.496094 " fill-opacity="1" fill-rule="nonzero"/><path fill="#5c0000" d="M 244.832031 230.035156 C 245.507812 230.035156 246.15625 229.660156 246.476562 229.015625 L 258.796875 204.3125 C 259.015625 203.875 259.050781 203.371094 258.894531 202.910156 C 258.742188 202.445312 258.40625 202.066406 257.972656 201.847656 L 213.144531 179.539062 C 212.238281 179.085938 211.136719 179.457031 210.683594 180.363281 L 198.363281 205.070312 C 198.144531 205.507812 198.109375 206.011719 198.265625 206.472656 C 198.421875 206.933594 198.753906 207.316406 199.1875 207.53125 L 244.015625 229.839844 C 244.277344 229.972656 244.554688 230.035156 244.832031 230.035156 Z M 254.6875 204.316406 L 244.007812 225.738281 L 202.472656 205.066406 L 213.152344 183.644531 Z M 254.6875 204.316406 " fill-opacity="1" fill-rule="nonzero"/><path fill="#5c0000" d="M 162.054688 262.355469 C 162.054688 264.777344 163.390625 267.097656 165.691406 268.25 L 229.402344 300.292969 C 231.3125 301.25 233.496094 301.511719 235.582031 301.027344 L 248.449219 298.039062 C 251.125 297.414062 253.375 295.628906 254.582031 293.171875 L 299.859375 201.011719 C 300.632812 199.445312 300.824219 197.742188 300.519531 196.148438 C 300.277344 194.867188 299.71875 193.660156 298.875 192.640625 L 262.828125 216.671875 C 228.875 290.878906 176.898438 270.234375 162.054688 262.355469 Z M 162.054688 262.355469 " fill-opacity="0.2" fill-rule="nonzero"/><path fill="#58da3f" d="M 263.894531 237.765625 C 263.894531 237.765625 279.714844 255.9375 295.3125 237.765625 C 304.078125 227.546875 302.785156 215.261719 300.375 207.121094 C 298.792969 201.765625 296.726562 198.207031 296.726562 198.207031 L 289.636719 209.207031 L 269.792969 209.207031 C 269.792969 209.207031 271.925781 217.464844 279.246094 221.011719 L 265.070312 221.011719 C 265.070312 221.011719 269.324219 231.628906 275.46875 233.984375 L 264.164062 237.679688 Z M 263.894531 237.765625 " fill-opacity="1" fill-rule="nonzero"/><path fill="#5c0000" d="M 263.894531 240.179688 C 263.894531 240.179688 279.714844 258.355469 295.3125 240.179688 C 304.078125 229.960938 302.785156 217.679688 300.375 209.535156 C 296.972656 222.414062 287.667969 244.257812 264.164062 240.09375 Z M 263.894531 240.179688 " fill-opacity="0.2" fill-rule="nonzero"/><path fill="#5c0000" d="M 280.234375 248.042969 C 280.257812 248.042969 280.277344 248.042969 280.300781 248.042969 C 286.355469 248.019531 291.964844 245.042969 296.980469 239.199219 C 312.355469 221.277344 299.203125 198.078125 298.632812 197.101562 C 298.25 196.4375 297.546875 196.019531 296.777344 196.003906 C 296.019531 195.976562 295.289062 196.367188 294.871094 197.011719 L 288.4375 207.003906 L 269.796875 207.003906 C 269.113281 207.003906 268.472656 207.320312 268.054688 207.859375 C 267.636719 208.398438 267.492188 209.097656 267.660156 209.757812 C 267.730469 210.027344 268.980469 214.726562 272.71875 218.804688 L 265.070312 218.804688 C 264.339844 218.804688 263.65625 219.167969 263.246094 219.773438 C 262.832031 220.378906 262.75 221.148438 263.023438 221.824219 C 263.390625 222.742188 266.082031 229.21875 270.472656 233.300781 L 263.203125 235.671875 C 262.5 235.898438 261.960938 236.464844 261.761719 237.175781 C 261.566406 237.886719 261.738281 238.652344 262.226562 239.210938 C 262.542969 239.570312 270.039062 248.042969 280.234375 248.042969 Z M 296.441406 202.71875 C 299.242188 209.386719 303.765625 224.523438 293.632812 236.332031 C 289.496094 241.152344 285.015625 243.613281 280.3125 243.636719 C 280.285156 243.636719 280.257812 243.636719 280.234375 243.636719 C 275.164062 243.636719 270.75 240.839844 268.121094 238.703125 L 276.148438 236.082031 C 277.039062 235.792969 277.644531 234.976562 277.667969 234.046875 C 277.695312 233.113281 277.128906 232.269531 276.257812 231.933594 C 273.132812 230.734375 270.285156 226.476562 268.546875 223.210938 L 279.246094 223.210938 C 280.273438 223.210938 281.164062 222.503906 281.394531 221.503906 C 281.625 220.5 281.132812 219.472656 280.207031 219.027344 C 276.414062 217.191406 274.191406 213.816406 273.019531 211.414062 L 289.640625 211.414062 C 290.390625 211.414062 291.085938 211.03125 291.492188 210.402344 Z M 296.441406 202.71875 " fill-opacity="1" fill-rule="nonzero"/><path fill="#58da3f" d="M 149.390625 205.902344 C 149.390625 205.902344 161.136719 259.183594 214.902344 257.5625 C 214.902344 257.5625 231.601562 289.917969 254.589844 267.890625 C 254.589844 267.890625 268.132812 262.863281 257.742188 254.675781 C 257.742188 254.675781 273.488281 246.6875 250.496094 237.148438 C 250.496094 237.148438 251.507812 234.390625 254.167969 232.179688 C 254.265625 232.097656 254.359375 232.015625 254.453125 231.945312 C 255.636719 231.011719 255.300781 229.132812 253.84375 228.734375 C 248.863281 227.386719 239.875 226.40625 231.355469 232.964844 C 231.355469 232.964844 215.144531 216.136719 196.59375 214.007812 C 196.59375 214.007812 190.4375 193.902344 178.308594 187.140625 C 177.316406 186.589844 176.289062 186.121094 175.214844 185.769531 Z M 149.390625 205.902344 " fill-opacity="1" fill-rule="nonzero"/><path fill="#ffffff" d="M 178.3125 187.140625 C 178.3125 187.140625 189.230469 205.285156 189.230469 220.394531 C 189.230469 220.394531 207.019531 219.074219 231.351562 240.496094 C 231.351562 240.496094 241.617188 232.007812 254.171875 232.179688 C 254.265625 232.097656 254.363281 232.015625 254.457031 231.945312 C 255.640625 231.011719 255.300781 229.132812 253.847656 228.734375 C 248.867188 227.386719 239.875 226.40625 231.359375 232.964844 C 231.359375 232.964844 215.144531 216.136719 196.597656 214.007812 C 196.59375 214.007812 190.4375 193.902344 178.3125 187.140625 Z M 178.3125 187.140625 " fill-opacity="0.6" fill-rule="nonzero"/><path fill="#5c0000" d="M 149.390625 207.566406 C 149.390625 207.566406 161.136719 260.847656 214.902344 259.226562 C 214.902344 259.226562 231.601562 291.585938 254.589844 269.558594 C 254.589844 269.558594 266.773438 265.035156 259.160156 257.574219 C 237.699219 279.328125 218.777344 249.371094 218.777344 249.371094 C 173.671875 254.320312 154.742188 220.046875 149.398438 207.558594 Z M 149.390625 207.566406 " fill-opacity="0.2" fill-rule="nonzero"/><path fill="#5c0000" d="M 148.605469 206.078125 C 148.886719 208.023438 149.3125 209.875 149.820312 211.738281 C 150.316406 213.59375 150.929688 215.417969 151.585938 217.230469 C 152.929688 220.839844 154.558594 224.351562 156.46875 227.722656 C 160.308594 234.445312 165.296875 240.589844 171.277344 245.675781 C 174.292969 248.183594 177.542969 250.414062 180.972656 252.34375 C 184.441406 254.203125 188.082031 255.722656 191.824219 256.921875 C 192.765625 257.195312 193.71875 257.433594 194.664062 257.691406 L 196.085938 258.066406 L 197.527344 258.347656 L 200.410156 258.898438 L 203.320312 259.242188 C 205.253906 259.527344 207.207031 259.53125 209.144531 259.652344 C 210.117188 259.726562 211.085938 259.65625 212.058594 259.648438 L 214.964844 259.574219 L 213.113281 258.484375 L 213.117188 258.492188 C 213.664062 259.515625 214.195312 260.394531 214.78125 261.304688 C 215.363281 262.203125 215.960938 263.085938 216.597656 263.945312 C 217.863281 265.667969 219.234375 267.320312 220.738281 268.871094 C 223.738281 271.949219 227.292969 274.703125 231.546875 276.300781 C 233.660156 277.101562 235.949219 277.566406 238.25 277.570312 C 240.550781 277.589844 242.832031 277.171875 244.980469 276.464844 C 249.242188 274.921875 252.882812 272.308594 255.980469 269.347656 L 255.289062 269.78125 C 255.753906 269.601562 256.097656 269.449219 256.488281 269.265625 C 256.863281 269.085938 257.234375 268.894531 257.601562 268.695312 C 258.332031 268.292969 259.046875 267.84375 259.738281 267.328125 C 260.433594 266.808594 261.105469 266.21875 261.71875 265.511719 C 262.332031 264.808594 262.894531 263.96875 263.261719 262.972656 C 263.632812 261.980469 263.761719 260.832031 263.597656 259.765625 C 263.445312 258.6875 263.027344 257.734375 262.535156 256.929688 C 261.542969 255.296875 260.269531 254.125 258.984375 253.101562 L 258.652344 256.472656 C 259.007812 256.289062 259.238281 256.148438 259.515625 255.976562 C 259.78125 255.808594 260.039062 255.636719 260.292969 255.457031 C 260.804688 255.101562 261.292969 254.707031 261.765625 254.28125 C 262.710938 253.425781 263.59375 252.40625 264.238281 251.109375 C 264.898438 249.839844 265.175781 248.1875 264.890625 246.679688 C 264.621094 245.15625 263.878906 243.886719 263.0625 242.875 C 262.230469 241.859375 261.316406 240.988281 260.355469 240.269531 C 259.402344 239.523438 258.414062 238.890625 257.414062 238.300781 C 255.40625 237.128906 253.34375 236.175781 251.265625 235.296875 L 252.382812 237.847656 L 252.53125 237.515625 C 252.59375 237.382812 252.660156 237.25 252.730469 237.117188 C 252.871094 236.851562 253.023438 236.585938 253.1875 236.328125 C 253.519531 235.8125 253.886719 235.320312 254.289062 234.867188 C 254.691406 234.410156 255.125 233.984375 255.59375 233.613281 L 255.859375 233.386719 C 255.992188 233.265625 256.128906 233.144531 256.246094 233 C 256.488281 232.722656 256.699219 232.398438 256.847656 232.054688 C 257.15625 231.367188 257.25 230.597656 257.132812 229.863281 C 257.019531 229.132812 256.679688 228.417969 256.144531 227.855469 C 255.878906 227.574219 255.570312 227.332031 255.234375 227.148438 C 255.066406 227.0625 254.898438 226.972656 254.722656 226.914062 C 254.5625 226.855469 254.335938 226.78125 254.28125 226.773438 C 253.539062 226.578125 252.789062 226.40625 252.035156 226.261719 C 250.527344 225.972656 248.996094 225.808594 247.453125 225.765625 C 245.914062 225.714844 244.363281 225.78125 242.828125 226.003906 C 242.054688 226.089844 241.300781 226.269531 240.539062 226.414062 C 239.789062 226.617188 239.027344 226.78125 238.292969 227.042969 C 235.339844 228.007812 232.566406 229.5 230.128906 231.371094 L 232.808594 231.570312 C 231.535156 230.292969 230.296875 229.15625 228.984375 228.03125 C 227.6875 226.902344 226.351562 225.824219 224.992188 224.777344 C 222.265625 222.691406 219.40625 220.769531 216.433594 219.023438 C 213.449219 217.28125 210.304688 215.800781 207.050781 214.546875 C 203.777344 213.328125 200.339844 212.492188 196.832031 212.011719 L 198.527344 213.421875 C 197.648438 210.316406 196.519531 207.453125 195.160156 204.613281 C 193.808594 201.785156 192.230469 199.050781 190.402344 196.472656 C 188.5625 193.902344 186.46875 191.460938 183.976562 189.425781 C 182.734375 188.40625 181.414062 187.472656 179.976562 186.726562 C 178.535156 186 177.027344 185.386719 175.457031 185.054688 C 175.050781 184.96875 174.648438 185.230469 174.5625 185.636719 C 174.488281 185.984375 174.667969 186.324219 174.972656 186.472656 L 174.984375 186.476562 C 177.628906 187.757812 179.886719 189.585938 181.863281 191.695312 C 182.363281 192.214844 182.828125 192.773438 183.304688 193.316406 C 183.757812 193.886719 184.214844 194.449219 184.640625 195.042969 C 185.519531 196.203125 186.324219 197.421875 187.09375 198.671875 C 188.640625 201.160156 189.992188 203.785156 191.253906 206.460938 C 191.875 207.800781 192.480469 209.152344 193.050781 210.519531 C 193.636719 211.867188 194.175781 213.289062 194.675781 214.601562 C 194.917969 215.375 195.578125 215.898438 196.332031 216.007812 L 196.371094 216.011719 C 199.507812 216.449219 202.625 217.191406 205.648438 218.320312 C 208.652344 219.480469 211.59375 220.859375 214.410156 222.503906 C 217.222656 224.152344 219.9375 225.980469 222.539062 227.972656 C 223.839844 228.96875 225.113281 230 226.351562 231.070312 C 227.582031 232.128906 228.816406 233.265625 229.910156 234.363281 L 229.929688 234.386719 C 230.65625 235.113281 231.796875 235.171875 232.589844 234.5625 C 234.695312 232.945312 237.046875 231.691406 239.542969 230.871094 C 240.160156 230.648438 240.804688 230.511719 241.4375 230.339844 C 242.082031 230.21875 242.722656 230.058594 243.378906 229.992188 C 244.679688 229.796875 246.007812 229.746094 247.332031 229.785156 C 248.65625 229.824219 249.980469 229.964844 251.292969 230.214844 C 251.945312 230.34375 252.59375 230.488281 253.242188 230.660156 C 253.359375 230.6875 253.300781 230.683594 253.308594 230.679688 C 253.308594 230.671875 253.292969 230.675781 253.28125 230.667969 C 253.265625 230.652344 253.238281 230.636719 253.21875 230.613281 C 253.179688 230.570312 253.167969 230.53125 253.160156 230.507812 C 253.15625 230.480469 253.15625 230.449219 253.175781 230.414062 C 253.183594 230.398438 253.195312 230.378906 253.203125 230.371094 C 253.210938 230.371094 253.207031 230.363281 253.210938 230.359375 C 253.199219 230.371094 253.242188 230.339844 253.1875 230.382812 L 253.066406 230.484375 C 252.414062 231.003906 251.820312 231.589844 251.269531 232.203125 C 250.726562 232.824219 250.234375 233.480469 249.792969 234.171875 C 249.570312 234.519531 249.367188 234.875 249.171875 235.242188 C 249.074219 235.425781 248.980469 235.613281 248.886719 235.804688 C 248.792969 236.015625 248.71875 236.164062 248.609375 236.457031 C 248.226562 237.457031 248.707031 238.574219 249.683594 238.992188 L 249.726562 239.011719 C 251.679688 239.839844 253.597656 240.730469 255.375 241.765625 C 257.132812 242.800781 258.808594 244.003906 259.910156 245.371094 C 260.460938 246.046875 260.828125 246.753906 260.933594 247.398438 C 261.035156 248.039062 260.96875 248.660156 260.625 249.335938 C 260.292969 250.007812 259.742188 250.6875 259.0625 251.296875 C 258.722656 251.605469 258.359375 251.898438 257.972656 252.167969 C 257.78125 252.304688 257.582031 252.4375 257.382812 252.5625 C 257.199219 252.679688 256.957031 252.820312 256.828125 252.886719 L 256.8125 252.894531 C 255.824219 253.40625 255.441406 254.617188 255.953125 255.605469 C 256.089844 255.863281 256.28125 256.089844 256.496094 256.257812 C 257.5625 257.097656 258.515625 258.039062 259.082031 258.996094 C 259.375 259.46875 259.566406 259.933594 259.617188 260.351562 C 259.675781 260.773438 259.636719 261.164062 259.484375 261.585938 C 259.183594 262.425781 258.355469 263.34375 257.332031 264.105469 C 256.816406 264.488281 256.253906 264.84375 255.664062 265.167969 C 255.371094 265.328125 255.070312 265.484375 254.765625 265.625 C 254.472656 265.765625 254.128906 265.917969 253.890625 266.007812 L 253.863281 266.019531 C 253.609375 266.117188 253.382812 266.265625 253.195312 266.441406 C 250.371094 269.148438 247.160156 271.390625 243.671875 272.660156 C 240.171875 273.828125 236.410156 273.886719 232.949219 272.527344 C 229.476562 271.226562 226.34375 268.859375 223.632812 266.066406 C 222.277344 264.667969 221.015625 263.152344 219.847656 261.5625 C 219.261719 260.773438 218.707031 259.953125 218.171875 259.128906 C 217.644531 258.3125 217.117188 257.429688 216.695312 256.644531 L 216.691406 256.636719 C 216.371094 255.972656 215.710938 255.574219 215.015625 255.554688 L 214.84375 255.550781 L 212.085938 255.46875 L 210.707031 255.4375 L 210.019531 255.421875 L 209.332031 255.363281 C 207.511719 255.191406 205.675781 255.132812 203.875 254.804688 L 201.171875 254.394531 L 198.503906 253.820312 L 197.167969 253.539062 L 195.859375 253.167969 C 194.984375 252.914062 194.109375 252.679688 193.242188 252.417969 C 189.804688 251.265625 186.453125 249.875 183.273438 248.148438 C 180.105469 246.394531 177.09375 244.367188 174.285156 242.070312 C 168.65625 237.472656 163.929688 231.796875 159.953125 225.621094 C 156 219.4375 152.667969 212.714844 150.175781 205.730469 L 150.164062 205.691406 C 150.015625 205.273438 149.554688 205.054688 149.132812 205.203125 C 148.761719 205.335938 148.550781 205.703125 148.605469 206.078125 Z M 148.605469 206.078125 " fill-opacity="1" fill-rule="nonzero"/></svg>