<svg xmlns="http://www.w3.org/2000/svg" xmlns:xlink="http://www.w3.org/1999/xlink" width="500" zoomAndPan="magnify" viewBox="0 0 375 374.999991" height="500" preserveAspectRatio="xMidYMid meet" version="1.0"><defs><clipPath id="7759521a03"><path d="M 164.632812 150.28125 L 210.367188 150.28125 L 210.367188 224.78125 L 164.632812 224.78125 Z M 164.632812 150.28125 " clip-rule="nonzero"/></clipPath><clipPath id="52291e009f"><path d="M 181.882812 150.28125 L 193.117188 150.28125 C 197.691406 150.28125 202.082031 152.097656 205.316406 155.332031 C 208.550781 158.566406 210.367188 162.957031 210.367188 167.53125 L 210.367188 207.46875 C 210.367188 212.042969 208.550781 216.433594 205.316406 219.667969 C 202.082031 222.902344 197.691406 224.71875 193.117188 224.71875 L 181.882812 224.71875 C 177.308594 224.71875 172.917969 222.902344 169.683594 219.667969 C 166.449219 216.433594 164.632812 212.042969 164.632812 207.46875 L 164.632812 167.53125 C 164.632812 162.957031 166.449219 158.566406 169.683594 155.332031 C 172.917969 152.097656 177.308594 150.28125 181.882812 150.28125 Z M 181.882812 150.28125 " clip-rule="nonzero"/></clipPath><clipPath id="234e4fb930"><path d="M 84 10.027344 L 290 10.027344 L 290 82 L 84 82 Z M 84 10.027344 " clip-rule="nonzero"/></clipPath><clipPath id="a05c71b9d5"><path d="M 105 295 L 279 295 L 279 364.777344 L 105 364.777344 Z M 105 295 " clip-rule="nonzero"/></clipPath><clipPath id="621aa3bfac"><path d="M 105 319 L 149 319 L 149 364.777344 L 105 364.777344 Z M 105 319 " clip-rule="nonzero"/></clipPath><clipPath id="22d25e2ae1"><path d="M 105 332 L 279 332 L 279 364.777344 L 105 364.777344 Z M 105 332 " clip-rule="nonzero"/></clipPath></defs><g clip-path="url(#7759521a03)"><g clip-path="url(#52291e009f)"><path fill="#65a1b7" d="M 164.632812 150.28125 L 210.367188 150.28125 L 210.367188 224.78125 L 164.632812 224.78125 Z M 164.632812 150.28125 " fill-opacity="1" fill-rule="nonzero"/></g></g><path fill="#000000" d="M 161.492188 279.105469 C 161.359375 279.09375 161.675781 280 161.699219 280.089844 C 161.871094 280.683594 162.03125 281.273438 162.160156 281.878906 C 162.582031 283.664062 162.976562 285.476562 163.382812 287.265625 C 164.1875 290.707031 164.9375 294.164062 165.621094 297.632812 C 165.921875 299.167969 166.027344 301.335938 166.828125 302.71875 C 167.933594 304.648438 172.234375 304.820312 174.050781 305.070312 C 180.363281 305.921875 186.808594 306.976562 193.199219 306.566406 C 196.75 306.332031 200.300781 305.804688 203.601562 304.453125 C 204.546875 304.058594 205.957031 303.664062 206.46875 302.679688 C 207.058594 301.535156 206.71875 299.839844 206.625 298.644531 C 206.441406 296.003906 206.179688 293.363281 205.917969 290.722656 C 205.601562 287.527344 205.285156 284.335938 204.878906 281.15625 C 204.628906 279.25 204.390625 277.09375 203.007812 275.625 C 200.261719 272.691406 194.777344 273.585938 191.226562 273.703125 C 184.375 273.929688 177.574219 274.675781 170.828125 275.898438 C 167.960938 276.425781 164.398438 276.765625 161.726562 278.09375 " fill-opacity="1" fill-rule="evenodd"/><path fill="#000000" d="M 190.238281 307.972656 C 185.425781 307.972656 180.613281 307.304688 175.917969 306.660156 L 173.878906 306.382812 C 173.628906 306.34375 173.351562 306.316406 173.023438 306.277344 C 170.617188 306.015625 166.972656 305.609375 165.6875 303.375 C 164.976562 302.140625 164.738281 300.550781 164.527344 299.15625 C 164.460938 298.710938 164.398438 298.277344 164.316406 297.882812 C 163.660156 294.582031 162.9375 291.195312 162.09375 287.554688 C 161.910156 286.738281 161.726562 285.9375 161.542969 285.125 C 161.320312 284.136719 161.097656 283.152344 160.871094 282.167969 C 160.742188 281.589844 160.582031 281.011719 160.425781 280.445312 C 160.148438 279.617188 159.9375 278.933594 160.410156 278.316406 C 160.320312 277.75 160.597656 277.171875 161.121094 276.910156 C 163.421875 275.753906 166.265625 275.292969 168.777344 274.902344 C 169.394531 274.796875 170 274.703125 170.578125 274.597656 C 177.429688 273.351562 184.359375 272.601562 191.171875 272.378906 C 191.710938 272.363281 192.277344 272.324219 192.882812 272.285156 C 196.589844 272.0625 201.222656 271.773438 203.96875 274.703125 C 205.601562 276.4375 205.917969 278.855469 206.164062 280.800781 L 206.191406 280.972656 C 206.574219 283.875 206.863281 286.832031 207.152344 289.695312 L 207.246094 290.578125 C 207.546875 293.53125 207.785156 295.988281 207.96875 298.539062 C 207.980469 298.75 208.007812 298.984375 208.035156 299.234375 C 208.164062 300.46875 208.324219 302.007812 207.664062 303.28125 C 206.996094 304.558594 205.585938 305.109375 204.546875 305.503906 L 204.113281 305.675781 C 201.140625 306.894531 197.710938 307.59375 193.289062 307.882812 C 192.277344 307.945312 191.253906 307.972656 190.238281 307.972656 Z M 162.820312 279.199219 C 162.859375 279.328125 162.910156 279.488281 162.9375 279.578125 C 162.9375 279.589844 162.976562 279.710938 162.988281 279.734375 C 163.160156 280.339844 163.320312 280.957031 163.464844 281.574219 C 163.699219 282.5625 163.921875 283.558594 164.148438 284.558594 C 164.332031 285.359375 164.503906 286.160156 164.699219 286.976562 C 165.554688 290.65625 166.289062 294.058594 166.949219 297.382812 C 167.027344 297.816406 167.105469 298.289062 167.171875 298.789062 C 167.34375 299.957031 167.539062 301.273438 168 302.074219 C 168.617188 303.152344 171.917969 303.519531 173.339844 303.664062 C 173.683594 303.703125 173.996094 303.742188 174.261719 303.769531 L 176.300781 304.042969 C 181.847656 304.820312 187.582031 305.609375 193.132812 305.253906 C 197.25 304.992188 200.417969 304.347656 203.113281 303.242188 L 203.601562 303.046875 C 204.207031 302.808594 205.113281 302.46875 205.3125 302.074219 C 205.601562 301.507812 205.496094 300.40625 205.390625 299.523438 C 205.363281 299.25 205.335938 298.984375 205.3125 298.75 C 205.128906 296.226562 204.890625 293.78125 204.601562 290.851562 L 204.507812 289.972656 C 204.21875 287.132812 203.929688 284.191406 203.5625 281.324219 L 203.535156 281.140625 C 203.3125 279.421875 203.074219 277.632812 202.035156 276.515625 C 200.128906 274.492188 196.195312 274.730469 193.039062 274.925781 C 192.410156 274.964844 191.804688 275.003906 191.253906 275.019531 C 184.570312 275.242188 177.773438 275.976562 171.039062 277.199219 C 170.445312 277.304688 169.828125 277.410156 169.183594 277.515625 C 167.054688 277.855469 164.671875 278.25 162.792969 279.054688 C 162.820312 279.09375 162.820312 279.144531 162.820312 279.199219 Z M 162.820312 279.199219 " fill-opacity="1" fill-rule="nonzero"/><path fill="#ff431d" d="M 188.148438 280.957031 C 166.554688 289.40625 140.222656 281.117188 121.128906 267.921875 C 74.507812 235.730469 50.753906 148.152344 82.121094 99.746094 C 88.550781 89.828125 99.914062 81.417969 110.855469 76.449219 C 129.085938 68.171875 177.3125 68.289062 186.1875 77.84375 C 186.414062 78.09375 186.636719 78.328125 186.847656 78.578125 C 187.253906 78.078125 187.675781 77.59375 188.109375 77.121094 C 196.984375 67.566406 245.210938 67.449219 263.441406 75.726562 C 274.382812 80.695312 285.746094 89.089844 292.175781 99.023438 C 323.554688 147.429688 299.792969 235.019531 253.167969 267.199219 C 234.664062 279.984375 209.347656 288.171875 188.148438 280.957031 Z M 188.148438 280.957031 " fill-opacity="1" fill-rule="evenodd"/><path fill="#000000" d="M 169.210938 285.703125 C 151.417969 285.703125 133.371094 277.988281 120.367188 269.015625 C 97.785156 253.417969 79.359375 223.972656 71.085938 190.226562 C 62.5 155.238281 66.117188 121.992188 81.003906 99.023438 C 87.027344 89.734375 97.980469 80.839844 110.304688 75.242188 C 128.324219 67.054688 176.417969 66.59375 186.808594 76.582031 C 186.914062 76.464844 187.03125 76.332031 187.136719 76.214844 C 196.75 65.859375 245.765625 66.242188 263.992188 74.519531 C 276.316406 80.117188 287.269531 89 293.292969 98.300781 C 308.183594 121.285156 311.796875 154.527344 303.210938 189.503906 C 294.925781 223.25 276.511719 252.695312 253.933594 268.292969 C 236.953125 280.011719 210.820312 289.8125 188.175781 282.378906 C 182.058594 284.691406 175.640625 285.703125 169.210938 285.703125 Z M 149.707031 71.839844 C 135.226562 71.839844 120.011719 73.742188 111.394531 77.644531 C 99.519531 83.035156 88.984375 91.5625 83.226562 100.457031 C 51.019531 150.164062 77.6875 236.320312 121.878906 266.832031 C 139.144531 278.75 165.488281 288.394531 187.675781 279.722656 C 187.964844 279.605469 188.292969 279.605469 188.582031 279.710938 C 210.402344 287.121094 235.875 277.554688 252.445312 266.109375 C 296.636719 235.597656 323.304688 149.441406 291.097656 99.734375 C 285.335938 90.839844 274.804688 82.324219 262.929688 76.921875 C 244.738281 68.671875 197.144531 69.367188 189.109375 78.015625 C 188.6875 78.460938 188.292969 78.933594 187.898438 79.40625 C 187.648438 79.710938 187.28125 79.894531 186.886719 79.90625 C 186.492188 79.894531 186.125 79.75 185.859375 79.445312 C 185.664062 79.210938 185.4375 78.972656 185.230469 78.738281 C 180.992188 74.191406 165.804688 71.839844 149.707031 71.839844 Z M 149.707031 71.839844 " fill-opacity="1" fill-rule="nonzero"/><path fill="#000000" d="M 187.148438 11.710938 C 187.253906 11.617188 187.359375 11.527344 187.464844 11.433594 C 187.464844 11.511719 189.253906 11.777344 189.332031 11.789062 C 193.84375 12.644531 198.328125 13.601562 202.824219 14.523438 C 203.863281 14.734375 204.96875 14.96875 206.007812 15.191406 C 225.628906 19.449219 245.003906 24.890625 264.414062 29.976562 C 270.199219 31.484375 281.101562 34.167969 288.429688 36.414062 C 288.613281 36.464844 277.027344 41.761719 275.238281 42.640625 C 264.320312 48.027344 252.695312 52.996094 243.226562 57.816406 L 242.226562 70.890625 C 238.691406 72.785156 224.328125 75.714844 219.554688 76.609375 C 210.414062 78.328125 204.152344 79.234375 197.839844 79.65625 C 196.894531 79.789062 195.882812 79.878906 194.816406 79.894531 C 192.015625 79.945312 189.488281 79.972656 187.136719 79.972656 C 184.78125 79.972656 182.257812 79.945312 179.457031 79.894531 C 178.390625 79.878906 177.390625 79.789062 176.445312 79.65625 C 170.117188 79.234375 163.859375 78.328125 154.730469 76.609375 C 149.941406 75.703125 135.59375 72.769531 132.058594 70.890625 L 131.058594 57.816406 C 121.601562 53.007812 109.976562 48.027344 99.046875 42.640625 C 97.246094 41.761719 85.660156 36.464844 85.855469 36.414062 C 93.179688 34.167969 104.085938 31.5 109.871094 29.976562 C 129.296875 24.890625 148.65625 19.4375 168.277344 15.191406 C 169.316406 14.96875 170.421875 14.746094 171.460938 14.523438 C 175.957031 13.601562 180.441406 12.644531 184.953125 11.789062 C 185.042969 11.777344 186.820312 11.511719 186.820312 11.433594 C 186.9375 11.527344 187.042969 11.617188 187.148438 11.710938 Z M 187.148438 11.710938 " fill-opacity="1" fill-rule="evenodd"/><g clip-path="url(#234e4fb930)"><path fill="#000000" d="M 187.308594 81.3125 C 187.214844 81.3125 187.109375 81.3125 187.003906 81.3125 C 184.691406 81.3125 182.203125 81.285156 179.441406 81.234375 C 178.335938 81.207031 177.273438 81.128906 176.257812 80.984375 C 170.132812 80.578125 163.988281 79.722656 154.480469 77.921875 C 153.71875 77.777344 135.726562 74.375 131.425781 72.0625 C 131.03125 71.851562 130.769531 71.445312 130.730469 70.996094 L 129.78125 58.671875 C 124.929688 56.226562 119.5625 53.746094 113.910156 51.144531 C 108.820312 48.792969 103.546875 46.359375 98.441406 43.851562 C 97.769531 43.523438 95.707031 42.5625 93.40625 41.5 C 84.4375 37.332031 84.4375 37.332031 84.515625 36.347656 C 84.554688 35.796875 84.921875 35.335938 85.449219 35.164062 C 91.078125 33.429688 98.625 31.5 104.703125 29.949219 C 106.515625 29.488281 108.160156 29.070312 109.515625 28.714844 C 114.011719 27.542969 118.5 26.335938 122.996094 25.140625 C 137.6875 21.222656 152.875 17.175781 167.988281 13.90625 C 169.039062 13.683594 170.144531 13.445312 171.195312 13.234375 L 175.074219 12.433594 C 178.285156 11.761719 181.492188 11.105469 184.714844 10.488281 L 184.941406 10.449219 C 185.808594 10.316406 186.164062 10.253906 186.320312 10.210938 C 186.320312 10.210938 186.320312 10.210938 186.332031 10.210938 C 186.621094 10.09375 186.953125 10.082031 187.253906 10.171875 C 187.492188 10.132812 187.726562 10.160156 187.949219 10.253906 C 188.410156 10.449219 188.765625 10.84375 188.804688 11.34375 C 188.753906 10.671875 188.242188 10.292969 187.9375 10.199219 C 188.015625 10.226562 188.320312 10.277344 189.382812 10.449219 L 189.621094 10.488281 C 192.832031 11.09375 196.039062 11.761719 199.234375 12.421875 L 203.128906 13.222656 C 204.179688 13.433594 205.285156 13.667969 206.324219 13.890625 C 221.433594 17.164062 236.625 21.210938 251.300781 25.125 C 255.800781 26.320312 260.285156 27.519531 264.78125 28.699219 C 266.136719 29.054688 267.765625 29.476562 269.570312 29.9375 C 275.644531 31.484375 283.207031 33.417969 288.847656 35.152344 C 289.375 35.308594 289.742188 35.78125 289.78125 36.335938 C 289.847656 37.332031 289.847656 37.332031 280.917969 41.472656 C 278.605469 42.550781 276.527344 43.507812 275.855469 43.851562 C 270.753906 46.359375 265.492188 48.792969 260.390625 51.144531 C 254.734375 53.757812 249.382812 56.226562 244.515625 58.671875 L 243.570312 70.996094 C 243.53125 71.445312 243.265625 71.851562 242.871094 72.0625 C 238.570312 74.359375 220.578125 77.777344 219.816406 77.921875 C 210.308594 79.722656 204.179688 80.578125 197.945312 80.996094 C 197.039062 81.128906 195.972656 81.21875 194.867188 81.234375 C 192.105469 81.285156 189.621094 81.3125 187.308594 81.3125 Z M 187.148438 78.671875 C 189.476562 78.671875 192.015625 78.644531 194.804688 78.59375 C 195.800781 78.578125 196.761719 78.5 197.65625 78.367188 C 203.878906 77.949219 209.925781 77.09375 219.316406 75.320312 C 226.222656 74.019531 237.230469 71.613281 240.976562 70.023438 L 241.925781 57.714844 C 241.964844 57.253906 242.226562 56.847656 242.648438 56.636719 C 247.722656 54.058594 253.339844 51.457031 259.273438 48.726562 C 264.347656 46.386719 269.59375 43.957031 274.671875 41.460938 C 275.355469 41.117188 277.460938 40.144531 279.800781 39.054688 C 281.328125 38.34375 283.246094 37.453125 284.824219 36.714844 C 279.695312 35.242188 273.59375 33.695312 268.910156 32.484375 C 267.109375 32.023438 265.464844 31.605469 264.113281 31.25 C 259.613281 30.066406 255.117188 28.871094 250.617188 27.675781 C 235.96875 23.773438 220.804688 19.738281 205.757812 16.480469 C 204.71875 16.257812 203.628906 16.035156 202.589844 15.808594 L 198.683594 15.007812 C 195.488281 14.351562 192.304688 13.683594 189.109375 13.078125 L 188.976562 13.050781 C 188.53125 12.984375 188.136719 12.917969 187.804688 12.855469 C 187.410156 13.0625 186.9375 13.0625 186.542969 12.855469 C 186.214844 12.917969 185.820312 12.984375 185.375 13.050781 L 185.230469 13.078125 C 182.046875 13.683594 178.851562 14.339844 175.65625 15.007812 L 171.761719 15.808594 C 170.722656 16.019531 169.632812 16.257812 168.59375 16.480469 C 153.546875 19.738281 138.382812 23.773438 123.71875 27.675781 C 119.222656 28.871094 114.722656 30.066406 110.226562 31.25 C 108.859375 31.605469 107.214844 32.023438 105.398438 32.496094 C 100.46875 33.757812 94.550781 35.269531 89.511719 36.714844 C 91.089844 37.464844 93.035156 38.359375 94.5625 39.066406 C 96.890625 40.144531 98.980469 41.117188 99.652344 41.460938 C 104.730469 43.957031 109.976562 46.386719 115.050781 48.726562 C 120.996094 51.472656 126.597656 54.058594 131.675781 56.636719 C 132.082031 56.847656 132.359375 57.253906 132.398438 57.714844 L 133.347656 70.023438 C 137.09375 71.613281 148.101562 74.007812 155.007812 75.320312 C 164.398438 77.09375 170.445312 77.949219 176.5625 78.355469 C 177.5625 78.5 178.519531 78.578125 179.519531 78.59375 C 182.28125 78.644531 184.769531 78.65625 187.148438 78.671875 Z M 187.148438 78.671875 " fill-opacity="1" fill-rule="nonzero"/></g><path fill="#fff100" d="M 104.019531 110.507812 L 88.882812 110.507812 L 92.667969 69.460938 L 100.230469 69.460938 Z M 104.019531 110.507812 " fill-opacity="1" fill-rule="evenodd"/><path fill="#000000" d="M 104.019531 111.835938 L 88.882812 111.835938 C 88.511719 111.835938 88.15625 111.679688 87.894531 111.402344 C 87.632812 111.125 87.527344 110.757812 87.550781 110.390625 L 91.339844 69.328125 C 91.40625 68.644531 91.972656 68.121094 92.65625 68.121094 L 100.230469 68.121094 C 100.914062 68.121094 101.492188 68.644531 101.546875 69.328125 L 105.332031 110.390625 C 105.371094 110.757812 105.242188 111.125 104.992188 111.402344 C 104.742188 111.679688 104.386719 111.835938 104.019531 111.835938 Z M 90.328125 109.195312 L 102.558594 109.195312 L 99.019531 70.789062 L 93.867188 70.789062 Z M 90.328125 109.195312 " fill-opacity="1" fill-rule="nonzero"/><path fill="#ff431d" d="M 96.457031 62.628906 C 100.125 62.628906 103.097656 65.597656 103.097656 69.261719 C 103.097656 72.929688 100.125 75.898438 96.457031 75.898438 C 92.785156 75.898438 89.816406 72.929688 89.816406 69.261719 C 89.816406 65.597656 92.785156 62.628906 96.457031 62.628906 Z M 96.457031 62.628906 " fill-opacity="1" fill-rule="evenodd"/><path fill="#000000" d="M 96.457031 77.210938 C 92.0625 77.210938 88.488281 73.636719 88.488281 69.25 C 88.488281 64.859375 92.0625 61.289062 96.457031 61.289062 C 100.847656 61.289062 104.425781 64.859375 104.425781 69.25 C 104.414062 73.652344 100.847656 77.210938 96.457031 77.210938 Z M 96.457031 63.953125 C 93.523438 63.953125 91.144531 66.332031 91.144531 69.261719 C 91.144531 72.191406 93.523438 74.570312 96.457031 74.570312 C 99.390625 74.570312 101.769531 72.191406 101.769531 69.261719 C 101.769531 66.332031 99.375 63.953125 96.457031 63.953125 Z M 96.457031 63.953125 " fill-opacity="1" fill-rule="nonzero"/><path fill="#000000" d="M 95.824219 64.152344 C 95.089844 64.152344 94.496094 63.558594 94.496094 62.824219 L 94.496094 41.644531 C 94.496094 40.90625 95.089844 40.316406 95.824219 40.316406 C 96.5625 40.316406 97.152344 40.90625 97.152344 41.644531 L 97.152344 62.835938 C 97.152344 63.558594 96.5625 64.152344 95.824219 64.152344 Z M 95.824219 64.152344 " fill-opacity="1" fill-rule="nonzero"/><path fill="#2dcc7d" d="M 208.597656 296.59375 C 208.613281 296.671875 208.441406 296.59375 208.363281 296.609375 C 207.429688 296.671875 206.496094 296.832031 205.5625 296.9375 C 203.285156 297.171875 200.996094 297.277344 198.722656 297.449219 C 191.398438 297.972656 183.886719 298.15625 176.535156 297.722656 C 173.15625 297.527344 168.078125 296.199219 164.777344 297.171875 C 161.925781 298.027344 161.675781 307.65625 161.464844 310.15625 C 161.410156 310.734375 161.714844 313.492188 161.160156 313.847656 C 160.542969 314.265625 157.28125 312.285156 156.636719 312.074219 C 152.335938 310.71875 147.667969 310.261719 143.183594 310.773438 C 125.613281 312.808594 111.132812 324.136719 107.910156 341.875 C 107.265625 345.460938 106.554688 349.835938 107.515625 353.464844 C 108.265625 356.328125 113.722656 357.496094 116 358.285156 C 125.441406 361.597656 135.199219 363.34375 145.222656 363.382812 C 156.085938 363.421875 167.078125 361.808594 177.523438 358.851562 C 181.347656 357.773438 188.84375 353.976562 192.199219 353.609375 C 193.644531 353.449219 195.960938 354.855469 197.328125 355.25 C 200.667969 356.222656 204.0625 356.933594 207.507812 357.378906 C 220.066406 359.035156 244.09375 359.757812 268.175781 347.539062 C 270.265625 346.472656 274.554688 344.476562 275.84375 342.269531 C 278.617188 337.511719 275.578125 329.457031 273.238281 325.265625 C 266.03125 312.414062 248.410156 305.476562 234.179688 306.777344 C 229.628906 307.183594 225.273438 308.367188 221.078125 310.15625 C 220.25 310.507812 217.09375 312.757812 216.199219 312.453125 C 215.109375 312.074219 214.347656 309.511719 214.015625 308.589844 C 212.664062 304.859375 210.703125 300.035156 208.597656 296.59375 Z M 208.597656 296.59375 " fill-opacity="1" fill-rule="evenodd"/><g clip-path="url(#a05c71b9d5)"><path fill="#000000" d="M 145.589844 364.722656 C 145.472656 364.722656 145.339844 364.722656 145.222656 364.722656 C 135.238281 364.683594 125.269531 362.949219 115.566406 359.546875 C 115.210938 359.429688 114.777344 359.296875 114.304688 359.140625 C 111.421875 358.257812 107.070312 356.917969 106.253906 353.804688 C 105.253906 350.007812 105.925781 345.539062 106.621094 341.652344 C 109.765625 324.304688 124.0625 311.664062 143.039062 309.472656 C 147.695312 308.933594 152.535156 309.390625 157.046875 310.824219 C 157.335938 310.917969 157.703125 311.101562 158.375 311.441406 C 158.78125 311.652344 159.570312 312.058594 160.175781 312.324219 C 160.1875 311.851562 160.160156 311.296875 160.148438 311.023438 C 160.136719 310.589844 160.121094 310.234375 160.148438 310.050781 C 160.175781 309.773438 160.203125 309.390625 160.226562 308.945312 C 160.597656 303.125 161.253906 296.84375 164.410156 295.910156 C 166.988281 295.148438 170.328125 295.609375 173.273438 296.015625 C 174.496094 296.1875 175.640625 296.34375 176.613281 296.398438 C 183.257812 296.777344 190.660156 296.6875 198.628906 296.121094 C 199.328125 296.070312 200.023438 296.03125 200.734375 295.976562 C 202.285156 295.886719 203.878906 295.78125 205.429688 295.609375 C 205.769531 295.570312 206.113281 295.53125 206.457031 295.476562 C 207.058594 295.398438 207.664062 295.320312 208.285156 295.28125 C 208.324219 295.28125 208.363281 295.28125 208.429688 295.28125 C 208.941406 295.203125 209.46875 295.453125 209.742188 295.898438 C 212.125 299.800781 214.226562 305.253906 215.265625 308.15625 L 215.398438 308.539062 C 215.964844 310.179688 216.332031 310.851562 216.554688 311.113281 C 217.1875 310.902344 218.554688 310.089844 219.171875 309.722656 C 219.855469 309.3125 220.25 309.078125 220.566406 308.945312 C 225.039062 307.054688 229.589844 305.882812 234.074219 305.476562 C 247.738281 304.242188 266.503906 310.535156 274.410156 324.648438 C 275.078125 325.832031 280.800781 336.449219 277 342.964844 C 275.738281 345.132812 272.527344 346.867188 269.359375 348.457031 L 268.78125 348.746094 C 244.199219 361.214844 219.726562 360.347656 207.335938 358.71875 C 203.824219 358.257812 200.339844 357.523438 196.960938 356.539062 C 196.421875 356.378906 195.816406 356.117188 195.183594 355.839844 C 194.25 355.433594 192.960938 354.871094 192.355469 354.949219 C 190.566406 355.144531 187.121094 356.5625 184.085938 357.8125 C 181.757812 358.773438 179.546875 359.679688 177.902344 360.152344 C 167.144531 363.1875 156.28125 364.722656 145.589844 364.722656 Z M 146.839844 311.902344 C 145.667969 311.902344 144.5 311.96875 143.355469 312.097656 C 125.285156 314.203125 112.210938 325.699219 109.238281 342.125 C 108.582031 345.738281 107.964844 349.863281 108.820312 353.136719 C 109.265625 354.816406 113.054688 355.984375 115.09375 356.605469 C 115.605469 356.761719 116.078125 356.90625 116.460938 357.039062 C 125.875 360.335938 135.570312 362.03125 145.25 362.058594 C 145.367188 362.058594 145.484375 362.058594 145.601562 362.058594 C 156.046875 362.058594 166.660156 360.546875 177.179688 357.574219 C 178.679688 357.15625 180.808594 356.273438 183.070312 355.34375 C 186.425781 353.960938 189.910156 352.53125 192.066406 352.28125 C 193.394531 352.136719 194.910156 352.792969 196.25 353.382812 C 196.800781 353.632812 197.328125 353.859375 197.710938 353.960938 C 200.957031 354.910156 204.324219 355.617188 207.691406 356.050781 C 219.777344 357.640625 243.632812 358.496094 267.582031 346.339844 L 268.160156 346.050781 C 270.109375 345.082031 273.726562 343.265625 274.699219 341.585938 C 276.855469 337.878906 274.855469 330.851562 272.082031 325.894531 C 264.714844 312.757812 247.121094 306.910156 234.296875 308.078125 C 230.089844 308.460938 225.8125 309.5625 221.59375 311.351562 C 221.433594 311.414062 220.933594 311.71875 220.527344 311.953125 C 218.316406 313.28125 216.882812 314.070312 215.753906 313.675781 C 214.292969 313.175781 213.53125 311.269531 212.875 309.367188 L 212.753906 309.023438 C 211.808594 306.382812 209.964844 301.585938 207.875 297.949219 C 207.519531 297.988281 207.164062 298.027344 206.808594 298.078125 C 206.441406 298.132812 206.074219 298.171875 205.707031 298.210938 C 204.101562 298.382812 202.46875 298.488281 200.890625 298.589844 C 200.195312 298.632812 199.511719 298.683594 198.8125 298.734375 C 190.738281 299.3125 183.214844 299.40625 176.457031 299.011719 C 175.378906 298.945312 174.179688 298.789062 172.90625 298.605469 C 170.222656 298.238281 167.183594 297.816406 165.160156 298.40625 C 164.660156 298.550781 163.464844 299.890625 162.871094 309.078125 C 162.84375 309.550781 162.820312 309.945312 162.792969 310.234375 C 162.777344 310.363281 162.792969 310.601562 162.804688 310.890625 C 162.871094 312.914062 162.859375 314.28125 161.898438 314.925781 C 160.859375 315.621094 159.492188 314.964844 157.148438 313.769531 C 156.742188 313.558594 156.402344 313.375 156.230469 313.308594 C 153.203125 312.386719 150.007812 311.902344 146.839844 311.902344 Z M 146.839844 311.902344 " fill-opacity="1" fill-rule="nonzero"/></g><path fill="#000000" d="M 124.785156 330.351562 C 121.273438 330.351562 117.839844 329.074219 115.050781 325.253906 C 114.699219 324.753906 114.722656 324.070312 115.117188 323.609375 C 116.261719 322.28125 117.5 321.035156 118.8125 319.878906 C 124.5625 314.804688 131.808594 311.402344 139.921875 309.929688 C 140.183594 309.773438 140.5 309.722656 140.816406 309.773438 C 141.550781 309.65625 142.289062 309.550781 143.039062 309.472656 C 147.695312 308.933594 152.535156 309.390625 157.046875 310.824219 C 157.453125 310.957031 158.832031 311.496094 159.992188 311.953125 L 160.148438 310.050781 C 160.175781 309.773438 160.203125 309.390625 160.226562 308.945312 C 160.597656 303.125 161.253906 296.84375 164.410156 295.910156 C 166.988281 295.148438 170.328125 295.609375 173.273438 296.015625 C 174.496094 296.1875 175.640625 296.34375 176.613281 296.398438 C 176.984375 296.421875 177.429688 296.609375 177.667969 296.898438 C 177.902344 297.1875 178.101562 297.566406 178.035156 297.949219 L 177.917969 298.644531 C 177.851562 299.050781 177.785156 299.417969 177.746094 299.722656 C 177.179688 304.765625 176.890625 310.0625 176.824219 316.382812 C 176.824219 316.683594 176.851562 317.132812 176.890625 317.632812 C 177.089844 320.167969 177.152344 322.191406 176.179688 323.347656 C 175.011719 324.753906 172.734375 323.964844 171.222656 323.425781 C 170.984375 323.347656 170.800781 323.269531 170.65625 323.242188 C 166.316406 322.097656 162.292969 321.558594 158.425781 321.597656 C 153.390625 321.652344 148.378906 322.507812 143.527344 324.160156 C 141.921875 324.714844 140.144531 325.503906 138.265625 326.34375 C 136.777344 327 135.238281 327.683594 133.675781 328.300781 C 130.941406 329.390625 127.835938 330.351562 124.785156 330.351562 Z M 117.855469 324.53125 C 121.101562 328.3125 125.507812 328.683594 132.726562 325.84375 C 134.242188 325.253906 135.738281 324.582031 137.199219 323.925781 C 138.042969 323.542969 138.871094 323.175781 139.683594 322.835938 C 137.898438 320.101562 133.910156 318.539062 132.136719 317.960938 C 130.941406 317.566406 129.953125 317.316406 129.03125 317.171875 C 128.703125 317.117188 128.386719 317.066406 128.058594 317.066406 C 128.046875 317.066406 127.914062 317.09375 127.847656 317.09375 C 127.824219 317.09375 127.796875 317.105469 127.769531 317.105469 C 127.625 317.117188 127.492188 317.105469 127.363281 317.078125 C 124.917969 318.433594 122.640625 320.023438 120.5625 321.847656 C 119.617188 322.691406 118.707031 323.582031 117.855469 324.53125 Z M 131.648438 315.054688 C 132.070312 315.175781 132.503906 315.304688 132.964844 315.449219 C 135.621094 316.316406 140.132812 318.25 142.183594 321.835938 C 142.355469 321.769531 142.527344 321.71875 142.683594 321.664062 C 144.773438 320.957031 146.90625 320.378906 149.050781 319.945312 C 147.617188 317.066406 145.761719 314.964844 143.550781 313.664062 C 143.011719 313.347656 142.382812 313.136719 141.710938 312.914062 C 141.328125 312.78125 140.933594 312.664062 140.554688 312.507812 C 137.4375 313.058594 134.449219 313.914062 131.648438 315.054688 Z M 162.621094 319.117188 C 165.4375 319.367188 168.316406 319.878906 171.355469 320.679688 C 171.539062 320.730469 171.800781 320.824219 172.117188 320.929688 C 172.25 320.980469 172.457031 321.046875 172.707031 321.125 C 170.867188 319.023438 168.449219 317.289062 166.09375 316.410156 C 164.949219 315.988281 163.804688 315.671875 162.6875 315.503906 C 162.570312 315.488281 162.371094 315.449219 162.136719 315.398438 C 161.765625 315.332031 160.910156 315.160156 160.703125 315.160156 C 160.660156 315.160156 160.636719 315.160156 160.597656 315.148438 C 161.332031 316.34375 161.9375 317.605469 162.503906 318.8125 Z M 145.746094 311.929688 C 148.207031 313.609375 150.234375 316.144531 151.769531 319.472656 C 153.980469 319.140625 156.203125 318.972656 158.4375 318.957031 C 158.832031 318.957031 159.226562 318.957031 159.621094 318.957031 C 158.558594 316.75 157.359375 314.609375 155.363281 313.441406 C 154.742188 313.070312 154.035156 312.820312 153.375 312.613281 C 153.324219 312.597656 153.257812 312.574219 153.203125 312.546875 C 150.746094 312.046875 148.21875 311.835938 145.746094 311.929688 Z M 162.582031 312.808594 C 162.59375 312.808594 162.609375 312.808594 162.621094 312.808594 C 162.832031 312.847656 163.003906 312.886719 163.109375 312.902344 C 164.382812 313.109375 165.699219 313.453125 167.015625 313.9375 C 169.65625 314.910156 172.273438 316.722656 174.351562 318.984375 C 174.328125 318.523438 174.300781 318.105469 174.273438 317.828125 C 174.234375 317.238281 174.195312 316.710938 174.195312 316.34375 C 174.261719 309.929688 174.5625 304.542969 175.140625 299.40625 C 175.15625 299.261719 175.179688 299.089844 175.207031 298.921875 C 174.472656 298.839844 173.707031 298.734375 172.933594 298.632812 C 170.25 298.261719 167.210938 297.84375 165.1875 298.433594 C 164.6875 298.578125 163.488281 299.917969 162.898438 309.101562 C 162.871094 309.578125 162.84375 309.96875 162.820312 310.257812 Z M 254.023438 325.6875 C 252.023438 325.6875 250.011719 324.714844 248.289062 323.898438 C 247.777344 323.648438 247.289062 323.414062 246.832031 323.230469 L 246.488281 323.085938 C 242.410156 321.441406 238.136719 320.507812 233.757812 320.324219 C 227.851562 320.089844 221.367188 320.902344 213.9375 322.847656 C 213.609375 322.925781 212.976562 323.148438 212.203125 323.414062 C 207.480469 325.015625 205.179688 325.632812 204.007812 325.054688 C 199.773438 322.992188 197.605469 308.289062 197.511719 307.671875 C 196.75 302.402344 196.132812 297.710938 196.132812 297.710938 C 196.078125 297.355469 196.183594 296.988281 196.421875 296.699219 C 196.65625 296.410156 196.984375 296.238281 197.355469 296.214844 C 198.023438 296.160156 198.8125 296.109375 199.644531 296.054688 C 201.617188 295.925781 203.863281 295.78125 205.441406 295.609375 C 205.785156 295.570312 206.125 295.53125 206.46875 295.476562 C 207.074219 295.398438 207.679688 295.320312 208.296875 295.28125 C 208.335938 295.28125 208.375 295.28125 208.441406 295.28125 C 208.953125 295.214844 209.480469 295.453125 209.757812 295.898438 C 212.136719 299.800781 214.242188 305.253906 215.28125 308.15625 L 215.410156 308.539062 C 215.925781 310.023438 216.28125 310.71875 216.503906 311.035156 C 216.804688 310.851562 217.132812 310.691406 217.515625 310.679688 C 218.121094 310.351562 218.792969 309.957031 219.171875 309.722656 C 219.855469 309.3125 220.25 309.078125 220.566406 308.945312 C 225.039062 307.054688 229.589844 305.882812 234.074219 305.476562 C 242.410156 304.714844 251.695312 306.671875 259.585938 310.839844 C 260.625 311.390625 261.664062 311.996094 262.652344 312.625 C 263.085938 312.902344 263.308594 313.386719 263.257812 313.898438 C 262.636719 319.195312 260.246094 323.175781 256.535156 325.109375 C 255.695312 325.515625 254.851562 325.6875 254.023438 325.6875 Z M 241.109375 318.644531 C 243.28125 319.128906 245.398438 319.800781 247.476562 320.640625 L 247.84375 320.785156 C 248.34375 320.996094 248.867188 321.246094 249.433594 321.519531 C 251.445312 322.480469 253.722656 323.582031 255.285156 322.753906 C 258.824219 320.917969 260.0625 317.027344 260.496094 314.410156 C 259.785156 313.976562 259.0625 313.570312 258.339844 313.191406 C 255.511719 311.707031 252.5 310.507812 249.421875 309.640625 C 249.304688 309.679688 249.171875 309.722656 249.039062 309.722656 C 248.605469 309.773438 247.515625 310.734375 247.09375 311.101562 C 246.921875 311.257812 246.75 311.390625 246.621094 311.507812 C 243.9375 313.703125 242.121094 316.042969 241.109375 318.644531 Z M 198.933594 298.75 C 199.167969 300.523438 199.617188 303.769531 200.128906 307.277344 C 200.878906 312.441406 202.785156 319.839844 204.523438 322.074219 C 206.507812 318.972656 209.425781 316.042969 213.4375 313.125 C 213.703125 312.941406 213.992188 312.730469 214.308594 312.507812 C 213.714844 311.664062 213.28125 310.523438 212.886719 309.378906 L 212.769531 309.039062 C 211.820312 306.398438 209.980469 301.601562 207.890625 297.960938 C 207.535156 298 207.179688 298.039062 206.824219 298.09375 C 206.457031 298.144531 206.085938 298.183594 205.71875 298.222656 C 204.089844 298.394531 201.8125 298.539062 199.8125 298.671875 C 199.5 298.710938 199.207031 298.734375 198.933594 298.75 Z M 217.449219 313.609375 C 217.410156 313.636719 217.382812 313.648438 217.359375 313.675781 C 216.476562 314.226562 215.636719 314.832031 214.992188 315.292969 C 211.898438 317.527344 209.53125 319.761719 207.769531 322.058594 C 209.113281 321.664062 210.558594 321.179688 211.347656 320.902344 C 212.203125 320.613281 212.898438 320.378906 213.253906 320.285156 C 214.792969 319.878906 216.292969 319.523438 217.765625 319.222656 C 218.660156 316.1875 220.054688 313.519531 221.933594 311.246094 C 221.816406 311.296875 221.699219 311.335938 221.59375 311.390625 C 221.433594 311.457031 220.933594 311.757812 220.527344 311.996094 C 219.277344 312.742188 218.277344 313.320312 217.449219 313.609375 Z M 228.078125 309.195312 C 228.011719 309.273438 227.933594 309.339844 227.851562 309.390625 C 224.484375 311.730469 222.15625 314.765625 220.75 318.644531 C 223.5 318.167969 226.144531 317.855469 228.667969 317.722656 C 229.023438 314.464844 230.457031 311.0625 232.5625 308.460938 L 232.691406 308.300781 C 231.152344 308.5 229.613281 308.800781 228.078125 309.195312 Z M 231.71875 317.644531 C 232.441406 317.644531 233.152344 317.65625 233.863281 317.683594 C 235.414062 317.75 236.941406 317.894531 238.464844 318.128906 C 239.625 314.910156 241.742188 312.074219 244.921875 309.445312 C 245.042969 309.351562 245.1875 309.222656 245.34375 309.089844 C 245.460938 308.984375 245.59375 308.867188 245.738281 308.75 C 242.765625 308.171875 239.769531 307.90625 236.863281 307.960938 C 236.796875 308 236.730469 308.039062 236.664062 308.066406 C 236.085938 308.289062 235.335938 309.222656 234.847656 309.839844 L 234.625 310.113281 C 232.902344 312.242188 231.71875 314.988281 231.351562 317.632812 C 231.46875 317.644531 231.585938 317.644531 231.71875 317.644531 Z M 231.71875 317.644531 " fill-opacity="1" fill-rule="nonzero"/><path fill="#fffbfa" d="M 119.695312 320.863281 C 124.273438 321.742188 128.363281 323.636719 132.1875 326.316406 C 132.542969 326.566406 132.886719 326.816406 133.214844 327.066406 C 141.09375 333.082031 146.089844 342.664062 146.695312 352.558594 C 146.761719 353.699219 146.785156 354.882812 146.734375 356.066406 C 146.601562 358.628906 146.089844 361.214844 144.839844 363.398438 C 134.964844 363.316406 125.335938 361.570312 116 358.296875 C 113.738281 357.511719 108.28125 356.339844 107.515625 353.476562 C 106.910156 351.191406 106.976562 348.601562 107.253906 346.09375 C 107.425781 344.632812 107.660156 343.203125 107.910156 341.886719 C 109.148438 335.082031 112.027344 329.21875 116.117188 324.464844 C 117.234375 323.1875 118.417969 321.992188 119.695312 320.863281 Z M 119.695312 320.863281 " fill-opacity="1" fill-rule="evenodd"/><g clip-path="url(#621aa3bfac)"><path fill="#000000" d="M 144.839844 364.722656 C 134.976562 364.644531 125.140625 362.910156 115.566406 359.546875 C 115.210938 359.429688 114.777344 359.296875 114.304688 359.140625 C 111.421875 358.257812 107.070312 356.917969 106.253906 353.804688 C 105.6875 351.675781 105.597656 349.101562 105.964844 345.933594 C 106.136719 344.4375 106.386719 342.992188 106.621094 341.636719 C 107.859375 334.792969 110.726562 328.722656 115.132812 323.597656 C 116.277344 322.269531 117.511719 321.019531 118.828125 319.863281 C 119.144531 319.589844 119.550781 319.472656 119.957031 319.5625 C 124.546875 320.441406 128.796875 322.308594 132.964844 325.226562 C 133.332031 325.476562 133.6875 325.738281 134.042969 326.015625 C 142.171875 332.214844 147.40625 342.109375 148.050781 352.476562 C 148.128906 353.792969 148.140625 354.988281 148.089844 356.144531 C 147.929688 359.285156 147.234375 361.953125 146.023438 364.066406 C 145.761719 364.472656 145.3125 364.722656 144.839844 364.722656 Z M 120.078125 322.296875 C 119.039062 323.242188 118.050781 324.265625 117.128906 325.332031 C 113.039062 330.085938 110.382812 335.738281 109.226562 342.125 C 108.988281 343.425781 108.753906 344.832031 108.582031 346.25 C 108.253906 349.085938 108.332031 351.335938 108.804688 353.148438 C 109.253906 354.828125 113.039062 356 115.078125 356.617188 C 115.589844 356.773438 116.066406 356.917969 116.445312 357.050781 C 125.480469 360.21875 134.765625 361.898438 144.050781 362.058594 C 144.839844 360.414062 145.289062 358.378906 145.417969 356 C 145.472656 354.949219 145.457031 353.84375 145.378906 352.636719 C 144.789062 343.03125 139.933594 333.859375 132.414062 328.117188 C 132.082031 327.867188 131.753906 327.628906 131.425781 327.394531 C 127.769531 324.832031 124.046875 323.164062 120.078125 322.296875 Z M 120.078125 322.296875 " fill-opacity="1" fill-rule="nonzero"/></g><path fill="#fffbfa" d="M 258.941406 312.007812 C 259.957031 312.546875 260.953125 313.125 261.914062 313.730469 C 266.625 316.722656 270.621094 320.613281 273.238281 325.277344 C 274.449219 327.433594 275.828125 330.613281 276.527344 333.84375 C 277.171875 336.894531 277.195312 339.96875 275.855469 342.28125 C 274.566406 344.488281 270.292969 346.484375 268.1875 347.550781 C 261.074219 351.164062 253.972656 353.632812 247.160156 355.304688 C 247.039062 355.25 246.9375 355.199219 246.816406 355.160156 C 243.882812 353.792969 242.03125 351.636719 240.964844 349.0625 C 238.859375 344.015625 239.792969 337.40625 241.503906 332.269531 C 242.753906 328.496094 244.566406 324.988281 246.976562 321.863281 C 247.371094 321.363281 247.765625 320.863281 248.183594 320.378906 C 251.15625 316.933594 254.878906 314.082031 258.941406 312.007812 Z M 258.941406 312.007812 " fill-opacity="1" fill-rule="evenodd"/><path fill="#000000" d="M 247.160156 356.628906 C 246.976562 356.628906 246.789062 356.589844 246.632812 356.523438 L 246.265625 356.355469 C 243.226562 354.949219 241.03125 352.660156 239.742188 349.574219 C 237.046875 343.082031 239.203125 335.027344 240.242188 331.863281 C 241.554688 327.878906 243.476562 324.242188 245.921875 321.0625 C 246.332031 320.535156 246.75 320.023438 247.183594 319.523438 C 250.210938 316.042969 254.0625 313.03125 258.351562 310.851562 C 258.730469 310.652344 259.191406 310.652344 259.574219 310.851562 C 260.625 311.402344 261.652344 312.007812 262.636719 312.636719 C 267.753906 315.882812 271.816406 320.050781 274.394531 324.660156 C 275.132812 325.976562 276.945312 329.484375 277.816406 333.597656 C 278.644531 337.460938 278.355469 340.613281 276.988281 342.976562 C 275.722656 345.144531 272.515625 346.878906 269.34375 348.46875 L 268.765625 348.757812 C 262.085938 352.148438 254.917969 354.789062 247.460938 356.617188 C 247.371094 356.617188 247.265625 356.628906 247.160156 356.628906 Z M 258.929688 313.503906 C 255.195312 315.515625 251.828125 318.167969 249.183594 321.230469 C 248.789062 321.691406 248.394531 322.175781 248.027344 322.652344 C 245.765625 325.59375 243.988281 328.972656 242.765625 332.675781 C 241.804688 335.566406 239.832031 342.871094 242.1875 348.550781 C 243.199219 350.980469 244.910156 352.78125 247.289062 353.910156 C 254.390625 352.148438 261.21875 349.613281 267.582031 346.382812 L 268.160156 346.09375 C 270.109375 345.121094 273.726562 343.304688 274.699219 341.625 C 275.710938 339.875 275.894531 337.289062 275.222656 334.132812 C 274.671875 331.53125 273.5 328.472656 272.082031 325.949219 C 269.714844 321.71875 265.953125 317.882812 261.203125 314.871094 C 260.46875 314.386719 259.707031 313.9375 258.929688 313.503906 Z M 258.929688 313.503906 " fill-opacity="1" fill-rule="nonzero"/><path fill="#fffbfa" d="M 144.839844 363.398438 C 134.964844 363.316406 125.335938 361.570312 116 358.296875 C 113.738281 357.511719 108.28125 356.339844 107.515625 353.476562 C 106.910156 351.191406 106.976562 348.601562 107.253906 346.09375 C 111.394531 348.023438 114.578125 349.808594 118.367188 351.136719 C 127.375 354.277344 137.148438 356.25 146.707031 356.066406 C 146.933594 356.066406 147.15625 356.050781 147.378906 356.050781 C 157.136719 355.761719 167.183594 353.898438 176.496094 350.992188 C 180.890625 349.625 186.109375 346 190.6875 345.761719 C 193.449219 345.617188 196.683594 347.378906 199.3125 348.050781 C 203.707031 349.179688 208.242188 349.929688 212.742188 350.429688 C 222.222656 351.464844 231.71875 350.980469 240.925781 349.046875 C 248.699219 347.417969 256.261719 344.765625 263.441406 341.125 C 266.03125 339.8125 272.542969 336.738281 276.472656 333.84375 C 277.117188 336.894531 277.144531 339.96875 275.804688 342.28125 C 274.515625 344.488281 270.238281 346.484375 268.136719 347.550781 C 261.019531 351.164062 253.917969 353.632812 247.105469 355.304688 C 230.863281 359.257812 216.304688 358.5625 207.46875 357.390625 C 204.023438 356.945312 200.628906 356.234375 197.289062 355.261719 C 195.921875 354.871094 193.605469 353.464844 192.160156 353.621094 C 188.804688 354.003906 181.308594 357.785156 177.484375 358.863281 C 167.039062 361.820312 156.046875 363.4375 145.183594 363.398438 C 145.105469 363.398438 144.972656 363.398438 144.839844 363.398438 Z M 144.839844 363.398438 " fill-opacity="1" fill-rule="evenodd"/><g clip-path="url(#22d25e2ae1)"><path fill="#000000" d="M 145.589844 364.722656 C 145.472656 364.722656 145.339844 364.722656 145.222656 364.722656 L 144.828125 364.722656 C 134.976562 364.644531 125.125 362.910156 115.566406 359.546875 C 115.210938 359.429688 114.777344 359.296875 114.304688 359.140625 C 111.421875 358.257812 107.070312 356.917969 106.253906 353.804688 C 105.6875 351.675781 105.597656 349.101562 105.964844 345.933594 C 106.015625 345.515625 106.265625 345.132812 106.636719 344.9375 C 107.003906 344.726562 107.464844 344.710938 107.84375 344.894531 C 109.070312 345.472656 110.199219 346.027344 111.304688 346.566406 C 113.949219 347.867188 116.234375 348.984375 118.839844 349.890625 C 128.425781 353.238281 138.066406 354.921875 146.722656 354.75 L 147.378906 354.738281 C 156.609375 354.460938 166.554688 352.726562 176.140625 349.746094 C 177.707031 349.257812 179.402344 348.457031 181.203125 347.601562 C 184.320312 346.132812 187.542969 344.605469 190.671875 344.449219 C 192.789062 344.34375 194.949219 345.132812 197.039062 345.894531 C 197.984375 346.238281 198.878906 346.566406 199.695312 346.773438 C 203.679688 347.800781 208.136719 348.589844 212.9375 349.113281 C 222.222656 350.125 231.574219 349.664062 240.714844 347.761719 C 248.382812 346.15625 255.851562 343.53125 262.914062 339.957031 L 264.257812 339.285156 C 267.332031 337.761719 272.476562 335.199219 275.761719 332.792969 C 276.132812 332.53125 276.605469 332.464844 277.027344 332.625 C 277.445312 332.78125 277.761719 333.148438 277.855469 333.582031 C 278.683594 337.445312 278.394531 340.613281 277.027344 342.964844 C 275.761719 345.132812 272.554688 346.867188 269.386719 348.457031 L 268.804688 348.746094 C 262.125 352.136719 254.957031 354.777344 247.5 356.605469 C 231.207031 360.570312 216.6875 359.953125 207.363281 358.71875 C 203.851562 358.257812 200.367188 357.523438 196.984375 356.539062 C 196.445312 356.378906 195.84375 356.117188 195.210938 355.839844 C 194.277344 355.433594 192.988281 354.871094 192.382812 354.949219 C 190.59375 355.144531 187.148438 356.5625 184.109375 357.8125 C 181.78125 358.773438 179.574219 359.679688 177.929688 360.152344 C 167.144531 363.1875 156.28125 364.722656 145.589844 364.722656 Z M 108.425781 348.117188 C 108.320312 350.097656 108.4375 351.753906 108.804688 353.148438 C 109.253906 354.828125 113.039062 356 115.078125 356.617188 C 115.589844 356.773438 116.066406 356.917969 116.445312 357.050781 C 125.746094 360.308594 135.304688 361.992188 144.855469 362.070312 L 145.234375 362.070312 C 145.351562 362.070312 145.472656 362.070312 145.589844 362.070312 C 156.019531 362.070312 166.644531 360.558594 177.152344 357.589844 C 178.652344 357.167969 180.785156 356.289062 183.046875 355.355469 C 186.398438 353.976562 189.882812 352.542969 192.042969 352.292969 C 193.371094 352.148438 194.882812 352.804688 196.222656 353.398438 C 196.777344 353.648438 197.300781 353.871094 197.683594 353.976562 C 200.933594 354.921875 204.296875 355.632812 207.664062 356.066406 C 216.753906 357.261719 230.929688 357.878906 246.816406 354.003906 C 254.078125 352.226562 261.046875 349.664062 267.558594 346.367188 L 268.136719 346.078125 C 270.082031 345.105469 273.699219 343.292969 274.671875 341.609375 C 275.460938 340.257812 275.75 338.378906 275.515625 336.117188 C 272.199219 338.261719 268.042969 340.324219 265.386719 341.652344 L 264.058594 342.308594 C 256.785156 345.988281 249.105469 348.695312 241.214844 350.347656 C 231.796875 352.320312 222.171875 352.792969 212.609375 351.753906 C 207.691406 351.214844 203.101562 350.402344 199 349.351562 C 198.066406 349.113281 197.105469 348.757812 196.09375 348.390625 C 194.25 347.722656 192.332031 347.039062 190.765625 347.105469 C 188.175781 347.234375 185.1875 348.640625 182.296875 350.007812 C 180.414062 350.902344 178.625 351.742188 176.890625 352.28125 C 167.078125 355.34375 156.886719 357.101562 147.417969 357.390625 L 146.734375 357.40625 C 137.792969 357.574219 127.808594 355.855469 117.933594 352.398438 C 115.171875 351.441406 112.710938 350.230469 110.109375 348.941406 C 109.566406 348.679688 109.003906 348.390625 108.425781 348.117188 Z M 108.425781 348.117188 " fill-opacity="1" fill-rule="nonzero"/></g><path fill="#000000" d="M 192 354.972656 C 191.332031 354.972656 190.753906 354.476562 190.6875 353.792969 C 189.714844 344.554688 189.199219 336.828125 188.660156 328.65625 C 188.371094 324.359375 188.082031 319.917969 187.714844 315.042969 C 187.648438 314.136719 187.554688 312.902344 187.464844 311.46875 C 187.160156 307.066406 186.742188 301.046875 186.347656 298.105469 C 186.253906 297.382812 186.765625 296.710938 187.492188 296.621094 C 188.214844 296.515625 188.886719 297.042969 188.976562 297.765625 C 189.371094 300.785156 189.792969 306.855469 190.109375 311.285156 C 190.199219 312.703125 190.292969 313.9375 190.359375 314.84375 C 190.738281 319.734375 191.027344 324.1875 191.304688 328.484375 C 191.84375 336.632812 192.34375 344.316406 193.316406 353.515625 C 193.394531 354.238281 192.871094 354.894531 192.132812 354.972656 C 192.09375 354.972656 192.054688 354.972656 192 354.972656 Z M 192 354.972656 " fill-opacity="1" fill-rule="nonzero"/><path fill="#fffbfa" d="M 157.519531 127.8125 C 166.433594 127.8125 173.683594 143.554688 173.683594 162.9375 C 173.683594 182.316406 166.433594 198.058594 157.519531 198.058594 C 148.601562 198.058594 141.355469 182.316406 141.355469 162.9375 C 141.355469 143.554688 148.589844 127.8125 157.519531 127.8125 Z M 157.519531 127.8125 " fill-opacity="1" fill-rule="evenodd"/><path fill="#000000" d="M 157.519531 199.386719 C 147.707031 199.386719 140.027344 183.382812 140.027344 162.9375 C 140.027344 142.492188 147.707031 126.488281 157.519531 126.488281 C 167.328125 126.488281 175.011719 142.492188 175.011719 162.9375 C 175.011719 183.382812 167.316406 199.386719 157.519531 199.386719 Z M 157.519531 129.140625 C 149.484375 129.140625 142.683594 144.621094 142.683594 162.9375 C 142.683594 181.253906 149.484375 196.730469 157.519531 196.730469 C 165.554688 196.730469 172.351562 181.253906 172.351562 162.9375 C 172.351562 144.621094 165.554688 129.140625 157.519531 129.140625 Z M 157.519531 129.140625 " fill-opacity="1" fill-rule="nonzero"/><path fill="#fffbfa" d="M 217.226562 127.8125 C 226.144531 127.8125 233.390625 143.554688 233.390625 162.9375 C 233.390625 182.316406 226.144531 198.058594 217.226562 198.058594 C 208.308594 198.058594 201.0625 182.316406 201.0625 162.9375 C 201.0625 143.554688 208.308594 127.8125 217.226562 127.8125 Z M 217.226562 127.8125 " fill-opacity="1" fill-rule="evenodd"/><path fill="#000000" d="M 217.226562 199.386719 C 207.414062 199.386719 199.734375 183.382812 199.734375 162.9375 C 199.734375 142.492188 207.414062 126.488281 217.226562 126.488281 C 227.039062 126.488281 234.71875 142.492188 234.71875 162.9375 C 234.71875 183.382812 227.039062 199.386719 217.226562 199.386719 Z M 217.226562 129.140625 C 209.191406 129.140625 202.390625 144.621094 202.390625 162.9375 C 202.390625 181.253906 209.191406 196.730469 217.226562 196.730469 C 225.261719 196.730469 232.0625 181.253906 232.0625 162.9375 C 232.0625 144.621094 225.273438 129.140625 217.226562 129.140625 Z M 217.226562 129.140625 " fill-opacity="1" fill-rule="nonzero"/><path fill="#000000" d="M 165.976562 177.324219 C 165.976562 177.5625 165.976562 177.8125 165.976562 178.046875 C 165.976562 190.503906 162.1875 200.621094 157.503906 200.621094 C 152.835938 200.621094 149.035156 190.503906 149.035156 178.046875 C 149.035156 165.589844 152.824219 155.472656 157.503906 155.472656 C 160.597656 155.472656 163.292969 159.886719 164.777344 166.484375 L 157.503906 171.492188 Z M 165.976562 177.324219 " fill-opacity="1" fill-rule="evenodd"/><path fill="#000000" d="M 157.519531 201.949219 C 151.152344 201.949219 147.734375 189.636719 147.734375 178.046875 C 147.734375 166.457031 151.167969 154.144531 157.519531 154.144531 C 161.242188 154.144531 164.371094 158.535156 166.082031 166.195312 C 166.199219 166.722656 165.988281 167.273438 165.542969 167.574219 L 159.859375 171.492188 L 166.738281 176.222656 C 167.09375 176.46875 167.304688 176.863281 167.316406 177.296875 L 167.316406 178.035156 C 167.304688 189.636719 163.871094 201.949219 157.519531 201.949219 Z M 157.519531 156.800781 C 154.152344 156.800781 150.378906 165.894531 150.378906 178.046875 C 150.378906 190.203125 154.152344 199.292969 157.519531 199.292969 C 160.886719 199.292969 164.660156 190.203125 164.660156 178.046875 L 164.660156 178.019531 L 156.769531 172.59375 C 156.414062 172.34375 156.191406 171.9375 156.191406 171.503906 C 156.191406 171.070312 156.402344 170.664062 156.769531 170.414062 L 163.292969 165.917969 C 161.726562 159.625 159.292969 156.800781 157.519531 156.800781 Z M 157.519531 156.800781 " fill-opacity="1" fill-rule="nonzero"/><path fill="#000000" d="M 225.695312 177.324219 C 225.695312 177.5625 225.695312 177.8125 225.695312 178.046875 C 225.695312 190.503906 221.910156 200.621094 217.226562 200.621094 C 212.558594 200.621094 208.757812 190.503906 208.757812 178.046875 C 208.757812 165.589844 212.542969 155.472656 217.226562 155.472656 C 220.316406 155.472656 223.011719 159.886719 224.5 166.484375 L 217.226562 171.492188 Z M 225.695312 177.324219 " fill-opacity="1" fill-rule="evenodd"/><path fill="#000000" d="M 217.226562 201.949219 C 210.859375 201.949219 207.441406 189.636719 207.441406 178.046875 C 207.441406 166.457031 210.875 154.144531 217.226562 154.144531 C 220.949219 154.144531 224.078125 158.535156 225.789062 166.195312 C 225.90625 166.722656 225.695312 167.273438 225.25 167.574219 L 219.566406 171.492188 L 226.445312 176.222656 C 226.800781 176.46875 227.011719 176.863281 227.023438 177.296875 L 227.023438 178.035156 C 227.023438 189.636719 223.589844 201.949219 217.226562 201.949219 Z M 217.226562 156.800781 C 213.859375 156.800781 210.085938 165.894531 210.085938 178.046875 C 210.085938 190.203125 213.859375 199.292969 217.226562 199.292969 C 220.59375 199.292969 224.367188 190.203125 224.367188 178.046875 L 224.367188 178.019531 L 216.476562 172.59375 C 216.121094 172.34375 215.898438 171.9375 215.898438 171.503906 C 215.898438 171.070312 216.109375 170.664062 216.476562 170.414062 L 223 165.917969 C 221.449219 159.625 219.015625 156.800781 217.226562 156.800781 Z M 217.226562 156.800781 " fill-opacity="1" fill-rule="nonzero"/><path fill="#000000" d="M 200.628906 121.613281 C 200.472656 121.613281 200.300781 121.585938 200.140625 121.519531 C 199.457031 121.257812 199.128906 120.480469 199.394531 119.796875 C 202.445312 112.097656 210.769531 106.160156 219.4375 109.574219 C 222.15625 110.652344 224.839844 112.609375 227.40625 115.410156 C 228.457031 116.566406 229.207031 117.527344 229.8125 118.496094 C 230.46875 119.589844 230.785156 120.167969 230.390625 120.875 L 228.101562 119.535156 L 229.234375 120.230469 L 228.050781 120.824219 C 227.996094 120.730469 227.601562 119.984375 227.550781 119.863281 C 227.050781 119.074219 226.394531 118.234375 225.445312 117.195312 C 223.171875 114.699219 220.816406 112.964844 218.476562 112.046875 C 211.359375 109.246094 204.441406 114.28125 201.867188 120.785156 C 201.65625 121.296875 201.15625 121.613281 200.628906 121.613281 Z M 169.527344 121.613281 C 169 121.613281 168.5 121.296875 168.289062 120.769531 C 165.726562 114.28125 158.808594 109.234375 151.679688 112.03125 C 149.324219 112.953125 146.984375 114.6875 144.710938 117.195312 C 143.761719 118.234375 143.105469 119.074219 142.578125 119.902344 C 142.550781 119.96875 142.144531 120.71875 142.105469 120.808594 L 140.933594 120.21875 L 140.921875 120.230469 L 139.765625 120.890625 C 139.371094 120.179688 139.683594 119.601562 140.328125 118.539062 C 140.949219 117.550781 141.710938 116.578125 142.761719 115.4375 C 145.3125 112.636719 147.996094 110.667969 150.734375 109.601562 C 159.398438 106.199219 167.722656 112.125 170.773438 119.824219 C 171.039062 120.507812 170.710938 121.269531 170.027344 121.546875 C 169.855469 121.585938 169.683594 121.613281 169.527344 121.613281 Z M 169.527344 121.613281 " fill-opacity="1" fill-rule="nonzero"/><path fill="#fffbfa" d="M 187.148438 185.523438 C 195.039062 185.523438 201.457031 189.570312 201.457031 194.550781 C 201.457031 199.53125 195.054688 203.566406 187.148438 203.566406 C 179.257812 203.566406 172.839844 199.519531 172.839844 194.550781 C 172.851562 189.570312 179.257812 185.523438 187.148438 185.523438 Z M 187.148438 185.523438 " fill-opacity="1" fill-rule="evenodd"/><path fill="#000000" d="M 187.148438 204.890625 C 178.390625 204.890625 171.523438 200.34375 171.523438 194.550781 C 171.523438 188.757812 178.390625 184.210938 187.148438 184.210938 C 195.90625 184.210938 202.773438 188.757812 202.773438 194.550781 C 202.785156 200.34375 195.921875 204.890625 187.148438 204.890625 Z M 187.148438 186.851562 C 180.113281 186.851562 174.167969 190.371094 174.167969 194.550781 C 174.167969 198.714844 180.113281 202.25 187.148438 202.25 C 194.183594 202.25 200.128906 198.730469 200.128906 194.550781 C 200.128906 190.371094 194.183594 186.851562 187.148438 186.851562 Z M 187.148438 186.851562 " fill-opacity="1" fill-rule="nonzero"/><path fill="#000000" d="M 189.382812 234.96875 C 186.714844 235.0625 184.125 234.917969 182.136719 234.628906 C 170.078125 232.867188 159.136719 229.148438 152.269531 218.726562 C 150.007812 215.285156 148.179688 211.121094 146.90625 206.035156 C 146.917969 206.007812 147.601562 206.546875 147.667969 206.585938 C 148.207031 206.980469 148.757812 207.335938 149.324219 207.675781 C 151.074219 208.714844 152.875 209.660156 154.703125 210.566406 C 159.765625 213.078125 165.160156 215.035156 170.65625 216.351562 C 171.300781 216.507812 171.945312 216.652344 172.601562 216.785156 C 175.417969 217.375 178.324219 217.796875 181.308594 218.042969 C 183.941406 218.269531 186.636719 218.359375 189.382812 218.308594 C 192.121094 218.359375 194.816406 218.269531 197.460938 218.042969 C 200.445312 217.796875 203.351562 217.375 206.164062 216.785156 C 206.824219 216.652344 207.46875 216.507812 208.113281 216.351562 C 213.609375 215.035156 219 213.078125 224.066406 210.566406 C 225.878906 209.660156 227.695312 208.714844 229.445312 207.675781 C 230.007812 207.335938 230.574219 206.980469 231.101562 206.585938 C 231.167969 206.535156 231.851562 206.007812 231.863281 206.035156 C 230.589844 211.105469 228.773438 215.285156 226.5 218.726562 C 219.632812 229.132812 208.691406 232.867188 196.644531 234.628906 C 194.644531 234.902344 192.054688 235.046875 189.382812 234.96875 Z M 189.382812 234.96875 " fill-opacity="1" fill-rule="evenodd"/><path fill="#000000" d="M 187.792969 236.308594 C 185.714844 236.308594 183.691406 236.175781 181.953125 235.929688 C 171.695312 234.429688 158.925781 231.210938 151.179688 219.449219 C 148.757812 215.773438 146.890625 211.371094 145.644531 206.351562 C 145.550781 206.007812 145.617188 205.640625 145.800781 205.339844 C 145.984375 205.035156 146.289062 204.824219 146.628906 204.734375 C 147.261719 204.589844 147.601562 204.839844 148.40625 205.457031 C 148.917969 205.839844 149.402344 206.152344 150.035156 206.535156 C 151.523438 207.429688 153.152344 208.296875 155.324219 209.371094 C 160.292969 211.84375 165.566406 213.75 171 215.050781 C 171.628906 215.207031 172.261719 215.339844 172.90625 215.484375 C 175.65625 216.0625 178.535156 216.46875 181.453125 216.71875 C 184.046875 216.929688 186.714844 217.019531 189.382812 216.96875 C 192.105469 217.019531 194.777344 216.929688 197.367188 216.71875 C 200.289062 216.46875 203.167969 216.0625 205.917969 215.484375 C 206.558594 215.351562 207.191406 215.207031 207.824219 215.050781 C 213.253906 213.746094 218.527344 211.84375 223.5 209.371094 C 225.667969 208.296875 227.300781 207.414062 228.785156 206.535156 C 229.417969 206.167969 229.90625 205.839844 230.339844 205.523438 C 231.21875 204.851562 231.546875 204.601562 232.191406 204.746094 C 232.535156 204.824219 232.835938 205.050781 233.019531 205.351562 C 233.207031 205.652344 233.257812 206.023438 233.179688 206.363281 C 231.929688 211.382812 230.0625 215.785156 227.628906 219.464844 C 219.882812 231.210938 207.113281 234.441406 196.855469 235.941406 C 194.671875 236.257812 192.027344 236.386719 189.410156 236.296875 C 188.859375 236.308594 188.320312 236.308594 187.792969 236.308594 Z M 149.179688 209.121094 C 150.273438 212.445312 151.679688 215.417969 153.375 217.992188 C 160.542969 228.871094 172.617188 231.882812 182.324219 233.300781 C 184.335938 233.589844 186.886719 233.707031 189.332031 233.628906 C 189.359375 233.628906 189.398438 233.628906 189.425781 233.628906 C 191.871094 233.707031 194.421875 233.589844 196.445312 233.300781 C 206.152344 231.882812 218.226562 228.859375 225.394531 217.992188 C 227.089844 215.417969 228.496094 212.445312 229.589844 209.121094 C 228.195312 209.9375 226.644531 210.765625 224.65625 211.75 C 219.5 214.3125 214.042969 216.285156 208.414062 217.636719 C 207.757812 217.796875 207.101562 217.941406 206.429688 218.085938 C 203.574219 218.675781 200.589844 219.109375 197.566406 219.371094 C 194.882812 219.59375 192.132812 219.6875 189.359375 219.632812 C 186.636719 219.675781 183.875 219.59375 181.203125 219.371094 C 178.179688 219.121094 175.195312 218.6875 172.339844 218.085938 C 171.667969 217.941406 171.011719 217.796875 170.355469 217.636719 C 164.726562 216.296875 159.269531 214.3125 154.113281 211.75 C 152.140625 210.765625 150.585938 209.949219 149.179688 209.121094 Z M 149.179688 209.121094 " fill-opacity="1" fill-rule="nonzero"/><path fill="#fffbfa" d="M 189.382812 226.574219 C 184.558594 226.613281 179.796875 226.125 175.089844 225.257812 C 167.867188 223.945312 160.792969 221.761719 153.796875 219.265625 C 153.285156 219.082031 152.769531 218.898438 152.257812 218.726562 C 149.996094 215.285156 148.167969 211.121094 146.890625 206.035156 C 146.90625 206.007812 147.589844 206.546875 147.65625 206.585938 C 148.195312 206.980469 148.746094 207.335938 149.3125 207.675781 C 151.0625 208.714844 152.863281 209.660156 154.691406 210.566406 C 159.753906 213.078125 165.144531 215.035156 170.644531 216.351562 C 171.289062 216.507812 171.933594 216.652344 172.589844 216.785156 C 175.40625 217.375 178.3125 217.796875 181.296875 218.042969 C 183.925781 218.269531 186.621094 218.359375 189.371094 218.308594 C 192.105469 218.359375 194.804688 218.269531 197.445312 218.042969 C 200.433594 217.796875 203.339844 217.375 206.152344 216.785156 C 206.808594 216.652344 207.453125 216.507812 208.097656 216.351562 C 213.597656 215.035156 218.988281 213.078125 224.050781 210.566406 C 225.867188 209.660156 227.683594 208.714844 229.429688 207.675781 C 229.996094 207.335938 230.5625 206.980469 231.089844 206.585938 C 231.152344 206.535156 231.835938 206.007812 231.851562 206.035156 C 230.574219 211.105469 228.761719 215.285156 226.484375 218.726562 C 225.972656 218.910156 225.460938 219.082031 224.960938 219.265625 C 217.976562 221.761719 210.886719 223.945312 203.667969 225.257812 C 198.984375 226.113281 194.222656 226.597656 189.382812 226.574219 Z M 189.382812 226.574219 " fill-opacity="1" fill-rule="evenodd"/><path fill="#000000" d="M 189.871094 227.898438 C 189.554688 227.898438 189.226562 227.898438 188.910156 227.898438 C 184.386719 227.898438 179.785156 227.464844 174.867188 226.574219 C 168.511719 225.417969 161.675781 223.496094 153.363281 220.515625 C 152.941406 220.355469 152.507812 220.210938 152.085938 220.066406 L 151.835938 219.976562 C 151.5625 219.882812 151.324219 219.699219 151.167969 219.449219 C 148.746094 215.773438 146.878906 211.371094 145.628906 206.351562 C 145.539062 206.007812 145.601562 205.640625 145.789062 205.339844 C 145.972656 205.035156 146.273438 204.824219 146.617188 204.734375 C 147.246094 204.589844 147.589844 204.839844 148.390625 205.457031 C 148.90625 205.839844 149.390625 206.152344 150.023438 206.535156 C 151.507812 207.429688 153.140625 208.296875 155.308594 209.371094 C 160.28125 211.84375 165.554688 213.75 170.984375 215.050781 C 171.617188 215.207031 172.25 215.339844 172.894531 215.484375 C 175.640625 216.0625 178.523438 216.46875 181.441406 216.71875 C 184.03125 216.929688 186.703125 217.019531 189.371094 216.96875 C 192.09375 217.019531 194.761719 216.929688 197.355469 216.71875 C 200.273438 216.46875 203.152344 216.0625 205.902344 215.484375 C 206.546875 215.351562 207.179688 215.207031 207.808594 215.050781 C 213.242188 213.75 218.515625 211.84375 223.488281 209.371094 C 225.65625 208.296875 227.289062 207.414062 228.773438 206.535156 C 229.40625 206.167969 229.890625 205.839844 230.324219 205.523438 C 231.207031 204.851562 231.535156 204.601562 232.179688 204.746094 C 232.523438 204.824219 232.824219 205.050781 233.007812 205.351562 C 233.191406 205.652344 233.246094 206.023438 233.164062 206.363281 C 231.917969 211.382812 230.050781 215.785156 227.617188 219.464844 C 227.457031 219.699219 227.222656 219.882812 226.945312 219.988281 L 226.707031 220.066406 C 226.289062 220.210938 225.855469 220.371094 225.433594 220.527344 C 217.121094 223.496094 210.28125 225.429688 203.929688 226.585938 C 199.011719 227.464844 194.410156 227.898438 189.871094 227.898438 Z M 189.382812 225.246094 C 189.515625 225.246094 189.699219 225.246094 189.871094 225.246094 C 194.25 225.246094 198.695312 224.824219 203.445312 223.957031 C 209.652344 222.828125 216.359375 220.933594 224.527344 218.019531 C 224.894531 217.886719 225.261719 217.753906 225.644531 217.625 C 227.234375 215.140625 228.5625 212.289062 229.601562 209.121094 C 228.207031 209.9375 226.65625 210.765625 224.671875 211.75 C 219.515625 214.3125 214.058594 216.285156 208.429688 217.636719 C 207.769531 217.796875 207.113281 217.941406 206.441406 218.085938 C 203.589844 218.675781 200.601562 219.109375 197.578125 219.371094 C 194.894531 219.59375 192.144531 219.6875 189.371094 219.632812 C 186.648438 219.675781 183.886719 219.59375 181.21875 219.371094 C 178.191406 219.121094 175.207031 218.6875 172.351562 218.085938 C 171.683594 217.941406 171.023438 217.796875 170.367188 217.636719 C 164.738281 216.296875 159.28125 214.3125 154.125 211.75 C 152.152344 210.765625 150.601562 209.949219 149.195312 209.121094 C 150.234375 212.289062 151.5625 215.140625 153.152344 217.625 C 153.519531 217.753906 153.902344 217.886719 154.269531 218.019531 C 162.4375 220.933594 169.132812 222.828125 175.339844 223.957031 C 180.269531 224.851562 184.820312 225.273438 189.382812 225.246094 Z M 189.382812 225.246094 " fill-opacity="1" fill-rule="nonzero"/><path fill="#000000" d="M 136.171875 212.761719 C 135.503906 212.761719 134.925781 212.25 134.859375 211.566406 C 134.78125 210.84375 135.320312 210.1875 136.042969 210.121094 C 140.960938 209.621094 144.878906 207.191406 146.523438 203.617188 C 146.996094 202.59375 147.117188 201.660156 147.15625 200.570312 C 147.179688 199.832031 147.785156 199.230469 148.523438 199.292969 C 149.257812 199.320312 149.824219 199.9375 149.796875 200.660156 C 149.757812 201.871094 149.613281 203.195312 148.929688 204.707031 C 146.890625 209.148438 142.171875 212.15625 136.304688 212.75 C 136.265625 212.761719 136.214844 212.761719 136.171875 212.761719 Z M 287.296875 212.761719 C 287.257812 212.761719 287.207031 212.761719 287.164062 212.761719 C 281.289062 212.171875 276.578125 209.164062 274.539062 204.722656 C 273.855469 203.222656 273.710938 201.882812 273.671875 200.675781 C 273.644531 199.9375 274.210938 199.332031 274.949219 199.308594 C 275.671875 199.253906 276.289062 199.847656 276.316406 200.582031 C 276.355469 201.671875 276.472656 202.605469 276.945312 203.628906 C 278.589844 207.203125 282.511719 209.648438 287.429688 210.132812 C 288.152344 210.214844 288.691406 210.855469 288.613281 211.578125 C 288.546875 212.25 287.96875 212.761719 287.296875 212.761719 Z M 287.296875 212.761719 " fill-opacity="1" fill-rule="nonzero"/><path fill="#fffbfa" d="M 187.386719 230.304688 C 184.453125 230.871094 181.347656 230.972656 178.375 230.894531 C 168.527344 230.632812 158.742188 227.875 149.546875 224.878906 C 139.710938 221.671875 130.242188 217.742188 120.800781 213.707031 C 101.636719 205.507812 78.148438 192.449219 57.316406 188.597656 L 55.003906 187.046875 C 55.765625 186.8125 56.949219 183.015625 57.238281 182.382812 C 58.871094 178.769531 60.304688 172.542969 63.328125 169.714844 C 65.417969 167.773438 69.8125 168.402344 72.441406 168.535156 C 81.175781 168.96875 89.921875 170.148438 98.429688 171.976562 C 127.535156 178.246094 158.125 190.070312 182.152344 206.574219 C 183.546875 207.53125 185.414062 208.78125 187.371094 210.226562 C 189.332031 208.78125 191.210938 207.519531 192.59375 206.574219 C 216.621094 190.070312 247.226562 178.246094 276.316406 171.976562 C 284.824219 170.148438 293.570312 168.96875 302.304688 168.535156 C 304.933594 168.402344 309.328125 167.757812 311.417969 169.714844 C 314.441406 172.542969 315.875 178.769531 317.507812 182.382812 C 317.796875 183.015625 318.980469 186.8125 319.742188 187.046875 L 317.425781 188.597656 C 296.59375 192.449219 273.105469 205.507812 253.945312 213.707031 C 244.503906 217.742188 235.035156 221.671875 225.195312 224.878906 C 216.003906 227.875 206.21875 230.632812 196.367188 230.894531 C 193.410156 230.972656 190.320312 230.871094 187.386719 230.304688 Z M 187.386719 230.304688 " fill-opacity="1" fill-rule="evenodd"/><path fill="#000000" d="M 180.058594 232.25 C 179.496094 232.25 178.929688 232.234375 178.335938 232.222656 C 168.222656 231.945312 158.320312 229.132812 149.128906 226.140625 C 138.871094 222.789062 128.847656 218.597656 120.273438 214.917969 C 115.222656 212.761719 109.949219 210.292969 104.375 207.691406 C 89.328125 200.660156 72.269531 192.710938 57.082031 189.898438 C 56.898438 189.859375 56.738281 189.792969 56.582031 189.703125 L 54.265625 188.152344 C 53.84375 187.863281 53.621094 187.363281 53.6875 186.863281 C 53.742188 186.457031 53.976562 186.113281 54.320312 185.917969 C 54.714844 185.390625 55.4375 183.421875 55.671875 182.75 C 55.832031 182.332031 55.949219 182.003906 56.015625 181.84375 C 56.460938 180.847656 56.910156 179.609375 57.382812 178.296875 C 58.621094 174.867188 60.011719 170.976562 62.40625 168.757812 C 64.644531 166.679688 68.523438 166.957031 71.351562 167.15625 C 71.757812 167.179688 72.140625 167.207031 72.496094 167.234375 C 81.199219 167.667969 90.011719 168.835938 98.691406 170.703125 C 130.191406 177.480469 160.082031 189.847656 182.886719 205.507812 L 183.769531 206.113281 C 184.808594 206.824219 186.058594 207.675781 187.359375 208.609375 C 188.675781 207.664062 189.910156 206.808594 190.949219 206.101562 L 191.832031 205.496094 C 214.636719 189.832031 244.542969 177.46875 276.027344 170.6875 C 284.707031 168.824219 293.53125 167.652344 302.238281 167.21875 C 302.59375 167.207031 302.972656 167.179688 303.382812 167.140625 C 306.222656 166.945312 310.089844 166.667969 312.324219 168.746094 C 314.71875 170.964844 316.113281 174.855469 317.347656 178.285156 C 317.820312 179.597656 318.269531 180.832031 318.714844 181.832031 C 318.78125 181.988281 318.914062 182.316406 319.058594 182.738281 C 319.296875 183.410156 320.019531 185.378906 320.414062 185.90625 C 320.753906 186.101562 320.992188 186.457031 321.042969 186.851562 C 321.125 187.351562 320.898438 187.847656 320.464844 188.136719 L 318.152344 189.6875 C 317.992188 189.792969 317.835938 189.859375 317.652344 189.898438 C 302.449219 192.710938 285.402344 200.675781 270.359375 207.691406 C 264.78125 210.292969 259.507812 212.75 254.457031 214.917969 C 245.871094 218.582031 235.863281 222.789062 225.605469 226.140625 C 216.410156 229.132812 206.507812 231.945312 196.394531 232.222656 C 192.882812 232.316406 189.925781 232.128906 187.347656 231.65625 C 185.242188 232.050781 182.835938 232.25 180.058594 232.25 Z M 57.816406 187.351562 C 73.269531 190.265625 90.378906 198.242188 105.476562 205.300781 C 111.042969 207.886719 116.289062 210.34375 121.300781 212.488281 C 129.820312 216.140625 139.777344 220.304688 149.945312 223.617188 C 158.9375 226.546875 168.617188 229.304688 178.402344 229.566406 C 181.835938 229.660156 184.691406 229.476562 187.121094 229.003906 C 187.292969 228.964844 187.464844 228.964844 187.636719 229.003906 C 190.070312 229.476562 192.921875 229.660156 196.355469 229.566406 C 206.125 229.304688 215.804688 226.546875 224.816406 223.617188 C 234.96875 220.304688 244.921875 216.125 253.457031 212.488281 C 258.46875 210.34375 263.71875 207.886719 269.28125 205.300781 C 284.378906 198.257812 301.488281 190.265625 316.941406 187.351562 L 317.863281 186.734375 C 317.480469 185.996094 317.085938 185 316.597656 183.644531 C 316.480469 183.304688 316.386719 183.039062 316.324219 182.921875 C 315.835938 181.832031 315.363281 180.542969 314.875 179.175781 C 313.746094 176.035156 312.457031 172.460938 310.535156 170.675781 C 309.140625 169.386719 305.933594 169.613281 303.578125 169.78125 C 303.15625 169.808594 302.75 169.835938 302.382812 169.859375 C 293.820312 170.28125 285.140625 171.4375 276.605469 173.277344 C 245.4375 179.992188 215.871094 192.199219 193.34375 207.675781 L 192.460938 208.28125 C 191.238281 209.121094 189.714844 210.160156 188.160156 211.304688 C 187.6875 211.644531 187.058594 211.644531 186.582031 211.304688 C 185.03125 210.160156 183.507812 209.121094 182.28125 208.28125 L 181.386719 207.664062 C 158.859375 192.199219 129.296875 179.980469 98.140625 173.265625 C 89.605469 171.425781 80.925781 170.28125 72.363281 169.847656 C 71.996094 169.835938 71.585938 169.796875 71.164062 169.769531 C 68.8125 169.597656 65.601562 169.375 64.207031 170.675781 C 62.289062 172.460938 61 176.023438 59.867188 179.175781 C 59.382812 180.542969 58.910156 181.820312 58.421875 182.910156 C 58.371094 183.027344 58.277344 183.304688 58.144531 183.632812 C 57.660156 184.972656 57.265625 185.984375 56.882812 186.71875 Z M 54.59375 185.785156 Z M 320.164062 185.785156 Z M 320.164062 185.785156 " fill-opacity="1" fill-rule="nonzero"/><path fill="#fff100" d="M 187.386719 222.027344 C 190.304688 222.011719 193.027344 222.011719 194.367188 222.027344 C 196.339844 220.84375 201.0625 218.464844 201.851562 218.003906 C 204.441406 216.480469 206.996094 214.90625 209.613281 213.40625 C 217.726562 208.792969 226.105469 204.535156 234.597656 200.542969 C 255.589844 190.6875 293.914062 180.820312 324.265625 184.523438 C 324.265625 184.523438 323.136719 197.574219 322.175781 206.96875 C 320.28125 225.5625 318.097656 245.507812 315.597656 264.046875 C 314.664062 271 311.929688 289.132812 311.929688 289.132812 C 309.800781 290.144531 275.972656 301.480469 262.492188 306.160156 C 255.96875 308.421875 249.710938 311.246094 243.34375 313.859375 C 235.652344 317.039062 228.207031 320.457031 220.882812 324.304688 C 207.730469 331.230469 197.921875 336.316406 195.132812 337.761719 C 195.066406 337.851562 195.011719 337.933594 194.949219 337.972656 C 194.949219 337.972656 194.867188 337.972656 194.710938 337.972656 C 194.460938 338.101562 194.316406 338.167969 194.316406 338.167969 C 193.789062 338.15625 190.609375 338.101562 187.347656 338.0625 C 184.085938 338.101562 180.902344 338.15625 180.375 338.167969 C 180.375 338.167969 180.246094 338.101562 179.980469 337.972656 C 179.824219 337.972656 179.746094 337.972656 179.746094 337.972656 C 179.679688 337.933594 179.625 337.851562 179.558594 337.761719 C 176.773438 336.316406 166.960938 331.242188 153.808594 324.304688 C 146.496094 320.457031 139.054688 317.027344 131.347656 313.859375 C 124.996094 311.246094 118.722656 308.421875 112.210938 306.160156 C 98.730469 301.480469 64.894531 290.144531 62.773438 289.132812 C 62.773438 289.132812 60.039062 271 59.105469 264.046875 C 56.605469 245.507812 54.425781 225.5625 52.53125 206.96875 C 51.570312 197.574219 50.4375 184.523438 50.4375 184.523438 C 80.792969 180.820312 119.128906 190.6875 140.121094 200.542969 C 148.613281 204.535156 156.992188 208.78125 165.105469 213.40625 C 167.722656 214.890625 170.277344 216.46875 172.867188 218.003906 C 173.65625 218.476562 178.375 220.84375 180.347656 222.027344 C 181.742188 222.027344 184.464844 222.027344 187.386719 222.027344 Z M 187.386719 222.027344 " fill-opacity="1" fill-rule="evenodd"/><path fill="#000000" d="M 180.414062 339.523438 C 180.203125 339.523438 179.996094 339.46875 179.808594 339.378906 L 179.691406 339.3125 C 179.441406 339.296875 179.21875 339.207031 179.007812 339.0625 C 178.917969 338.996094 178.824219 338.90625 178.730469 338.8125 C 176.300781 337.5625 166.460938 332.453125 153.230469 325.488281 C 146.246094 321.808594 138.9375 318.40625 130.886719 315.09375 C 129.203125 314.398438 127.519531 313.6875 125.851562 312.980469 C 121.285156 311.046875 116.578125 309.0625 111.816406 307.410156 C 106.925781 305.714844 99.363281 303.136719 91.617188 300.511719 C 74.730469 294.769531 63.5625 290.957031 62.234375 290.328125 C 61.839844 290.144531 61.566406 289.761719 61.488281 289.328125 C 61.460938 289.144531 58.75 271.101562 57.816406 264.21875 C 55.671875 248.359375 53.59375 230.199219 51.242188 207.097656 C 50.292969 197.796875 49.164062 184.761719 49.148438 184.628906 C 49.085938 183.921875 49.597656 183.289062 50.308594 183.199219 C 79.515625 179.636719 117.894531 188.613281 140.710938 199.332031 C 149.929688 203.667969 158.136719 207.886719 165.789062 212.238281 C 167.5 213.210938 169.171875 214.207031 170.855469 215.21875 C 171.761719 215.757812 172.667969 216.308594 173.578125 216.847656 C 173.851562 217.019531 174.65625 217.425781 175.640625 217.941406 C 177.246094 218.78125 179.402344 219.898438 180.742188 220.6875 C 182.175781 220.671875 184.691406 220.6875 187.371094 220.6875 C 190.042969 220.6875 192.554688 220.671875 194 220.6875 C 195.328125 219.910156 197.484375 218.78125 199.089844 217.953125 C 200.078125 217.441406 200.878906 217.019531 201.167969 216.847656 C 202.0625 216.324219 202.96875 215.785156 203.863281 215.246094 C 205.546875 214.234375 207.246094 213.222656 208.953125 212.25 C 216.609375 207.902344 224.816406 203.683594 234.035156 199.347656 C 256.839844 188.625 295.214844 179.648438 324.4375 183.210938 C 325.148438 183.289062 325.660156 183.933594 325.59375 184.644531 C 325.582031 184.773438 324.449219 197.808594 323.503906 207.113281 C 321.148438 230.25 319.058594 248.410156 316.925781 264.230469 C 315.992188 271.117188 313.285156 289.15625 313.257812 289.339844 C 313.191406 289.773438 312.917969 290.15625 312.507812 290.339844 C 311.179688 290.96875 300.027344 294.78125 283.167969 300.511719 C 275.410156 303.152344 267.832031 305.726562 262.941406 307.421875 C 258.191406 309.078125 253.472656 311.0625 248.910156 312.980469 C 247.226562 313.6875 245.554688 314.398438 243.859375 315.09375 C 235.796875 318.417969 228.484375 321.824219 221.515625 325.488281 C 208.558594 332.308594 199.011719 337.261719 196.011719 338.8125 C 195.933594 338.90625 195.84375 338.984375 195.738281 339.0625 C 195.539062 339.207031 195.304688 339.285156 195.066406 339.3125 L 194.949219 339.378906 C 194.75 339.484375 194.527344 339.546875 194.289062 339.523438 C 193.765625 339.507812 190.59375 339.457031 187.347656 339.417969 C 184.136719 339.457031 180.96875 339.507812 180.441406 339.523438 C 180.441406 339.523438 180.429688 339.523438 180.414062 339.523438 Z M 187.359375 336.761719 C 190.226562 336.800781 193 336.839844 194.039062 336.855469 L 194.132812 336.816406 C 194.199219 336.777344 194.277344 336.75 194.34375 336.722656 C 194.410156 336.671875 194.472656 336.632812 194.539062 336.59375 C 197.195312 335.210938 206.929688 330.179688 220.277344 323.148438 C 227.328125 319.429688 234.703125 316 242.84375 312.652344 C 244.527344 311.953125 246.199219 311.257812 247.871094 310.546875 C 252.472656 308.605469 257.21875 306.605469 262.058594 304.925781 C 266.953125 303.230469 274.539062 300.65625 282.300781 298 C 294.1875 293.953125 307.523438 289.421875 310.734375 288.199219 C 311.257812 284.714844 313.46875 269.933594 314.285156 263.875 C 316.414062 248.082031 318.507812 229.949219 320.847656 206.835938 C 321.621094 199.269531 322.515625 189.214844 322.820312 185.695312 C 294.269531 182.59375 257.285156 191.34375 235.136719 201.738281 C 225.972656 206.035156 217.832031 210.226562 210.242188 214.550781 C 208.546875 215.507812 206.875 216.519531 205.207031 217.519531 C 204.296875 218.058594 203.402344 218.597656 202.496094 219.136719 C 202.195312 219.320312 201.351562 219.753906 200.300781 220.304688 C 198.578125 221.199219 196.238281 222.421875 195.027344 223.15625 C 194.816406 223.289062 194.566406 223.367188 194.328125 223.339844 C 192.988281 223.328125 190.265625 223.328125 187.359375 223.339844 C 187.359375 223.339844 187.359375 223.339844 187.347656 223.339844 C 184.441406 223.339844 181.71875 223.328125 180.375 223.339844 C 180.140625 223.351562 179.890625 223.273438 179.679688 223.144531 C 178.46875 222.40625 176.113281 221.183594 174.390625 220.292969 C 173.339844 219.738281 172.5 219.304688 172.195312 219.121094 C 171.273438 218.582031 170.367188 218.03125 169.460938 217.492188 C 167.804688 216.496094 166.144531 215.496094 164.449219 214.535156 C 156.859375 210.214844 148.707031 206.023438 139.554688 201.726562 C 117.417969 191.320312 80.425781 182.582031 51.871094 185.679688 C 52.1875 189.203125 53.082031 199.253906 53.84375 206.824219 C 56.1875 229.910156 58.277344 248.03125 60.40625 263.863281 C 61.222656 269.921875 63.433594 284.703125 63.957031 288.183594 C 67.167969 289.40625 80.515625 293.953125 92.417969 298 C 100.179688 300.640625 107.738281 303.21875 112.632812 304.910156 C 117.472656 306.59375 122.21875 308.605469 126.824219 310.535156 C 128.492188 311.246094 130.164062 311.941406 131.847656 312.636719 C 139.972656 315.988281 147.367188 319.417969 154.414062 323.136719 C 168.171875 330.375 178.273438 335.605469 180.152344 336.578125 C 180.21875 336.617188 180.296875 336.65625 180.347656 336.710938 C 180.429688 336.738281 180.496094 336.761719 180.574219 336.800781 L 180.664062 336.839844 C 181.757812 336.839844 184.53125 336.800781 187.359375 336.761719 Z M 187.359375 336.761719 " fill-opacity="1" fill-rule="nonzero"/><path fill="#000000" d="M 195.25 330.375 C 194.527344 330.375 193.921875 329.785156 193.921875 329.0625 L 193.476562 235.019531 C 193.476562 234.285156 194.066406 233.695312 194.789062 233.695312 C 195.511719 233.695312 196.117188 234.285156 196.117188 235.007812 L 196.566406 329.050781 C 196.578125 329.773438 195.988281 330.375 195.25 330.375 C 195.261719 330.375 195.261719 330.375 195.25 330.375 Z M 179.351562 330.375 C 178.625 330.375 178.023438 329.785156 178.023438 329.0625 L 177.574219 235.019531 C 177.574219 234.285156 178.167969 233.695312 178.890625 233.695312 C 179.613281 233.695312 180.21875 234.285156 180.21875 235.007812 L 180.664062 329.050781 C 180.679688 329.773438 180.085938 330.375 179.351562 330.375 Z M 179.351562 330.375 " fill-opacity="1" fill-rule="nonzero"/><path fill="#fffbfa" d="M 60.078125 271.144531 C 57.210938 272.011719 53.359375 271.457031 51.082031 270.957031 C 42.046875 268.949219 33.632812 263.640625 29.648438 255.058594 C 27.253906 249.910156 26.753906 243.417969 29.949219 238.492188 C 30.882812 237.042969 32.121094 235.824219 33.539062 234.851562 C 33.800781 234.667969 35.222656 233.785156 35.222656 233.785156 C 35.222656 233.785156 33.277344 227.320312 33.894531 219.804688 C 34.867188 207.941406 41.089844 196.863281 53.792969 195.445312 C 58.949219 194.867188 64.644531 197.625 66.101562 202.855469 C 66.429688 204.050781 66.523438 205.324219 66.328125 206.5625 C 66.300781 206.691406 65.785156 208.359375 65.800781 208.375 C 65.800781 208.375 68.757812 208.152344 70.0625 208.359375 C 75.570312 209.226562 77.398438 212.671875 77.636719 216.179688 C 77.847656 219.121094 77.164062 221.632812 76.191406 224.21875 C 75.875 225.0625 74.21875 228.453125 74.21875 228.453125 C 74.21875 228.453125 77.582031 229.292969 78.914062 230.171875 C 83.671875 233.351562 83.503906 238.714844 81.898438 242.183594 C 79.515625 247.28125 73.535156 250.015625 68.601562 251.933594 C 66.300781 252.824219 62.710938 253.285156 61.144531 255.414062 C 58.5 258.9375 59.761719 267.09375 60.078125 271.144531 Z M 60.078125 271.144531 " fill-opacity="1" fill-rule="evenodd"/><path fill="#000000" d="M 56.488281 272.929688 C 54.28125 272.929688 52.160156 272.5625 50.792969 272.257812 C 40.429688 269.945312 32.277344 263.890625 28.4375 255.625 C 25.554688 249.4375 25.714844 242.589844 28.832031 237.765625 C 29.832031 236.21875 31.160156 234.863281 32.777344 233.761719 C 32.894531 233.667969 33.304688 233.417969 33.683594 233.183594 C 33.15625 231.054688 32.078125 225.730469 32.566406 219.6875 C 33.488281 208.359375 39.511719 195.695312 53.636719 194.117188 C 58.972656 193.511719 65.617188 196.246094 67.363281 202.488281 C 67.757812 203.878906 67.839844 205.363281 67.613281 206.757812 C 67.613281 206.785156 67.601562 206.851562 67.574219 206.941406 C 68.496094 206.914062 69.546875 206.929688 70.246094 207.035156 C 75.507812 207.847656 78.582031 211.054688 78.9375 216.0625 C 79.175781 219.398438 78.347656 222.15625 77.414062 224.652344 C 77.214844 225.179688 76.585938 226.519531 76.070312 227.585938 C 77.230469 227.9375 78.742188 228.464844 79.621094 229.054688 C 84.789062 232.523438 85.082031 238.410156 83.066406 242.722656 C 80.554688 248.082031 74.570312 251 69.046875 253.140625 C 68.378906 253.402344 67.65625 253.613281 66.890625 253.835938 C 65.089844 254.363281 63.066406 254.96875 62.171875 256.164062 C 60.210938 258.816406 60.828125 265.257812 61.195312 269.117188 C 61.261719 269.828125 61.328125 270.472656 61.367188 271.050781 C 61.421875 271.667969 61.027344 272.246094 60.433594 272.417969 C 59.210938 272.785156 57.832031 272.929688 56.488281 272.929688 Z M 55.160156 196.679688 C 54.753906 196.679688 54.34375 196.707031 53.949219 196.746094 C 38.195312 198.507812 35.628906 214.917969 35.222656 219.898438 C 34.644531 227.058594 36.484375 233.339844 36.5 233.390625 C 36.667969 233.96875 36.433594 234.574219 35.933594 234.890625 C 35.933594 234.890625 34.550781 235.742188 34.300781 235.929688 C 32.972656 236.847656 31.894531 237.9375 31.082031 239.199219 C 27.9375 244.0625 28.910156 250.289062 30.855469 254.496094 C 34.34375 261.996094 41.824219 267.527344 51.386719 269.65625 C 52.753906 269.960938 55.976562 270.550781 58.671875 270.105469 C 58.644531 269.867188 58.621094 269.617188 58.605469 269.355469 C 58.144531 264.585938 57.515625 258.042969 60.09375 254.574219 C 61.511719 252.65625 64 251.917969 66.195312 251.273438 C 66.90625 251.066406 67.574219 250.867188 68.140625 250.644531 C 73.179688 248.6875 78.609375 246.070312 80.714844 241.566406 C 81.859375 239.121094 82.621094 234.179688 78.203125 231.222656 C 77.386719 230.671875 75.136719 229.988281 73.929688 229.6875 C 73.535156 229.59375 73.21875 229.320312 73.046875 228.964844 C 72.875 228.597656 72.875 228.1875 73.058594 227.820312 C 73.71875 226.480469 74.769531 224.273438 74.992188 223.695312 C 75.820312 221.488281 76.558594 219.042969 76.359375 216.21875 C 76.097656 212.472656 73.914062 210.253906 69.902344 209.621094 C 68.96875 209.476562 66.734375 209.597656 65.945312 209.648438 C 65.65625 209.675781 65.351562 209.597656 65.117188 209.425781 C 64.289062 208.875 64.5 208.203125 64.828125 207.085938 C 64.933594 206.730469 65.050781 206.351562 65.078125 206.230469 C 65.222656 205.285156 65.15625 204.207031 64.867188 203.171875 C 63.605469 198.808594 59.160156 196.679688 55.160156 196.679688 Z M 55.160156 196.679688 " fill-opacity="1" fill-rule="nonzero"/><path fill="#fffbfa" d="M 315.058594 271.144531 C 317.925781 272.011719 321.78125 271.457031 324.054688 270.957031 C 333.089844 268.949219 341.507812 263.640625 345.492188 255.058594 C 347.886719 249.910156 348.386719 243.417969 345.191406 238.492188 C 344.257812 237.042969 343.019531 235.824219 341.601562 234.851562 C 341.335938 234.667969 339.917969 233.785156 339.917969 233.785156 C 339.917969 233.785156 341.863281 227.320312 341.246094 219.804688 C 340.273438 207.941406 334.050781 196.863281 321.347656 195.445312 C 316.191406 194.867188 310.496094 197.625 309.035156 202.855469 C 308.707031 204.050781 308.617188 205.324219 308.8125 206.5625 C 308.839844 206.691406 309.351562 208.359375 309.339844 208.375 C 309.339844 208.375 306.378906 208.152344 305.078125 208.359375 C 299.566406 209.226562 297.738281 212.671875 297.503906 216.179688 C 297.292969 219.121094 297.976562 221.632812 298.949219 224.21875 C 299.265625 225.0625 300.921875 228.453125 300.921875 228.453125 C 300.921875 228.453125 297.554688 229.292969 296.226562 230.171875 C 291.464844 233.351562 291.636719 238.714844 293.242188 242.183594 C 295.621094 247.28125 301.605469 250.015625 306.539062 251.933594 C 308.839844 252.824219 312.429688 253.285156 313.996094 255.414062 C 316.636719 258.9375 315.375 267.09375 315.058594 271.144531 Z M 315.058594 271.144531 " fill-opacity="1" fill-rule="evenodd"/><path fill="#000000" d="M 318.652344 272.929688 C 317.308594 272.929688 315.929688 272.785156 314.679688 272.417969 C 314.085938 272.234375 313.691406 271.667969 313.746094 271.050781 C 313.785156 270.484375 313.851562 269.828125 313.917969 269.132812 C 314.285156 265.28125 314.914062 258.832031 312.941406 256.175781 C 312.046875 254.980469 310.023438 254.375 308.222656 253.851562 C 307.457031 253.628906 306.734375 253.417969 306.066406 253.152344 C 300.542969 251 294.558594 248.082031 292.046875 242.734375 C 290.03125 238.425781 290.324219 232.539062 295.492188 229.070312 C 296.371094 228.476562 297.882812 227.953125 299.042969 227.597656 C 298.527344 226.53125 297.898438 225.191406 297.699219 224.667969 C 296.765625 222.183594 295.9375 219.410156 296.175781 216.074219 C 296.53125 211.066406 299.621094 207.863281 304.867188 207.046875 C 305.566406 206.941406 306.617188 206.929688 307.539062 206.953125 C 307.511719 206.863281 307.5 206.796875 307.5 206.785156 C 307.273438 205.363281 307.367188 203.894531 307.746094 202.5 C 309.496094 196.257812 316.125 193.527344 321.476562 194.128906 C 335.601562 195.707031 341.625 208.375 342.546875 219.699219 C 343.035156 225.730469 341.953125 231.054688 341.429688 233.195312 C 341.808594 233.429688 342.203125 233.679688 342.335938 233.773438 C 343.953125 234.890625 345.28125 236.242188 346.28125 237.792969 C 349.398438 242.617188 349.554688 249.449219 346.675781 255.652344 C 342.835938 263.914062 334.695312 269.972656 324.320312 272.285156 C 322.976562 272.5625 320.859375 272.929688 318.652344 272.929688 Z M 316.480469 270.117188 C 319.164062 270.566406 322.386719 269.972656 323.765625 269.671875 C 333.328125 267.542969 340.8125 262.023438 344.296875 254.507812 C 346.253906 250.289062 347.214844 244.0625 344.074219 239.214844 C 343.257812 237.953125 342.179688 236.859375 340.851562 235.941406 C 340.601562 235.769531 339.21875 234.902344 339.21875 234.902344 C 338.71875 234.585938 338.484375 233.96875 338.652344 233.40625 C 338.667969 233.339844 340.523438 227.070312 339.929688 219.910156 C 339.523438 214.929688 336.96875 198.519531 321.203125 196.757812 C 316.929688 196.273438 311.667969 198.375 310.324219 203.210938 C 310.035156 204.234375 309.96875 205.324219 310.140625 206.351562 C 310.15625 206.390625 310.273438 206.757812 310.378906 207.125 C 310.71875 208.253906 310.90625 208.886719 310.140625 209.4375 C 309.890625 209.621094 309.574219 209.714844 309.261719 209.6875 C 308.472656 209.636719 306.25 209.515625 305.300781 209.660156 C 301.277344 210.292969 299.09375 212.511719 298.832031 216.257812 C 298.632812 219.097656 299.371094 221.527344 300.199219 223.746094 C 300.410156 224.324219 301.460938 226.519531 302.121094 227.859375 C 302.289062 228.214844 302.304688 228.636719 302.132812 229.003906 C 301.960938 229.371094 301.632812 229.632812 301.25 229.726562 C 300.027344 230.027344 297.792969 230.710938 296.976562 231.261719 C 292.558594 234.21875 293.320312 239.160156 294.464844 241.605469 C 296.570312 246.113281 302 248.726562 307.039062 250.683594 C 307.601562 250.90625 308.273438 251.105469 308.984375 251.316406 C 311.179688 251.957031 313.667969 252.695312 315.085938 254.613281 C 317.652344 258.082031 317.019531 264.625 316.558594 269.394531 C 316.53125 269.632812 316.507812 269.882812 316.480469 270.117188 Z M 316.480469 270.117188 " fill-opacity="1" fill-rule="nonzero"/><path fill="#000000" d="M 44.191406 252.246094 C 43.890625 252.246094 43.574219 252.140625 43.324219 251.933594 C 38.207031 247.558594 35.839844 240.867188 34.5 236.230469 C 34.105469 234.835938 33.789062 233.667969 33.566406 232.445312 L 33.527344 232.261719 C 33.449219 231.867188 33.304688 231.09375 33.277344 230.894531 C 33.222656 230.160156 33.761719 229.527344 34.488281 229.464844 C 35.234375 229.410156 35.855469 229.949219 35.90625 230.671875 C 35.933594 230.871094 36.050781 231.449219 36.105469 231.75 L 36.144531 231.972656 C 36.355469 233.089844 36.644531 234.195312 37.023438 235.507812 C 38.996094 242.367188 41.535156 246.953125 45.019531 249.933594 C 45.574219 250.40625 45.640625 251.25 45.164062 251.800781 C 44.941406 252.089844 44.574219 252.246094 44.191406 252.246094 Z M 330.945312 252.246094 C 330.578125 252.246094 330.199219 252.089844 329.933594 251.789062 C 329.460938 251.234375 329.527344 250.394531 330.078125 249.921875 C 333.5625 246.9375 336.101562 242.351562 338.074219 235.496094 C 338.457031 234.179688 338.746094 233.078125 338.945312 231.960938 L 338.96875 231.800781 C 339.023438 231.511719 339.167969 230.871094 339.179688 230.660156 C 339.257812 229.9375 339.929688 229.421875 340.625 229.476562 C 341.351562 229.542969 341.875 230.160156 341.824219 230.882812 C 341.808594 231.09375 341.640625 231.960938 341.558594 232.328125 C 341.3125 233.667969 340.996094 234.835938 340.601562 236.230469 C 339.273438 240.882812 336.90625 247.558594 331.777344 251.945312 C 331.550781 252.140625 331.25 252.246094 330.945312 252.246094 Z M 322.554688 241.460938 C 322.058594 241.460938 321.582031 241.183594 321.359375 240.699219 C 318.730469 235.152344 314.375 231.65625 308.40625 230.292969 C 306.210938 229.792969 302.277344 229.566406 300.160156 230.054688 C 299.449219 230.226562 298.738281 229.765625 298.566406 229.054688 C 298.410156 228.347656 298.859375 227.636719 299.566406 227.464844 C 302.160156 226.875 306.484375 227.125 308.996094 227.703125 C 315.796875 229.253906 320.769531 233.246094 323.753906 239.554688 C 324.070312 240.210938 323.78125 241 323.121094 241.316406 C 322.9375 241.421875 322.753906 241.460938 322.554688 241.460938 Z M 52.582031 241.460938 C 52.398438 241.460938 52.203125 241.421875 52.015625 241.328125 C 51.359375 241.011719 51.070312 240.226562 51.386719 239.566406 C 54.382812 233.246094 59.34375 229.265625 66.140625 227.714844 C 68.652344 227.136719 72.980469 226.886719 75.570312 227.480469 C 76.28125 227.636719 76.730469 228.347656 76.570312 229.070312 C 76.414062 229.777344 75.691406 230.238281 74.980469 230.066406 C 72.847656 229.582031 68.929688 229.804688 66.734375 230.304688 C 60.761719 231.671875 56.410156 235.164062 53.78125 240.710938 C 53.554688 241.183594 53.082031 241.460938 52.582031 241.460938 Z M 327.789062 227.097656 C 327.210938 227.097656 326.671875 226.703125 326.515625 226.125 C 325.015625 220.605469 320.898438 215.917969 314.296875 212.210938 L 313.957031 212.011719 C 312.273438 211.054688 310.167969 209.871094 307.773438 209.609375 C 307.050781 209.53125 306.523438 208.875 306.605469 208.152344 C 306.683594 207.429688 307.328125 206.890625 308.0625 206.980469 C 310.996094 207.296875 313.46875 208.6875 315.269531 209.714844 L 315.597656 209.898438 C 322.742188 213.917969 327.410156 219.292969 329.078125 225.429688 C 329.277344 226.140625 328.855469 226.863281 328.144531 227.058594 C 328.027344 227.085938 327.910156 227.097656 327.789062 227.097656 Z M 47.347656 227.097656 C 47.230469 227.097656 47.113281 227.085938 47.007812 227.046875 C 46.296875 226.847656 45.890625 226.125 46.074219 225.417969 C 47.742188 219.265625 52.398438 213.90625 59.554688 209.886719 L 59.882812 209.699219 C 61.683594 208.6875 64.144531 207.296875 67.074219 206.96875 C 67.8125 206.890625 68.457031 207.414062 68.535156 208.136719 C 68.613281 208.859375 68.089844 209.515625 67.363281 209.597656 C 64.972656 209.859375 62.867188 211.042969 61.183594 212 L 60.84375 212.199219 C 54.238281 215.917969 50.125 220.59375 48.625 226.113281 C 48.464844 226.71875 47.925781 227.097656 47.347656 227.097656 Z M 47.347656 227.097656 " fill-opacity="1" fill-rule="nonzero"/></svg>