<svg xmlns="http://www.w3.org/2000/svg" xmlns:xlink="http://www.w3.org/1999/xlink" width="500" zoomAndPan="magnify" viewBox="0 0 375 374.999991" height="500" preserveAspectRatio="xMidYMid meet" version="1.0"><defs><clipPath id="c493694080"><path d="M 164.632812 150.28125 L 210.367188 150.28125 L 210.367188 224.78125 L 164.632812 224.78125 Z M 164.632812 150.28125 " clip-rule="nonzero"/></clipPath><clipPath id="56718aff2e"><path d="M 181.882812 150.28125 L 193.117188 150.28125 C 197.691406 150.28125 202.082031 152.097656 205.316406 155.332031 C 208.550781 158.566406 210.367188 162.957031 210.367188 167.53125 L 210.367188 207.46875 C 210.367188 212.042969 208.550781 216.433594 205.316406 219.667969 C 202.082031 222.902344 197.691406 224.71875 193.117188 224.71875 L 181.882812 224.71875 C 177.308594 224.71875 172.917969 222.902344 169.683594 219.667969 C 166.449219 216.433594 164.632812 212.042969 164.632812 207.46875 L 164.632812 167.53125 C 164.632812 162.957031 166.449219 158.566406 169.683594 155.332031 C 172.917969 152.097656 177.308594 150.28125 181.882812 150.28125 Z M 181.882812 150.28125 " clip-rule="nonzero"/></clipPath><clipPath id="d152a80f3d"><path d="M 77 23.484375 L 268 23.484375 L 268 90 L 77 90 Z M 77 23.484375 " clip-rule="nonzero"/></clipPath><clipPath id="38b985fd97"><path d="M 5.511719 188 L 122 188 L 122 314 L 5.511719 314 Z M 5.511719 188 " clip-rule="nonzero"/></clipPath></defs><g clip-path="url(#c493694080)"><g clip-path="url(#56718aff2e)"><path fill="#65a1b7" d="M 164.632812 150.28125 L 210.367188 150.28125 L 210.367188 224.78125 L 164.632812 224.78125 Z M 164.632812 150.28125 " fill-opacity="1" fill-rule="nonzero"/></g></g><path fill="#000000" d="M 196.140625 271.796875 C 196.265625 271.785156 195.964844 272.621094 195.941406 272.695312 C 195.789062 273.242188 195.640625 273.792969 195.515625 274.339844 C 195.128906 276 194.769531 277.65625 194.382812 279.316406 C 193.644531 282.492188 192.949219 285.683594 192.324219 288.890625 C 192.050781 290.308594 191.949219 292.304688 191.214844 293.589844 C 190.191406 295.371094 186.226562 295.535156 184.554688 295.757812 C 178.734375 296.542969 172.785156 297.515625 166.898438 297.140625 C 163.632812 296.929688 160.351562 296.445312 157.308594 295.195312 C 156.4375 294.835938 155.128906 294.460938 154.667969 293.5625 C 154.117188 292.515625 154.441406 290.945312 154.515625 289.835938 C 154.691406 287.394531 154.929688 284.949219 155.179688 282.519531 C 155.476562 279.578125 155.765625 276.621094 156.136719 273.691406 C 156.363281 271.933594 156.585938 269.941406 157.871094 268.582031 C 160.402344 265.875 165.464844 266.699219 168.746094 266.8125 C 175.066406 267.023438 181.339844 267.707031 187.5625 268.84375 C 190.203125 269.328125 193.496094 269.640625 195.953125 270.875 " fill-opacity="1" fill-rule="nonzero"/><path fill="#000000" d="M 169.628906 298.449219 C 168.695312 298.449219 167.746094 298.425781 166.8125 298.363281 C 162.734375 298.101562 159.566406 297.453125 156.835938 296.320312 L 156.4375 296.167969 C 155.488281 295.808594 154.179688 295.296875 153.570312 294.125 C 152.957031 292.953125 153.109375 291.53125 153.21875 290.386719 C 153.246094 290.160156 153.269531 289.949219 153.28125 289.75 C 153.457031 287.230469 153.71875 284.664062 153.945312 282.394531 L 154.03125 281.519531 C 154.292969 278.902344 154.566406 276.1875 154.917969 273.519531 L 154.941406 273.367188 C 155.179688 271.574219 155.464844 269.34375 156.972656 267.734375 C 159.515625 265.027344 163.769531 265.289062 167.199219 265.488281 C 167.757812 265.527344 168.296875 265.550781 168.78125 265.578125 C 175.066406 265.789062 181.464844 266.476562 187.785156 267.621094 C 188.320312 267.722656 188.871094 267.808594 189.445312 267.894531 C 191.761719 268.269531 194.382812 268.695312 196.5 269.753906 C 197 270.003906 197.25 270.539062 197.164062 271.050781 C 197.609375 271.636719 197.386719 272.296875 197.148438 272.996094 C 197 273.542969 196.851562 274.066406 196.726562 274.601562 C 196.515625 275.523438 196.300781 276.449219 196.101562 277.359375 C 195.941406 278.09375 195.765625 278.828125 195.605469 279.578125 C 194.832031 282.917969 194.15625 286.035156 193.546875 289.113281 C 193.472656 289.476562 193.421875 289.859375 193.359375 290.273438 C 193.171875 291.570312 192.960938 293.039062 192.300781 294.175781 C 191.113281 296.242188 187.761719 296.605469 185.539062 296.855469 C 185.242188 296.890625 184.980469 296.917969 184.753906 296.941406 L 182.871094 297.203125 C 178.507812 297.839844 174.070312 298.449219 169.628906 298.449219 Z M 164.191406 267.820312 C 162.046875 267.820312 159.953125 268.121094 158.746094 269.402344 C 157.773438 270.4375 157.558594 272.085938 157.359375 273.679688 L 157.335938 273.828125 C 157 276.460938 156.722656 279.152344 156.460938 281.757812 L 156.375 282.632812 C 156.152344 284.886719 155.890625 287.429688 155.714844 289.910156 C 155.703125 290.136719 155.675781 290.371094 155.652344 290.632812 C 155.566406 291.457031 155.464844 292.464844 155.738281 292.992188 C 155.925781 293.351562 156.761719 293.664062 157.324219 293.886719 L 157.773438 294.0625 C 160.253906 295.085938 163.183594 295.671875 166.988281 295.917969 C 172.113281 296.257812 177.398438 295.519531 182.511719 294.808594 L 184.40625 294.546875 C 184.644531 294.511719 184.941406 294.484375 185.253906 294.449219 C 186.550781 294.3125 189.59375 293.976562 190.167969 292.976562 C 190.589844 292.242188 190.777344 291.019531 190.925781 289.9375 C 190.988281 289.488281 191.050781 289.050781 191.140625 288.652344 C 191.75 285.546875 192.4375 282.40625 193.210938 279.039062 C 193.382812 278.304688 193.546875 277.582031 193.707031 276.847656 C 193.921875 275.910156 194.121094 274.988281 194.34375 274.066406 C 194.480469 273.503906 194.632812 272.933594 194.78125 272.371094 C 194.78125 272.359375 194.816406 272.269531 194.816406 272.246094 C 194.84375 272.171875 194.894531 272.023438 194.929688 271.886719 C 194.929688 271.835938 194.929688 271.785156 194.929688 271.734375 C 193.195312 270.988281 191.003906 270.636719 189.03125 270.3125 C 188.445312 270.214844 187.871094 270.128906 187.324219 270.027344 C 181.125 268.894531 174.855469 268.21875 168.683594 268.019531 C 168.171875 268.007812 167.609375 267.96875 167.023438 267.933594 C 166.125 267.882812 165.152344 267.820312 164.191406 267.820312 Z M 164.191406 267.820312 " fill-opacity="1" fill-rule="nonzero"/><path fill="#000000" d="M 299.136719 226.945312 C 297.925781 226.933594 296.242188 227.765625 295.007812 227.992188 C 290.582031 228.789062 285.84375 228.851562 281.453125 227.816406 C 274.148438 226.097656 269.757812 220.824219 263.3125 218.578125 C 256.242188 216.125 248.222656 225.210938 247.863281 231.695312 C 247.613281 236.167969 250.84375 239.898438 254.332031 242.226562 C 265.433594 249.632812 281.703125 252.511719 294.859375 251.550781 C 305.808594 250.753906 312.277344 248.660156 304.859375 237.292969 C 303.636719 235.421875 302.230469 233.75 300.53125 232.304688 " fill-opacity="1" fill-rule="nonzero"/><path fill="#000000" d="M 289.808594 252.960938 C 276.515625 252.960938 262.761719 249.332031 253.648438 243.25 C 248.945312 240.121094 246.390625 235.882812 246.628906 231.632812 C 246.878906 227.242188 250.167969 221.96875 254.472656 219.089844 C 257.550781 217.019531 260.832031 216.433594 263.699219 217.433594 C 266.714844 218.480469 269.296875 220.148438 271.789062 221.78125 C 274.785156 223.726562 277.875 225.734375 281.714844 226.632812 C 285.683594 227.566406 290.195312 227.617188 294.773438 226.792969 C 295.183594 226.71875 295.707031 226.546875 296.253906 226.371094 C 297.214844 226.058594 298.238281 225.773438 299.125 225.734375 C 299.796875 225.734375 300.347656 226.285156 300.332031 226.96875 C 300.332031 227.640625 299.785156 228.179688 299.109375 228.179688 C 299.097656 228.179688 299.097656 228.179688 299.097656 228.179688 C 298.574219 228.179688 297.738281 228.453125 297.015625 228.691406 C 296.417969 228.890625 295.792969 229.089844 295.207031 229.199219 C 290.308594 230.085938 285.445312 230.023438 281.15625 229.011719 C 276.890625 228.015625 273.625 225.882812 270.457031 223.828125 C 267.976562 222.21875 265.617188 220.6875 262.886719 219.738281 C 260.167969 218.792969 257.539062 219.964844 255.816406 221.121094 C 252.164062 223.566406 249.257812 228.152344 249.046875 231.769531 C 248.785156 236.542969 253.113281 239.972656 254.980469 241.21875 C 264.859375 247.8125 280.46875 251.390625 294.734375 250.34375 C 299.820312 249.96875 305.195312 249.246094 306.457031 246.703125 C 307.328125 244.945312 306.429688 242.015625 303.800781 237.976562 C 302.578125 236.105469 301.242188 234.5625 299.710938 233.253906 C 299.199219 232.816406 299.136719 232.042969 299.574219 231.53125 C 300.007812 231.019531 300.78125 230.957031 301.292969 231.394531 C 303.015625 232.851562 304.496094 234.574219 305.84375 236.644531 C 309.074219 241.59375 309.960938 245.132812 308.648438 247.789062 C 306.941406 251.226562 301.929688 252.277344 294.910156 252.785156 C 293.25 252.898438 291.53125 252.960938 289.808594 252.960938 Z M 289.808594 252.960938 " fill-opacity="1" fill-rule="nonzero"/><path fill="#ff431d" d="M 171.5625 273.519531 C 191.488281 281.308594 215.765625 273.667969 233.386719 261.488281 C 276.378906 231.78125 298.300781 150.9375 269.359375 106.257812 C 263.425781 97.097656 252.9375 89.34375 242.851562 84.753906 C 226.042969 77.113281 181.550781 77.226562 173.359375 86.039062 C 173.144531 86.261719 172.945312 86.488281 172.746094 86.722656 C 172.375 86.261719 171.988281 85.8125 171.574219 85.363281 C 163.382812 76.550781 118.90625 76.4375 102.082031 84.082031 C 91.996094 88.667969 81.507812 96.421875 75.574219 105.585938 C 46.632812 150.265625 68.554688 231.09375 111.546875 260.816406 C 128.65625 272.621094 152 280.175781 171.5625 273.519531 Z M 171.5625 273.519531 " fill-opacity="1" fill-rule="nonzero"/><path fill="#000000" d="M 189.03125 277.894531 C 183.097656 277.894531 177.1875 276.957031 171.539062 274.816406 C 150.652344 281.695312 126.546875 272.644531 110.875 261.8125 C 90.050781 247.425781 73.054688 220.238281 65.410156 189.097656 C 57.492188 156.808594 60.824219 126.117188 74.5625 104.914062 C 80.125 96.335938 90.226562 88.132812 101.597656 82.960938 C 118.417969 75.316406 163.621094 74.96875 172.484375 84.515625 C 172.585938 84.628906 172.699219 84.742188 172.796875 84.855469 C 182.386719 75.640625 226.738281 76.066406 243.359375 83.621094 C 254.734375 88.78125 264.832031 96.984375 270.394531 105.574219 C 284.125 126.777344 287.464844 157.457031 279.546875 189.757812 C 271.902344 220.898438 254.921875 248.074219 234.082031 262.472656 C 222.089844 270.777344 205.441406 277.894531 189.03125 277.894531 Z M 171.5625 272.296875 C 171.710938 272.296875 171.863281 272.320312 172.011719 272.382812 C 192.460938 280.386719 216.777344 271.484375 232.6875 260.476562 C 273.4375 232.316406 298.050781 152.796875 268.335938 106.917969 C 263.023438 98.714844 253.3125 90.851562 242.351562 85.863281 C 225.578125 78.246094 181.675781 78.894531 174.269531 86.859375 C 174.070312 87.074219 173.882812 87.296875 173.683594 87.507812 C 173.445312 87.785156 173.097656 87.933594 172.734375 87.933594 C 172.375 87.921875 172.035156 87.757812 171.800781 87.472656 C 171.449219 87.035156 171.078125 86.597656 170.691406 86.1875 C 163.28125 78.210938 119.378906 77.574219 102.609375 85.191406 C 91.648438 90.175781 81.933594 98.042969 76.621094 106.246094 C 46.90625 152.121094 71.507812 231.644531 112.257812 259.804688 C 127.535156 270.363281 151.039062 279.203125 171.164062 272.359375 C 171.300781 272.308594 171.425781 272.296875 171.5625 272.296875 Z M 171.5625 272.296875 " fill-opacity="1" fill-rule="nonzero"/><path fill="#000000" d="M 172.472656 25.003906 C 172.375 24.917969 172.285156 24.828125 172.1875 24.753906 C 172.1875 24.828125 170.539062 25.066406 170.464844 25.078125 C 166.300781 25.863281 162.160156 26.761719 158.007812 27.609375 C 157.046875 27.808594 156.027344 28.019531 155.066406 28.21875 C 136.960938 32.148438 119.105469 37.171875 101.1875 41.871094 C 95.847656 43.265625 85.785156 45.734375 79.027344 47.816406 C 78.851562 47.867188 89.539062 52.753906 91.199219 53.5625 C 101.285156 58.523438 112.007812 63.125 120.738281 67.5625 L 121.660156 79.628906 C 124.925781 81.375 138.167969 84.082031 142.570312 84.917969 C 151 86.511719 156.773438 87.347656 162.609375 87.734375 C 163.484375 87.859375 164.417969 87.933594 165.390625 87.957031 C 167.972656 88.007812 170.304688 88.03125 172.472656 88.03125 C 174.644531 88.03125 176.972656 88.007812 179.554688 87.957031 C 180.539062 87.945312 181.464844 87.871094 182.335938 87.734375 C 188.171875 87.347656 193.945312 86.511719 202.375 84.917969 C 206.789062 84.082031 220.03125 81.375 223.285156 79.628906 L 224.207031 67.5625 C 232.9375 63.125 243.660156 58.523438 253.734375 53.5625 C 255.394531 52.742188 266.082031 47.867188 265.90625 47.816406 C 259.148438 45.734375 249.097656 43.277344 243.746094 41.871094 C 225.839844 37.183594 207.972656 32.148438 189.867188 28.21875 C 188.90625 28.007812 187.886719 27.796875 186.925781 27.609375 C 182.773438 26.761719 178.632812 25.863281 174.46875 25.078125 C 174.394531 25.066406 172.746094 24.828125 172.746094 24.753906 C 172.671875 24.839844 172.574219 24.929688 172.472656 25.003906 Z M 172.472656 25.003906 " fill-opacity="1" fill-rule="nonzero"/><g clip-path="url(#d152a80f3d)"><path fill="#000000" d="M 172.472656 89.253906 C 170.289062 89.253906 167.960938 89.230469 165.367188 89.179688 C 164.34375 89.15625 163.359375 89.078125 162.421875 88.941406 C 156.773438 88.570312 151.113281 87.769531 142.335938 86.113281 C 141.636719 85.976562 125.027344 82.835938 121.0625 80.703125 C 120.6875 80.503906 120.449219 80.128906 120.414062 79.71875 L 119.539062 68.335938 C 115.0625 66.078125 110.113281 63.785156 104.890625 61.378906 C 100.199219 59.210938 95.335938 56.96875 90.636719 54.648438 C 90.011719 54.335938 88.117188 53.464844 86.011719 52.480469 C 77.71875 48.628906 77.71875 48.628906 77.78125 47.71875 C 77.820312 47.207031 78.15625 46.78125 78.640625 46.632812 C 83.855469 45.035156 91.136719 43.167969 96.449219 41.808594 C 98.105469 41.382812 99.601562 40.996094 100.847656 40.671875 C 104.988281 39.589844 109.128906 38.492188 113.269531 37.382812 C 126.824219 33.765625 140.839844 30.039062 154.777344 27.011719 C 155.738281 26.796875 156.761719 26.585938 157.734375 26.386719 L 161.277344 25.652344 C 164.242188 25.027344 167.222656 24.417969 170.203125 23.855469 L 170.367188 23.832031 C 171.199219 23.707031 171.523438 23.644531 171.664062 23.605469 C 171.664062 23.605469 171.664062 23.605469 171.675781 23.605469 C 171.925781 23.507812 172.1875 23.484375 172.449219 23.546875 C 172.699219 23.484375 172.972656 23.507812 173.207031 23.605469 L 173.222656 23.605469 C 173.359375 23.632812 173.695312 23.695312 174.519531 23.832031 L 174.667969 23.855469 C 177.660156 24.417969 180.628906 25.039062 183.59375 25.652344 L 187.148438 26.386719 C 188.121094 26.585938 189.144531 26.796875 190.105469 27.011719 C 204.046875 30.027344 218.046875 33.765625 231.601562 37.371094 C 235.742188 38.480469 239.894531 39.578125 244.035156 40.660156 C 245.28125 40.984375 246.789062 41.371094 248.449219 41.796875 C 253.761719 43.15625 261.03125 45.011719 266.242188 46.621094 C 266.726562 46.769531 267.066406 47.207031 267.101562 47.703125 C 267.164062 48.613281 267.164062 48.613281 258.910156 52.453125 C 256.789062 53.4375 254.882812 54.324219 254.246094 54.636719 C 249.546875 56.953125 244.695312 59.199219 240.007812 61.355469 C 234.78125 63.773438 229.832031 66.054688 225.355469 68.3125 L 224.484375 79.691406 C 224.445312 80.105469 224.207031 80.476562 223.835938 80.679688 C 219.867188 82.796875 203.273438 85.949219 202.574219 86.089844 C 193.796875 87.746094 188.132812 88.542969 182.398438 88.917969 C 181.5625 89.042969 180.578125 89.117188 179.554688 89.140625 C 176.988281 89.21875 174.65625 89.253906 172.472656 89.253906 Z M 122.820312 78.832031 C 126.273438 80.292969 136.425781 82.511719 142.796875 83.71875 C 151.460938 85.351562 157.046875 86.136719 162.683594 86.523438 C 163.605469 86.648438 164.492188 86.722656 165.414062 86.738281 C 167.996094 86.785156 170.316406 86.8125 172.472656 86.8125 C 174.628906 86.8125 176.960938 86.785156 179.542969 86.738281 C 180.464844 86.722656 181.351562 86.648438 182.175781 86.523438 C 187.910156 86.136719 193.484375 85.351562 202.164062 83.71875 C 208.535156 82.523438 218.683594 80.304688 222.136719 78.832031 L 223.011719 67.476562 C 223.046875 67.050781 223.296875 66.679688 223.671875 66.480469 C 228.359375 64.097656 233.535156 61.703125 239.023438 59.160156 C 243.699219 57.003906 248.535156 54.773438 253.210938 52.464844 C 253.847656 52.15625 255.769531 51.257812 257.925781 50.261719 C 259.335938 49.597656 261.117188 48.777344 262.578125 48.089844 C 257.851562 46.730469 252.214844 45.296875 247.886719 44.1875 C 246.230469 43.765625 244.707031 43.378906 243.460938 43.054688 C 239.308594 41.96875 235.167969 40.859375 231.015625 39.761719 C 217.5 36.160156 203.507812 32.433594 189.628906 29.429688 C 188.671875 29.21875 187.660156 29.003906 186.699219 28.816406 L 183.132812 28.082031 C 180.179688 27.472656 177.222656 26.859375 174.257812 26.300781 C 173.792969 26.226562 173.394531 26.164062 173.058594 26.101562 C 172.699219 26.300781 172.25 26.300781 171.898438 26.101562 C 171.574219 26.164062 171.199219 26.226562 170.777344 26.289062 C 167.722656 26.859375 164.765625 27.472656 161.8125 28.09375 L 158.269531 28.832031 C 157.308594 29.03125 156.300781 29.242188 155.339844 29.441406 C 141.449219 32.445312 127.472656 36.171875 113.941406 39.789062 C 109.800781 40.898438 105.664062 41.996094 101.511719 43.078125 C 100.261719 43.402344 98.753906 43.789062 97.097656 44.214844 C 92.769531 45.324219 87.121094 46.769531 82.394531 48.117188 C 83.855469 48.800781 85.648438 49.636719 87.070312 50.296875 C 89.203125 51.292969 91.125 52.179688 91.746094 52.492188 C 96.421875 54.796875 101.261719 57.03125 105.9375 59.199219 C 111.421875 61.730469 116.597656 64.121094 121.273438 66.503906 C 121.648438 66.703125 121.910156 67.078125 121.933594 67.5 Z M 172.773438 24.753906 Z M 172.773438 24.753906 " fill-opacity="1" fill-rule="nonzero"/></g><path fill="#fff100" d="M 88.46875 118.261719 L 102.433594 118.261719 L 98.941406 80.367188 L 91.957031 80.367188 Z M 88.46875 118.261719 " fill-opacity="1" fill-rule="nonzero"/><path fill="#000000" d="M 102.421875 119.484375 L 88.453125 119.484375 C 88.105469 119.484375 87.78125 119.335938 87.558594 119.085938 C 87.320312 118.835938 87.207031 118.488281 87.246094 118.152344 L 90.738281 80.253906 C 90.800781 79.628906 91.324219 79.144531 91.957031 79.144531 L 98.941406 79.144531 C 99.578125 79.144531 100.101562 79.628906 100.164062 80.253906 L 103.65625 118.152344 C 103.679688 118.488281 103.566406 118.835938 103.34375 119.085938 C 103.09375 119.347656 102.769531 119.484375 102.421875 119.484375 Z M 89.800781 117.042969 L 101.085938 117.042969 L 97.820312 81.585938 L 93.070312 81.585938 Z M 89.800781 117.042969 " fill-opacity="1" fill-rule="nonzero"/><path fill="#ff431d" d="M 95.449219 74.28125 C 92.070312 74.28125 89.328125 77.023438 89.328125 80.402344 C 89.328125 83.78125 92.070312 86.523438 95.449219 86.523438 C 98.828125 86.523438 101.574219 83.78125 101.574219 80.402344 C 101.574219 77.023438 98.828125 74.28125 95.449219 74.28125 Z M 95.449219 74.28125 " fill-opacity="1" fill-rule="nonzero"/><path fill="#000000" d="M 95.449219 87.757812 C 91.398438 87.757812 88.105469 84.46875 88.105469 80.414062 C 88.105469 76.363281 91.398438 73.074219 95.449219 73.074219 C 99.503906 73.074219 102.792969 76.363281 102.792969 80.414062 C 102.792969 84.453125 99.503906 87.757812 95.449219 87.757812 Z M 95.449219 75.503906 C 92.746094 75.503906 90.550781 77.699219 90.550781 80.402344 C 90.550781 83.109375 92.746094 85.304688 95.449219 85.304688 C 98.15625 85.304688 100.351562 83.109375 100.351562 80.402344 C 100.351562 77.699219 98.144531 75.503906 95.449219 75.503906 Z M 95.449219 75.503906 " fill-opacity="1" fill-rule="nonzero"/><path fill="#000000" d="M 95.984375 75.480469 C 95.3125 75.480469 94.765625 74.929688 94.765625 74.257812 L 94.765625 54.699219 C 94.765625 54.023438 95.3125 53.476562 95.984375 53.476562 C 96.660156 53.476562 97.207031 54.023438 97.207031 54.699219 L 97.207031 74.257812 C 97.207031 74.929688 96.660156 75.480469 95.984375 75.480469 Z M 95.984375 75.480469 " fill-opacity="1" fill-rule="nonzero"/><path fill="#2dcc7d" d="M 152.695312 287.941406 C 152.683594 288.015625 152.847656 287.941406 152.921875 287.953125 C 153.78125 288.003906 154.640625 288.152344 155.503906 288.253906 C 157.597656 288.476562 159.71875 288.578125 161.8125 288.726562 C 168.570312 289.214844 175.503906 289.375 182.273438 288.988281 C 185.390625 288.800781 190.066406 287.578125 193.109375 288.476562 C 195.742188 289.261719 195.976562 298.152344 196.164062 300.457031 C 196.214844 300.992188 195.941406 303.535156 196.4375 303.875 C 197.011719 304.261719 200.019531 302.425781 200.617188 302.242188 C 204.59375 300.992188 208.894531 300.570312 213.023438 301.042969 C 229.234375 302.925781 242.589844 313.371094 245.554688 329.753906 C 246.152344 333.070312 246.800781 337.109375 245.917969 340.449219 C 245.21875 343.09375 240.195312 344.164062 238.097656 344.898438 C 229.382812 347.953125 220.378906 349.574219 211.140625 349.597656 C 201.113281 349.636719 190.976562 348.140625 181.351562 345.410156 C 177.824219 344.414062 170.902344 340.910156 167.808594 340.574219 C 166.476562 340.425781 164.34375 341.722656 163.082031 342.082031 C 160.003906 342.980469 156.875 343.628906 153.695312 344.050781 C 142.109375 345.574219 119.953125 346.246094 97.730469 334.976562 C 95.800781 333.992188 91.847656 332.148438 90.660156 330.113281 C 88.105469 325.726562 90.898438 318.296875 93.070312 314.433594 C 99.714844 302.578125 115.972656 296.167969 129.09375 297.367188 C 133.292969 297.753906 137.308594 298.835938 141.1875 300.484375 C 141.949219 300.808594 144.867188 302.886719 145.6875 302.601562 C 146.699219 302.253906 147.398438 299.882812 147.695312 299.035156 C 148.957031 295.570312 150.765625 291.121094 152.695312 287.941406 Z M 152.695312 287.941406 " fill-opacity="1" fill-rule="nonzero"/><path fill="#000000" d="M 210.804688 350.832031 C 200.953125 350.832031 190.925781 349.414062 181.027344 346.609375 C 179.503906 346.183594 177.472656 345.335938 175.316406 344.449219 C 172.511719 343.292969 169.332031 341.984375 167.683594 341.808594 C 167.109375 341.746094 165.9375 342.257812 165.066406 342.644531 C 164.480469 342.894531 163.929688 343.140625 163.433594 343.277344 C 160.304688 344.1875 157.085938 344.863281 153.855469 345.285156 C 142.421875 346.792969 119.863281 347.59375 97.183594 336.085938 L 96.671875 335.824219 C 93.742188 334.351562 90.785156 332.757812 89.613281 330.738281 C 86.109375 324.730469 91.398438 314.929688 92.007812 313.832031 C 99.304688 300.820312 116.609375 295.011719 129.21875 296.144531 C 133.355469 296.519531 137.546875 297.601562 141.671875 299.347656 C 141.960938 299.472656 142.335938 299.683594 142.957031 300.070312 C 143.53125 300.421875 144.804688 301.179688 145.390625 301.367188 C 145.5625 301.15625 145.914062 300.53125 146.449219 298.972656 L 146.574219 298.625 C 147.535156 295.945312 149.480469 290.921875 151.675781 287.316406 C 151.9375 286.894531 152.433594 286.671875 152.894531 286.746094 C 152.945312 286.746094 152.984375 286.746094 153.007812 286.746094 C 153.570312 286.78125 154.128906 286.855469 154.703125 286.933594 C 155.015625 286.96875 155.328125 287.019531 155.640625 287.042969 C 157.085938 287.195312 158.570312 287.292969 160.015625 287.378906 C 160.652344 287.417969 161.277344 287.457031 161.910156 287.503906 C 169.257812 288.027344 176.089844 288.117188 182.210938 287.765625 C 183.109375 287.71875 184.15625 287.566406 185.277344 287.417969 C 188.007812 287.042969 191.089844 286.609375 193.457031 287.316406 C 196.363281 288.179688 196.960938 293.976562 197.3125 299.347656 C 197.335938 299.757812 197.363281 300.121094 197.386719 300.382812 C 197.398438 300.542969 197.398438 300.882812 197.386719 301.269531 C 197.375 301.53125 197.363281 302.039062 197.363281 302.476562 C 197.933594 302.226562 198.644531 301.867188 199.03125 301.667969 C 199.65625 301.34375 199.992188 301.179688 200.253906 301.09375 C 204.417969 299.785156 208.882812 299.347656 213.171875 299.847656 C 230.679688 301.878906 243.859375 313.535156 246.765625 329.554688 C 247.414062 333.144531 248.035156 337.269531 247.101562 340.773438 C 246.339844 343.640625 242.324219 344.875 239.671875 345.699219 C 239.222656 345.835938 238.835938 345.960938 238.511719 346.070312 C 229.570312 349.214844 220.367188 350.808594 211.152344 350.847656 C 211.039062 350.832031 210.929688 350.832031 210.804688 350.832031 Z M 167.609375 339.339844 C 167.734375 339.339844 167.847656 339.339844 167.960938 339.363281 C 169.953125 339.589844 173.144531 340.910156 176.25 342.183594 C 178.332031 343.042969 180.304688 343.851562 181.6875 344.25 C 191.375 346.992188 201.175781 348.390625 210.804688 348.390625 C 210.914062 348.390625 211.027344 348.390625 211.140625 348.390625 C 220.066406 348.367188 229.007812 346.792969 237.6875 343.753906 C 238.035156 343.628906 238.472656 343.503906 238.945312 343.355469 C 240.828125 342.78125 244.320312 341.707031 244.734375 340.148438 C 245.53125 337.121094 244.957031 333.320312 244.347656 329.976562 C 241.601562 314.820312 229.546875 304.199219 212.875 302.265625 C 208.933594 301.804688 204.804688 302.203125 200.964844 303.414062 C 200.816406 303.460938 200.503906 303.636719 200.128906 303.824219 C 197.972656 304.933594 196.699219 305.53125 195.753906 304.894531 C 194.878906 304.308594 194.855469 303.039062 194.917969 301.167969 C 194.929688 300.90625 194.941406 300.683594 194.929688 300.558594 C 194.90625 300.28125 194.878906 299.921875 194.855469 299.484375 C 194.308594 291.007812 193.195312 289.785156 192.75 289.648438 C 190.890625 289.089844 188.070312 289.488281 185.601562 289.824219 C 184.429688 289.984375 183.320312 290.136719 182.335938 290.199219 C 176.101562 290.558594 169.167969 290.472656 161.710938 289.9375 C 161.089844 289.886719 160.464844 289.847656 159.839844 289.8125 C 158.371094 289.710938 156.863281 289.625 155.363281 289.460938 C 155.027344 289.425781 154.691406 289.386719 154.355469 289.335938 C 154.019531 289.289062 153.695312 289.25 153.359375 289.214844 C 151.425781 292.566406 149.730469 297.003906 148.855469 299.433594 L 148.742188 299.746094 C 148.144531 301.515625 147.433594 303.273438 146.089844 303.734375 C 145.054688 304.097656 143.730469 303.375 141.6875 302.152344 C 141.3125 301.929688 140.863281 301.65625 140.714844 301.59375 C 136.8125 299.945312 132.871094 298.925781 128.992188 298.574219 C 117.171875 297.492188 100.9375 302.902344 94.140625 315.019531 C 91.585938 319.59375 89.738281 326.074219 91.734375 329.492188 C 92.632812 331.039062 95.972656 332.71875 97.769531 333.617188 L 98.292969 333.878906 C 120.375 345.085938 142.382812 344.300781 153.53125 342.84375 C 156.636719 342.429688 159.730469 341.785156 162.746094 340.910156 C 163.082031 340.8125 163.570312 340.597656 164.082031 340.375 C 165.214844 339.902344 166.476562 339.339844 167.609375 339.339844 Z M 167.609375 339.339844 " fill-opacity="1" fill-rule="nonzero"/><path fill="#000000" d="M 230.007812 319.09375 C 227.1875 319.09375 224.332031 318.210938 221.777344 317.210938 C 220.332031 316.652344 218.910156 316.015625 217.535156 315.40625 C 215.804688 314.632812 214.171875 313.910156 212.6875 313.398438 C 208.199219 311.863281 203.582031 311.066406 198.945312 311.027344 C 195.339844 310.980469 191.664062 311.488281 187.660156 312.550781 C 187.535156 312.585938 187.363281 312.648438 187.148438 312.722656 C 185.753906 313.210938 183.65625 313.945312 182.574219 312.648438 C 181.6875 311.578125 181.75 309.707031 181.925781 307.375 C 181.960938 306.902344 182 306.503906 181.988281 306.21875 C 181.925781 300.394531 181.652344 295.507812 181.140625 290.832031 C 181.113281 290.558594 181.050781 290.222656 180.988281 289.859375 L 180.878906 289.199219 C 180.828125 288.863281 180.914062 288.515625 181.125 288.253906 C 181.339844 287.992188 181.664062 287.816406 182 287.792969 L 182.210938 287.78125 C 183.085938 287.730469 184.144531 287.578125 185.265625 287.429688 C 187.996094 287.054688 191.078125 286.621094 193.445312 287.332031 C 196.351562 288.191406 196.949219 293.988281 197.300781 299.359375 C 197.324219 299.773438 197.347656 300.132812 197.375 300.394531 L 197.523438 302.152344 C 198.597656 301.730469 199.878906 301.21875 200.242188 301.105469 C 204.40625 299.796875 208.871094 299.359375 213.160156 299.859375 C 213.847656 299.933594 214.53125 300.035156 215.207031 300.144531 C 215.492188 300.097656 215.777344 300.144531 216.027344 300.28125 C 223.511719 301.628906 230.195312 304.769531 235.492188 309.457031 C 236.714844 310.53125 237.847656 311.691406 238.898438 312.910156 C 239.269531 313.335938 239.296875 313.972656 238.960938 314.433594 C 236.414062 317.921875 233.234375 319.09375 230.007812 319.09375 Z M 216.253906 312.164062 C 217 312.476562 217.761719 312.824219 218.535156 313.171875 C 219.882812 313.773438 221.277344 314.394531 222.660156 314.945312 C 229.320312 317.5625 233.386719 317.226562 236.378906 313.734375 C 235.59375 312.875 234.757812 312.050781 233.871094 311.277344 C 231.964844 309.59375 229.855469 308.125 227.601562 306.878906 C 227.460938 306.902344 227.3125 306.914062 227.175781 306.902344 C 227.125 306.890625 226.976562 306.878906 226.902344 306.878906 C 226.652344 306.878906 226.351562 306.925781 226.054688 306.976562 C 225.207031 307.113281 224.296875 307.339844 223.199219 307.699219 C 221.589844 308.199219 217.910156 309.632812 216.253906 312.164062 Z M 207.625 309.496094 C 209.59375 309.894531 211.550781 310.429688 213.484375 311.089844 C 213.632812 311.140625 213.796875 311.203125 213.945312 311.253906 C 215.839844 307.9375 220.007812 306.15625 222.449219 305.355469 C 222.875 305.21875 223.273438 305.09375 223.660156 304.996094 C 221.078125 303.949219 218.335938 303.164062 215.453125 302.652344 C 215.09375 302.789062 214.742188 302.914062 214.382812 303.027344 C 213.757812 303.226562 213.171875 303.425781 212.6875 303.710938 C 210.652344 304.894531 208.945312 306.839844 207.625 309.496094 Z M 196.886719 305.09375 C 196.6875 305.109375 195.902344 305.257812 195.566406 305.320312 C 195.339844 305.355469 195.15625 305.394531 195.042969 305.417969 C 194.019531 305.582031 192.960938 305.867188 191.898438 306.253906 C 189.730469 307.050781 187.484375 308.660156 185.789062 310.605469 C 186.015625 310.53125 186.214844 310.46875 186.339844 310.417969 C 186.625 310.320312 186.875 310.230469 187.039062 310.195312 C 189.84375 309.457031 192.5 308.972656 195.09375 308.746094 L 195.21875 308.472656 C 195.742188 307.363281 196.289062 306.191406 196.976562 305.09375 C 196.949219 305.09375 196.914062 305.09375 196.886719 305.09375 Z M 198.609375 308.585938 C 198.734375 308.585938 198.859375 308.585938 198.96875 308.585938 C 201.027344 308.609375 203.074219 308.761719 205.117188 309.058594 C 206.527344 305.980469 208.398438 303.648438 210.667969 302.089844 C 208.371094 302.015625 206.054688 302.203125 203.785156 302.675781 C 203.734375 302.703125 203.683594 302.714844 203.632812 302.738281 C 203.011719 302.9375 202.363281 303.175781 201.800781 303.5 C 199.96875 304.570312 198.859375 306.554688 197.871094 308.585938 C 198.121094 308.585938 198.359375 308.585938 198.609375 308.585938 Z M 183.507812 290.097656 C 183.535156 290.261719 183.558594 290.410156 183.570312 290.546875 C 184.105469 295.308594 184.382812 300.28125 184.445312 306.179688 C 184.445312 306.515625 184.417969 307.003906 184.367188 307.550781 C 184.34375 307.800781 184.320312 308.1875 184.292969 308.609375 C 186.214844 306.527344 188.621094 304.859375 191.050781 303.960938 C 192.261719 303.511719 193.472656 303.1875 194.65625 303 C 194.742188 302.988281 194.90625 302.949219 195.105469 302.914062 C 195.117188 302.914062 195.117188 302.914062 195.128906 302.914062 L 194.941406 300.570312 C 194.917969 300.296875 194.894531 299.933594 194.867188 299.496094 C 194.320312 291.019531 193.210938 289.800781 192.761719 289.660156 C 190.902344 289.101562 188.085938 289.5 185.617188 289.835938 C 184.878906 289.921875 184.183594 290.023438 183.507812 290.097656 Z M 110.800781 314.792969 C 110.027344 314.792969 109.253906 314.632812 108.503906 314.246094 C 105.078125 312.460938 102.871094 308.785156 102.296875 303.898438 C 102.246094 303.4375 102.457031 302.976562 102.855469 302.726562 C 103.765625 302.152344 104.714844 301.59375 105.6875 301.082031 C 112.957031 297.242188 121.523438 295.433594 129.21875 296.132812 C 133.355469 296.503906 137.546875 297.589844 141.671875 299.335938 C 141.960938 299.460938 142.335938 299.671875 142.957031 300.058594 C 143.308594 300.269531 143.929688 300.644531 144.492188 300.945312 C 144.851562 300.957031 145.164062 301.105469 145.441406 301.28125 C 145.625 301.007812 145.964844 300.371094 146.4375 298.960938 L 146.5625 298.613281 C 147.523438 295.933594 149.46875 290.910156 151.660156 287.304688 C 151.921875 286.882812 152.421875 286.65625 152.882812 286.730469 C 152.933594 286.730469 152.972656 286.730469 152.996094 286.730469 C 153.558594 286.769531 154.117188 286.84375 154.691406 286.917969 C 155.003906 286.957031 155.316406 287.007812 155.628906 287.03125 C 157.097656 287.179688 159.179688 287.316406 161.027344 287.441406 C 161.773438 287.492188 162.472656 287.542969 163.082031 287.578125 C 163.421875 287.605469 163.730469 287.765625 163.945312 288.027344 C 164.15625 288.289062 164.253906 288.628906 164.207031 288.964844 C 164.207031 288.964844 163.632812 293.300781 162.933594 298.164062 C 162.847656 298.738281 160.839844 312.3125 156.9375 314.207031 C 155.851562 314.742188 153.71875 314.171875 149.367188 312.6875 C 148.65625 312.449219 148.082031 312.25 147.785156 312.175781 C 140.9375 310.394531 134.964844 309.621094 129.503906 309.855469 C 125.464844 310.019531 121.523438 310.878906 117.757812 312.398438 L 117.445312 312.523438 C 117.023438 312.699219 116.5625 312.925781 116.085938 313.148438 C 114.503906 313.910156 112.644531 314.792969 110.800781 314.792969 Z M 104.839844 304.382812 C 105.238281 306.804688 106.375 310.394531 109.640625 312.089844 C 111.085938 312.835938 113.179688 311.839844 115.039062 310.941406 C 115.5625 310.691406 116.050781 310.457031 116.511719 310.269531 L 116.847656 310.132812 C 118.769531 309.359375 120.726562 308.734375 122.71875 308.285156 C 121.773438 305.894531 120.113281 303.722656 117.644531 301.703125 C 117.519531 301.605469 117.371094 301.46875 117.195312 301.316406 C 116.808594 300.980469 115.800781 300.097656 115.414062 300.046875 C 115.300781 300.035156 115.1875 300.007812 115.089844 299.957031 C 112.234375 300.757812 109.453125 301.855469 106.847656 303.238281 C 106.160156 303.613281 105.488281 303.984375 104.839844 304.382812 Z M 147.433594 302.652344 C 147.722656 302.851562 147.996094 303.050781 148.234375 303.210938 C 151.921875 305.894531 154.628906 308.597656 156.460938 311.464844 C 157.984375 309.496094 159.742188 303.164062 160.515625 297.800781 C 160.988281 294.5625 161.386719 291.570312 161.613281 289.921875 C 161.375 289.910156 161.125 289.886719 160.863281 289.875 C 158.992188 289.75 156.886719 289.613281 155.363281 289.449219 C 155.027344 289.414062 154.691406 289.375 154.355469 289.324219 C 154.019531 289.277344 153.695312 289.238281 153.359375 289.199219 C 151.425781 292.554688 149.730469 296.992188 148.855469 299.421875 L 148.742188 299.734375 C 148.394531 300.820312 147.996094 301.878906 147.433594 302.652344 Z M 144.242188 308.824219 C 145.601562 309.109375 146.984375 309.433594 148.40625 309.808594 C 148.742188 309.894531 149.378906 310.105469 150.164062 310.378906 C 150.886719 310.628906 152.234375 311.078125 153.46875 311.453125 C 151.847656 309.320312 149.652344 307.265625 146.8125 305.207031 C 146.226562 304.785156 145.441406 304.222656 144.628906 303.722656 C 144.605469 303.710938 144.578125 303.6875 144.542969 303.660156 C 143.769531 303.398438 142.847656 302.863281 141.699219 302.164062 C 141.324219 301.941406 140.875 301.667969 140.726562 301.605469 C 140.613281 301.554688 140.515625 301.515625 140.402344 301.46875 C 142.136719 303.5625 143.417969 306.03125 144.242188 308.824219 Z M 134.191406 307.449219 C 136.523438 307.574219 138.957031 307.863281 141.488281 308.300781 C 140.191406 304.722656 138.046875 301.917969 134.941406 299.757812 C 134.867188 299.710938 134.789062 299.648438 134.726562 299.574219 C 133.308594 299.210938 131.886719 298.9375 130.476562 298.75 L 130.589844 298.898438 C 132.546875 301.292969 133.855469 304.445312 134.191406 307.449219 Z M 118.445312 299.171875 C 118.566406 299.273438 118.679688 299.386719 118.804688 299.484375 C 118.941406 299.609375 119.078125 299.722656 119.191406 299.820312 C 122.132812 302.242188 124.09375 304.871094 125.152344 307.835938 C 126.5625 307.613281 127.96875 307.476562 129.402344 307.425781 C 130.164062 307.402344 130.9375 307.390625 131.722656 307.390625 C 131.386719 304.945312 130.289062 302.402344 128.707031 300.445312 L 128.507812 300.195312 C 128.058594 299.621094 127.371094 298.761719 126.835938 298.5625 C 126.773438 298.539062 126.710938 298.5 126.648438 298.464844 C 123.941406 298.386719 121.1875 298.636719 118.445312 299.171875 Z M 118.445312 299.171875 " fill-opacity="1" fill-rule="nonzero"/><path fill="#fffbfa" d="M 234.695312 310.34375 C 230.480469 311.167969 226.691406 312.898438 223.171875 315.378906 C 222.847656 315.605469 222.539062 315.839844 222.226562 316.078125 C 214.957031 321.636719 210.355469 330.476562 209.78125 339.601562 C 209.71875 340.648438 209.695312 341.746094 209.742188 342.84375 C 209.867188 345.210938 210.328125 347.59375 211.488281 349.597656 C 220.605469 349.523438 229.484375 347.917969 238.085938 344.898438 C 240.179688 344.164062 245.207031 343.09375 245.90625 340.449219 C 246.464844 338.34375 246.402344 335.949219 246.140625 333.628906 C 245.992188 332.285156 245.753906 330.960938 245.542969 329.753906 C 244.410156 323.46875 241.738281 318.058594 237.972656 313.683594 C 236.964844 312.488281 235.867188 311.378906 234.695312 310.34375 Z M 234.695312 310.34375 " fill-opacity="1" fill-rule="nonzero"/><path fill="#000000" d="M 211.5 350.820312 C 211.066406 350.820312 210.652344 350.585938 210.441406 350.210938 C 209.320312 348.265625 208.683594 345.796875 208.535156 342.90625 C 208.484375 341.859375 208.496094 340.722656 208.570312 339.527344 C 209.171875 329.964844 213.996094 320.828125 221.488281 315.105469 C 221.8125 314.855469 222.152344 314.621094 222.476562 314.382812 C 226.316406 311.675781 230.242188 309.96875 234.46875 309.148438 C 234.84375 309.070312 235.230469 309.183594 235.519531 309.433594 C 236.738281 310.503906 237.875 311.664062 238.921875 312.886719 C 242.988281 317.625 245.617188 323.222656 246.765625 329.542969 C 246.988281 330.800781 247.226562 332.132812 247.375 333.503906 C 247.710938 336.421875 247.625 338.804688 247.101562 340.773438 C 246.339844 343.640625 242.324219 344.875 239.671875 345.699219 C 239.222656 345.835938 238.835938 345.960938 238.511719 346.070312 C 229.683594 349.152344 220.59375 350.757812 211.5 350.820312 C 211.515625 350.820312 211.5 350.820312 211.5 350.820312 Z M 234.34375 311.664062 C 230.679688 312.460938 227.25 314.007812 223.882812 316.378906 C 223.570312 316.589844 223.273438 316.8125 222.972656 317.039062 C 216.039062 322.347656 211.5625 330.800781 211.015625 339.664062 C 210.953125 340.773438 210.941406 341.808594 210.992188 342.769531 C 211.101562 344.960938 211.527344 346.84375 212.25 348.351562 C 220.816406 348.203125 229.382812 346.644531 237.710938 343.726562 C 238.0625 343.601562 238.496094 343.480469 238.972656 343.328125 C 240.855469 342.753906 244.347656 341.683594 244.757812 340.125 C 245.195312 338.453125 245.269531 336.371094 244.957031 333.765625 C 244.796875 332.410156 244.570312 331.085938 244.371094 329.964844 C 243.3125 324.082031 240.855469 318.871094 237.078125 314.46875 C 236.214844 313.496094 235.304688 312.550781 234.34375 311.664062 Z M 234.34375 311.664062 " fill-opacity="1" fill-rule="nonzero"/><path fill="#fffbfa" d="M 106.261719 302.164062 C 105.324219 302.664062 104.402344 303.1875 103.519531 303.761719 C 99.179688 306.527344 95.488281 310.117188 93.082031 314.417969 C 91.972656 316.414062 90.6875 319.34375 90.050781 322.324219 C 89.453125 325.128906 89.441406 327.984375 90.675781 330.113281 C 91.859375 332.148438 95.8125 334.003906 97.746094 334.976562 C 104.304688 338.304688 110.863281 340.597656 117.132812 342.121094 C 117.234375 342.070312 117.347656 342.03125 117.445312 341.984375 C 120.152344 340.722656 121.859375 338.730469 122.84375 336.359375 C 124.777344 331.699219 123.917969 325.601562 122.347656 320.863281 C 121.199219 317.386719 119.515625 314.144531 117.296875 311.253906 C 116.933594 310.792969 116.5625 310.332031 116.175781 309.882812 C 113.441406 306.714844 110 304.085938 106.261719 302.164062 Z M 106.261719 302.164062 " fill-opacity="1" fill-rule="nonzero"/><path fill="#000000" d="M 117.132812 343.355469 C 117.035156 343.355469 116.933594 343.339844 116.847656 343.316406 C 109.976562 341.644531 103.367188 339.203125 97.195312 336.074219 L 96.683594 335.8125 C 93.753906 334.339844 90.800781 332.746094 89.625 330.726562 C 88.367188 328.554688 88.105469 325.640625 88.867188 322.074219 C 89.675781 318.285156 91.347656 315.042969 92.019531 313.820312 C 94.414062 309.558594 98.15625 305.71875 102.871094 302.726562 C 103.78125 302.152344 104.726562 301.59375 105.699219 301.082031 C 106.050781 300.894531 106.472656 300.894531 106.835938 301.070312 C 110.789062 303.089844 114.339844 305.855469 117.121094 309.070312 C 117.519531 309.53125 117.90625 310.007812 118.28125 310.492188 C 120.539062 313.433594 122.296875 316.789062 123.519531 320.464844 C 124.492188 323.382812 126.472656 330.835938 123.980469 336.820312 C 122.796875 339.675781 120.761719 341.78125 117.96875 343.078125 L 117.621094 343.230469 C 117.457031 343.316406 117.296875 343.355469 117.132812 343.355469 Z M 106.273438 303.550781 C 105.5625 303.949219 104.851562 304.359375 104.179688 304.785156 C 99.8125 307.5625 96.335938 311.105469 94.152344 315.019531 C 92.855469 317.347656 91.773438 320.167969 91.261719 322.574219 C 90.636719 325.488281 90.8125 327.882812 91.746094 329.492188 C 92.644531 331.039062 95.984375 332.71875 97.78125 333.617188 L 98.304688 333.878906 C 104.191406 336.871094 110.488281 339.203125 117.035156 340.835938 C 119.214844 339.800781 120.800781 338.128906 121.734375 335.898438 C 123.90625 330.675781 122.085938 323.917969 121.199219 321.25 C 120.066406 317.835938 118.429688 314.71875 116.335938 312 C 115.988281 311.550781 115.636719 311.117188 115.265625 310.691406 C 112.808594 307.863281 109.714844 305.40625 106.273438 303.550781 Z M 106.273438 303.550781 " fill-opacity="1" fill-rule="nonzero"/><path fill="#fffbfa" d="M 211.5 350.523438 C 220.617188 349.523438 229.496094 347.917969 238.097656 344.898438 C 240.195312 344.164062 245.21875 343.09375 245.917969 340.449219 C 246.476562 338.34375 246.414062 335.949219 246.152344 333.628906 C 242.339844 335.414062 239.394531 337.070312 235.90625 338.292969 C 227.601562 341.199219 218.585938 343.015625 209.757812 342.84375 C 209.558594 342.84375 209.34375 342.832031 209.144531 342.832031 C 200.140625 342.554688 190.878906 340.847656 182.285156 338.167969 C 178.234375 336.910156 173.421875 333.554688 169.195312 333.34375 C 166.648438 333.21875 163.667969 334.828125 161.238281 335.449219 C 157.1875 336.496094 153.007812 337.183594 148.855469 337.644531 C 140.101562 338.605469 131.347656 338.15625 122.859375 336.371094 C 115.6875 334.863281 108.71875 332.421875 102.082031 329.054688 C 99.691406 327.847656 93.679688 325.003906 90.0625 322.324219 C 89.464844 325.128906 89.453125 327.984375 90.6875 330.113281 C 91.871094 332.148438 95.824219 334.003906 97.757812 334.976562 C 104.316406 338.304688 110.875 340.597656 117.148438 342.121094 C 132.136719 345.773438 145.550781 345.125 153.707031 344.050781 C 156.886719 343.628906 160.015625 342.980469 163.097656 342.082031 C 164.355469 341.722656 166.488281 340.425781 167.820312 340.574219 C 170.914062 340.921875 177.835938 344.414062 181.363281 345.410156 C 191.003906 348.140625 201.140625 349.625 211.152344 349.289062 Z M 211.5 350.523438 " fill-opacity="1" fill-rule="nonzero"/><path fill="#000000" d="M 247.386719 333.503906 C 247.339844 333.121094 247.113281 332.769531 246.765625 332.582031 C 246.429688 332.394531 246.015625 332.371094 245.65625 332.546875 C 244.53125 333.070312 243.484375 333.582031 242.476562 334.078125 C 240.03125 335.277344 237.925781 336.308594 235.519531 337.160156 C 226.675781 340.238281 217.800781 341.785156 209.804688 341.632812 L 209.195312 341.621094 C 200.679688 341.359375 191.5 339.761719 182.660156 337.007812 C 181.214844 336.558594 179.65625 335.824219 177.996094 335.039062 C 175.128906 333.679688 172.148438 332.285156 169.269531 332.132812 C 167.285156 332.035156 165.316406 332.757812 163.394531 333.46875 C 162.511719 333.78125 161.6875 334.089844 160.9375 334.277344 C 157.273438 335.226562 153.15625 335.949219 148.730469 336.433594 C 140.164062 337.359375 131.546875 336.945312 123.121094 335.175781 C 116.035156 333.691406 109.152344 331.261719 102.644531 327.96875 L 101.421875 327.359375 C 98.578125 325.949219 93.816406 323.582031 90.785156 321.351562 C 90.449219 321.101562 90.011719 321.039062 89.625 321.1875 C 89.242188 321.339844 88.953125 321.664062 88.867188 322.074219 C 88.105469 325.640625 88.367188 328.554688 89.625 330.726562 C 90.800781 332.746094 93.753906 334.339844 96.683594 335.8125 L 97.195312 336.074219 C 103.367188 339.203125 109.976562 341.644531 116.847656 343.316406 C 131.859375 346.980469 145.265625 346.40625 153.855469 345.273438 C 157.085938 344.851562 160.304688 344.175781 163.433594 343.265625 C 163.929688 343.128906 164.480469 342.878906 165.066406 342.632812 C 165.9375 342.246094 167.109375 341.734375 167.683594 341.796875 C 169.332031 341.96875 172.511719 343.277344 175.316406 344.4375 C 177.472656 345.324219 179.503906 346.171875 181.027344 346.59375 C 191.039062 349.425781 200.867188 350.757812 210.242188 350.546875 L 210.328125 350.859375 C 210.328125 350.859375 210.378906 350.832031 210.378906 350.832031 C 211.488281 350.921875 215.742188 351.234375 220.269531 350.597656 C 220.929688 350.484375 221.589844 350.371094 222.238281 350.261719 C 222.238281 350.261719 222.25 350.261719 222.25 350.261719 C 222.539062 350.210938 222.8125 350.160156 223.097656 350.109375 C 228.710938 349.074219 233.757812 347.742188 238.523438 346.070312 C 238.847656 345.960938 239.234375 345.835938 239.683594 345.699219 C 242.339844 344.875 246.355469 343.640625 247.113281 340.773438 C 247.636719 338.804688 247.726562 336.421875 247.386719 333.503906 Z M 244.746094 340.148438 C 244.332031 341.707031 240.84375 342.78125 238.960938 343.355469 C 238.484375 343.503906 238.050781 343.628906 237.699219 343.753906 C 230.34375 346.332031 228.757812 347.082031 218.871094 348.214844 L 216.003906 348.390625 C 213.324219 348.390625 212.796875 348.425781 212.261719 348.425781 C 212.25 348.425781 210.992188 348.378906 210.964844 348.390625 C 201.550781 348.703125 191.789062 347.105469 181.6875 344.25 C 180.304688 343.851562 178.332031 343.042969 176.25 342.183594 C 173.144531 340.910156 169.953125 339.589844 167.960938 339.363281 C 166.738281 339.226562 165.339844 339.839844 164.09375 340.386719 C 163.582031 340.613281 163.097656 340.824219 162.757812 340.921875 C 159.742188 341.796875 156.648438 342.445312 153.542969 342.855469 C 145.164062 343.964844 132.085938 344.527344 117.433594 340.949219 C 110.75 339.316406 104.316406 336.945312 98.304688 333.890625 L 97.78125 333.628906 C 95.984375 332.734375 92.644531 331.050781 91.746094 329.503906 C 91.011719 328.246094 90.75 326.511719 90.960938 324.429688 C 94.027344 326.414062 97.867188 328.320312 100.324219 329.542969 L 101.535156 330.140625 C 108.230469 333.53125 115.324219 336.023438 122.609375 337.558594 C 131.285156 339.390625 140.164062 339.8125 148.992188 338.855469 C 153.542969 338.355469 157.773438 337.605469 161.550781 336.632812 C 162.410156 336.410156 163.296875 336.085938 164.230469 335.75 C 165.9375 335.136719 167.710938 334.503906 169.144531 334.566406 C 171.539062 334.691406 174.28125 335.984375 176.949219 337.246094 C 178.683594 338.066406 180.316406 338.839844 181.925781 339.339844 C 190.976562 342.167969 200.367188 343.800781 209.109375 344.0625 L 209.730469 344.078125 C 218.125 344.238281 227.0625 342.691406 236.304688 339.464844 C 238.847656 338.566406 241.128906 337.457031 243.535156 336.273438 C 244.046875 336.023438 244.558594 335.773438 245.09375 335.511719 C 245.195312 337.332031 245.082031 338.867188 244.746094 340.148438 Z M 244.746094 340.148438 " fill-opacity="1" fill-rule="nonzero"/><path fill="#000000" d="M 168.007812 341.820312 C 167.972656 341.820312 167.921875 341.820312 167.882812 341.808594 C 167.210938 341.734375 166.726562 341.136719 166.800781 340.460938 C 167.695312 331.984375 168.160156 324.878906 168.65625 317.363281 C 168.917969 313.386719 169.195312 309.285156 169.53125 304.769531 C 169.59375 303.9375 169.667969 302.800781 169.765625 301.480469 C 170.054688 297.390625 170.441406 291.792969 170.816406 289 C 170.902344 288.328125 171.5 287.867188 172.1875 287.953125 C 172.859375 288.042969 173.320312 288.652344 173.234375 289.324219 C 172.871094 292.042969 172.484375 297.589844 172.210938 301.65625 C 172.125 302.976562 172.035156 304.121094 171.972656 304.957031 C 171.625 309.457031 171.363281 313.558594 171.101562 317.523438 C 170.601562 325.066406 170.128906 332.195312 169.230469 340.722656 C 169.15625 341.359375 168.621094 341.820312 168.007812 341.820312 Z M 168.007812 341.820312 " fill-opacity="1" fill-rule="nonzero"/><path fill="#000000" d="M 83.515625 214.054688 C 83.667969 214.253906 83.066406 213.804688 83.03125 213.765625 C 82.496094 213.417969 81.933594 213.09375 81.382812 212.78125 C 79.765625 211.859375 77.941406 211.1875 76.171875 210.613281 C 71.183594 208.992188 66.097656 209.34375 61.085938 210.6875 C 56.90625 211.824219 52.78125 213.519531 49.375 216.25 C 45.347656 219.476562 42.480469 223.640625 37.429688 225.5 C 32.792969 227.207031 26.894531 226.484375 26.21875 220.597656 C 25.558594 214.789062 29.601562 209.03125 33.191406 204.878906 C 42.40625 194.257812 61.058594 185.65625 75.25 187.390625 C 86.910156 188.824219 91.859375 201.863281 85.261719 211.175781 " fill-opacity="1" fill-rule="nonzero"/><path fill="#000000" d="M 33.089844 227.542969 C 31.296875 227.542969 29.636719 227.132812 28.316406 226.308594 C 26.433594 225.148438 25.285156 223.230469 25 220.75 C 24.4375 215.824219 26.804688 210.375 32.253906 204.09375 C 42.28125 192.539062 61.644531 184.507812 75.386719 186.191406 C 81.136719 186.902344 85.75 190.269531 88.03125 195.441406 C 90.414062 200.816406 89.738281 206.972656 86.246094 211.910156 C 85.859375 212.457031 85.089844 212.59375 84.539062 212.195312 C 83.992188 211.808594 83.855469 211.039062 84.253906 210.488281 C 87.246094 206.261719 87.832031 201 85.800781 196.425781 C 83.867188 192.0625 79.964844 189.222656 75.085938 188.621094 C 62.042969 187.015625 43.664062 194.679688 34.101562 205.6875 C 29.125 211.421875 26.945312 216.25 27.429688 220.460938 C 27.628906 222.195312 28.351562 223.453125 29.601562 224.226562 C 31.394531 225.324219 34.226562 225.375 37.007812 224.351562 C 40.210938 223.179688 42.503906 220.972656 44.925781 218.628906 C 46.085938 217.519531 47.28125 216.359375 48.601562 215.300781 C 51.769531 212.769531 55.746094 210.875 60.761719 209.515625 C 66.632812 207.921875 71.796875 207.910156 76.546875 209.453125 C 78.105469 209.964844 80.136719 210.6875 81.984375 211.722656 C 82.558594 212.046875 83.128906 212.382812 83.691406 212.746094 C 83.714844 212.757812 83.816406 212.832031 83.839844 212.84375 C 83.855469 212.855469 83.878906 212.871094 83.902344 212.894531 C 84.140625 212.96875 84.363281 213.132812 84.527344 213.355469 C 84.875 213.84375 84.839844 214.566406 84.402344 214.988281 C 83.628906 215.738281 82.757812 215.101562 82.382812 214.816406 C 81.859375 214.476562 81.308594 214.167969 80.785156 213.855469 C 79.140625 212.917969 77.257812 212.257812 75.796875 211.785156 C 71.519531 210.390625 66.808594 210.414062 61.410156 211.886719 C 56.71875 213.15625 53.042969 214.902344 50.136719 217.21875 C 48.902344 218.21875 47.742188 219.328125 46.621094 220.398438 C 44.113281 222.804688 41.53125 225.296875 37.84375 226.65625 C 36.234375 227.242188 34.613281 227.542969 33.089844 227.542969 Z M 33.089844 227.542969 " fill-opacity="1" fill-rule="nonzero"/><path fill="#fff100" d="M 67.753906 190.195312 C 67.753906 190.195312 99.078125 212.058594 115.265625 223.355469 C 117.769531 225.097656 119.476562 227.765625 120.015625 230.785156 C 120.550781 233.789062 119.863281 236.890625 118.121094 239.386719 C 106.398438 256.164062 82.058594 291.019531 70.335938 307.800781 C 68.589844 310.304688 65.921875 312.015625 62.90625 312.550781 C 59.898438 313.085938 56.808594 312.398438 54.300781 310.65625 C 38.117188 299.359375 6.792969 277.496094 6.792969 277.496094 Z M 67.753906 190.195312 " fill-opacity="1" fill-rule="nonzero"/><g clip-path="url(#38b985fd97)"><path fill="#000000" d="M 60.859375 313.945312 C 58.277344 313.945312 55.761719 313.160156 53.589844 311.652344 L 6.082031 278.492188 C 5.820312 278.304688 5.632812 278.019531 5.582031 277.707031 C 5.519531 277.382812 5.597656 277.058594 5.785156 276.796875 L 66.757812 189.507812 C 66.945312 189.246094 67.230469 189.058594 67.542969 189.007812 C 67.855469 188.945312 68.191406 189.023438 68.453125 189.207031 L 115.960938 222.367188 C 118.753906 224.3125 120.613281 227.230469 121.210938 230.585938 C 121.808594 233.9375 121.0625 237.316406 119.117188 240.109375 L 71.335938 308.523438 C 69.390625 311.316406 66.472656 313.171875 63.117188 313.773438 C 62.355469 313.882812 61.609375 313.945312 60.859375 313.945312 Z M 8.488281 277.183594 L 55 309.644531 C 57.257812 311.214844 59.988281 311.8125 62.691406 311.339844 C 65.398438 310.855469 67.753906 309.359375 69.339844 307.101562 L 117.121094 238.6875 C 118.691406 236.429688 119.292969 233.699219 118.816406 230.996094 C 118.332031 228.289062 116.835938 225.933594 114.578125 224.363281 L 68.066406 191.902344 Z M 8.488281 277.183594 " fill-opacity="1" fill-rule="nonzero"/></g><path fill="#fffbfa" d="M 65.410156 193.546875 L 59.078125 202.621094 L 109.230469 237.628906 C 111.210938 239.011719 114.242188 238.113281 116 235.609375 C 117.746094 233.101562 117.558594 229.949219 115.5625 228.566406 Z M 65.410156 193.546875 " fill-opacity="1" fill-rule="nonzero"/><path fill="#000000" d="M 111.347656 239.511719 C 110.3125 239.511719 109.351562 239.210938 108.519531 238.636719 L 58.367188 203.632812 C 57.816406 203.246094 57.679688 202.484375 58.066406 201.925781 L 64.402344 192.847656 C 64.589844 192.585938 64.875 192.398438 65.1875 192.351562 C 65.5 192.289062 65.835938 192.363281 66.097656 192.550781 L 116.25 227.554688 C 118.78125 229.324219 119.117188 233.253906 116.984375 236.304688 C 115.972656 237.738281 114.578125 238.789062 113.042969 239.25 C 112.46875 239.421875 111.898438 239.511719 111.347656 239.511719 Z M 60.773438 202.324219 L 109.914062 236.628906 C 110.5625 237.078125 111.421875 237.179688 112.332031 236.90625 C 113.34375 236.605469 114.292969 235.894531 114.976562 234.910156 C 116.3125 232.992188 116.261719 230.546875 114.851562 229.5625 L 65.710938 195.253906 Z M 60.773438 202.324219 " fill-opacity="1" fill-rule="nonzero"/><path fill="#fffbfa" d="M 22.714844 222.71875 C 24.75 219.9375 29.027344 217.445312 30.386719 216.734375 C 36.457031 213.53125 44.238281 210.789062 49.710938 216.996094 C 51.269531 218.765625 52.167969 221.160156 52.445312 223.480469 C 52.503906 224.039062 52.667969 226.832031 52.667969 226.832031 C 52.667969 226.832031 57.40625 226.917969 60.074219 227.316406 C 65.996094 228.214844 71.558594 232.417969 75.25 237.117188 C 78.828125 241.691406 81.335938 247.863281 80.386719 253.746094 C 80.074219 255.652344 79.289062 257.847656 78.28125 259.269531 C 78.242188 259.320312 78.265625 259.394531 78.304688 259.445312 C 79.625 260.640625 80.921875 261.226562 82.40625 264.269531 C 84.203125 267.96875 83.753906 272.410156 81.808594 275.9375 C 80.0625 279.101562 77.269531 281.335938 73.703125 282.03125 C 72.480469 282.269531 68.691406 282.195312 68.691406 282.195312 C 67.792969 282.855469 67.105469 285.324219 65.273438 287.03125 C 60.824219 291.183594 57.445312 290.660156 51.65625 288.117188 C 49.4375 287.144531 46.234375 285.375 46.234375 285.375 C 45.773438 285.335938 45.136719 286.855469 42.59375 288.105469 C 40.410156 289.175781 37.855469 288.339844 35.746094 287.242188 C 23.578125 280.972656 13.914062 261.863281 16.183594 249.070312 C 16.644531 246.441406 17.453125 243.886719 19 241.691406 C 19.585938 240.855469 20.335938 239.796875 21.234375 238.847656 C 21.234375 238.847656 20.308594 234.425781 20.109375 232.777344 C 19.660156 229.011719 20.496094 225.746094 22.714844 222.71875 Z M 22.714844 222.71875 " fill-opacity="1" fill-rule="nonzero"/><path fill="#000000" d="M 58.726562 291.308594 C 56.496094 291.308594 54.089844 290.507812 51.148438 289.214844 C 49.511719 288.488281 47.40625 287.378906 46.320312 286.808594 C 45.746094 287.40625 44.800781 288.351562 43.105469 289.1875 C 40.945312 290.246094 38.351562 289.960938 35.160156 288.328125 C 22.578125 281.84375 12.566406 262.285156 14.960938 248.859375 C 15.535156 245.65625 16.519531 243.074219 17.976562 240.980469 C 18.464844 240.28125 19.113281 239.371094 19.886719 238.476562 C 19.625 237.191406 19.027344 234.238281 18.875 232.914062 C 18.402344 228.828125 19.324219 225.261719 21.707031 221.996094 C 24.125 218.691406 29.226562 215.949219 29.785156 215.648438 C 35.746094 212.507812 44.386719 209.140625 50.597656 216.1875 C 52.21875 218.03125 53.304688 220.5625 53.628906 223.328125 C 53.664062 223.691406 53.738281 224.773438 53.789062 225.636719 C 55.386719 225.683594 58.292969 225.808594 60.222656 226.109375 C 65.847656 226.957031 71.808594 230.785156 76.171875 236.355469 C 80.511719 241.878906 82.46875 248.285156 81.558594 253.933594 C 81.261719 255.753906 80.613281 257.648438 79.777344 259.105469 C 79.800781 259.121094 79.8125 259.144531 79.839844 259.15625 C 80.9375 260.042969 82.171875 261.050781 83.46875 263.730469 C 85.351562 267.621094 85.113281 272.394531 82.84375 276.523438 C 80.859375 280.113281 77.679688 282.492188 73.902344 283.21875 C 72.84375 283.417969 70.3125 283.417969 69.175781 283.402344 C 68.988281 283.679688 68.753906 284.101562 68.566406 284.4375 C 67.980469 285.484375 67.257812 286.808594 66.074219 287.902344 C 63.515625 290.308594 61.234375 291.308594 58.726562 291.308594 Z M 46.195312 284.140625 C 46.234375 284.140625 46.285156 284.140625 46.320312 284.140625 C 46.496094 284.152344 46.65625 284.203125 46.808594 284.289062 C 46.832031 284.300781 49.988281 286.035156 52.132812 286.980469 C 57.832031 289.488281 60.535156 289.738281 64.425781 286.121094 C 65.324219 285.285156 65.921875 284.214844 66.445312 283.265625 C 66.933594 282.394531 67.34375 281.644531 67.957031 281.199219 C 68.167969 281.035156 68.429688 280.949219 68.703125 280.960938 C 70.125 280.984375 72.667969 280.972656 73.464844 280.824219 C 76.570312 280.226562 79.078125 278.328125 80.734375 275.339844 C 82.605469 271.960938 82.820312 267.921875 81.308594 264.792969 C 80.25 262.597656 79.363281 261.886719 78.34375 261.050781 C 78.054688 260.828125 77.78125 260.589844 77.496094 260.339844 C 76.984375 259.890625 76.894531 259.132812 77.28125 258.570312 C 78.144531 257.363281 78.902344 255.34375 79.191406 253.546875 C 79.976562 248.648438 78.15625 242.789062 74.289062 237.863281 C 70.300781 232.777344 64.914062 229.289062 59.898438 228.527344 C 57.34375 228.140625 52.707031 228.054688 52.65625 228.054688 C 52.019531 228.042969 51.496094 227.542969 51.457031 226.894531 C 51.394531 225.785156 51.285156 224.003906 51.246094 223.617188 C 50.972656 221.335938 50.113281 219.265625 48.816406 217.792969 C 44.898438 213.367188 39.402344 213.367188 30.984375 217.804688 C 29.089844 218.804688 25.421875 221.109375 23.726562 223.441406 C 21.695312 226.222656 20.933594 229.136719 21.34375 232.628906 C 21.53125 234.199219 22.441406 238.550781 22.441406 238.585938 C 22.53125 238.988281 22.40625 239.386719 22.128906 239.683594 C 21.28125 240.582031 20.546875 241.628906 20.011719 242.390625 C 18.738281 244.210938 17.902344 246.390625 17.390625 249.285156 C 15.210938 261.585938 24.75 280.199219 36.308594 286.160156 C 38.753906 287.417969 40.636719 287.691406 42.042969 287.007812 C 43.429688 286.320312 44.152344 285.558594 44.636719 285.0625 C 45.0625 284.601562 45.511719 284.140625 46.195312 284.140625 Z M 79.101562 258.519531 L 79.117188 258.535156 C 79.117188 258.519531 79.117188 258.519531 79.101562 258.519531 Z M 22.714844 222.71875 Z M 22.714844 222.71875 " fill-opacity="1" fill-rule="nonzero"/><path fill="#000000" d="M 47.019531 286.992188 C 46.84375 286.992188 46.65625 286.957031 46.484375 286.871094 C 39.261719 283.339844 33.628906 275.25 33.078125 267.621094 C 33.027344 266.949219 33.539062 266.363281 34.214844 266.3125 C 34.875 266.261719 35.472656 266.773438 35.523438 267.445312 C 36.007812 274.253906 41.070312 281.496094 47.554688 284.664062 C 48.167969 284.960938 48.414062 285.683594 48.117188 286.296875 C 47.90625 286.746094 47.46875 286.992188 47.019531 286.992188 Z M 69.738281 283.417969 C 69.726562 283.417969 69.699219 283.417969 69.6875 283.417969 C 68.976562 283.390625 67.632812 283.191406 67.246094 283.140625 C 65.484375 282.878906 64.027344 282.394531 62.480469 281.882812 L 62.007812 281.722656 C 54.265625 279.164062 48.191406 272.933594 46.53125 265.839844 C 46.382812 265.179688 46.78125 264.53125 47.441406 264.367188 C 48.105469 264.21875 48.765625 264.617188 48.914062 265.277344 C 50.359375 271.460938 55.933594 277.132812 62.78125 279.390625 L 63.253906 279.550781 C 64.75 280.050781 66.046875 280.488281 67.605469 280.710938 C 68.179688 280.796875 69.289062 280.949219 69.800781 280.960938 C 70.472656 280.984375 70.996094 281.558594 70.972656 282.230469 C 70.921875 282.894531 70.386719 283.417969 69.738281 283.417969 Z M 71.421875 263.058594 C 67.867188 263.058594 64.425781 261.25 62.21875 258.132812 C 61.746094 257.472656 61.382812 256.761719 61.035156 256.078125 C 60.609375 255.242188 60.199219 254.445312 59.652344 253.847656 C 58.988281 253.125 58.03125 252.625 57.019531 252.101562 C 56.769531 251.976562 56.535156 251.851562 56.296875 251.714844 C 55.699219 251.390625 55.484375 250.65625 55.808594 250.054688 C 56.132812 249.46875 56.882812 249.246094 57.46875 249.570312 C 57.691406 249.695312 57.917969 249.808594 58.15625 249.933594 C 59.25 250.503906 60.511719 251.152344 61.457031 252.199219 C 62.230469 253.046875 62.730469 254.019531 63.21875 254.96875 C 63.542969 255.605469 63.851562 256.203125 64.214844 256.726562 C 66.195312 259.519531 69.390625 260.976562 72.542969 260.539062 C 74.015625 260.339844 75.425781 259.730469 76.746094 258.746094 L 76.96875 258.582031 C 77.132812 258.472656 77.46875 258.234375 77.542969 258.121094 C 77.769531 257.488281 78.46875 257.199219 79.089844 257.4375 C 79.726562 257.660156 80.039062 258.410156 79.800781 259.042969 C 79.539062 259.769531 78.867188 260.242188 78.378906 260.589844 L 78.203125 260.714844 C 76.570312 261.9375 74.726562 262.710938 72.878906 262.972656 C 72.394531 263.023438 71.90625 263.058594 71.421875 263.058594 Z M 20.632812 240.792969 C 20.347656 240.792969 20.121094 240.683594 20.011719 240.621094 C 19.460938 240.296875 19.261719 239.558594 19.550781 238.988281 C 19.613281 238.875 19.675781 238.773438 19.761719 238.6875 C 19.847656 238.550781 19.960938 238.402344 20.035156 238.324219 C 20.296875 238.015625 20.585938 237.714844 20.859375 237.429688 C 21.632812 236.644531 22.480469 235.859375 23.464844 235.035156 C 26.269531 232.679688 29.300781 230.820312 32.46875 229.511719 C 33.089844 229.25 33.800781 229.550781 34.0625 230.171875 C 34.324219 230.796875 34.027344 231.507812 33.402344 231.769531 C 30.472656 232.976562 27.65625 234.710938 25.046875 236.90625 C 24.125 237.675781 23.328125 238.414062 22.617188 239.148438 C 22.378906 239.398438 22.144531 239.636719 21.917969 239.898438 C 21.894531 239.933594 21.832031 240.019531 21.78125 240.097656 C 21.394531 240.644531 20.972656 240.792969 20.632812 240.792969 Z M 43.402344 229.75 C 42.867188 229.75 42.378906 229.398438 42.230469 228.851562 C 42.042969 228.203125 42.429688 227.53125 43.078125 227.34375 C 45.871094 226.558594 48.328125 226.070312 50.597656 225.820312 C 51.183594 225.761719 51.757812 225.761719 52.332031 225.761719 C 53.003906 225.761719 53.601562 225.761719 54.152344 225.671875 C 54.8125 225.558594 55.449219 225.996094 55.574219 226.671875 C 55.683594 227.332031 55.25 227.964844 54.589844 228.089844 C 53.828125 228.226562 53.078125 228.214844 52.34375 228.214844 C 51.808594 228.214844 51.320312 228.214844 50.871094 228.265625 C 48.738281 228.488281 46.410156 228.964844 43.753906 229.699219 C 43.613281 229.738281 43.503906 229.75 43.402344 229.75 Z M 43.402344 229.75 " fill-opacity="1" fill-rule="nonzero"/><path fill="#fffbfa" d="M 221.425781 132.164062 C 213.199219 132.164062 206.527344 146.6875 206.527344 164.574219 C 206.527344 182.464844 213.210938 196.988281 221.425781 196.988281 C 229.65625 196.988281 236.328125 182.464844 236.328125 164.574219 C 236.328125 146.6875 229.644531 132.164062 221.425781 132.164062 Z M 221.425781 132.164062 " fill-opacity="1" fill-rule="nonzero"/><path fill="#000000" d="M 221.425781 198.222656 C 212.386719 198.222656 205.304688 183.449219 205.304688 164.589844 C 205.304688 145.726562 212.386719 130.953125 221.425781 130.953125 C 230.46875 130.953125 237.5625 145.726562 237.5625 164.589844 C 237.5625 183.449219 230.46875 198.222656 221.425781 198.222656 Z M 221.425781 133.386719 C 214.007812 133.386719 207.75 147.671875 207.75 164.574219 C 207.75 181.480469 214.007812 195.765625 221.425781 195.765625 C 228.847656 195.765625 235.105469 181.480469 235.105469 164.574219 C 235.105469 147.671875 228.835938 133.386719 221.425781 133.386719 Z M 221.425781 133.386719 " fill-opacity="1" fill-rule="nonzero"/><path fill="#000000" d="M 182.824219 161.722656 C 182.5 161.722656 182.160156 161.582031 181.925781 161.320312 C 177.871094 156.945312 174.15625 154.714844 172.359375 153.65625 C 162.222656 147.597656 156.199219 146.226562 147.308594 154.078125 C 146.8125 154.527344 146.039062 154.476562 145.589844 153.980469 C 145.140625 153.46875 145.191406 152.695312 145.703125 152.257812 C 156.5625 142.648438 164.441406 146.074219 173.621094 151.5625 C 175.503906 152.683594 179.429688 155.027344 183.71875 159.675781 C 184.183594 160.175781 184.144531 160.949219 183.65625 161.410156 C 183.410156 161.621094 183.121094 161.722656 182.824219 161.722656 Z M 182.824219 161.722656 " fill-opacity="1" fill-rule="nonzero"/><path fill="#000000" d="M 230.980469 164.5 C 230.980469 164.726562 230.980469 164.949219 230.980469 165.175781 C 230.980469 176.667969 227.476562 186.003906 223.171875 186.003906 C 218.859375 186.003906 215.367188 176.667969 215.367188 165.175781 C 215.367188 153.679688 218.871094 144.34375 223.171875 144.34375 C 226.015625 144.34375 228.523438 148.417969 229.882812 154.515625 L 223.171875 159.128906 Z M 230.980469 164.5 " fill-opacity="1" fill-rule="nonzero"/><path fill="#000000" d="M 223.171875 187.238281 C 217.3125 187.238281 214.144531 175.871094 214.144531 165.1875 C 214.144531 154.492188 217.3125 143.132812 223.171875 143.132812 C 226.613281 143.132812 229.496094 147.183594 231.066406 154.253906 C 231.179688 154.738281 230.980469 155.238281 230.566406 155.523438 L 225.316406 159.140625 L 231.664062 163.503906 C 231.988281 163.726562 232.1875 164.101562 232.1875 164.5 L 232.1875 165.1875 C 232.214844 175.871094 229.046875 187.238281 223.171875 187.238281 Z M 223.171875 145.566406 C 220.066406 145.566406 216.589844 153.953125 216.589844 165.175781 C 216.589844 176.394531 220.066406 184.785156 223.171875 184.785156 C 226.277344 184.785156 229.757812 176.394531 229.757812 165.175781 L 229.757812 165.148438 L 222.476562 160.136719 C 222.136719 159.914062 221.953125 159.539062 221.953125 159.128906 C 221.953125 158.714844 222.152344 158.355469 222.476562 158.117188 L 228.496094 153.980469 C 227.0625 148.183594 224.820312 145.566406 223.171875 145.566406 Z M 223.171875 145.566406 " fill-opacity="1" fill-rule="nonzero"/><path fill="#000000" d="M 210.34375 126.441406 C 210.191406 126.441406 210.042969 126.417969 209.894531 126.355469 C 209.269531 126.105469 208.957031 125.394531 209.207031 124.769531 C 212.027344 117.664062 219.707031 112.191406 227.6875 115.332031 C 230.207031 116.332031 232.675781 118.140625 235.03125 120.71875 C 235.992188 121.777344 236.703125 122.675781 237.261719 123.5625 C 237.988281 124.722656 238.113281 125.195312 237.800781 125.742188 L 235.691406 124.507812 L 236.738281 125.144531 L 235.640625 125.695312 C 235.59375 125.605469 235.242188 124.933594 235.179688 124.820312 C 234.71875 124.085938 234.109375 123.3125 233.234375 122.351562 C 231.128906 120.046875 228.972656 118.449219 226.800781 117.589844 C 220.242188 115.011719 213.859375 119.660156 211.488281 125.65625 C 211.289062 126.15625 210.828125 126.441406 210.34375 126.441406 Z M 181.648438 126.441406 C 181.164062 126.441406 180.703125 126.140625 180.515625 125.667969 C 178.148438 119.671875 171.761719 115.023438 165.203125 117.601562 C 163.035156 118.449219 160.875 120.058594 158.769531 122.363281 C 157.894531 123.324219 157.285156 124.097656 156.800781 124.871094 C 156.761719 124.945312 156.398438 125.617188 156.363281 125.707031 L 155.277344 125.15625 L 154.191406 125.753906 C 153.882812 125.195312 154.007812 124.734375 154.730469 123.574219 C 155.464844 122.414062 156.351562 121.390625 156.960938 120.730469 C 159.316406 118.152344 161.785156 116.332031 164.304688 115.347656 C 172.296875 112.203125 179.980469 117.675781 182.796875 124.785156 C 183.046875 125.40625 182.734375 126.117188 182.113281 126.367188 C 181.949219 126.417969 181.800781 126.441406 181.648438 126.441406 Z M 181.648438 126.441406 " fill-opacity="1" fill-rule="nonzero"/><path fill="#fffbfa" d="M 194.082031 185.429688 C 186.800781 185.429688 180.890625 189.160156 180.890625 193.757812 C 180.890625 198.359375 186.800781 202.085938 194.082031 202.085938 C 201.363281 202.085938 207.273438 198.359375 207.273438 193.757812 C 207.273438 189.171875 201.363281 185.429688 194.082031 185.429688 Z M 194.082031 185.429688 " fill-opacity="1" fill-rule="nonzero"/><path fill="#000000" d="M 194.082031 203.308594 C 186.003906 203.308594 179.667969 199.121094 179.667969 193.757812 C 179.667969 188.410156 186.003906 184.210938 194.082031 184.210938 C 202.164062 184.210938 208.496094 188.398438 208.496094 193.757812 C 208.496094 199.105469 202.164062 203.308594 194.082031 203.308594 Z M 194.082031 186.652344 C 187.597656 186.652344 182.113281 189.90625 182.113281 193.757812 C 182.113281 197.609375 187.597656 200.863281 194.082031 200.863281 C 200.566406 200.863281 206.054688 197.609375 206.054688 193.757812 C 206.054688 189.90625 200.578125 186.652344 194.082031 186.652344 Z M 194.082031 186.652344 " fill-opacity="1" fill-rule="nonzero"/><path fill="#000000" d="M 192.023438 231.058594 C 194.480469 231.144531 196.875 231.007812 198.707031 230.734375 C 209.832031 229.113281 219.917969 225.671875 226.253906 216.0625 C 228.347656 212.882812 230.03125 209.03125 231.203125 204.34375 C 231.191406 204.316406 230.554688 204.804688 230.503906 204.855469 C 230.007812 205.214844 229.496094 205.550781 228.972656 205.863281 C 227.363281 206.824219 225.691406 207.695312 224.007812 208.53125 C 219.332031 210.851562 214.355469 212.644531 209.292969 213.867188 C 208.695312 214.003906 208.097656 214.140625 207.5 214.265625 C 204.90625 214.800781 202.226562 215.199219 199.46875 215.425781 C 197.039062 215.625 194.554688 215.710938 192.023438 215.664062 C 189.492188 215.710938 187.011719 215.625 184.582031 215.425781 C 181.824219 215.1875 179.144531 214.800781 176.550781 214.265625 C 175.953125 214.140625 175.351562 214.003906 174.753906 213.867188 C 169.679688 212.644531 164.703125 210.851562 160.042969 208.53125 C 158.359375 207.695312 156.699219 206.824219 155.089844 205.863281 C 154.566406 205.550781 154.054688 205.214844 153.558594 204.855469 C 153.496094 204.816406 152.871094 204.316406 152.859375 204.34375 C 154.03125 209.03125 155.714844 212.882812 157.808594 216.0625 C 164.144531 225.671875 174.230469 229.101562 185.355469 230.734375 C 187.175781 231.007812 189.554688 231.144531 192.023438 231.058594 Z M 192.023438 231.058594 " fill-opacity="1" fill-rule="nonzero"/><path fill="#000000" d="M 190.554688 232.304688 C 188.632812 232.304688 186.761719 232.179688 185.152344 231.941406 C 175.691406 230.558594 163.917969 227.59375 156.761719 216.734375 C 154.53125 213.34375 152.808594 209.28125 151.648438 204.640625 C 151.574219 204.332031 151.625 203.992188 151.785156 203.707031 C 151.960938 203.433594 152.222656 203.234375 152.546875 203.144531 C 153.144531 202.996094 153.46875 203.246094 154.167969 203.78125 C 154.167969 203.78125 154.253906 203.855469 154.269531 203.855469 C 154.667969 204.15625 155.128906 204.453125 155.703125 204.792969 C 157.0625 205.601562 158.570312 206.414062 160.578125 207.410156 C 165.152344 209.691406 170.027344 211.449219 175.042969 212.644531 C 175.628906 212.78125 176.214844 212.917969 176.800781 213.042969 C 179.34375 213.582031 182 213.953125 184.679688 214.191406 C 187.074219 214.390625 189.53125 214.476562 192 214.429688 C 194.507812 214.464844 196.976562 214.390625 199.355469 214.191406 C 202.039062 213.964844 204.695312 213.582031 207.238281 213.042969 C 207.824219 212.917969 208.421875 212.796875 208.996094 212.644531 C 214.007812 211.449219 218.871094 209.679688 223.460938 207.410156 C 225.46875 206.414062 226.964844 205.601562 228.335938 204.792969 C 228.898438 204.453125 229.359375 204.15625 229.769531 203.84375 C 230.566406 203.234375 230.890625 202.984375 231.488281 203.132812 C 231.800781 203.207031 232.078125 203.40625 232.25 203.695312 C 232.425781 203.96875 232.476562 204.304688 232.386719 204.628906 C 231.226562 209.253906 229.507812 213.332031 227.277344 216.722656 C 220.128906 227.566406 208.347656 230.546875 198.882812 231.929688 C 196.863281 232.230469 194.429688 232.34375 192.011719 232.265625 C 191.527344 232.304688 191.039062 232.304688 190.554688 232.304688 Z M 154.929688 207.210938 C 155.9375 210.277344 157.234375 213.019531 158.804688 215.402344 C 165.414062 225.4375 176.550781 228.226562 185.503906 229.539062 C 187.359375 229.8125 189.71875 229.921875 191.976562 229.847656 C 192 229.847656 192.023438 229.847656 192.0625 229.847656 C 194.320312 229.921875 196.675781 229.8125 198.535156 229.539062 C 207.488281 228.226562 218.621094 225.449219 225.230469 215.402344 C 226.789062 213.03125 228.085938 210.289062 229.097656 207.210938 C 227.800781 207.957031 226.378906 208.730469 224.542969 209.640625 C 219.792969 211.996094 214.757812 213.828125 209.570312 215.078125 C 208.96875 215.226562 208.359375 215.363281 207.734375 215.488281 C 205.09375 216.035156 202.335938 216.433594 199.554688 216.671875 C 197.085938 216.882812 194.53125 216.957031 191.988281 216.921875 C 189.480469 216.972656 186.9375 216.882812 184.46875 216.671875 C 181.6875 216.433594 178.933594 216.035156 176.289062 215.488281 C 175.675781 215.363281 175.066406 215.226562 174.457031 215.078125 C 169.269531 213.828125 164.21875 212.007812 159.480469 209.640625 C 157.660156 208.730469 156.226562 207.96875 154.929688 207.210938 Z M 154.929688 207.210938 " fill-opacity="1" fill-rule="nonzero"/><path fill="#fffbfa" d="M 192.023438 223.316406 C 196.476562 223.355469 200.878906 222.894531 205.203125 222.105469 C 211.863281 220.898438 218.398438 218.878906 224.84375 216.574219 C 225.316406 216.398438 225.792969 216.234375 226.253906 216.074219 C 228.347656 212.894531 230.03125 209.042969 231.203125 204.355469 C 231.191406 204.332031 230.554688 204.816406 230.503906 204.867188 C 230.007812 205.226562 229.496094 205.566406 228.972656 205.875 C 227.363281 206.835938 225.691406 207.707031 224.007812 208.542969 C 219.332031 210.863281 214.355469 212.65625 209.292969 213.878906 C 208.695312 214.015625 208.097656 214.152344 207.5 214.277344 C 204.90625 214.816406 202.226562 215.214844 199.46875 215.4375 C 197.039062 215.636719 194.554688 215.722656 192.023438 215.675781 C 189.492188 215.722656 187.011719 215.636719 184.582031 215.4375 C 181.824219 215.199219 179.144531 214.816406 176.550781 214.277344 C 175.953125 214.152344 175.351562 214.015625 174.753906 213.878906 C 169.679688 212.65625 164.703125 210.863281 160.042969 208.542969 C 158.359375 207.707031 156.699219 206.835938 155.089844 205.875 C 154.566406 205.566406 154.054688 205.226562 153.558594 204.867188 C 153.496094 204.828125 152.871094 204.332031 152.859375 204.355469 C 154.03125 209.042969 155.714844 212.894531 157.808594 216.074219 C 158.28125 216.234375 158.757812 216.398438 159.21875 216.574219 C 165.664062 218.878906 172.199219 220.898438 178.855469 222.105469 C 183.171875 222.894531 187.5625 223.339844 192.023438 223.316406 Z M 192.023438 223.316406 " fill-opacity="1" fill-rule="nonzero"/><path fill="#000000" d="M 192.472656 224.539062 C 192.175781 224.539062 191.875 224.539062 191.574219 224.539062 C 187.398438 224.539062 183.160156 224.140625 178.621094 223.304688 C 172.761719 222.230469 166.460938 220.460938 158.792969 217.71875 C 158.320312 217.558594 157.859375 217.382812 157.386719 217.21875 C 157.136719 217.132812 156.910156 216.957031 156.761719 216.734375 C 154.53125 213.34375 152.808594 209.28125 151.648438 204.640625 C 151.574219 204.332031 151.625 203.992188 151.785156 203.707031 C 151.960938 203.433594 152.222656 203.234375 152.546875 203.144531 C 153.144531 202.996094 153.46875 203.246094 154.167969 203.78125 C 154.167969 203.78125 154.253906 203.855469 154.269531 203.855469 C 154.667969 204.15625 155.128906 204.453125 155.703125 204.792969 C 157.0625 205.601562 158.570312 206.414062 160.578125 207.410156 C 165.152344 209.691406 170.027344 211.449219 175.042969 212.644531 C 175.628906 212.78125 176.214844 212.917969 176.800781 213.042969 C 179.34375 213.582031 182 213.953125 184.679688 214.191406 C 187.074219 214.390625 189.542969 214.476562 192 214.429688 C 194.507812 214.464844 196.976562 214.390625 199.355469 214.191406 C 202.039062 213.964844 204.695312 213.582031 207.238281 213.042969 C 207.824219 212.917969 208.421875 212.796875 208.996094 212.644531 C 214.007812 211.449219 218.871094 209.679688 223.460938 207.410156 C 225.46875 206.414062 226.964844 205.601562 228.335938 204.792969 C 228.898438 204.453125 229.359375 204.15625 229.769531 203.84375 C 230.566406 203.234375 230.890625 202.984375 231.488281 203.132812 C 231.800781 203.207031 232.078125 203.40625 232.25 203.695312 C 232.425781 203.96875 232.476562 204.304688 232.386719 204.628906 C 231.226562 209.253906 229.507812 213.332031 227.277344 216.722656 C 227.125 216.945312 226.914062 217.121094 226.652344 217.207031 L 225.242188 217.707031 C 217.574219 220.449219 211.277344 222.230469 205.417969 223.292969 C 200.890625 224.140625 196.636719 224.539062 192.472656 224.539062 Z M 158.582031 215.050781 C 158.917969 215.175781 159.269531 215.289062 159.605469 215.414062 C 167.136719 218.105469 173.320312 219.851562 179.042969 220.898438 C 183.59375 221.734375 187.796875 222.132812 192 222.082031 L 192.011719 222.082031 C 196.175781 222.121094 200.417969 221.722656 204.96875 220.898438 C 210.691406 219.851562 216.875 218.117188 224.40625 215.414062 L 225.429688 215.050781 C 226.902344 212.757812 228.125 210.128906 229.082031 207.210938 C 227.785156 207.957031 226.367188 208.730469 224.53125 209.640625 C 219.78125 211.996094 214.742188 213.828125 209.558594 215.078125 C 208.957031 215.226562 208.347656 215.363281 207.722656 215.488281 C 205.082031 216.035156 202.324219 216.433594 199.542969 216.671875 C 197.074219 216.882812 194.519531 216.957031 191.976562 216.921875 C 189.46875 216.972656 186.925781 216.882812 184.457031 216.671875 C 181.675781 216.433594 178.917969 216.035156 176.277344 215.488281 C 175.664062 215.363281 175.054688 215.226562 174.441406 215.078125 C 169.257812 213.828125 164.207031 212.007812 159.46875 209.640625 C 157.632812 208.730469 156.214844 207.96875 154.917969 207.210938 C 155.902344 210.140625 157.125 212.757812 158.582031 215.050781 Z M 158.582031 215.050781 " fill-opacity="1" fill-rule="nonzero"/><path fill="#000000" d="M 241.105469 210.574219 C 241.066406 210.574219 241.015625 210.574219 240.980469 210.574219 C 235.566406 210.027344 231.203125 207.261719 229.332031 203.160156 C 228.695312 201.773438 228.574219 200.539062 228.535156 199.417969 C 228.511719 198.746094 229.035156 198.171875 229.707031 198.148438 C 230.40625 198.121094 230.953125 198.644531 230.980469 199.320312 C 231.015625 200.316406 231.128906 201.1875 231.566406 202.125 C 233.074219 205.425781 236.691406 207.671875 241.230469 208.132812 C 241.902344 208.195312 242.386719 208.804688 242.324219 209.464844 C 242.265625 210.101562 241.726562 210.574219 241.105469 210.574219 Z M 142.933594 210.574219 C 142.308594 210.574219 141.785156 210.101562 141.722656 209.480469 C 141.660156 208.804688 142.148438 208.207031 142.820312 208.144531 C 147.359375 207.683594 150.976562 205.441406 152.484375 202.136719 C 152.921875 201.1875 153.035156 200.328125 153.070312 199.332031 C 153.09375 198.660156 153.65625 198.121094 154.34375 198.160156 C 155.015625 198.183594 155.539062 198.746094 155.515625 199.429688 C 155.476562 200.554688 155.351562 201.773438 154.714844 203.171875 C 152.847656 207.273438 148.496094 210.039062 143.070312 210.589844 C 143.019531 210.574219 142.96875 210.574219 142.933594 210.574219 Z M 142.933594 210.574219 " fill-opacity="1" fill-rule="nonzero"/><path fill="#fffbfa" d="M 309.410156 174.148438 C 308.875 173.128906 307.617188 172.714844 306.582031 173.253906 L 302.851562 175.171875 C 301.828125 175.707031 301.417969 176.96875 301.953125 178 L 308.851562 191.351562 C 309.386719 192.375 310.644531 192.785156 311.679688 192.25 L 315.410156 190.332031 C 316.429688 189.792969 316.84375 188.535156 316.304688 187.5 Z M 309.410156 174.148438 " fill-opacity="1" fill-rule="nonzero"/><path fill="#000000" d="M 310.71875 193.710938 C 310.382812 193.710938 310.035156 193.660156 309.710938 193.546875 C 308.863281 193.273438 308.175781 192.699219 307.765625 191.914062 L 300.871094 178.5625 C 300.035156 176.941406 300.667969 174.933594 302.289062 174.085938 L 306.019531 172.167969 C 306.804688 171.757812 307.703125 171.679688 308.550781 171.957031 C 309.398438 172.230469 310.085938 172.804688 310.496094 173.589844 L 317.390625 186.941406 C 317.804688 187.726562 317.878906 188.621094 317.601562 189.46875 C 317.328125 190.320312 316.753906 191.003906 315.96875 191.414062 L 312.242188 193.335938 C 311.753906 193.585938 311.242188 193.710938 310.71875 193.710938 Z M 307.539062 174.238281 C 307.402344 174.238281 307.265625 174.273438 307.140625 174.335938 L 303.414062 176.257812 C 302.988281 176.480469 302.816406 177.003906 303.039062 177.429688 L 309.933594 190.78125 C 310.046875 190.992188 310.222656 191.140625 310.445312 191.214844 C 310.671875 191.289062 310.90625 191.265625 311.105469 191.167969 L 314.835938 189.246094 C 315.046875 189.132812 315.195312 188.960938 315.273438 188.734375 C 315.347656 188.511719 315.320312 188.273438 315.222656 188.074219 L 308.324219 174.722656 C 308.214844 174.511719 308.039062 174.363281 307.816406 174.285156 C 307.726562 174.25 307.628906 174.238281 307.539062 174.238281 Z M 307.539062 174.238281 " fill-opacity="1" fill-rule="nonzero"/><path fill="#fffbfa" d="M 270.730469 108.378906 C 288.898438 99.003906 311.269531 106.132812 320.644531 124.296875 C 330.023438 142.460938 322.890625 164.824219 304.722656 174.199219 C 286.554688 183.574219 264.183594 176.445312 254.808594 158.28125 C 245.417969 140.128906 252.550781 117.765625 270.730469 108.378906 Z M 270.730469 108.378906 " fill-opacity="1" fill-rule="nonzero"/><path fill="#000000" d="M 287.789062 183.6875 C 283.449219 183.6875 279.097656 183.011719 274.847656 181.65625 C 264.058594 178.214844 255.257812 170.785156 250.070312 160.734375 C 244.882812 150.6875 243.910156 139.207031 247.351562 128.421875 C 250.792969 117.640625 258.222656 108.839844 268.273438 103.652344 C 278.324219 98.46875 289.808594 97.507812 300.59375 100.933594 C 311.382812 104.375 320.183594 111.804688 325.371094 121.855469 C 336.09375 142.609375 327.914062 168.226562 307.152344 178.949219 C 301.070312 182.089844 294.460938 183.6875 287.789062 183.6875 Z M 287.675781 109.574219 C 282.6875 109.574219 277.738281 110.769531 273.175781 113.113281 C 265.65625 116.992188 260.09375 123.585938 257.511719 131.652344 C 254.933594 139.730469 255.65625 148.320312 259.546875 155.835938 C 263.4375 163.355469 270.019531 168.914062 278.089844 171.496094 C 286.167969 174.074219 294.757812 173.351562 302.277344 169.460938 C 317.816406 161.433594 323.9375 142.273438 315.90625 126.742188 C 312.015625 119.222656 305.433594 113.664062 297.367188 111.082031 C 294.1875 110.074219 290.917969 109.574219 287.675781 109.574219 Z M 270.730469 108.378906 Z M 270.730469 108.378906 " fill-opacity="1" fill-rule="nonzero"/><path fill="#000000" d="M 343.503906 235.371094 C 344.3125 236.941406 343.703125 238.863281 342.128906 239.671875 L 336.457031 242.601562 C 335.882812 242.902344 335.261719 243 334.660156 242.9375 C 333.726562 242.425781 332.867188 241.777344 332.066406 241.054688 L 306.105469 190.804688 C 305.296875 189.234375 305.917969 187.3125 307.476562 186.503906 L 313.152344 183.574219 C 314.722656 182.765625 316.644531 183.386719 317.453125 184.945312 Z M 343.503906 235.371094 " fill-opacity="1" fill-rule="nonzero"/><path fill="#000000" d="M 334.984375 243.113281 C 334.875 243.113281 334.75 243.113281 334.636719 243.101562 L 334.585938 243.089844 C 333.699219 242.601562 332.816406 241.964844 331.96875 241.191406 L 331.929688 241.15625 L 305.980469 190.902344 C 305.132812 189.269531 305.78125 187.25 307.414062 186.402344 L 313.089844 183.472656 C 313.875 183.0625 314.785156 182.988281 315.632812 183.261719 C 316.480469 183.535156 317.179688 184.121094 317.589844 184.90625 L 343.625 235.332031 C 344.472656 236.96875 343.828125 238.988281 342.191406 239.835938 L 336.519531 242.765625 C 336.046875 242.988281 335.523438 243.113281 334.984375 243.113281 Z M 334.699219 242.800781 C 335.285156 242.851562 335.859375 242.738281 336.382812 242.476562 L 342.054688 239.546875 C 343.550781 238.773438 344.136719 236.941406 343.363281 235.445312 L 317.328125 185.019531 C 316.953125 184.296875 316.320312 183.761719 315.546875 183.511719 C 314.773438 183.261719 313.949219 183.335938 313.226562 183.710938 L 307.554688 186.640625 C 306.054688 187.414062 305.46875 189.257812 306.242188 190.742188 L 332.191406 240.96875 C 333.003906 241.714844 333.851562 242.328125 334.699219 242.800781 Z M 334.699219 242.800781 " fill-opacity="1" fill-rule="nonzero"/><path fill="#fffbfa" d="M 318.101562 186.191406 C 321.96875 181.890625 328.636719 180.570312 334.136719 180.792969 C 337.21875 180.917969 340.382812 181.691406 343.089844 183.199219 C 345.484375 184.535156 347.15625 186.28125 348.550781 188.660156 C 349.261719 189.855469 349.738281 192.660156 349.738281 192.660156 C 349.738281 192.660156 352.679688 193.570312 353.726562 194.121094 C 356.421875 195.554688 358.839844 197.523438 360.074219 200.328125 C 360.910156 202.199219 360.996094 204.269531 360.585938 206.261719 C 360.433594 207 359.773438 209.429688 359.773438 209.429688 C 359.773438 209.429688 361.234375 210.175781 361.582031 210.390625 C 362.691406 211.0625 363.589844 212.007812 364.3125 213.082031 C 367.953125 218.578125 367.269531 226.347656 362.878906 230.820312 C 352.53125 241.34375 331.292969 243.25 331.867188 242.964844 L 342.105469 239.671875 C 343.675781 238.863281 344.289062 236.941406 343.476562 235.371094 L 340.246094 229.3125 C 336.070312 227.855469 333.726562 223.15625 334.101562 221.257812 C 334.101562 221.257812 330.308594 220.75 325.234375 212.433594 C 320.433594 204.554688 318.101562 186.191406 318.101562 186.191406 Z M 318.101562 186.191406 " fill-opacity="1" fill-rule="nonzero"/><path fill="#000000" d="M 332.03125 244.171875 C 331.730469 244.171875 331.53125 244.160156 331.445312 244.121094 C 330.996094 243.949219 330.671875 243.523438 330.644531 243.039062 C 330.621094 242.550781 330.882812 242.089844 331.320312 241.867188 C 331.382812 241.839844 331.445312 241.804688 331.507812 241.792969 L 341.644531 238.539062 C 342.554688 238.015625 342.890625 236.867188 342.417969 235.917969 L 339.410156 230.285156 C 335.585938 228.714844 333.152344 224.773438 332.890625 222.132812 C 331.28125 221.445312 328.066406 219.351562 324.210938 213.058594 C 319.324219 205.054688 316.992188 187.101562 316.890625 186.339844 C 316.84375 185.992188 316.953125 185.632812 317.191406 185.371094 C 320.71875 181.441406 327.105469 179.273438 334.1875 179.558594 C 337.652344 179.695312 340.945312 180.582031 343.6875 182.117188 C 346.171875 183.5 348.054688 185.371094 349.613281 188.023438 C 350.183594 189.007812 350.597656 190.71875 350.808594 191.703125 C 351.78125 192.015625 353.488281 192.601562 354.300781 193.023438 C 357.679688 194.820312 360 197.101562 361.195312 199.816406 C 362.070312 201.800781 362.28125 204.105469 361.792969 206.488281 C 361.707031 206.949219 361.433594 207.996094 361.222656 208.78125 C 361.632812 208.992188 362.054688 209.230469 362.230469 209.328125 C 363.429688 210.066406 364.476562 211.085938 365.335938 212.394531 C 369.25 218.316406 368.566406 226.769531 363.765625 231.667969 C 354.164062 241.441406 335.695312 244.171875 332.03125 244.171875 Z M 319.386719 186.617188 C 319.824219 189.757812 322.128906 205.003906 326.28125 211.796875 C 330.882812 219.328125 334.273438 220.050781 334.3125 220.0625 C 334.636719 220.125 334.921875 220.3125 335.109375 220.585938 C 335.296875 220.859375 335.371094 221.183594 335.308594 221.507812 C 335.085938 222.667969 336.878906 226.855469 340.660156 228.179688 C 340.945312 228.277344 341.195312 228.488281 341.332031 228.75 L 344.5625 234.808594 C 345.359375 236.34375 345.160156 238.140625 344.226562 239.433594 C 350.324219 237.664062 357.355469 234.710938 362.007812 229.972656 C 366.035156 225.871094 366.59375 218.753906 363.289062 213.765625 C 362.628906 212.769531 361.84375 211.984375 360.945312 211.449219 C 360.609375 211.238281 359.214844 210.527344 359.214844 210.527344 C 358.703125 210.265625 358.441406 209.679688 358.589844 209.117188 C 358.777344 208.445312 359.261719 206.585938 359.375 206.027344 C 359.761719 204.144531 359.613281 202.347656 358.9375 200.828125 C 357.964844 198.621094 356.007812 196.738281 353.128906 195.207031 C 352.355469 194.792969 350.148438 194.070312 349.351562 193.832031 C 348.914062 193.695312 348.589844 193.324219 348.503906 192.875 C 348.328125 191.875 347.890625 190.019531 347.46875 189.285156 C 346.121094 186.988281 344.574219 185.445312 342.46875 184.273438 C 340.046875 182.925781 337.144531 182.152344 334.0625 182.015625 C 327.964844 181.777344 322.515625 183.472656 319.386719 186.617188 Z M 319.386719 186.617188 " fill-opacity="1" fill-rule="nonzero"/><path fill="#000000" d="M 346.542969 231.878906 C 343.613281 231.878906 340.757812 231.132812 338.265625 229.660156 C 334.699219 227.542969 333.140625 224.214844 334.101562 220.734375 C 334.773438 218.304688 336.445312 215.960938 339.210938 213.582031 C 344.773438 208.792969 354.050781 205.265625 361.257812 208.832031 C 361.871094 209.128906 362.105469 209.867188 361.808594 210.464844 C 361.507812 211.074219 360.773438 211.3125 360.171875 211.011719 C 354.226562 208.070312 345.933594 211 340.808594 215.414062 C 338.453125 217.445312 336.992188 219.441406 336.457031 221.371094 C 335.523438 224.761719 338.277344 226.820312 339.511719 227.542969 C 342.878906 229.539062 347.09375 229.972656 351.058594 228.726562 C 353.191406 228.054688 355.273438 226.945312 357.242188 225.410156 C 357.855469 224.9375 358.550781 224.25 359.113281 223.589844 C 359.550781 223.078125 360.324219 223.003906 360.835938 223.441406 C 361.34375 223.878906 361.421875 224.652344 360.984375 225.160156 C 360.3125 225.960938 359.488281 226.757812 358.738281 227.34375 C 356.53125 229.050781 354.199219 230.296875 351.78125 231.058594 C 350.0625 231.605469 348.289062 231.878906 346.542969 231.878906 Z M 331.15625 200.691406 C 330.882812 200.691406 330.609375 200.601562 330.371094 200.402344 C 329.847656 199.96875 329.785156 199.207031 330.210938 198.683594 C 334.671875 193.308594 341.730469 190.355469 348.214844 191.167969 C 349.585938 191.339844 350.984375 191.652344 352.367188 192.113281 C 352.753906 192.238281 354.3125 192.875 354.960938 193.449219 C 355.472656 193.894531 355.511719 194.667969 355.0625 195.167969 C 354.613281 195.667969 353.839844 195.714844 353.339844 195.265625 C 353.128906 195.082031 352.117188 194.59375 351.605469 194.417969 C 350.371094 194.019531 349.136719 193.734375 347.917969 193.585938 C 342.328125 192.886719 335.96875 195.566406 332.09375 200.242188 C 331.855469 200.539062 331.507812 200.691406 331.15625 200.691406 Z M 331.15625 200.691406 " fill-opacity="1" fill-rule="nonzero"/><path fill="#fffbfa" d="M 331.980469 242.300781 C 332.292969 242.703125 330.257812 246.21875 330.109375 246.542969 C 329.101562 248.636719 327.328125 250.179688 325.296875 251.242188 C 318.988281 254.519531 311.605469 254.480469 305.410156 250.867188 C 296.167969 245.480469 289.621094 232.953125 293.875 222.480469 C 294.683594 220.5 295.992188 218.742188 297.664062 217.40625 C 298.3125 216.882812 299.636719 215.699219 300.285156 214.988281 C 300.285156 214.988281 299.023438 210.425781 298.910156 208.320312 C 298.574219 201.710938 302.378906 196.089844 308.1875 193.246094 C 316.121094 189.371094 329.460938 192.523438 331.507812 202.222656 C 332.492188 206.886719 329.425781 211.039062 325.660156 213.441406 C 324.398438 214.253906 320.222656 215.226562 320.394531 215.574219 C 321.617188 218.042969 322.914062 221.046875 324.210938 223.714844 C 326.082031 227.566406 328.101562 230.910156 329.835938 234.824219 C 330.683594 236.792969 332.566406 240.019531 331.980469 242.300781 Z M 331.980469 242.300781 " fill-opacity="1" fill-rule="nonzero"/><path fill="#000000" d="M 315.621094 254.855469 C 311.867188 254.855469 308.140625 253.882812 304.796875 251.925781 C 295.382812 246.441406 288.101562 233.4375 292.738281 222.019531 C 293.625 219.839844 295.058594 217.917969 296.890625 216.449219 C 297.390625 216.046875 298.277344 215.261719 298.910156 214.628906 C 298.550781 213.242188 297.765625 210.113281 297.675781 208.382812 C 297.328125 201.539062 301.144531 195.328125 307.640625 192.152344 C 312.589844 189.734375 319.5 189.855469 324.824219 192.460938 C 329.039062 194.519531 331.832031 197.898438 332.691406 201.972656 C 333.851562 207.445312 330.148438 212.023438 326.308594 214.476562 C 325.558594 214.953125 324.210938 215.402344 322.914062 215.824219 C 322.628906 215.910156 322.304688 216.023438 322.003906 216.125 C 322.480469 217.121094 322.964844 218.179688 323.453125 219.253906 C 324.0625 220.574219 324.671875 221.921875 325.285156 223.191406 C 326.046875 224.761719 326.855469 226.285156 327.628906 227.742188 C 328.738281 229.835938 329.898438 232.003906 330.921875 234.347656 C 331.058594 234.671875 331.230469 235.023438 331.417969 235.410156 C 332.355469 237.367188 333.613281 239.996094 333.214844 242.253906 C 333.289062 243 332.765625 244.160156 331.371094 246.726562 C 331.28125 246.890625 331.207031 247.015625 331.183594 247.078125 C 330.148438 249.234375 328.300781 251.042969 325.832031 252.324219 C 322.601562 254.007812 319.097656 254.855469 315.621094 254.855469 Z M 315.707031 192.863281 C 313.203125 192.863281 310.769531 193.359375 308.726562 194.359375 C 303.125 197.085938 299.835938 202.421875 300.132812 208.269531 C 300.222656 209.890625 301.117188 213.441406 301.46875 214.675781 C 301.582031 215.089844 301.480469 215.523438 301.179688 215.835938 C 300.507812 216.558594 299.148438 217.792969 298.425781 218.378906 C 296.917969 219.589844 295.730469 221.171875 295.007812 222.953125 C 290.992188 232.839844 297.464844 244.832031 306.03125 249.832031 C 311.742188 253.160156 318.738281 253.285156 324.734375 250.167969 C 326.730469 249.132812 328.203125 247.699219 329.011719 246.03125 C 329.039062 245.96875 329.125 245.804688 329.25 245.582031 C 330.347656 243.574219 330.671875 242.789062 330.769531 242.476562 C 330.746094 242.328125 330.757812 242.164062 330.796875 242.015625 C 331.167969 240.558594 330.046875 238.203125 329.238281 236.492188 C 329.039062 236.082031 328.863281 235.707031 328.714844 235.371094 C 327.714844 233.113281 326.632812 231.082031 325.496094 228.925781 C 324.710938 227.441406 323.886719 225.910156 323.113281 224.300781 C 322.492188 223.015625 321.867188 221.660156 321.257812 220.3125 C 320.597656 218.867188 319.949219 217.445312 319.3125 216.160156 C 319.148438 215.847656 319.136719 215.425781 319.273438 215.101562 C 319.574219 214.402344 320.222656 214.179688 322.167969 213.542969 C 323.152344 213.21875 324.511719 212.769531 324.996094 212.457031 C 328.152344 210.4375 331.207031 206.773438 330.308594 202.523438 C 329.410156 198.257812 326.257812 195.914062 323.761719 194.695312 C 321.292969 193.460938 318.464844 192.863281 315.707031 192.863281 Z M 331.007812 243.050781 L 331.019531 243.050781 Z M 331.007812 243.050781 " fill-opacity="1" fill-rule="nonzero"/><path fill="#000000" d="M 330.558594 244.183594 C 327.976562 244.183594 325.496094 243.875 323.128906 243.5 C 323.101562 243.5 320.65625 243.101562 319.085938 242.453125 C 318.464844 242.191406 318.164062 241.480469 318.425781 240.855469 C 318.6875 240.234375 319.398438 239.933594 320.023438 240.195312 C 321.15625 240.65625 323.089844 241.019531 323.515625 241.09375 C 327.003906 241.640625 330.769531 242.054688 334.625 241.429688 C 335.296875 241.316406 335.921875 241.777344 336.03125 242.441406 C 336.144531 243.101562 335.683594 243.734375 335.023438 243.847656 C 333.5 244.085938 332.019531 244.183594 330.558594 244.183594 Z M 310.507812 236.257812 C 310.160156 236.257812 309.808594 236.105469 309.558594 235.808594 C 305.84375 231.308594 302.964844 226.421875 301.007812 221.273438 C 300.285156 219.363281 299.546875 217.070312 299.085938 215.300781 C 298.910156 214.652344 299.3125 213.980469 299.960938 213.816406 C 300.609375 213.65625 301.28125 214.042969 301.441406 214.691406 C 301.878906 216.386719 302.589844 218.578125 303.277344 220.410156 C 305.132812 225.3125 307.878906 229.972656 311.429688 234.261719 C 311.867188 234.785156 311.792969 235.558594 311.269531 235.980469 C 311.058594 236.167969 310.78125 236.257812 310.507812 236.257812 Z M 310.507812 236.257812 " fill-opacity="1" fill-rule="nonzero"/></svg>