<svg xmlns="http://www.w3.org/2000/svg" xmlns:xlink="http://www.w3.org/1999/xlink" width="500" zoomAndPan="magnify" viewBox="0 0 375 374.999991" height="500" preserveAspectRatio="xMidYMid meet" version="1.0"><defs><clipPath id="66db15b5c1"><path d="M 164.632812 150.28125 L 210.367188 150.28125 L 210.367188 224.78125 L 164.632812 224.78125 Z M 164.632812 150.28125 " clip-rule="nonzero"/></clipPath><clipPath id="eb908be2b7"><path d="M 181.882812 150.28125 L 193.117188 150.28125 C 197.691406 150.28125 202.082031 152.097656 205.316406 155.332031 C 208.550781 158.566406 210.367188 162.957031 210.367188 167.53125 L 210.367188 207.46875 C 210.367188 212.042969 208.550781 216.433594 205.316406 219.667969 C 202.082031 222.902344 197.691406 224.71875 193.117188 224.71875 L 181.882812 224.71875 C 177.308594 224.71875 172.917969 222.902344 169.683594 219.667969 C 166.449219 216.433594 164.632812 212.042969 164.632812 207.46875 L 164.632812 167.53125 C 164.632812 162.957031 166.449219 158.566406 169.683594 155.332031 C 172.917969 152.097656 177.308594 150.28125 181.882812 150.28125 Z M 181.882812 150.28125 " clip-rule="nonzero"/></clipPath><clipPath id="3b8d2dd286"><path d="M 94 6.453125 L 304 6.453125 L 304 80 L 94 80 Z M 94 6.453125 " clip-rule="nonzero"/></clipPath><clipPath id="f8aaa80dfa"><path d="M 115 297 L 292 297 L 292 368.703125 L 115 368.703125 Z M 115 297 " clip-rule="nonzero"/></clipPath><clipPath id="201ae95f9f"><path d="M 115 322 L 160 322 L 160 368.703125 L 115 368.703125 Z M 115 322 " clip-rule="nonzero"/></clipPath><clipPath id="62887f6387"><path d="M 115 335 L 292 335 L 292 368.703125 L 115 368.703125 Z M 115 335 " clip-rule="nonzero"/></clipPath><clipPath id="8841d972c9"><path d="M 253 185 L 367.359375 185 L 367.359375 323 L 253 323 Z M 253 185 " clip-rule="nonzero"/></clipPath></defs><g clip-path="url(#66db15b5c1)"><g clip-path="url(#eb908be2b7)"><path fill="#65a1b7" d="M 164.632812 150.28125 L 210.367188 150.28125 L 210.367188 224.78125 L 164.632812 224.78125 Z M 164.632812 150.28125 " fill-opacity="1" fill-rule="nonzero"/></g></g><path fill="#000000" d="M 60.851562 177.238281 C 60.410156 177 61.292969 178.148438 61.59375 178.539062 C 62.148438 179.246094 62.828125 179.839844 63.523438 180.40625 C 65.855469 182.335938 68.414062 184.066406 71.335938 184.9375 C 76.742188 186.550781 81.304688 184.21875 85.792969 185.414062 C 91.503906 186.941406 96.152344 197.707031 92.207031 202.613281 C 88.628906 207.058594 81.253906 207.082031 76.125 207.03125 C 65.160156 206.945312 53.199219 204.066406 44.476562 197.113281 C 41.441406 194.691406 37.960938 191.410156 36.726562 187.585938 C 35.566406 183.976562 37.8125 180.609375 40.671875 178.589844 C 45.523438 175.15625 54.132812 173.589844 59.640625 176.59375 " fill-opacity="1" fill-rule="evenodd"/><path fill="#000000" d="M 77.625 208.382812 C 77.097656 208.382812 76.59375 208.382812 76.125 208.371094 C 68.703125 208.304688 54.625 206.894531 43.644531 198.160156 C 40.808594 195.902344 36.867188 192.394531 35.453125 187.988281 C 34.03125 183.574219 36.816406 179.648438 39.902344 177.464844 C 44.96875 173.871094 54.207031 172.066406 60.308594 175.394531 C 60.523438 175.511719 60.6875 175.675781 60.8125 175.875 C 61.050781 175.875 61.304688 175.9375 61.503906 176.050781 C 61.910156 176.265625 62.148438 176.65625 62.199219 177.074219 C 62.300781 177.214844 62.449219 177.414062 62.664062 177.707031 C 63.132812 178.296875 63.75 178.828125 64.390625 179.359375 C 67.078125 181.578125 69.40625 182.941406 71.738281 183.636719 C 74.375 184.417969 76.855469 184.179688 79.265625 183.925781 C 81.507812 183.699219 83.828125 183.472656 86.160156 184.101562 C 90.027344 185.136719 93.015625 189.453125 94.261719 193.277344 C 95.585938 197.328125 95.21875 201.039062 93.265625 203.460938 C 89.597656 208.003906 82.566406 208.382812 77.625 208.382812 Z M 52.644531 176.355469 C 48.585938 176.355469 44.277344 177.691406 41.453125 179.6875 C 39.148438 181.316406 37.042969 184.140625 38.011719 187.167969 C 38.90625 189.945312 41.300781 192.847656 45.324219 196.054688 C 55.671875 204.28125 69.066406 205.605469 76.152344 205.667969 C 80.828125 205.707031 87.9375 205.769531 91.175781 201.757812 C 92.523438 200.089844 92.710938 197.226562 91.703125 194.109375 C 90.492188 190.414062 87.9375 187.371094 85.464844 186.714844 C 83.601562 186.222656 81.621094 186.414062 79.527344 186.628906 C 76.984375 186.878906 74.097656 187.167969 70.957031 186.234375 C 68.261719 185.429688 65.628906 183.914062 62.664062 181.453125 C 61.910156 180.824219 61.164062 180.191406 60.535156 179.382812 C 60.132812 178.867188 59.765625 178.398438 59.550781 177.957031 C 59.363281 177.945312 59.175781 177.894531 58.996094 177.792969 C 57.183594 176.785156 54.953125 176.355469 52.644531 176.355469 Z M 52.644531 176.355469 " fill-opacity="1" fill-rule="nonzero"/><path fill="#000000" d="M 172.808594 281.230469 C 172.671875 281.21875 173 282.140625 173.023438 282.226562 C 173.1875 282.832031 173.351562 283.4375 173.503906 284.042969 C 173.929688 285.875 174.335938 287.714844 174.75 289.546875 C 175.570312 293.066406 176.324219 296.585938 177.03125 300.132812 C 177.347656 301.699219 177.445312 303.917969 178.265625 305.332031 C 179.402344 307.300781 183.773438 307.476562 185.628906 307.742188 C 192.054688 308.613281 198.632812 309.699219 205.136719 309.269531 C 208.753906 309.03125 212.371094 308.5 215.738281 307.113281 C 216.695312 306.722656 218.144531 306.304688 218.660156 305.308594 C 219.265625 304.148438 218.914062 302.40625 218.824219 301.179688 C 218.636719 298.480469 218.371094 295.78125 218.09375 293.078125 C 217.765625 289.824219 217.453125 286.554688 217.035156 283.300781 C 216.785156 281.34375 216.53125 279.148438 215.132812 277.648438 C 212.335938 274.65625 206.738281 275.566406 203.121094 275.691406 C 196.125 275.917969 189.207031 276.675781 182.324219 277.9375 C 179.402344 278.46875 175.769531 278.820312 173.046875 280.183594 " fill-opacity="1" fill-rule="evenodd"/><path fill="#000000" d="M 202.113281 310.722656 C 197.210938 310.722656 192.292969 310.039062 187.53125 309.371094 L 185.4375 309.082031 C 185.1875 309.042969 184.894531 309.015625 184.566406 308.980469 C 182.109375 308.714844 178.40625 308.296875 177.09375 306.015625 C 176.363281 304.753906 176.125 303.125 175.921875 301.6875 C 175.859375 301.230469 175.796875 300.789062 175.707031 300.398438 C 175.039062 297.003906 174.296875 293.546875 173.4375 289.847656 C 173.25 289.027344 173.0625 288.222656 172.882812 287.402344 C 172.65625 286.378906 172.429688 285.371094 172.191406 284.347656 C 172.054688 283.753906 171.902344 283.160156 171.738281 282.582031 C 171.472656 281.785156 171.234375 281.054688 171.726562 280.410156 C 171.625 279.84375 171.902344 279.25 172.457031 278.972656 C 174.800781 277.796875 177.699219 277.332031 180.257812 276.914062 C 180.886719 276.8125 181.503906 276.714844 182.085938 276.613281 C 189.066406 275.335938 196.125 274.582031 203.082031 274.339844 C 203.625 274.328125 204.21875 274.289062 204.835938 274.253906 C 208.617188 274.023438 213.316406 273.734375 216.128906 276.726562 C 217.792969 278.503906 218.121094 280.976562 218.371094 282.960938 L 218.398438 283.125 C 218.773438 286.0625 219.078125 289.066406 219.367188 291.980469 L 219.46875 292.941406 C 219.71875 295.453125 220.011719 298.292969 220.199219 301.082031 C 220.210938 301.292969 220.238281 301.535156 220.261719 301.785156 C 220.386719 303.046875 220.566406 304.625 219.882812 305.925781 C 219.203125 307.226562 217.765625 307.78125 216.707031 308.183594 L 216.265625 308.359375 C 213.242188 309.609375 209.738281 310.316406 205.238281 310.621094 C 204.179688 310.695312 203.144531 310.722656 202.113281 310.722656 Z M 174.15625 281.332031 C 174.195312 281.484375 174.257812 281.648438 174.285156 281.734375 C 174.296875 281.761719 174.320312 281.847656 174.320312 281.875 C 174.496094 282.492188 174.660156 283.125 174.8125 283.753906 C 175.050781 284.777344 175.28125 285.8125 175.519531 286.832031 C 175.695312 287.640625 175.882812 288.460938 176.074219 289.269531 C 176.929688 292.992188 177.6875 296.472656 178.367188 299.90625 C 178.457031 300.347656 178.519531 300.828125 178.59375 301.332031 C 178.769531 302.53125 178.972656 303.882812 179.4375 304.703125 C 180.070312 305.800781 183.433594 306.164062 184.871094 306.328125 C 185.222656 306.367188 185.539062 306.40625 185.816406 306.441406 L 187.910156 306.734375 C 193.554688 307.515625 199.402344 308.335938 205.0625 307.957031 C 209.257812 307.679688 212.5 307.023438 215.246094 305.902344 L 215.75 305.699219 C 216.367188 305.457031 217.289062 305.105469 217.488281 304.714844 C 217.792969 304.132812 217.679688 303.011719 217.578125 302.101562 C 217.550781 301.824219 217.515625 301.546875 217.5 301.308594 C 217.3125 298.554688 217.023438 295.742188 216.769531 293.242188 L 216.671875 292.285156 C 216.378906 289.394531 216.089844 286.417969 215.710938 283.515625 L 215.6875 283.351562 C 215.460938 281.582031 215.21875 279.753906 214.148438 278.617188 C 212.207031 276.550781 208.210938 276.789062 204.984375 276.992188 C 204.34375 277.027344 203.726562 277.066406 203.160156 277.089844 C 196.339844 277.320312 189.40625 278.0625 182.5625 279.3125 C 181.960938 279.425781 181.328125 279.527344 180.671875 279.628906 C 178.507812 279.980469 176.074219 280.371094 174.15625 281.191406 C 174.15625 281.21875 174.15625 281.269531 174.15625 281.332031 Z M 174.15625 281.332031 " fill-opacity="1" fill-rule="nonzero"/><path fill="#ff431d" d="M 199.96875 283.136719 C 177.953125 291.753906 151.128906 283.300781 131.644531 269.824219 C 84.128906 236.9375 59.90625 147.484375 91.878906 98.03125 C 98.433594 87.882812 110.015625 79.304688 121.171875 74.230469 C 139.75 65.777344 188.917969 65.890625 197.964844 75.644531 C 198.191406 75.894531 198.417969 76.148438 198.648438 76.402344 C 199.0625 75.882812 199.492188 75.390625 199.945312 74.898438 C 208.996094 65.144531 258.160156 65.03125 276.738281 73.484375 C 287.894531 78.558594 299.476562 87.140625 306.03125 97.285156 C 338.007812 146.726562 313.792969 236.195312 266.265625 269.078125 C 247.386719 282.140625 221.585938 290.492188 199.96875 283.136719 Z M 199.96875 283.136719 " fill-opacity="1" fill-rule="evenodd"/><path fill="#000000" d="M 180.671875 287.96875 C 162.535156 287.96875 144.148438 280.09375 130.890625 270.921875 C 107.875 254.996094 89.09375 224.914062 80.652344 190.449219 C 71.890625 154.714844 75.582031 120.757812 90.757812 97.285156 C 96.898438 87.785156 108.0625 78.710938 120.628906 72.992188 C 138.992188 64.640625 188.007812 64.160156 198.609375 74.355469 C 198.722656 74.230469 198.835938 74.105469 198.949219 73.976562 C 208.753906 63.402344 258.703125 63.796875 277.292969 72.25 C 289.859375 77.964844 301.027344 87.050781 307.164062 96.539062 C 322.339844 120.011719 326.03125 153.96875 317.273438 189.707031 C 308.828125 224.167969 290.046875 254.25 267.035156 270.175781 C 249.730469 282.152344 223.085938 292.160156 199.996094 284.5625 C 193.757812 286.945312 187.226562 287.96875 180.671875 287.96875 Z M 160.785156 69.523438 C 146.027344 69.523438 130.523438 71.46875 121.738281 75.453125 C 109.625 80.96875 98.886719 89.675781 93.015625 98.75 C 60.183594 149.515625 87.367188 237.53125 132.414062 268.6875 C 150.007812 280.863281 176.867188 290.71875 199.476562 281.863281 C 199.78125 281.746094 200.109375 281.734375 200.410156 281.835938 C 222.644531 289.421875 248.621094 279.628906 265.507812 267.941406 C 310.542969 236.773438 337.742188 148.769531 304.894531 98.003906 C 299.023438 88.933594 288.285156 80.210938 276.171875 74.710938 C 257.644531 66.28125 209.121094 67 200.929688 75.820312 C 200.5 76.289062 200.097656 76.753906 199.707031 77.246094 C 199.453125 77.5625 199.074219 77.738281 198.671875 77.75 C 198.28125 77.765625 197.890625 77.585938 197.625 77.285156 C 197.410156 77.042969 197.195312 76.804688 196.984375 76.566406 C 192.683594 71.921875 177.195312 69.523438 160.785156 69.523438 Z M 160.785156 69.523438 " fill-opacity="1" fill-rule="nonzero"/><path fill="#000000" d="M 198.960938 8.109375 C 199.0625 8.019531 199.175781 7.917969 199.277344 7.832031 C 199.277344 7.90625 201.089844 8.171875 201.179688 8.195312 C 205.78125 9.066406 210.355469 10.050781 214.941406 10.996094 C 216.015625 11.210938 217.136719 11.453125 218.195312 11.679688 C 238.195312 16.019531 257.933594 21.585938 277.734375 26.785156 C 283.632812 28.335938 294.75 31.0625 302.222656 33.359375 C 302.414062 33.421875 290.601562 38.820312 288.777344 39.71875 C 277.648438 45.21875 265.785156 50.304688 256.144531 55.214844 L 255.125 68.566406 C 251.519531 70.496094 236.886719 73.484375 232.007812 74.40625 C 222.695312 76.160156 216.316406 77.09375 209.863281 77.523438 C 208.894531 77.664062 207.871094 77.75 206.789062 77.765625 C 203.925781 77.816406 201.355469 77.851562 198.960938 77.851562 C 196.566406 77.851562 193.984375 77.828125 191.136719 77.765625 C 190.050781 77.738281 189.03125 77.664062 188.058594 77.523438 C 181.605469 77.09375 175.230469 76.160156 165.914062 74.40625 C 161.039062 73.484375 146.402344 70.496094 142.800781 68.566406 L 141.777344 55.214844 C 132.136719 50.292969 120.289062 45.207031 109.148438 39.71875 C 107.320312 38.808594 95.511719 33.410156 95.699219 33.359375 C 103.171875 31.0625 114.277344 28.335938 120.1875 26.785156 C 139.988281 21.597656 159.726562 16.019531 179.726562 11.679688 C 180.789062 11.453125 181.910156 11.210938 182.980469 10.996094 C 187.566406 10.050781 192.144531 9.066406 196.742188 8.195312 C 196.832031 8.183594 198.648438 7.917969 198.648438 7.832031 C 198.746094 7.917969 198.847656 8.007812 198.960938 8.109375 Z M 198.960938 8.109375 " fill-opacity="1" fill-rule="evenodd"/><g clip-path="url(#3b8d2dd286)"><path fill="#000000" d="M 198.960938 79.203125 C 196.554688 79.203125 193.96875 79.175781 191.109375 79.113281 C 189.976562 79.089844 188.890625 79 187.871094 78.863281 C 181.632812 78.445312 175.378906 77.5625 165.675781 75.730469 C 164.894531 75.582031 146.554688 72.097656 142.167969 69.75 C 141.765625 69.535156 141.5 69.121094 141.464844 68.664062 L 140.503906 56.070312 C 135.550781 53.574219 130.082031 51.039062 124.308594 48.375 C 119.128906 45.976562 113.761719 43.492188 108.566406 40.929688 C 107.886719 40.589844 105.808594 39.628906 103.5 38.558594 C 94.300781 34.28125 94.300781 34.28125 94.363281 33.269531 C 94.402344 32.714844 94.78125 32.234375 95.320312 32.070312 C 101.082031 30.292969 109.136719 28.234375 115.007812 26.734375 C 116.835938 26.265625 118.488281 25.835938 119.859375 25.484375 C 124.4375 24.285156 129 23.0625 133.574219 21.851562 C 148.558594 17.851562 164.050781 13.722656 179.449219 10.367188 C 180.523438 10.140625 181.644531 9.898438 182.714844 9.683594 L 186.648438 8.878906 C 189.925781 8.195312 193.203125 7.515625 196.503906 6.882812 L 196.707031 6.847656 C 197.589844 6.707031 197.964844 6.644531 198.117188 6.605469 C 198.117188 6.605469 198.128906 6.605469 198.128906 6.605469 C 198.40625 6.492188 198.695312 6.46875 198.972656 6.542969 C 199.25 6.480469 199.554688 6.492188 199.820312 6.605469 C 199.820312 6.605469 199.832031 6.605469 199.832031 6.605469 C 199.984375 6.644531 200.359375 6.707031 201.242188 6.847656 L 201.445312 6.882812 C 204.746094 7.515625 208.035156 8.195312 211.3125 8.878906 L 215.21875 9.683594 C 216.292969 9.898438 217.425781 10.140625 218.484375 10.367188 C 233.898438 13.710938 249.390625 17.851562 264.375 21.851562 C 268.949219 23.074219 273.511719 24.285156 278.085938 25.484375 C 279.460938 25.835938 281.113281 26.265625 282.941406 26.734375 C 288.8125 28.234375 296.867188 30.304688 302.628906 32.070312 C 303.15625 32.234375 303.546875 32.714844 303.585938 33.269531 C 303.660156 34.28125 303.660156 34.28125 294.421875 38.582031 C 292.117188 39.65625 290.0625 40.613281 289.378906 40.941406 C 284.1875 43.503906 278.820312 45.988281 273.625 48.386719 C 267.855469 51.050781 262.394531 53.585938 257.441406 56.085938 L 256.484375 68.679688 C 256.445312 69.144531 256.183594 69.550781 255.777344 69.765625 C 251.394531 72.109375 233.054688 75.59375 232.273438 75.746094 C 222.582031 77.574219 216.328125 78.457031 209.976562 78.886719 C 209.058594 79.027344 207.960938 79.113281 206.839844 79.125 C 203.953125 79.175781 201.367188 79.203125 198.960938 79.203125 Z M 144.085938 67.679688 C 147.902344 69.296875 159.121094 71.757812 166.167969 73.082031 C 175.757812 74.886719 181.921875 75.757812 188.148438 76.175781 C 189.167969 76.3125 190.140625 76.386719 191.160156 76.414062 C 194.007812 76.464844 196.578125 76.503906 198.960938 76.503906 C 201.355469 76.503906 203.914062 76.476562 206.761719 76.414062 C 207.785156 76.386719 208.753906 76.3125 209.675781 76.1875 C 216.015625 75.757812 222.179688 74.886719 231.757812 73.082031 C 238.800781 71.746094 250.019531 69.296875 253.839844 67.679688 L 254.796875 55.113281 C 254.835938 54.644531 255.109375 54.230469 255.527344 54.015625 C 260.707031 51.378906 266.417969 48.726562 272.480469 45.925781 C 277.660156 43.527344 283.003906 41.054688 288.171875 38.507812 C 288.863281 38.167969 290.945312 37.207031 293.261719 36.121094 C 294.851562 35.378906 296.867188 34.445312 298.507812 33.671875 C 293.273438 32.171875 287.035156 30.570312 282.246094 29.34375 C 280.417969 28.878906 278.757812 28.449219 277.382812 28.097656 C 272.808594 26.898438 268.230469 25.671875 263.65625 24.449219 C 248.707031 20.460938 233.242188 16.335938 217.890625 13.003906 C 216.832031 12.777344 215.726562 12.539062 214.652344 12.324219 L 210.734375 11.515625 C 207.46875 10.832031 204.191406 10.152344 200.914062 9.535156 L 200.800781 9.519531 C 200.335938 9.445312 199.933594 9.382812 199.578125 9.320312 C 199.175781 9.535156 198.695312 9.535156 198.292969 9.320312 C 197.953125 9.382812 197.550781 9.445312 197.070312 9.519531 L 196.933594 9.546875 C 193.679688 10.164062 190.417969 10.847656 187.152344 11.527344 L 183.21875 12.347656 C 182.160156 12.5625 181.039062 12.800781 179.992188 13.027344 C 164.640625 16.359375 149.191406 20.488281 134.230469 24.472656 C 129.652344 25.699219 125.078125 26.921875 120.503906 28.121094 C 119.128906 28.488281 117.464844 28.902344 115.636719 29.371094 C 110.847656 30.59375 104.609375 32.199219 99.378906 33.699219 C 101.003906 34.46875 103.007812 35.402344 104.597656 36.132812 C 106.941406 37.21875 109.035156 38.203125 109.726562 38.53125 C 114.894531 41.082031 120.238281 43.554688 125.40625 45.953125 C 131.46875 48.753906 137.191406 51.402344 142.371094 54.039062 C 142.785156 54.253906 143.0625 54.671875 143.101562 55.136719 Z M 144.085938 67.679688 " fill-opacity="1" fill-rule="nonzero"/></g><path fill="#fff100" d="M 114.226562 108.328125 L 98.789062 108.328125 L 102.644531 66.394531 L 110.359375 66.394531 Z M 114.226562 108.328125 " fill-opacity="1" fill-rule="evenodd"/><path fill="#000000" d="M 114.214844 109.691406 L 98.789062 109.691406 C 98.410156 109.691406 98.042969 109.527344 97.792969 109.25 C 97.539062 108.96875 97.414062 108.59375 97.4375 108.214844 L 101.296875 66.269531 C 101.359375 65.574219 101.9375 65.042969 102.644531 65.042969 L 110.359375 65.042969 C 111.050781 65.042969 111.644531 65.574219 111.707031 66.269531 L 115.5625 108.214844 C 115.601562 108.59375 115.476562 108.96875 115.210938 109.25 C 114.957031 109.527344 114.605469 109.691406 114.214844 109.691406 Z M 100.273438 106.976562 L 112.738281 106.976562 L 109.136719 67.746094 L 103.878906 67.746094 Z M 100.273438 106.976562 " fill-opacity="1" fill-rule="nonzero"/><path fill="#ff431d" d="M 106.5 60.109375 C 110.230469 60.109375 113.269531 63.152344 113.269531 66.886719 C 113.269531 70.621094 110.230469 73.664062 106.5 73.664062 C 102.769531 73.664062 99.734375 70.621094 99.734375 66.886719 C 99.734375 63.152344 102.769531 60.109375 106.5 60.109375 Z M 106.5 60.109375 " fill-opacity="1" fill-rule="evenodd"/><path fill="#000000" d="M 106.5 75.011719 C 102.027344 75.011719 98.382812 71.367188 98.382812 66.886719 C 98.382812 62.40625 102.027344 58.761719 106.5 58.761719 C 110.976562 58.761719 114.617188 62.40625 114.617188 66.886719 C 114.628906 71.367188 110.988281 75.011719 106.5 75.011719 Z M 106.5 61.460938 C 103.515625 61.460938 101.082031 63.894531 101.082031 66.886719 C 101.082031 69.878906 103.515625 72.3125 106.5 72.3125 C 109.488281 72.3125 111.921875 69.878906 111.921875 66.886719 C 111.921875 63.894531 109.488281 61.460938 106.5 61.460938 Z M 106.5 61.460938 " fill-opacity="1" fill-rule="nonzero"/><path fill="#000000" d="M 106.375 60.980469 C 105.632812 60.980469 105.027344 60.375 105.027344 59.628906 L 105.027344 39.339844 C 105.027344 38.59375 105.632812 37.988281 106.375 37.988281 C 107.117188 37.988281 107.722656 38.59375 107.722656 39.339844 L 107.722656 59.628906 C 107.722656 60.375 107.117188 60.980469 106.375 60.980469 Z M 106.375 60.980469 " fill-opacity="1" fill-rule="nonzero"/><path fill="#fffbfa" d="M 23.441406 167.863281 C 23.480469 168.632812 22.800781 169.871094 22.6875 170.6875 C 22.09375 174.855469 22.988281 179.15625 25.574219 182.511719 C 34.722656 194.386719 60.394531 192.925781 67.808594 179.75 C 69.066406 177.503906 69.75 175.003906 69.472656 172.417969 C 69.40625 171.851562 68.183594 169 68.300781 168.695312 C 68.335938 168.605469 76.792969 162.386719 77.953125 160.949219 C 83.863281 153.617188 85.742188 144.101562 88.425781 135.304688 C 89.433594 132.011719 91.691406 128.0625 91.199219 124.515625 C 90.621094 120.339844 85.441406 117.867188 81.660156 117.765625 C 80.160156 117.726562 78.683594 118.042969 77.3125 118.636719 C 77.058594 118.75 75.242188 119.859375 75.242188 119.457031 C 75.21875 117.109375 76.441406 114.347656 77.007812 112.113281 C 78.519531 106.183594 80.183594 100.097656 80.386719 93.953125 C 80.511719 90.042969 79.871094 84.917969 76.289062 82.558594 C 70.667969 78.835938 64.957031 83.695312 61.871094 88.226562 C 61.40625 88.90625 57.863281 94.257812 57.863281 94.246094 C 57.824219 92.363281 58.304688 89.703125 57.8125 87.632812 C 57.007812 84.277344 55.570312 81.863281 51.953125 81.058594 C 46.34375 79.808594 41.023438 84.464844 38.59375 88.855469 C 37.9375 90.03125 35.351562 95.570312 35.351562 95.570312 C 35.351562 95.570312 35.390625 90.660156 32.605469 89.425781 C 28.433594 87.570312 25.003906 89.816406 22.925781 92.289062 C 16.132812 100.363281 15.25 109.980469 14.027344 119.734375 C 13.308594 125.476562 11.304688 130.941406 10.449219 136.644531 C 8.796875 147.445312 13.925781 161.164062 23.441406 167.863281 Z M 23.441406 167.863281 " fill-opacity="1" fill-rule="evenodd"/><path fill="#000000" d="M 45.144531 191.941406 C 36.425781 191.941406 28.660156 188.746094 24.488281 183.332031 C 21.777344 179.8125 20.65625 175.246094 21.335938 170.488281 C 21.414062 170.007812 21.589844 169.503906 21.765625 169.011719 C 21.828125 168.847656 21.90625 168.644531 21.96875 168.441406 C 12.867188 161.566406 7.359375 147.976562 9.085938 136.429688 C 9.503906 133.679688 10.183594 130.964844 10.839844 128.351562 C 11.558594 125.476562 12.300781 122.511719 12.667969 119.558594 L 12.84375 118.144531 C 13.976562 108.921875 15.148438 99.394531 21.867188 91.40625 C 25.066406 87.605469 29.175781 86.421875 33.132812 88.175781 C 34.519531 88.792969 35.367188 89.980469 35.894531 91.242188 C 36.511719 89.941406 37.128906 88.691406 37.40625 88.1875 C 40.191406 83.140625 46.015625 78.332031 52.242188 79.71875 C 56.992188 80.78125 58.417969 84.324219 59.125 87.292969 C 59.300781 87.996094 59.363281 88.753906 59.386719 89.511719 C 60.042969 88.527344 60.597656 87.695312 60.761719 87.441406 C 64.40625 82.105469 70.859375 77.324219 77.046875 81.410156 C 81.179688 84.136719 81.886719 89.753906 81.746094 93.980469 C 81.558594 99.835938 80.082031 105.574219 78.660156 111.140625 L 78.332031 112.429688 C 78.15625 113.132812 77.914062 113.878906 77.664062 114.648438 C 77.375 115.546875 77.082031 116.464844 76.882812 117.335938 C 78.445312 116.667969 80.070312 116.328125 81.722656 116.390625 C 86.421875 116.527344 91.894531 119.59375 92.5625 124.300781 C 92.964844 127.203125 91.792969 130.234375 90.757812 132.894531 C 90.378906 133.878906 90.015625 134.8125 89.75 135.671875 C 89.285156 137.222656 88.832031 138.800781 88.375 140.378906 C 86.257812 147.824219 84.066406 155.523438 79.039062 161.769531 C 78.230469 162.777344 75.015625 165.277344 70.453125 168.734375 C 70.226562 168.910156 70.011719 169.0625 69.835938 169.199219 C 69.949219 169.542969 70.101562 169.957031 70.214844 170.246094 C 70.628906 171.371094 70.792969 171.863281 70.832031 172.230469 C 71.121094 174.917969 70.492188 177.730469 69.003906 180.367188 C 65.363281 186.828125 57.433594 191.105469 47.792969 191.800781 C 46.886719 191.902344 46.015625 191.941406 45.144531 191.941406 Z M 29.53125 90.105469 C 26.957031 90.105469 24.992188 91.882812 23.933594 93.160156 C 17.734375 100.527344 16.660156 109.261719 15.527344 118.484375 L 15.351562 119.898438 C 14.960938 123.015625 14.203125 126.070312 13.460938 129.023438 C 12.816406 131.582031 12.160156 134.222656 11.757812 136.84375 C 10.121094 147.75 15.476562 160.605469 24.222656 166.753906 C 24.5625 166.992188 24.777344 167.371094 24.789062 167.785156 C 24.828125 168.507812 24.5625 169.238281 24.3125 169.945312 C 24.1875 170.285156 24.046875 170.664062 24.023438 170.878906 C 23.441406 174.902344 24.375 178.742188 26.644531 181.679688 C 30.691406 186.929688 38.707031 189.792969 47.578125 189.152344 C 56.1875 188.53125 63.484375 184.671875 66.621094 179.082031 C 67.84375 176.910156 68.347656 174.714844 68.121094 172.558594 C 68.085938 172.40625 67.820312 171.6875 67.65625 171.21875 C 67 169.441406 66.785156 168.835938 67.0625 168.179688 C 67.203125 167.824219 67.203125 167.824219 68.816406 166.613281 C 70.820312 165.097656 76.152344 161.0625 76.921875 160.113281 C 81.609375 154.296875 83.726562 146.863281 85.769531 139.683594 C 86.222656 138.082031 86.675781 136.492188 87.152344 134.925781 C 87.445312 133.957031 87.835938 132.984375 88.226562 131.949219 C 89.183594 129.476562 90.179688 126.925781 89.875 124.71875 C 89.398438 121.261719 84.695312 119.21875 81.644531 119.128906 C 80.375 119.089844 79.101562 119.34375 77.878906 119.886719 C 77.839844 119.898438 77.75 119.949219 77.636719 120.011719 C 76.390625 120.707031 75.484375 121.199219 74.625 120.695312 C 74.210938 120.453125 73.921875 119.949219 73.921875 119.46875 C 73.90625 117.613281 74.539062 115.609375 75.105469 113.839844 C 75.332031 113.121094 75.558594 112.429688 75.722656 111.773438 L 76.050781 110.484375 C 77.4375 105.058594 78.875 99.457031 79.0625 93.902344 C 79.152344 91.015625 78.835938 85.828125 75.570312 83.683594 C 69.710938 79.796875 64.078125 87.417969 63.003906 88.980469 C 62.792969 89.296875 61.933594 90.585938 61.066406 91.898438 C 58.46875 95.796875 58.46875 95.796875 57.523438 95.542969 C 56.941406 95.378906 56.539062 94.863281 56.527344 94.269531 C 56.515625 93.613281 56.566406 92.867188 56.601562 92.085938 C 56.691406 90.699219 56.792969 89.132812 56.5 87.949219 C 55.683594 84.539062 54.335938 82.976562 51.660156 82.382812 C 46.46875 81.234375 41.71875 86.015625 39.777344 89.523438 C 39.285156 90.421875 37.46875 94.257812 36.574219 96.164062 C 36.3125 96.742188 35.667969 97.046875 35.050781 96.90625 C 34.433594 96.769531 33.992188 96.210938 33.992188 95.582031 C 33.992188 94.535156 33.652344 91.390625 32.039062 90.6875 C 31.144531 90.269531 30.3125 90.105469 29.53125 90.105469 Z M 29.53125 90.105469 " fill-opacity="1" fill-rule="nonzero"/><path fill="#000000" d="M 51.9375 175.789062 C 51.296875 175.789062 50.730469 175.320312 50.601562 174.664062 C 50.476562 173.933594 50.96875 173.226562 51.699219 173.097656 C 57.105469 172.164062 62.539062 170.109375 68.804688 166.652344 C 69.457031 166.296875 70.277344 166.523438 70.644531 167.179688 C 71.007812 167.835938 70.769531 168.65625 70.113281 169.023438 C 63.574219 172.632812 57.875 174.777344 52.167969 175.773438 C 52.089844 175.773438 52.015625 175.789062 51.9375 175.789062 Z M 36.914062 174.335938 C 36.839844 174.335938 36.75 174.324219 36.664062 174.3125 C 33.199219 173.667969 29.90625 172.609375 26.632812 171.066406 C 25.851562 170.703125 25.09375 170.285156 24.324219 169.871094 L 23.605469 169.476562 C 23.242188 169.277344 22.9375 169.113281 22.636719 168.921875 C 22.15625 168.621094 21.1875 168 21.640625 166.917969 C 21.890625 166.3125 22.585938 165.96875 23.226562 166.121094 C 23.503906 166.183594 23.757812 166.335938 23.933594 166.539062 C 23.960938 166.550781 23.984375 166.5625 24.007812 166.589844 C 24.335938 166.804688 24.589844 166.929688 24.828125 167.066406 L 25.609375 167.496094 C 26.316406 167.886719 27.035156 168.277344 27.765625 168.621094 C 30.839844 170.058594 33.902344 171.054688 37.15625 171.660156 C 37.886719 171.800781 38.378906 172.507812 38.238281 173.238281 C 38.125 173.882812 37.558594 174.335938 36.914062 174.335938 Z M 41.175781 154.359375 C 41.074219 154.359375 40.972656 154.347656 40.859375 154.324219 C 40.128906 154.144531 39.6875 153.425781 39.851562 152.695312 C 42.296875 142.320312 48.460938 135.242188 56.742188 133.285156 C 58.808594 132.796875 60.9375 132.746094 63.433594 133.136719 C 63.6875 133.171875 64 133.25 64.339844 133.335938 C 64.746094 133.4375 65.539062 133.640625 65.878906 133.601562 C 65.980469 133.386719 66.082031 132.957031 66.132812 132.707031 C 66.195312 132.453125 66.246094 132.214844 66.308594 132.023438 C 66.949219 130.03125 67.730469 128.113281 68.613281 126.320312 C 69.621094 124.265625 70.933594 121.929688 72.949219 120.085938 C 73.53125 119.558594 74.210938 119.152344 74.867188 118.75 C 75.484375 118.382812 76.0625 118.03125 76.429688 117.652344 C 76.945312 117.121094 77.800781 117.109375 78.34375 117.628906 C 78.886719 118.144531 78.886719 119.003906 78.371094 119.546875 C 77.75 120.175781 76.996094 120.628906 76.25 121.070312 C 75.683594 121.414062 75.15625 121.726562 74.765625 122.082031 C 73.074219 123.621094 71.941406 125.691406 71.035156 127.507812 C 70.203125 129.1875 69.484375 130.976562 68.878906 132.84375 C 68.839844 132.972656 68.804688 133.136719 68.765625 133.3125 C 68.578125 134.132812 68.3125 135.269531 67.390625 135.875 C 66.269531 136.605469 64.78125 136.226562 63.6875 135.949219 C 63.433594 135.886719 63.207031 135.824219 63.019531 135.796875 C 60.875 135.46875 59.085938 135.507812 57.359375 135.910156 C 47.050781 138.347656 43.519531 148.898438 42.472656 153.3125 C 42.347656 153.945312 41.792969 154.359375 41.175781 154.359375 Z M 30.929688 126.371094 C 30.285156 126.371094 29.707031 125.90625 29.59375 125.25 C 28.117188 116.707031 30.070312 108.085938 32.164062 100.792969 C 32.742188 98.785156 33.425781 96.792969 34.191406 94.863281 C 34.257812 94.699219 34.320312 94.496094 34.394531 94.292969 C 34.632812 93.574219 34.910156 92.742188 35.453125 92.125 C 35.945312 91.554688 36.800781 91.492188 37.355469 91.984375 C 37.925781 92.476562 37.988281 93.324219 37.496094 93.890625 C 37.292969 94.117188 37.09375 94.722656 36.941406 95.164062 C 36.851562 95.417969 36.777344 95.65625 36.6875 95.871094 C 35.945312 97.714844 35.300781 99.621094 34.746094 101.550781 C 32.730469 108.554688 30.867188 116.792969 32.238281 124.792969 C 32.367188 125.527344 31.875 126.234375 31.144531 126.359375 C 31.082031 126.359375 31.003906 126.371094 30.929688 126.371094 Z M 51.410156 125.652344 C 50.691406 125.652344 50.097656 125.097656 50.0625 124.378906 C 49.582031 115.53125 50.714844 107.734375 53.488281 100.527344 C 54.359375 98.28125 55.480469 96.210938 56.566406 94.207031 C 57.132812 93.160156 57.699219 92.125 58.230469 91.050781 C 58.554688 90.382812 59.375 90.105469 60.042969 90.445312 C 60.710938 90.773438 60.988281 91.59375 60.648438 92.261719 C 60.105469 93.359375 59.527344 94.433594 58.945312 95.507812 C 57.863281 97.523438 56.828125 99.417969 56.023438 101.511719 C 53.375 108.351562 52.316406 115.785156 52.769531 124.238281 C 52.808594 124.984375 52.242188 125.628906 51.5 125.664062 C 51.460938 125.652344 51.433594 125.652344 51.410156 125.652344 Z M 51.410156 125.652344 " fill-opacity="1" fill-rule="nonzero"/><path fill="#2dcc7d" d="M 220.816406 299.097656 C 220.828125 299.175781 220.652344 299.097656 220.578125 299.113281 C 219.621094 299.175781 218.675781 299.339844 217.730469 299.441406 C 215.410156 299.691406 213.078125 299.792969 210.757812 299.957031 C 203.296875 300.488281 195.632812 300.675781 188.148438 300.246094 C 184.707031 300.046875 179.527344 298.683594 176.175781 299.691406 C 173.261719 300.5625 173.011719 310.40625 172.796875 312.953125 C 172.746094 313.546875 173.046875 316.363281 172.480469 316.726562 C 171.851562 317.15625 168.523438 315.125 167.867188 314.921875 C 163.480469 313.535156 158.71875 313.066406 154.15625 313.597656 C 136.246094 315.679688 121.488281 327.238281 118.210938 345.371094 C 117.542969 349.03125 116.835938 353.511719 117.804688 357.207031 C 118.574219 360.125 124.132812 361.324219 126.453125 362.128906 C 136.082031 365.511719 146.027344 367.304688 156.234375 367.34375 C 167.300781 367.378906 178.507812 365.726562 189.15625 362.710938 C 193.050781 361.601562 200.699219 357.738281 204.117188 357.347656 C 205.589844 357.183594 207.949219 358.621094 209.347656 359.027344 C 212.75 360.011719 216.214844 360.742188 219.71875 361.210938 C 232.527344 362.898438 257.015625 363.632812 281.566406 351.164062 C 283.695312 350.078125 288.070312 348.035156 289.378906 345.777344 C 292.203125 340.917969 289.117188 332.691406 286.722656 328.414062 C 279.386719 315.289062 261.414062 308.210938 246.90625 309.523438 C 242.269531 309.9375 237.832031 311.148438 233.546875 312.96875 C 232.703125 313.332031 229.476562 315.628906 228.566406 315.3125 C 227.457031 314.9375 226.675781 312.3125 226.347656 311.378906 C 224.964844 307.542969 222.960938 302.621094 220.816406 299.097656 Z M 220.816406 299.097656 " fill-opacity="1" fill-rule="evenodd"/><g clip-path="url(#f8aaa80dfa)"><path fill="#000000" d="M 156.601562 368.691406 C 156.472656 368.691406 156.347656 368.691406 156.222656 368.691406 C 146.050781 368.652344 135.878906 366.875 125.984375 363.40625 C 125.632812 363.277344 125.191406 363.140625 124.699219 362.988281 C 121.765625 362.078125 117.328125 360.71875 116.484375 357.535156 C 115.460938 353.648438 116.144531 349.082031 116.859375 345.121094 C 120.0625 327.402344 134.632812 314.492188 153.980469 312.246094 C 158.707031 311.691406 163.660156 312.171875 168.257812 313.625 C 168.550781 313.710938 168.914062 313.902344 169.609375 314.253906 C 170.035156 314.46875 170.832031 314.886719 171.449219 315.148438 C 171.460938 314.65625 171.433594 314.101562 171.421875 313.8125 C 171.410156 313.371094 171.398438 313.003906 171.410156 312.828125 C 171.433594 312.539062 171.460938 312.148438 171.484375 311.679688 C 171.863281 305.75 172.542969 299.324219 175.746094 298.378906 C 178.367188 297.597656 181.78125 298.078125 184.796875 298.492188 C 186.03125 298.671875 187.203125 298.835938 188.1875 298.882812 C 194.953125 299.277344 202.503906 299.1875 210.621094 298.59375 C 211.3125 298.542969 212.007812 298.507812 212.710938 298.457031 C 214.300781 298.355469 215.953125 298.253906 217.550781 298.078125 C 217.90625 298.039062 218.246094 297.988281 218.597656 297.949219 C 219.214844 297.863281 219.832031 297.785156 220.464844 297.75 C 220.5 297.75 220.550781 297.75 220.601562 297.75 C 221.132812 297.671875 221.660156 297.914062 221.949219 298.378906 C 224.371094 302.367188 226.511719 307.933594 227.585938 310.898438 L 227.722656 311.289062 C 228.289062 312.96875 228.667969 313.660156 228.90625 313.925781 C 229.550781 313.710938 230.9375 312.878906 231.566406 312.5 C 232.261719 312.082031 232.664062 311.84375 232.992188 311.707031 C 237.554688 309.761719 242.191406 308.574219 246.753906 308.160156 C 260.683594 306.898438 279.816406 313.320312 287.867188 327.730469 C 288.550781 328.941406 294.382812 339.78125 290.515625 346.433594 C 289.230469 348.652344 285.953125 350.433594 282.714844 352.046875 L 282.144531 352.339844 C 257.089844 365.070312 232.148438 364.1875 219.519531 362.519531 C 215.953125 362.054688 212.398438 361.308594 208.945312 360.300781 C 208.402344 360.136719 207.785156 359.871094 207.128906 359.59375 C 206.171875 359.175781 204.859375 358.597656 204.242188 358.671875 C 202.429688 358.875 198.910156 360.324219 195.8125 361.601562 C 193.429688 362.585938 191.183594 363.503906 189.507812 363.984375 C 178.554688 367.113281 167.492188 368.691406 156.601562 368.691406 Z M 157.875 314.734375 C 156.675781 314.734375 155.492188 314.796875 154.308594 314.9375 C 135.894531 317.082031 122.558594 328.828125 119.53125 345.597656 C 118.863281 349.285156 118.222656 353.5 119.105469 356.855469 C 119.558594 358.570312 123.414062 359.769531 125.496094 360.402344 C 126.023438 360.566406 126.503906 360.703125 126.882812 360.84375 C 136.484375 364.210938 146.355469 365.941406 156.222656 365.980469 C 156.347656 365.980469 156.472656 365.980469 156.601562 365.980469 C 167.238281 365.980469 178.066406 364.441406 188.777344 361.398438 C 190.304688 360.96875 192.484375 360.0625 194.789062 359.113281 C 198.21875 357.699219 201.757812 356.238281 203.953125 355.996094 C 205.300781 355.847656 206.851562 356.527344 208.226562 357.121094 C 208.792969 357.371094 209.320312 357.601562 209.710938 357.714844 C 213.039062 358.683594 216.457031 359.40625 219.882812 359.847656 C 232.210938 361.472656 256.523438 362.34375 280.9375 349.929688 L 281.515625 349.636719 C 283.496094 348.640625 287.199219 346.785156 288.183594 345.070312 C 290.390625 341.285156 288.347656 334.105469 285.511719 329.042969 C 278.011719 315.628906 260.066406 309.636719 246.996094 310.847656 C 242.710938 311.238281 238.347656 312.363281 234.039062 314.191406 C 233.875 314.253906 233.371094 314.570312 232.953125 314.808594 C 230.699219 316.171875 229.25 316.96875 228.089844 316.5625 C 226.601562 316.046875 225.820312 314.101562 225.152344 312.148438 L 225.027344 311.792969 C 224.054688 309.105469 222.179688 304.195312 220.046875 300.472656 C 219.683594 300.511719 219.316406 300.5625 218.953125 300.613281 C 218.574219 300.664062 218.207031 300.714844 217.828125 300.753906 C 216.164062 300.929688 214.503906 301.03125 212.875 301.144531 C 212.183594 301.195312 211.488281 301.230469 210.808594 301.28125 C 202.566406 301.875 194.902344 301.964844 188.023438 301.574219 C 186.925781 301.507812 185.703125 301.332031 184.417969 301.15625 C 181.683594 300.777344 178.582031 300.347656 176.515625 300.953125 C 176.011719 301.105469 174.789062 302.46875 174.183594 311.84375 C 174.15625 312.324219 174.121094 312.726562 174.09375 313.042969 C 174.082031 313.167969 174.09375 313.410156 174.105469 313.710938 C 174.183594 315.78125 174.15625 317.195312 173.1875 317.839844 C 172.128906 318.542969 170.730469 317.886719 168.347656 316.652344 C 167.929688 316.4375 167.589844 316.25 167.402344 316.183594 C 164.351562 315.238281 161.101562 314.734375 157.875 314.734375 Z M 157.875 314.734375 " fill-opacity="1" fill-rule="nonzero"/></g><path fill="#000000" d="M 135.386719 333.574219 C 131.808594 333.574219 128.304688 332.273438 125.46875 328.363281 C 125.105469 327.855469 125.128906 327.164062 125.53125 326.683594 C 126.691406 325.332031 127.953125 324.058594 129.300781 322.859375 C 135.160156 317.675781 142.546875 314.191406 150.816406 312.703125 C 151.09375 312.550781 151.40625 312.488281 151.722656 312.550781 C 152.464844 312.425781 153.222656 312.324219 153.992188 312.234375 C 158.730469 311.679688 163.671875 312.160156 168.273438 313.609375 C 168.675781 313.738281 170.097656 314.292969 171.285156 314.773438 L 171.449219 312.828125 C 171.472656 312.539062 171.5 312.148438 171.523438 311.679688 C 171.902344 305.75 172.582031 299.324219 175.785156 298.378906 C 178.40625 297.597656 181.820312 298.078125 184.832031 298.492188 C 186.066406 298.671875 187.242188 298.832031 188.222656 298.882812 L 188.4375 298.898438 C 188.816406 298.921875 189.167969 299.113281 189.394531 299.402344 C 189.636719 299.703125 189.734375 300.082031 189.671875 300.460938 L 189.546875 301.195312 C 189.484375 301.597656 189.421875 301.964844 189.382812 302.265625 C 188.804688 307.441406 188.511719 312.855469 188.4375 319.289062 C 188.4375 319.605469 188.476562 320.058594 188.511719 320.578125 C 188.703125 323.164062 188.777344 325.234375 187.792969 326.417969 C 186.597656 327.855469 184.277344 327.050781 182.742188 326.507812 C 182.5 326.417969 182.300781 326.355469 182.171875 326.316406 C 177.75 325.144531 173.730469 324.613281 169.707031 324.640625 C 164.589844 324.691406 159.472656 325.574219 154.519531 327.265625 C 152.882812 327.820312 151.082031 328.628906 149.164062 329.484375 C 147.652344 330.167969 146.078125 330.859375 144.488281 331.492188 C 141.652344 332.601562 138.488281 333.574219 135.386719 333.574219 Z M 128.316406 327.628906 C 131.632812 331.492188 136.121094 331.871094 143.480469 328.96875 C 145.019531 328.363281 146.554688 327.679688 148.042969 327.011719 C 148.898438 326.621094 149.746094 326.253906 150.5625 325.902344 C 148.734375 323.101562 144.675781 321.523438 142.875 320.929688 C 141.652344 320.527344 140.65625 320.273438 139.710938 320.121094 C 139.382812 320.070312 139.054688 320.019531 138.714844 320.019531 C 138.679688 320.019531 138.476562 320.058594 138.453125 320.058594 C 138.289062 320.085938 138.136719 320.070312 137.984375 320.035156 C 135.488281 321.410156 133.171875 323.035156 131.066406 324.90625 C 130.121094 325.761719 129.1875 326.683594 128.316406 327.628906 Z M 142.382812 317.953125 C 142.8125 318.066406 143.253906 318.203125 143.71875 318.355469 C 146.429688 319.238281 151.03125 321.21875 153.121094 324.878906 C 153.296875 324.816406 153.460938 324.753906 153.640625 324.703125 C 155.78125 323.972656 157.9375 323.390625 160.117188 322.949219 C 158.65625 320.007812 156.765625 317.851562 154.507812 316.539062 C 153.953125 316.222656 153.3125 316.007812 152.628906 315.78125 C 152.238281 315.65625 151.847656 315.515625 151.445312 315.363281 C 148.28125 315.921875 145.246094 316.789062 142.382812 317.953125 Z M 173.957031 322.117188 C 176.816406 322.367188 179.753906 322.898438 182.855469 323.71875 C 183.042969 323.769531 183.308594 323.855469 183.636719 323.972656 C 183.773438 324.019531 183.988281 324.097656 184.242188 324.171875 C 182.363281 322.015625 179.929688 320.261719 177.484375 319.351562 C 176.3125 318.921875 175.152344 318.609375 174.019531 318.429688 C 173.894531 318.40625 173.691406 318.367188 173.4375 318.332031 C 173.074219 318.253906 172.203125 318.089844 171.976562 318.089844 C 171.9375 318.089844 171.902344 318.089844 171.863281 318.078125 C 172.621094 319.300781 173.226562 320.589844 173.804688 321.824219 Z M 156.75 314.757812 C 159.261719 316.476562 161.328125 319.0625 162.890625 322.46875 C 165.144531 322.140625 167.414062 321.964844 169.683594 321.9375 C 170.085938 321.9375 170.488281 321.9375 170.894531 321.9375 C 169.808594 319.679688 168.585938 317.496094 166.558594 316.3125 C 165.925781 315.945312 165.207031 315.691406 164.527344 315.464844 C 164.464844 315.453125 164.414062 315.429688 164.363281 315.402344 C 161.84375 314.886719 159.285156 314.671875 156.75 314.757812 Z M 173.917969 315.65625 C 173.929688 315.65625 173.941406 315.65625 173.941406 315.65625 C 174.15625 315.691406 174.335938 315.730469 174.449219 315.742188 C 175.746094 315.957031 177.09375 316.3125 178.417969 316.804688 C 181.101562 317.800781 183.773438 319.65625 185.890625 321.953125 C 185.867188 321.484375 185.839844 321.054688 185.816406 320.777344 C 185.765625 320.160156 185.726562 319.628906 185.742188 319.265625 C 185.804688 312.738281 186.117188 307.238281 186.699219 301.964844 C 186.710938 301.8125 186.734375 301.648438 186.761719 301.472656 C 186.019531 301.394531 185.25 301.28125 184.441406 301.167969 C 181.707031 300.789062 178.605469 300.347656 176.539062 300.964844 C 176.035156 301.117188 174.8125 302.480469 174.207031 311.855469 C 174.183594 312.335938 174.144531 312.738281 174.121094 313.054688 Z M 267.121094 328.816406 C 265.082031 328.816406 263.027344 327.832031 261.273438 326.988281 C 260.746094 326.734375 260.253906 326.496094 259.789062 326.304688 L 259.523438 326.191406 C 255.289062 324.476562 250.925781 323.527344 246.464844 323.339844 C 240.441406 323.085938 233.835938 323.933594 226.261719 325.914062 C 225.933594 326.003906 225.289062 326.21875 224.507812 326.480469 C 219.695312 328.121094 217.351562 328.753906 216.140625 328.160156 C 211.832031 326.054688 209.613281 311.035156 209.511719 310.394531 C 208.730469 305.003906 208.097656 300.210938 208.097656 300.210938 C 208.050781 299.84375 208.164062 299.464844 208.390625 299.175781 C 208.628906 298.882812 208.96875 298.707031 209.335938 298.683594 C 210.003906 298.632812 210.785156 298.582031 211.601562 298.53125 C 213.644531 298.40625 215.953125 298.253906 217.578125 298.078125 C 217.929688 298.039062 218.269531 297.988281 218.625 297.949219 C 219.242188 297.863281 219.859375 297.785156 220.488281 297.75 C 220.527344 297.75 220.578125 297.75 220.628906 297.75 C 221.15625 297.671875 221.6875 297.914062 221.976562 298.378906 C 224.394531 302.367188 226.539062 307.933594 227.609375 310.898438 L 227.75 311.289062 C 228.265625 312.816406 228.632812 313.535156 228.871094 313.851562 C 229.171875 313.660156 229.527344 313.496094 229.902344 313.484375 C 230.519531 313.15625 231.203125 312.738281 231.59375 312.511719 C 232.285156 312.097656 232.6875 311.855469 233.015625 311.71875 C 237.578125 309.773438 242.21875 308.589844 246.78125 308.171875 C 255.273438 307.402344 264.753906 309.394531 272.78125 313.648438 C 273.851562 314.214844 274.898438 314.820312 275.90625 315.464844 C 276.347656 315.742188 276.589844 316.25 276.523438 316.765625 C 275.894531 322.179688 273.449219 326.242188 269.667969 328.210938 C 268.824219 328.652344 267.980469 328.816406 267.121094 328.816406 Z M 253.953125 321.609375 C 256.15625 322.101562 258.324219 322.785156 260.441406 323.644531 L 260.820312 323.808594 C 261.3125 324.007812 261.867188 324.273438 262.433594 324.550781 C 264.476562 325.535156 266.796875 326.644531 268.394531 325.8125 C 272 323.933594 273.261719 319.957031 273.703125 317.28125 C 272.984375 316.855469 272.253906 316.425781 271.496094 316.035156 C 268.621094 314.507812 265.546875 313.296875 262.410156 312.410156 C 262.28125 312.460938 262.15625 312.488281 262.03125 312.5 C 261.589844 312.550781 260.46875 313.535156 260.050781 313.914062 C 259.875 314.066406 259.710938 314.214844 259.574219 314.328125 C 256.839844 316.5625 254.996094 318.960938 253.953125 321.609375 Z M 210.960938 301.292969 C 211.199219 303.113281 211.652344 306.429688 212.171875 310.015625 C 213.027344 315.945312 214.96875 322.960938 216.65625 325.132812 C 218.6875 321.953125 221.660156 318.960938 225.746094 315.996094 C 226.007812 315.804688 226.300781 315.59375 226.625 315.363281 C 226.023438 314.507812 225.582031 313.332031 225.175781 312.160156 L 225.050781 311.804688 C 224.082031 309.117188 222.203125 304.210938 220.074219 300.488281 C 219.707031 300.523438 219.34375 300.574219 218.976562 300.625 C 218.597656 300.675781 218.234375 300.726562 217.855469 300.765625 C 216.179688 300.941406 213.835938 301.09375 211.765625 301.230469 C 211.503906 301.269531 211.238281 301.28125 210.960938 301.292969 Z M 229.839844 316.476562 C 229.804688 316.5 229.777344 316.527344 229.753906 316.539062 C 228.859375 317.105469 227.988281 317.710938 227.34375 318.191406 C 224.195312 320.476562 221.773438 322.746094 219.984375 325.105469 C 221.359375 324.703125 222.847656 324.199219 223.640625 323.933594 C 224.507812 323.644531 225.214844 323.402344 225.582031 323.300781 C 227.15625 322.886719 228.679688 322.53125 230.179688 322.214844 C 231.089844 319.125 232.511719 316.398438 234.429688 314.066406 C 234.316406 314.117188 234.1875 314.164062 234.074219 314.214844 C 233.910156 314.28125 233.40625 314.59375 232.992188 314.835938 C 231.707031 315.59375 230.683594 316.183594 229.839844 316.476562 Z M 240.667969 311.96875 C 240.605469 312.046875 240.527344 312.109375 240.441406 312.171875 C 237.011719 314.558594 234.628906 317.660156 233.207031 321.625 C 236.015625 321.132812 238.703125 320.828125 241.273438 320.675781 C 241.636719 317.359375 243.085938 313.863281 245.242188 311.214844 L 245.367188 311.050781 C 243.804688 311.261719 242.242188 311.566406 240.667969 311.96875 Z M 244.371094 320.601562 C 245.117188 320.601562 245.835938 320.613281 246.566406 320.652344 C 248.140625 320.714844 249.703125 320.867188 251.265625 321.117188 C 252.4375 317.839844 254.605469 314.921875 257.859375 312.246094 C 257.984375 312.148438 258.125 312.019531 258.273438 311.882812 C 258.402344 311.769531 258.539062 311.65625 258.679688 311.527344 C 255.640625 310.933594 252.589844 310.671875 249.628906 310.722656 C 249.566406 310.757812 249.488281 310.796875 249.414062 310.820312 C 248.820312 311.050781 248.066406 312.007812 247.5625 312.625 L 247.335938 312.902344 C 245.582031 315.074219 244.371094 317.875 243.996094 320.589844 C 244.132812 320.601562 244.246094 320.601562 244.371094 320.601562 Z M 244.371094 320.601562 " fill-opacity="1" fill-rule="nonzero"/><path fill="#fffbfa" d="M 130.195312 323.894531 C 134.859375 324.804688 139.03125 326.722656 142.925781 329.460938 C 143.277344 329.710938 143.632812 329.964844 143.972656 330.230469 C 152.011719 336.386719 157.09375 346.167969 157.722656 356.261719 C 157.796875 357.421875 157.824219 358.636719 157.761719 359.847656 C 157.632812 362.472656 157.105469 365.109375 155.832031 367.328125 C 145.761719 367.253906 135.941406 365.460938 126.441406 362.128906 C 124.132812 361.324219 118.5625 360.125 117.792969 357.207031 C 117.175781 354.875 117.238281 352.222656 117.527344 349.664062 C 117.707031 348.171875 117.945312 346.710938 118.195312 345.359375 C 119.457031 338.40625 122.394531 332.425781 126.566406 327.566406 C 127.6875 326.265625 128.898438 325.03125 130.195312 323.894531 Z M 130.195312 323.894531 " fill-opacity="1" fill-rule="evenodd"/><g clip-path="url(#201ae95f9f)"><path fill="#000000" d="M 155.832031 368.691406 C 145.785156 368.617188 135.742188 366.835938 125.984375 363.417969 C 125.632812 363.292969 125.191406 363.152344 124.699219 363 C 121.765625 362.09375 117.328125 360.730469 116.484375 357.550781 C 115.914062 355.378906 115.816406 352.742188 116.179688 349.511719 C 116.355469 347.996094 116.609375 346.507812 116.859375 345.132812 C 118.121094 338.140625 121.046875 331.933594 125.53125 326.695312 C 126.691406 325.347656 127.953125 324.070312 129.300781 322.871094 C 129.617188 322.59375 130.042969 322.480469 130.449219 322.558594 C 135.125 323.464844 139.460938 325.359375 143.707031 328.347656 C 144.074219 328.601562 144.4375 328.878906 144.804688 329.144531 C 153.085938 335.480469 158.414062 345.585938 159.082031 356.175781 C 159.160156 357.5 159.171875 358.75 159.121094 359.910156 C 158.957031 363.128906 158.25 365.839844 157.015625 367.996094 C 156.765625 368.425781 156.3125 368.691406 155.832031 368.691406 Z M 130.597656 325.359375 C 129.527344 326.34375 128.519531 327.378906 127.597656 328.464844 C 123.425781 333.335938 120.71875 339.101562 119.546875 345.613281 C 119.320312 346.863281 119.066406 348.324219 118.890625 349.828125 C 118.5625 352.714844 118.636719 355.027344 119.117188 356.867188 C 119.570312 358.585938 123.425781 359.78125 125.507812 360.414062 C 126.035156 360.578125 126.515625 360.71875 126.894531 360.855469 C 136.105469 364.085938 145.558594 365.816406 155.023438 365.980469 C 155.832031 364.300781 156.296875 362.230469 156.410156 359.796875 C 156.460938 358.734375 156.449219 357.574219 156.375 356.363281 C 155.769531 346.558594 150.828125 337.195312 143.152344 331.316406 C 142.824219 331.0625 142.496094 330.824219 142.15625 330.582031 C 138.425781 327.945312 134.632812 326.230469 130.597656 325.359375 Z M 130.597656 325.359375 " fill-opacity="1" fill-rule="nonzero"/></g><path fill="#fffbfa" d="M 272.140625 314.847656 C 273.171875 315.402344 274.191406 315.984375 275.164062 316.613281 C 279.964844 319.679688 284.035156 323.644531 286.695312 328.414062 C 287.929688 330.621094 289.34375 333.863281 290.035156 337.15625 C 290.691406 340.261719 290.714844 343.417969 289.34375 345.777344 C 288.03125 348.023438 283.671875 350.078125 281.527344 351.164062 C 274.28125 354.847656 267.035156 357.386719 260.101562 359.078125 C 259.988281 359.027344 259.875 358.976562 259.761719 358.925781 C 256.773438 357.535156 254.882812 355.328125 253.789062 352.703125 C 251.644531 347.554688 252.601562 340.804688 254.34375 335.554688 C 255.617188 331.707031 257.46875 328.121094 259.925781 324.917969 C 260.316406 324.398438 260.734375 323.894531 261.160156 323.402344 C 264.199219 319.882812 267.992188 316.96875 272.140625 314.847656 Z M 272.140625 314.847656 " fill-opacity="1" fill-rule="evenodd"/><path fill="#000000" d="M 260.113281 360.414062 C 259.9375 360.414062 259.761719 360.375 259.597656 360.3125 L 259.21875 360.148438 C 256.105469 358.710938 253.875 356.375 252.566406 353.207031 C 249.816406 346.582031 252.011719 338.34375 253.082031 335.113281 C 254.429688 331.039062 256.382812 327.328125 258.867188 324.085938 C 259.28125 323.542969 259.710938 323.023438 260.152344 322.507812 C 263.226562 318.949219 267.160156 315.882812 271.519531 313.648438 C 271.910156 313.445312 272.378906 313.445312 272.769531 313.660156 C 273.839844 314.230469 274.886719 314.835938 275.894531 315.476562 C 281.101562 318.796875 285.246094 323.050781 287.882812 327.757812 C 288.636719 329.105469 290.476562 332.679688 291.371094 336.878906 C 292.203125 340.828125 291.925781 344.058594 290.527344 346.457031 C 289.242188 348.679688 285.964844 350.457031 282.726562 352.074219 L 282.160156 352.363281 C 275.339844 355.832031 268.03125 358.535156 260.441406 360.390625 C 260.328125 360.402344 260.226562 360.414062 260.113281 360.414062 Z M 272.125 316.375 C 268.320312 318.417969 264.890625 321.144531 262.195312 324.273438 C 261.792969 324.753906 261.386719 325.234375 261.011719 325.726562 C 258.703125 328.742188 256.886719 332.1875 255.640625 335.957031 C 254.671875 338.898438 252.652344 346.382812 255.0625 352.160156 C 256.09375 354.648438 257.832031 356.476562 260.253906 357.636719 C 267.488281 355.832031 274.445312 353.246094 280.949219 349.941406 L 281.527344 349.648438 C 283.507812 348.652344 287.214844 346.796875 288.195312 345.082031 C 289.230469 343.304688 289.417969 340.652344 288.738281 337.421875 C 288.171875 334.761719 286.972656 331.628906 285.535156 329.054688 C 283.117188 324.726562 279.285156 320.816406 274.457031 317.738281 C 273.6875 317.269531 272.921875 316.816406 272.125 316.375 Z M 272.125 316.375 " fill-opacity="1" fill-rule="nonzero"/><path fill="#fffbfa" d="M 155.832031 367.34375 C 145.761719 367.265625 135.941406 365.472656 126.441406 362.144531 C 124.132812 361.335938 118.5625 360.136719 117.792969 357.222656 C 117.175781 354.886719 117.238281 352.238281 117.527344 349.675781 C 121.75 351.65625 124.992188 353.472656 128.859375 354.835938 C 138.035156 358.042969 148.003906 360.0625 157.761719 359.871094 C 157.988281 359.871094 158.214844 359.859375 158.441406 359.859375 C 168.386719 359.554688 178.632812 357.664062 188.121094 354.699219 C 192.597656 353.296875 197.914062 349.601562 202.589844 349.359375 C 205.402344 349.222656 208.703125 351 211.375 351.695312 C 215.851562 352.84375 220.476562 353.613281 225.0625 354.117188 C 234.730469 355.175781 244.410156 354.683594 253.800781 352.703125 C 261.714844 351.039062 269.429688 348.324219 276.75 344.617188 C 279.398438 343.277344 286.027344 340.121094 290.035156 337.171875 C 290.691406 340.273438 290.714844 343.429688 289.34375 345.789062 C 288.03125 348.035156 283.671875 350.09375 281.527344 351.175781 C 274.28125 354.863281 267.035156 357.398438 260.101562 359.089844 C 243.542969 363.140625 228.71875 362.421875 219.695312 361.222656 C 216.179688 360.753906 212.726562 360.035156 209.320312 359.039062 C 207.9375 358.636719 205.566406 357.195312 204.089844 357.359375 C 200.675781 357.738281 193.023438 361.613281 189.128906 362.722656 C 178.480469 365.738281 167.289062 367.390625 156.210938 367.355469 C 156.097656 367.34375 155.957031 367.34375 155.832031 367.34375 Z M 155.832031 367.34375 " fill-opacity="1" fill-rule="evenodd"/><g clip-path="url(#62887f6387)"><path fill="#000000" d="M 156.601562 368.691406 C 156.472656 368.691406 156.347656 368.691406 156.222656 368.691406 L 155.832031 368.691406 L 155.832031 367.34375 L 155.820312 368.691406 C 145.773438 368.617188 135.742188 366.835938 125.984375 363.417969 C 125.632812 363.292969 125.191406 363.152344 124.699219 363 C 121.765625 362.09375 117.328125 360.730469 116.484375 357.550781 C 115.914062 355.378906 115.816406 352.742188 116.179688 349.511719 C 116.230469 349.082031 116.484375 348.691406 116.859375 348.488281 C 117.238281 348.273438 117.691406 348.261719 118.097656 348.453125 C 119.34375 349.03125 120.503906 349.601562 121.613281 350.15625 C 124.308594 351.480469 126.640625 352.628906 129.300781 353.5625 C 139.070312 356.980469 148.914062 358.699219 157.722656 358.519531 L 158.390625 358.507812 C 167.792969 358.21875 177.9375 356.464844 187.707031 353.410156 C 189.292969 352.917969 191.035156 352.097656 192.863281 351.226562 C 196.039062 349.726562 199.328125 348.171875 202.515625 348.007812 C 204.710938 347.910156 206.875 348.703125 209.007812 349.484375 C 209.976562 349.839844 210.886719 350.179688 211.714844 350.382812 C 215.773438 351.429688 220.3125 352.238281 225.214844 352.765625 C 234.679688 353.800781 244.210938 353.335938 253.523438 351.378906 C 261.335938 349.738281 268.949219 347.050781 276.148438 343.402344 L 277.484375 342.734375 C 280.632812 341.171875 285.890625 338.546875 289.242188 336.074219 C 289.609375 335.792969 290.097656 335.730469 290.527344 335.894531 C 290.957031 336.058594 291.269531 336.425781 291.371094 336.878906 C 292.203125 340.828125 291.925781 344.058594 290.527344 346.457031 C 289.242188 348.679688 285.964844 350.457031 282.726562 352.074219 L 282.160156 352.363281 C 275.339844 355.832031 268.03125 358.535156 260.441406 360.390625 C 243.84375 364.453125 229.035156 363.808594 219.53125 362.558594 C 215.964844 362.09375 212.410156 361.347656 208.957031 360.339844 C 208.414062 360.175781 207.796875 359.910156 207.140625 359.632812 C 206.183594 359.214844 204.871094 358.636719 204.253906 358.710938 C 202.441406 358.914062 198.925781 360.363281 195.824219 361.636719 C 193.441406 362.621094 191.199219 363.542969 189.523438 364.023438 C 178.554688 367.113281 167.492188 368.691406 156.601562 368.691406 Z M 118.714844 351.730469 C 118.601562 353.75 118.726562 355.441406 119.105469 356.867188 C 119.558594 358.585938 123.414062 359.78125 125.496094 360.414062 C 126.023438 360.578125 126.503906 360.71875 126.882812 360.855469 C 136.359375 364.1875 146.101562 365.902344 155.84375 365.980469 L 156.222656 365.980469 C 167 366.054688 177.9375 364.476562 188.777344 361.398438 C 190.304688 360.96875 192.484375 360.0625 194.789062 359.113281 C 198.21875 357.699219 201.761719 356.238281 203.953125 355.996094 C 205.300781 355.847656 206.851562 356.527344 208.226562 357.121094 C 208.792969 357.371094 209.320312 357.601562 209.710938 357.714844 C 213.039062 358.683594 216.457031 359.40625 219.882812 359.847656 C 229.160156 361.070312 243.605469 361.6875 259.800781 357.738281 C 267.1875 355.933594 274.308594 353.308594 280.9375 349.941406 L 281.515625 349.648438 C 283.496094 348.652344 287.199219 346.796875 288.183594 345.082031 C 288.988281 343.695312 289.28125 341.777344 289.039062 339.464844 C 285.648438 341.664062 281.390625 343.78125 278.667969 345.132812 L 277.355469 345.789062 C 269.957031 349.550781 262.117188 352.3125 254.066406 354.003906 C 244.472656 356.023438 234.65625 356.503906 224.914062 355.429688 C 219.882812 354.875 215.21875 354.054688 211.035156 352.96875 C 210.078125 352.730469 209.109375 352.363281 208.074219 351.984375 C 206.195312 351.304688 204.242188 350.582031 202.65625 350.671875 C 200.007812 350.8125 196.957031 352.25 194.019531 353.636719 C 192.105469 354.546875 190.289062 355.40625 188.511719 355.960938 C 178.507812 359.089844 168.121094 360.894531 158.464844 361.183594 L 157.773438 361.195312 C 148.496094 361.386719 138.613281 359.65625 128.394531 356.085938 C 125.582031 355.101562 123.0625 353.863281 120.402344 352.550781 C 119.875 352.300781 119.304688 352.011719 118.714844 351.730469 Z M 118.714844 351.730469 " fill-opacity="1" fill-rule="nonzero"/></g><path fill="#000000" d="M 203.902344 358.734375 C 203.222656 358.734375 202.628906 358.21875 202.566406 357.523438 C 201.570312 348.085938 201.054688 340.199219 200.5 331.859375 C 200.210938 327.464844 199.90625 322.9375 199.527344 317.953125 C 199.453125 317.03125 199.363281 315.742188 199.265625 314.28125 C 198.949219 309.800781 198.519531 303.65625 198.128906 300.652344 C 198.027344 299.90625 198.558594 299.226562 199.289062 299.136719 C 200.03125 299.035156 200.714844 299.566406 200.800781 300.296875 C 201.207031 303.375 201.632812 309.574219 201.949219 314.089844 C 202.050781 315.554688 202.136719 316.828125 202.214844 317.738281 C 202.589844 322.734375 202.894531 327.277344 203.183594 331.667969 C 203.726562 339.984375 204.242188 347.84375 205.238281 357.234375 C 205.3125 357.980469 204.785156 358.648438 204.042969 358.722656 C 204.003906 358.722656 203.953125 358.734375 203.902344 358.734375 Z M 203.902344 358.734375 " fill-opacity="1" fill-rule="nonzero"/><path fill="#000000" d="M 299.402344 208.988281 C 299.199219 209.164062 299.941406 208.824219 299.992188 208.8125 C 300.660156 208.570312 301.339844 208.371094 302.007812 208.167969 C 303.988281 207.585938 306.105469 207.320312 308.160156 207.144531 C 313.933594 206.652344 319.328125 208.320312 324.367188 211.03125 C 328.578125 213.304688 332.597656 216.179688 335.574219 219.980469 C 339.089844 224.484375 341.132812 229.683594 346.085938 232.949219 C 350.648438 235.96875 357.175781 236.671875 359.382812 230.503906 C 361.5625 224.40625 358.664062 217.175781 355.839844 211.8125 C 348.605469 198.046875 330.707031 184.066406 314.992188 182.363281 C 302.085938 180.960938 293.464844 193.769531 298.214844 205.46875 " fill-opacity="1" fill-rule="evenodd"/><path fill="#000000" d="M 352.890625 236.558594 C 350.472656 236.558594 347.8125 235.703125 345.355469 234.085938 C 341.722656 231.703125 339.570312 228.359375 337.488281 225.128906 C 336.554688 223.6875 335.597656 222.199219 334.515625 220.8125 C 331.980469 217.582031 328.464844 214.765625 323.738281 212.21875 C 318.292969 209.277344 313.253906 208.054688 308.285156 208.484375 C 306.597656 208.621094 304.40625 208.875 302.402344 209.453125 C 301.746094 209.644531 301.089844 209.847656 300.445312 210.074219 C 299.929688 210.300781 298.859375 210.765625 298.230469 209.757812 C 297.875 209.191406 298.015625 208.40625 298.507812 207.964844 C 298.734375 207.761719 298.996094 207.664062 299.289062 207.636719 C 299.324219 207.625 299.351562 207.613281 299.375 207.597656 C 299.402344 207.585938 299.515625 207.535156 299.550781 207.523438 C 300.246094 207.285156 300.949219 207.070312 301.644531 206.855469 C 303.886719 206.199219 306.246094 205.933594 308.058594 205.78125 C 313.566406 205.316406 319.113281 206.640625 325.023438 209.832031 C 330.078125 212.570312 333.882812 215.613281 336.644531 219.144531 C 337.804688 220.621094 338.800781 222.160156 339.757812 223.664062 C 341.773438 226.792969 343.691406 229.757812 346.839844 231.828125 C 349.574219 233.632812 352.652344 234.300781 354.84375 233.554688 C 356.371094 233.039062 357.480469 231.867188 358.121094 230.046875 C 359.695312 225.632812 358.5625 219.878906 354.65625 212.445312 C 347.144531 198.160156 329.296875 185.265625 314.867188 183.710938 C 309.472656 183.132812 304.542969 185.199219 301.367188 189.414062 C 298.027344 193.84375 297.332031 199.648438 299.488281 204.960938 C 299.765625 205.65625 299.4375 206.4375 298.746094 206.730469 C 298.050781 207.007812 297.269531 206.679688 296.980469 205.984375 C 294.460938 199.789062 295.292969 192.988281 299.210938 187.789062 C 302.96875 182.789062 308.777344 180.316406 315.15625 181.023438 C 330.378906 182.675781 349.171875 196.203125 357.050781 211.195312 C 361.335938 219.335938 362.507812 225.808594 360.667969 230.96875 C 359.734375 233.570312 358.019531 235.347656 355.703125 236.128906 C 354.832031 236.421875 353.886719 236.558594 352.890625 236.558594 Z M 352.890625 236.558594 " fill-opacity="1" fill-rule="nonzero"/><path fill="#fff100" d="M 322.378906 187.246094 C 322.378906 187.246094 283.167969 202.90625 262.898438 210.992188 C 259.761719 212.242188 257.253906 214.691406 255.917969 217.796875 C 254.582031 220.898438 254.542969 224.40625 255.792969 227.550781 C 264.171875 248.597656 281.578125 292.285156 289.960938 313.320312 C 291.207031 316.460938 293.652344 318.972656 296.753906 320.3125 C 299.855469 321.648438 303.359375 321.6875 306.496094 320.4375 C 326.761719 312.347656 365.972656 296.6875 365.972656 296.6875 Z M 322.378906 187.246094 " fill-opacity="1" fill-rule="evenodd"/><g clip-path="url(#8841d972c9)"><path fill="#000000" d="M 301.78125 322.695312 C 299.878906 322.695312 297.976562 322.316406 296.222656 321.5625 C 292.769531 320.070312 290.097656 317.320312 288.710938 313.824219 L 254.542969 228.054688 C 253.144531 224.558594 253.195312 220.722656 254.683594 217.265625 C 256.171875 213.808594 258.90625 211.132812 262.394531 209.746094 L 321.875 185.996094 C 322.554688 185.71875 323.347656 186.058594 323.625 186.753906 L 367.222656 296.195312 C 367.359375 296.523438 367.347656 296.902344 367.207031 297.230469 C 367.070312 297.558594 366.804688 297.824219 366.464844 297.949219 L 306.988281 321.699219 C 305.324219 322.367188 303.558594 322.695312 301.78125 322.695312 Z M 321.621094 189.011719 L 263.40625 212.257812 C 260.582031 213.378906 258.363281 215.535156 257.164062 218.339844 C 255.96875 221.128906 255.917969 224.230469 257.050781 227.058594 L 291.222656 312.839844 C 292.34375 315.667969 294.496094 317.886719 297.296875 319.085938 C 300.042969 320.273438 303.21875 320.3125 306.003906 319.199219 L 364.234375 295.957031 Z M 321.621094 189.011719 " fill-opacity="1" fill-rule="nonzero"/></g><path fill="#fffbfa" d="M 324.054688 191.460938 L 328.578125 202.828125 L 265.800781 227.902344 C 263.316406 228.898438 260.277344 227.160156 259.03125 224.015625 C 257.785156 220.875 258.777344 217.53125 261.273438 216.535156 Z M 324.054688 191.460938 " fill-opacity="1" fill-rule="evenodd"/><path fill="#000000" d="M 264.351562 229.53125 C 261.691406 229.53125 258.992188 227.585938 257.769531 224.523438 C 256.246094 220.699219 257.59375 216.546875 260.769531 215.273438 L 323.550781 190.210938 C 324.242188 189.933594 325.023438 190.273438 325.300781 190.96875 L 329.839844 202.335938 C 329.976562 202.664062 329.964844 203.042969 329.824219 203.371094 C 329.6875 203.699219 329.421875 203.964844 329.082031 204.089844 L 266.304688 229.164062 C 265.671875 229.417969 265.019531 229.53125 264.351562 229.53125 Z M 323.296875 193.226562 L 261.765625 217.796875 C 259.976562 218.515625 259.308594 221.078125 260.277344 223.523438 C 261.25 225.972656 263.492188 227.375 265.296875 226.652344 L 326.828125 202.085938 Z M 323.296875 193.226562 " fill-opacity="1" fill-rule="nonzero"/><path fill="#fffbfa" d="M 362.632812 233.671875 C 361.144531 230.164062 357.175781 226.402344 355.890625 225.277344 C 350.15625 220.292969 342.492188 215.386719 335.03125 220.683594 C 332.902344 222.199219 331.339844 224.546875 330.457031 226.980469 C 330.242188 227.574219 329.371094 230.539062 329.371094 230.539062 C 329.371094 230.539062 324.253906 229.429688 321.28125 229.191406 C 314.6875 228.660156 307.632812 231.777344 302.488281 235.917969 C 297.484375 239.929688 293.226562 245.960938 292.769531 252.535156 C 292.621094 254.667969 292.921875 257.230469 293.652344 259.019531 C 293.679688 259.085938 293.640625 259.160156 293.578125 259.199219 C 291.851562 260.144531 290.3125 260.449219 287.945312 263.363281 C 285.070312 266.894531 284.441406 271.792969 285.648438 276.082031 C 286.734375 279.929688 289.179688 283.046875 292.835938 284.6875 C 294.082031 285.242188 298.191406 286.125 298.191406 286.125 C 298.984375 287.0625 299.097656 289.898438 300.648438 292.195312 C 304.390625 297.785156 308.160156 298.078125 315.03125 296.800781 C 317.675781 296.308594 321.558594 295.210938 321.558594 295.210938 C 322.074219 295.289062 322.363281 297.09375 324.785156 299.074219 C 326.863281 300.777344 329.8125 300.511719 332.359375 299.882812 C 347.03125 296.195312 362.242188 278.050781 363.023438 263.691406 C 363.1875 260.738281 362.960938 257.785156 361.851562 255.019531 C 361.4375 253.972656 360.894531 252.648438 360.175781 251.398438 C 360.175781 251.398438 362.292969 246.871094 362.910156 245.140625 C 364.335938 241.230469 364.257812 237.492188 362.632812 233.671875 Z M 362.632812 233.671875 " fill-opacity="1" fill-rule="evenodd"/><path fill="#000000" d="M 328.855469 301.75 C 326.851562 301.75 325.226562 301.21875 323.925781 300.144531 C 322.3125 298.820312 321.53125 297.558594 321.066406 296.777344 C 319.753906 297.128906 317.210938 297.800781 315.269531 298.152344 C 307.871094 299.527344 303.636719 299.113281 299.527344 292.964844 C 298.53125 291.488281 298.078125 289.886719 297.722656 288.613281 C 297.609375 288.195312 297.460938 287.679688 297.320312 287.339844 C 296.085938 287.0625 293.363281 286.429688 292.28125 285.9375 C 288.386719 284.195312 285.574219 280.828125 284.339844 276.460938 C 282.925781 271.4375 283.886719 266.226562 286.886719 262.515625 C 288.964844 259.957031 290.554688 259.183594 291.953125 258.503906 C 291.976562 258.492188 292.003906 258.480469 292.027344 258.464844 C 291.511719 256.675781 291.269531 254.464844 291.421875 252.433594 C 291.863281 246.125 295.59375 239.714844 301.644531 234.855469 C 307.746094 229.960938 315.128906 227.335938 321.394531 227.839844 C 323.550781 228.015625 326.699219 228.609375 328.425781 228.949219 C 328.703125 228.03125 329.042969 226.882812 329.183594 226.503906 C 330.230469 223.601562 332.03125 221.140625 334.25 219.5625 C 342.707031 213.542969 351.152344 219.347656 356.773438 224.242188 C 357.316406 224.710938 362.105469 228.964844 363.867188 233.128906 C 365.621094 237.242188 365.707031 241.328125 364.171875 245.609375 C 363.667969 246.984375 362.292969 250.023438 361.6875 251.347656 C 362.292969 252.496094 362.757812 253.644531 363.113281 254.527344 C 364.171875 257.179688 364.574219 260.121094 364.386719 263.777344 C 363.566406 278.859375 347.863281 297.394531 332.699219 301.207031 C 331.277344 301.574219 330.003906 301.75 328.855469 301.75 Z M 321.558594 293.886719 C 321.621094 293.886719 321.683594 293.886719 321.757812 293.898438 C 322.589844 294.027344 322.96875 294.667969 323.347656 295.300781 C 323.738281 295.96875 324.332031 296.980469 325.65625 298.0625 C 327.003906 299.175781 329.09375 299.351562 332.042969 298.605469 C 345.984375 295.097656 360.945312 277.457031 361.699219 263.652344 C 361.878906 260.410156 361.535156 257.835938 360.628906 255.5625 C 360.226562 254.554688 359.722656 253.292969 359.027344 252.117188 C 358.800781 251.742188 358.789062 251.261719 358.964844 250.871094 C 358.992188 250.820312 361.058594 246.363281 361.652344 244.722656 C 362.972656 241.066406 362.898438 237.734375 361.410156 234.226562 C 360.164062 231.296875 356.8125 227.878906 355.019531 226.324219 C 347.082031 219.410156 341.167969 218.023438 335.839844 221.808594 C 334.074219 223.070312 332.613281 225.078125 331.753906 227.460938 C 331.601562 227.867188 331.035156 229.757812 330.695312 230.945312 C 330.496094 231.625 329.800781 232.03125 329.109375 231.890625 C 329.058594 231.878906 324.042969 230.804688 321.191406 230.578125 C 315.597656 230.125 308.929688 232.535156 303.347656 237.015625 C 297.964844 241.34375 294.511719 247.183594 294.132812 252.675781 C 293.992188 254.691406 294.308594 257.054688 294.914062 258.554688 C 295.203125 259.222656 294.902344 260.054688 294.234375 260.421875 C 293.867188 260.625 293.515625 260.800781 293.148438 260.976562 C 291.839844 261.609375 290.703125 262.164062 289.003906 264.257812 C 286.582031 267.238281 285.800781 271.652344 286.960938 275.753906 C 287.980469 279.386719 290.210938 282.0625 293.402344 283.488281 C 294.21875 283.855469 296.957031 284.511719 298.492188 284.839844 C 298.785156 284.902344 299.046875 285.054688 299.238281 285.28125 C 299.777344 285.914062 300.03125 286.832031 300.332031 287.894531 C 300.660156 289.054688 301.027344 290.355469 301.78125 291.476562 C 305.046875 296.347656 308.035156 296.765625 314.789062 295.503906 C 317.335938 295.023438 321.167969 293.949219 321.207031 293.9375 C 321.304688 293.898438 321.433594 293.886719 321.558594 293.886719 Z M 292.378906 259.511719 C 292.394531 259.527344 292.394531 259.550781 292.40625 259.5625 C 292.394531 259.539062 292.394531 259.527344 292.378906 259.511719 Z M 292.921875 258.023438 Z M 292.921875 258.023438 " fill-opacity="1" fill-rule="nonzero"/><path fill="#000000" d="M 320.585938 296.828125 C 319.96875 296.828125 319.414062 296.398438 319.277344 295.78125 C 319.113281 295.046875 319.566406 294.328125 320.296875 294.164062 C 328.085938 292.386719 335.347656 285.863281 337.589844 278.644531 C 337.804688 277.925781 338.558594 277.535156 339.277344 277.746094 C 339.996094 277.976562 340.386719 278.730469 340.171875 279.4375 C 337.664062 287.515625 329.574219 294.820312 320.902344 296.789062 C 320.789062 296.816406 320.6875 296.828125 320.585938 296.828125 Z M 301.214844 287.601562 C 300.660156 287.601562 300.09375 287.578125 299.5 287.527344 C 299.488281 287.527344 297.675781 287.375 296.792969 287.210938 C 296.0625 287.074219 295.582031 286.367188 295.71875 285.621094 C 295.859375 284.890625 296.566406 284.410156 297.308594 284.550781 C 297.925781 284.664062 299.386719 284.800781 299.714844 284.828125 C 301.46875 284.976562 302.980469 284.839844 304.730469 284.675781 L 305.25 284.625 C 313.1875 283.917969 320.613281 279.210938 323.726562 272.914062 C 324.054688 272.246094 324.871094 271.96875 325.539062 272.308594 C 326.207031 272.636719 326.484375 273.457031 326.144531 274.125 C 322.566406 281.34375 314.460938 286.53125 305.488281 287.324219 L 304.972656 287.375 C 303.722656 287.488281 302.515625 287.601562 301.214844 287.601562 Z M 302.742188 265.140625 C 301.316406 265.140625 299.878906 264.890625 298.519531 264.359375 C 296.589844 263.613281 294.800781 262.316406 293.351562 260.585938 L 293.1875 260.398438 C 292.746094 259.90625 292.140625 259.222656 292.054688 258.378906 C 291.964844 257.632812 292.492188 256.964844 293.238281 256.875 C 293.957031 256.800781 294.597656 257.28125 294.726562 257.988281 C 294.800781 258.136719 295.078125 258.453125 295.214844 258.605469 L 295.429688 258.84375 C 296.589844 260.21875 297.988281 261.253906 299.5 261.835938 C 302.777344 263.097656 306.585938 262.328125 309.421875 259.816406 C 309.949219 259.347656 310.429688 258.78125 310.945312 258.175781 C 311.703125 257.28125 312.496094 256.359375 313.542969 255.640625 C 314.828125 254.757812 316.328125 254.363281 317.664062 254.023438 C 317.941406 253.949219 318.21875 253.886719 318.496094 253.808594 C 319.214844 253.609375 319.957031 254.035156 320.160156 254.757812 C 320.359375 255.476562 319.933594 256.21875 319.214844 256.421875 C 318.925781 256.496094 318.632812 256.574219 318.332031 256.648438 C 317.109375 256.964844 315.960938 257.253906 315.066406 257.875 C 314.3125 258.390625 313.679688 259.136719 313 259.929688 C 312.445312 260.574219 311.878906 261.253906 311.210938 261.847656 C 308.765625 264.007812 305.742188 265.140625 302.742188 265.140625 Z M 294.738281 258.0625 Z M 360.605469 253.707031 C 360.1875 253.707031 359.621094 253.519531 359.269531 252.625 C 359.230469 252.535156 359.191406 252.421875 359.15625 252.359375 C 358.992188 252.03125 358.789062 251.703125 358.601562 251.375 C 358.019531 250.414062 357.339844 249.417969 356.546875 248.347656 C 354.289062 245.316406 351.695312 242.753906 348.84375 240.699219 C 348.238281 240.269531 348.101562 239.425781 348.53125 238.804688 C 348.972656 238.199219 349.804688 238.0625 350.421875 238.492188 C 353.496094 240.699219 356.292969 243.460938 358.714844 246.71875 C 359.570312 247.867188 360.289062 248.925781 360.917969 249.960938 C 361.144531 250.339844 361.375 250.730469 361.574219 251.121094 C 361.625 251.222656 361.714844 251.425781 361.777344 251.601562 C 361.839844 251.714844 361.890625 251.839844 361.929688 251.980469 C 362.089844 252.675781 361.699219 253.40625 361.019531 253.621094 C 360.933594 253.671875 360.78125 253.707031 360.605469 253.707031 Z M 338.914062 236.066406 C 338.699219 236.066406 338.472656 236.015625 338.257812 235.902344 C 335.585938 234.425781 333.203125 233.34375 330.960938 232.558594 C 330.480469 232.394531 329.953125 232.269531 329.398438 232.144531 C 328.605469 231.953125 327.785156 231.765625 327.003906 231.4375 C 326.324219 231.144531 325.996094 230.351562 326.296875 229.65625 C 326.585938 228.976562 327.382812 228.660156 328.074219 228.949219 C 328.628906 229.191406 329.296875 229.34375 330.015625 229.507812 C 330.621094 229.644531 331.25 229.796875 331.855469 230.011719 C 334.238281 230.84375 336.757812 231.992188 339.570312 233.542969 C 340.222656 233.910156 340.464844 234.730469 340.097656 235.386719 C 339.859375 235.816406 339.390625 236.066406 338.914062 236.066406 Z M 338.914062 236.066406 " fill-opacity="1" fill-rule="nonzero"/><path fill="#fffbfa" d="M 168.75 126.699219 C 177.835938 126.699219 185.222656 142.777344 185.222656 162.574219 C 185.222656 182.375 177.835938 198.449219 168.75 198.449219 C 159.664062 198.449219 152.277344 182.375 152.277344 162.574219 C 152.277344 142.777344 159.652344 126.699219 168.75 126.699219 Z M 168.75 126.699219 " fill-opacity="1" fill-rule="evenodd"/><path fill="#000000" d="M 168.75 199.800781 C 158.753906 199.800781 150.929688 183.445312 150.929688 162.574219 C 150.929688 141.703125 158.753906 125.351562 168.75 125.351562 C 178.746094 125.351562 186.574219 141.703125 186.574219 162.574219 C 186.574219 183.445312 178.746094 199.800781 168.75 199.800781 Z M 168.75 128.050781 C 160.558594 128.050781 153.625 143.863281 153.625 162.574219 C 153.625 181.289062 160.546875 197.101562 168.75 197.101562 C 176.957031 197.101562 183.875 181.289062 183.875 162.574219 C 183.875 143.863281 176.941406 128.050781 168.75 128.050781 Z M 168.75 128.050781 " fill-opacity="1" fill-rule="nonzero"/><path fill="#fffbfa" d="M 229.613281 126.699219 C 238.703125 126.699219 246.085938 142.777344 246.085938 162.574219 C 246.085938 182.375 238.703125 198.449219 229.613281 198.449219 C 220.527344 198.449219 213.140625 182.375 213.140625 162.574219 C 213.140625 142.777344 220.527344 126.699219 229.613281 126.699219 Z M 229.613281 126.699219 " fill-opacity="1" fill-rule="evenodd"/><path fill="#000000" d="M 229.613281 199.800781 C 219.621094 199.800781 211.792969 183.445312 211.792969 162.574219 C 211.792969 141.703125 219.621094 125.351562 229.613281 125.351562 C 239.609375 125.351562 247.4375 141.703125 247.4375 162.574219 C 247.4375 183.445312 239.609375 199.800781 229.613281 199.800781 Z M 229.613281 128.050781 C 221.421875 128.050781 214.488281 143.863281 214.488281 162.574219 C 214.488281 181.289062 221.410156 197.101562 229.613281 197.101562 C 237.804688 197.101562 244.738281 181.289062 244.738281 162.574219 C 244.738281 143.863281 237.820312 128.050781 229.613281 128.050781 Z M 229.613281 128.050781 " fill-opacity="1" fill-rule="nonzero"/><path fill="#000000" d="M 177.371094 161.832031 C 177.371094 162.082031 177.371094 162.324219 177.371094 162.574219 C 177.371094 175.296875 173.503906 185.628906 168.738281 185.628906 C 163.972656 185.628906 160.105469 175.296875 160.105469 162.574219 C 160.105469 149.855469 163.972656 139.519531 168.738281 139.519531 C 171.890625 139.519531 174.648438 144.039062 176.148438 150.777344 L 168.738281 155.886719 Z M 177.371094 161.832031 " fill-opacity="1" fill-rule="evenodd"/><path fill="#000000" d="M 168.75 186.980469 C 162.273438 186.980469 158.769531 174.398438 158.769531 162.574219 C 158.769531 150.75 162.273438 138.171875 168.75 138.171875 C 172.542969 138.171875 175.734375 142.664062 177.484375 150.488281 C 177.609375 151.027344 177.382812 151.585938 176.929688 151.898438 L 171.132812 155.898438 L 178.140625 160.734375 C 178.507812 160.984375 178.71875 161.390625 178.71875 161.832031 L 178.71875 162.589844 C 178.734375 174.410156 175.230469 186.980469 168.75 186.980469 Z M 168.75 140.871094 C 165.308594 140.871094 161.476562 150.160156 161.476562 162.574219 C 161.476562 174.992188 165.324219 184.28125 168.75 184.28125 C 172.179688 184.28125 176.023438 174.992188 176.023438 162.574219 L 176.023438 162.550781 L 167.980469 156.996094 C 167.617188 156.746094 167.402344 156.328125 167.402344 155.886719 C 167.402344 155.445312 167.617188 155.03125 167.980469 154.777344 L 174.636719 150.183594 C 173.046875 143.761719 170.566406 140.871094 168.75 140.871094 Z M 168.75 140.871094 " fill-opacity="1" fill-rule="nonzero"/><path fill="#000000" d="M 238.246094 161.832031 C 238.246094 162.082031 238.246094 162.324219 238.246094 162.574219 C 238.246094 175.296875 234.378906 185.628906 229.613281 185.628906 C 224.851562 185.628906 220.980469 175.296875 220.980469 162.574219 C 220.980469 149.855469 224.851562 139.519531 229.613281 139.519531 C 232.765625 139.519531 235.523438 144.039062 237.023438 150.777344 L 229.613281 155.886719 Z M 238.246094 161.832031 " fill-opacity="1" fill-rule="evenodd"/><path fill="#000000" d="M 229.613281 186.980469 C 223.136719 186.980469 219.632812 174.398438 219.632812 162.574219 C 219.632812 150.75 223.125 138.171875 229.613281 138.171875 C 233.40625 138.171875 236.597656 142.664062 238.347656 150.488281 C 238.472656 151.027344 238.246094 151.585938 237.792969 151.898438 L 231.996094 155.898438 L 239.003906 160.734375 C 239.371094 160.984375 239.582031 161.390625 239.582031 161.832031 L 239.582031 162.589844 C 239.597656 174.410156 236.105469 186.980469 229.613281 186.980469 Z M 229.613281 140.871094 C 226.171875 140.871094 222.339844 150.160156 222.339844 162.574219 C 222.339844 174.992188 226.1875 184.28125 229.613281 184.28125 C 233.042969 184.28125 236.886719 174.992188 236.886719 162.574219 L 236.886719 162.550781 L 228.84375 156.996094 C 228.480469 156.746094 228.265625 156.328125 228.265625 155.886719 C 228.265625 155.445312 228.480469 155.03125 228.84375 154.777344 L 235.5 150.183594 C 233.910156 143.761719 231.441406 140.871094 229.613281 140.871094 Z M 229.613281 140.871094 " fill-opacity="1" fill-rule="nonzero"/><path fill="#000000" d="M 180.988281 120.367188 C 180.445312 120.367188 179.941406 120.039062 179.726562 119.507812 C 177.105469 112.871094 170.046875 107.734375 162.800781 110.585938 C 160.40625 111.53125 158.011719 113.296875 155.691406 115.847656 C 154.746094 116.894531 154.054688 117.765625 153.523438 118.613281 C 153.476562 118.699219 153.085938 119.445312 153.035156 119.53125 L 151.835938 118.925781 L 150.640625 119.582031 C 150.335938 119.039062 150.363281 118.535156 151.242188 117.160156 C 151.863281 116.1875 152.644531 115.191406 153.703125 114.019531 C 156.3125 111.152344 159.03125 109.148438 161.820312 108.050781 C 170.640625 104.566406 179.136719 110.625 182.25 118.484375 C 182.527344 119.179688 182.1875 119.960938 181.492188 120.238281 C 181.328125 120.328125 181.152344 120.367188 180.988281 120.367188 Z M 212.699219 120.367188 C 212.535156 120.367188 212.371094 120.339844 212.207031 120.265625 C 211.515625 119.988281 211.175781 119.203125 211.453125 118.511719 C 214.566406 110.648438 223.058594 104.589844 231.882812 108.074219 C 234.667969 109.171875 237.402344 111.179688 240 114.042969 C 241.082031 115.230469 241.839844 116.199219 242.457031 117.183594 C 243.214844 118.410156 243.414062 118.953125 243.050781 119.609375 L 240.71875 118.246094 L 241.863281 118.953125 L 240.65625 119.558594 C 240.605469 119.457031 240.214844 118.710938 240.136719 118.585938 C 239.632812 117.777344 238.964844 116.933594 237.996094 115.859375 C 235.675781 113.3125 233.28125 111.53125 230.886719 110.597656 C 223.628906 107.734375 216.582031 112.882812 213.960938 119.519531 C 213.746094 120.039062 213.242188 120.367188 212.699219 120.367188 Z M 212.699219 120.367188 " fill-opacity="1" fill-rule="nonzero"/><path fill="#fffbfa" d="M 198.960938 185.65625 C 207.003906 185.65625 213.542969 189.78125 213.542969 194.867188 C 213.542969 199.953125 207.015625 204.078125 198.960938 204.078125 C 190.921875 204.078125 184.378906 199.953125 184.378906 194.867188 C 184.378906 189.78125 190.90625 185.65625 198.960938 185.65625 Z M 198.960938 185.65625 " fill-opacity="1" fill-rule="evenodd"/><path fill="#000000" d="M 198.960938 205.429688 C 190.027344 205.429688 183.03125 200.785156 183.03125 194.867188 C 183.03125 188.9375 190.027344 184.304688 198.960938 184.304688 C 207.898438 184.304688 214.894531 188.949219 214.894531 194.867188 C 214.894531 200.785156 207.898438 205.429688 198.960938 205.429688 Z M 198.960938 187.003906 C 191.789062 187.003906 185.726562 190.601562 185.726562 194.867188 C 185.726562 199.132812 191.789062 202.730469 198.960938 202.730469 C 206.132812 202.730469 212.195312 199.132812 212.195312 194.867188 C 212.195312 190.601562 206.132812 187.003906 198.960938 187.003906 Z M 198.960938 187.003906 " fill-opacity="1" fill-rule="nonzero"/><path fill="#000000" d="M 201.242188 236.144531 C 198.535156 236.230469 195.886719 236.082031 193.84375 235.789062 C 181.554688 234 170.402344 230.1875 163.40625 219.550781 C 161.085938 216.027344 159.234375 211.777344 157.9375 206.589844 C 157.949219 206.566406 158.640625 207.109375 158.71875 207.15625 C 159.261719 207.5625 159.828125 207.925781 160.40625 208.269531 C 162.183594 209.328125 164.023438 210.300781 165.890625 211.222656 C 171.058594 213.796875 176.550781 215.777344 182.160156 217.125 C 182.816406 217.277344 183.484375 217.429688 184.140625 217.570312 C 187.011719 218.175781 189.976562 218.601562 193.011719 218.855469 C 195.699219 219.082031 198.445312 219.171875 201.242188 219.121094 C 204.042969 219.171875 206.789062 219.082031 209.472656 218.855469 C 212.511719 218.601562 215.484375 218.160156 218.347656 217.570312 C 219.015625 217.429688 219.667969 217.277344 220.324219 217.125 C 225.933594 215.777344 231.429688 213.796875 236.582031 211.222656 C 238.4375 210.300781 240.289062 209.328125 242.066406 208.269531 C 242.644531 207.914062 243.214844 207.5625 243.753906 207.15625 C 243.820312 207.109375 244.523438 206.566406 244.535156 206.589844 C 243.238281 211.777344 241.386719 216.042969 239.066406 219.550781 C 232.070312 230.1875 220.917969 233.984375 208.628906 235.789062 C 206.597656 236.09375 203.953125 236.230469 201.242188 236.144531 Z M 201.242188 236.144531 " fill-opacity="1" fill-rule="evenodd"/><path fill="#000000" d="M 199.617188 237.53125 C 197.5 237.53125 195.433594 237.394531 193.65625 237.140625 C 183.195312 235.613281 170.1875 232.320312 162.285156 220.308594 C 159.816406 216.558594 157.910156 212.054688 156.636719 206.929688 C 156.460938 206.210938 156.890625 205.480469 157.609375 205.289062 C 158.277344 205.113281 158.640625 205.390625 159.4375 205.996094 C 159.992188 206.402344 160.496094 206.742188 161.113281 207.109375 C 162.625 208.015625 164.289062 208.910156 166.496094 210.011719 C 171.5625 212.535156 176.929688 214.476562 182.476562 215.816406 C 183.117188 215.964844 183.773438 216.117188 184.417969 216.257812 C 187.226562 216.847656 190.164062 217.265625 193.125 217.519531 C 195.761719 217.746094 198.484375 217.832031 201.21875 217.78125 C 203.992188 217.832031 206.714844 217.746094 209.359375 217.519531 C 212.335938 217.265625 215.257812 216.835938 218.070312 216.257812 C 218.722656 216.117188 219.367188 215.980469 220.023438 215.816406 C 225.566406 214.488281 230.9375 212.535156 236.003906 210.011719 C 238.222656 208.910156 239.875 208.015625 241.386719 207.109375 C 242.015625 206.730469 242.519531 206.402344 242.972656 206.058594 C 243.855469 205.378906 244.222656 205.101562 244.890625 205.277344 C 245.609375 205.46875 246.035156 206.199219 245.859375 206.917969 C 244.574219 212.042969 242.683594 216.546875 240.214844 220.292969 C 232.3125 232.292969 219.304688 235.589844 208.84375 237.128906 C 206.613281 237.457031 203.925781 237.582031 201.253906 237.492188 C 200.699219 237.519531 200.160156 237.53125 199.617188 237.53125 Z M 160.253906 209.757812 C 161.378906 213.152344 162.800781 216.191406 164.539062 218.816406 C 171.851562 229.921875 184.152344 233.015625 194.046875 234.453125 C 196.101562 234.753906 198.710938 234.882812 201.191406 234.792969 C 201.230469 234.792969 201.253906 234.792969 201.28125 234.792969 C 203.777344 234.882812 206.371094 234.753906 208.425781 234.453125 C 218.320312 233 230.621094 229.921875 237.933594 218.816406 C 239.660156 216.191406 241.097656 213.152344 242.21875 209.757812 C 240.792969 210.589844 239.207031 211.4375 237.1875 212.445312 C 231.945312 215.058594 226.375 217.078125 220.640625 218.453125 C 219.972656 218.617188 219.292969 218.765625 218.609375 218.90625 C 215.6875 219.511719 212.648438 219.953125 209.574219 220.21875 C 206.839844 220.445312 204.027344 220.535156 201.207031 220.496094 C 198.433594 220.546875 195.621094 220.457031 192.886719 220.21875 C 189.8125 219.953125 186.761719 219.511719 183.851562 218.90625 C 183.167969 218.765625 182.5 218.617188 181.832031 218.453125 C 176.085938 217.078125 170.527344 215.058594 165.285156 212.445312 C 163.269531 211.4375 161.691406 210.589844 160.253906 209.757812 Z M 160.253906 209.757812 " fill-opacity="1" fill-rule="nonzero"/><path fill="#fffbfa" d="M 201.242188 227.574219 C 196.316406 227.613281 191.460938 227.109375 186.671875 226.238281 C 179.3125 224.898438 172.089844 222.667969 164.96875 220.117188 C 164.453125 219.929688 163.921875 219.75 163.40625 219.5625 C 161.085938 216.042969 159.234375 211.789062 157.9375 206.601562 C 157.949219 206.578125 158.640625 207.121094 158.71875 207.171875 C 159.261719 207.574219 159.828125 207.941406 160.40625 208.28125 C 162.183594 209.339844 164.023438 210.3125 165.890625 211.234375 C 171.058594 213.808594 176.550781 215.789062 182.160156 217.140625 C 182.816406 217.289062 183.484375 217.441406 184.140625 217.582031 C 187.011719 218.1875 189.976562 218.617188 193.011719 218.867188 C 195.699219 219.09375 198.445312 219.183594 201.242188 219.132812 C 204.042969 219.183594 206.789062 219.09375 209.472656 218.867188 C 212.511719 218.617188 215.484375 218.175781 218.347656 217.582031 C 219.015625 217.441406 219.667969 217.289062 220.324219 217.140625 C 225.933594 215.789062 231.429688 213.808594 236.582031 211.234375 C 238.4375 210.3125 240.289062 209.339844 242.066406 208.28125 C 242.644531 207.925781 243.214844 207.574219 243.753906 207.171875 C 243.820312 207.121094 244.523438 206.578125 244.535156 206.601562 C 243.238281 211.789062 241.386719 216.054688 239.066406 219.5625 C 238.550781 219.738281 238.019531 219.929688 237.503906 220.117188 C 230.382812 222.667969 223.160156 224.898438 215.800781 226.238281 C 211.023438 227.109375 206.171875 227.601562 201.242188 227.574219 Z M 201.242188 227.574219 " fill-opacity="1" fill-rule="evenodd"/><path fill="#000000" d="M 201.734375 228.925781 C 201.40625 228.925781 201.066406 228.925781 200.738281 228.925781 C 196.125 228.925781 191.4375 228.484375 186.421875 227.5625 C 179.941406 226.375 172.984375 224.421875 164.503906 221.378906 L 162.953125 220.835938 C 162.675781 220.734375 162.4375 220.546875 162.273438 220.308594 C 159.800781 216.558594 157.898438 212.054688 156.625 206.929688 C 156.449219 206.210938 156.878906 205.480469 157.597656 205.289062 C 158.265625 205.113281 158.628906 205.390625 159.425781 205.996094 C 159.976562 206.402344 160.484375 206.742188 161.101562 207.109375 C 162.613281 208.015625 164.277344 208.910156 166.480469 210.011719 C 171.546875 212.535156 176.917969 214.476562 182.464844 215.816406 C 183.105469 215.964844 183.761719 216.117188 184.40625 216.242188 C 187.214844 216.835938 190.152344 217.253906 193.113281 217.503906 C 195.746094 217.734375 198.46875 217.820312 201.207031 217.769531 C 203.976562 217.820312 206.699219 217.734375 209.347656 217.503906 C 212.320312 217.253906 215.246094 216.824219 218.054688 216.242188 C 218.710938 216.105469 219.355469 215.964844 220.011719 215.800781 C 225.554688 214.476562 230.925781 212.519531 235.992188 209.996094 C 238.210938 208.898438 239.859375 208.003906 241.375 207.09375 C 242.003906 206.714844 242.507812 206.386719 242.960938 206.046875 C 243.84375 205.367188 244.210938 205.089844 244.878906 205.265625 C 245.59375 205.453125 246.023438 206.1875 245.847656 206.90625 C 244.5625 212.027344 242.671875 216.535156 240.199219 220.28125 C 240.039062 220.535156 239.796875 220.710938 239.519531 220.8125 C 239.003906 220.988281 238.488281 221.175781 237.96875 221.355469 C 229.5 224.394531 222.542969 226.351562 216.050781 227.539062 C 211.035156 228.484375 206.347656 228.925781 201.734375 228.925781 Z M 201.242188 226.210938 C 201.433594 226.238281 201.570312 226.210938 201.746094 226.210938 C 206.195312 226.210938 210.722656 225.785156 215.574219 224.898438 C 221.902344 223.75 228.730469 221.820312 237.0625 218.832031 C 237.441406 218.691406 237.820312 218.566406 238.195312 218.425781 C 239.808594 215.890625 241.171875 212.976562 242.230469 209.746094 C 240.804688 210.578125 239.21875 211.421875 237.203125 212.433594 C 231.957031 215.042969 226.386719 217.0625 220.652344 218.4375 C 219.984375 218.601562 219.304688 218.753906 218.625 218.894531 C 215.699219 219.5 212.660156 219.941406 209.585938 220.207031 C 206.851562 220.433594 204.042969 220.519531 201.21875 220.484375 C 198.445312 220.535156 195.632812 220.445312 192.898438 220.207031 C 189.824219 219.941406 186.773438 219.5 183.863281 218.894531 C 183.183594 218.753906 182.515625 218.601562 181.847656 218.4375 C 176.097656 217.0625 170.539062 215.042969 165.296875 212.433594 C 163.28125 211.421875 161.691406 210.578125 160.269531 209.746094 C 161.328125 212.976562 162.6875 215.890625 164.300781 218.425781 L 165.4375 218.832031 C 173.765625 221.820312 180.585938 223.75 186.925781 224.898438 C 191.941406 225.820312 196.617188 226.25 201.242188 226.210938 C 201.230469 226.210938 201.242188 226.210938 201.242188 226.210938 Z M 201.242188 226.210938 " fill-opacity="1" fill-rule="nonzero"/><path fill="#000000" d="M 255.488281 213.46875 C 255.4375 213.46875 255.402344 213.46875 255.351562 213.453125 C 249.363281 212.847656 244.550781 209.78125 242.480469 205.238281 C 241.777344 203.699219 241.636719 202.335938 241.601562 201.101562 C 241.574219 200.355469 242.15625 199.726562 242.898438 199.699219 C 243.65625 199.6875 244.273438 200.253906 244.296875 201 C 244.335938 202.109375 244.460938 203.058594 244.941406 204.105469 C 246.617188 207.761719 250.597656 210.25 255.628906 210.753906 C 256.371094 210.828125 256.914062 211.5 256.839844 212.230469 C 256.761719 212.949219 256.171875 213.46875 255.488281 213.46875 Z M 146.996094 213.46875 C 146.316406 213.46875 145.722656 212.949219 145.648438 212.257812 C 145.574219 211.511719 146.113281 210.855469 146.859375 210.78125 C 151.875 210.273438 155.871094 207.789062 157.546875 204.128906 C 158.023438 203.082031 158.152344 202.136719 158.1875 201.023438 C 158.214844 200.28125 158.84375 199.699219 159.585938 199.726562 C 160.332031 199.75 160.910156 200.382812 160.886719 201.125 C 160.835938 202.363281 160.695312 203.726562 160.003906 205.265625 C 157.925781 209.808594 153.109375 212.875 147.136719 213.480469 C 147.085938 213.46875 147.035156 213.46875 146.996094 213.46875 Z M 146.996094 213.46875 " fill-opacity="1" fill-rule="nonzero"/></svg>