<svg xmlns="http://www.w3.org/2000/svg" xmlns:xlink="http://www.w3.org/1999/xlink" width="500" zoomAndPan="magnify" viewBox="0 0 375 374.999991" height="500" preserveAspectRatio="xMidYMid meet" version="1.0"><defs><clipPath id="28d03f938c"><path d="M 164.632812 150.28125 L 210.367188 150.28125 L 210.367188 224.78125 L 164.632812 224.78125 Z M 164.632812 150.28125 " clip-rule="nonzero"/></clipPath><clipPath id="c2e0e8354c"><path d="M 181.882812 150.28125 L 193.117188 150.28125 C 197.691406 150.28125 202.082031 152.097656 205.316406 155.332031 C 208.550781 158.566406 210.367188 162.957031 210.367188 167.53125 L 210.367188 207.46875 C 210.367188 212.042969 208.550781 216.433594 205.316406 219.667969 C 202.082031 222.902344 197.691406 224.71875 193.117188 224.71875 L 181.882812 224.71875 C 177.308594 224.71875 172.917969 222.902344 169.683594 219.667969 C 166.449219 216.433594 164.632812 212.042969 164.632812 207.46875 L 164.632812 167.53125 C 164.632812 162.957031 166.449219 158.566406 169.683594 155.332031 C 172.917969 152.097656 177.308594 150.28125 181.882812 150.28125 Z M 181.882812 150.28125 " clip-rule="nonzero"/></clipPath><clipPath id="0082b18f72"><path d="M 79 6.644531 L 275 6.644531 L 275 75 L 79 75 Z M 79 6.644531 " clip-rule="nonzero"/></clipPath></defs><g clip-path="url(#28d03f938c)"><g clip-path="url(#c2e0e8354c)"><path fill="#65a1b7" d="M 164.632812 150.28125 L 210.367188 150.28125 L 210.367188 224.78125 L 164.632812 224.78125 Z M 164.632812 150.28125 " fill-opacity="1" fill-rule="nonzero"/></g></g><path fill="#000000" d="M 152.414062 263.167969 C 152.289062 263.15625 152.589844 264.011719 152.613281 264.097656 C 152.777344 264.660156 152.925781 265.230469 153.0625 265.800781 C 153.460938 267.515625 153.832031 269.234375 154.230469 270.9375 C 154.988281 274.21875 155.710938 277.511719 156.359375 280.820312 C 156.644531 282.285156 156.742188 284.347656 157.503906 285.667969 C 158.558594 287.507812 162.652344 287.667969 164.378906 287.902344 C 170.386719 288.722656 176.546875 289.730469 182.628906 289.332031 C 186.011719 289.109375 189.394531 288.613281 192.542969 287.320312 C 193.4375 286.945312 194.792969 286.5625 195.277344 285.628906 C 195.839844 284.546875 195.515625 282.917969 195.425781 281.777344 C 195.253906 279.253906 195.003906 276.742188 194.742188 274.21875 C 194.445312 271.183594 194.144531 268.125 193.75 265.09375 C 193.511719 263.277344 193.277344 261.214844 191.96875 259.824219 C 189.34375 257.027344 184.121094 257.882812 180.738281 257.996094 C 174.207031 258.207031 167.726562 258.914062 161.296875 260.097656 C 158.558594 260.59375 155.164062 260.929688 152.625 262.195312 " fill-opacity="1" fill-rule="nonzero"/><path fill="#000000" d="M 179.792969 290.6875 C 175.203125 290.6875 170.625 290.054688 166.160156 289.433594 L 164.207031 289.160156 C 163.96875 289.121094 163.695312 289.097656 163.398438 289.058594 C 161.109375 288.8125 157.640625 288.425781 156.40625 286.289062 C 155.722656 285.105469 155.5 283.589844 155.3125 282.261719 C 155.25 281.835938 155.1875 281.425781 155.113281 281.054688 C 154.492188 277.898438 153.796875 274.675781 152.988281 271.210938 C 152.8125 270.453125 152.636719 269.707031 152.476562 268.945312 C 152.265625 267.988281 152.042969 267.019531 151.816406 266.0625 C 151.691406 265.503906 151.542969 264.957031 151.382812 264.421875 C 151.121094 263.640625 150.910156 262.992188 151.371094 262.394531 C 151.28125 261.863281 151.542969 261.316406 152.054688 261.054688 C 154.242188 259.960938 156.953125 259.523438 159.34375 259.125 C 159.941406 259.027344 160.511719 258.941406 161.058594 258.839844 C 167.578125 257.648438 174.183594 256.9375 180.6875 256.726562 C 181.199219 256.714844 181.746094 256.679688 182.328125 256.640625 C 185.863281 256.429688 190.265625 256.15625 192.890625 258.953125 C 194.445312 260.605469 194.742188 262.917969 194.980469 264.757812 L 195.003906 264.917969 C 195.367188 267.730469 195.652344 270.574219 195.925781 273.347656 L 196 274.082031 C 196.273438 276.765625 196.507812 279.203125 196.683594 281.675781 C 196.695312 281.886719 196.722656 282.109375 196.746094 282.335938 C 196.871094 283.515625 197.019531 284.984375 196.398438 286.199219 C 195.761719 287.417969 194.40625 287.941406 193.425781 288.3125 L 193.015625 288.476562 C 190.191406 289.632812 186.90625 290.304688 182.703125 290.578125 C 181.746094 290.664062 180.773438 290.6875 179.792969 290.6875 Z M 153.671875 263.253906 C 153.707031 263.390625 153.757812 263.539062 153.796875 263.625 C 153.796875 263.640625 153.832031 263.738281 153.832031 263.761719 C 153.996094 264.347656 154.15625 264.933594 154.292969 265.515625 C 154.515625 266.484375 154.742188 267.457031 154.953125 268.425781 C 155.113281 269.171875 155.289062 269.917969 155.460938 270.664062 C 156.269531 274.15625 156.980469 277.398438 157.601562 280.582031 C 157.675781 280.992188 157.75 281.441406 157.8125 281.914062 C 157.976562 283.03125 158.160156 284.285156 158.597656 285.058594 C 159.195312 286.089844 162.328125 286.425781 163.671875 286.574219 C 163.996094 286.609375 164.292969 286.648438 164.554688 286.671875 L 166.507812 286.945312 C 171.78125 287.679688 177.242188 288.4375 182.542969 288.089844 C 186.472656 287.828125 189.496094 287.21875 192.058594 286.164062 L 192.515625 285.976562 C 193.089844 285.753906 193.960938 285.429688 194.144531 285.058594 C 194.433594 284.523438 194.320312 283.464844 194.234375 282.621094 C 194.207031 282.359375 194.183594 282.109375 194.160156 281.875 C 193.984375 279.4375 193.75 277.027344 193.476562 274.355469 L 193.398438 273.621094 C 193.125 270.875 192.839844 268.039062 192.480469 265.28125 L 192.453125 265.117188 C 192.242188 263.476562 192.019531 261.773438 191.023438 260.707031 C 189.207031 258.765625 185.464844 259.003906 182.464844 259.1875 C 181.871094 259.226562 181.285156 259.261719 180.761719 259.277344 C 174.382812 259.488281 167.914062 260.183594 161.507812 261.351562 C 160.933594 261.453125 160.351562 261.550781 159.742188 261.648438 C 157.714844 261.972656 155.449219 262.347656 153.660156 263.117188 C 153.683594 263.15625 153.683594 263.203125 153.671875 263.253906 Z M 153.671875 263.253906 " fill-opacity="1" fill-rule="nonzero"/><path fill="#000000" d="M 276.914062 179.53125 C 276.914062 179.507812 280.332031 181.234375 280.621094 181.445312 C 282.621094 182.953125 284.339844 184.753906 285.96875 186.644531 C 291.21875 192.757812 294.539062 199.445312 295.871094 207.441406 C 298.65625 224.121094 292.5625 244.433594 276.09375 251.917969 C 272.695312 253.457031 268.703125 254.886719 264.921875 254.316406 C 252.484375 252.453125 267.136719 241.324219 269.3125 238.058594 C 270.78125 235.855469 271.441406 233.171875 271.714844 230.5625 C 273.429688 214.773438 267.546875 195.78125 275.308594 181.085938 " fill-opacity="1" fill-rule="nonzero"/><path fill="#000000" d="M 266.675781 255.707031 C 266.027344 255.707031 265.382812 255.660156 264.734375 255.570312 C 261.453125 255.074219 259.546875 253.929688 258.914062 252.054688 C 257.683594 248.398438 262.160156 243.8125 265.753906 240.121094 C 266.851562 239 267.871094 237.957031 268.269531 237.359375 C 269.425781 235.621094 270.144531 233.359375 270.46875 230.4375 C 271.066406 224.917969 270.730469 219.085938 270.371094 212.898438 C 269.722656 201.769531 269.050781 190.273438 274.214844 180.503906 C 274.539062 179.878906 275.308594 179.644531 275.917969 179.980469 C 276.179688 180.117188 276.367188 180.328125 276.476562 180.578125 L 276.9375 179.558594 L 276.925781 179.53125 L 276.214844 178.488281 C 277.421875 177.679688 281.355469 180.414062 281.390625 180.441406 C 283.195312 181.796875 284.910156 183.449219 286.9375 185.824219 C 292.460938 192.261719 295.792969 199.273438 297.125 207.226562 C 299.9375 224.097656 293.804688 245.253906 276.625 253.0625 C 273.816406 254.339844 270.285156 255.707031 266.675781 255.707031 Z M 276.527344 180.75 C 276.613281 181.050781 276.589844 181.386719 276.429688 181.683594 C 271.589844 190.832031 272.25 201.96875 272.871094 212.746094 C 273.21875 218.765625 273.59375 224.980469 272.96875 230.710938 C 272.609375 234.042969 271.75 236.675781 270.359375 238.765625 C 269.835938 239.546875 268.828125 240.582031 267.558594 241.886719 C 265.121094 244.394531 260.570312 249.046875 261.300781 251.246094 C 261.589844 252.101562 262.945312 252.75 265.109375 253.074219 C 268.691406 253.609375 272.585938 252.128906 275.570312 250.773438 C 291.578125 243.5 297.273438 223.574219 294.613281 207.652344 C 293.355469 200.15625 290.222656 193.554688 285 187.476562 C 283.082031 185.25 281.503906 183.695312 279.847656 182.464844 C 279.574219 182.28125 277.148438 181.050781 276.527344 180.75 Z M 277.722656 180.503906 Z M 277.722656 180.503906 " fill-opacity="1" fill-rule="nonzero"/><path fill="#ff431d" d="M 177.816406 264.945312 C 157.242188 272.988281 132.152344 265.09375 113.941406 252.511719 C 69.523438 221.835938 46.886719 138.363281 76.777344 92.21875 C 82.90625 82.757812 93.730469 74.753906 104.152344 70.019531 C 121.515625 62.125 167.476562 62.234375 175.9375 71.335938 C 176.148438 71.570312 176.359375 71.808594 176.570312 72.042969 C 176.957031 71.570312 177.355469 71.097656 177.777344 70.652344 C 186.234375 61.550781 232.195312 61.441406 249.558594 69.320312 C 259.984375 74.058594 270.816406 82.0625 276.949219 91.523438 C 306.839844 137.664062 284.203125 221.136719 239.785156 251.816406 C 222.132812 264.011719 198.015625 271.804688 177.816406 264.945312 Z M 177.816406 264.945312 " fill-opacity="1" fill-rule="nonzero"/><path fill="#000000" d="M 159.765625 269.457031 C 142.8125 269.457031 125.621094 262.109375 113.234375 253.546875 C 91.714844 238.691406 74.164062 210.609375 66.277344 178.464844 C 58.09375 145.113281 61.539062 113.425781 75.730469 91.535156 C 81.476562 82.671875 91.914062 74.207031 103.65625 68.875 C 120.820312 61.082031 166.644531 60.632812 176.558594 70.15625 C 176.671875 70.03125 176.769531 69.917969 176.882812 69.804688 C 186.046875 59.9375 232.742188 60.296875 250.121094 68.191406 C 261.835938 73.511719 272.273438 81.976562 278.007812 90.839844 C 292.199219 112.742188 295.644531 144.414062 287.460938 177.765625 C 279.574219 209.925781 262.011719 237.996094 240.503906 252.847656 C 224.324219 264.023438 199.421875 273.371094 177.839844 266.273438 C 172.003906 268.5 165.898438 269.457031 159.765625 269.457031 Z M 141.183594 65.628906 C 127.386719 65.628906 112.886719 67.445312 104.675781 71.175781 C 93.355469 76.320312 83.316406 84.4375 77.832031 92.914062 C 47.132812 140.289062 72.558594 222.40625 114.652344 251.480469 C 131.09375 262.84375 156.207031 272.042969 177.339844 263.777344 C 177.617188 263.664062 177.925781 263.664062 178.210938 263.761719 C 198.996094 270.824219 223.277344 261.699219 239.0625 250.796875 C 281.167969 221.722656 306.578125 139.605469 275.878906 92.230469 C 270.394531 83.753906 260.355469 75.636719 249.039062 70.488281 C 231.710938 62.621094 186.359375 63.292969 178.699219 71.523438 C 178.300781 71.957031 177.914062 72.390625 177.554688 72.851562 C 177.316406 73.148438 176.96875 73.3125 176.59375 73.324219 C 176.582031 73.324219 176.582031 73.324219 176.570312 73.324219 C 176.210938 73.324219 175.863281 73.164062 175.613281 72.890625 C 175.414062 72.664062 175.214844 72.441406 175.015625 72.21875 C 170.984375 67.867188 156.519531 65.628906 141.183594 65.628906 Z M 141.183594 65.628906 " fill-opacity="1" fill-rule="nonzero"/><path fill="#000000" d="M 176.855469 8.324219 C 176.957031 8.238281 177.054688 8.148438 177.15625 8.0625 C 177.15625 8.136719 178.859375 8.386719 178.933594 8.398438 C 183.238281 9.21875 187.515625 10.140625 191.796875 11.007812 C 192.789062 11.207031 193.835938 11.433594 194.832031 11.644531 C 213.527344 15.695312 231.984375 20.890625 250.492188 25.738281 C 256.015625 27.179688 266.402344 29.730469 273.378906 31.878906 C 273.554688 31.929688 262.523438 36.976562 260.804688 37.820312 C 250.394531 42.945312 239.324219 47.691406 230.304688 52.277344 L 229.347656 64.746094 C 225.976562 66.550781 212.292969 69.347656 207.742188 70.203125 C 199.035156 71.84375 193.078125 72.714844 187.042969 73.113281 C 186.136719 73.25 185.179688 73.324219 184.171875 73.335938 C 181.496094 73.386719 179.09375 73.410156 176.855469 73.410156 C 174.617188 73.410156 172.203125 73.386719 169.542969 73.335938 C 168.535156 73.324219 167.578125 73.238281 166.667969 73.113281 C 160.648438 72.714844 154.679688 71.84375 145.972656 70.203125 C 141.417969 69.347656 127.738281 66.550781 124.367188 64.746094 L 123.40625 52.277344 C 114.390625 47.691406 103.320312 42.945312 92.910156 37.820312 C 91.191406 36.976562 80.160156 31.941406 80.332031 31.878906 C 87.3125 29.730469 97.695312 27.195312 103.21875 25.738281 C 121.730469 20.890625 140.175781 15.695312 158.882812 11.644531 C 159.878906 11.433594 160.921875 11.207031 161.917969 11.007812 C 166.210938 10.140625 170.488281 9.207031 174.78125 8.398438 C 174.867188 8.386719 176.558594 8.136719 176.558594 8.0625 C 176.65625 8.136719 176.757812 8.238281 176.855469 8.324219 Z M 176.855469 8.324219 " fill-opacity="1" fill-rule="nonzero"/><g clip-path="url(#0082b18f72)"><path fill="#000000" d="M 177.007812 74.65625 C 176.917969 74.65625 176.820312 74.65625 176.730469 74.65625 C 174.519531 74.65625 172.15625 74.628906 169.53125 74.578125 C 168.484375 74.566406 167.464844 74.480469 166.496094 74.34375 C 160.648438 73.957031 154.804688 73.136719 145.746094 71.421875 C 145.015625 71.285156 127.875 68.027344 123.78125 65.839844 C 123.394531 65.640625 123.148438 65.257812 123.121094 64.820312 L 122.226562 53.074219 C 117.585938 50.738281 112.472656 48.375 107.074219 45.878906 C 102.238281 43.640625 97.222656 41.328125 92.375 38.941406 C 91.726562 38.628906 89.773438 37.710938 87.585938 36.703125 C 79.027344 32.738281 79.027344 32.738281 79.089844 31.792969 C 79.125 31.269531 79.472656 30.824219 79.984375 30.675781 C 85.34375 29.019531 92.535156 27.179688 98.320312 25.714844 C 100.046875 25.265625 101.628906 24.871094 102.921875 24.535156 C 107.199219 23.414062 111.464844 22.269531 115.734375 21.140625 C 129.738281 17.410156 144.21875 13.558594 158.621094 10.425781 C 159.617188 10.214844 160.675781 9.988281 161.667969 9.789062 L 165.4375 9.007812 C 168.472656 8.375 171.507812 7.753906 174.542969 7.167969 C 174.554688 7.167969 174.691406 7.144531 174.703125 7.144531 C 175.5625 7.007812 175.910156 6.945312 176.0625 6.917969 C 176.0625 6.917969 176.0625 6.917969 176.074219 6.917969 C 176.347656 6.808594 176.65625 6.796875 176.929688 6.871094 C 177.167969 6.832031 177.402344 6.84375 177.628906 6.945312 C 178.074219 7.128906 178.398438 7.527344 178.425781 8.011719 C 178.386719 7.367188 177.902344 6.980469 177.589844 6.90625 C 177.652344 6.917969 177.925781 6.980469 178.996094 7.15625 L 179.171875 7.179688 C 182.21875 7.765625 185.253906 8.386719 188.289062 9.019531 L 192.058594 9.804688 C 193.0625 10.015625 194.109375 10.226562 195.105469 10.4375 C 209.507812 13.558594 223.988281 17.410156 237.992188 21.152344 C 242.257812 22.296875 246.539062 23.425781 250.804688 24.546875 C 252.097656 24.882812 253.652344 25.28125 255.382812 25.726562 C 261.164062 27.207031 268.367188 29.046875 273.753906 30.699219 C 274.25 30.847656 274.613281 31.296875 274.648438 31.816406 C 274.710938 32.761719 274.710938 32.761719 266.152344 36.742188 C 263.976562 37.746094 262.011719 38.65625 261.378906 38.976562 C 256.527344 41.363281 251.511719 43.675781 246.675781 45.914062 C 241.277344 48.414062 236.164062 50.761719 231.523438 53.113281 L 230.628906 64.859375 C 230.589844 65.292969 230.34375 65.667969 229.96875 65.878906 C 225.878906 68.066406 208.722656 71.324219 208.003906 71.460938 C 198.949219 73.175781 193.101562 73.996094 187.15625 74.394531 C 186.285156 74.519531 185.265625 74.605469 184.21875 74.617188 C 181.582031 74.628906 179.207031 74.65625 177.007812 74.65625 Z M 176.855469 72.132812 C 179.109375 72.144531 181.496094 72.105469 184.15625 72.054688 C 185.101562 72.042969 186.011719 71.96875 186.871094 71.84375 C 192.804688 71.449219 198.5625 70.640625 207.519531 68.949219 C 214.097656 67.707031 224.582031 65.417969 228.152344 63.902344 L 229.050781 52.167969 C 229.085938 51.730469 229.347656 51.335938 229.734375 51.136719 C 234.570312 48.675781 239.933594 46.199219 245.605469 43.578125 C 250.429688 41.351562 255.429688 39.039062 260.257812 36.667969 C 260.90625 36.34375 262.882812 35.421875 265.097656 34.402344 C 266.5625 33.71875 268.417969 32.863281 269.933594 32.152344 C 265.058594 30.761719 259.238281 29.269531 254.773438 28.125 C 253.042969 27.679688 251.476562 27.28125 250.183594 26.945312 C 245.902344 25.828125 241.625 24.683594 237.359375 23.550781 C 223.378906 19.824219 208.921875 15.980469 194.582031 12.875 C 193.597656 12.664062 192.554688 12.4375 191.558594 12.238281 L 187.777344 11.457031 C 184.753906 10.835938 181.746094 10.199219 178.710938 9.628906 C 178.226562 9.554688 177.8125 9.492188 177.464844 9.417969 C 177.09375 9.628906 176.632812 9.628906 176.257812 9.417969 C 175.9375 9.480469 175.539062 9.542969 175.089844 9.605469 C 171.980469 10.1875 168.96875 10.808594 165.949219 11.445312 L 162.167969 12.226562 C 161.171875 12.425781 160.125 12.648438 159.144531 12.859375 C 144.789062 15.96875 130.335938 19.824219 116.367188 23.539062 C 112.089844 24.683594 107.820312 25.8125 103.542969 26.933594 C 102.238281 27.269531 100.671875 27.679688 98.929688 28.125 C 94.226562 29.332031 88.59375 30.761719 83.804688 32.140625 C 85.320312 32.851562 87.175781 33.707031 88.628906 34.390625 C 90.84375 35.410156 92.820312 36.332031 93.46875 36.652344 C 98.292969 39.027344 103.28125 41.339844 108.121094 43.566406 C 113.792969 46.1875 119.140625 48.648438 123.992188 51.125 C 124.390625 51.320312 124.640625 51.707031 124.675781 52.15625 L 125.570312 63.890625 C 129.140625 65.40625 139.628906 67.691406 146.207031 68.9375 C 155.152344 70.625 160.921875 71.433594 166.757812 71.832031 C 167.714844 71.96875 168.632812 72.042969 169.566406 72.054688 C 172.230469 72.105469 174.679688 72.144531 176.855469 72.132812 Z M 176.855469 72.132812 " fill-opacity="1" fill-rule="nonzero"/></g><path fill="#fff100" d="M 97.648438 102.175781 L 83.21875 102.175781 L 86.824219 63.042969 L 94.039062 63.042969 Z M 97.648438 102.175781 " fill-opacity="1" fill-rule="nonzero"/><path fill="#000000" d="M 97.648438 103.433594 L 83.21875 103.433594 C 82.859375 103.433594 82.523438 103.28125 82.285156 103.019531 C 82.050781 102.761719 81.925781 102.414062 81.960938 102.050781 L 85.570312 62.917969 C 85.632812 62.273438 86.179688 61.777344 86.824219 61.777344 L 94.039062 61.777344 C 94.6875 61.777344 95.234375 62.273438 95.296875 62.917969 L 98.902344 102.050781 C 98.941406 102.398438 98.816406 102.761719 98.582031 103.019531 C 98.34375 103.28125 98.007812 103.433594 97.648438 103.433594 Z M 84.613281 100.910156 L 96.265625 100.910156 L 92.894531 64.300781 L 87.984375 64.300781 Z M 84.613281 100.910156 " fill-opacity="1" fill-rule="nonzero"/><path fill="#ff431d" d="M 90.433594 56.839844 C 93.929688 56.839844 96.765625 59.675781 96.765625 63.167969 C 96.765625 66.660156 93.929688 69.496094 90.433594 69.496094 C 86.9375 69.496094 84.101562 66.660156 84.101562 63.167969 C 84.101562 59.675781 86.9375 56.839844 90.433594 56.839844 Z M 90.433594 56.839844 " fill-opacity="1" fill-rule="nonzero"/><path fill="#000000" d="M 90.433594 70.75 C 86.253906 70.75 82.84375 67.34375 82.84375 63.167969 C 82.84375 58.992188 86.253906 55.585938 90.433594 55.585938 C 94.613281 55.585938 98.019531 58.992188 98.019531 63.167969 C 98.019531 67.34375 94.625 70.75 90.433594 70.75 Z M 90.433594 58.109375 C 87.632812 58.109375 85.371094 60.382812 85.371094 63.167969 C 85.371094 65.953125 87.648438 68.226562 90.433594 68.226562 C 93.21875 68.226562 95.496094 65.953125 95.496094 63.167969 C 95.496094 60.382812 93.230469 58.109375 90.433594 58.109375 Z M 90.433594 58.109375 " fill-opacity="1" fill-rule="nonzero"/><path fill="#000000" d="M 90.234375 57.996094 C 89.539062 57.996094 88.964844 57.4375 88.964844 56.730469 L 88.964844 36.53125 C 88.964844 35.832031 89.523438 35.261719 90.234375 35.261719 C 90.929688 35.261719 91.503906 35.820312 91.503906 36.53125 L 91.503906 56.730469 C 91.492188 57.425781 90.929688 57.996094 90.234375 57.996094 Z M 90.234375 57.996094 " fill-opacity="1" fill-rule="nonzero"/><path fill="#2dcc7d" d="M 197.292969 279.835938 C 197.304688 279.910156 197.144531 279.835938 197.070312 279.847656 C 196.175781 279.910156 195.289062 280.058594 194.40625 280.160156 C 192.242188 280.382812 190.054688 280.496094 187.890625 280.644531 C 180.910156 281.140625 173.746094 281.316406 166.757812 280.90625 C 163.546875 280.71875 158.695312 279.449219 155.5625 280.382812 C 152.835938 281.191406 152.601562 290.378906 152.402344 292.765625 C 152.351562 293.3125 152.636719 295.933594 152.117188 296.292969 C 151.519531 296.691406 148.421875 294.804688 147.800781 294.605469 C 143.695312 293.3125 139.253906 292.875 134.976562 293.375 C 118.234375 295.3125 104.4375 306.101562 101.367188 323.019531 C 100.746094 326.4375 100.085938 330.617188 100.992188 334.058594 C 101.714844 336.78125 106.914062 337.902344 109.066406 338.660156 C 118.070312 341.816406 127.363281 343.480469 136.917969 343.519531 C 147.265625 343.554688 157.738281 342.015625 167.6875 339.191406 C 171.332031 338.160156 178.472656 334.554688 181.671875 334.195312 C 183.050781 334.046875 185.253906 335.378906 186.558594 335.761719 C 189.742188 336.683594 192.976562 337.367188 196.261719 337.800781 C 208.226562 339.378906 231.125 340.0625 254.0625 328.429688 C 256.054688 327.421875 260.144531 325.507812 261.363281 323.40625 C 264 318.882812 261.117188 311.199219 258.878906 307.210938 C 252.011719 294.964844 235.21875 288.351562 221.660156 289.582031 C 217.320312 289.980469 213.175781 291.097656 209.171875 292.800781 C 208.375 293.136719 205.367188 295.289062 204.519531 294.988281 C 203.476562 294.628906 202.753906 292.179688 202.441406 291.308594 C 201.175781 287.71875 199.296875 283.117188 197.292969 279.835938 Z M 197.292969 279.835938 " fill-opacity="1" fill-rule="nonzero"/><path fill="#000000" d="M 137.265625 344.773438 C 137.152344 344.773438 137.027344 344.773438 136.917969 344.773438 C 127.414062 344.738281 117.898438 343.085938 108.65625 339.839844 C 108.320312 339.726562 107.910156 339.589844 107.449219 339.453125 C 104.699219 338.609375 100.558594 337.339844 99.773438 334.371094 C 98.816406 330.742188 99.464844 326.488281 100.121094 322.785156 C 103.121094 306.25 116.742188 294.207031 134.828125 292.105469 C 139.253906 291.597656 143.871094 292.03125 148.171875 293.386719 C 148.445312 293.472656 148.796875 293.648438 149.441406 293.984375 C 149.839844 294.179688 150.574219 294.566406 151.160156 294.816406 C 151.171875 294.355469 151.144531 293.832031 151.132812 293.574219 C 151.121094 293.164062 151.109375 292.8125 151.132812 292.652344 C 151.160156 292.378906 151.183594 292.019531 151.207031 291.597656 C 151.554688 286.050781 152.191406 280.058594 155.1875 279.164062 C 157.640625 278.433594 160.824219 278.878906 163.632812 279.265625 C 164.792969 279.425781 165.886719 279.574219 166.820312 279.636719 C 173.148438 280.011719 180.203125 279.921875 187.789062 279.375 C 188.460938 279.328125 189.121094 279.289062 189.792969 279.238281 C 191.273438 279.140625 192.789062 279.054688 194.269531 278.890625 C 194.59375 278.855469 194.929688 278.816406 195.253906 278.765625 C 195.824219 278.691406 196.410156 278.617188 196.980469 278.582031 C 197.019531 278.582031 197.058594 278.582031 197.105469 278.582031 C 197.605469 278.507812 198.101562 278.730469 198.363281 279.175781 C 200.515625 282.695312 202.40625 287.46875 203.625 290.863281 L 203.75 291.222656 C 204.285156 292.789062 204.632812 293.4375 204.855469 293.683594 C 205.464844 293.484375 206.757812 292.714844 207.34375 292.355469 C 207.992188 291.96875 208.375 291.746094 208.675781 291.609375 C 212.941406 289.804688 217.269531 288.6875 221.535156 288.300781 C 234.558594 287.121094 252.433594 293.125 259.972656 306.5625 C 260.605469 307.695312 266.066406 317.800781 262.445312 324.015625 C 261.242188 326.089844 258.179688 327.746094 255.15625 329.261719 L 254.621094 329.535156 C 231.199219 341.417969 207.890625 340.597656 196.074219 339.042969 C 192.726562 338.597656 189.394531 337.902344 186.1875 336.96875 C 185.675781 336.820312 185.101562 336.570312 184.492188 336.308594 C 183.597656 335.925781 182.355469 335.390625 181.792969 335.453125 C 180.089844 335.636719 176.808594 336.992188 173.910156 338.1875 C 171.683594 339.105469 169.578125 339.964844 168.011719 340.410156 C 157.800781 343.308594 147.4375 344.773438 137.265625 344.773438 Z M 138.445312 294.429688 C 137.328125 294.429688 136.21875 294.492188 135.113281 294.617188 C 117.898438 296.617188 105.445312 307.582031 102.609375 323.246094 C 101.988281 326.6875 101.390625 330.617188 102.210938 333.75 C 102.636719 335.351562 106.242188 336.457031 108.183594 337.054688 C 108.679688 337.203125 109.117188 337.339844 109.488281 337.476562 C 118.46875 340.621094 127.699219 342.238281 136.917969 342.261719 C 146.929688 342.289062 157.214844 340.859375 167.339844 337.988281 C 168.773438 337.578125 170.8125 336.746094 172.964844 335.863281 C 176.160156 334.542969 179.46875 333.1875 181.519531 332.953125 C 182.777344 332.804688 184.234375 333.449219 185.515625 334.007812 C 186.046875 334.246094 186.546875 334.457031 186.90625 334.570312 C 190.003906 335.464844 193.199219 336.136719 196.421875 336.558594 C 207.941406 338.074219 230.667969 338.882812 253.492188 327.308594 L 254.039062 327.035156 C 255.890625 326.105469 259.351562 324.375 260.269531 322.785156 C 262.335938 319.253906 260.417969 312.554688 257.78125 307.832031 C 250.765625 295.3125 234 289.730469 221.785156 290.851562 C 217.78125 291.210938 213.699219 292.265625 209.667969 293.96875 C 209.519531 294.03125 209.035156 294.316406 208.664062 294.554688 C 206.546875 295.824219 205.191406 296.566406 204.109375 296.195312 C 202.714844 295.722656 201.996094 293.90625 201.375 292.082031 L 201.261719 291.746094 C 200.351562 289.222656 198.597656 284.648438 196.609375 281.179688 C 196.273438 281.214844 195.925781 281.265625 195.589844 281.304688 C 195.242188 281.351562 194.894531 281.402344 194.542969 281.441406 C 193.015625 281.601562 191.460938 281.699219 189.96875 281.800781 C 189.308594 281.835938 188.648438 281.886719 187.988281 281.9375 C 180.289062 282.484375 173.125 282.582031 166.683594 282.199219 C 165.660156 282.136719 164.515625 281.972656 163.296875 281.8125 C 160.734375 281.464844 157.839844 281.054688 155.921875 281.625 C 155.449219 281.761719 154.304688 283.03125 153.746094 291.792969 C 153.722656 292.242188 153.695312 292.617188 153.671875 292.902344 C 153.660156 293.027344 153.671875 293.25 153.683594 293.523438 C 153.746094 295.449219 153.734375 296.753906 152.824219 297.363281 C 151.84375 298.023438 150.523438 297.402344 148.296875 296.257812 C 147.910156 296.058594 147.589844 295.882812 147.414062 295.824219 C 144.515625 294.890625 141.46875 294.429688 138.445312 294.429688 Z M 138.445312 294.429688 " fill-opacity="1" fill-rule="nonzero"/><path fill="#000000" d="M 117.4375 312.019531 C 114.089844 312.019531 110.820312 310.800781 108.171875 307.160156 C 107.820312 306.6875 107.859375 306.039062 108.234375 305.59375 C 109.316406 304.324219 110.496094 303.132812 111.753906 302.023438 C 117.238281 297.191406 124.140625 293.945312 131.867188 292.554688 C 132.113281 292.402344 132.425781 292.355469 132.722656 292.402344 C 133.421875 292.292969 134.128906 292.191406 134.839844 292.105469 C 139.265625 291.597656 143.882812 292.042969 148.1875 293.386719 C 148.570312 293.511719 149.890625 294.019531 150.996094 294.46875 L 151.144531 292.640625 C 151.171875 292.367188 151.195312 292.007812 151.21875 291.582031 C 151.570312 286.039062 152.203125 280.046875 155.199219 279.152344 C 157.652344 278.417969 160.835938 278.867188 163.648438 279.253906 C 164.804688 279.414062 165.898438 279.5625 166.832031 279.625 L 167.019531 279.636719 C 167.378906 279.664062 167.703125 279.824219 167.925781 280.109375 C 168.148438 280.382812 168.25 280.742188 168.1875 281.105469 L 168.074219 281.777344 C 168.011719 282.160156 167.949219 282.507812 167.914062 282.796875 C 167.378906 287.617188 167.09375 292.664062 167.03125 298.679688 C 167.03125 298.980469 167.054688 299.402344 167.09375 299.886719 C 167.277344 302.296875 167.339844 304.226562 166.421875 305.332031 C 165.300781 306.675781 163.136719 305.917969 161.695312 305.417969 C 161.46875 305.34375 161.285156 305.269531 161.160156 305.246094 C 157.015625 304.152344 153.222656 303.640625 149.503906 303.679688 C 144.714844 303.726562 139.925781 304.546875 135.300781 306.128906 C 133.769531 306.648438 132.078125 307.40625 130.300781 308.203125 C 128.882812 308.835938 127.414062 309.484375 125.921875 310.066406 C 123.296875 311.101562 120.335938 312.019531 117.4375 312.019531 Z M 110.832031 306.464844 C 113.929688 310.066406 118.121094 310.417969 125.011719 307.71875 C 126.457031 307.160156 127.886719 306.511719 129.277344 305.890625 C 130.085938 305.53125 130.871094 305.183594 131.640625 304.859375 C 129.9375 302.25 126.144531 300.769531 124.453125 300.222656 C 123.320312 299.851562 122.375 299.613281 121.503906 299.476562 C 121.195312 299.425781 120.882812 299.378906 120.570312 299.378906 C 120.558594 299.378906 120.359375 299.402344 120.335938 299.414062 C 120.1875 299.425781 120.035156 299.425781 119.898438 299.390625 C 117.5625 300.683594 115.398438 302.199219 113.417969 303.941406 C 112.511719 304.722656 111.652344 305.566406 110.832031 306.464844 Z M 123.980469 297.425781 C 124.378906 297.539062 124.789062 297.664062 125.238281 297.8125 C 127.761719 298.632812 132.066406 300.484375 134.019531 303.902344 C 134.179688 303.839844 134.339844 303.789062 134.503906 303.726562 C 136.503906 303.042969 138.519531 302.496094 140.5625 302.085938 C 139.191406 299.339844 137.4375 297.339844 135.324219 296.109375 C 134.8125 295.808594 134.203125 295.609375 133.570312 295.398438 C 133.210938 295.277344 132.835938 295.152344 132.464844 295.015625 C 129.492188 295.535156 126.65625 296.34375 123.980469 297.425781 Z M 153.496094 301.304688 C 156.171875 301.539062 158.921875 302.039062 161.820312 302.796875 C 161.992188 302.847656 162.242188 302.933594 162.539062 303.03125 C 162.664062 303.082031 162.863281 303.144531 163.097656 303.21875 C 161.347656 301.21875 159.03125 299.550781 156.792969 298.730469 C 155.699219 298.320312 154.605469 298.035156 153.546875 297.859375 C 153.433594 297.847656 153.25 297.8125 153.011719 297.761719 C 152.664062 297.699219 151.855469 297.539062 151.644531 297.539062 C 151.605469 297.539062 151.582031 297.539062 151.542969 297.523438 C 152.253906 298.65625 152.8125 299.875 153.359375 301.007812 Z M 137.402344 294.453125 C 139.753906 296.058594 141.679688 298.46875 143.136719 301.652344 C 145.238281 301.339844 147.363281 301.179688 149.480469 301.15625 C 149.851562 301.15625 150.238281 301.15625 150.609375 301.15625 C 149.589844 299.054688 148.445312 297.015625 146.554688 295.898438 C 145.972656 295.550781 145.300781 295.3125 144.652344 295.113281 C 144.601562 295.101562 144.554688 295.078125 144.503906 295.050781 C 142.179688 294.566406 139.777344 294.367188 137.402344 294.453125 Z M 153.460938 295.289062 C 153.472656 295.289062 153.484375 295.289062 153.484375 295.289062 C 153.683594 295.324219 153.859375 295.363281 153.945312 295.375 C 155.164062 295.574219 156.40625 295.910156 157.664062 296.371094 C 160.175781 297.300781 162.675781 299.03125 164.65625 301.179688 C 164.628906 300.746094 164.605469 300.347656 164.578125 300.085938 C 164.542969 299.515625 164.503906 299.015625 164.503906 298.667969 C 164.566406 292.578125 164.851562 287.445312 165.402344 282.535156 C 165.414062 282.382812 165.4375 282.234375 165.460938 282.074219 C 164.777344 282 164.042969 281.898438 163.285156 281.789062 C 160.722656 281.441406 157.824219 281.03125 155.910156 281.601562 C 155.4375 281.738281 154.292969 283.007812 153.734375 291.769531 C 153.707031 292.21875 153.683594 292.589844 153.660156 292.875 Z M 240.578125 307.570312 C 238.675781 307.570312 236.75 306.648438 235.105469 305.855469 C 234.621094 305.617188 234.148438 305.394531 233.714844 305.21875 L 233.390625 305.082031 C 229.507812 303.503906 225.429688 302.621094 221.261719 302.460938 C 215.652344 302.238281 209.457031 303.019531 202.378906 304.859375 C 202.070312 304.945312 201.472656 305.144531 200.738281 305.394531 C 196.25 306.921875 194.046875 307.507812 192.914062 306.960938 C 188.886719 304.996094 186.808594 290.988281 186.71875 290.390625 C 185.988281 285.367188 185.402344 280.894531 185.402344 280.894531 C 185.351562 280.546875 185.453125 280.195312 185.675781 279.9375 C 185.898438 279.664062 186.222656 279.5 186.558594 279.476562 C 187.207031 279.425781 187.953125 279.375 188.746094 279.328125 C 190.625 279.203125 192.765625 279.066406 194.269531 278.902344 C 194.59375 278.867188 194.929688 278.828125 195.253906 278.78125 C 195.824219 278.707031 196.410156 278.628906 196.980469 278.59375 C 197.019531 278.59375 197.058594 278.59375 197.105469 278.59375 C 197.605469 278.519531 198.101562 278.742188 198.363281 279.191406 C 200.515625 282.707031 202.40625 287.480469 203.625 290.875 L 203.75 291.234375 C 204.234375 292.652344 204.570312 293.324219 204.792969 293.621094 C 205.078125 293.4375 205.402344 293.285156 205.765625 293.285156 C 206.335938 292.976562 206.984375 292.589844 207.34375 292.378906 C 207.992188 291.992188 208.375 291.769531 208.675781 291.632812 C 212.941406 289.832031 217.269531 288.710938 221.535156 288.328125 C 229.484375 287.605469 238.339844 289.46875 245.839844 293.4375 C 246.847656 293.96875 247.832031 294.542969 248.765625 295.136719 C 249.175781 295.398438 249.398438 295.871094 249.335938 296.34375 C 248.738281 301.390625 246.464844 305.183594 242.929688 307.023438 C 242.171875 307.40625 241.375 307.570312 240.578125 307.570312 Z M 228.265625 300.84375 C 230.332031 301.304688 232.359375 301.9375 234.335938 302.746094 L 234.683594 302.894531 C 235.15625 303.09375 235.667969 303.332031 236.1875 303.589844 C 238.105469 304.511719 240.269531 305.554688 241.761719 304.773438 C 245.132812 303.019531 246.3125 299.316406 246.722656 296.816406 C 246.054688 296.40625 245.367188 296.019531 244.671875 295.648438 C 241.984375 294.230469 239.113281 293.085938 236.175781 292.265625 C 236.066406 292.304688 235.941406 292.34375 235.816406 292.34375 C 235.40625 292.390625 234.359375 293.3125 233.976562 293.648438 C 233.800781 293.796875 233.652344 293.933594 233.515625 294.042969 C 230.964844 296.144531 229.25 298.371094 228.265625 300.84375 Z M 188.089844 281.898438 C 188.3125 283.589844 188.734375 286.6875 189.21875 290.03125 C 189.929688 294.941406 191.757812 302 193.414062 304.136719 C 195.304688 301.179688 198.089844 298.382812 201.90625 295.609375 C 202.15625 295.4375 202.429688 295.238281 202.730469 295.027344 C 202.15625 294.230469 201.746094 293.136719 201.375 292.042969 L 201.261719 291.707031 C 200.351562 289.183594 198.597656 284.609375 196.609375 281.140625 C 196.273438 281.179688 195.925781 281.230469 195.589844 281.265625 C 195.242188 281.316406 194.894531 281.367188 194.542969 281.402344 C 192.988281 281.5625 190.824219 281.714844 188.921875 281.835938 C 188.625 281.863281 188.351562 281.875 188.089844 281.898438 Z M 205.726562 296.058594 C 205.6875 296.082031 205.664062 296.109375 205.640625 296.121094 C 204.792969 296.65625 203.996094 297.214844 203.386719 297.664062 C 200.453125 299.789062 198.175781 301.914062 196.507812 304.113281 C 197.789062 303.742188 199.171875 303.269531 199.917969 303.019531 C 200.738281 302.746094 201.398438 302.523438 201.734375 302.433594 C 203.203125 302.050781 204.632812 301.714844 206.039062 301.417969 C 206.882812 298.519531 208.214844 295.984375 210.003906 293.820312 C 209.894531 293.871094 209.78125 293.90625 209.683594 293.957031 C 209.53125 294.019531 209.046875 294.304688 208.675781 294.542969 C 207.480469 295.238281 206.523438 295.785156 205.726562 296.058594 Z M 215.851562 291.84375 C 215.789062 291.917969 215.714844 291.980469 215.640625 292.03125 C 212.429688 294.257812 210.21875 297.152344 208.875 300.855469 C 211.5 300.398438 214.011719 300.109375 216.410156 299.972656 C 216.746094 296.878906 218.117188 293.621094 220.117188 291.136719 L 220.242188 290.988281 C 218.789062 291.1875 217.320312 291.472656 215.851562 291.84375 Z M 219.320312 299.898438 C 220.007812 299.898438 220.691406 299.910156 221.363281 299.9375 C 222.84375 300 224.296875 300.136719 225.753906 300.371094 C 226.847656 297.3125 228.875 294.589844 231.910156 292.09375 C 232.023438 291.992188 232.160156 291.882812 232.308594 291.746094 C 232.421875 291.644531 232.542969 291.535156 232.667969 291.421875 C 229.832031 290.875 226.972656 290.625 224.210938 290.675781 C 224.148438 290.714844 224.085938 290.75 224.011719 290.777344 C 223.453125 290.988281 222.742188 291.882812 222.269531 292.476562 L 222.070312 292.726562 C 220.429688 294.753906 219.296875 297.375 218.949219 299.898438 C 219.085938 299.898438 219.199219 299.898438 219.320312 299.898438 Z M 219.320312 299.898438 " fill-opacity="1" fill-rule="nonzero"/><path fill="#fffbfa" d="M 112.585938 302.96875 C 116.941406 303.816406 120.84375 305.605469 124.488281 308.167969 C 124.824219 308.402344 125.148438 308.636719 125.472656 308.886719 C 132.984375 314.628906 137.738281 323.753906 138.320312 333.175781 C 138.382812 334.257812 138.410156 335.390625 138.359375 336.519531 C 138.234375 338.96875 137.75 341.429688 136.554688 343.507812 C 127.140625 343.433594 117.960938 341.765625 109.078125 338.644531 C 106.914062 337.886719 101.714844 336.769531 101.007812 334.046875 C 100.433594 331.871094 100.484375 329.398438 100.757812 327.011719 C 100.917969 325.617188 101.15625 324.265625 101.378906 323.007812 C 102.546875 316.519531 105.308594 310.9375 109.203125 306.414062 C 110.234375 305.183594 111.367188 304.039062 112.585938 302.96875 Z M 112.585938 302.96875 " fill-opacity="1" fill-rule="nonzero"/><path fill="#000000" d="M 136.542969 344.773438 C 127.152344 344.699219 117.773438 343.046875 108.644531 339.851562 C 108.308594 339.738281 107.898438 339.601562 107.4375 339.464844 C 104.6875 338.621094 100.546875 337.351562 99.761719 334.382812 C 99.226562 332.355469 99.140625 329.90625 99.488281 326.886719 C 99.648438 325.480469 99.886719 324.089844 100.121094 322.796875 C 101.304688 316.269531 104.027344 310.476562 108.234375 305.59375 C 109.316406 304.324219 110.496094 303.132812 111.753906 302.023438 C 112.050781 301.765625 112.4375 301.652344 112.824219 301.726562 C 117.1875 302.574219 121.242188 304.335938 125.210938 307.132812 C 125.558594 307.371094 125.894531 307.632812 126.230469 307.878906 C 133.96875 313.796875 138.957031 323.21875 139.578125 333.101562 C 139.652344 334.359375 139.664062 335.488281 139.617188 336.59375 C 139.464844 339.589844 138.808594 342.125 137.648438 344.140625 C 137.414062 344.539062 137.003906 344.773438 136.542969 344.773438 Z M 112.945312 304.335938 C 111.953125 305.246094 111.019531 306.214844 110.136719 307.234375 C 106.230469 311.769531 103.703125 317.164062 102.597656 323.230469 C 102.386719 324.402344 102.148438 325.753906 101.988281 327.160156 C 101.675781 329.859375 101.753906 332.007812 102.199219 333.734375 C 102.621094 335.339844 106.230469 336.445312 108.171875 337.042969 C 108.667969 337.191406 109.101562 337.328125 109.476562 337.464844 C 118.085938 340.484375 126.941406 342.089844 135.785156 342.238281 C 136.53125 340.671875 136.964844 338.734375 137.078125 336.472656 C 137.128906 335.464844 137.117188 334.417969 137.039062 333.265625 C 136.46875 324.101562 131.855469 315.375 124.6875 309.894531 C 124.378906 309.65625 124.066406 309.433594 123.757812 309.210938 C 120.273438 306.75 116.726562 305.15625 112.945312 304.335938 Z M 112.945312 304.335938 " fill-opacity="1" fill-rule="nonzero"/><path fill="#fffbfa" d="M 245.269531 294.53125 C 246.238281 295.039062 247.183594 295.585938 248.105469 296.171875 C 252.59375 299.03125 256.402344 302.734375 258.890625 307.183594 C 260.046875 309.234375 261.363281 312.269531 262.011719 315.351562 C 262.621094 318.246094 262.644531 321.195312 261.363281 323.394531 C 260.144531 325.496094 256.054688 327.410156 254.0625 328.414062 C 247.285156 331.859375 240.519531 334.222656 234.039062 335.800781 C 233.925781 335.75 233.824219 335.699219 233.714844 335.652344 C 230.914062 334.359375 229.148438 332.292969 228.128906 329.84375 C 226.125 325.035156 227.023438 318.746094 228.640625 313.847656 C 229.832031 310.253906 231.5625 306.910156 233.851562 303.925781 C 234.222656 303.441406 234.609375 302.96875 235.007812 302.511719 C 237.855469 299.226562 241.402344 296.519531 245.269531 294.53125 Z M 245.269531 294.53125 " fill-opacity="1" fill-rule="nonzero"/><path fill="#000000" d="M 234.035156 337.054688 C 233.863281 337.054688 233.703125 337.019531 233.539062 336.957031 L 233.191406 336.792969 C 230.292969 335.453125 228.203125 333.277344 226.972656 330.332031 C 224.398438 324.152344 226.449219 316.457031 227.457031 313.449219 C 228.714844 309.644531 230.542969 306.175781 232.867188 303.15625 C 233.253906 302.660156 233.652344 302.160156 234.0625 301.691406 C 236.933594 298.371094 240.617188 295.511719 244.695312 293.421875 C 245.070312 293.238281 245.492188 293.238281 245.867188 293.421875 C 246.875 293.957031 247.855469 294.53125 248.789062 295.125 C 253.652344 298.222656 257.535156 302.1875 259.996094 306.585938 C 260.707031 307.84375 262.421875 311.1875 263.253906 315.101562 C 264.039062 318.792969 263.777344 321.800781 262.472656 324.039062 C 261.265625 326.117188 258.207031 327.769531 255.183594 329.285156 L 254.648438 329.558594 C 248.28125 332.792969 241.449219 335.316406 234.347656 337.042969 C 234.234375 337.042969 234.136719 337.054688 234.035156 337.054688 Z M 245.257812 295.960938 C 241.699219 297.875 238.488281 300.410156 235.964844 303.332031 C 235.578125 303.777344 235.21875 304.226562 234.859375 304.683594 C 232.695312 307.496094 231.015625 310.703125 229.832031 314.230469 C 228.925781 316.980469 227.046875 323.953125 229.285156 329.359375 C 230.242188 331.671875 231.886719 333.386719 234.136719 334.46875 C 240.902344 332.792969 247.410156 330.367188 253.480469 327.285156 L 254.027344 327.011719 C 255.878906 326.078125 259.335938 324.351562 260.257812 322.761719 C 261.226562 321.09375 261.402344 318.632812 260.753906 315.613281 C 260.234375 313.125 259.113281 310.203125 257.757812 307.804688 C 255.492188 303.765625 251.910156 300.109375 247.394531 297.238281 C 246.722656 296.792969 246.003906 296.371094 245.257812 295.960938 Z M 245.257812 295.960938 " fill-opacity="1" fill-rule="nonzero"/><path fill="#fffbfa" d="M 136.542969 343.519531 C 127.128906 343.445312 117.949219 341.777344 109.066406 338.660156 C 106.902344 337.902344 101.703125 336.78125 100.992188 334.058594 C 100.421875 331.882812 100.472656 329.410156 100.746094 327.023438 C 104.6875 328.875 107.722656 330.566406 111.34375 331.835938 C 119.925781 334.828125 129.242188 336.707031 138.359375 336.53125 C 138.570312 336.53125 138.78125 336.519531 138.992188 336.519531 C 148.285156 336.234375 157.863281 334.46875 166.742188 331.710938 C 170.921875 330.40625 175.898438 326.949219 180.265625 326.726562 C 182.902344 326.589844 185.972656 328.265625 188.488281 328.902344 C 192.667969 329.980469 196.996094 330.691406 201.285156 331.164062 C 210.328125 332.144531 219.371094 331.683594 228.140625 329.84375 C 235.542969 328.292969 242.757812 325.753906 249.597656 322.300781 C 252.074219 321.042969 258.28125 318.109375 262.023438 315.351562 C 262.632812 318.246094 262.660156 321.195312 261.378906 323.394531 C 260.15625 325.496094 256.066406 327.410156 254.074219 328.414062 C 247.296875 331.859375 240.53125 334.222656 234.050781 335.800781 C 218.5625 339.578125 204.707031 338.90625 196.273438 337.789062 C 192.988281 337.351562 189.753906 336.683594 186.570312 335.75 C 185.265625 335.375 183.0625 334.035156 181.683594 334.183594 C 178.484375 334.542969 171.347656 338.148438 167.703125 339.179688 C 157.75 342.003906 147.277344 343.53125 136.929688 343.507812 C 136.792969 343.519531 136.667969 343.519531 136.542969 343.519531 Z M 136.542969 343.519531 " fill-opacity="1" fill-rule="nonzero"/><path fill="#000000" d="M 137.265625 344.773438 C 137.140625 344.773438 137.027344 344.773438 136.917969 344.773438 L 136.542969 344.773438 C 127.164062 344.699219 117.785156 343.046875 108.65625 339.851562 C 108.320312 339.738281 107.910156 339.601562 107.449219 339.464844 C 104.699219 338.621094 100.558594 337.351562 99.773438 334.382812 C 99.238281 332.355469 99.152344 329.90625 99.5 326.886719 C 99.550781 326.476562 99.785156 326.128906 100.136719 325.929688 C 100.484375 325.730469 100.917969 325.71875 101.292969 325.890625 C 102.449219 326.4375 103.53125 326.960938 104.574219 327.484375 C 107.101562 328.726562 109.277344 329.796875 111.765625 330.652344 C 120.894531 333.847656 130.050781 335.4375 138.335938 335.277344 C 138.535156 335.277344 138.746094 335.265625 138.945312 335.265625 C 147.75 335.003906 157.226562 333.351562 166.359375 330.503906 C 167.851562 330.042969 169.46875 329.273438 171.183594 328.464844 C 174.15625 327.0625 177.230469 325.617188 180.203125 325.46875 C 182.21875 325.371094 184.28125 326.117188 186.273438 326.847656 C 187.179688 327.183594 188.027344 327.496094 188.796875 327.695312 C 192.605469 328.675781 196.84375 329.421875 201.410156 329.917969 C 210.265625 330.890625 219.171875 330.453125 227.878906 328.628906 C 235.179688 327.097656 242.296875 324.585938 249.027344 321.179688 L 250.292969 320.546875 C 253.230469 319.09375 258.144531 316.644531 261.277344 314.34375 C 261.625 314.09375 262.074219 314.035156 262.472656 314.183594 C 262.871094 314.332031 263.167969 314.679688 263.253906 315.101562 C 264.039062 318.792969 263.777344 321.800781 262.472656 324.039062 C 261.265625 326.117188 258.207031 327.769531 255.183594 329.285156 L 254.648438 329.558594 C 248.28125 332.792969 241.449219 335.316406 234.347656 337.042969 C 218.824219 340.820312 204.980469 340.226562 196.113281 339.054688 C 192.765625 338.609375 189.433594 337.914062 186.222656 336.980469 C 185.714844 336.832031 185.140625 336.582031 184.53125 336.320312 C 183.636719 335.9375 182.390625 335.402344 181.832031 335.464844 C 180.128906 335.652344 176.84375 337.003906 173.945312 338.199219 C 171.71875 339.117188 169.617188 339.976562 168.050781 340.421875 C 157.800781 343.308594 147.4375 344.773438 137.265625 344.773438 Z M 101.851562 328.949219 C 101.753906 330.839844 101.863281 332.417969 102.210938 333.734375 C 102.636719 335.339844 106.242188 336.445312 108.183594 337.042969 C 108.679688 337.191406 109.117188 337.328125 109.488281 337.464844 C 118.34375 340.574219 127.460938 342.175781 136.554688 342.25 L 136.542969 343.519531 L 136.667969 342.261719 L 136.929688 342.261719 C 137.039062 342.261719 137.152344 342.261719 137.265625 342.261719 C 147.191406 342.261719 157.316406 340.820312 167.328125 337.988281 C 168.757812 337.578125 170.800781 336.746094 172.949219 335.863281 C 176.148438 334.542969 179.457031 333.1875 181.507812 332.953125 C 182.765625 332.804688 184.21875 333.449219 185.5 334.007812 C 186.035156 334.246094 186.535156 334.457031 186.894531 334.570312 C 189.992188 335.464844 193.1875 336.136719 196.410156 336.558594 C 205.066406 337.703125 218.574219 338.285156 233.726562 334.59375 C 240.640625 332.902344 247.285156 330.453125 253.492188 327.308594 L 254.039062 327.035156 C 255.890625 326.105469 259.351562 324.375 260.269531 322.785156 C 261.027344 321.492188 261.300781 319.703125 261.078125 317.550781 C 257.917969 319.589844 253.9375 321.566406 251.402344 322.835938 L 250.15625 323.457031 C 243.242188 326.960938 235.914062 329.535156 228.390625 331.113281 C 219.421875 332.992188 210.253906 333.449219 201.136719 332.441406 C 196.460938 331.933594 192.09375 331.164062 188.164062 330.15625 C 187.269531 329.917969 186.359375 329.597656 185.402344 329.25 C 183.648438 328.601562 181.832031 327.945312 180.328125 328.019531 C 177.851562 328.140625 175.003906 329.484375 172.253906 330.777344 C 170.464844 331.621094 168.757812 332.417969 167.105469 332.941406 C 157.75 335.847656 148.035156 337.539062 139.019531 337.8125 C 138.808594 337.824219 138.582031 337.824219 138.359375 337.824219 C 129.824219 337.988281 120.324219 336.347656 110.90625 333.050781 C 108.28125 332.132812 105.929688 330.976562 103.429688 329.757812 C 102.933594 329.472656 102.398438 329.210938 101.851562 328.949219 Z M 101.851562 328.949219 " fill-opacity="1" fill-rule="nonzero"/><path fill="#000000" d="M 181.484375 335.476562 C 180.847656 335.476562 180.300781 334.992188 180.226562 334.34375 C 179.292969 325.53125 178.808594 318.160156 178.300781 310.367188 C 178.027344 306.277344 177.753906 302.050781 177.390625 297.414062 C 177.328125 296.542969 177.242188 295.324219 177.144531 293.933594 C 176.855469 289.769531 176.457031 284.050781 176.085938 281.265625 C 176 280.570312 176.484375 279.9375 177.167969 279.847656 C 177.851562 279.75 178.5 280.246094 178.585938 280.929688 C 178.957031 283.789062 179.355469 289.542969 179.65625 293.746094 C 179.753906 295.125 179.84375 296.332031 179.902344 297.203125 C 180.265625 301.851562 180.539062 306.089844 180.8125 310.179688 C 181.320312 317.949219 181.808594 325.296875 182.726562 334.058594 C 182.800781 334.753906 182.292969 335.378906 181.609375 335.453125 C 181.570312 335.476562 181.519531 335.476562 181.484375 335.476562 Z M 181.484375 335.476562 " fill-opacity="1" fill-rule="nonzero"/><path fill="#fffbfa" d="M 148.621094 118.984375 C 157.117188 118.984375 164.019531 133.988281 164.019531 152.457031 C 164.019531 170.929688 157.117188 185.933594 148.621094 185.933594 C 140.125 185.933594 133.222656 170.929688 133.222656 152.457031 C 133.222656 133.972656 140.125 118.984375 148.621094 118.984375 Z M 148.621094 118.984375 " fill-opacity="1" fill-rule="nonzero"/><path fill="#000000" d="M 148.621094 187.191406 C 139.28125 187.191406 131.964844 171.9375 131.964844 152.457031 C 131.964844 132.980469 139.28125 117.726562 148.621094 117.726562 C 157.960938 117.726562 165.277344 132.980469 165.277344 152.457031 C 165.277344 171.925781 157.960938 187.191406 148.621094 187.191406 Z M 148.621094 120.238281 C 140.957031 120.238281 134.492188 134.992188 134.492188 152.445312 C 134.492188 169.910156 140.957031 184.652344 148.621094 184.652344 C 156.28125 184.652344 162.75 169.898438 162.75 152.445312 C 162.75 134.992188 156.28125 120.238281 148.621094 120.238281 Z M 148.621094 120.238281 " fill-opacity="1" fill-rule="nonzero"/><path fill="#fffbfa" d="M 205.527344 118.984375 C 214.023438 118.984375 220.925781 133.988281 220.925781 152.457031 C 220.925781 170.929688 214.023438 185.933594 205.527344 185.933594 C 197.03125 185.933594 190.128906 170.929688 190.128906 152.457031 C 190.128906 133.972656 197.019531 118.984375 205.527344 118.984375 Z M 205.527344 118.984375 " fill-opacity="1" fill-rule="nonzero"/><path fill="#000000" d="M 205.527344 187.191406 C 196.1875 187.191406 188.859375 171.9375 188.859375 152.457031 C 188.859375 132.980469 196.175781 117.726562 205.527344 117.726562 C 214.871094 117.726562 222.183594 132.980469 222.183594 152.457031 C 222.183594 171.925781 214.871094 187.191406 205.527344 187.191406 Z M 205.527344 120.238281 C 197.867188 120.238281 191.398438 134.992188 191.398438 152.445312 C 191.398438 169.910156 197.867188 184.652344 205.527344 184.652344 C 213.191406 184.652344 219.65625 169.898438 219.65625 152.445312 C 219.65625 134.992188 213.191406 120.238281 205.527344 120.238281 Z M 205.527344 120.238281 " fill-opacity="1" fill-rule="nonzero"/><path fill="#000000" d="M 156.679688 163.558594 C 156.679688 163.78125 156.679688 164.019531 156.679688 164.253906 C 156.679688 176.125 153.0625 185.773438 148.609375 185.773438 C 144.15625 185.773438 140.546875 176.125 140.546875 164.253906 C 140.546875 152.382812 144.167969 142.738281 148.609375 142.738281 C 151.554688 142.738281 154.132812 146.953125 155.535156 153.242188 L 148.609375 158.015625 Z M 156.679688 163.558594 " fill-opacity="1" fill-rule="nonzero"/><path fill="#000000" d="M 148.621094 187.027344 C 142.5625 187.027344 139.292969 175.292969 139.292969 164.253906 C 139.292969 153.21875 142.5625 141.480469 148.621094 141.480469 C 152.179688 141.480469 155.152344 145.671875 156.78125 152.96875 C 156.894531 153.464844 156.695312 153.988281 156.269531 154.285156 L 150.847656 158.015625 L 157.402344 162.527344 C 157.738281 162.761719 157.9375 163.136719 157.949219 163.546875 L 157.949219 164.253906 C 157.949219 175.292969 154.679688 187.027344 148.621094 187.027344 Z M 148.621094 144.003906 C 145.410156 144.003906 141.816406 152.667969 141.816406 164.253906 C 141.816406 175.839844 145.410156 184.503906 148.621094 184.503906 C 151.832031 184.503906 155.425781 175.839844 155.425781 164.253906 L 155.425781 164.230469 L 147.898438 159.046875 C 147.5625 158.8125 147.351562 158.425781 147.351562 158.003906 C 147.351562 157.578125 147.550781 157.195312 147.898438 156.957031 L 154.117188 152.683594 C 152.636719 146.703125 150.3125 144.003906 148.621094 144.003906 Z M 148.621094 144.003906 " fill-opacity="1" fill-rule="nonzero"/><path fill="#000000" d="M 213.589844 163.558594 C 213.589844 163.78125 213.589844 164.019531 213.589844 164.253906 C 213.589844 176.125 209.96875 185.773438 205.527344 185.773438 C 201.074219 185.773438 197.46875 176.125 197.46875 164.253906 C 197.46875 152.382812 201.085938 142.738281 205.527344 142.738281 C 208.476562 142.738281 211.050781 146.953125 212.457031 153.242188 L 205.527344 158.015625 Z M 213.589844 163.558594 " fill-opacity="1" fill-rule="nonzero"/><path fill="#000000" d="M 205.527344 187.027344 C 199.46875 187.027344 196.199219 175.292969 196.199219 164.253906 C 196.199219 153.21875 199.46875 141.480469 205.527344 141.480469 C 209.085938 141.480469 212.058594 145.671875 213.6875 152.96875 C 213.800781 153.464844 213.601562 153.988281 213.175781 154.285156 L 207.753906 158.015625 L 214.308594 162.527344 C 214.644531 162.761719 214.855469 163.136719 214.855469 163.558594 L 214.855469 164.269531 C 214.84375 175.292969 211.585938 187.027344 205.527344 187.027344 Z M 205.527344 144.003906 C 202.320312 144.003906 198.722656 152.667969 198.722656 164.253906 C 198.722656 175.839844 202.320312 184.503906 205.527344 184.503906 C 208.738281 184.503906 212.332031 175.839844 212.332031 164.253906 L 212.332031 164.230469 L 204.820312 159.046875 C 204.484375 158.8125 204.269531 158.425781 204.269531 158.003906 C 204.269531 157.578125 204.46875 157.195312 204.820312 156.957031 L 211.039062 152.683594 C 209.53125 146.703125 207.21875 144.003906 205.527344 144.003906 Z M 205.527344 144.003906 " fill-opacity="1" fill-rule="nonzero"/><path fill="#000000" d="M 160.066406 113.066406 C 159.566406 113.066406 159.082031 112.765625 158.894531 112.269531 C 156.445312 106.078125 149.851562 101.269531 143.074219 103.941406 C 140.835938 104.824219 138.59375 106.476562 136.429688 108.851562 C 135.535156 109.847656 134.902344 110.640625 134.402344 111.4375 C 134.378906 111.5 133.992188 112.207031 133.957031 112.292969 L 132.835938 111.722656 L 131.730469 112.34375 C 131.34375 111.671875 131.65625 111.113281 132.265625 110.09375 C 132.847656 109.164062 133.582031 108.230469 134.578125 107.136719 C 137.015625 104.464844 139.566406 102.597656 142.164062 101.566406 C 150.414062 98.324219 158.359375 103.964844 161.257812 111.3125 C 161.519531 111.960938 161.195312 112.691406 160.550781 112.953125 C 160.375 113.039062 160.214844 113.066406 160.066406 113.066406 Z M 189.707031 113.066406 C 189.554688 113.066406 189.394531 113.039062 189.246094 112.976562 C 188.597656 112.71875 188.273438 111.984375 188.535156 111.335938 C 191.445312 103.992188 199.382812 98.347656 207.628906 101.59375 C 210.230469 102.609375 212.792969 104.488281 215.21875 107.160156 C 216.226562 108.28125 216.933594 109.175781 217.519531 110.09375 C 218.140625 111.125 218.453125 111.6875 218.066406 112.355469 L 215.890625 111.078125 L 216.972656 111.734375 L 215.839844 112.292969 C 215.789062 112.207031 215.417969 111.488281 215.355469 111.386719 C 214.882812 110.640625 214.257812 109.847656 213.351562 108.851562 C 211.1875 106.464844 208.949219 104.8125 206.710938 103.941406 C 199.917969 101.269531 193.335938 106.078125 190.886719 112.269531 C 190.6875 112.765625 190.203125 113.066406 189.707031 113.066406 Z M 189.707031 113.066406 " fill-opacity="1" fill-rule="nonzero"/><path fill="#fffbfa" d="M 176.855469 173.988281 C 184.382812 173.988281 190.488281 177.84375 190.488281 182.589844 C 190.488281 187.339844 184.382812 191.191406 176.855469 191.191406 C 169.332031 191.191406 163.222656 187.339844 163.222656 182.589844 C 163.238281 177.828125 169.34375 173.988281 176.855469 173.988281 Z M 176.855469 173.988281 " fill-opacity="1" fill-rule="nonzero"/><path fill="#000000" d="M 176.867188 192.4375 C 168.523438 192.4375 161.980469 188.109375 161.980469 182.578125 C 161.980469 177.046875 168.523438 172.71875 176.867188 172.71875 C 185.214844 172.71875 191.757812 177.046875 191.757812 182.578125 C 191.757812 188.109375 185.214844 192.4375 176.867188 192.4375 Z M 176.867188 175.242188 C 170.164062 175.242188 164.503906 178.601562 164.503906 182.578125 C 164.503906 186.554688 170.164062 189.914062 176.867188 189.914062 C 183.574219 189.914062 189.234375 186.554688 189.234375 182.578125 C 189.234375 178.601562 183.5625 175.242188 176.867188 175.242188 Z M 176.867188 175.242188 " fill-opacity="1" fill-rule="nonzero"/><path fill="#000000" d="M 178.996094 221.101562 C 176.457031 221.1875 173.984375 221.050781 172.082031 220.765625 C 160.585938 219.085938 150.164062 215.53125 143.621094 205.613281 C 141.457031 202.332031 139.726562 198.351562 138.507812 193.515625 C 138.519531 193.492188 139.179688 194.003906 139.230469 194.039062 C 139.738281 194.414062 140.273438 194.746094 140.808594 195.070312 C 142.476562 196.066406 144.191406 196.960938 145.933594 197.832031 C 150.761719 200.230469 155.898438 202.082031 161.132812 203.335938 C 161.742188 203.488281 162.367188 203.625 162.988281 203.761719 C 165.660156 204.320312 168.4375 204.71875 171.285156 204.964844 C 173.796875 205.175781 176.359375 205.265625 178.972656 205.214844 C 181.582031 205.265625 184.144531 205.175781 186.660156 204.964844 C 189.507812 204.730469 192.269531 204.320312 194.953125 203.761719 C 195.578125 203.636719 196.199219 203.488281 196.808594 203.335938 C 202.042969 202.082031 207.183594 200.230469 212.007812 197.832031 C 213.738281 196.972656 215.464844 196.066406 217.132812 195.070312 C 217.679688 194.746094 218.203125 194.414062 218.710938 194.039062 C 218.773438 193.988281 219.421875 193.480469 219.433594 193.515625 C 218.226562 198.351562 216.484375 202.332031 214.320312 205.613281 C 207.777344 215.53125 197.355469 219.085938 185.863281 220.765625 C 184.007812 221.050781 181.535156 221.1875 178.996094 221.101562 Z M 178.996094 221.101562 " fill-opacity="1" fill-rule="nonzero"/><path fill="#000000" d="M 177.464844 222.382812 C 175.488281 222.382812 173.558594 222.257812 171.90625 222.007812 C 162.128906 220.578125 149.964844 217.507812 142.574219 206.308594 C 140.273438 202.804688 138.496094 198.613281 137.289062 193.828125 C 137.113281 193.15625 137.527344 192.472656 138.210938 192.300781 C 138.832031 192.136719 139.167969 192.398438 139.964844 193.007812 C 140.410156 193.34375 140.882812 193.640625 141.480469 194.003906 C 142.898438 194.847656 144.453125 195.679688 146.519531 196.710938 C 151.257812 199.0625 156.28125 200.890625 161.457031 202.121094 C 162.054688 202.269531 162.664062 202.40625 163.273438 202.53125 C 165.898438 203.078125 168.648438 203.472656 171.421875 203.710938 C 173.894531 203.921875 176.433594 204.007812 178.984375 203.960938 C 181.582031 204.007812 184.121094 203.921875 186.582031 203.710938 C 189.359375 203.472656 192.09375 203.078125 194.730469 202.53125 C 195.339844 202.40625 195.949219 202.269531 196.546875 202.121094 C 201.722656 200.875 206.746094 199.0625 211.484375 196.699219 C 213.5625 195.667969 215.117188 194.835938 216.523438 193.988281 C 217.121094 193.628906 217.59375 193.320312 218.003906 193.019531 C 218.835938 192.375 219.171875 192.125 219.792969 192.285156 C 220.464844 192.460938 220.878906 193.144531 220.714844 193.816406 C 219.519531 198.601562 217.742188 202.804688 215.429688 206.296875 C 208.039062 217.496094 195.875 220.566406 186.097656 221.996094 C 184.019531 222.292969 181.496094 222.417969 179.007812 222.34375 C 178.484375 222.382812 177.976562 222.382812 177.464844 222.382812 Z M 140.683594 196.476562 C 141.730469 199.644531 143.074219 202.480469 144.691406 204.929688 C 151.519531 215.296875 163.023438 218.167969 172.265625 219.523438 C 174.183594 219.808594 176.621094 219.921875 178.945312 219.832031 C 178.972656 219.832031 179.007812 219.832031 179.035156 219.832031 C 181.371094 219.90625 183.796875 219.796875 185.714844 219.523438 C 194.96875 218.167969 206.460938 215.296875 213.289062 204.929688 C 214.90625 202.480469 216.25 199.644531 217.292969 196.476562 C 215.964844 197.257812 214.484375 198.042969 212.59375 198.972656 C 207.679688 201.410156 202.480469 203.300781 197.121094 204.582031 C 196.496094 204.730469 195.863281 204.867188 195.226562 205.003906 C 192.503906 205.574219 189.65625 205.984375 186.78125 206.222656 C 184.21875 206.433594 181.582031 206.519531 178.957031 206.46875 C 176.371094 206.519531 173.746094 206.433594 171.183594 206.222656 C 168.3125 205.972656 165.460938 205.5625 162.738281 205.003906 C 162.105469 204.867188 161.46875 204.730469 160.847656 204.582031 C 155.488281 203.300781 150.289062 201.410156 145.375 198.972656 C 143.496094 198.042969 142.027344 197.257812 140.683594 196.476562 Z M 140.683594 196.476562 " fill-opacity="1" fill-rule="nonzero"/><path fill="#fffbfa" d="M 178.996094 213.097656 C 174.394531 213.132812 169.855469 212.660156 165.375 211.851562 C 158.496094 210.597656 151.742188 208.519531 145.089844 206.132812 C 144.601562 205.960938 144.117188 205.785156 143.632812 205.613281 C 141.46875 202.332031 139.738281 198.351562 138.519531 193.515625 C 138.535156 193.492188 139.191406 194.003906 139.242188 194.039062 C 139.753906 194.414062 140.289062 194.746094 140.820312 195.070312 C 142.488281 196.066406 144.207031 196.960938 145.945312 197.832031 C 150.773438 200.230469 155.910156 202.082031 161.148438 203.335938 C 161.757812 203.488281 162.378906 203.625 163 203.761719 C 165.675781 204.320312 168.449219 204.71875 171.296875 204.964844 C 173.808594 205.175781 176.371094 205.265625 178.984375 205.214844 C 181.597656 205.265625 184.15625 205.175781 186.671875 204.964844 C 189.519531 204.730469 192.28125 204.320312 194.96875 203.761719 C 195.589844 203.636719 196.210938 203.488281 196.820312 203.335938 C 202.058594 202.082031 207.195312 200.230469 212.019531 197.832031 C 213.75 196.972656 215.480469 196.066406 217.144531 195.070312 C 217.691406 194.746094 218.214844 194.414062 218.726562 194.039062 C 218.789062 193.988281 219.433594 193.480469 219.445312 193.515625 C 218.238281 198.351562 216.5 202.332031 214.335938 205.613281 C 213.847656 205.785156 213.363281 205.949219 212.878906 206.132812 C 206.222656 208.519531 199.46875 210.597656 192.589844 211.851562 C 188.136719 212.671875 183.597656 213.132812 178.996094 213.097656 Z M 178.996094 213.097656 " fill-opacity="1" fill-rule="nonzero"/><path fill="#000000" d="M 178.546875 214.363281 C 174.230469 214.363281 169.839844 213.953125 165.152344 213.097656 C 159.09375 211.988281 152.578125 210.160156 144.664062 207.328125 L 143.210938 206.816406 C 142.949219 206.730469 142.726562 206.558594 142.574219 206.320312 C 140.273438 202.816406 138.496094 198.625 137.289062 193.839844 C 137.117188 193.167969 137.527344 192.484375 138.210938 192.3125 C 138.832031 192.148438 139.167969 192.410156 139.964844 193.019531 C 140.410156 193.355469 140.882812 193.652344 141.480469 194.015625 C 142.898438 194.859375 144.453125 195.691406 146.519531 196.722656 C 151.257812 199.074219 156.28125 200.902344 161.457031 202.132812 C 162.054688 202.28125 162.664062 202.417969 163.273438 202.542969 C 165.898438 203.089844 168.648438 203.488281 171.421875 203.722656 C 173.894531 203.933594 176.433594 204.019531 178.984375 203.972656 C 181.582031 204.019531 184.121094 203.933594 186.582031 203.722656 C 189.359375 203.488281 192.09375 203.089844 194.730469 202.542969 C 195.339844 202.417969 195.949219 202.28125 196.546875 202.132812 C 201.722656 200.890625 206.746094 199.074219 211.484375 196.710938 C 213.5625 195.679688 215.117188 194.847656 216.523438 194.003906 C 217.121094 193.640625 217.59375 193.332031 218.003906 193.03125 C 218.835938 192.386719 219.171875 192.136719 219.792969 192.300781 C 220.464844 192.472656 220.878906 193.15625 220.714844 193.828125 C 219.519531 198.613281 217.742188 202.816406 215.429688 206.308594 C 215.28125 206.542969 215.054688 206.71875 214.792969 206.804688 L 213.339844 207.316406 C 205.429688 210.148438 198.910156 211.976562 192.851562 213.082031 C 188 213.964844 183.4375 214.375 179.007812 214.351562 C 178.847656 214.363281 178.699219 214.363281 178.546875 214.363281 Z M 144.453125 204.566406 L 145.511719 204.941406 C 153.285156 207.726562 159.667969 209.527344 165.601562 210.597656 C 170.289062 211.453125 174.679688 211.851562 178.984375 211.828125 L 178.996094 211.828125 C 183.300781 211.863281 187.691406 211.453125 192.378906 210.597656 C 198.300781 209.515625 204.683594 207.726562 212.46875 204.929688 L 213.527344 204.554688 C 215.042969 202.179688 216.300781 199.472656 217.292969 196.449219 C 215.964844 197.234375 214.484375 198.015625 212.59375 198.949219 C 207.679688 201.386719 202.480469 203.277344 197.121094 204.554688 C 196.496094 204.703125 195.863281 204.839844 195.230469 204.976562 C 192.503906 205.550781 189.65625 205.960938 186.78125 206.195312 C 184.21875 206.40625 181.582031 206.496094 178.957031 206.445312 C 176.371094 206.496094 173.746094 206.40625 171.183594 206.195312 C 168.3125 205.949219 165.460938 205.539062 162.738281 204.976562 C 162.105469 204.839844 161.46875 204.703125 160.847656 204.554688 C 155.488281 203.277344 150.289062 201.386719 145.375 198.949219 C 143.484375 198.015625 142.015625 197.222656 140.671875 196.449219 C 141.679688 199.496094 142.949219 202.207031 144.453125 204.566406 Z M 144.453125 204.566406 " fill-opacity="1" fill-rule="nonzero"/><path fill="#000000" d="M 229.707031 199.945312 C 229.671875 199.945312 229.621094 199.945312 229.585938 199.945312 C 223.988281 199.382812 219.496094 196.527344 217.554688 192.285156 C 216.898438 190.855469 216.773438 189.589844 216.722656 188.433594 C 216.699219 187.738281 217.246094 187.152344 217.941406 187.128906 C 218.652344 187.117188 219.222656 187.648438 219.246094 188.347656 C 219.285156 189.378906 219.398438 190.273438 219.84375 191.242188 C 221.410156 194.648438 225.144531 196.972656 229.832031 197.445312 C 230.53125 197.519531 231.027344 198.128906 230.964844 198.824219 C 230.890625 199.460938 230.34375 199.945312 229.707031 199.945312 Z M 128.285156 199.945312 C 127.636719 199.945312 127.089844 199.460938 127.027344 198.8125 C 126.953125 198.117188 127.460938 197.496094 128.160156 197.433594 C 132.847656 196.960938 136.582031 194.648438 138.148438 191.230469 C 138.59375 190.246094 138.707031 189.367188 138.746094 188.332031 C 138.769531 187.636719 139.367188 187.089844 140.050781 187.117188 C 140.746094 187.140625 141.292969 187.722656 141.269531 188.421875 C 141.234375 189.578125 141.09375 190.84375 140.4375 192.273438 C 138.496094 196.511719 133.992188 199.371094 128.410156 199.929688 C 128.371094 199.945312 128.332031 199.945312 128.285156 199.945312 Z M 128.285156 199.945312 " fill-opacity="1" fill-rule="nonzero"/><path fill="#000000" d="M 176.074219 254.75 C 175.726562 256.167969 169.332031 255.683594 168.410156 255.671875 C 160.476562 255.558594 152.476562 254.277344 144.839844 252.179688 C 122.75 246.085938 100.644531 230.609375 89.835938 210.574219 C 85.730469 202.964844 81.265625 190.546875 87.933594 183.011719 C 91.242188 179.285156 97.636719 177.78125 101.429688 181.671875 C 105.734375 186.097656 107.746094 191.9375 110.769531 197.148438 C 115.386719 205.101562 121.804688 212.0625 129.128906 217.746094 C 136.65625 223.574219 145.386719 228.433594 154.703125 230.871094 C 166.222656 233.878906 182.863281 227.925781 179.765625 247.082031 C 179.40625 249.34375 178.660156 251.679688 177.640625 253.757812 " fill-opacity="1" fill-rule="nonzero"/><path fill="#000000" d="M 171.546875 257.027344 C 170.738281 257.027344 169.867188 257 168.910156 256.964844 C 168.671875 256.953125 168.496094 256.953125 168.386719 256.9375 C 160.675781 256.828125 152.636719 255.632812 144.503906 253.394531 C 120.585938 246.808594 99.214844 230.625 88.730469 211.179688 C 85.605469 205.402344 79.1875 190.992188 86.988281 182.191406 C 89.140625 179.769531 92.4375 178.214844 95.609375 178.140625 C 98.257812 178.066406 100.582031 179 102.324219 180.800781 C 105.457031 184.019531 107.425781 187.921875 109.316406 191.714844 C 110.125 193.320312 110.957031 194.972656 111.851562 196.527344 C 116.15625 203.945312 122.386719 210.945312 129.886719 216.761719 C 137.949219 223.015625 146.644531 227.464844 155.015625 229.664062 C 157.898438 230.425781 161.195312 230.597656 164.378906 230.761719 C 170.351562 231.070312 176 231.367188 179.144531 235.261719 C 181.273438 237.894531 181.882812 241.835938 181 247.304688 C 180.613281 249.691406 179.84375 252.117188 178.773438 254.328125 C 178.5 254.886719 177.875 255.148438 177.304688 255 C 177.304688 255.023438 177.292969 255.050781 177.292969 255.085938 C 176.917969 256.578125 174.917969 257.027344 171.546875 257.027344 Z M 95.855469 180.652344 C 95.792969 180.652344 95.730469 180.652344 95.683594 180.652344 C 93.195312 180.714844 90.59375 181.933594 88.890625 183.847656 C 82.148438 191.453125 88.09375 204.644531 90.96875 209.964844 C 100.992188 228.546875 122.277344 244.632812 145.1875 250.949219 C 153.109375 253.136719 160.933594 254.292969 168.4375 254.390625 C 168.558594 254.390625 168.757812 254.402344 169.03125 254.414062 C 173.285156 254.601562 174.582031 254.316406 174.964844 254.140625 C 175.238281 253.644531 175.8125 253.371094 176.382812 253.519531 C 176.394531 253.519531 176.410156 253.519531 176.421875 253.53125 C 176.445312 253.421875 176.472656 253.308594 176.535156 253.210938 C 177.503906 251.222656 178.199219 249.03125 178.546875 246.882812 C 179.308594 242.160156 178.871094 238.878906 177.21875 236.824219 C 174.792969 233.816406 169.691406 233.542969 164.292969 233.269531 C 160.972656 233.097656 157.550781 232.921875 154.417969 232.101562 C 145.710938 229.828125 136.71875 225.214844 128.382812 218.75 C 120.621094 212.734375 114.164062 205.488281 109.699219 197.78125 C 108.769531 196.164062 107.910156 194.472656 107.089844 192.832031 C 105.199219 189.054688 103.40625 185.488281 100.546875 182.554688 C 99.015625 181 97.1875 180.652344 95.855469 180.652344 Z M 95.855469 180.652344 " fill-opacity="1" fill-rule="nonzero"/><path fill="#fff100" d="M 283.890625 44.386719 L 319.503906 59.042969 C 322.289062 60.183594 324.503906 62.386719 325.660156 65.167969 C 326.816406 67.941406 326.828125 71.0625 325.671875 73.847656 L 222.792969 323.492188 L 166.210938 300.199219 L 269.089844 50.550781 C 270.234375 47.765625 272.433594 45.554688 275.222656 44.398438 C 277.984375 43.253906 281.105469 43.242188 283.890625 44.386719 Z M 283.890625 44.386719 " fill-opacity="1" fill-rule="nonzero"/><path fill="#000000" d="M 222.792969 324.75 C 222.628906 324.75 222.46875 324.710938 222.308594 324.648438 L 165.722656 301.367188 C 165.078125 301.105469 164.765625 300.359375 165.039062 299.714844 L 267.917969 50.066406 C 269.199219 46.957031 271.613281 44.535156 274.722656 43.230469 C 277.832031 41.9375 281.253906 41.925781 284.375 43.203125 L 319.988281 57.859375 C 323.058594 59.128906 325.546875 61.601562 326.828125 64.660156 C 328.121094 67.769531 328.136719 71.199219 326.855469 74.304688 L 223.972656 323.953125 C 223.851562 324.265625 223.601562 324.511719 223.289062 324.636719 C 223.117188 324.722656 222.953125 324.75 222.792969 324.75 Z M 167.851562 299.515625 L 222.097656 321.839844 L 324.492188 73.363281 C 325.511719 70.875 325.511719 68.140625 324.476562 65.65625 C 323.457031 63.207031 321.46875 61.230469 319.003906 60.210938 L 283.394531 45.554688 C 280.90625 44.535156 278.167969 44.535156 275.679688 45.566406 C 273.195312 46.597656 271.265625 48.539062 270.234375 51.023438 Z M 167.851562 299.515625 " fill-opacity="1" fill-rule="nonzero"/><path fill="#fffbfa" d="M 317.886719 92.714844 L 261.300781 69.421875 C 261.300781 69.421875 265.605469 58.980469 269.078125 50.550781 C 270.222656 47.765625 272.421875 45.554688 275.210938 44.398438 C 277.984375 43.242188 281.105469 43.230469 283.890625 44.386719 C 294.042969 48.5625 309.351562 54.863281 319.503906 59.042969 C 322.289062 60.183594 324.503906 62.386719 325.660156 65.167969 C 326.816406 67.941406 326.828125 71.0625 325.671875 73.847656 C 322.191406 82.273438 317.886719 92.714844 317.886719 92.714844 Z M 317.886719 92.714844 " fill-opacity="1" fill-rule="nonzero"/><path fill="#000000" d="M 317.886719 93.984375 C 317.722656 93.984375 317.5625 93.945312 317.402344 93.886719 L 260.816406 70.589844 C 260.171875 70.328125 259.859375 69.582031 260.132812 68.9375 L 267.90625 50.066406 C 269.1875 46.957031 271.601562 44.535156 274.710938 43.230469 C 277.820312 41.9375 281.242188 41.925781 284.363281 43.203125 L 319.976562 57.859375 C 323.046875 59.128906 325.535156 61.601562 326.816406 64.660156 C 328.109375 67.769531 328.121094 71.199219 326.839844 74.304688 L 319.054688 93.199219 C 318.929688 93.511719 318.683594 93.761719 318.371094 93.886719 C 318.222656 93.945312 318.058594 93.984375 317.886719 93.984375 Z M 262.957031 68.738281 L 317.203125 91.0625 L 324.503906 73.363281 C 325.523438 70.875 325.523438 68.140625 324.492188 65.65625 C 323.472656 63.207031 321.480469 61.230469 319.019531 60.210938 L 283.40625 45.554688 C 280.917969 44.535156 278.183594 44.535156 275.695312 45.566406 C 273.207031 46.597656 271.277344 48.539062 270.246094 51.023438 Z M 262.957031 68.738281 " fill-opacity="1" fill-rule="nonzero"/><path fill="#fffbfa" d="M 180.351562 306.027344 L 192.417969 296.816406 L 194.496094 311.84375 L 206.558594 302.648438 L 208.636719 317.664062 L 220.703125 308.464844 L 222.792969 323.492188 L 171.867188 366.726562 L 166.195312 300.199219 L 178.261719 291 Z M 180.351562 306.027344 " fill-opacity="1" fill-rule="nonzero"/><path fill="#000000" d="M 171.867188 367.996094 C 171.707031 367.996094 171.546875 367.96875 171.382812 367.894531 C 170.949219 367.722656 170.648438 367.3125 170.613281 366.839844 L 164.941406 300.308594 C 164.902344 299.875 165.089844 299.464844 165.4375 299.203125 L 177.503906 289.992188 C 177.863281 289.71875 178.335938 289.65625 178.746094 289.832031 C 179.15625 290.003906 179.457031 290.378906 179.519531 290.824219 L 181.296875 303.703125 L 191.644531 295.808594 C 192.007812 295.535156 192.480469 295.472656 192.890625 295.648438 C 193.300781 295.824219 193.597656 296.195312 193.660156 296.644531 L 195.453125 309.519531 L 205.800781 301.628906 C 206.160156 301.355469 206.632812 301.292969 207.046875 301.464844 C 207.457031 301.640625 207.753906 302.011719 207.816406 302.460938 L 209.59375 315.339844 L 219.945312 307.445312 C 220.304688 307.171875 220.777344 307.109375 221.1875 307.285156 C 221.597656 307.457031 221.898438 307.832031 221.960938 308.277344 L 224.035156 323.308594 C 224.097656 323.730469 223.9375 324.164062 223.601562 324.4375 L 172.691406 367.683594 C 172.464844 367.894531 172.167969 367.996094 171.867188 367.996094 Z M 167.515625 300.78125 L 172.925781 364.179688 L 221.4375 322.972656 L 219.746094 310.777344 L 209.394531 318.671875 C 209.035156 318.945312 208.5625 319.003906 208.152344 318.832031 C 207.742188 318.65625 207.441406 318.285156 207.382812 317.835938 L 205.601562 304.957031 L 195.253906 312.851562 C 194.894531 313.125 194.421875 313.1875 194.007812 313.015625 C 193.597656 312.839844 193.300781 312.46875 193.238281 312.019531 L 191.460938 299.140625 L 181.109375 307.035156 C 180.75 307.308594 180.277344 307.371094 179.867188 307.195312 C 179.457031 307.023438 179.15625 306.648438 179.09375 306.203125 L 177.304688 293.324219 Z M 167.515625 300.78125 " fill-opacity="1" fill-rule="nonzero"/><path fill="#000000" d="M 190.488281 350.929688 L 171.867188 366.738281 L 169.792969 342.414062 C 173.375 340.785156 177.777344 340.621094 181.917969 342.339844 C 186.074219 344.027344 189.097656 347.25 190.488281 350.929688 Z M 190.488281 350.929688 " fill-opacity="1" fill-rule="nonzero"/><path fill="#000000" d="M 171.867188 367.996094 C 171.707031 367.996094 171.546875 367.96875 171.382812 367.894531 C 170.949219 367.722656 170.648438 367.3125 170.613281 366.839844 L 168.535156 342.511719 C 168.484375 341.976562 168.785156 341.480469 169.269531 341.257812 C 173.300781 339.417969 178.089844 339.378906 182.40625 341.15625 C 186.71875 342.933594 190.089844 346.328125 191.660156 350.46875 C 191.84375 350.964844 191.695312 351.535156 191.296875 351.871094 L 172.675781 367.683594 C 172.464844 367.894531 172.167969 367.996094 171.867188 367.996094 Z M 171.136719 343.222656 L 172.925781 364.191406 L 188.972656 350.566406 C 187.527344 347.445312 184.828125 344.898438 181.457031 343.507812 C 178.0625 342.101562 174.355469 342.015625 171.136719 343.222656 Z M 171.136719 343.222656 " fill-opacity="1" fill-rule="nonzero"/><path fill="#000000" d="M 220.753906 309.746094 C 220.589844 309.746094 220.429688 309.71875 220.265625 309.644531 C 219.621094 309.382812 219.308594 308.636719 219.582031 307.992188 L 309.675781 89.324219 C 309.9375 88.675781 310.683594 88.378906 311.332031 88.640625 C 311.976562 88.898438 312.289062 89.644531 312.015625 90.292969 L 221.921875 308.960938 C 221.722656 309.445312 221.25 309.746094 220.753906 309.746094 Z M 206.597656 303.914062 C 206.4375 303.914062 206.273438 303.890625 206.113281 303.816406 C 205.464844 303.554688 205.15625 302.808594 205.429688 302.160156 L 295.519531 83.492188 C 295.78125 82.847656 296.527344 82.535156 297.175781 82.808594 C 297.824219 83.070312 298.132812 83.816406 297.859375 84.460938 L 207.765625 303.132812 C 207.554688 303.628906 207.082031 303.914062 206.597656 303.914062 Z M 192.429688 298.085938 C 192.269531 298.085938 192.105469 298.058594 191.945312 297.984375 C 191.296875 297.722656 190.988281 296.976562 191.261719 296.332031 L 281.355469 77.664062 C 281.613281 77.015625 282.359375 76.707031 283.007812 76.980469 C 283.65625 77.238281 283.964844 77.984375 283.691406 78.632812 L 193.597656 297.300781 C 193.398438 297.800781 192.925781 298.085938 192.429688 298.085938 Z M 178.261719 292.253906 C 178.101562 292.253906 177.9375 292.230469 177.777344 292.15625 C 177.128906 291.894531 176.820312 291.148438 177.09375 290.503906 L 267.1875 71.84375 C 267.449219 71.199219 268.195312 70.902344 268.839844 71.160156 C 269.488281 71.421875 269.796875 72.167969 269.523438 72.816406 L 179.429688 291.484375 C 179.234375 291.96875 178.761719 292.253906 178.261719 292.253906 Z M 178.261719 292.253906 " fill-opacity="1" fill-rule="nonzero"/><path fill="#fffbfa" d="M 185.089844 221.3125 C 183.835938 221.136719 180.960938 221.910156 180.664062 222.019531 C 176.78125 223.425781 173.222656 225.960938 170.800781 229.316406 C 161.507812 242.195312 166.222656 268.945312 185.539062 268.414062 C 193.699219 268.1875 191.085938 258.628906 196.125 254.714844 C 198.550781 252.824219 203.636719 253.769531 210.054688 250.648438 C 214.285156 248.585938 216.125 246.125 216.796875 241.996094 C 217.257812 239.125 216.125 237.0625 216.125 237.0625 C 216.125 237.0625 217.953125 236.414062 218.351562 236.265625 C 219.757812 235.71875 221.523438 234.5 222.382812 233.296875 C 225.503906 228.921875 223.253906 224.929688 223.253906 224.929688 C 223.253906 224.929688 225.566406 222.804688 225.941406 222.207031 C 227.542969 219.660156 227.53125 216.578125 226.449219 213.816406 C 224.570312 208.980469 218.886719 206.308594 214.074219 205.464844 C 203.277344 203.535156 189.269531 210.933594 185.089844 221.3125 Z M 185.089844 221.3125 " fill-opacity="1" fill-rule="nonzero"/><path fill="#000000" d="M 184.980469 269.667969 C 177.738281 269.667969 171.820312 265.976562 168.25 259.226562 C 163.273438 249.839844 163.933594 236.652344 169.777344 228.558594 C 172.277344 225.105469 175.984375 222.355469 180.238281 220.816406 C 180.265625 220.804688 182.515625 220.117188 184.269531 220.019531 C 188.972656 209.675781 203.015625 202.179688 214.320312 204.171875 C 219.398438 205.066406 225.566406 207.9375 227.65625 213.320312 C 228.960938 216.675781 228.726562 220.144531 227.035156 222.839844 C 226.710938 223.351562 225.617188 224.433594 224.796875 225.214844 C 225.378906 226.832031 226.089844 230.300781 223.453125 234.003906 C 222.34375 235.546875 220.292969 236.851562 218.847656 237.410156 C 218.6875 237.472656 218.253906 237.632812 217.804688 237.78125 C 218.101562 238.816406 218.375 240.355469 218.078125 242.160156 C 217.332031 246.757812 215.179688 249.542969 210.640625 251.742188 C 206.996094 253.519531 203.796875 254.03125 201.238281 254.453125 C 199.308594 254.761719 197.777344 255.011719 196.921875 255.683594 C 195.179688 257.039062 194.496094 259.277344 193.761719 261.648438 C 192.628906 265.328125 191.335938 269.492188 185.589844 269.65625 C 185.378906 269.667969 185.179688 269.667969 184.980469 269.667969 Z M 184.644531 222.542969 C 183.636719 222.542969 181.546875 223.054688 181.085938 223.203125 C 177.316406 224.570312 174.019531 226.992188 171.832031 230.039062 C 166.59375 237.285156 166.011719 249.59375 170.488281 258.046875 C 172.703125 262.222656 177.007812 267.144531 184.964844 267.144531 C 185.140625 267.144531 185.328125 267.144531 185.515625 267.132812 C 189.257812 267.03125 190.128906 264.820312 191.335938 260.90625 C 192.105469 258.394531 192.988281 255.535156 195.351562 253.695312 C 196.722656 252.625 198.613281 252.328125 200.8125 251.964844 C 203.214844 251.582031 206.199219 251.097656 209.507812 249.480469 C 213.300781 247.628906 214.945312 245.539062 215.554688 241.761719 C 215.9375 239.386719 215.03125 237.632812 215.019531 237.621094 C 214.84375 237.296875 214.820312 236.914062 214.957031 236.566406 C 215.09375 236.230469 215.367188 235.957031 215.714844 235.832031 C 215.714844 235.832031 217.507812 235.199219 217.890625 235.046875 C 219.183594 234.550781 220.703125 233.433594 221.363281 232.523438 C 223.949219 228.894531 222.21875 225.636719 222.144531 225.5 C 221.871094 224.992188 221.972656 224.359375 222.394531 223.960938 C 223.425781 223.015625 224.671875 221.796875 224.871094 221.488281 C 226.136719 219.472656 226.289062 216.824219 225.269531 214.226562 C 223.550781 209.828125 218.253906 207.425781 213.847656 206.65625 C 203.511719 204.839844 190.089844 212.175781 186.234375 221.761719 C 186.023438 222.292969 185.464844 222.617188 184.890625 222.542969 C 184.84375 222.554688 184.753906 222.542969 184.644531 222.542969 Z M 184.644531 222.542969 " fill-opacity="1" fill-rule="nonzero"/><path fill="#000000" d="M 181.96875 239.546875 C 181.320312 239.546875 180.773438 239.050781 180.710938 238.390625 C 180.238281 233.023438 181.621094 227.765625 182.863281 223.785156 C 183.25 222.542969 183.648438 221.449219 184.082031 220.417969 C 184.296875 219.785156 184.519531 219.125 185.152344 218.8125 C 185.789062 218.515625 186.535156 218.789062 186.832031 219.410156 C 187.054688 219.894531 186.957031 220.453125 186.609375 220.816406 C 186.570312 220.914062 186.535156 221.027344 186.507812 221.113281 C 186.472656 221.238281 186.433594 221.324219 186.410156 221.386719 C 186.011719 222.332031 185.636719 223.363281 185.277344 224.53125 C 184.035156 228.523438 182.816406 233.257812 183.238281 238.167969 C 183.300781 238.863281 182.789062 239.472656 182.09375 239.535156 C 182.042969 239.546875 182.007812 239.546875 181.96875 239.546875 Z M 186.644531 220.753906 Z M 216.148438 238.304688 C 215.675781 238.304688 215.21875 238.03125 215.007812 237.570312 C 214.359375 236.179688 212.878906 235 211.546875 233.992188 C 210.265625 233.035156 208.898438 232.277344 207.46875 231.742188 C 200.015625 228.894531 193.710938 234.203125 191.335938 236.613281 C 190.851562 237.113281 190.054688 237.125 189.542969 236.628906 C 189.046875 236.140625 189.035156 235.335938 189.53125 234.835938 C 195.265625 228.980469 202.132812 226.992188 208.363281 229.367188 C 210.003906 229.988281 211.585938 230.859375 213.054688 231.953125 C 214.644531 233.132812 216.410156 234.5625 217.308594 236.492188 C 217.605469 237.125 217.320312 237.871094 216.683594 238.167969 C 216.5 238.269531 216.324219 238.304688 216.148438 238.304688 Z M 191.808594 226.609375 C 191.496094 226.609375 191.1875 226.496094 190.9375 226.261719 C 190.425781 225.773438 190.414062 224.980469 190.886719 224.46875 C 196.570312 218.464844 204.65625 215.445312 211.484375 216.789062 C 213.015625 217.085938 214.582031 217.609375 216.125 218.328125 C 218.488281 219.433594 220.554688 220.765625 222.28125 222.28125 C 222.855469 222.792969 223.390625 223.351562 223.875 223.875 C 223.886719 223.898438 223.960938 223.984375 223.988281 224.011719 C 224.050781 224.097656 224.160156 224.234375 224.246094 224.320312 C 224.472656 224.53125 224.632812 224.816406 224.660156 225.140625 C 224.71875 225.835938 224.210938 226.445312 223.515625 226.507812 C 222.816406 226.570312 222.507812 226.183594 222.019531 225.589844 C 221.574219 225.105469 221.113281 224.605469 220.617188 224.171875 C 219.074219 222.816406 217.207031 221.609375 215.066406 220.617188 C 213.710938 219.980469 212.355469 219.535156 211.011719 219.273438 C 205.03125 218.09375 197.839844 220.828125 192.742188 226.210938 C 192.480469 226.472656 192.144531 226.609375 191.808594 226.609375 Z M 191.808594 226.609375 " fill-opacity="1" fill-rule="nonzero"/><path fill="#fffbfa" d="M 247.320312 241.734375 C 245.902344 240.816406 244.125 238.242188 243.777344 237.570312 C 242.433594 235.011719 241.835938 232.1875 241.921875 229.269531 C 241.996094 226.621094 242.757812 224.011719 242.757812 224.011719 C 239.574219 219.871094 234.808594 219.496094 234.785156 212.238281 C 234.769531 208.882812 236.773438 205.898438 239.359375 203.871094 C 240.667969 202.851562 243.15625 201.671875 243.15625 201.671875 C 243.15625 201.671875 242.347656 200.21875 242.046875 199.359375 C 241.511719 197.84375 241.265625 196.339844 241.585938 194.585938 C 242.011719 192.285156 243.402344 190.695312 245.46875 189.589844 C 246.886719 188.84375 248.890625 188.53125 248.890625 188.53125 C 248.890625 188.53125 248.726562 185.761719 249.847656 183.113281 C 252.296875 177.296875 258.207031 176.785156 263.117188 178.179688 C 275.769531 181.769531 277.683594 196.300781 276.914062 207.140625 C 276.714844 209.988281 276.515625 212.972656 275.632812 216.363281 C 275.632812 216.363281 277.546875 216.589844 277.96875 216.738281 C 279.339844 217.234375 280.308594 218.105469 280.84375 219.050781 C 282.796875 222.429688 282.285156 227.75 281.140625 232.113281 C 279.476562 238.429688 276.265625 243.453125 271.5625 247.964844 C 266.699219 252.613281 260.070312 255.722656 253.242188 254.019531 C 248.179688 252.75 243.339844 246.632812 247.320312 241.734375 Z M 247.320312 241.734375 " fill-opacity="1" fill-rule="nonzero"/><path fill="#000000" d="M 257.074219 255.757812 C 255.679688 255.757812 254.300781 255.597656 252.945312 255.25 C 249.363281 254.351562 246.089844 251.417969 244.996094 248.125 C 244.285156 246 244.511719 243.847656 245.617188 241.972656 C 244.222656 240.640625 242.929688 238.679688 242.65625 238.15625 C 241.238281 235.445312 240.566406 232.449219 240.667969 229.230469 C 240.730469 227.242188 241.140625 225.289062 241.375 224.308594 C 240.53125 223.339844 239.574219 222.566406 238.640625 221.820312 C 236.140625 219.832031 233.550781 217.769531 233.527344 212.238281 C 233.515625 208.808594 235.355469 205.390625 238.589844 202.863281 C 239.398438 202.230469 240.566406 201.574219 241.449219 201.113281 C 241.226562 200.664062 241.003906 200.179688 240.867188 199.769531 C 240.183594 197.816406 240.019531 196.152344 240.355469 194.335938 C 240.828125 191.789062 242.347656 189.8125 244.894531 188.457031 C 245.792969 187.984375 246.875 187.664062 247.65625 187.476562 C 247.707031 186.332031 247.929688 184.441406 248.714844 182.589844 C 251.039062 177.082031 256.5625 174.96875 263.503906 176.933594 C 278.429688 181.171875 278.765625 199.519531 278.207031 207.203125 L 278.195312 207.378906 C 278.019531 209.851562 277.832031 212.398438 277.210938 215.269531 C 277.710938 215.34375 278.183594 215.433594 278.429688 215.53125 C 279.972656 216.105469 281.230469 217.109375 281.964844 218.390625 C 284.425781 222.65625 283.28125 229.007812 282.386719 232.414062 C 280.71875 238.742188 277.574219 243.960938 272.460938 248.847656 C 267.769531 253.359375 262.347656 255.757812 257.074219 255.757812 Z M 258.664062 178.785156 C 255.855469 178.785156 252.65625 179.757812 251.027344 183.597656 C 250.03125 185.960938 250.15625 188.433594 250.15625 188.457031 C 250.195312 189.105469 249.734375 189.675781 249.085938 189.777344 C 249.074219 189.777344 247.257812 190.0625 246.066406 190.707031 C 244.210938 191.691406 243.15625 193.03125 242.832031 194.808594 C 242.582031 196.175781 242.695312 197.40625 243.242188 198.9375 C 243.453125 199.546875 244.050781 200.675781 244.261719 201.050781 C 244.421875 201.347656 244.460938 201.722656 244.359375 202.042969 C 244.261719 202.367188 244.011719 202.652344 243.703125 202.804688 C 243.675781 202.816406 241.324219 203.933594 240.144531 204.867188 C 237.53125 206.90625 236.039062 209.589844 236.050781 212.238281 C 236.066406 216.5625 237.894531 218.019531 240.21875 219.859375 C 241.363281 220.765625 242.65625 221.796875 243.777344 223.25 C 244.023438 223.574219 244.101562 223.984375 243.988281 224.371094 C 243.988281 224.394531 243.277344 226.867188 243.203125 229.316406 C 243.117188 232.089844 243.691406 234.675781 244.910156 236.988281 C 245.230469 237.597656 246.886719 239.945312 248.019531 240.679688 C 248.316406 240.878906 248.527344 241.1875 248.578125 241.539062 C 248.640625 241.886719 248.539062 242.257812 248.316406 242.53125 C 247.136719 243.984375 246.835938 245.589844 247.410156 247.328125 C 248.242188 249.816406 250.828125 252.117188 253.578125 252.800781 C 259.199219 254.203125 265.433594 252.117188 270.71875 247.054688 C 275.46875 242.507812 278.40625 237.660156 279.949219 231.804688 C 281.304688 226.644531 281.242188 222.230469 279.773438 219.683594 C 279.324219 218.914062 278.542969 218.292969 277.558594 217.929688 C 277.347656 217.871094 276.328125 217.71875 275.519531 217.621094 C 275.160156 217.582031 274.824219 217.382812 274.625 217.085938 C 274.414062 216.789062 274.351562 216.414062 274.4375 216.054688 C 275.269531 212.835938 275.46875 209.988281 275.667969 207.226562 L 275.679688 207.042969 C 276.316406 198.253906 275.484375 182.988281 262.808594 179.382812 C 261.8125 179.109375 260.308594 178.785156 258.664062 178.785156 Z M 258.664062 178.785156 " fill-opacity="1" fill-rule="nonzero"/><path fill="#000000" d="M 251.847656 243.5 C 250.320312 243.5 248.988281 243.351562 247.78125 243.054688 C 247.121094 242.917969 246.128906 242.707031 245.878906 241.773438 C 245.703125 241.101562 246.101562 240.40625 246.773438 240.230469 C 247.195312 240.132812 247.621094 240.230469 247.917969 240.492188 C 248.03125 240.519531 248.140625 240.542969 248.230469 240.554688 C 248.242188 240.554688 248.378906 240.59375 248.390625 240.59375 C 249.398438 240.839844 250.492188 240.964844 251.835938 240.964844 C 256.6875 240.964844 261.328125 239.1875 264.25 236.230469 C 264.734375 235.730469 265.542969 235.71875 266.042969 236.21875 C 266.539062 236.703125 266.550781 237.507812 266.054688 238.007812 C 262.671875 241.449219 257.359375 243.5 251.847656 243.5 Z M 248.328125 241.128906 C 248.328125 241.128906 248.328125 241.140625 248.328125 241.128906 C 248.328125 241.140625 248.328125 241.128906 248.328125 241.128906 Z M 248.316406 241.128906 Z M 269.710938 229.652344 C 269.449219 229.652344 269.199219 229.578125 268.976562 229.417969 C 268.40625 229.007812 268.28125 228.222656 268.691406 227.652344 C 270.332031 225.378906 271.839844 222.617188 273.179688 219.449219 L 273.441406 218.839844 C 273.929688 217.71875 274.4375 216.5625 274.523438 215.53125 C 274.585938 214.835938 275.222656 214.339844 275.90625 214.386719 C 276.601562 214.449219 277.113281 215.070312 277.050781 215.769531 C 276.914062 217.210938 276.304688 218.601562 275.769531 219.84375 L 275.519531 220.429688 C 274.101562 223.773438 272.496094 226.695312 270.742188 229.117188 C 270.496094 229.46875 270.109375 229.652344 269.710938 229.652344 Z M 259.363281 218.167969 C 258.765625 218.167969 258.230469 217.730469 258.117188 217.125 C 257.023438 210.90625 253.253906 205.898438 248.265625 204.046875 C 246.761719 203.488281 245.269531 203.164062 243.9375 203.113281 L 243.765625 203.101562 C 243.476562 203.089844 243.277344 203.078125 243.140625 203.089844 C 242.746094 203.351562 242.210938 203.375 241.773438 203.101562 C 241.1875 202.726562 241.003906 201.945312 241.375 201.359375 C 241.949219 200.464844 243.128906 200.539062 243.914062 200.589844 C 245.628906 200.652344 247.359375 201.027344 249.136719 201.683594 C 254.957031 203.847656 259.351562 209.589844 260.59375 216.6875 C 260.71875 217.371094 260.257812 218.03125 259.5625 218.15625 C 259.511719 218.167969 259.4375 218.167969 259.363281 218.167969 Z M 243.527344 202.714844 Z M 268.28125 202.566406 C 267.683594 202.566406 267.160156 202.144531 267.035156 201.546875 C 266.9375 201.0625 266.789062 200.554688 266.601562 200.128906 C 266.089844 198.949219 265.417969 197.792969 264.523438 196.574219 C 260.941406 191.691406 254.847656 188.941406 249.324219 189.75 C 248.640625 189.851562 247.992188 189.378906 247.894531 188.683594 C 247.792969 188 248.265625 187.351562 248.964844 187.253906 C 255.355469 186.320312 262.433594 189.476562 266.5625 195.082031 C 267.570312 196.449219 268.34375 197.78125 268.925781 199.136719 C 269.175781 199.71875 269.386719 200.402344 269.523438 201.0625 C 269.660156 201.746094 269.214844 202.40625 268.53125 202.542969 C 268.441406 202.566406 268.367188 202.566406 268.28125 202.566406 Z M 268.28125 202.566406 " fill-opacity="1" fill-rule="nonzero"/></svg>