<svg xmlns="http://www.w3.org/2000/svg" xmlns:xlink="http://www.w3.org/1999/xlink" width="500" zoomAndPan="magnify" viewBox="0 0 375 374.999991" height="500" preserveAspectRatio="xMidYMid meet" version="1.0"><defs><clipPath id="23b3f255de"><path d="M 164.632812 150.28125 L 210.367188 150.28125 L 210.367188 224.78125 L 164.632812 224.78125 Z M 164.632812 150.28125 " clip-rule="nonzero"/></clipPath><clipPath id="b17d9fd13e"><path d="M 181.882812 150.28125 L 193.117188 150.28125 C 197.691406 150.28125 202.082031 152.097656 205.316406 155.332031 C 208.550781 158.566406 210.367188 162.957031 210.367188 167.53125 L 210.367188 207.46875 C 210.367188 212.042969 208.550781 216.433594 205.316406 219.667969 C 202.082031 222.902344 197.691406 224.71875 193.117188 224.71875 L 181.882812 224.71875 C 177.308594 224.71875 172.917969 222.902344 169.683594 219.667969 C 166.449219 216.433594 164.632812 212.042969 164.632812 207.46875 L 164.632812 167.53125 C 164.632812 162.957031 166.449219 158.566406 169.683594 155.332031 C 172.917969 152.097656 177.308594 150.28125 181.882812 150.28125 Z M 181.882812 150.28125 " clip-rule="nonzero"/></clipPath><clipPath id="2e6c1db239"><path d="M 105 9.773438 L 306 9.773438 L 306 80 L 105 80 Z M 105 9.773438 " clip-rule="nonzero"/></clipPath><clipPath id="c0b534b32c"><path d="M 126 287 L 295 287 L 295 354.773438 L 126 354.773438 Z M 126 287 " clip-rule="nonzero"/></clipPath><clipPath id="c3ef59e4e2"><path d="M 126 310 L 168 310 L 168 354.773438 L 126 354.773438 Z M 126 310 " clip-rule="nonzero"/></clipPath><clipPath id="55f7ad6c78"><path d="M 126 323 L 295 323 L 295 354.773438 L 126 354.773438 Z M 126 323 " clip-rule="nonzero"/></clipPath></defs><g clip-path="url(#23b3f255de)"><g clip-path="url(#b17d9fd13e)"><path fill="#65a1b7" d="M 164.632812 150.28125 L 210.367188 150.28125 L 210.367188 224.78125 L 164.632812 224.78125 Z M 164.632812 150.28125 " fill-opacity="1" fill-rule="nonzero"/></g></g><path fill="#000000" d="M 79.980469 177.191406 C 79.519531 176.984375 80.5625 178.152344 80.917969 178.554688 C 81.558594 179.269531 82.3125 179.832031 83.066406 180.378906 C 85.617188 182.210938 89.078125 182.613281 92.042969 182.660156 C 98.980469 182.757812 103.921875 178.480469 108.367188 179.160156 C 114.015625 180.023438 116.945312 195.046875 114.113281 201.207031 C 111.5625 206.785156 104.628906 207.929688 99.792969 208.660156 C 89.457031 210.214844 77.683594 208.78125 68.199219 202.230469 C 64.894531 199.945312 61.019531 196.746094 59.160156 192.605469 C 57.398438 188.679688 58.90625 184.523438 61.226562 181.785156 C 65.160156 177.144531 72.984375 174.070312 78.71875 176.644531 " fill-opacity="1" fill-rule="evenodd"/><path fill="#000000" d="M 92.117188 210.53125 C 84.972656 210.53125 75.839844 209.058594 67.480469 203.285156 C 62.683594 199.96875 59.585938 196.652344 58.007812 193.125 C 55.953125 188.53125 57.824219 183.828125 60.265625 180.949219 C 64.40625 176.0625 72.851562 172.585938 79.265625 175.46875 C 79.484375 175.5625 79.664062 175.722656 79.796875 175.90625 C 80.042969 175.878906 80.296875 175.917969 80.503906 176.015625 C 80.902344 176.195312 81.171875 176.5625 81.242188 176.960938 C 81.367188 177.121094 81.570312 177.351562 81.875 177.691406 C 82.433594 178.3125 83.113281 178.820312 83.832031 179.332031 C 85.691406 180.667969 88.300781 181.3125 92.078125 181.375 C 92.152344 181.375 92.214844 181.375 92.285156 181.375 C 95.542969 181.375 98.433594 180.316406 100.984375 179.378906 C 103.621094 178.421875 106.109375 177.507812 108.585938 177.886719 C 110.519531 178.175781 112.269531 179.695312 113.652344 182.261719 C 116.652344 187.816406 117.441406 197.101562 115.316406 201.742188 C 112.425781 208.0625 104.652344 209.242188 100.011719 209.933594 C 97.898438 210.25 95.1875 210.53125 92.117188 210.53125 Z M 74.148438 177 C 69.726562 177 64.917969 179.441406 62.234375 182.613281 C 60.300781 184.886719 58.796875 188.570312 60.363281 192.070312 C 61.746094 195.144531 64.554688 198.121094 68.949219 201.160156 C 80.164062 208.914062 92.976562 208.378906 99.621094 207.382812 C 104.019531 206.714844 110.652344 205.71875 112.960938 200.660156 C 114.734375 196.773438 113.957031 188.265625 111.371094 183.476562 C 110.398438 181.675781 109.269531 180.597656 108.1875 180.425781 C 106.351562 180.144531 104.273438 180.910156 101.859375 181.800781 C 99.039062 182.832031 95.796875 184 92.03125 183.9375 C 89.308594 183.902344 85.335938 183.597656 82.3125 181.410156 C 81.488281 180.816406 80.683594 180.207031 79.957031 179.40625 C 79.445312 178.847656 79.019531 178.359375 78.765625 177.921875 C 78.570312 177.921875 78.378906 177.898438 78.195312 177.8125 C 76.957031 177.253906 75.570312 177 74.148438 177 Z M 74.148438 177 " fill-opacity="1" fill-rule="nonzero"/><path fill="#000000" d="M 180.742188 271.46875 C 180.621094 271.457031 180.925781 272.332031 180.949219 272.414062 C 181.105469 272.988281 181.265625 273.570312 181.398438 274.152344 C 181.8125 275.902344 182.1875 277.652344 182.589844 279.402344 C 183.367188 282.757812 184.09375 286.113281 184.761719 289.492188 C 185.054688 290.984375 185.152344 293.089844 185.929688 294.449219 C 187.011719 296.320312 191.175781 296.503906 192.949219 296.734375 C 199.085938 297.574219 205.351562 298.59375 211.546875 298.195312 C 214.984375 297.960938 218.449219 297.453125 221.65625 296.140625 C 222.578125 295.761719 223.949219 295.375 224.449219 294.414062 C 225.019531 293.308594 224.691406 291.644531 224.605469 290.488281 C 224.425781 287.910156 224.167969 285.347656 223.914062 282.769531 C 223.597656 279.671875 223.308594 276.546875 222.90625 273.460938 C 222.664062 271.601562 222.433594 269.511719 221.085938 268.078125 C 218.410156 265.222656 213.089844 266.097656 209.628906 266.21875 C 202.972656 266.4375 196.363281 267.164062 189.804688 268.355469 C 187.023438 268.867188 183.550781 269.195312 180.960938 270.496094 " fill-opacity="1" fill-rule="evenodd"/><path fill="#000000" d="M 208.667969 299.554688 C 203.992188 299.554688 199.316406 298.910156 194.761719 298.265625 L 192.78125 297.988281 C 192.550781 297.949219 192.257812 297.925781 191.953125 297.890625 C 189.609375 297.632812 186.074219 297.246094 184.824219 295.058594 C 184.132812 293.855469 183.902344 292.3125 183.707031 290.9375 C 183.644531 290.5 183.585938 290.085938 183.511719 289.710938 C 182.867188 286.476562 182.164062 283.183594 181.351562 279.671875 C 181.167969 278.894531 180.996094 278.117188 180.828125 277.335938 C 180.609375 276.367188 180.390625 275.394531 180.160156 274.433594 C 180.027344 273.875 179.878906 273.316406 179.722656 272.757812 C 179.46875 271.992188 179.25 271.296875 179.710938 270.691406 C 179.613281 270.144531 179.878906 269.582031 180.402344 269.316406 C 182.636719 268.199219 185.394531 267.75 187.835938 267.359375 C 188.433594 267.261719 189.027344 267.164062 189.585938 267.066406 C 196.230469 265.851562 202.960938 265.125 209.59375 264.90625 C 210.113281 264.894531 210.675781 264.855469 211.257812 264.820312 C 214.851562 264.601562 219.347656 264.320312 222.019531 267.175781 C 223.609375 268.867188 223.914062 271.226562 224.15625 273.121094 L 224.183594 273.277344 C 224.546875 276.023438 224.824219 278.832031 225.09375 281.542969 L 225.203125 282.625 C 225.433594 284.871094 225.710938 287.679688 225.894531 290.378906 C 225.90625 290.585938 225.929688 290.816406 225.957031 291.046875 C 226.078125 292.25 226.234375 293.757812 225.589844 294.996094 C 224.945312 296.238281 223.574219 296.757812 222.566406 297.148438 L 222.152344 297.316406 C 219.273438 298.507812 215.933594 299.191406 211.644531 299.46875 C 210.648438 299.53125 209.664062 299.554688 208.667969 299.554688 Z M 182.03125 271.554688 C 182.066406 271.6875 182.117188 271.832031 182.152344 271.929688 C 182.152344 271.941406 182.1875 272.050781 182.199219 272.0625 C 182.371094 272.660156 182.527344 273.253906 182.664062 273.851562 C 182.894531 274.835938 183.113281 275.804688 183.332031 276.789062 C 183.5 277.570312 183.671875 278.335938 183.851562 279.101562 C 184.679688 282.648438 185.394531 285.96875 186.039062 289.222656 C 186.125 289.636719 186.183594 290.097656 186.257812 290.585938 C 186.429688 291.714844 186.609375 293.003906 187.058594 293.792969 C 187.65625 294.839844 190.863281 295.191406 192.234375 295.347656 C 192.574219 295.386719 192.878906 295.421875 193.132812 295.457031 L 195.125 295.738281 C 200.507812 296.492188 206.082031 297.257812 211.476562 296.90625 C 215.472656 296.636719 218.558594 296.019531 221.179688 294.949219 L 221.65625 294.765625 C 222.238281 294.546875 223.125 294.207031 223.320312 293.832031 C 223.609375 293.285156 223.488281 292.203125 223.402344 291.339844 C 223.378906 291.070312 223.355469 290.816406 223.332031 290.585938 C 223.160156 288.128906 222.917969 285.761719 222.640625 282.917969 L 222.53125 281.835938 C 222.261719 279.136719 221.984375 276.351562 221.628906 273.644531 L 221.605469 273.484375 C 221.386719 271.796875 221.167969 270.058594 220.148438 268.976562 C 218.300781 267.007812 214.488281 267.238281 211.414062 267.433594 C 210.796875 267.46875 210.210938 267.503906 209.679688 267.53125 C 203.179688 267.75 196.570312 268.453125 190.046875 269.644531 C 189.476562 269.753906 188.871094 269.851562 188.25 269.949219 C 186.183594 270.277344 183.863281 270.652344 182.042969 271.445312 C 182.042969 271.457031 182.042969 271.503906 182.03125 271.554688 Z M 182.03125 271.554688 " fill-opacity="1" fill-rule="nonzero"/><path fill="#ff431d" d="M 206.640625 273.277344 C 185.664062 281.496094 160.09375 273.4375 141.53125 260.589844 C 96.246094 229.269531 73.152344 144.074219 103.632812 96.980469 C 109.886719 87.316406 120.917969 79.152344 131.546875 74.3125 C 149.257812 66.269531 196.109375 66.378906 204.734375 75.664062 C 204.953125 75.90625 205.171875 76.136719 205.378906 76.378906 C 205.765625 75.894531 206.179688 75.417969 206.605469 74.957031 C 215.230469 65.660156 262.082031 65.550781 279.792969 73.609375 C 290.421875 78.445312 301.464844 86.613281 307.707031 96.273438 C 338.183594 143.371094 315.105469 228.566406 269.808594 259.886719 C 251.828125 272.332031 227.242188 280.292969 206.640625 273.277344 Z M 206.640625 273.277344 " fill-opacity="1" fill-rule="evenodd"/><path fill="#000000" d="M 188.238281 277.886719 C 170.953125 277.886719 153.421875 270.386719 140.789062 261.648438 C 118.851562 246.480469 100.960938 217.835938 92.917969 185.007812 C 84.574219 150.964844 88.082031 118.625 102.550781 96.273438 C 108.40625 87.234375 119.046875 78.578125 131.011719 73.148438 C 148.515625 65.1875 195.234375 64.738281 205.339844 74.445312 C 205.449219 74.324219 205.558594 74.203125 205.667969 74.082031 C 215.011719 64.019531 262.617188 64.382812 280.339844 72.429688 C 292.304688 77.875 302.957031 86.527344 308.800781 95.570312 C 323.265625 117.921875 326.777344 150.261719 318.433594 184.300781 C 310.390625 217.128906 292.484375 245.773438 270.558594 260.941406 C 254.0625 272.355469 228.675781 281.894531 206.675781 274.640625 C 200.726562 276.898438 194.492188 277.886719 188.238281 277.886719 Z M 169.300781 69.839844 C 155.234375 69.839844 140.449219 71.6875 132.082031 75.492188 C 120.539062 80.742188 110.3125 89.03125 104.710938 97.683594 C 73.421875 146.042969 99.332031 229.855469 142.261719 259.53125 C 159.035156 271.128906 184.628906 280.511719 206.167969 272.074219 C 206.445312 271.964844 206.761719 271.953125 207.054688 272.050781 C 228.25 279.269531 253.007812 269.949219 269.089844 258.828125 C 312.019531 229.148438 337.929688 145.328125 306.636719 96.980469 C 301.039062 88.339844 290.808594 80.039062 279.269531 74.789062 C 261.609375 66.753906 215.363281 67.433594 207.5625 75.84375 C 207.152344 76.28125 206.761719 76.730469 206.398438 77.207031 C 206.15625 77.511719 205.804688 77.679688 205.414062 77.691406 C 205.039062 77.679688 204.671875 77.535156 204.417969 77.242188 C 204.222656 77.011719 204.015625 76.78125 203.8125 76.5625 C 199.691406 72.125 184.933594 69.839844 169.300781 69.839844 Z M 169.300781 69.839844 " fill-opacity="1" fill-rule="nonzero"/><path fill="#000000" d="M 205.667969 11.347656 C 205.765625 11.261719 205.875 11.164062 205.972656 11.078125 C 205.972656 11.152344 207.710938 11.40625 207.796875 11.417969 C 212.179688 12.246094 216.542969 13.191406 220.914062 14.082031 C 221.933594 14.289062 223.003906 14.507812 224.011719 14.726562 C 243.070312 18.855469 261.886719 24.167969 280.75 29.113281 C 286.375 30.585938 296.96875 33.1875 304.085938 35.375 C 304.269531 35.433594 293.007812 40.574219 291.269531 41.4375 C 280.65625 46.675781 269.371094 51.511719 260.175781 56.203125 L 259.203125 68.929688 C 255.765625 70.765625 241.820312 73.621094 237.167969 74.496094 C 228.289062 76.171875 222.214844 77.046875 216.066406 77.460938 C 215.144531 77.59375 214.171875 77.667969 213.140625 77.691406 C 210.417969 77.742188 207.964844 77.765625 205.679688 77.765625 C 203.398438 77.765625 200.945312 77.742188 198.222656 77.691406 C 197.191406 77.667969 196.21875 77.59375 195.296875 77.460938 C 189.148438 77.046875 183.074219 76.171875 174.195312 74.496094 C 169.554688 73.621094 155.597656 70.765625 152.160156 68.929688 L 151.1875 56.203125 C 142.003906 51.527344 130.707031 46.675781 120.089844 41.4375 C 118.34375 40.574219 107.09375 35.433594 107.277344 35.375 C 114.394531 33.1875 124.988281 30.585938 130.609375 29.113281 C 149.476562 24.167969 168.292969 18.867188 187.351562 14.726562 C 188.359375 14.507812 189.429688 14.289062 190.449219 14.082031 C 194.820312 13.179688 199.183594 12.246094 203.566406 11.417969 C 203.652344 11.40625 205.378906 11.152344 205.390625 11.078125 C 205.476562 11.164062 205.570312 11.25 205.667969 11.347656 Z M 205.667969 11.347656 " fill-opacity="1" fill-rule="evenodd"/><g clip-path="url(#2e6c1db239)"><path fill="#000000" d="M 205.816406 79.054688 C 205.71875 79.054688 205.632812 79.054688 205.535156 79.054688 C 203.289062 79.054688 200.871094 79.027344 198.1875 78.980469 C 197.117188 78.957031 196.085938 78.882812 195.089844 78.738281 C 189.136719 78.335938 183.183594 77.496094 173.929688 75.757812 C 173.1875 75.625 155.707031 72.296875 151.527344 70.058594 C 151.140625 69.851562 150.882812 69.464844 150.847656 69.027344 L 149.925781 57.03125 C 145.199219 54.648438 140 52.242188 134.496094 49.691406 C 129.554688 47.40625 124.441406 45.046875 119.496094 42.605469 C 118.851562 42.289062 116.882812 41.378906 114.6875 40.355469 C 105.890625 36.273438 105.890625 36.273438 105.964844 35.3125 C 106 34.777344 106.363281 34.328125 106.875 34.171875 C 112.367188 32.480469 120.019531 30.523438 125.617188 29.089844 C 127.367188 28.640625 128.945312 28.238281 130.257812 27.898438 C 134.632812 26.757812 139.003906 25.589844 143.378906 24.421875 C 157.636719 20.621094 172.386719 16.679688 187.058594 13.496094 C 188.078125 13.277344 189.148438 13.058594 190.167969 12.839844 L 193.910156 12.0625 C 197.03125 11.417969 200.167969 10.761719 203.300781 10.167969 L 203.542969 10.128906 C 204.332031 10.007812 204.683594 9.949219 204.84375 9.910156 C 204.84375 9.910156 204.855469 9.910156 204.855469 9.910156 C 205.109375 9.800781 205.402344 9.777344 205.667969 9.851562 C 205.9375 9.789062 206.214844 9.800781 206.484375 9.910156 C 206.484375 9.910156 206.496094 9.910156 206.496094 9.910156 C 206.652344 9.949219 207.003906 10.007812 207.808594 10.128906 L 208.0625 10.167969 C 211.183594 10.761719 214.316406 11.40625 217.453125 12.0625 L 221.179688 12.828125 C 222.203125 13.035156 223.28125 13.253906 224.292969 13.484375 C 238.964844 16.667969 253.722656 20.605469 267.984375 24.410156 C 272.347656 25.578125 276.71875 26.746094 281.09375 27.886719 C 282.402344 28.226562 283.996094 28.640625 285.730469 29.078125 C 291.332031 30.511719 298.984375 32.46875 304.476562 34.15625 C 304.984375 34.316406 305.351562 34.765625 305.386719 35.300781 C 305.449219 36.261719 305.449219 36.261719 296.664062 40.34375 C 294.464844 41.363281 292.5 42.277344 291.855469 42.59375 C 286.898438 45.035156 281.796875 47.394531 276.851562 49.679688 C 271.351562 52.21875 266.152344 54.625 261.425781 57.019531 L 260.503906 69.015625 C 260.464844 69.453125 260.210938 69.839844 259.820312 70.046875 C 255.644531 72.285156 238.164062 75.601562 237.421875 75.746094 C 228.179688 77.496094 222.214844 78.335938 216.164062 78.738281 C 215.277344 78.871094 214.234375 78.957031 213.175781 78.96875 C 210.480469 79.027344 208.074219 79.054688 205.816406 79.054688 Z M 205.667969 76.476562 C 207.929688 76.464844 210.394531 76.453125 213.117188 76.402344 C 214.074219 76.390625 215.011719 76.304688 215.886719 76.183594 C 221.921875 75.773438 227.800781 74.945312 236.9375 73.21875 C 243.640625 71.957031 254.34375 69.609375 257.976562 68.078125 L 258.886719 56.109375 C 258.921875 55.65625 259.191406 55.257812 259.589844 55.0625 C 264.523438 52.546875 269.976562 50.03125 275.746094 47.355469 C 280.679688 45.085938 285.769531 42.726562 290.6875 40.296875 C 291.34375 39.96875 293.335938 39.042969 295.558594 38.011719 C 297.078125 37.304688 298.996094 36.417969 300.550781 35.675781 C 295.570312 34.253906 289.644531 32.734375 285.078125 31.570312 C 283.328125 31.121094 281.734375 30.71875 280.410156 30.367188 C 276.039062 29.222656 271.664062 28.058594 267.304688 26.890625 C 253.066406 23.097656 238.34375 19.160156 223.71875 16 C 222.710938 15.78125 221.644531 15.5625 220.636719 15.355469 L 216.90625 14.589844 C 213.785156 13.945312 210.675781 13.289062 207.539062 12.707031 L 207.394531 12.683594 C 206.96875 12.621094 206.59375 12.5625 206.277344 12.5 C 205.898438 12.707031 205.425781 12.707031 205.050781 12.5 C 204.734375 12.5625 204.371094 12.621094 203.933594 12.683594 L 203.761719 12.707031 C 200.652344 13.304688 197.542969 13.945312 194.433594 14.589844 L 190.679688 15.367188 C 189.671875 15.574219 188.601562 15.792969 187.59375 16.011719 C 172.980469 19.183594 158.257812 23.109375 144.035156 26.902344 C 139.660156 28.070312 135.289062 29.234375 130.902344 30.378906 C 129.578125 30.71875 128 31.132812 126.238281 31.582031 C 121.683594 32.75 115.742188 34.265625 110.761719 35.691406 C 112.316406 36.417969 114.234375 37.316406 115.753906 38.023438 C 117.976562 39.054688 119.96875 39.980469 120.625 40.308594 C 125.546875 42.738281 130.648438 45.097656 135.578125 47.367188 C 141.347656 50.042969 146.804688 52.558594 151.734375 55.074219 C 152.136719 55.28125 152.402344 55.667969 152.441406 56.121094 L 153.363281 68.089844 C 156.996094 69.632812 167.695312 71.96875 174.402344 73.230469 C 183.535156 74.957031 189.417969 75.785156 195.34375 76.183594 C 196.328125 76.320312 197.25 76.390625 198.210938 76.414062 C 200.871094 76.464844 203.277344 76.488281 205.511719 76.488281 C 205.585938 76.476562 205.632812 76.476562 205.667969 76.476562 Z M 205.667969 76.476562 " fill-opacity="1" fill-rule="nonzero"/></g><path fill="#fff100" d="M 124.914062 107.214844 L 110.203125 107.214844 L 113.882812 67.265625 L 121.234375 67.265625 Z M 124.914062 107.214844 " fill-opacity="1" fill-rule="evenodd"/><path fill="#000000" d="M 124.914062 108.5 L 110.203125 108.5 C 109.839844 108.5 109.5 108.34375 109.253906 108.074219 C 109.011719 107.808594 108.890625 107.457031 108.929688 107.089844 L 112.609375 67.144531 C 112.667969 66.472656 113.226562 65.976562 113.894531 65.976562 L 121.246094 65.976562 C 121.914062 65.976562 122.472656 66.488281 122.53125 67.144531 L 126.214844 107.089844 C 126.25 107.457031 126.128906 107.808594 125.886719 108.074219 C 125.617188 108.34375 125.277344 108.5 124.914062 108.5 Z M 111.613281 105.925781 L 123.492188 105.925781 L 120.054688 68.550781 L 115.050781 68.550781 Z M 111.613281 105.925781 " fill-opacity="1" fill-rule="nonzero"/><path fill="#ff431d" d="M 117.566406 60.871094 C 121.125 60.871094 124.015625 63.765625 124.015625 67.324219 C 124.015625 70.886719 121.125 73.777344 117.566406 73.777344 C 114.003906 73.777344 111.113281 70.886719 111.113281 67.324219 C 111.101562 63.765625 113.992188 60.871094 117.566406 60.871094 Z M 117.566406 60.871094 " fill-opacity="1" fill-rule="evenodd"/><path fill="#000000" d="M 117.566406 75.066406 C 113.300781 75.066406 109.828125 71.589844 109.828125 67.324219 C 109.828125 63.058594 113.300781 59.582031 117.566406 59.582031 C 121.828125 59.582031 125.300781 63.058594 125.300781 67.324219 C 125.300781 71.589844 121.828125 75.066406 117.566406 75.066406 Z M 117.566406 62.160156 C 114.722656 62.160156 112.402344 64.480469 112.402344 67.324219 C 112.402344 70.167969 114.722656 72.492188 117.566406 72.492188 C 120.40625 72.492188 122.726562 70.167969 122.726562 67.324219 C 122.726562 64.480469 120.40625 62.160156 117.566406 62.160156 Z M 117.566406 62.160156 " fill-opacity="1" fill-rule="nonzero"/><path fill="#000000" d="M 118.050781 62.109375 C 117.332031 62.109375 116.761719 61.539062 116.761719 60.824219 L 116.761719 40.210938 C 116.761719 39.492188 117.332031 38.921875 118.050781 38.921875 C 118.765625 38.921875 119.339844 39.492188 119.339844 40.210938 L 119.339844 60.824219 C 119.339844 61.539062 118.753906 62.109375 118.050781 62.109375 Z M 118.050781 62.109375 " fill-opacity="1" fill-rule="nonzero"/><path fill="#2dcc7d" d="M 226.515625 288.484375 C 226.527344 288.554688 226.355469 288.484375 226.28125 288.496094 C 225.371094 288.554688 224.472656 288.714844 223.5625 288.8125 C 221.351562 289.042969 219.128906 289.152344 216.917969 289.308594 C 209.800781 289.820312 202.5 290 195.367188 289.578125 C 192.089844 289.382812 187.15625 288.09375 183.949219 289.042969 C 181.179688 289.867188 180.9375 299.238281 180.730469 301.679688 C 180.683594 302.242188 180.972656 304.925781 180.4375 305.277344 C 179.832031 305.679688 176.671875 303.746094 176.042969 303.554688 C 171.863281 302.242188 167.320312 301.789062 162.972656 302.289062 C 145.902344 304.269531 131.835938 315.28125 128.703125 332.550781 C 128.070312 336.039062 127.390625 340.304688 128.316406 343.828125 C 129.042969 346.613281 134.351562 347.753906 136.550781 348.519531 C 145.734375 351.742188 155.210938 353.441406 164.9375 353.480469 C 175.496094 353.515625 186.171875 351.949219 196.316406 349.066406 C 200.03125 348.011719 207.320312 344.328125 210.578125 343.964844 C 211.984375 343.804688 214.234375 345.167969 215.558594 345.554688 C 218.800781 346.503906 222.09375 347.195312 225.445312 347.632812 C 237.640625 349.238281 260.988281 349.941406 284.382812 338.058594 C 286.425781 337.023438 290.578125 335.066406 291.832031 332.929688 C 294.527344 328.308594 291.574219 320.472656 289.304688 316.386719 C 282.308594 303.882812 265.179688 297.136719 251.355469 298.398438 C 246.933594 298.800781 242.707031 299.957031 238.625 301.679688 C 237.8125 302.023438 234.75 304.210938 233.875 303.917969 C 232.820312 303.554688 232.078125 301.050781 231.761719 300.164062 C 230.449219 296.527344 228.542969 291.835938 226.515625 288.484375 Z M 226.515625 288.484375 " fill-opacity="1" fill-rule="evenodd"/><g clip-path="url(#c0b534b32c)"><path fill="#000000" d="M 165.316406 354.769531 C 165.195312 354.769531 165.074219 354.769531 164.9375 354.769531 C 155.246094 354.730469 145.550781 353.042969 136.125 349.738281 C 135.785156 349.613281 135.359375 349.492188 134.898438 349.347656 C 132.09375 348.484375 127.867188 347.183594 127.074219 344.15625 C 126.105469 340.464844 126.746094 336.113281 127.441406 332.320312 C 130.488281 315.4375 144.386719 303.152344 162.824219 301.011719 C 167.34375 300.492188 172.046875 300.941406 176.429688 302.324219 C 176.710938 302.410156 177.0625 302.59375 177.71875 302.933594 C 178.117188 303.140625 178.871094 303.527344 179.480469 303.785156 C 179.492188 303.320312 179.46875 302.789062 179.457031 302.507812 C 179.441406 302.082031 179.429688 301.742188 179.441406 301.570312 C 179.46875 301.292969 179.492188 300.914062 179.515625 300.464844 C 179.878906 294.816406 180.523438 288.714844 183.574219 287.800781 C 186.074219 287.0625 189.320312 287.511719 192.1875 287.910156 C 193.363281 288.082031 194.480469 288.226562 195.429688 288.289062 C 201.878906 288.664062 209.070312 288.578125 216.808594 288.019531 C 217.476562 287.972656 218.132812 287.9375 218.800781 287.886719 C 220.320312 287.789062 221.886719 287.691406 223.417969 287.523438 C 223.746094 287.484375 224.085938 287.4375 224.414062 287.402344 C 224.996094 287.328125 225.589844 287.242188 226.1875 287.207031 C 226.222656 287.207031 226.269531 287.207031 226.320312 287.207031 C 226.816406 287.132812 227.328125 287.363281 227.59375 287.8125 C 229.902344 291.617188 231.945312 296.917969 232.964844 299.738281 L 233.097656 300.101562 C 233.644531 301.695312 233.996094 302.363281 234.226562 302.617188 C 234.847656 302.410156 236.171875 301.621094 236.765625 301.257812 C 237.421875 300.855469 237.8125 300.625 238.113281 300.503906 C 242.464844 298.65625 246.886719 297.523438 251.234375 297.125 C 264.488281 295.921875 282.730469 302.046875 290.421875 315.765625 C 291.066406 316.921875 296.628906 327.242188 292.949219 333.585938 C 291.707031 335.699219 288.597656 337.386719 285.511719 338.945312 L 284.980469 339.210938 C 261.097656 351.339844 237.335938 350.503906 225.289062 348.910156 C 221.886719 348.460938 218.496094 347.753906 215.203125 346.796875 C 214.683594 346.648438 214.097656 346.394531 213.480469 346.113281 C 212.570312 345.714844 211.292969 345.167969 210.722656 345.238281 C 208.984375 345.433594 205.644531 346.808594 202.691406 348.035156 C 200.421875 348.972656 198.285156 349.859375 196.679688 350.308594 C 186.234375 353.261719 175.691406 354.769531 165.316406 354.769531 Z M 166.519531 303.371094 C 165.375 303.371094 164.246094 303.429688 163.117188 303.566406 C 145.5625 305.605469 132.871094 316.800781 129.980469 332.769531 C 129.347656 336.28125 128.738281 340.292969 129.578125 343.488281 C 130.015625 345.128906 133.695312 346.261719 135.675781 346.867188 C 136.175781 347.027344 136.625 347.160156 137 347.292969 C 146.148438 350.503906 155.5625 352.144531 164.964844 352.179688 C 175.253906 352.191406 185.648438 350.746094 195.988281 347.816406 C 197.445312 347.402344 199.523438 346.550781 201.722656 345.640625 C 204.976562 344.292969 208.355469 342.90625 210.457031 342.675781 C 211.730469 342.53125 213.226562 343.171875 214.523438 343.757812 C 215.058594 343.988281 215.570312 344.21875 215.933594 344.316406 C 219.105469 345.238281 222.359375 345.921875 225.640625 346.359375 C 237.386719 347.902344 260.5625 348.726562 283.824219 336.914062 L 284.371094 336.636719 C 286.265625 335.6875 289.789062 333.925781 290.738281 332.285156 C 292.839844 328.675781 290.894531 321.84375 288.199219 317.019531 C 281.042969 304.246094 263.941406 298.558594 251.488281 299.6875 C 247.40625 300.066406 243.253906 301.132812 239.148438 302.871094 C 238.988281 302.933594 238.503906 303.226562 238.113281 303.46875 C 235.964844 304.757812 234.578125 305.523438 233.472656 305.144531 C 232.054688 304.660156 231.3125 302.800781 230.679688 300.941406 L 230.558594 300.613281 C 229.636719 298.046875 227.851562 293.378906 225.808594 289.832031 C 225.46875 289.867188 225.117188 289.917969 224.765625 289.964844 C 224.414062 290.015625 224.046875 290.0625 223.695312 290.097656 C 222.117188 290.269531 220.511719 290.367188 218.96875 290.464844 C 218.316406 290.5 217.660156 290.546875 217.003906 290.597656 C 209.15625 291.15625 201.84375 291.253906 195.285156 290.863281 C 194.238281 290.804688 193.074219 290.644531 191.832031 290.476562 C 189.222656 290.109375 186.269531 289.699219 184.300781 290.292969 C 183.828125 290.4375 182.648438 291.726562 182.078125 300.648438 C 182.054688 301.109375 182.019531 301.5 181.992188 301.804688 C 181.980469 301.925781 181.992188 302.15625 182.007812 302.433594 C 182.078125 304.402344 182.054688 305.753906 181.132812 306.359375 C 180.125 307.042969 178.789062 306.410156 176.515625 305.230469 C 176.113281 305.023438 175.785156 304.851562 175.617188 304.792969 C 172.703125 303.84375 169.589844 303.371094 166.519531 303.371094 Z M 166.519531 303.371094 " fill-opacity="1" fill-rule="nonzero"/></g><path fill="#000000" d="M 145.089844 321.320312 C 141.675781 321.320312 138.335938 320.082031 135.640625 316.363281 C 135.289062 315.875 135.3125 315.21875 135.699219 314.769531 C 136.792969 313.496094 137.996094 312.265625 139.285156 311.136719 C 144.871094 306.203125 151.917969 302.882812 159.789062 301.460938 C 160.042969 301.316406 160.359375 301.257812 160.652344 301.316406 C 161.367188 301.207031 162.085938 301.097656 162.8125 301.011719 C 167.332031 300.492188 172.035156 300.941406 176.417969 302.324219 C 176.808594 302.445312 178.144531 302.96875 179.285156 303.429688 L 179.429688 301.570312 C 179.457031 301.292969 179.480469 300.914062 179.503906 300.464844 C 179.867188 294.816406 180.511719 288.714844 183.5625 287.800781 C 186.0625 287.0625 189.308594 287.511719 192.171875 287.910156 C 193.351562 288.082031 194.46875 288.226562 195.417969 288.289062 L 195.625 288.300781 C 195.988281 288.324219 196.316406 288.507812 196.546875 288.785156 C 196.777344 289.066406 196.863281 289.429688 196.8125 289.796875 L 196.703125 290.4375 C 196.632812 290.839844 196.570312 291.207031 196.535156 291.507812 C 195.988281 296.382812 195.695312 301.695312 195.636719 307.722656 C 195.636719 308.011719 195.671875 308.449219 195.707031 308.9375 C 195.890625 311.402344 195.964844 313.375 195.027344 314.503906 C 193.886719 315.875 191.675781 315.097656 190.207031 314.589844 C 189.976562 314.515625 189.792969 314.441406 189.660156 314.40625 C 185.445312 313.289062 181.570312 312.765625 177.777344 312.800781 C 172.894531 312.851562 168.023438 313.6875 163.300781 315.304688 C 161.746094 315.839844 160.019531 316.605469 158.199219 317.421875 C 156.75 318.0625 155.257812 318.734375 153.738281 319.328125 C 151.054688 320.386719 148.042969 321.320312 145.089844 321.320312 Z M 138.347656 315.65625 C 141.507812 319.339844 145.78125 319.691406 152.804688 316.933594 C 154.273438 316.363281 155.730469 315.707031 157.152344 315.074219 C 157.980469 314.710938 158.78125 314.34375 159.558594 314.015625 C 157.820312 311.355469 153.945312 309.835938 152.234375 309.277344 C 151.066406 308.902344 150.105469 308.65625 149.21875 308.511719 C 148.90625 308.464844 148.589844 308.414062 148.273438 308.414062 C 148.261719 308.414062 148.101562 308.4375 148.042969 308.449219 C 147.882812 308.476562 147.738281 308.464844 147.59375 308.425781 C 145.210938 309.738281 142.988281 311.292969 140.984375 313.070312 C 140.0625 313.882812 139.175781 314.746094 138.347656 315.65625 Z M 151.757812 306.433594 C 152.160156 306.542969 152.585938 306.675781 153.035156 306.824219 C 155.609375 307.660156 159.996094 309.542969 161.988281 313.042969 C 162.144531 312.984375 162.316406 312.921875 162.472656 312.875 C 164.515625 312.183594 166.566406 311.621094 168.644531 311.199219 C 167.246094 308.390625 165.460938 306.347656 163.300781 305.097656 C 162.777344 304.792969 162.15625 304.585938 161.5 304.367188 C 161.125 304.246094 160.75 304.125 160.371094 303.964844 C 157.371094 304.5 154.480469 305.328125 151.757812 306.433594 Z M 181.847656 310.394531 C 184.570312 310.636719 187.375 311.136719 190.328125 311.914062 C 190.507812 311.964844 190.765625 312.046875 191.066406 312.15625 C 191.203125 312.207031 191.410156 312.277344 191.640625 312.351562 C 189.851562 310.308594 187.496094 308.609375 185.199219 307.769531 C 184.09375 307.355469 182.976562 307.066406 181.898438 306.882812 C 181.789062 306.859375 181.570312 306.824219 181.324219 306.773438 C 180.972656 306.714844 180.160156 306.554688 179.953125 306.542969 C 179.917969 306.542969 179.890625 306.542969 179.855469 306.53125 C 180.574219 307.699219 181.15625 308.9375 181.714844 310.105469 Z M 165.449219 303.394531 C 167.84375 305.035156 169.808594 307.503906 171.292969 310.734375 C 173.441406 310.417969 175.605469 310.25 177.765625 310.238281 C 178.15625 310.238281 178.53125 310.238281 178.921875 310.238281 C 177.886719 308.085938 176.722656 306.007812 174.777344 304.878906 C 174.183594 304.523438 173.492188 304.28125 172.847656 304.074219 C 172.796875 304.0625 172.738281 304.039062 172.6875 304.015625 C 170.308594 303.515625 167.855469 303.308594 165.449219 303.394531 Z M 181.8125 304.257812 C 182.03125 304.292969 182.210938 304.332031 182.308594 304.355469 C 183.5625 304.5625 184.835938 304.902344 186.101562 305.363281 C 188.664062 306.3125 191.203125 308.074219 193.21875 310.273438 C 193.195312 309.824219 193.167969 309.421875 193.144531 309.15625 C 193.097656 308.574219 193.058594 308.074219 193.074219 307.722656 C 193.132812 301.597656 193.4375 296.199219 193.984375 291.242188 C 193.996094 291.09375 194.019531 290.9375 194.042969 290.765625 C 193.339844 290.695312 192.597656 290.585938 191.832031 290.476562 C 189.222656 290.109375 186.269531 289.699219 184.300781 290.292969 C 183.828125 290.4375 182.648438 291.726562 182.078125 300.648438 C 182.054688 301.109375 182.019531 301.5 181.992188 301.804688 Z M 270.632812 316.789062 C 268.691406 316.789062 266.734375 315.851562 265.058594 315.050781 C 264.558594 314.808594 264.074219 314.578125 263.636719 314.394531 L 263.296875 314.25 C 259.347656 312.644531 255.195312 311.746094 250.941406 311.574219 C 245.195312 311.332031 238.902344 312.132812 231.6875 314.03125 C 231.371094 314.113281 230.765625 314.320312 230.023438 314.578125 C 225.433594 316.132812 223.199219 316.738281 222.042969 316.179688 C 217.9375 314.175781 215.8125 299.871094 215.726562 299.261719 C 214.984375 294.132812 214.378906 289.5625 214.378906 289.5625 C 214.332031 289.210938 214.425781 288.859375 214.660156 288.578125 C 214.875 288.300781 215.203125 288.128906 215.570312 288.105469 C 216.214844 288.058594 216.953125 288.007812 217.730469 287.960938 C 219.675781 287.839844 221.875 287.691406 223.417969 287.523438 C 223.746094 287.484375 224.085938 287.4375 224.414062 287.402344 C 224.996094 287.328125 225.589844 287.242188 226.1875 287.207031 C 226.222656 287.207031 226.269531 287.207031 226.320312 287.207031 C 226.816406 287.132812 227.328125 287.363281 227.59375 287.8125 C 229.902344 291.617188 231.945312 296.917969 232.964844 299.738281 L 233.097656 300.101562 C 233.597656 301.558594 233.9375 302.226562 234.167969 302.53125 C 234.457031 302.351562 234.785156 302.191406 235.152344 302.179688 C 235.734375 301.863281 236.390625 301.476562 236.765625 301.242188 C 237.421875 300.84375 237.8125 300.613281 238.113281 300.492188 C 242.464844 298.644531 246.886719 297.511719 251.234375 297.113281 C 259.335938 296.371094 268.363281 298.277344 276.015625 302.324219 C 277.046875 302.871094 278.042969 303.457031 278.992188 304.050781 C 279.402344 304.320312 279.632812 304.792969 279.574219 305.289062 C 278.964844 310.445312 276.644531 314.320312 273.039062 316.191406 C 272.261719 316.628906 271.445312 316.789062 270.632812 316.789062 Z M 258.085938 309.933594 C 260.1875 310.40625 262.25 311.050781 264.269531 311.867188 L 264.632812 312.011719 C 265.105469 312.207031 265.628906 312.460938 266.175781 312.714844 C 268.128906 313.652344 270.328125 314.710938 271.859375 313.921875 C 275.296875 312.132812 276.5 308.339844 276.914062 305.800781 C 276.234375 305.386719 275.527344 304.988281 274.8125 304.609375 C 272.066406 303.164062 269.140625 301.996094 266.152344 301.160156 C 266.042969 301.207031 265.921875 301.230469 265.785156 301.242188 C 265.375 301.292969 264.292969 302.226562 263.890625 302.582031 C 263.722656 302.726562 263.5625 302.859375 263.429688 302.96875 C 260.84375 305.121094 259.082031 307.40625 258.085938 309.933594 Z M 217.113281 290.585938 C 217.34375 292.3125 217.78125 295.472656 218.265625 298.886719 C 219.09375 304.539062 220.925781 311.210938 222.542969 313.289062 C 224.472656 310.261719 227.316406 307.417969 231.203125 304.585938 C 231.496094 304.367188 231.773438 304.171875 232.042969 303.992188 C 231.457031 303.175781 231.046875 302.058594 230.65625 300.941406 L 230.535156 300.613281 C 229.613281 298.046875 227.824219 293.378906 225.785156 289.832031 C 225.445312 289.867188 225.09375 289.917969 224.742188 289.964844 C 224.386719 290.015625 224.023438 290.0625 223.671875 290.097656 C 222.066406 290.269531 219.84375 290.414062 217.878906 290.535156 C 217.632812 290.546875 217.367188 290.5625 217.113281 290.585938 Z M 235.101562 305.035156 C 235.066406 305.058594 235.042969 305.085938 235.015625 305.097656 C 234.324219 305.535156 233.597656 306.03125 232.722656 306.664062 C 229.722656 308.839844 227.414062 311.015625 225.699219 313.25 C 227 312.875 228.421875 312.386719 229.1875 312.121094 C 230.011719 311.839844 230.679688 311.609375 231.03125 311.527344 C 232.527344 311.136719 233.984375 310.785156 235.417969 310.492188 C 236.28125 307.539062 237.640625 304.949219 239.464844 302.738281 C 239.355469 302.789062 239.230469 302.835938 239.121094 302.882812 C 238.964844 302.945312 238.480469 303.238281 238.089844 303.480469 C 236.886719 304.195312 235.917969 304.757812 235.101562 305.035156 Z M 245.425781 300.746094 C 245.367188 300.820312 245.292969 300.878906 245.207031 300.941406 C 241.941406 303.210938 239.667969 306.167969 238.308594 309.945312 C 240.980469 309.484375 243.542969 309.179688 246 309.046875 C 246.351562 305.875 247.734375 302.554688 249.789062 300.027344 L 249.910156 299.882812 C 248.414062 300.066406 246.921875 300.355469 245.425781 300.746094 Z M 248.960938 308.960938 C 249.667969 308.960938 250.359375 308.972656 251.050781 309.011719 C 252.558594 309.070312 254.050781 309.214844 255.523438 309.449219 C 256.640625 306.324219 258.703125 303.554688 261.800781 301 C 261.910156 300.902344 262.046875 300.78125 262.203125 300.660156 C 262.324219 300.550781 262.457031 300.441406 262.589844 300.332031 C 259.699219 299.773438 256.785156 299.507812 253.96875 299.566406 C 253.90625 299.601562 253.832031 299.640625 253.773438 299.664062 C 253.214844 299.882812 252.484375 300.78125 252.011719 301.390625 L 251.792969 301.65625 C 250.117188 303.722656 248.960938 306.398438 248.609375 308.972656 C 248.71875 308.960938 248.839844 308.960938 248.960938 308.960938 Z M 248.960938 308.960938 " fill-opacity="1" fill-rule="nonzero"/><path fill="#fffbfa" d="M 140.132812 312.097656 C 144.582031 312.960938 148.566406 314.796875 152.269531 317.394531 C 152.609375 317.640625 152.9375 317.882812 153.265625 318.125 C 160.917969 323.984375 165.765625 333.304688 166.359375 342.917969 C 166.433594 344.023438 166.457031 345.179688 166.398438 346.332031 C 166.273438 348.824219 165.777344 351.339844 164.5625 353.457031 C 154.964844 353.382812 145.613281 351.679688 136.550781 348.496094 C 134.351562 347.71875 129.042969 346.589844 128.316406 343.804688 C 127.730469 341.582031 127.78125 339.054688 128.058594 336.621094 C 128.21875 335.199219 128.460938 333.816406 128.691406 332.527344 C 129.894531 325.902344 132.699219 320.203125 136.660156 315.585938 C 137.753906 314.359375 138.90625 313.191406 140.132812 312.097656 Z M 140.132812 312.097656 " fill-opacity="1" fill-rule="evenodd"/><g clip-path="url(#c3ef59e4e2)"><path fill="#000000" d="M 164.574219 354.769531 C 164.5625 354.769531 164.5625 354.769531 164.574219 354.769531 C 155.003906 354.695312 145.429688 353.003906 136.136719 349.738281 C 135.796875 349.613281 135.371094 349.492188 134.910156 349.347656 C 132.105469 348.484375 127.878906 347.183594 127.089844 344.15625 C 126.542969 342.078125 126.457031 339.574219 126.808594 336.5 C 126.980469 335.03125 127.222656 333.621094 127.453125 332.320312 C 128.65625 325.660156 131.4375 319.753906 135.710938 314.769531 C 136.804688 313.496094 138.007812 312.265625 139.296875 311.136719 C 139.601562 310.871094 140 310.761719 140.390625 310.832031 C 144.847656 311.695312 148.976562 313.507812 153.023438 316.351562 C 153.375 316.59375 153.714844 316.847656 154.066406 317.117188 C 161.964844 323.15625 167.054688 332.78125 167.671875 342.859375 C 167.746094 344.109375 167.757812 345.300781 167.707031 346.417969 C 167.5625 349.46875 166.882812 352.058594 165.703125 354.125 C 165.460938 354.511719 165.035156 354.769531 164.574219 354.769531 Z M 140.523438 313.484375 C 139.503906 314.417969 138.542969 315.414062 137.65625 316.4375 C 133.683594 321.066406 131.097656 326.558594 129.980469 332.769531 C 129.75 334.035156 129.515625 335.382812 129.359375 336.78125 C 129.042969 339.539062 129.117188 341.726562 129.578125 343.488281 C 130.015625 345.128906 133.695312 346.261719 135.675781 346.867188 C 136.175781 347.027344 136.625 347.160156 137 347.292969 C 145.78125 350.367188 154.796875 352.007812 163.820312 352.167969 C 164.585938 350.574219 165.023438 348.59375 165.144531 346.273438 C 165.195312 345.25 165.183594 344.15625 165.109375 343.003906 C 164.527344 333.65625 159.824219 324.738281 152.511719 319.144531 C 152.195312 318.902344 151.878906 318.671875 151.554688 318.441406 C 147.980469 315.949219 144.375 314.320312 140.523438 313.484375 Z M 140.523438 313.484375 " fill-opacity="1" fill-rule="nonzero"/></g><path fill="#fffbfa" d="M 275.417969 303.480469 C 276.402344 304.003906 277.375 304.5625 278.308594 305.15625 C 282.878906 308.074219 286.765625 311.855469 289.304688 316.398438 C 290.480469 318.5 291.832031 321.589844 292.484375 324.722656 C 293.117188 327.691406 293.128906 330.691406 291.832031 332.929688 C 290.578125 335.066406 286.425781 337.023438 284.382812 338.058594 C 277.472656 341.570312 270.574219 343.976562 263.964844 345.59375 C 263.855469 345.542969 263.746094 345.496094 263.636719 345.445312 C 260.78125 344.121094 258.984375 342.019531 257.953125 339.515625 C 255.910156 334.605469 256.820312 328.175781 258.472656 323.179688 C 259.6875 319.523438 261.449219 316.09375 263.792969 313.046875 C 264.171875 312.558594 264.558594 312.074219 264.972656 311.597656 C 267.851562 308.269531 271.472656 305.496094 275.417969 303.480469 Z M 275.417969 303.480469 " fill-opacity="1" fill-rule="evenodd"/><path fill="#000000" d="M 263.964844 346.890625 C 263.792969 346.890625 263.625 346.855469 263.453125 346.796875 L 263.089844 346.636719 C 260.136719 345.265625 258 343.039062 256.75 340.039062 C 254.125 333.730469 256.214844 325.878906 257.234375 322.804688 C 258.523438 318.925781 260.378906 315.390625 262.75 312.292969 C 263.136719 311.78125 263.550781 311.28125 263.976562 310.785156 C 266.902344 307.394531 270.65625 304.476562 274.8125 302.351562 C 275.1875 302.15625 275.636719 302.167969 276.003906 302.363281 C 277.035156 302.910156 278.03125 303.492188 278.976562 304.085938 C 283.933594 307.246094 287.894531 311.292969 290.410156 315.78125 C 291.125 317.066406 292.886719 320.484375 293.738281 324.46875 C 294.539062 328.238281 294.257812 331.300781 292.9375 333.597656 C 291.695312 335.710938 288.585938 337.402344 285.5 338.957031 L 284.96875 339.222656 C 278.46875 342.53125 271.496094 345.09375 264.269531 346.867188 C 264.171875 346.867188 264.0625 346.890625 263.964844 346.890625 Z M 275.40625 304.9375 C 271.773438 306.882812 268.519531 309.472656 265.945312 312.460938 C 265.554688 312.910156 265.179688 313.375 264.816406 313.847656 C 262.617188 316.714844 260.890625 319.984375 259.699219 323.59375 C 258.765625 326.402344 256.859375 333.523438 259.140625 339.027344 C 260.125 341.386719 261.789062 343.148438 264.097656 344.242188 C 270.984375 342.53125 277.617188 340.0625 283.8125 336.914062 L 284.359375 336.636719 C 286.253906 335.6875 289.777344 333.925781 290.726562 332.285156 C 291.707031 330.582031 291.890625 328.066406 291.234375 324.992188 C 290.699219 322.464844 289.558594 319.484375 288.1875 317.019531 C 285.878906 312.898438 282.222656 309.167969 277.628906 306.238281 C 276.902344 305.789062 276.160156 305.351562 275.40625 304.9375 Z M 275.40625 304.9375 " fill-opacity="1" fill-rule="nonzero"/><path fill="#fffbfa" d="M 164.574219 353.480469 C 154.976562 353.40625 145.625 351.707031 136.5625 348.519531 C 134.363281 347.742188 129.054688 346.613281 128.328125 343.828125 C 127.742188 341.605469 127.792969 339.078125 128.070312 336.648438 C 132.09375 338.53125 135.191406 340.269531 138.871094 341.558594 C 147.617188 344.621094 157.117188 346.539062 166.410156 346.359375 C 166.628906 346.359375 166.847656 346.34375 167.066406 346.34375 C 176.539062 346.054688 186.304688 344.253906 195.355469 341.433594 C 199.621094 340.109375 204.699219 336.574219 209.144531 336.355469 C 211.828125 336.222656 214.960938 337.921875 217.523438 338.578125 C 221.789062 339.671875 226.199219 340.402344 230.570312 340.886719 C 239.792969 341.898438 249.011719 341.421875 257.953125 339.550781 C 265.496094 337.972656 272.84375 335.382812 279.828125 331.847656 C 282.355469 330.570312 288.671875 327.570312 292.484375 324.761719 C 293.117188 327.726562 293.128906 330.726562 291.832031 332.964844 C 290.578125 335.105469 286.425781 337.058594 284.382812 338.09375 C 277.472656 341.605469 270.574219 344.011719 263.964844 345.628906 C 248.183594 349.480469 234.046875 348.800781 225.445312 347.671875 C 222.09375 347.234375 218.800781 346.539062 215.558594 345.59375 C 214.234375 345.203125 211.984375 343.84375 210.578125 344 C 207.320312 344.363281 200.03125 348.046875 196.316406 349.105469 C 186.171875 351.984375 175.496094 353.550781 164.9375 353.515625 C 164.816406 353.480469 164.695312 353.480469 164.574219 353.480469 Z M 164.574219 353.480469 " fill-opacity="1" fill-rule="evenodd"/><g clip-path="url(#55f7ad6c78)"><path fill="#000000" d="M 165.316406 354.769531 C 165.195312 354.769531 165.074219 354.769531 164.9375 354.769531 L 164.5625 354.769531 C 155.003906 354.695312 145.429688 353.003906 136.125 349.738281 C 135.785156 349.613281 135.359375 349.492188 134.898438 349.347656 C 132.09375 348.484375 127.867188 347.183594 127.074219 344.15625 C 126.53125 342.078125 126.445312 339.574219 126.796875 336.5 C 126.84375 336.089844 127.089844 335.722656 127.453125 335.527344 C 127.816406 335.324219 128.253906 335.308594 128.628906 335.492188 C 129.808594 336.050781 130.914062 336.585938 131.984375 337.109375 C 134.558594 338.371094 136.78125 339.464844 139.308594 340.355469 C 148.625 343.609375 157.992188 345.25 166.398438 345.082031 L 167.027344 345.070312 C 175.992188 344.800781 185.664062 343.125 194.96875 340.207031 C 196.484375 339.734375 198.136719 338.957031 199.875 338.128906 C 202.910156 336.695312 206.046875 335.214844 209.070312 335.066406 C 211.136719 334.96875 213.226562 335.734375 215.253906 336.476562 C 216.175781 336.816406 217.050781 337.132812 217.828125 337.339844 C 221.703125 338.335938 226.027344 339.101562 230.691406 339.613281 C 239.71875 340.597656 248.792969 340.160156 257.671875 338.289062 C 265.117188 336.71875 272.382812 334.167969 279.234375 330.691406 L 280.496094 330.058594 C 283.496094 328.566406 288.515625 326.074219 291.707031 323.714844 C 292.0625 323.460938 292.523438 323.386719 292.9375 323.546875 C 293.347656 323.703125 293.640625 324.054688 293.738281 324.480469 C 294.539062 328.25 294.257812 331.3125 292.9375 333.609375 C 291.695312 335.722656 288.585938 337.414062 285.5 338.96875 L 284.96875 339.234375 C 278.46875 342.542969 271.496094 345.105469 264.269531 346.878906 C 248.441406 350.746094 234.335938 350.136719 225.273438 348.945312 C 221.875 348.496094 218.484375 347.792969 215.191406 346.832031 C 214.671875 346.6875 214.085938 346.429688 213.46875 346.152344 C 212.558594 345.75 211.28125 345.203125 210.710938 345.277344 C 208.972656 345.46875 205.632812 346.84375 202.679688 348.070312 C 200.410156 349.007812 198.273438 349.894531 196.667969 350.34375 C 186.234375 353.261719 175.691406 354.769531 165.316406 354.769531 Z M 129.191406 338.605469 C 129.082031 340.535156 129.203125 342.140625 129.566406 343.488281 C 130.003906 345.128906 133.683594 346.261719 135.664062 346.867188 C 136.164062 347.027344 136.613281 347.160156 136.988281 347.292969 C 146.027344 350.464844 155.304688 352.105469 164.585938 352.179688 L 164.953125 352.179688 C 175.167969 352.167969 185.648438 350.746094 195.976562 347.816406 C 197.433594 347.402344 199.511719 346.550781 201.710938 345.640625 C 204.964844 344.292969 208.339844 342.90625 210.441406 342.675781 C 211.71875 342.53125 213.210938 343.171875 214.511719 343.757812 C 215.046875 343.988281 215.558594 344.21875 215.921875 344.316406 C 219.09375 345.238281 222.347656 345.921875 225.628906 346.359375 C 234.457031 347.511719 248.234375 348.109375 263.660156 344.339844 C 270.707031 342.625 277.484375 340.121094 283.8125 336.902344 L 284.359375 336.621094 C 286.253906 335.675781 289.777344 333.914062 290.726562 332.273438 C 291.488281 330.945312 291.769531 329.125 291.550781 326.925781 C 288.320312 329.015625 284.261719 331.03125 281.675781 332.320312 L 280.425781 332.941406 C 273.367188 336.511719 265.894531 339.152344 258.230469 340.753906 C 249.082031 342.675781 239.730469 343.136719 230.4375 342.117188 C 225.652344 341.59375 221.207031 340.804688 217.210938 339.769531 C 216.296875 339.539062 215.375 339.199219 214.390625 338.835938 C 212.605469 338.179688 210.746094 337.511719 209.214844 337.582031 C 206.691406 337.703125 203.785156 339.078125 200.980469 340.402344 C 199.15625 341.265625 197.421875 342.078125 195.734375 342.601562 C 186.195312 345.578125 176.296875 347.292969 167.101562 347.574219 L 166.445312 347.585938 C 157.710938 347.742188 148.042969 346.066406 138.445312 342.710938 C 135.761719 341.777344 133.367188 340.597656 130.828125 339.34375 C 130.296875 339.152344 129.75 338.882812 129.191406 338.605469 Z M 129.191406 338.605469 " fill-opacity="1" fill-rule="nonzero"/></g><path fill="#000000" d="M 210.382812 345.277344 C 209.726562 345.277344 209.167969 344.789062 209.105469 344.121094 C 208.160156 335.140625 207.660156 327.640625 207.140625 319.691406 C 206.859375 315.511719 206.582031 311.183594 206.214844 306.421875 C 206.144531 305.546875 206.058594 304.320312 205.972656 302.921875 C 205.679688 298.65625 205.269531 292.796875 204.890625 289.941406 C 204.792969 289.234375 205.292969 288.59375 205.996094 288.496094 C 206.703125 288.398438 207.34375 288.894531 207.441406 289.601562 C 207.832031 292.53125 208.230469 298.4375 208.535156 302.738281 C 208.632812 304.125 208.71875 305.339844 208.777344 306.214844 C 209.144531 310.980469 209.433594 315.316406 209.703125 319.511719 C 210.222656 327.421875 210.722656 334.910156 211.65625 343.84375 C 211.730469 344.546875 211.21875 345.179688 210.515625 345.25 C 210.480469 345.277344 210.429688 345.277344 210.382812 345.277344 Z M 210.382812 345.277344 " fill-opacity="1" fill-rule="nonzero"/><path fill="#000000" d="M 304.683594 191.207031 C 304.453125 191.328125 305.214844 191.167969 305.277344 191.15625 C 305.945312 191.070312 306.625 191.023438 307.292969 190.988281 C 309.25 190.867188 311.277344 191.058594 313.222656 191.328125 C 318.6875 192.082031 323.363281 194.753906 327.484375 198.339844 C 330.921875 201.328125 334.054688 204.84375 336.023438 209 C 338.355469 213.921875 339.15625 219.171875 343.09375 223.253906 C 346.710938 227.011719 352.628906 229.039062 355.96875 223.765625 C 359.273438 218.5625 358.09375 211.234375 356.585938 205.65625 C 352.738281 191.351562 339.011719 174.617188 324.761719 169.742188 C 313.050781 165.746094 302.363281 175.832031 304.34375 187.707031 " fill-opacity="1" fill-rule="evenodd"/><path fill="#000000" d="M 350.585938 228.238281 C 347.769531 228.238281 344.671875 226.742188 342.167969 224.140625 C 339.300781 221.164062 337.988281 217.617188 336.726562 214.175781 C 336.167969 212.644531 335.574219 211.050781 334.855469 209.546875 C 333.179688 206.007812 330.496094 202.667969 326.632812 199.300781 C 322.1875 195.433594 317.742188 193.234375 313.039062 192.589844 C 311.449219 192.371094 309.371094 192.140625 307.367188 192.261719 C 306.722656 192.300781 306.066406 192.347656 305.421875 192.433594 C 304.902344 192.53125 303.808594 192.738281 303.417969 191.667969 C 303.199219 191.070312 303.492188 190.367188 304.050781 190.0625 C 304.304688 189.929688 304.574219 189.882812 304.839844 189.917969 C 304.875 189.90625 304.902344 189.90625 304.925781 189.90625 C 304.960938 189.90625 305.082031 189.882812 305.105469 189.882812 C 305.800781 189.796875 306.492188 189.746094 307.183594 189.699219 C 309.40625 189.566406 311.65625 189.808594 313.367188 190.050781 C 318.578125 190.769531 323.460938 193.164062 328.296875 197.367188 C 332.425781 200.964844 335.328125 204.585938 337.152344 208.453125 C 337.917969 210.066406 338.523438 211.707031 339.109375 213.300781 C 340.335938 216.632812 341.488281 219.777344 343.980469 222.367188 C 346.140625 224.617188 348.863281 225.878906 351.0625 225.648438 C 352.589844 225.492188 353.867188 224.628906 354.839844 223.085938 C 357.230469 219.316406 357.378906 213.726562 355.300781 205.996094 C 351.304688 191.15625 337.394531 175.441406 324.300781 170.96875 C 319.40625 169.292969 314.386719 170.203125 310.5625 173.449219 C 306.539062 176.863281 304.671875 182.113281 305.570312 187.5 C 305.691406 188.203125 305.214844 188.859375 304.511719 188.980469 C 303.808594 189.089844 303.152344 188.628906 303.03125 187.925781 C 301.984375 181.640625 304.183594 175.492188 308.898438 171.480469 C 313.441406 167.628906 319.355469 166.558594 325.136719 168.527344 C 338.949219 173.242188 353.597656 189.746094 357.789062 205.328125 C 360.0625 213.789062 359.820312 220.046875 357.011719 224.457031 C 355.605469 226.683594 353.636719 227.96875 351.316406 228.214844 C 351.109375 228.226562 350.84375 228.238281 350.585938 228.238281 Z M 350.585938 228.238281 " fill-opacity="1" fill-rule="nonzero"/><path fill="#fff100" d="M 330.582031 175.820312 C 330.582031 175.820312 290.847656 182.164062 270.316406 185.433594 C 267.148438 185.945312 264.292969 187.695312 262.410156 190.292969 C 260.527344 192.894531 259.75 196.152344 260.246094 199.324219 C 263.648438 220.628906 270.695312 264.867188 274.09375 286.171875 C 274.605469 289.359375 276.355469 292.203125 278.953125 294.085938 C 281.554688 295.96875 284.808594 296.746094 287.980469 296.25 C 308.507812 292.96875 348.242188 286.636719 348.242188 286.636719 Z M 330.582031 175.820312 " fill-opacity="1" fill-rule="evenodd"/><path fill="#000000" d="M 286.046875 297.707031 C 283.242188 297.707031 280.519531 296.832031 278.199219 295.144531 C 275.296875 293.039062 273.390625 289.929688 272.820312 286.390625 L 258.972656 199.542969 C 258.414062 196.007812 259.25 192.445312 261.351562 189.554688 C 263.429688 186.695312 266.613281 184.726562 270.097656 184.179688 L 330.363281 174.566406 C 330.691406 174.507812 331.042969 174.59375 331.320312 174.796875 C 331.601562 175.003906 331.78125 175.296875 331.832031 175.636719 L 349.492188 286.453125 C 349.542969 286.792969 349.46875 287.132812 349.261719 287.414062 C 349.070312 287.691406 348.765625 287.875 348.425781 287.921875 L 288.160156 297.535156 C 287.46875 297.644531 286.753906 297.707031 286.046875 297.707031 Z M 329.511719 177.289062 L 270.511719 186.710938 C 267.695312 187.160156 265.117188 188.738281 263.441406 191.058594 C 261.742188 193.40625 261.0625 196.273438 261.511719 199.128906 L 275.359375 285.980469 C 275.820312 288.835938 277.363281 291.351562 279.707031 293.050781 C 282.015625 294.730469 284.953125 295.421875 287.773438 294.984375 L 346.773438 285.566406 Z M 329.511719 177.289062 " fill-opacity="1" fill-rule="nonzero"/><path fill="#fffbfa" d="M 330.835938 180.085938 L 332.667969 191.605469 L 269.054688 201.753906 C 266.527344 202.15625 264.074219 199.90625 263.574219 196.722656 C 263.066406 193.539062 264.707031 190.632812 267.21875 190.234375 Z M 330.835938 180.085938 " fill-opacity="1" fill-rule="evenodd"/><path fill="#000000" d="M 268.484375 203.09375 C 265.554688 203.09375 262.871094 200.492188 262.300781 196.929688 C 261.679688 193.054688 263.792969 189.480469 267.011719 188.96875 L 330.628906 178.820312 C 331.332031 178.699219 331.988281 179.1875 332.097656 179.890625 L 333.933594 191.414062 C 333.980469 191.753906 333.910156 192.09375 333.703125 192.371094 C 333.507812 192.652344 333.203125 192.835938 332.863281 192.882812 L 269.25 203.03125 C 268.992188 203.066406 268.738281 203.09375 268.484375 203.09375 Z M 329.765625 181.554688 L 267.425781 191.507812 C 265.640625 191.789062 264.460938 194.085938 264.851562 196.515625 C 265.25 198.996094 267.039062 200.769531 268.859375 200.480469 L 331.199219 190.523438 Z M 329.765625 181.554688 " fill-opacity="1" fill-rule="nonzero"/><path fill="#fffbfa" d="M 358.3125 227.375 C 357.65625 223.800781 354.753906 219.476562 353.792969 218.175781 C 349.503906 212.339844 343.394531 206.167969 335.367188 209.546875 C 333.070312 210.503906 331.125 212.351562 329.789062 214.445312 C 329.460938 214.941406 328.042969 217.519531 328.042969 217.519531 C 328.042969 217.519531 323.511719 215.414062 320.800781 214.578125 C 314.777344 212.707031 307.574219 214.128906 301.925781 216.886719 C 296.433594 219.570312 291.210938 224.277344 289.414062 230.292969 C 288.828125 232.234375 288.574219 234.691406 288.867188 236.503906 C 288.878906 236.5625 288.816406 236.636719 288.757812 236.648438 C 286.960938 237.171875 285.453125 237.132812 282.648438 239.347656 C 279.246094 242.03125 277.628906 246.457031 277.847656 250.683594 C 278.054688 254.488281 279.671875 257.890625 282.730469 260.1875 C 283.777344 260.96875 287.410156 262.644531 287.410156 262.644531 C 287.957031 263.675781 287.46875 266.339844 288.429688 268.804688 C 290.75 274.785156 294.1875 275.84375 300.832031 276.097656 C 303.394531 276.195312 307.234375 275.988281 307.234375 275.988281 C 307.695312 276.171875 307.597656 277.898438 309.433594 280.253906 C 311.011719 282.273438 313.804688 282.648438 316.308594 282.589844 C 330.726562 282.234375 348.65625 268.550781 352.382812 255.375 C 353.148438 252.667969 353.5625 249.882812 353.101562 247.074219 C 352.929688 246.007812 352.710938 244.667969 352.300781 243.355469 C 352.300781 243.355469 355.214844 239.589844 356.148438 238.117188 C 358.3125 234.753906 359.027344 231.265625 358.3125 227.375 Z M 358.3125 227.375 " fill-opacity="1" fill-rule="evenodd"/><path fill="#000000" d="M 315.832031 283.875 C 312.335938 283.875 309.917969 282.941406 308.421875 281.042969 C 307.195312 279.476562 306.746094 278.140625 306.46875 277.3125 C 305.179688 277.363281 302.679688 277.460938 300.796875 277.386719 C 293.628906 277.117188 289.777344 275.84375 287.238281 269.28125 C 286.617188 267.699219 286.535156 266.121094 286.472656 264.855469 C 286.449219 264.441406 286.425781 263.933594 286.375 263.59375 C 285.28125 263.082031 282.890625 261.914062 281.980469 261.234375 C 278.722656 258.804688 276.816406 255.085938 276.585938 250.769531 C 276.316406 245.8125 278.296875 241.167969 281.871094 238.347656 C 284.335938 236.40625 285.976562 236.027344 287.410156 235.6875 C 287.433594 235.675781 287.457031 235.675781 287.480469 235.664062 C 287.371094 233.902344 287.613281 231.796875 288.175781 229.9375 C 289.898438 224.167969 294.710938 218.988281 301.355469 215.742188 C 308.046875 212.476562 315.46875 211.574219 321.179688 213.363281 C 323.144531 213.96875 325.953125 215.183594 327.484375 215.878906 C 327.933594 215.085938 328.492188 214.089844 328.699219 213.761719 C 330.289062 211.285156 332.464844 209.375 334.855469 208.378906 C 343.980469 204.550781 350.625 211.722656 354.828125 217.433594 C 355.226562 217.980469 358.796875 222.9375 359.574219 227.167969 C 360.339844 231.359375 359.574219 235.175781 357.242188 238.824219 C 356.492188 240.003906 354.570312 242.53125 353.734375 243.636719 C 354.0625 244.839844 354.242188 246.007812 354.390625 246.882812 C 354.8125 249.53125 354.570312 252.433594 353.636719 255.742188 C 349.722656 269.570312 331.25 283.523438 316.34375 283.886719 C 316.1875 283.875 316.003906 283.875 315.832031 283.875 Z M 307.257812 274.699219 C 307.414062 274.699219 307.574219 274.726562 307.71875 274.785156 C 308.472656 275.078125 308.691406 275.757812 308.910156 276.414062 C 309.140625 277.117188 309.480469 278.175781 310.476562 279.453125 C 311.496094 280.765625 313.429688 281.359375 316.308594 281.289062 C 329.996094 280.949219 347.597656 267.6875 351.183594 255.011719 C 352.019531 252.035156 352.238281 249.578125 351.875 247.269531 C 351.714844 246.308594 351.511719 244.984375 351.109375 243.734375 C 350.976562 243.332031 351.0625 242.894531 351.316406 242.554688 C 351.339844 242.519531 354.207031 238.8125 355.105469 237.414062 C 357.097656 234.289062 357.71875 231.179688 357.074219 227.605469 C 356.527344 224.628906 354.121094 220.75 352.785156 218.929688 C 346.84375 210.847656 341.632812 208.316406 335.886719 210.722656 C 333.980469 211.527344 332.207031 213.082031 330.90625 215.125 C 330.691406 215.464844 329.765625 217.117188 329.195312 218.136719 C 328.867188 218.734375 328.152344 218.964844 327.53125 218.683594 C 327.484375 218.660156 323.050781 216.605469 320.449219 215.804688 C 315.347656 214.210938 308.640625 215.050781 302.519531 218.039062 C 296.605469 220.933594 292.183594 225.648438 290.675781 230.65625 C 290.117188 232.503906 289.921875 234.765625 290.164062 236.285156 C 290.273438 237 289.824219 237.691406 289.121094 237.886719 C 288.757812 237.996094 288.378906 238.082031 288.015625 238.167969 C 286.667969 238.484375 285.5 238.761719 283.484375 240.34375 C 280.605469 242.601562 278.964844 246.539062 279.183594 250.601562 C 279.378906 254.199219 280.886719 257.140625 283.558594 259.144531 C 284.238281 259.65625 286.644531 260.832031 288.003906 261.464844 C 288.257812 261.585938 288.476562 261.78125 288.597656 262.035156 C 288.964844 262.742188 289.011719 263.640625 289.074219 264.6875 C 289.132812 265.828125 289.207031 267.128906 289.667969 268.332031 C 291.683594 273.546875 294.367188 274.554688 300.917969 274.796875 C 303.382812 274.894531 307.171875 274.6875 307.207031 274.6875 C 307.207031 274.699219 307.234375 274.699219 307.257812 274.699219 Z M 288.40625 235.410156 C 288.390625 235.410156 288.378906 235.421875 288.367188 235.421875 C 288.378906 235.421875 288.390625 235.421875 288.40625 235.410156 Z M 288.40625 235.410156 " fill-opacity="1" fill-rule="nonzero"/><path fill="#000000" d="M 306.296875 277.300781 C 305.59375 277.300781 305.011719 276.730469 305.011719 276.011719 C 305.011719 275.296875 305.582031 274.726562 306.296875 274.726562 C 313.902344 274.699219 322.027344 270.167969 325.613281 263.921875 C 325.964844 263.300781 326.753906 263.09375 327.375 263.445312 C 327.992188 263.800781 328.199219 264.589844 327.847656 265.207031 C 323.839844 272.183594 314.777344 277.277344 306.296875 277.300781 C 306.308594 277.300781 306.308594 277.300781 306.296875 277.300781 Z M 297.441406 265.5 C 296.289062 265.5 295.132812 265.425781 293.96875 265.269531 L 293.457031 265.207031 C 291.757812 264.988281 290.140625 264.769531 288.34375 264.210938 C 288.175781 264.164062 286.632812 263.675781 285.902344 263.347656 C 285.246094 263.070312 284.953125 262.304688 285.234375 261.648438 C 285.527344 260.992188 286.277344 260.699219 286.933594 260.980469 C 287.445312 261.210938 288.683594 261.609375 289.121094 261.746094 C 290.699219 262.242188 292.132812 262.425781 293.796875 262.644531 L 294.308594 262.71875 C 301.839844 263.714844 309.722656 260.894531 313.9375 255.703125 C 314.386719 255.15625 315.203125 255.074219 315.75 255.511719 C 316.296875 255.960938 316.378906 256.773438 315.941406 257.320312 C 311.777344 262.472656 304.765625 265.5 297.441406 265.5 Z M 352.542969 245.605469 C 352.179688 245.605469 351.414062 245.460938 351.230469 244.28125 C 351.21875 244.183594 351.207031 244.074219 351.183594 244.011719 C 351.097656 243.671875 350.988281 243.332031 350.867188 242.992188 C 350.527344 241.984375 350.113281 240.925781 349.589844 239.746094 C 348.121094 236.464844 346.25 233.535156 344.027344 231.03125 C 343.554688 230.5 343.601562 229.683594 344.136719 229.210938 C 344.660156 228.734375 345.484375 228.785156 345.957031 229.320312 C 348.363281 232.015625 350.378906 235.164062 351.949219 238.691406 C 352.507812 239.929688 352.957031 241.070312 353.320312 242.164062 C 353.453125 242.566406 353.585938 242.980469 353.683594 243.382812 C 353.707031 243.492188 353.746094 243.695312 353.769531 243.878906 C 353.804688 244 353.832031 244.121094 353.832031 244.257812 C 353.84375 244.9375 353.320312 245.542969 352.652344 245.59375 C 352.617188 245.605469 352.578125 245.605469 352.542969 245.605469 Z M 352.542969 244.316406 L 352.554688 244.316406 Z M 298.597656 244.367188 C 296.359375 244.367188 294.164062 243.734375 292.292969 242.46875 C 290.652344 241.375 289.265625 239.785156 288.285156 237.875 L 288.175781 237.667969 C 287.871094 237.121094 287.457031 236.355469 287.53125 235.554688 C 287.601562 234.847656 288.234375 234.316406 288.9375 234.398438 C 289.621094 234.472656 290.128906 235.054688 290.09375 235.738281 C 290.128906 235.894531 290.324219 236.246094 290.421875 236.417969 L 290.566406 236.683594 C 291.355469 238.203125 292.449219 239.457031 293.726562 240.316406 C 296.507812 242.179688 300.199219 242.261719 303.371094 240.523438 C 303.953125 240.195312 304.523438 239.769531 305.132812 239.320312 C 306.03125 238.652344 306.941406 237.949219 308.070312 237.5 C 309.445312 236.953125 310.925781 236.902344 312.238281 236.867188 C 312.515625 236.855469 312.785156 236.855469 313.0625 236.84375 C 313.757812 236.816406 314.375 237.351562 314.414062 238.070312 C 314.449219 238.773438 313.902344 239.382812 313.183594 239.417969 C 312.894531 239.429688 312.601562 239.441406 312.3125 239.457031 C 311.109375 239.492188 309.976562 239.527344 309.03125 239.90625 C 308.230469 240.234375 307.476562 240.792969 306.6875 241.386719 C 306.042969 241.875 305.375 242.382812 304.621094 242.785156 C 302.703125 243.855469 300.625 244.367188 298.597656 244.367188 Z M 290.09375 235.832031 Z M 336.046875 224.664062 C 335.742188 224.664062 335.4375 224.554688 335.195312 224.335938 C 332.984375 222.378906 331.042969 220.910156 329.109375 219.707031 C 328.699219 219.449219 328.234375 219.230469 327.738281 218.988281 C 327.046875 218.648438 326.328125 218.308594 325.671875 217.835938 C 325.089844 217.421875 324.96875 216.605469 325.382812 216.035156 C 325.792969 215.464844 326.597656 215.332031 327.179688 215.742188 C 327.652344 216.085938 328.234375 216.363281 328.867188 216.667969 C 329.402344 216.921875 329.960938 217.191406 330.484375 217.519531 C 332.546875 218.792969 334.589844 220.351562 336.910156 222.417969 C 337.445312 222.890625 337.492188 223.703125 337.019531 224.238281 C 336.75 224.519531 336.398438 224.664062 336.046875 224.664062 Z M 336.046875 224.664062 " fill-opacity="1" fill-rule="nonzero"/><path fill="#fffbfa" d="M 176.878906 124.289062 C 185.542969 124.289062 192.574219 139.601562 192.574219 158.453125 C 192.574219 177.3125 185.542969 192.617188 176.878906 192.617188 C 168.21875 192.617188 161.1875 177.300781 161.1875 158.453125 C 161.1875 139.601562 168.21875 124.289062 176.878906 124.289062 Z M 176.878906 124.289062 " fill-opacity="1" fill-rule="evenodd"/><path fill="#000000" d="M 176.878906 193.917969 C 167.355469 193.917969 159.898438 178.347656 159.898438 158.464844 C 159.898438 138.582031 167.355469 123.011719 176.878906 123.011719 C 186.402344 123.011719 193.875 138.582031 193.875 158.464844 C 193.875 178.347656 186.402344 193.917969 176.878906 193.917969 Z M 176.878906 125.578125 C 169.070312 125.578125 162.472656 140.636719 162.472656 158.453125 C 162.472656 176.269531 169.070312 191.328125 176.878906 191.328125 C 184.691406 191.328125 191.285156 176.269531 191.285156 158.453125 C 191.285156 140.636719 184.691406 125.578125 176.878906 125.578125 Z M 176.878906 125.578125 " fill-opacity="1" fill-rule="nonzero"/><path fill="#fffbfa" d="M 234.894531 124.289062 C 243.558594 124.289062 250.589844 139.601562 250.589844 158.453125 C 250.589844 177.3125 243.558594 192.617188 234.894531 192.617188 C 226.234375 192.617188 219.203125 177.300781 219.203125 158.453125 C 219.1875 139.601562 226.234375 124.289062 234.894531 124.289062 Z M 234.894531 124.289062 " fill-opacity="1" fill-rule="evenodd"/><path fill="#000000" d="M 234.894531 193.917969 C 225.371094 193.917969 217.902344 178.347656 217.902344 158.464844 C 217.902344 138.582031 225.359375 123.011719 234.894531 123.011719 C 244.417969 123.011719 251.878906 138.582031 251.878906 158.464844 C 251.878906 178.347656 244.417969 193.917969 234.894531 193.917969 Z M 234.894531 125.578125 C 227.085938 125.578125 220.488281 140.636719 220.488281 158.453125 C 220.488281 176.269531 227.085938 191.328125 234.894531 191.328125 C 242.707031 191.328125 249.300781 176.269531 249.300781 158.453125 C 249.300781 140.636719 242.707031 125.578125 234.894531 125.578125 Z M 234.894531 125.578125 " fill-opacity="1" fill-rule="nonzero"/><path fill="#000000" d="M 185.105469 157.746094 C 185.105469 157.976562 185.105469 158.222656 185.105469 158.453125 C 185.105469 170.570312 181.421875 180.414062 176.878906 180.414062 C 172.335938 180.414062 168.65625 170.570312 168.65625 158.453125 C 168.65625 146.335938 172.335938 136.492188 176.878906 136.492188 C 179.878906 136.492188 182.503906 140.792969 183.949219 147.210938 L 176.878906 152.082031 Z M 185.105469 157.746094 " fill-opacity="1" fill-rule="evenodd"/><path fill="#000000" d="M 176.878906 181.703125 C 170.695312 181.703125 167.367188 169.71875 167.367188 158.453125 C 167.367188 147.1875 170.695312 135.203125 176.878906 135.203125 C 180.5 135.203125 183.535156 139.480469 185.199219 146.929688 C 185.324219 147.441406 185.105469 147.976562 184.679688 148.28125 L 179.152344 152.082031 L 185.832031 156.691406 C 186.171875 156.933594 186.378906 157.320312 186.390625 157.734375 L 186.390625 158.453125 C 186.390625 169.730469 183.0625 181.703125 176.878906 181.703125 Z M 176.878906 137.792969 C 173.613281 137.792969 169.945312 146.625 169.945312 158.464844 C 169.945312 170.289062 173.601562 179.136719 176.878906 179.136719 C 180.160156 179.136719 183.816406 170.300781 183.816406 158.464844 L 183.816406 158.441406 L 176.152344 153.152344 C 175.800781 152.910156 175.59375 152.519531 175.59375 152.097656 C 175.59375 151.671875 175.800781 151.269531 176.152344 151.039062 L 182.492188 146.664062 C 180.972656 140.539062 178.617188 137.792969 176.878906 137.792969 Z M 176.878906 137.792969 " fill-opacity="1" fill-rule="nonzero"/><path fill="#000000" d="M 243.105469 157.746094 C 243.105469 157.976562 243.105469 158.222656 243.105469 158.453125 C 243.105469 170.570312 239.425781 180.414062 234.882812 180.414062 C 230.339844 180.414062 226.660156 170.570312 226.660156 158.453125 C 226.660156 146.335938 230.339844 136.492188 234.882812 136.492188 C 237.882812 136.492188 240.507812 140.792969 241.953125 147.210938 L 234.882812 152.082031 Z M 243.105469 157.746094 " fill-opacity="1" fill-rule="evenodd"/><path fill="#000000" d="M 234.894531 181.703125 C 228.710938 181.703125 225.382812 169.71875 225.382812 158.453125 C 225.382812 147.1875 228.710938 135.203125 234.894531 135.203125 C 238.515625 135.203125 241.539062 139.480469 243.214844 146.929688 C 243.339844 147.441406 243.121094 147.976562 242.695312 148.265625 L 237.167969 152.070312 L 243.847656 156.679688 C 244.1875 156.910156 244.394531 157.296875 244.40625 157.722656 L 244.40625 158.453125 C 244.40625 169.730469 241.066406 181.703125 234.894531 181.703125 Z M 234.894531 137.792969 C 231.617188 137.792969 227.960938 146.625 227.960938 158.464844 C 227.960938 170.289062 231.617188 179.136719 234.894531 179.136719 C 238.164062 179.136719 241.832031 170.300781 241.832031 158.464844 L 241.832031 158.441406 L 234.167969 153.152344 C 233.816406 152.910156 233.609375 152.519531 233.609375 152.097656 C 233.609375 151.671875 233.816406 151.269531 234.167969 151.039062 L 240.507812 146.664062 C 238.988281 140.539062 236.621094 137.792969 234.894531 137.792969 Z M 234.894531 137.792969 " fill-opacity="1" fill-rule="nonzero"/><path fill="#000000" d="M 218.765625 118.261719 C 218.605469 118.261719 218.449219 118.234375 218.289062 118.164062 C 217.632812 117.894531 217.304688 117.15625 217.5625 116.484375 C 220.523438 109 228.628906 103.226562 237.035156 106.542969 C 239.683594 107.589844 242.292969 109.496094 244.769531 112.21875 C 245.402344 112.925781 246.351562 113.996094 247.117188 115.222656 C 248.113281 116.71875 247.867188 117.179688 247.6875 117.507812 L 246.558594 116.898438 L 245.464844 116.21875 L 246.558594 116.898438 L 245.402344 117.457031 C 245.355469 117.359375 245.003906 116.679688 244.929688 116.558594 C 244.429688 115.78125 243.800781 114.96875 242.875 113.957031 C 240.664062 111.527344 238.382812 109.839844 236.097656 108.9375 C 229.1875 106.214844 222.46875 111.113281 219.964844 117.433594 C 219.773438 117.945312 219.285156 118.261719 218.765625 118.261719 Z M 188.554688 118.261719 C 188.042969 118.261719 187.558594 117.957031 187.351562 117.445312 C 184.847656 111.125 178.132812 106.230469 171.21875 108.949219 C 168.9375 109.851562 166.652344 111.539062 164.441406 113.96875 C 163.519531 114.980469 162.886719 115.792969 162.375 116.609375 C 162.328125 116.703125 161.964844 117.375 161.914062 117.484375 L 160.773438 116.910156 L 160.761719 116.921875 L 159.628906 117.53125 C 159.449219 117.203125 159.207031 116.742188 160.226562 115.210938 C 160.980469 114.007812 161.914062 112.9375 162.558594 112.246094 C 165.035156 109.523438 167.636719 107.613281 170.296875 106.570312 C 178.714844 103.25 186.804688 109.023438 189.769531 116.511719 C 190.035156 117.167969 189.707031 117.921875 189.039062 118.1875 C 188.871094 118.222656 188.710938 118.261719 188.554688 118.261719 Z M 188.554688 118.261719 " fill-opacity="1" fill-rule="nonzero"/><path fill="#fffbfa" d="M 205.667969 180.4375 C 213.335938 180.4375 219.566406 184.375 219.566406 189.210938 C 219.566406 194.0625 213.335938 197.988281 205.667969 197.988281 C 198.003906 197.988281 191.773438 194.050781 191.773438 189.210938 C 191.785156 184.363281 198.003906 180.4375 205.667969 180.4375 Z M 205.667969 180.4375 " fill-opacity="1" fill-rule="evenodd"/><path fill="#000000" d="M 205.667969 199.277344 C 197.152344 199.277344 190.484375 194.851562 190.484375 189.210938 C 190.484375 183.574219 197.152344 179.148438 205.667969 179.148438 C 214.183594 179.148438 220.851562 183.574219 220.851562 189.210938 C 220.851562 194.851562 214.183594 199.277344 205.667969 199.277344 Z M 205.667969 181.726562 C 198.832031 181.726562 193.058594 185.152344 193.058594 189.210938 C 193.058594 193.273438 198.832031 196.699219 205.667969 196.699219 C 212.507812 196.699219 218.277344 193.273438 218.277344 189.210938 C 218.277344 185.152344 212.507812 181.726562 205.667969 181.726562 Z M 205.667969 181.726562 " fill-opacity="1" fill-rule="nonzero"/><path fill="#000000" d="M 207.84375 228.53125 C 205.257812 228.613281 202.730469 228.480469 200.796875 228.1875 C 189.089844 226.476562 178.460938 222.855469 171.789062 212.730469 C 169.578125 209.375 167.816406 205.316406 166.578125 200.382812 C 166.589844 200.359375 167.257812 200.878906 167.320312 200.917969 C 167.84375 201.292969 168.375 201.644531 168.9375 201.972656 C 170.625 202.984375 172.386719 203.90625 174.160156 204.78125 C 179.078125 207.222656 184.3125 209.121094 189.660156 210.410156 C 190.289062 210.554688 190.910156 210.699219 191.554688 210.832031 C 194.289062 211.40625 197.117188 211.816406 200.007812 212.0625 C 202.570312 212.28125 205.183594 212.363281 207.84375 212.316406 C 210.503906 212.363281 213.128906 212.28125 215.679688 212.0625 C 218.582031 211.816406 221.398438 211.40625 224.132812 210.832031 C 224.765625 210.699219 225.394531 210.554688 226.027344 210.410156 C 231.371094 209.132812 236.609375 207.238281 241.527344 204.78125 C 243.300781 203.90625 245.050781 202.984375 246.75 201.972656 C 247.308594 201.644531 247.84375 201.292969 248.367188 200.917969 C 248.429688 200.867188 249.097656 200.34375 249.109375 200.382812 C 247.867188 205.316406 246.109375 209.375 243.898438 212.730469 C 237.226562 222.855469 226.597656 226.476562 214.890625 228.1875 C 212.957031 228.46875 210.441406 228.613281 207.84375 228.53125 Z M 207.84375 228.53125 " fill-opacity="1" fill-rule="evenodd"/><path fill="#000000" d="M 206.300781 229.84375 C 204.285156 229.84375 202.304688 229.707031 200.617188 229.464844 C 190.65625 228.007812 178.242188 224.871094 170.722656 213.433594 C 168.363281 209.863281 166.554688 205.582031 165.339844 200.699219 C 165.171875 200.015625 165.582031 199.3125 166.261719 199.140625 C 166.894531 198.972656 167.246094 199.238281 168.023438 199.835938 C 168.523438 200.199219 168.996094 200.515625 169.605469 200.878906 C 171.039062 201.742188 172.617188 202.59375 174.742188 203.640625 C 179.566406 206.03125 184.691406 207.894531 189.976562 209.167969 C 190.582031 209.316406 191.203125 209.460938 191.832031 209.582031 C 194.519531 210.140625 197.3125 210.554688 200.140625 210.785156 C 202.65625 210.992188 205.242188 211.089844 207.855469 211.039062 C 210.503906 211.089844 213.089844 211.003906 215.605469 210.785156 C 218.4375 210.542969 221.230469 210.140625 223.914062 209.582031 C 224.535156 209.449219 225.152344 209.316406 225.773438 209.167969 C 231.058594 207.90625 236.183594 206.046875 241.003906 203.640625 C 243.121094 202.582031 244.699219 201.730469 246.144531 200.867188 C 246.738281 200.515625 247.226562 200.199219 247.652344 199.871094 C 248.476562 199.226562 248.828125 198.972656 249.460938 199.117188 C 249.789062 199.203125 250.078125 199.410156 250.261719 199.703125 C 250.445312 199.992188 250.492188 200.34375 250.40625 200.6875 C 249.179688 205.570312 247.371094 209.863281 245.027344 213.421875 C 237.496094 224.859375 225.09375 227.996094 215.132812 229.453125 C 213.007812 229.769531 210.441406 229.890625 207.90625 229.804688 C 207.332031 229.828125 206.8125 229.84375 206.300781 229.84375 Z M 207.84375 227.242188 C 207.855469 227.242188 207.867188 227.242188 207.890625 227.242188 C 210.261719 227.328125 212.75 227.203125 214.707031 226.914062 C 224.144531 225.539062 235.867188 222.597656 242.828125 212.011719 C 244.480469 209.507812 245.839844 206.617188 246.910156 203.382812 C 245.550781 204.171875 244.042969 204.976562 242.109375 205.9375 C 237.117188 208.425781 231.808594 210.347656 226.332031 211.660156 C 225.6875 211.816406 225.042969 211.953125 224.398438 212.097656 C 221.617188 212.679688 218.714844 213.09375 215.789062 213.351562 C 213.1875 213.570312 210.503906 213.652344 207.820312 213.605469 C 205.171875 213.652344 202.5 213.570312 199.898438 213.351562 C 196.972656 213.105469 194.070312 212.679688 191.285156 212.097656 C 190.644531 211.964844 190 211.816406 189.355469 211.660156 C 183.875 210.347656 178.582031 208.425781 173.574219 205.9375 C 171.644531 204.976562 170.136719 204.171875 168.789062 203.382812 C 169.859375 206.617188 171.21875 209.507812 172.871094 212.011719 C 179.832031 222.597656 191.554688 225.527344 200.992188 226.914062 C 202.949219 227.203125 205.4375 227.3125 207.808594 227.242188 C 207.820312 227.242188 207.832031 227.242188 207.84375 227.242188 Z M 207.84375 227.242188 " fill-opacity="1" fill-rule="nonzero"/><path fill="#fffbfa" d="M 207.84375 220.363281 C 203.140625 220.398438 198.527344 219.925781 193.960938 219.085938 C 186.949219 217.808594 180.0625 215.683594 173.273438 213.253906 C 172.773438 213.070312 172.277344 212.898438 171.777344 212.730469 C 169.566406 209.375 167.804688 205.316406 166.566406 200.382812 C 166.578125 200.359375 167.246094 200.878906 167.308594 200.917969 C 167.832031 201.292969 168.363281 201.644531 168.921875 201.972656 C 170.613281 202.984375 172.375 203.90625 174.148438 204.78125 C 179.066406 207.222656 184.300781 209.121094 189.648438 210.410156 C 190.277344 210.554688 190.898438 210.699219 191.542969 210.832031 C 194.273438 211.40625 197.105469 211.816406 199.996094 212.0625 C 202.558594 212.28125 205.171875 212.363281 207.832031 212.316406 C 210.492188 212.363281 213.117188 212.28125 215.667969 212.0625 C 218.570312 211.816406 221.386719 211.40625 224.121094 210.832031 C 224.753906 210.699219 225.382812 210.554688 226.015625 210.410156 C 231.359375 209.132812 236.597656 207.238281 241.515625 204.78125 C 243.289062 203.90625 245.039062 202.984375 246.738281 201.972656 C 247.296875 201.644531 247.832031 201.292969 248.355469 200.917969 C 248.414062 200.867188 249.082031 200.34375 249.097656 200.382812 C 247.855469 205.316406 246.09375 209.375 243.882812 212.730469 C 243.386719 212.898438 242.886719 213.082031 242.390625 213.253906 C 235.601562 215.683594 228.726562 217.808594 221.703125 219.085938 C 217.171875 219.925781 212.542969 220.398438 207.84375 220.363281 Z M 207.84375 220.363281 " fill-opacity="1" fill-rule="evenodd"/><path fill="#000000" d="M 208.316406 221.652344 C 208 221.652344 207.6875 221.652344 207.371094 221.652344 C 202.972656 221.652344 198.503906 221.226562 193.726562 220.351562 C 187.546875 219.21875 180.914062 217.347656 172.847656 214.457031 L 171.363281 213.933594 C 171.097656 213.835938 170.867188 213.664062 170.710938 213.421875 C 168.351562 209.847656 166.542969 205.558594 165.328125 200.6875 C 165.15625 200.003906 165.570312 199.300781 166.25 199.128906 C 166.882812 198.960938 167.234375 199.226562 168.011719 199.824219 C 168.511719 200.1875 168.984375 200.503906 169.589844 200.867188 C 171.023438 201.730469 172.605469 202.582031 174.730469 203.625 C 179.550781 206.019531 184.679688 207.878906 189.960938 209.15625 C 190.570312 209.300781 191.191406 209.449219 191.820312 209.570312 C 194.503906 210.128906 197.300781 210.542969 200.128906 210.773438 C 202.644531 210.980469 205.230469 211.078125 207.84375 211.027344 C 210.492188 211.078125 213.078125 210.992188 215.59375 210.773438 C 218.425781 210.53125 221.21875 210.128906 223.902344 209.570312 C 224.523438 209.4375 225.140625 209.300781 225.761719 209.15625 C 231.046875 207.894531 236.171875 206.03125 240.992188 203.625 C 243.105469 202.570312 244.6875 201.71875 246.132812 200.855469 C 246.726562 200.503906 247.214844 200.1875 247.636719 199.859375 C 248.464844 199.214844 248.816406 198.960938 249.449219 199.105469 C 249.777344 199.191406 250.066406 199.398438 250.25 199.6875 C 250.433594 199.980469 250.480469 200.332031 250.394531 200.671875 C 249.167969 205.558594 247.359375 209.847656 245.015625 213.410156 C 244.855469 213.640625 244.625 213.824219 244.359375 213.921875 C 243.871094 214.089844 243.375 214.261719 242.875 214.445312 C 234.8125 217.335938 228.167969 219.207031 221.996094 220.339844 C 217.183594 221.226562 212.714844 221.652344 208.316406 221.652344 Z M 207.84375 219.074219 C 207.964844 219.0625 208.160156 219.074219 208.316406 219.074219 C 212.558594 219.074219 216.867188 218.660156 221.496094 217.820312 C 227.535156 216.726562 234.046875 214.882812 241.976562 212.035156 C 242.34375 211.902344 242.695312 211.78125 243.058594 211.648438 C 244.601562 209.230469 245.890625 206.457031 246.898438 203.382812 C 245.535156 204.171875 244.03125 204.976562 242.097656 205.9375 C 237.105469 208.425781 231.796875 210.347656 226.320312 211.660156 C 225.675781 211.816406 225.03125 211.953125 224.386719 212.097656 C 221.605469 212.679688 218.703125 213.09375 215.777344 213.351562 C 213.175781 213.570312 210.492188 213.652344 207.808594 213.605469 C 205.160156 213.652344 202.488281 213.570312 199.886719 213.351562 C 196.960938 213.105469 194.054688 212.679688 191.273438 212.097656 C 190.628906 211.964844 189.988281 211.816406 189.34375 211.660156 C 183.863281 210.347656 178.570312 208.425781 173.5625 205.9375 C 171.632812 204.976562 170.125 204.171875 168.777344 203.382812 C 169.796875 206.472656 171.074219 209.230469 172.617188 211.648438 L 173.699219 212.023438 C 181.628906 214.867188 188.140625 216.703125 194.179688 217.808594 C 198.988281 218.695312 203.421875 219.097656 207.84375 219.074219 Z M 207.84375 219.074219 " fill-opacity="1" fill-rule="nonzero"/><path fill="#000000" d="M 259.542969 206.933594 C 259.492188 206.933594 259.457031 206.933594 259.410156 206.921875 C 253.699219 206.347656 249.121094 203.421875 247.140625 199.09375 C 246.472656 197.636719 246.339844 196.335938 246.289062 195.15625 C 246.265625 194.449219 246.8125 193.84375 247.527344 193.820312 C 248.234375 193.78125 248.839844 194.355469 248.863281 195.058594 C 248.902344 196.117188 249.023438 197.027344 249.484375 198.023438 C 251.074219 201.5 254.878906 203.871094 259.664062 204.355469 C 260.367188 204.429688 260.890625 205.0625 260.816406 205.765625 C 260.757812 206.433594 260.199219 206.933594 259.542969 206.933594 Z M 156.144531 206.933594 C 155.488281 206.933594 154.929688 206.433594 154.867188 205.777344 C 154.796875 205.074219 155.320312 204.441406 156.023438 204.367188 C 160.808594 203.882812 164.609375 201.523438 166.203125 198.035156 C 166.652344 197.039062 166.773438 196.128906 166.820312 195.070312 C 166.847656 194.355469 167.441406 193.78125 168.160156 193.832031 C 168.863281 193.855469 169.421875 194.449219 169.398438 195.167969 C 169.347656 196.347656 169.226562 197.648438 168.546875 199.105469 C 166.566406 203.433594 161.988281 206.347656 156.277344 206.933594 C 156.230469 206.933594 156.191406 206.933594 156.144531 206.933594 Z M 156.144531 206.933594 " fill-opacity="1" fill-rule="nonzero"/><path fill="#000000" d="M 33.964844 51.527344 L 26.8125 52.121094 L 38.667969 193.574219 L 45.824219 192.96875 Z M 33.964844 51.527344 " fill-opacity="1" fill-rule="evenodd"/><path fill="#000000" d="M 38.667969 194.863281 C 38.363281 194.863281 38.074219 194.753906 37.839844 194.558594 C 37.585938 194.339844 37.417969 194.027344 37.390625 193.683594 L 25.523438 52.230469 C 25.464844 51.527344 25.984375 50.894531 26.703125 50.832031 L 33.855469 50.238281 C 34.210938 50.199219 34.539062 50.324219 34.792969 50.542969 C 35.046875 50.761719 35.21875 51.074219 35.242188 51.417969 L 47.109375 192.859375 C 47.171875 193.5625 46.648438 194.195312 45.933594 194.257812 L 38.777344 194.851562 C 38.742188 194.851562 38.703125 194.863281 38.667969 194.863281 Z M 28.195312 53.300781 L 39.847656 192.179688 L 44.425781 191.789062 L 32.789062 52.910156 Z M 28.195312 53.300781 " fill-opacity="1" fill-rule="nonzero"/><path fill="#fffbfa" d="M 71.902344 160.300781 C 71.367188 160.25 72.972656 160.445312 73.480469 160.617188 C 74.648438 160.992188 75.703125 161.539062 76.699219 162.269531 C 79.496094 164.308594 81.5 166.851562 82.519531 170.191406 C 85.375 179.515625 80.988281 191.289062 75.765625 198.984375 C 72.886719 203.214844 68.683594 207.042969 63.519531 208.050781 C 60.65625 208.609375 57.714844 208.027344 55.589844 205.9375 C 55.078125 205.4375 53.269531 202.507812 53.269531 202.507812 C 53.269531 202.507812 48.496094 203.421875 46.820312 203.566406 C 39.589844 204.171875 29.519531 204.28125 24.46875 198.058594 C 22.257812 195.351562 21.40625 192.25 21.441406 188.800781 C 21.453125 188.09375 21.636719 186.246094 21.636719 186.246094 C 21.636719 186.246094 19.121094 184.535156 18.5625 184 C 16.667969 182.1875 15.136719 179.941406 14.496094 177.375 C 12.902344 171.152344 15.648438 167.277344 17.957031 163.691406 C 17.96875 163.679688 16.109375 161.003906 15.285156 156.167969 C 13.960938 148.414062 19.828125 141.242188 26.617188 137.839844 C 30.964844 135.664062 36.019531 135.386719 40.636719 136.78125 C 41.851562 137.160156 44.65625 138.289062 44.65625 138.289062 C 44.65625 138.289062 47.402344 136.371094 47.800781 136.152344 C 49.78125 135.117188 51.53125 134.800781 53.753906 134.875 C 64.929688 135.277344 73.519531 149.457031 71.902344 160.300781 Z M 71.902344 160.300781 " fill-opacity="1" fill-rule="evenodd"/><path fill="#000000" d="M 61.492188 209.535156 C 58.855469 209.535156 56.453125 208.597656 54.664062 206.847656 C 54.226562 206.421875 53.28125 204.976562 52.625 203.929688 C 51.15625 204.210938 48.203125 204.734375 46.902344 204.84375 C 39.433594 205.460938 28.851562 205.523438 23.445312 198.863281 C 21.1875 196.078125 20.09375 192.773438 20.128906 188.789062 C 20.128906 188.324219 20.203125 187.5 20.253906 186.878906 C 19.425781 186.308594 18.101562 185.359375 17.652344 184.933594 C 15.417969 182.796875 13.886719 180.292969 13.21875 177.703125 C 11.589844 171.335938 14.214844 167.082031 16.425781 163.652344 C 15.710938 162.328125 14.589844 159.863281 13.996094 156.386719 C 12.515625 147.734375 19.195312 140.113281 26.023438 136.683594 C 30.578125 134.398438 35.898438 134 40.988281 135.554688 C 41.886719 135.824219 43.550781 136.464844 44.460938 136.832031 C 45.421875 136.164062 46.832031 135.191406 47.183594 135.007812 C 49.261719 133.925781 51.214844 133.5 53.777344 133.585938 C 58.625 133.757812 63.363281 136.320312 67.105469 140.816406 C 71.441406 146.03125 73.808594 153.117188 73.324219 159.230469 C 73.542969 159.277344 73.738281 159.328125 73.882812 159.375 C 75.183594 159.800781 76.347656 160.410156 77.464844 161.222656 C 80.636719 163.542969 82.703125 166.351562 83.757812 169.816406 C 86.832031 179.84375 81.949219 192.191406 76.835938 199.703125 C 73.261719 204.953125 68.621094 208.355469 63.777344 209.300781 C 63 209.460938 62.234375 209.535156 61.492188 209.535156 Z M 53.257812 201.207031 C 53.695312 201.207031 54.117188 201.4375 54.351562 201.816406 C 55.164062 203.140625 56.21875 204.734375 56.488281 205.011719 C 58.164062 206.675781 60.582031 207.296875 63.265625 206.773438 C 68.914062 205.679688 72.851562 200.964844 74.695312 198.253906 C 79.496094 191.207031 84.097656 179.734375 81.292969 170.570312 C 80.40625 167.664062 78.65625 165.292969 75.949219 163.300781 C 75.0625 162.644531 74.125 162.171875 73.09375 161.832031 C 72.949219 161.78125 72.523438 161.695312 71.828125 161.601562 C 70.445312 161.382812 70.503906 160.335938 70.53125 160.128906 C 70.554688 159.960938 70.613281 159.800781 70.699219 159.667969 C 71.367188 154.078125 69.207031 147.390625 65.136719 142.496094 C 61.867188 138.570312 57.8125 136.320312 53.707031 136.1875 C 51.582031 136.113281 50.085938 136.429688 48.398438 137.316406 C 48.140625 137.464844 46.671875 138.472656 45.398438 139.371094 C 45.03125 139.625 44.570312 139.675781 44.171875 139.515625 C 44.144531 139.503906 41.414062 138.398438 40.257812 138.058594 C 35.800781 136.699219 31.160156 137.050781 27.1875 139.03125 C 21.1875 142.046875 15.296875 148.632812 16.546875 155.984375 C 17.191406 159.753906 18.480469 162.132812 19 162.984375 C 19.269531 163.421875 19.292969 164.042969 19 164.457031 L 18.757812 164.832031 C 16.582031 168.1875 14.335938 171.652344 15.722656 177.09375 C 16.269531 179.222656 17.542969 181.300781 19.4375 183.097656 C 19.765625 183.414062 21.332031 184.535156 22.339844 185.214844 C 22.730469 185.480469 22.949219 185.945312 22.898438 186.40625 C 22.851562 186.902344 22.71875 188.300781 22.71875 188.835938 C 22.695312 192.203125 23.59375 194.960938 25.464844 197.269531 C 30.105469 202.984375 39.808594 202.875 46.710938 202.300781 C 48.300781 202.167969 52.976562 201.269531 53.027344 201.269531 C 53.097656 201.21875 53.171875 201.207031 53.257812 201.207031 Z M 53.257812 201.207031 " fill-opacity="1" fill-rule="nonzero"/><path fill="#000000" d="M 53.027344 203.433594 C 52.5625 203.433594 52.125 203.1875 51.894531 202.75 C 51.554688 202.121094 51.800781 201.34375 52.417969 201 C 57.519531 198.253906 62.332031 195.363281 65.003906 190.269531 C 65.332031 189.636719 66.109375 189.394531 66.738281 189.722656 C 67.371094 190.050781 67.613281 190.828125 67.285156 191.460938 C 64.273438 197.210938 59.113281 200.320312 53.632812 203.261719 C 53.4375 203.382812 53.230469 203.433594 53.027344 203.433594 Z M 32.898438 197.136719 C 32.289062 197.136719 31.753906 196.710938 31.632812 196.089844 C 31.5 195.386719 31.960938 194.71875 32.65625 194.585938 C 36.128906 193.929688 39.203125 192.6875 41.777344 190.914062 C 43.878906 189.46875 45.480469 187.914062 46.671875 186.175781 C 47.472656 184.996094 48.058594 183.769531 48.410156 182.515625 C 49.113281 179.988281 48.835938 177.644531 47.597656 175.710938 C 46.320312 173.71875 44.121094 172.367188 41.425781 171.917969 C 36.019531 171.03125 31.441406 172.78125 27.429688 177.277344 C 24.855469 180.160156 23.277344 183.839844 22.742188 188.203125 C 22.65625 188.910156 22.011719 189.40625 21.308594 189.320312 C 20.605469 189.238281 20.105469 188.59375 20.191406 187.886719 C 20.800781 182.988281 22.585938 178.847656 25.511719 175.550781 C 30.089844 170.410156 35.59375 168.332031 41.851562 169.367188 C 44.183594 169.753906 46.222656 170.679688 47.828125 172.050781 C 48.214844 170.546875 48.238281 169.011719 47.886719 167.554688 C 47.679688 166.691406 47.472656 166.035156 47.230469 165.488281 C 47.21875 165.464844 47.207031 165.441406 47.195312 165.417969 C 44.195312 166.386719 40.925781 166.183594 38.183594 164.820312 C 35.738281 163.605469 33.941406 161.539062 33.117188 159 C 32.921875 158.390625 32.777344 157.757812 32.691406 157.101562 C 32.628906 157.101562 32.570312 157.089844 32.507812 157.078125 C 28.523438 156.335938 24.539062 159.058594 21.890625 161.476562 C 20.664062 162.609375 19.316406 164.078125 18.394531 165.320312 C 17.96875 165.890625 17.167969 166 16.597656 165.574219 C 16.023438 165.148438 15.902344 164.335938 16.339844 163.777344 C 17.375 162.390625 18.808594 160.820312 20.167969 159.582031 C 24.441406 155.667969 28.742188 153.917969 32.640625 154.488281 C 32.726562 153.492188 32.910156 152.460938 33.226562 151.390625 C 33.832031 149.265625 34.867188 147.148438 36.285156 145.109375 C 38.644531 141.703125 41.523438 139.261719 44.777344 136.648438 C 45.335938 136.199219 46.136719 136.285156 46.585938 136.84375 C 47.039062 137.402344 46.953125 138.203125 46.394531 138.652344 C 43.308594 141.144531 40.574219 143.453125 38.398438 146.578125 C 37.148438 148.390625 36.238281 150.25 35.703125 152.109375 C 35.046875 154.367188 35.011719 156.421875 35.59375 158.210938 C 36.371094 160.617188 38.074219 161.878906 39.359375 162.523438 C 41.535156 163.605469 44.265625 163.738281 46.671875 162.898438 C 52.453125 160.871094 54.703125 154.671875 54.351562 149.773438 C 54.300781 149.070312 54.835938 148.449219 55.539062 148.402344 C 56.246094 148.363281 56.863281 148.886719 56.914062 149.59375 C 57.363281 155.886719 54.421875 161.660156 49.589844 164.394531 C 49.601562 164.417969 49.613281 164.445312 49.613281 164.457031 C 49.929688 165.160156 50.183594 165.964844 50.425781 166.972656 C 50.996094 169.378906 50.789062 171.90625 49.832031 174.335938 C 51.433594 176.863281 51.835938 180.011719 50.949219 183.207031 C 50.523438 184.726562 49.820312 186.210938 48.859375 187.632812 C 47.488281 189.648438 45.664062 191.414062 43.296875 193.042969 C 40.429688 195.011719 37.027344 196.382812 33.203125 197.113281 C 33.054688 197.136719 32.96875 197.136719 32.898438 197.136719 Z M 68.1875 179.113281 C 68.027344 179.113281 67.871094 179.089844 67.710938 179.027344 C 67.042969 178.773438 66.726562 178.019531 66.984375 177.363281 C 69.132812 171.894531 70.105469 166.207031 70.992188 160.382812 C 71.101562 159.679688 71.757812 159.195312 72.460938 159.304688 C 73.167969 159.414062 73.652344 160.070312 73.542969 160.773438 C 72.632812 166.753906 71.636719 172.585938 69.386719 178.3125 C 69.183594 178.796875 68.695312 179.113281 68.1875 179.113281 Z M 68.1875 179.113281 " fill-opacity="1" fill-rule="nonzero"/></svg>