<svg xmlns="http://www.w3.org/2000/svg" xmlns:xlink="http://www.w3.org/1999/xlink" width="500" zoomAndPan="magnify" viewBox="0 0 375 374.999991" height="500" preserveAspectRatio="xMidYMid meet" version="1.0"><defs><clipPath id="7fd20c9452"><path d="M 164.632812 150.28125 L 210.367188 150.28125 L 210.367188 224.78125 L 164.632812 224.78125 Z M 164.632812 150.28125 " clip-rule="nonzero"/></clipPath><clipPath id="43ea4e914d"><path d="M 181.882812 150.28125 L 193.117188 150.28125 C 197.691406 150.28125 202.082031 152.097656 205.316406 155.332031 C 208.550781 158.566406 210.367188 162.957031 210.367188 167.53125 L 210.367188 207.46875 C 210.367188 212.042969 208.550781 216.433594 205.316406 219.667969 C 202.082031 222.902344 197.691406 224.71875 193.117188 224.71875 L 181.882812 224.71875 C 177.308594 224.71875 172.917969 222.902344 169.683594 219.667969 C 166.449219 216.433594 164.632812 212.042969 164.632812 207.46875 L 164.632812 167.53125 C 164.632812 162.957031 166.449219 158.566406 169.683594 155.332031 C 172.917969 152.097656 177.308594 150.28125 181.882812 150.28125 Z M 181.882812 150.28125 " clip-rule="nonzero"/></clipPath><clipPath id="b3e2618eeb"><path d="M 142 8.613281 L 320 8.613281 L 320 72 L 142 72 Z M 142 8.613281 " clip-rule="nonzero"/></clipPath><clipPath id="f47486bd44"><path d="M 58 185 L 309 185 L 309 366.363281 L 58 366.363281 Z M 58 185 " clip-rule="nonzero"/></clipPath><clipPath id="7edaf06a06"><path d="M 75 187 L 309 187 L 309 366.363281 L 75 366.363281 Z M 75 187 " clip-rule="nonzero"/></clipPath></defs><g clip-path="url(#7fd20c9452)"><g clip-path="url(#43ea4e914d)"><path fill="#65a1b7" d="M 164.632812 150.28125 L 210.367188 150.28125 L 210.367188 224.78125 L 164.632812 224.78125 Z M 164.632812 150.28125 " fill-opacity="1" fill-rule="nonzero"/></g></g><path fill="#000000" d="M 127.523438 150.289062 C 127.691406 150.480469 126.003906 149.847656 125.875 149.796875 C 124.480469 149.199219 123.125 148.527344 121.792969 147.828125 C 118.230469 145.976562 114.769531 143.921875 111.371094 141.789062 C 101.351562 135.480469 91.019531 128.375 84.019531 118.640625 C 81.609375 115.300781 77.96875 109.679688 80.898438 105.644531 C 83.183594 102.496094 93.667969 97.699219 97.613281 99.285156 C 100.882812 100.605469 103.570312 104.589844 106.144531 106.902344 C 110.46875 110.773438 116.214844 113.628906 119.929688 118.09375 C 124.964844 124.121094 125.789062 134.464844 124.875 141.914062 " fill-opacity="1" fill-rule="evenodd"/><path fill="#000000" d="M 127.5625 151.179688 C 127.183594 151.179688 126.585938 151.015625 125.546875 150.570312 C 124.316406 150.035156 123.035156 149.429688 121.398438 148.578125 C 118.140625 146.875 114.707031 144.882812 110.914062 142.5 C 101.390625 136.496094 90.613281 129.25 83.335938 119.136719 C 81.519531 116.621094 76.726562 109.945312 80.214844 105.125 C 82.699219 101.683594 93.554688 96.699219 97.941406 98.476562 C 100.351562 99.453125 102.34375 101.621094 104.269531 103.714844 C 105.132812 104.65625 105.941406 105.53125 106.730469 106.242188 C 108.429688 107.765625 110.394531 109.160156 112.308594 110.503906 C 115.25 112.585938 118.304688 114.757812 120.601562 117.511719 C 125.824219 123.78125 126.6875 134.261719 125.738281 141.992188 C 125.671875 142.460938 125.253906 142.804688 124.773438 142.738281 C 124.304688 142.675781 123.960938 142.257812 124.023438 141.773438 C 124.875 134.746094 124.152344 124.464844 119.269531 118.613281 C 117.113281 116.027344 114.160156 113.933594 111.308594 111.914062 C 109.355469 110.53125 107.339844 109.109375 105.574219 107.523438 C 104.726562 106.761719 103.875 105.847656 102.988281 104.871094 C 101.1875 102.917969 99.335938 100.886719 97.28125 100.0625 C 93.707031 98.613281 83.664062 103.257812 81.597656 106.113281 C 79.125 109.539062 82.191406 114.59375 84.730469 118.105469 C 91.832031 127.96875 102.445312 135.101562 111.839844 141.015625 C 115.59375 143.375 118.976562 145.339844 122.199219 147.015625 C 123.796875 147.839844 125.039062 148.449219 126.230469 148.957031 C 126.410156 149.035156 127.117188 149.289062 127.460938 149.390625 C 127.726562 149.351562 128.019531 149.464844 128.210938 149.695312 C 128.464844 150 128.488281 150.46875 128.246094 150.785156 C 128.082031 151.027344 127.917969 151.179688 127.5625 151.179688 Z M 127.5625 151.179688 " fill-opacity="1" fill-rule="nonzero"/><path fill="#fffbfa" d="M 75.015625 115.074219 C 80.292969 127.484375 99.539062 117.15625 103.636719 109.65625 C 108.175781 101.34375 102.710938 96.671875 102.710938 96.671875 C 103.851562 95.910156 105.257812 94.832031 105.703125 94.210938 C 107.414062 91.824219 108.769531 89.109375 109.304688 86.203125 C 110.304688 80.71875 106.867188 75.9375 107.65625 70.695312 C 108.734375 63.613281 122.3125 58.511719 111.660156 52.320312 C 103.40625 47.523438 97.800781 56.925781 94.277344 62.828125 C 93.023438 64.921875 91.78125 68.511719 88.902344 68.792969 C 85.871094 69.082031 82.585938 66.46875 80.304688 64.804688 C 74.738281 60.757812 69.980469 55.566406 63.808594 52.355469 C 59.535156 50.136719 52.21875 47.34375 48.425781 51.914062 C 46.15625 54.667969 46.890625 57.496094 46.890625 57.496094 C 45.761719 57.269531 43.847656 56.457031 42.910156 56.355469 C 40.042969 56 36.8125 56.277344 34.289062 57.761719 C 31.535156 59.386719 29.886719 62.597656 30.710938 65.769531 C 30.914062 66.558594 32.5625 69.617188 32.5625 69.617188 C 31.460938 69.792969 29.648438 70.1875 28.265625 71.0625 C 26.273438 72.320312 25.207031 73.855469 24.550781 76.125 C 23.371094 80.1875 26.804688 82.902344 30.40625 84.03125 C 37.164062 86.164062 46.511719 85.390625 51.886719 90.644531 C 55.019531 93.714844 55.667969 98.042969 57.390625 101.875 C 60.585938 108.957031 66.632812 115.238281 75.015625 115.074219 Z M 75.015625 115.074219 " fill-opacity="1" fill-rule="evenodd"/><path fill="#000000" d="M 83.980469 122.003906 C 83.738281 122.003906 83.5 122.003906 83.269531 121.992188 C 79.136719 121.789062 76.054688 119.796875 74.28125 116.230469 C 66.863281 116.039062 60.207031 110.886719 56.351562 102.332031 C 55.820312 101.140625 55.375 99.910156 54.957031 98.714844 C 53.992188 95.988281 53.09375 93.410156 51.089844 91.457031 C 47.765625 88.195312 42.582031 87.410156 37.585938 86.648438 C 35.035156 86.253906 32.398438 85.847656 30.066406 85.125 C 24.878906 83.488281 22.292969 79.832031 23.445312 75.796875 C 24.195312 73.21875 25.488281 71.457031 27.644531 70.085938 C 28.480469 69.550781 29.558594 69.121094 30.824219 68.804688 C 30.320312 67.800781 29.734375 66.597656 29.597656 66.0625 C 28.683594 62.546875 30.371094 58.742188 33.703125 56.773438 C 36.152344 55.339844 39.472656 54.78125 43.050781 55.226562 C 43.65625 55.300781 44.46875 55.566406 45.332031 55.859375 C 45.433594 55.898438 45.535156 55.921875 45.636719 55.960938 C 45.699219 54.691406 46.117188 52.929688 47.539062 51.203125 C 50.734375 47.332031 56.707031 47.382812 64.328125 51.355469 C 68.359375 53.460938 71.820312 56.378906 75.167969 59.222656 C 77.046875 60.808594 78.984375 62.445312 80.976562 63.90625 L 81.496094 64.285156 C 83.574219 65.808594 86.414062 67.890625 88.785156 67.675781 C 90.5 67.507812 91.589844 65.453125 92.539062 63.640625 C 92.792969 63.15625 93.046875 62.6875 93.289062 62.269531 C 96.925781 56.164062 103.015625 45.984375 112.234375 51.367188 C 114.996094 52.964844 116.480469 54.679688 116.796875 56.59375 C 117.253906 59.425781 115.109375 61.863281 112.839844 64.449219 C 111.015625 66.53125 109.125 68.691406 108.785156 70.910156 C 108.429688 73.21875 109 75.492188 109.609375 77.890625 C 110.292969 80.59375 110.988281 83.386719 110.417969 86.457031 C 109.898438 89.300781 108.617188 92.15625 106.613281 94.933594 C 106.160156 95.570312 105.183594 96.355469 104.394531 96.9375 C 105.90625 98.929688 108.277344 103.589844 104.625 110.277344 C 101.644531 115.707031 91.929688 122.003906 83.980469 122.003906 Z M 75.015625 113.933594 C 75.472656 113.933594 75.890625 114.210938 76.070312 114.628906 C 77.425781 117.816406 79.886719 119.515625 83.371094 119.695312 C 90.269531 120.011719 99.921875 114.058594 102.621094 109.109375 C 106.628906 101.761719 102.140625 97.714844 101.949219 97.546875 C 101.683594 97.308594 101.53125 96.964844 101.554688 96.609375 C 101.582031 96.253906 101.769531 95.925781 102.0625 95.722656 C 103.394531 94.832031 104.496094 93.90625 104.765625 93.539062 C 106.566406 91.039062 107.707031 88.488281 108.164062 85.988281 C 108.632812 83.410156 108.023438 80.972656 107.375 78.398438 C 106.742188 75.886719 106.09375 73.285156 106.515625 70.515625 C 106.957031 67.625 109.074219 65.210938 111.117188 62.878906 C 113.019531 60.707031 114.820312 58.664062 114.527344 56.914062 C 114.335938 55.734375 113.171875 54.527344 111.078125 53.308594 C 104.371094 49.398438 99.589844 56.152344 95.265625 63.386719 C 95.027344 63.777344 94.796875 64.210938 94.570312 64.667969 C 93.464844 66.761719 91.957031 69.640625 89.003906 69.921875 C 85.757812 70.238281 82.511719 67.851562 80.140625 66.101562 L 79.617188 65.71875 C 77.550781 64.222656 75.585938 62.546875 73.683594 60.9375 C 70.4375 58.183594 67.078125 55.339844 63.273438 53.359375 C 59.46875 51.378906 52.597656 48.652344 49.3125 52.636719 C 47.476562 54.871094 47.980469 57.117188 48.007812 57.203125 C 48.097656 57.585938 47.996094 57.992188 47.714844 58.269531 C 47.449219 58.550781 47.042969 58.691406 46.664062 58.601562 C 46.066406 58.488281 45.320312 58.234375 44.609375 57.992188 C 43.925781 57.761719 43.152344 57.507812 42.769531 57.457031 C 40.984375 57.242188 37.585938 57.117188 34.859375 58.714844 C 32.410156 60.148438 31.15625 62.914062 31.816406 65.441406 C 31.917969 65.835938 32.804688 67.625 33.566406 69.03125 C 33.742188 69.363281 33.742188 69.753906 33.589844 70.085938 C 33.425781 70.414062 33.109375 70.65625 32.753906 70.707031 C 31.078125 70.988281 29.785156 71.417969 28.886719 71.988281 C 27.1875 73.066406 26.261719 74.335938 25.664062 76.394531 C 24.433594 80.65625 29.695312 82.546875 30.761719 82.890625 C 32.917969 83.574219 35.351562 83.945312 37.9375 84.335938 C 43.304688 85.164062 48.855469 86.011719 52.710938 89.78125 C 55.109375 92.117188 56.136719 95.074219 57.136719 97.929688 C 57.542969 99.070312 57.960938 100.265625 58.457031 101.367188 C 61.992188 109.25 68.066406 113.917969 74.738281 113.917969 C 74.824219 113.917969 74.914062 113.917969 75.003906 113.917969 C 75.003906 113.933594 75.015625 113.933594 75.015625 113.933594 Z M 75.015625 113.933594 " fill-opacity="1" fill-rule="nonzero"/><path fill="#000000" d="M 74.292969 116.230469 C 74.039062 116.230469 73.761719 116.152344 73.507812 115.925781 C 73.175781 115.621094 73.050781 115.113281 73.175781 114.679688 C 73.328125 114.1875 73.785156 113.882812 74.269531 113.882812 C 74.269531 113.882812 74.28125 113.882812 74.28125 113.882812 C 74.371094 113.84375 74.421875 113.832031 74.472656 113.816406 C 74.773438 113.742188 75.054688 113.628906 75.347656 113.511719 C 76.285156 113.144531 77.222656 112.6875 78.238281 112.117188 C 81.179688 110.453125 83.738281 108.171875 85.097656 106 C 85.4375 105.46875 86.136719 105.300781 86.683594 105.632812 C 87.214844 105.976562 87.378906 106.671875 87.050781 107.21875 C 85.503906 109.691406 82.636719 112.28125 79.378906 114.121094 C 78.289062 114.746094 77.246094 115.238281 76.207031 115.65625 C 75.839844 115.796875 75.472656 115.9375 75.09375 116.039062 C 74.914062 116.101562 74.609375 116.230469 74.292969 116.230469 Z M 92.453125 101.964844 C 91.929688 101.964844 91.476562 101.621094 91.335938 101.101562 C 91.183594 100.480469 91.550781 99.859375 92.171875 99.707031 C 94.570312 99.109375 97.359375 98.308594 99.945312 96.925781 C 100.695312 96.53125 101.492188 96.101562 102.214844 95.632812 C 102.417969 95.503906 102.621094 95.367188 102.8125 95.214844 C 102.875 95.148438 102.976562 95.085938 103.066406 95.023438 C 103.128906 94.972656 103.203125 94.921875 103.269531 94.871094 C 103.75 94.453125 104.472656 94.503906 104.890625 94.984375 C 105.308594 95.46875 105.257812 96.191406 104.777344 96.609375 C 104.664062 96.710938 104.511719 96.8125 104.382812 96.914062 L 104.257812 97.003906 C 104.003906 97.207031 103.738281 97.382812 103.457031 97.5625 C 102.660156 98.082031 101.808594 98.539062 101.011719 98.957031 C 98.207031 100.441406 95.242188 101.292969 92.71875 101.925781 C 92.628906 101.953125 92.539062 101.964844 92.453125 101.964844 Z M 78.375 90.402344 C 78.351562 90.402344 78.339844 90.402344 78.3125 90.402344 C 77.679688 90.367188 77.195312 89.832031 77.222656 89.199219 C 77.488281 84.121094 79.046875 80.363281 82.015625 77.710938 C 82.828125 76.976562 84.144531 75.988281 85.84375 75.402344 C 86.441406 75.199219 87.101562 75.515625 87.304688 76.113281 C 87.507812 76.710938 87.1875 77.371094 86.59375 77.574219 C 85.261719 78.03125 84.195312 78.828125 83.550781 79.425781 C 81.066406 81.660156 79.746094 84.894531 79.519531 89.324219 C 79.492188 89.921875 78.984375 90.402344 78.375 90.402344 Z M 60.28125 84.757812 C 59.964844 84.757812 59.648438 84.617188 59.417969 84.363281 C 54.105469 78.234375 43.417969 68.359375 31.523438 70.949219 C 30.902344 71.089844 30.292969 70.695312 30.152344 70.074219 C 30.015625 69.453125 30.40625 68.84375 31.027344 68.703125 C 44.0625 65.847656 55.488281 76.355469 61.144531 82.851562 C 61.5625 83.335938 61.511719 84.058594 61.03125 84.476562 C 60.828125 84.667969 60.546875 84.757812 60.28125 84.757812 Z M 71.3125 77.902344 C 70.921875 77.902344 70.539062 77.699219 70.324219 77.332031 C 64.695312 67.761719 55.753906 61.175781 43.785156 57.75 C 43.175781 57.574219 42.820312 56.9375 43 56.328125 C 43.175781 55.71875 43.808594 55.378906 44.417969 55.542969 C 56.984375 59.132812 66.367188 66.074219 72.300781 76.164062 C 72.621094 76.710938 72.441406 77.421875 71.898438 77.738281 C 71.707031 77.851562 71.503906 77.902344 71.3125 77.902344 Z M 71.3125 77.902344 " fill-opacity="1" fill-rule="nonzero"/><path fill="#ff431d" d="M 206.992188 242.222656 C 187.554688 247.296875 165.742188 237.476562 150.652344 224.152344 C 113.816406 191.648438 102.304688 113.742188 134.234375 75.226562 C 140.777344 67.320312 151.414062 61.242188 161.332031 58.082031 C 177.851562 52.800781 219.34375 57.8125 226.011719 66.949219 C 226.175781 67.179688 226.339844 67.421875 226.507812 67.660156 C 226.898438 67.269531 227.316406 66.886719 227.75 66.53125 C 236.359375 59.195312 277.875 64.019531 292.710938 73.015625 C 301.609375 78.410156 310.539062 86.8125 315.066406 96.027344 C 337.128906 140.949219 307.75 214.011719 264.371094 237.007812 C 247.113281 246.117188 224.503906 250.597656 206.992188 242.222656 Z M 206.992188 242.222656 " fill-opacity="1" fill-rule="evenodd"/><path fill="#000000" d="M 227.835938 247.769531 C 220.621094 247.769531 213.457031 246.5 206.878906 243.425781 C 186.15625 248.617188 163.878906 237.347656 149.894531 225.011719 C 132.050781 209.277344 119.207031 182.015625 115.515625 152.09375 C 111.699219 121.0625 118.191406 92.777344 133.34375 74.488281 C 139.480469 67.089844 149.804688 60.542969 160.976562 56.976562 C 177.320312 51.761719 218.734375 56.265625 226.671875 65.921875 C 226.785156 65.820312 226.886719 65.734375 227 65.644531 C 236.332031 57.699219 278.457031 63.03125 293.304688 72.015625 C 303.335938 78.09375 311.855469 86.875 316.089844 95.492188 C 326.566406 116.8125 326.285156 145.835938 315.332031 175.113281 C 304.769531 203.351562 285.914062 226.855469 264.902344 237.996094 C 254.644531 243.425781 241.164062 247.769531 227.835938 247.769531 Z M 206.992188 241.066406 C 207.15625 241.066406 207.332031 241.105469 207.484375 241.179688 C 225.503906 249.796875 248.40625 244.136719 263.824219 235.964844 C 304.945312 214.175781 336.683594 142.625 314.039062 96.507812 C 309.992188 88.257812 301.789062 79.832031 292.125 73.980469 C 277.316406 65.007812 236.296875 60.769531 228.496094 67.394531 C 228.089844 67.738281 227.699219 68.105469 227.316406 68.472656 C 227.078125 68.714844 226.734375 68.828125 226.40625 68.792969 C 226.0625 68.753906 225.757812 68.574219 225.566406 68.296875 C 225.414062 68.066406 225.261719 67.851562 225.097656 67.625 C 219.0625 59.347656 178.183594 53.90625 161.699219 59.160156 C 150.917969 62.597656 140.992188 68.867188 135.132812 75.949219 C 102.355469 115.503906 116.519531 192.488281 151.425781 223.289062 C 165.070312 235.316406 186.753906 246.320312 206.710938 241.105469 C 206.789062 241.078125 206.890625 241.066406 206.992188 241.066406 Z M 206.992188 241.066406 " fill-opacity="1" fill-rule="nonzero"/><path fill="#000000" d="M 233.570312 10.058594 C 233.671875 9.996094 233.773438 9.917969 233.875 9.855469 C 233.875 9.917969 235.371094 10.324219 235.445312 10.351562 C 239.238281 11.542969 243.003906 12.839844 246.78125 14.082031 C 247.65625 14.375 248.582031 14.679688 249.457031 14.984375 C 265.902344 20.644531 282.019531 27.316406 298.210938 33.675781 C 303.042969 35.566406 312.148438 38.980469 318.222656 41.671875 C 318.375 41.734375 307.875 45.125 306.226562 45.695312 C 296.285156 49.222656 285.773438 52.332031 277.136719 55.503906 L 274.945312 66.671875 C 271.710938 67.941406 259.054688 69.007812 254.847656 69.285156 C 246.808594 69.84375 241.328125 69.984375 235.851562 69.703125 C 235.015625 69.730469 234.152344 69.691406 233.226562 69.601562 C 230.804688 69.363281 228.636719 69.132812 226.609375 68.894531 C 224.578125 68.652344 222.410156 68.371094 220 68.042969 C 219.089844 67.914062 218.238281 67.75 217.425781 67.535156 C 212.027344 66.519531 206.738281 65.109375 199.054688 62.6875 C 195.035156 61.417969 182.976562 57.433594 180.121094 55.441406 L 180.589844 44.070312 C 172.945312 38.957031 163.449219 33.484375 154.597656 27.738281 C 153.140625 26.785156 143.703125 21.050781 143.882812 21.023438 C 150.414062 19.832031 160.0625 18.636719 165.210938 17.925781 C 182.441406 15.527344 199.664062 12.800781 216.972656 11.136719 C 217.894531 11.046875 218.859375 10.960938 219.785156 10.882812 C 223.753906 10.554688 227.710938 10.171875 231.679688 9.894531 C 231.753906 9.894531 233.316406 9.84375 233.328125 9.78125 C 233.417969 9.867188 233.492188 9.957031 233.570312 10.058594 Z M 233.570312 10.058594 " fill-opacity="1" fill-rule="evenodd"/><g clip-path="url(#b3e2618eeb)"><path fill="#000000" d="M 241.429688 71.011719 C 239.476562 71.011719 237.640625 70.960938 235.800781 70.871094 C 235.003906 70.898438 234.0625 70.859375 233.125 70.769531 C 230.703125 70.53125 228.523438 70.300781 226.492188 70.058594 C 224.464844 69.820312 222.285156 69.539062 219.875 69.210938 C 218.921875 69.082031 218.011719 68.894531 217.160156 68.664062 C 211.925781 67.6875 206.738281 66.316406 198.738281 63.804688 C 198.089844 63.601562 182.960938 58.828125 179.5 56.40625 C 179.183594 56.175781 178.992188 55.808594 179.007812 55.414062 L 179.449219 44.691406 C 175.519531 42.089844 171.171875 39.414062 166.566406 36.582031 C 162.421875 34.03125 158.132812 31.40625 154 28.714844 C 153.46875 28.371094 151.84375 27.367188 150.03125 26.238281 C 142.625 21.671875 142.625 21.671875 142.777344 20.820312 C 142.867188 20.351562 143.234375 19.984375 143.703125 19.894531 C 148.738281 18.980469 155.433594 18.078125 160.808594 17.355469 C 162.40625 17.140625 163.867188 16.949219 165.070312 16.785156 C 169.050781 16.226562 173.046875 15.65625 177.027344 15.085938 C 190.0625 13.207031 203.554688 11.277344 216.882812 9.996094 C 217.808594 9.90625 218.785156 9.816406 219.710938 9.742188 L 223.222656 9.4375 C 226.023438 9.195312 228.828125 8.953125 231.628906 8.75 L 231.820312 8.738281 C 232.582031 8.714844 232.882812 8.6875 233.023438 8.675781 C 233.023438 8.675781 233.035156 8.675781 233.035156 8.675781 C 233.277344 8.613281 233.53125 8.625 233.746094 8.699219 C 233.988281 8.675781 234.242188 8.714844 234.457031 8.839844 C 234.582031 8.878906 234.886719 8.980469 235.648438 9.195312 L 235.789062 9.234375 C 238.527344 10.097656 241.226562 10.996094 243.941406 11.910156 L 247.164062 12.976562 C 248.050781 13.269531 248.976562 13.585938 249.851562 13.878906 C 262.503906 18.230469 275.148438 23.257812 287.371094 28.128906 C 291.125 29.628906 294.878906 31.113281 298.644531 32.597656 C 299.773438 33.042969 301.140625 33.574219 302.664062 34.160156 C 307.722656 36.113281 314.039062 38.550781 318.703125 40.617188 C 319.136719 40.808594 319.414062 41.253906 319.386719 41.722656 C 319.351562 42.585938 319.351562 42.585938 311.121094 45.289062 C 309.066406 45.960938 307.242188 46.558594 306.632812 46.773438 C 301.992188 48.421875 297.210938 49.984375 292.582031 51.480469 C 287.445312 53.15625 282.589844 54.742188 278.164062 56.355469 L 276.097656 66.886719 C 276.023438 67.269531 275.757812 67.597656 275.386719 67.738281 C 271.445312 69.285156 255.621094 70.390625 254.949219 70.441406 C 249.417969 70.820312 245.210938 71.011719 241.429688 71.011719 Z M 235.828125 68.5625 C 241.226562 68.84375 246.515625 68.714844 254.769531 68.144531 C 260.84375 67.726562 270.558594 66.773438 273.941406 65.796875 L 276.007812 55.289062 C 276.085938 54.894531 276.363281 54.566406 276.746094 54.4375 C 281.375 52.726562 286.457031 51.074219 291.847656 49.3125 C 296.449219 47.8125 301.21875 46.253906 305.847656 44.617188 C 306.453125 44.398438 308.304688 43.789062 310.386719 43.105469 C 311.804688 42.636719 313.605469 42.050781 315.066406 41.558594 C 310.867188 39.792969 305.933594 37.890625 301.8125 36.304688 C 300.292969 35.71875 298.921875 35.1875 297.78125 34.742188 C 294.015625 33.269531 290.261719 31.773438 286.496094 30.273438 C 274.296875 25.425781 261.679688 20.402344 249.078125 16.0625 C 248.203125 15.757812 247.289062 15.453125 246.414062 15.160156 L 243.195312 14.082031 C 240.503906 13.179688 237.804688 12.28125 235.089844 11.429688 C 234.660156 11.316406 234.292969 11.214844 233.988281 11.113281 C 233.632812 11.25 233.214844 11.214844 232.898438 10.984375 C 232.605469 11.011719 232.261719 11.023438 231.871094 11.035156 L 231.742188 11.035156 C 228.964844 11.226562 226.175781 11.46875 223.398438 11.722656 L 219.886719 12.027344 C 218.972656 12.101562 217.996094 12.191406 217.085938 12.28125 C 203.796875 13.5625 190.34375 15.492188 177.332031 17.367188 C 173.339844 17.941406 169.355469 18.511719 165.363281 19.070312 C 164.15625 19.234375 162.699219 19.4375 161.089844 19.652344 C 156.941406 20.210938 151.527344 20.933594 146.976562 21.671875 C 148.296875 22.496094 149.917969 23.5 151.210938 24.285156 C 153.050781 25.414062 154.6875 26.429688 155.230469 26.785156 C 159.339844 29.460938 163.613281 32.078125 167.746094 34.617188 C 172.578125 37.585938 177.128906 40.390625 181.238281 43.128906 C 181.566406 43.359375 181.757812 43.738281 181.746094 44.132812 L 181.300781 54.84375 C 184.355469 56.59375 193.589844 59.78125 199.394531 61.609375 C 207.296875 64.097656 212.417969 65.441406 217.644531 66.417969 C 218.492188 66.648438 219.304688 66.8125 220.152344 66.925781 C 222.550781 67.253906 224.71875 67.535156 226.734375 67.777344 C 228.75 68.015625 230.917969 68.246094 233.328125 68.488281 C 234.203125 68.5625 235.027344 68.589844 235.828125 68.5625 Z M 235.828125 68.5625 " fill-opacity="1" fill-rule="nonzero"/></g><path fill="#fff100" d="M 151.996094 86.507812 L 138.988281 84.960938 L 146.417969 50.023438 L 152.921875 50.796875 Z M 151.996094 86.507812 " fill-opacity="1" fill-rule="evenodd"/><path fill="#000000" d="M 151.996094 87.648438 C 151.945312 87.648438 151.910156 87.648438 151.859375 87.636719 L 138.859375 86.101562 C 138.542969 86.0625 138.253906 85.886719 138.0625 85.632812 C 137.871094 85.367188 137.808594 85.035156 137.871094 84.71875 L 145.300781 49.78125 C 145.429688 49.195312 145.988281 48.804688 146.558594 48.878906 L 153.0625 49.652344 C 153.660156 49.71875 154.089844 50.238281 154.078125 50.820312 L 153.152344 86.53125 C 153.140625 86.851562 153 87.15625 152.757812 87.371094 C 152.53125 87.5625 152.265625 87.648438 151.996094 87.648438 Z M 140.371094 83.96875 L 150.867188 85.214844 L 151.730469 51.8125 L 147.304688 51.289062 Z M 140.371094 83.96875 " fill-opacity="1" fill-rule="nonzero"/><path fill="#ff431d" d="M 150.347656 44.691406 C 153.507812 45.058594 155.761719 47.929688 155.382812 51.085938 C 155.015625 54.246094 152.148438 56.507812 148.992188 56.125 C 145.835938 55.757812 143.578125 52.890625 143.957031 49.730469 C 144.324219 46.570312 147.191406 44.3125 150.347656 44.691406 Z M 150.347656 44.691406 " fill-opacity="1" fill-rule="evenodd"/><path fill="#000000" d="M 149.675781 57.320312 C 149.410156 57.320312 149.132812 57.304688 148.851562 57.269531 C 147.027344 57.050781 145.390625 56.136719 144.25 54.679688 C 143.109375 53.234375 142.601562 51.417969 142.816406 49.589844 C 143.03125 47.761719 143.945312 46.125 145.402344 44.984375 C 146.847656 43.839844 148.664062 43.332031 150.488281 43.550781 C 154.265625 43.992188 156.980469 47.433594 156.535156 51.226562 C 156.320312 53.054688 155.410156 54.691406 153.949219 55.835938 C 152.707031 56.796875 151.222656 57.320312 149.675781 57.320312 Z M 149.664062 45.796875 C 148.636719 45.796875 147.648438 46.136719 146.824219 46.785156 C 145.859375 47.546875 145.25 48.636719 145.097656 49.855469 C 144.960938 51.074219 145.289062 52.28125 146.050781 53.246094 C 146.8125 54.210938 147.902344 54.820312 149.121094 54.972656 C 150.347656 55.125 151.542969 54.78125 152.503906 54.007812 C 153.46875 53.246094 154.078125 52.152344 154.230469 50.933594 C 154.535156 48.410156 152.71875 46.113281 150.195312 45.820312 C 150.019531 45.808594 149.84375 45.796875 149.664062 45.796875 Z M 149.664062 45.796875 " fill-opacity="1" fill-rule="nonzero"/><path fill="#000000" d="M 150.347656 45.832031 C 150.296875 45.832031 150.261719 45.832031 150.210938 45.820312 C 149.574219 45.746094 149.132812 45.175781 149.207031 44.539062 L 151.3125 26.695312 C 151.390625 26.0625 151.960938 25.617188 152.59375 25.695312 C 153.226562 25.769531 153.671875 26.339844 153.59375 26.976562 L 151.492188 44.820312 C 151.414062 45.414062 150.917969 45.832031 150.347656 45.832031 Z M 150.347656 45.832031 " fill-opacity="1" fill-rule="nonzero"/><path fill="#fffbfa" d="M 196.238281 107.105469 C 203.910156 108.019531 208.539062 122.320312 206.558594 139.019531 C 204.582031 155.722656 196.746094 168.550781 189.074219 167.652344 C 181.402344 166.738281 176.773438 152.433594 178.753906 135.734375 C 180.730469 119.019531 188.566406 106.191406 196.238281 107.105469 Z M 196.238281 107.105469 " fill-opacity="1" fill-rule="evenodd"/><path fill="#000000" d="M 189.859375 168.84375 C 189.554688 168.84375 189.25 168.832031 188.949219 168.792969 C 180.515625 167.792969 175.53125 153.210938 177.613281 135.59375 C 179.691406 117.980469 187.921875 104.972656 196.367188 105.960938 C 204.796875 106.964844 209.78125 121.546875 207.703125 139.160156 C 205.699219 156.128906 197.964844 168.84375 189.859375 168.84375 Z M 195.464844 108.207031 C 188.730469 108.207031 181.707031 120.554688 179.894531 135.863281 C 178.03125 151.648438 182.289062 165.683594 189.214844 166.507812 C 196.097656 167.335938 203.554688 154.683594 205.417969 138.894531 C 207.28125 123.105469 203.023438 109.070312 196.097656 108.246094 C 195.894531 108.222656 195.679688 108.207031 195.464844 108.207031 Z M 195.464844 108.207031 " fill-opacity="1" fill-rule="nonzero"/><path fill="#fffbfa" d="M 247.617188 113.183594 C 255.289062 114.097656 259.917969 128.398438 257.941406 145.101562 C 255.960938 161.800781 248.125 174.632812 240.453125 173.730469 C 232.78125 172.816406 228.15625 158.515625 230.132812 141.8125 C 232.109375 125.101562 239.949219 112.28125 247.617188 113.183594 Z M 247.617188 113.183594 " fill-opacity="1" fill-rule="evenodd"/><path fill="#000000" d="M 241.242188 174.921875 C 240.9375 174.921875 240.632812 174.910156 240.328125 174.871094 C 236.144531 174.378906 232.679688 170.53125 230.589844 164.046875 C 228.585938 157.867188 228.027344 149.910156 228.992188 141.671875 C 229.96875 133.4375 232.363281 125.835938 235.75 120.289062 C 239.300781 114.476562 243.574219 111.546875 247.746094 112.042969 C 256.179688 113.042969 261.160156 127.625 259.082031 145.238281 C 257.078125 162.21875 249.355469 174.921875 241.242188 174.921875 Z M 246.871094 114.289062 C 243.839844 114.289062 240.542969 116.875 237.714844 121.484375 C 234.496094 126.75 232.210938 134.019531 231.273438 141.941406 C 230.335938 149.859375 230.867188 157.460938 232.769531 163.335938 C 234.546875 168.832031 237.398438 172.207031 240.59375 172.589844 C 247.480469 173.414062 254.933594 160.761719 256.800781 144.972656 C 258.664062 129.1875 254.402344 115.148438 247.480469 114.324219 C 247.277344 114.300781 247.074219 114.289062 246.871094 114.289062 Z M 246.871094 114.289062 " fill-opacity="1" fill-rule="nonzero"/><path fill="#000000" d="M 200.015625 137.613281 C 199.992188 137.816406 199.964844 138.03125 199.941406 138.234375 C 198.671875 148.972656 194.375 157.308594 190.355469 156.828125 C 186.335938 156.355469 184.105469 147.246094 185.371094 136.507812 C 186.640625 125.773438 190.9375 117.433594 194.957031 117.917969 C 197.621094 118.234375 199.496094 122.320312 200.09375 128.160156 L 193.320312 131.738281 Z M 200.015625 137.613281 " fill-opacity="1" fill-rule="evenodd"/><path fill="#000000" d="M 190.722656 157.992188 C 190.558594 157.992188 190.394531 157.980469 190.226562 157.96875 C 184.761719 157.320312 183.0625 146.355469 184.242188 136.367188 C 185.421875 126.382812 189.621094 116.128906 195.097656 116.773438 C 198.304688 117.15625 200.539062 121.253906 201.234375 128.03125 C 201.285156 128.5 201.042969 128.945312 200.625 129.160156 L 195.339844 131.953125 L 200.765625 136.738281 C 201.042969 136.976562 201.183594 137.347656 201.144531 137.714844 L 201.070312 138.347656 C 199.941406 148.058594 195.945312 157.992188 190.722656 157.992188 Z M 194.628906 119.046875 C 191.738281 119.046875 187.730469 126.394531 186.511719 136.648438 C 185.269531 147.128906 187.589844 155.339844 190.496094 155.683594 C 193.4375 156.027344 197.570312 148.578125 198.800781 138.09375 L 198.800781 138.070312 L 192.5625 132.585938 C 192.28125 132.332031 192.128906 131.964844 192.179688 131.585938 C 192.230469 131.203125 192.449219 130.875 192.789062 130.695312 L 198.863281 127.484375 C 198.167969 121.902344 196.351562 119.222656 194.820312 119.046875 C 194.753906 119.046875 194.691406 119.046875 194.628906 119.046875 Z M 194.628906 119.046875 " fill-opacity="1" fill-rule="nonzero"/><path fill="#000000" d="M 251.398438 143.691406 C 251.371094 143.894531 251.347656 144.109375 251.320312 144.3125 C 250.054688 155.050781 245.753906 163.386719 241.734375 162.90625 C 237.714844 162.4375 235.484375 153.324219 236.75 142.585938 C 238.019531 131.851562 242.320312 123.511719 246.339844 123.996094 C 249 124.3125 250.878906 128.398438 251.472656 134.238281 L 244.703125 137.816406 Z M 251.398438 143.691406 " fill-opacity="1" fill-rule="evenodd"/><path fill="#000000" d="M 242.101562 164.085938 C 241.9375 164.085938 241.773438 164.074219 241.609375 164.058594 C 239.148438 163.769531 237.222656 161.21875 236.15625 156.878906 C 235.179688 152.90625 234.988281 147.789062 235.625 142.460938 C 236.800781 132.472656 241.011719 122.230469 246.476562 122.867188 C 249.6875 123.246094 251.917969 127.347656 252.613281 134.121094 C 252.664062 134.59375 252.425781 135.035156 252.007812 135.253906 L 246.71875 138.042969 L 252.144531 142.828125 C 252.425781 143.070312 252.5625 143.4375 252.527344 143.820312 L 252.460938 144.390625 C 251.320312 154.136719 247.328125 164.085938 242.101562 164.085938 Z M 246.007812 125.136719 C 243.117188 125.136719 239.109375 132.484375 237.894531 142.738281 C 237.296875 147.804688 237.460938 152.625 238.375 156.34375 C 239.171875 159.59375 240.480469 161.625 241.875 161.789062 C 244.816406 162.15625 248.9375 154.683594 250.179688 144.199219 L 250.179688 144.175781 L 243.941406 138.691406 C 243.664062 138.4375 243.511719 138.070312 243.5625 137.6875 C 243.613281 137.308594 243.828125 136.976562 244.167969 136.800781 L 250.242188 133.589844 C 249.546875 128.007812 247.734375 125.328125 246.199219 125.152344 C 246.148438 125.136719 246.070312 125.136719 246.007812 125.136719 Z M 246.007812 125.136719 " fill-opacity="1" fill-rule="nonzero"/><path fill="#000000" d="M 259.691406 108.488281 L 257.789062 107.207031 L 258.726562 107.867188 L 257.648438 108.246094 C 257.609375 108.15625 257.355469 107.472656 257.304688 107.371094 C 256.964844 106.648438 256.46875 105.835938 255.773438 104.859375 C 254.074219 102.472656 252.222656 100.734375 250.292969 99.707031 C 244.449219 96.570312 237.996094 100.214844 235.117188 105.542969 C 234.8125 106.101562 234.128906 106.316406 233.554688 106.011719 C 233 105.707031 232.78125 105.011719 233.085938 104.453125 C 236.5 98.121094 244.269531 93.867188 251.371094 97.6875 C 253.617188 98.894531 255.722656 100.859375 257.636719 103.539062 C 258.410156 104.628906 258.980469 105.554688 259.398438 106.445312 C 259.917969 107.5625 260.019531 107.980469 259.691406 108.488281 Z M 207.332031 102.980469 C 206.828125 102.980469 206.359375 102.636719 206.230469 102.128906 C 204.683594 96.277344 199.242188 91.214844 192.828125 92.917969 C 190.710938 93.476562 188.515625 94.730469 186.296875 96.648438 C 185.371094 97.445312 184.726562 98.105469 184.191406 98.765625 C 184.140625 98.84375 183.75 99.402344 183.699219 99.488281 L 182.746094 98.867188 L 181.617188 99.183594 C 181.53125 98.894531 181.429688 98.488281 182.417969 97.308594 C 183.027344 96.558594 183.761719 95.808594 184.789062 94.921875 C 187.273438 92.765625 189.773438 91.34375 192.230469 90.695312 C 200.042969 88.640625 206.597656 94.605469 208.4375 101.546875 C 208.601562 102.15625 208.234375 102.789062 207.625 102.953125 C 207.535156 102.96875 207.433594 102.980469 207.332031 102.980469 Z M 207.332031 102.980469 " fill-opacity="1" fill-rule="nonzero"/><path fill="#fffbfa" d="M 215.855469 159.859375 C 222.652344 160.660156 227.75 164.796875 227.242188 169.085938 C 226.734375 173.375 220.8125 176.207031 214.015625 175.40625 C 207.21875 174.605469 202.121094 170.46875 202.628906 166.179688 C 203.136719 161.890625 209.070312 159.058594 215.855469 159.859375 Z M 215.855469 159.859375 " fill-opacity="1" fill-rule="evenodd"/><path fill="#000000" d="M 216.375 176.699219 C 215.5625 176.699219 214.738281 176.648438 213.890625 176.546875 C 210.390625 176.128906 207.195312 174.871094 204.875 172.996094 C 202.402344 170.988281 201.210938 168.527344 201.5 166.039062 C 202.097656 161.039062 208.449219 157.828125 216.007812 158.71875 C 219.507812 159.136719 222.714844 160.390625 225.023438 162.269531 C 227.496094 164.277344 228.6875 166.738281 228.394531 169.226562 C 227.863281 173.667969 222.777344 176.699219 216.375 176.699219 Z M 213.609375 160.875 C 208.449219 160.875 204.152344 163.144531 203.769531 166.304688 C 203.566406 167.980469 204.480469 169.71875 206.308594 171.203125 C 208.296875 172.816406 211.074219 173.894531 214.144531 174.261719 C 220.191406 174.972656 225.667969 172.550781 226.101562 168.957031 C 226.304688 167.285156 225.402344 165.546875 223.566406 164.058594 C 221.574219 162.449219 218.796875 161.371094 215.714844 161 C 215.003906 160.925781 214.308594 160.875 213.609375 160.875 Z M 213.609375 160.875 " fill-opacity="1" fill-rule="nonzero"/><path fill="#000000" d="M 212.75 202.703125 C 210.441406 202.511719 208.234375 202.121094 206.546875 201.664062 C 196.351562 198.921875 187.324219 194.59375 182.480469 184.921875 C 180.882812 181.726562 179.742188 177.945312 179.160156 173.4375 C 179.171875 173.414062 179.703125 173.945312 179.753906 173.996094 C 180.171875 174.390625 180.617188 174.757812 181.074219 175.101562 C 182.46875 176.179688 183.925781 177.183594 185.398438 178.148438 C 189.492188 180.824219 193.945312 183.058594 198.535156 184.757812 C 199.066406 184.960938 199.613281 185.152344 200.167969 185.328125 C 202.527344 186.117188 204.988281 186.777344 207.535156 187.308594 C 209.78125 187.765625 212.089844 188.121094 214.449219 188.363281 C 216.804688 188.679688 219.125 188.882812 221.421875 188.960938 C 224.019531 189.046875 226.558594 188.984375 229.042969 188.757812 C 229.625 188.707031 230.195312 188.640625 230.765625 188.578125 C 235.636719 188.007812 240.46875 186.878906 245.082031 185.226562 C 246.742188 184.632812 248.390625 184.011719 250.003906 183.285156 C 250.523438 183.046875 251.042969 182.804688 251.535156 182.511719 C 251.601562 182.472656 252.234375 182.082031 252.246094 182.105469 C 250.636719 186.359375 248.644531 189.757812 246.339844 192.5 C 239.375 200.773438 229.574219 202.867188 219.023438 203.160156 C 217.273438 203.183594 215.03125 203.046875 212.75 202.703125 Z M 212.75 202.703125 " fill-opacity="1" fill-rule="evenodd"/><path fill="#000000" d="M 218.328125 204.300781 C 216.578125 204.300781 214.574219 204.136719 212.609375 203.84375 C 210.351562 203.65625 208.09375 203.273438 206.242188 202.78125 C 197.570312 200.445312 186.90625 196.359375 181.441406 185.445312 C 179.730469 182.03125 178.574219 178.046875 178.003906 173.589844 C 177.964844 173.285156 178.054688 172.96875 178.246094 172.726562 C 178.4375 172.488281 178.714844 172.335938 179.03125 172.296875 C 179.589844 172.234375 179.855469 172.488281 180.476562 173.097656 C 180.882812 173.476562 181.277344 173.804688 181.769531 174.1875 C 183.28125 175.355469 184.839844 176.394531 186.03125 177.183594 C 190.050781 179.808594 194.398438 181.992188 198.941406 183.679688 C 199.472656 183.871094 200.003906 184.0625 200.539062 184.238281 C 202.859375 185.011719 205.292969 185.671875 207.765625 186.179688 C 209.984375 186.636719 212.277344 186.980469 214.5625 187.207031 C 216.90625 187.523438 219.214844 187.726562 221.460938 187.804688 C 223.984375 187.894531 226.492188 187.828125 228.941406 187.613281 C 229.511719 187.5625 230.070312 187.511719 230.628906 187.4375 C 235.445312 186.867188 240.175781 185.761719 244.691406 184.136719 C 246.679688 183.425781 248.164062 182.828125 249.519531 182.21875 C 250.089844 181.964844 250.546875 181.738281 250.964844 181.496094 C 251.789062 181.003906 252.09375 180.824219 252.640625 181.015625 C 252.933594 181.117188 253.160156 181.332031 253.285156 181.609375 C 253.414062 181.890625 253.425781 182.207031 253.3125 182.5 C 251.714844 186.699219 249.671875 190.304688 247.214844 193.222656 C 239.351562 202.5625 228.027344 204.046875 219.050781 204.289062 C 218.820312 204.289062 218.582031 204.300781 218.328125 204.300781 Z M 180.792969 176.332031 C 181.402344 179.300781 182.304688 182.015625 183.507812 184.402344 C 188.566406 194.503906 198.648438 198.335938 206.851562 200.546875 C 208.550781 201.003906 210.746094 201.371094 212.851562 201.546875 C 212.875 201.546875 212.902344 201.546875 212.925781 201.5625 C 215.019531 201.878906 217.222656 202.042969 219 201.992188 C 227.496094 201.765625 238.183594 200.378906 245.464844 191.738281 C 247.1875 189.695312 248.695312 187.269531 249.976562 184.515625 C 248.695312 185.074219 247.277344 185.632812 245.464844 186.28125 C 240.785156 187.957031 235.875 189.113281 230.894531 189.695312 C 230.308594 189.757812 229.726562 189.820312 229.144531 189.871094 C 226.621094 190.101562 224.007812 190.164062 221.382812 190.074219 C 219.0625 190 216.679688 189.796875 214.296875 189.46875 C 211.960938 189.238281 209.605469 188.871094 207.308594 188.402344 C 204.746094 187.878906 202.222656 187.195312 199.816406 186.394531 C 199.257812 186.207031 198.699219 186.015625 198.152344 185.8125 C 193.449219 184.074219 188.949219 181.8125 184.789062 179.085938 C 183.648438 178.363281 182.214844 177.410156 180.792969 176.332031 Z M 180.792969 176.332031 " fill-opacity="1" fill-rule="nonzero"/><path fill="#fffbfa" d="M 213.609375 195.46875 C 209.453125 195 205.40625 194.097656 201.449219 192.878906 C 195.375 191.015625 189.503906 188.414062 183.75 185.546875 C 183.332031 185.328125 182.910156 185.125 182.480469 184.921875 C 180.882812 181.726562 179.742188 177.945312 179.160156 173.4375 C 179.171875 173.414062 179.703125 173.945312 179.753906 173.996094 C 180.171875 174.390625 180.617188 174.757812 181.074219 175.101562 C 182.46875 176.179688 183.925781 177.183594 185.398438 178.148438 C 189.492188 180.824219 193.945312 183.058594 198.535156 184.757812 C 199.066406 184.960938 199.613281 185.152344 200.167969 185.328125 C 202.527344 186.117188 204.988281 186.777344 207.535156 187.308594 C 209.78125 187.765625 212.089844 188.121094 214.449219 188.363281 C 216.804688 188.679688 219.125 188.882812 221.421875 188.960938 C 224.019531 189.046875 226.558594 188.984375 229.042969 188.757812 C 229.625 188.707031 230.195312 188.640625 230.765625 188.578125 C 235.636719 188.007812 240.46875 186.878906 245.082031 185.226562 C 246.742188 184.632812 248.390625 184.011719 250.003906 183.285156 C 250.523438 183.046875 251.042969 182.804688 251.535156 182.511719 C 251.601562 182.472656 252.234375 182.082031 252.246094 182.105469 C 250.636719 186.359375 248.644531 189.757812 246.339844 192.5 C 245.882812 192.601562 245.425781 192.703125 244.96875 192.804688 C 238.703125 194.25 232.390625 195.40625 226.035156 195.800781 C 221.902344 196.054688 217.757812 195.988281 213.609375 195.46875 Z M 213.609375 195.46875 " fill-opacity="1" fill-rule="evenodd"/><path fill="#000000" d="M 221.421875 197.09375 C 218.683594 197.09375 216.058594 196.929688 213.472656 196.613281 C 209.4375 196.167969 205.394531 195.304688 201.109375 193.984375 C 195.757812 192.335938 190.074219 189.988281 183.230469 186.574219 L 181.972656 185.953125 C 181.746094 185.835938 181.566406 185.660156 181.453125 185.429688 C 179.742188 182.015625 178.589844 178.03125 178.015625 173.578125 C 177.980469 173.273438 178.066406 172.957031 178.257812 172.714844 C 178.449219 172.472656 178.726562 172.320312 179.042969 172.285156 C 179.601562 172.21875 179.867188 172.472656 180.488281 173.082031 C 180.894531 173.464844 181.289062 173.792969 181.785156 174.175781 C 183.292969 175.34375 184.851562 176.382812 186.042969 177.167969 C 190.0625 179.796875 194.414062 181.980469 198.953125 183.667969 C 199.484375 183.859375 200.015625 184.046875 200.550781 184.226562 C 202.871094 185 205.304688 185.660156 207.777344 186.167969 C 209.996094 186.625 212.292969 186.964844 214.574219 187.195312 C 216.921875 187.511719 219.226562 187.714844 221.472656 187.792969 C 223.996094 187.878906 226.507812 187.816406 228.953125 187.601562 C 229.523438 187.550781 230.082031 187.5 230.640625 187.421875 C 235.457031 186.851562 240.1875 185.75 244.703125 184.125 C 246.691406 183.414062 248.175781 182.816406 249.535156 182.207031 C 250.105469 181.953125 250.5625 181.726562 250.980469 181.484375 C 251.804688 180.988281 252.109375 180.8125 252.652344 181.003906 C 252.945312 181.105469 253.171875 181.320312 253.300781 181.597656 C 253.425781 181.878906 253.4375 182.195312 253.324219 182.488281 C 251.726562 186.6875 249.6875 190.292969 247.226562 193.210938 C 247.0625 193.402344 246.84375 193.539062 246.605469 193.589844 L 245.234375 193.894531 C 237.792969 195.609375 231.71875 196.574219 226.125 196.929688 C 224.503906 197.042969 222.941406 197.09375 221.421875 197.09375 Z M 183.332031 184.0625 L 184.242188 184.515625 C 190.976562 187.867188 196.542969 190.175781 201.78125 191.789062 C 205.925781 193.070312 209.84375 193.894531 213.738281 194.328125 C 213.738281 194.328125 213.75 194.328125 213.75 194.328125 C 217.644531 194.808594 221.636719 194.925781 225.960938 194.644531 C 231.425781 194.300781 237.386719 193.363281 244.703125 191.675781 L 245.703125 191.445312 C 247.328125 189.46875 248.761719 187.144531 249.976562 184.53125 C 248.695312 185.089844 247.277344 185.648438 245.464844 186.292969 C 240.785156 187.96875 235.878906 189.125 230.894531 189.707031 C 230.308594 189.769531 229.726562 189.835938 229.144531 189.886719 C 226.609375 190.113281 224.007812 190.175781 221.382812 190.089844 C 219.0625 190.011719 216.679688 189.808594 214.296875 189.480469 C 211.960938 189.25 209.605469 188.882812 207.308594 188.414062 C 204.746094 187.894531 202.222656 187.207031 199.816406 186.410156 C 199.257812 186.21875 198.699219 186.027344 198.152344 185.824219 C 193.449219 184.085938 188.949219 181.828125 184.789062 179.097656 C 183.671875 178.363281 182.238281 177.410156 180.808594 176.332031 C 181.363281 179.160156 182.214844 181.75 183.332031 184.0625 Z M 183.332031 184.0625 " fill-opacity="1" fill-rule="nonzero"/><path fill="#000000" d="M 260.933594 188.996094 C 260.855469 188.996094 260.769531 188.984375 260.679688 188.972656 C 255.683594 187.867188 251.929688 184.796875 250.636719 180.761719 C 250.191406 179.390625 250.21875 178.234375 250.292969 177.183594 C 250.34375 176.546875 250.902344 176.089844 251.535156 176.128906 C 252.171875 176.179688 252.640625 176.738281 252.589844 177.371094 C 252.511719 178.3125 252.527344 179.125 252.816406 180.0625 C 253.859375 183.3125 256.988281 185.8125 261.175781 186.738281 C 261.796875 186.878906 262.1875 187.488281 262.050781 188.109375 C 261.933594 188.628906 261.464844 188.996094 260.933594 188.996094 Z M 169.648438 178.160156 C 169.546875 178.160156 169.433594 178.160156 169.332031 178.160156 C 168.699219 178.148438 168.191406 177.625 168.203125 176.992188 C 168.214844 176.355469 168.761719 175.902344 169.371094 175.863281 C 173.628906 175.964844 177.28125 174.238281 179.042969 171.320312 C 179.550781 170.480469 179.753906 169.695312 179.894531 168.753906 C 179.996094 168.132812 180.566406 167.703125 181.199219 167.792969 C 181.820312 167.894531 182.253906 168.476562 182.164062 169.097656 C 182 170.140625 181.746094 171.269531 180.996094 172.5 C 178.867188 176.054688 174.632812 178.160156 169.648438 178.160156 Z M 169.648438 178.160156 " fill-opacity="1" fill-rule="nonzero"/><path fill="#fff100" d="M 86.25 342.527344 L 81.128906 357.175781 L 51.507812 364.699219 L 50.554688 212.703125 L 171.777344 181.207031 L 313.390625 183.222656 L 312.464844 315.777344 C 312.464844 315.777344 277.59375 319.484375 253.386719 311.5 C 229.183594 303.53125 183.367188 307.882812 183.367188 307.882812 C 183.367188 307.882812 87.074219 342.515625 86.25 342.527344 Z M 86.25 342.527344 " fill-opacity="1" fill-rule="evenodd"/><path fill="#000000" d="M 51.507812 365.855469 C 51.253906 365.855469 51.011719 365.765625 50.808594 365.613281 C 50.53125 365.398438 50.367188 365.066406 50.367188 364.710938 L 49.414062 212.714844 C 49.414062 212.195312 49.769531 211.726562 50.277344 211.597656 L 171.5 180.101562 C 171.601562 180.074219 171.703125 180.050781 171.804688 180.0625 L 313.417969 182.082031 C 314.050781 182.09375 314.558594 182.601562 314.542969 183.234375 L 313.605469 315.789062 C 313.605469 316.375 313.164062 316.867188 312.578125 316.917969 C 312.222656 316.957031 277.175781 320.546875 253.019531 312.589844 C 229.992188 305.003906 186.4375 308.757812 183.609375 309.027344 C 105.867188 336.984375 90.371094 342.390625 87.164062 343.429688 L 82.230469 357.554688 C 82.105469 357.921875 81.800781 358.1875 81.433594 358.289062 L 51.796875 365.816406 C 51.699219 365.839844 51.609375 365.855469 51.507812 365.855469 Z M 51.710938 213.59375 L 52.648438 363.226562 L 80.253906 356.222656 L 85.171875 342.160156 C 85.3125 341.769531 85.640625 341.488281 86.046875 341.414062 C 88.496094 340.738281 150.4375 318.519531 182.976562 306.816406 C 183.0625 306.78125 183.164062 306.765625 183.253906 306.753906 C 185.132812 306.578125 229.585938 302.464844 253.742188 310.421875 C 275.136719 317.464844 305.402344 315.257812 311.324219 314.738281 L 312.238281 184.363281 L 171.929688 182.359375 Z M 81.128906 357.175781 Z M 81.128906 357.175781 " fill-opacity="1" fill-rule="nonzero"/><path fill="#f0decd" d="M 59.546875 217.511719 L 172.578125 186.511719 L 307.648438 189.453125 L 305.667969 324.902344 L 169.546875 316.96875 L 71.847656 365.21875 L 60.699219 362.667969 Z M 59.546875 217.511719 " fill-opacity="1" fill-rule="evenodd"/><g clip-path="url(#f47486bd44)"><path fill="#000000" d="M 71.847656 366.363281 C 71.757812 366.363281 71.667969 366.347656 71.59375 366.335938 L 60.445312 363.785156 C 59.925781 363.671875 59.558594 363.203125 59.558594 362.667969 L 58.40625 217.511719 C 58.40625 216.992188 58.746094 216.523438 59.253906 216.394531 L 172.285156 185.40625 C 172.398438 185.378906 172.515625 185.367188 172.617188 185.367188 L 307.683594 188.300781 C 308.320312 188.3125 308.8125 188.832031 308.8125 189.46875 L 306.847656 324.914062 C 306.847656 325.230469 306.707031 325.523438 306.480469 325.738281 C 306.25 325.953125 305.949219 326.054688 305.628906 326.042969 L 169.8125 318.125 L 72.378906 366.234375 C 72.203125 366.324219 72.023438 366.363281 71.847656 366.363281 Z M 61.839844 361.742188 L 71.707031 364 L 169.039062 315.941406 C 169.21875 315.851562 169.421875 315.816406 169.609375 315.828125 L 304.539062 323.695312 L 306.46875 190.582031 L 172.71875 187.675781 L 60.699219 218.390625 Z M 61.839844 361.742188 " fill-opacity="1" fill-rule="nonzero"/></g><path fill="#fffbfa" d="M 76.777344 365.21875 L 76.257812 221.777344 C 76.257812 221.777344 84.082031 218.238281 92.261719 217.730469 C 100.453125 217.222656 121.703125 213.425781 132.800781 210.0625 C 142.664062 207.070312 158.210938 200.519531 165.984375 194.175781 C 170.359375 190.609375 172.804688 188.234375 172.804688 188.234375 C 172.804688 188.234375 195.871094 196.6875 228.308594 197.105469 C 260.753906 197.527344 307.632812 189.46875 307.632812 189.46875 L 305.667969 324.890625 C 305.667969 324.890625 284.621094 334.75 268.136719 336.730469 C 254.464844 338.378906 238.070312 339.660156 218.988281 337.238281 C 199.964844 334.824219 190.546875 331.714844 187.25 330.433594 C 181.984375 328.390625 174.417969 322.222656 174.417969 322.222656 C 174.417969 322.222656 152.453125 346.09375 131.632812 352.160156 C 110.8125 358.238281 89.40625 355.789062 76.777344 365.21875 Z M 76.777344 365.21875 " fill-opacity="1" fill-rule="evenodd"/><g clip-path="url(#7edaf06a06)"><path fill="#000000" d="M 76.777344 366.363281 C 76.601562 366.363281 76.421875 366.324219 76.257812 366.234375 C 75.867188 366.042969 75.625 365.640625 75.625 365.207031 L 75.117188 221.777344 C 75.117188 221.320312 75.382812 220.914062 75.789062 220.722656 C 76.121094 220.570312 83.890625 217.09375 92.199219 216.574219 C 100.515625 216.066406 121.527344 212.273438 132.46875 208.960938 C 142.945312 205.773438 158.007812 199.199219 165.261719 193.273438 C 169.535156 189.785156 171.980469 187.421875 172.007812 187.398438 C 172.324219 187.09375 172.792969 186.992188 173.199219 187.144531 C 173.425781 187.234375 196.480469 195.53125 228.332031 195.9375 C 260.285156 196.359375 306.988281 188.402344 307.457031 188.3125 C 307.785156 188.25 308.140625 188.351562 308.394531 188.566406 C 308.648438 188.792969 308.800781 189.113281 308.800781 189.453125 L 306.835938 324.875 C 306.824219 325.320312 306.570312 325.714844 306.175781 325.902344 C 305.3125 326.308594 284.773438 335.867188 268.300781 337.847656 C 254.757812 339.484375 238.296875 340.816406 218.871094 338.355469 C 199.648438 335.917969 190.089844 332.746094 186.867188 331.488281 C 182.492188 329.789062 176.710938 325.433594 174.566406 323.757812 C 170.523438 328.011719 151.007812 347.707031 132 353.238281 C 123.621094 355.675781 115.300781 356.742188 107.261719 357.769531 C 95.242188 359.304688 84.855469 360.625 77.5 366.109375 C 77.261719 366.285156 77.019531 366.363281 76.777344 366.363281 Z M 77.414062 222.539062 L 77.921875 363.050781 C 85.617188 358.238281 95.988281 356.90625 106.933594 355.523438 C 114.882812 354.507812 123.113281 353.46875 131.316406 351.070312 C 151.589844 345.15625 173.351562 321.691406 173.566406 321.449219 C 173.972656 321.003906 174.667969 320.953125 175.140625 321.335938 C 175.214844 321.398438 182.644531 327.414062 187.667969 329.367188 C 190.8125 330.585938 200.15625 333.683594 219.125 336.09375 C 238.3125 338.53125 254.59375 337.210938 267.996094 335.585938 C 282.503906 333.835938 300.863281 325.800781 304.527344 324.140625 L 306.46875 190.824219 C 298.503906 192.132812 257.371094 198.628906 228.292969 198.25 C 199.078125 197.867188 177.15625 190.925781 173.085938 189.542969 C 172.144531 190.417969 169.964844 192.398438 166.707031 195.0625 C 158.25 201.96875 141.992188 208.476562 133.128906 211.167969 C 122.058594 214.53125 100.757812 218.363281 92.335938 218.882812 C 85.820312 219.277344 79.453125 221.6875 77.414062 222.539062 Z M 77.414062 222.539062 " fill-opacity="1" fill-rule="nonzero"/></g><path fill="#000000" d="M 88.101562 338.125 C 87.53125 338.125 87.035156 337.695312 86.960938 337.109375 C 86.886719 336.476562 87.339844 335.90625 87.960938 335.828125 C 90.296875 335.550781 92.324219 335.5625 94.113281 335.574219 C 94.949219 335.574219 95.75 335.585938 96.546875 335.5625 C 98.753906 335.5 100.859375 335.484375 102.914062 335.472656 C 106.933594 335.449219 110.734375 335.433594 114.957031 335.027344 C 136.148438 332.949219 155.28125 323.9375 166.125 310.917969 C 166.527344 310.433594 167.25 310.359375 167.746094 310.765625 C 168.226562 311.171875 168.304688 311.894531 167.898438 312.390625 C 156.675781 325.867188 136.984375 335.179688 115.199219 337.3125 C 110.875 337.730469 107.019531 337.757812 102.949219 337.769531 C 100.921875 337.78125 98.816406 337.796875 96.648438 337.859375 C 95.824219 337.882812 94.988281 337.882812 94.125 337.871094 C 92.3125 337.859375 90.449219 337.847656 88.265625 338.113281 C 88.191406 338.125 88.152344 338.125 88.101562 338.125 Z M 88.101562 317.871094 C 87.53125 317.871094 87.035156 317.441406 86.960938 316.855469 C 86.886719 316.222656 87.339844 315.648438 87.960938 315.574219 C 90.296875 315.292969 92.324219 315.308594 94.125 315.320312 C 94.949219 315.320312 95.761719 315.332031 96.558594 315.308594 C 98.765625 315.242188 100.882812 315.230469 102.925781 315.21875 C 106.945312 315.191406 110.75 315.179688 114.957031 314.773438 C 136.148438 312.691406 155.28125 303.683594 166.125 290.664062 C 166.527344 290.179688 167.25 290.105469 167.746094 290.511719 C 168.226562 290.917969 168.304688 291.640625 167.898438 292.132812 C 156.675781 305.613281 136.984375 314.925781 115.199219 317.058594 C 110.886719 317.476562 107.035156 317.503906 102.949219 317.515625 C 100.921875 317.527344 98.816406 317.542969 96.636719 317.605469 C 95.8125 317.628906 94.976562 317.628906 94.125 317.617188 C 92.3125 317.605469 90.449219 317.59375 88.253906 317.859375 C 88.191406 317.871094 88.152344 317.871094 88.101562 317.871094 Z M 243.648438 317.476562 C 235.101562 317.476562 226.023438 316.664062 215.652344 314.789062 L 214.625 314.609375 C 190.480469 310.359375 189.683594 309.128906 189.214844 308.390625 C 188.871094 307.859375 189.023438 307.148438 189.554688 306.804688 C 190.050781 306.488281 190.710938 306.601562 191.078125 307.046875 C 191.699219 307.503906 195.324219 308.886719 215.03125 312.351562 L 216.058594 312.527344 C 247.910156 318.300781 267.476562 313.785156 297.109375 306.957031 C 297.730469 306.816406 298.339844 307.199219 298.492188 307.820312 C 298.632812 308.441406 298.25 309.050781 297.628906 309.203125 C 277.316406 313.875 261.695312 317.476562 243.648438 317.476562 Z M 191.140625 307.148438 Z M 243.636719 300.535156 C 235.089844 300.535156 226.011719 299.722656 215.640625 297.84375 L 214.613281 297.667969 C 190.46875 293.417969 189.671875 292.183594 189.203125 291.449219 C 188.859375 290.917969 189.011719 290.207031 189.542969 289.863281 C 190.039062 289.546875 190.699219 289.660156 191.066406 290.105469 C 191.6875 290.5625 195.3125 291.945312 215.019531 295.410156 L 216.046875 295.585938 C 247.886719 301.359375 267.464844 296.84375 297.097656 290.015625 C 297.71875 289.875 298.328125 290.257812 298.480469 290.878906 C 298.617188 291.5 298.238281 292.109375 297.617188 292.261719 C 277.316406 296.929688 261.695312 300.535156 243.636719 300.535156 Z M 191.140625 290.191406 Z M 88.101562 297.617188 C 87.53125 297.617188 87.035156 297.183594 86.960938 296.601562 C 86.886719 295.96875 87.339844 295.394531 87.960938 295.320312 C 90.296875 295.039062 92.324219 295.054688 94.125 295.066406 C 94.949219 295.066406 95.761719 295.078125 96.558594 295.054688 C 98.765625 294.988281 100.882812 294.976562 102.925781 294.964844 C 106.945312 294.9375 110.75 294.925781 114.957031 294.519531 C 136.148438 292.4375 155.28125 283.429688 166.125 270.40625 C 166.527344 269.925781 167.25 269.847656 167.746094 270.253906 C 168.226562 270.660156 168.304688 271.386719 167.898438 271.878906 C 156.675781 285.359375 136.972656 294.671875 115.199219 296.804688 C 110.886719 297.222656 107.035156 297.25 102.949219 297.261719 C 100.921875 297.273438 98.816406 297.285156 96.636719 297.351562 C 95.8125 297.375 94.976562 297.375 94.125 297.363281 C 92.3125 297.351562 90.449219 297.335938 88.253906 297.605469 C 88.191406 297.605469 88.152344 297.617188 88.101562 297.617188 Z M 243.636719 283.582031 C 235.089844 283.582031 226.011719 282.769531 215.640625 280.890625 L 214.613281 280.710938 C 190.46875 276.460938 189.671875 275.230469 189.1875 274.496094 C 188.847656 273.960938 189 273.25 189.53125 272.90625 C 190.027344 272.589844 190.683594 272.703125 191.050781 273.148438 C 191.671875 273.605469 195.300781 274.988281 215.003906 278.453125 L 216.03125 278.632812 C 247.871094 284.394531 267.449219 279.886719 297.085938 273.058594 C 297.707031 272.921875 298.3125 273.300781 298.464844 273.921875 C 298.605469 274.546875 298.226562 275.152344 297.605469 275.304688 C 277.316406 279.976562 261.695312 283.582031 243.636719 283.582031 Z M 191.140625 273.238281 C 191.140625 273.238281 191.140625 273.25 191.140625 273.238281 C 191.140625 273.25 191.140625 273.238281 191.140625 273.238281 Z M 88.101562 277.351562 C 87.53125 277.351562 87.035156 276.917969 86.960938 276.335938 C 86.886719 275.699219 87.339844 275.128906 87.960938 275.050781 C 90.296875 274.773438 92.324219 274.785156 94.125 274.800781 C 94.949219 274.800781 95.761719 274.8125 96.558594 274.785156 C 98.765625 274.722656 100.871094 274.710938 102.914062 274.699219 C 106.945312 274.671875 110.734375 274.660156 114.957031 274.242188 C 136.148438 272.160156 155.28125 263.148438 166.125 250.128906 C 166.527344 249.644531 167.25 249.570312 167.746094 249.976562 C 168.226562 250.382812 168.304688 251.105469 167.898438 251.601562 C 156.675781 265.078125 136.972656 274.394531 115.199219 276.523438 C 110.875 276.945312 107.019531 276.96875 102.9375 276.980469 C 100.910156 276.996094 98.816406 277.007812 96.636719 277.070312 C 95.8125 277.097656 94.976562 277.097656 94.125 277.082031 C 92.3125 277.070312 90.449219 277.058594 88.253906 277.324219 C 88.191406 277.351562 88.152344 277.351562 88.101562 277.351562 Z M 243.648438 266.625 C 235.101562 266.625 226.023438 265.8125 215.652344 263.9375 L 214.664062 263.757812 C 190.480469 259.507812 189.683594 258.277344 189.214844 257.527344 C 188.871094 256.992188 189.023438 256.285156 189.554688 255.941406 C 190.050781 255.625 190.710938 255.738281 191.078125 256.183594 C 191.699219 256.636719 195.339844 258.035156 215.070312 261.5 L 216.070312 261.675781 C 247.921875 267.449219 267.488281 262.933594 297.121094 256.105469 C 297.742188 255.964844 298.351562 256.347656 298.503906 256.96875 C 298.644531 257.589844 298.261719 258.199219 297.640625 258.351562 C 277.316406 263.035156 261.695312 266.625 243.648438 266.625 Z M 191.140625 256.296875 Z M 88.101562 257.09375 C 87.53125 257.09375 87.035156 256.664062 86.960938 256.082031 C 86.886719 255.445312 87.339844 254.875 87.960938 254.796875 C 90.296875 254.519531 92.324219 254.53125 94.125 254.542969 C 94.949219 254.542969 95.761719 254.558594 96.558594 254.53125 C 98.765625 254.46875 100.871094 254.457031 102.914062 254.441406 C 106.945312 254.417969 110.734375 254.40625 114.957031 253.984375 C 136.148438 251.90625 155.28125 242.894531 166.125 229.875 C 166.527344 229.390625 167.25 229.316406 167.746094 229.722656 C 168.226562 230.128906 168.304688 230.851562 167.898438 231.347656 C 156.675781 244.824219 136.972656 254.136719 115.199219 256.269531 C 110.875 256.6875 107.019531 256.714844 102.9375 256.726562 C 100.910156 256.738281 98.816406 256.753906 96.636719 256.816406 C 95.8125 256.839844 94.976562 256.839844 94.125 256.828125 C 92.3125 256.816406 90.449219 256.804688 88.253906 257.070312 C 88.191406 257.09375 88.152344 257.09375 88.101562 257.09375 Z M 243.648438 249.683594 C 235.101562 249.683594 226.023438 248.871094 215.652344 246.992188 L 214.597656 246.804688 C 190.496094 242.566406 189.695312 241.320312 189.214844 240.585938 C 188.871094 240.050781 189.023438 239.339844 189.554688 239 C 190.050781 238.679688 190.710938 238.796875 191.078125 239.238281 C 191.699219 239.695312 195.324219 241.078125 215.003906 244.542969 L 216.070312 244.734375 C 247.921875 250.507812 267.488281 245.992188 297.121094 239.164062 C 297.742188 239.023438 298.351562 239.40625 298.503906 240.027344 C 298.644531 240.648438 298.261719 241.257812 297.640625 241.410156 C 277.316406 246.078125 261.695312 249.683594 243.648438 249.683594 Z M 191.140625 239.339844 Z M 88.101562 236.828125 C 87.53125 236.828125 87.035156 236.398438 86.960938 235.8125 C 86.886719 235.179688 87.339844 234.609375 87.960938 234.53125 C 90.296875 234.253906 92.324219 234.265625 94.125 234.277344 C 94.949219 234.277344 95.761719 234.289062 96.558594 234.265625 C 98.753906 234.203125 100.859375 234.1875 102.898438 234.175781 C 106.933594 234.152344 110.734375 234.136719 114.957031 233.71875 C 136.148438 231.652344 155.28125 222.628906 166.125 209.605469 C 166.527344 209.125 167.25 209.046875 167.746094 209.453125 C 168.226562 209.859375 168.304688 210.585938 167.898438 211.078125 C 156.675781 224.554688 136.972656 233.871094 115.199219 236.003906 C 110.875 236.421875 107.007812 236.449219 102.925781 236.460938 C 100.894531 236.472656 98.804688 236.484375 96.636719 236.550781 C 95.8125 236.574219 94.976562 236.574219 94.125 236.5625 C 92.324219 236.550781 90.449219 236.535156 88.253906 236.804688 C 88.191406 236.828125 88.152344 236.828125 88.101562 236.828125 Z M 243.636719 232.742188 C 235.089844 232.742188 226.011719 231.929688 215.640625 230.050781 L 214.585938 229.859375 C 190.480469 225.621094 189.683594 224.378906 189.203125 223.644531 C 188.859375 223.109375 189.011719 222.398438 189.542969 222.054688 C 190.039062 221.738281 190.699219 221.851562 191.050781 222.296875 C 191.671875 222.753906 195.300781 224.136719 214.980469 227.601562 L 216.046875 227.792969 C 247.886719 233.566406 267.464844 229.050781 297.097656 222.222656 C 297.71875 222.082031 298.328125 222.460938 298.480469 223.085938 C 298.617188 223.707031 298.238281 224.316406 297.617188 224.46875 C 277.316406 229.136719 261.695312 232.742188 243.636719 232.742188 Z M 191.140625 222.398438 Z M 243.636719 215.789062 C 235.089844 215.789062 226.011719 214.976562 215.640625 213.097656 L 214.625 212.917969 C 190.480469 208.667969 189.683594 207.4375 189.203125 206.699219 C 188.859375 206.167969 189.011719 205.457031 189.542969 205.113281 C 190.039062 204.796875 190.699219 204.910156 191.066406 205.355469 C 191.6875 205.8125 195.324219 207.195312 215.03125 210.660156 L 216.058594 210.839844 C 247.898438 216.613281 267.476562 212.09375 297.109375 205.265625 C 297.730469 205.128906 298.339844 205.507812 298.492188 206.128906 C 298.632812 206.75 298.25 207.359375 297.628906 207.511719 C 277.316406 212.183594 261.695312 215.789062 243.636719 215.789062 Z M 191.140625 205.445312 Z M 191.039062 205.332031 Z M 191.039062 205.332031 " fill-opacity="1" fill-rule="nonzero"/><path fill="#000000" d="M 175.558594 202.003906 C 174.949219 201.902344 175.050781 201.828125 175.191406 201.828125 C 175.316406 201.816406 175.558594 202.003906 175.558594 202.003906 L 175.558594 314.875 C 175.558594 314.875 174.921875 315.054688 174.796875 315.054688 C 174.667969 315.054688 174.417969 314.875 174.417969 314.875 Z M 175.558594 202.003906 " fill-opacity="1" fill-rule="evenodd"/><path fill="#000000" d="M 174.796875 316.195312 C 174.46875 316.195312 174.113281 316.070312 173.742188 315.800781 C 173.441406 315.585938 173.25 315.230469 173.261719 314.851562 L 174.402344 202.78125 C 173.996094 202.488281 173.921875 202.09375 173.945312 201.765625 C 173.996094 201.167969 174.59375 200.671875 175.191406 200.671875 C 175.53125 200.671875 175.875 200.8125 176.230469 201.066406 C 176.28125 201.105469 176.34375 201.15625 176.382812 201.191406 C 176.417969 201.230469 176.457031 201.269531 176.484375 201.308594 C 176.621094 201.496094 176.710938 201.738281 176.710938 201.992188 L 176.710938 314.851562 C 176.710938 315.371094 176.367188 315.816406 175.875 315.953125 C 175.089844 316.195312 174.898438 316.195312 174.796875 316.195312 Z M 174.796875 316.195312 " fill-opacity="1" fill-rule="nonzero"/><path fill="#fffbfa" d="M 296.894531 189.011719 C 296.234375 190.445312 294.089844 192.421875 293.519531 192.84375 C 291.328125 194.429688 288.804688 195.355469 286.101562 195.660156 C 283.644531 195.9375 281.132812 195.597656 281.132812 195.597656 C 277.734375 199.085938 278.027344 203.554688 271.332031 204.542969 C 268.238281 205 265.207031 203.554688 262.988281 201.433594 C 261.871094 200.355469 260.4375 198.222656 260.4375 198.222656 C 260.4375 198.222656 259.195312 199.164062 258.460938 199.554688 C 257.128906 200.253906 255.785156 200.683594 254.109375 200.621094 C 251.929688 200.53125 250.269531 199.453125 248.976562 197.703125 C 248.089844 196.496094 247.542969 194.683594 247.542969 194.683594 C 247.542969 194.683594 245.007812 195.203125 242.40625 194.519531 C 236.699219 193.03125 235.445312 187.640625 236.078125 182.917969 C 237.714844 170.75 250.878906 167.03125 260.996094 166.292969 C 263.660156 166.101562 266.4375 165.886719 269.695312 166.242188 C 269.695312 166.242188 269.644531 164.453125 269.734375 164.035156 C 270.011719 162.703125 270.683594 161.6875 271.484375 161.066406 C 274.347656 158.804688 279.332031 158.566406 283.515625 159.035156 C 289.578125 159.71875 294.648438 162.015625 299.441406 165.761719 C 304.386719 169.632812 308.152344 175.34375 307.480469 181.878906 C 306.960938 186.75 301.953125 192.03125 296.894531 189.011719 Z M 296.894531 189.011719 " fill-opacity="1" fill-rule="evenodd"/><path fill="#000000" d="M 270.175781 205.785156 C 267.414062 205.785156 264.570312 204.542969 262.1875 202.273438 C 261.492188 201.597656 260.71875 200.597656 260.171875 199.847656 C 259.792969 200.113281 259.347656 200.394531 258.992188 200.582031 C 257.28125 201.472656 255.773438 201.851562 254.058594 201.777344 C 251.652344 201.6875 249.636719 200.546875 248.050781 198.386719 C 247.480469 197.613281 247.046875 196.648438 246.769531 195.953125 C 245.703125 196.054688 243.929688 196.105469 242.101562 195.632812 C 236.714844 194.226562 234.027344 189.417969 234.925781 182.765625 C 236.839844 168.425781 253.730469 165.671875 260.894531 165.152344 L 261.058594 165.140625 C 263.378906 164.972656 265.765625 164.796875 268.515625 164.988281 C 268.515625 164.503906 268.542969 164.046875 268.59375 163.804688 C 268.910156 162.320312 269.667969 161.027344 270.746094 160.175781 C 274.347656 157.335938 280.359375 157.539062 283.617188 157.90625 C 289.679688 158.589844 294.914062 160.8125 300.113281 164.871094 C 306.136719 169.582031 309.21875 175.824219 308.597656 182.003906 C 308.242188 185.429688 305.984375 188.832031 303.09375 190.277344 C 301.230469 191.21875 299.214844 191.292969 297.335938 190.519531 C 296.296875 191.992188 294.648438 193.464844 294.207031 193.78125 C 291.898438 195.457031 289.222656 196.472656 286.242188 196.816406 C 284.390625 197.03125 282.527344 196.902344 281.601562 196.816406 C 280.804688 197.726562 280.230469 198.730469 279.660156 199.695312 C 278.164062 202.273438 276.605469 204.9375 271.519531 205.699219 C 271.0625 205.761719 270.621094 205.785156 270.175781 205.785156 Z M 260.449219 197.082031 C 260.515625 197.082031 260.578125 197.082031 260.640625 197.09375 C 260.957031 197.144531 261.226562 197.324219 261.402344 197.589844 C 261.414062 197.613281 262.773438 199.632812 263.785156 200.609375 C 266.03125 202.753906 268.730469 203.78125 271.164062 203.414062 C 275.171875 202.816406 276.277344 200.925781 277.671875 198.527344 C 278.355469 197.347656 279.128906 196.015625 280.320312 194.796875 C 280.574219 194.53125 280.953125 194.417969 281.296875 194.453125 C 281.324219 194.453125 283.707031 194.773438 285.976562 194.519531 C 288.550781 194.226562 290.871094 193.351562 292.847656 191.902344 C 293.367188 191.523438 295.320312 189.65625 295.855469 188.515625 C 295.992188 188.222656 296.246094 187.996094 296.550781 187.894531 C 296.867188 187.792969 297.199219 187.84375 297.476562 188.007812 C 298.984375 188.910156 300.519531 188.972656 302.054688 188.199219 C 304.25 187.09375 306.035156 184.378906 306.300781 181.738281 C 306.847656 176.355469 304.082031 170.851562 298.695312 166.648438 C 293.851562 162.867188 288.96875 160.796875 283.351562 160.164062 C 278.394531 159.605469 274.308594 160.253906 272.15625 161.953125 C 271.496094 162.472656 271.027344 163.285156 270.824219 164.25 C 270.785156 164.464844 270.785156 165.429688 270.8125 166.191406 C 270.824219 166.523438 270.683594 166.839844 270.441406 167.066406 C 270.203125 167.296875 269.871094 167.398438 269.542969 167.371094 C 266.449219 167.03125 263.796875 167.234375 261.222656 167.410156 L 261.058594 167.421875 C 252.855469 168.019531 238.832031 170.851562 237.207031 183.058594 C 236.867188 185.648438 236.699219 191.839844 242.6875 193.402344 C 244.980469 193.996094 247.289062 193.554688 247.3125 193.554688 C 247.898438 193.4375 248.46875 193.78125 248.644531 194.339844 C 248.644531 194.351562 249.164062 195.988281 249.914062 197.019531 C 251.082031 198.605469 252.476562 199.402344 254.160156 199.46875 C 255.46875 199.519531 256.597656 199.238281 257.941406 198.527344 C 258.472656 198.25 259.4375 197.550781 259.765625 197.296875 C 259.957031 197.171875 260.199219 197.082031 260.449219 197.082031 Z M 260.449219 197.082031 " fill-opacity="1" fill-rule="nonzero"/><path fill="#000000" d="M 260.882812 199.976562 C 260.730469 199.976562 260.566406 199.9375 260.414062 199.875 C 259.527344 199.480469 259.4375 198.375 259.386719 197.652344 C 259.222656 196.054688 259.324219 194.417969 259.691406 192.691406 C 260.894531 187.042969 265.613281 182.21875 272.003906 180.113281 C 272.597656 179.910156 273.257812 180.242188 273.449219 180.851562 C 273.652344 181.460938 273.320312 182.105469 272.710938 182.296875 C 267.109375 184.148438 262.972656 188.3125 261.933594 193.171875 C 261.617188 194.65625 261.515625 196.054688 261.65625 197.308594 L 261.667969 197.476562 C 261.695312 197.742188 261.71875 197.945312 261.746094 198.058594 C 262.035156 198.386719 262.125 198.871094 261.933594 199.289062 C 261.730469 199.722656 261.3125 199.976562 260.882812 199.976562 Z M 247.480469 195.597656 C 246.984375 195.597656 246.527344 195.277344 246.375 194.773438 C 244.664062 188.996094 246.617188 182.054688 251.246094 177.488281 C 252.375 176.371094 253.488281 175.480469 254.667969 174.769531 C 255.164062 174.464844 255.773438 174.175781 256.367188 173.972656 C 256.964844 173.753906 257.625 174.074219 257.828125 174.667969 C 258.042969 175.265625 257.726562 175.925781 257.128906 176.128906 C 256.683594 176.28125 256.242188 176.496094 255.875 176.726562 C 254.847656 177.347656 253.859375 178.132812 252.855469 179.125 C 248.8125 183.097656 247.097656 189.125 248.570312 194.113281 C 248.746094 194.722656 248.40625 195.355469 247.796875 195.546875 C 247.695312 195.582031 247.582031 195.597656 247.480469 195.597656 Z M 296.664062 190.40625 C 296.222656 190.40625 295.789062 190.140625 295.613281 189.707031 C 295.460938 189.339844 295.511719 188.945312 295.703125 188.640625 C 295.714844 188.539062 295.726562 188.414062 295.726562 188.335938 C 295.726562 188.324219 295.738281 188.199219 295.738281 188.183594 C 295.839844 187.21875 295.804688 186.191406 295.625 184.9375 C 294.980469 180.445312 292.710938 176.382812 289.578125 174.085938 C 289.070312 173.703125 288.957031 172.996094 289.335938 172.472656 C 289.71875 171.964844 290.425781 171.851562 290.945312 172.234375 C 294.574219 174.898438 297.171875 179.515625 297.910156 184.605469 C 298.109375 186.039062 298.160156 187.257812 298.035156 188.414062 C 297.996094 189.074219 297.933594 189.972656 297.136719 190.316406 C 296.96875 190.367188 296.816406 190.40625 296.664062 190.40625 Z M 296.222656 188.199219 Z M 281.5625 171.269531 C 281.386719 171.269531 281.207031 171.230469 281.03125 171.140625 C 278.710938 169.9375 275.960938 168.90625 272.851562 168.082031 L 272.269531 167.929688 C 271.164062 167.625 270.039062 167.320312 269.046875 167.371094 C 268.425781 167.386719 267.882812 166.914062 267.84375 166.28125 C 267.816406 165.644531 268.300781 165.113281 268.933594 165.074219 C 270.289062 165.011719 271.648438 165.394531 272.863281 165.722656 L 273.421875 165.875 C 276.707031 166.738281 279.625 167.828125 282.082031 169.125 C 282.640625 169.414062 282.855469 170.113281 282.566406 170.671875 C 282.386719 171.039062 281.980469 171.269531 281.5625 171.269531 Z M 281.5625 171.269531 " fill-opacity="1" fill-rule="nonzero"/></svg>