<svg xmlns="http://www.w3.org/2000/svg" xmlns:xlink="http://www.w3.org/1999/xlink" width="500" zoomAndPan="magnify" viewBox="0 0 375 374.999991" height="500" preserveAspectRatio="xMidYMid meet" version="1.0"><defs><clipPath id="cfeed5707a"><path d="M 164.632812 209.835938 L 210.367188 209.835938 L 210.367188 284.335938 L 164.632812 284.335938 Z M 164.632812 209.835938 " clip-rule="nonzero"/></clipPath><clipPath id="a33bb97675"><path d="M 181.882812 209.835938 L 193.117188 209.835938 C 197.691406 209.835938 202.082031 211.65625 205.316406 214.890625 C 208.550781 218.125 210.367188 222.511719 210.367188 227.085938 L 210.367188 267.027344 C 210.367188 271.601562 208.550781 275.988281 205.316406 279.222656 C 202.082031 282.457031 197.691406 284.277344 193.117188 284.277344 L 181.882812 284.277344 C 177.308594 284.277344 172.917969 282.457031 169.683594 279.222656 C 166.449219 275.988281 164.632812 271.601562 164.632812 267.027344 L 164.632812 227.085938 C 164.632812 222.511719 166.449219 218.125 169.683594 214.890625 C 172.917969 211.65625 177.308594 209.835938 181.882812 209.835938 Z M 181.882812 209.835938 " clip-rule="nonzero"/></clipPath><clipPath id="e21232d5a5"><path d="M 59 0 L 315.984375 0 L 315.984375 369.75 L 59 369.75 Z M 59 0 " clip-rule="nonzero"/></clipPath><clipPath id="eb0d264d42"><path d="M 59 271 L 304 271 L 304 369.75 L 59 369.75 Z M 59 271 " clip-rule="nonzero"/></clipPath><clipPath id="9b8fb79b7f"><path d="M 151 0 L 315.984375 0 L 315.984375 122 L 151 122 Z M 151 0 " clip-rule="nonzero"/></clipPath></defs><g clip-path="url(#cfeed5707a)"><g clip-path="url(#a33bb97675)"><path fill="#65a1b7" d="M 164.632812 209.835938 L 210.367188 209.835938 L 210.367188 284.335938 L 164.632812 284.335938 Z M 164.632812 209.835938 " fill-opacity="1" fill-rule="nonzero"/></g></g><g clip-path="url(#e21232d5a5)"><path fill="#65a1b7" d="M 115.804688 101.480469 C 117.152344 99.523438 118.601562 97.640625 120.148438 95.839844 C 121.621094 94.019531 123.347656 91.351562 126.042969 92.890625 C 127.003906 93.515625 127.921875 94.203125 128.789062 94.957031 L 131.535156 97.042969 C 132.5 97.777344 133.488281 98.515625 134.4375 99.253906 C 134.894531 99.597656 135.324219 99.96875 135.734375 100.367188 C 136.183594 100.835938 136.46875 101.390625 136.585938 102.03125 C 136.648438 102.261719 136.652344 102.492188 136.609375 102.726562 C 136.5625 102.960938 136.464844 103.171875 136.320312 103.359375 C 136.179688 103.546875 136 103.695312 135.789062 103.804688 C 135.578125 103.910156 135.351562 103.96875 135.113281 103.96875 C 133.066406 104.050781 131.308594 102.296875 129.738281 101.148438 L 128.097656 99.9375 C 128.097656 100.542969 128.164062 101.148438 128.242188 101.699219 C 128.476562 103.230469 128.804688 104.742188 129.230469 106.234375 C 130.066406 109.113281 131.167969 111.886719 132.535156 114.554688 C 133.960938 117.339844 135.527344 120.042969 137.234375 122.664062 C 138.082031 123.988281 138.964844 125.28125 139.796875 126.613281 C 140.535156 127.765625 141.566406 129.207031 141.175781 130.625 C 141.109375 130.871094 140.972656 131.074219 140.769531 131.230469 C 140.566406 131.386719 140.335938 131.464844 140.078125 131.464844 C 138.429688 131.316406 137.457031 129.738281 136.535156 128.515625 C 135.617188 127.292969 134.71875 125.949219 133.855469 124.640625 C 132.019531 121.914062 130.351562 119.09375 128.847656 116.175781 C 127.355469 113.261719 126.148438 110.234375 125.230469 107.089844 C 124.789062 105.511719 124.449219 103.917969 124.214844 102.296875 C 123.96875 101.078125 123.804688 99.851562 123.722656 98.613281 L 122.84375 99.695312 C 121.667969 101.167969 120.585938 102.769531 119.347656 104.199219 C 117.644531 106.144531 114.441406 103.59375 115.804688 101.480469 Z M 301.710938 77.433594 C 305.1875 81.777344 305.101562 87.953125 304.203125 93.445312 C 303.414062 98.292969 302.09375 103.121094 299.628906 107.367188 C 298.480469 109.28125 297.125 111.039062 295.570312 112.636719 C 294.015625 114.234375 292.296875 115.636719 290.414062 116.835938 C 288.535156 118.035156 286.542969 119.003906 284.4375 119.742188 C 282.332031 120.480469 280.171875 120.96875 277.953125 121.203125 L 277.734375 121.625 L 279.132812 122.132812 L 260.964844 145.527344 C 261.019531 145.59375 261.019531 145.660156 260.964844 145.726562 C 260.394531 146.597656 259.808594 147.453125 259.230469 148.320312 C 260.816406 152.226562 262.191406 156.207031 263.363281 160.253906 C 263.667969 161.277344 263.949219 162.308594 264.203125 163.351562 C 269.414062 156.828125 275.253906 150.929688 281.722656 145.660156 C 282.339844 145.015625 283.09375 144.6875 283.984375 144.679688 C 284.640625 144.835938 285.175781 145.179688 285.589844 145.710938 C 286.097656 146.292969 286.558594 146.90625 286.964844 147.5625 C 287.371094 148.214844 287.71875 148.898438 288.011719 149.613281 C 288.304688 150.324219 288.535156 151.058594 288.707031 151.808594 C 288.878906 152.558594 288.988281 153.320312 289.035156 154.089844 C 289.078125 154.859375 289.0625 155.625 288.980469 156.390625 C 288.898438 157.160156 288.753906 157.914062 288.546875 158.65625 C 288.339844 159.398438 288.070312 160.117188 287.746094 160.816406 C 287.417969 161.511719 287.035156 162.179688 286.601562 162.8125 C 285.28125 164.621094 283.5 166.125 282.585938 168.164062 C 281.15625 171.378906 282.210938 175.078125 282.753906 178.558594 C 283.210938 181.941406 283.359375 185.335938 283.195312 188.746094 C 283.203125 191.488281 282.878906 194.1875 282.234375 196.851562 C 281.820312 198.304688 281.246094 199.691406 280.515625 201.011719 L 308.046875 250.785156 C 308.332031 251.300781 308.597656 251.828125 308.851562 252.359375 C 309.101562 252.894531 309.335938 253.433594 309.554688 253.980469 C 309.769531 254.527344 309.96875 255.082031 310.152344 255.644531 C 310.335938 256.203125 310.5 256.769531 310.644531 257.339844 C 310.789062 257.910156 310.917969 258.484375 311.027344 259.066406 C 311.136719 259.644531 311.230469 260.226562 311.300781 260.808594 C 311.375 261.394531 311.429688 261.980469 311.464844 262.570312 C 311.5 263.160156 311.515625 263.746094 311.515625 264.335938 C 311.511719 264.925781 311.492188 265.515625 311.453125 266.101562 C 311.414062 266.691406 311.355469 267.277344 311.28125 267.859375 C 311.203125 268.445312 311.109375 269.027344 310.996094 269.605469 C 310.882812 270.183594 310.75 270.757812 310.601562 271.328125 C 310.453125 271.898438 310.285156 272.460938 310.097656 273.019531 C 309.914062 273.582031 309.710938 274.132812 309.492188 274.679688 C 309.269531 275.226562 309.03125 275.765625 308.777344 276.296875 C 308.523438 276.828125 308.25 277.351562 307.964844 277.863281 C 307.675781 278.378906 307.371094 278.882812 307.050781 279.378906 C 306.730469 279.871094 306.398438 280.355469 306.046875 280.828125 C 305.695312 281.304688 305.328125 281.765625 304.949219 282.214844 C 304.570312 282.664062 304.175781 283.101562 303.769531 283.527344 C 303.359375 283.953125 302.941406 284.367188 302.507812 284.765625 C 302.074219 285.164062 301.625 285.546875 301.167969 285.917969 C 300.710938 286.285156 300.242188 286.640625 299.761719 286.980469 C 299.277344 287.324219 298.789062 287.648438 298.285156 287.957031 C 297.785156 288.265625 297.273438 288.558594 296.753906 288.835938 C 296.234375 289.113281 295.707031 289.371094 295.171875 289.613281 C 294.632812 289.855469 294.089844 290.082031 293.539062 290.292969 C 292.988281 290.5 292.433594 290.691406 291.871094 290.863281 C 291.304688 291.035156 290.738281 291.191406 290.167969 291.328125 C 289.59375 291.464844 289.015625 291.585938 288.4375 291.683594 C 287.855469 291.785156 287.273438 291.867188 286.6875 291.929688 C 286.101562 291.992188 285.515625 292.039062 284.929688 292.066406 C 284.828125 292.328125 284.667969 292.550781 284.457031 292.734375 L 303.316406 360.785156 C 303.453125 361.273438 303.535156 361.773438 303.554688 362.28125 C 303.578125 362.789062 303.539062 363.289062 303.445312 363.789062 C 303.351562 364.289062 303.203125 364.769531 302.996094 365.234375 C 302.789062 365.699219 302.535156 366.132812 302.226562 366.539062 C 301.921875 366.941406 301.574219 367.308594 301.183594 367.632812 C 300.792969 367.957031 300.371094 368.230469 299.914062 368.457031 C 299.460938 368.683594 298.988281 368.855469 298.492188 368.972656 C 298 369.089844 297.5 369.148438 296.992188 369.152344 L 181.363281 369.152344 L 181.320312 368.65625 L 181.285156 369.152344 L 65.613281 369.152344 C 65.105469 369.152344 64.605469 369.09375 64.113281 368.976562 C 63.617188 368.859375 63.144531 368.691406 62.691406 368.464844 C 62.234375 368.238281 61.8125 367.964844 61.421875 367.640625 C 61.03125 367.316406 60.683594 366.953125 60.375 366.546875 C 60.066406 366.144531 59.8125 365.710938 59.605469 365.246094 C 59.398438 364.78125 59.246094 364.300781 59.152344 363.804688 C 59.054688 363.304688 59.019531 362.800781 59.039062 362.292969 C 59.058594 361.789062 59.136719 361.289062 59.273438 360.800781 L 82.597656 276.746094 C 82.789062 276.054688 83.085938 275.410156 83.488281 274.8125 C 83.894531 274.214844 84.382812 273.699219 84.953125 273.261719 C 85.527344 272.828125 86.152344 272.496094 86.835938 272.265625 C 87.515625 272.035156 88.21875 271.917969 88.9375 271.917969 L 101.53125 271.917969 C 101.257812 270.089844 101.03125 268.285156 100.839844 266.488281 C 100.359375 266.738281 99.875 266.996094 99.367188 267.222656 C 94.0625 269.640625 86.847656 270.734375 81.410156 268.152344 C 80.503906 267.71875 80.675781 266.316406 81.410156 265.839844 C 80.550781 265.550781 79.707031 265.222656 78.878906 264.855469 C 78.050781 264.488281 77.242188 264.078125 76.453125 263.628906 C 75.664062 263.183594 74.898438 262.695312 74.160156 262.171875 C 73.417969 261.648438 72.703125 261.09375 72.019531 260.5 C 71.332031 259.90625 70.675781 259.28125 70.050781 258.625 C 69.425781 257.96875 68.832031 257.28125 68.273438 256.566406 C 67.714844 255.851562 67.195312 255.113281 66.707031 254.34375 C 66.222656 253.578125 65.773438 252.792969 65.367188 251.980469 C 64.957031 251.171875 64.589844 250.34375 64.261719 249.496094 C 63.933594 248.652344 63.648438 247.792969 63.402344 246.917969 C 63.160156 246.042969 62.957031 245.160156 62.800781 244.265625 C 62.644531 243.371094 62.527344 242.472656 62.460938 241.570312 C 62.390625 240.664062 62.363281 239.757812 62.382812 238.851562 C 62.402344 237.945312 62.464844 237.039062 62.570312 236.136719 C 62.679688 235.238281 62.828125 234.34375 63.023438 233.457031 C 63.21875 232.570312 63.457031 231.695312 63.734375 230.832031 C 65.097656 226.671875 67.308594 223.027344 70.363281 219.894531 L 110.257812 179.355469 C 109.90625 177.882812 109.730469 176.390625 109.726562 174.878906 C 109.824219 172.140625 110.238281 169.449219 110.980469 166.808594 C 111.738281 163.484375 112.792969 160.253906 114.148438 157.121094 C 115.621094 153.917969 117.609375 150.636719 117.09375 147.148438 C 116.769531 144.9375 115.457031 143.015625 114.671875 140.921875 C 114.417969 140.191406 114.230469 139.449219 114.101562 138.6875 C 113.976562 137.925781 113.910156 137.160156 113.910156 136.390625 C 113.910156 135.617188 113.972656 134.851562 114.101562 134.089844 C 114.226562 133.332031 114.414062 132.585938 114.664062 131.855469 C 114.914062 131.128906 115.222656 130.421875 115.589844 129.746094 C 115.957031 129.066406 116.378906 128.421875 116.851562 127.816406 C 117.324219 127.207031 117.84375 126.640625 118.410156 126.121094 C 118.980469 125.597656 119.585938 125.125 120.230469 124.707031 C 120.769531 124.304688 121.378906 124.117188 122.050781 124.144531 C 122.90625 124.390625 123.546875 124.910156 123.964844 125.699219 C 128.785156 132.53125 132.820312 139.796875 136.070312 147.496094 C 136.808594 146.191406 137.597656 144.894531 138.40625 143.621094 C 140.777344 139.894531 143.332031 136.296875 146.074219 132.835938 C 148.664062 129.433594 151.492188 126.238281 154.558594 123.253906 L 154.808594 123.023438 L 156.898438 93.9375 C 156.847656 92.882812 156.820312 91.816406 156.820312 90.746094 C 156.820312 86.589844 157.21875 82.46875 158.011719 78.386719 L 158.011719 78.320312 C 158.628906 75.167969 159.484375 72.082031 160.566406 69.0625 L 156.699219 70.300781 C 155.964844 71.242188 155.175781 72.195312 154.492188 73.167969 C 153.886719 73.976562 152.511719 73.167969 153.113281 72.363281 C 153.410156 71.957031 153.71875 71.566406 154.019531 71.160156 L 151.808594 71.898438 C 153.496094 62.492188 155.226562 52.933594 159.550781 44.414062 C 165.863281 31.96875 177.460938 22.617188 190.484375 17.699219 C 203.503906 12.785156 217.929688 12.082031 231.726562 14.214844 C 241.242188 15.707031 250.378906 18.457031 259.136719 22.46875 C 257.238281 20.015625 255.0625 17.742188 253.3125 15.179688 C 250.726562 11.375 249.164062 6.230469 251.441406 2.234375 C 251.789062 1.445312 252.371094 0.914062 253.1875 0.636719 C 253.75 0.566406 254.300781 0.636719 254.828125 0.847656 C 264.136719 3.929688 268.871094 13.378906 267.710938 22.777344 C 269.867188 17.066406 276.628906 12.65625 282.121094 10.601562 C 283.859375 9.953125 286.347656 9.777344 287.042969 11.492188 C 287.273438 12.242188 287.246094 12.976562 286.953125 13.703125 C 285.839844 17.316406 282.960938 20.066406 280.117188 22.550781 C 278.742188 23.757812 277.351562 24.9375 275.941406 26.109375 C 279.574219 25.949219 283.101562 26.492188 286.519531 27.730469 C 295.253906 30.921875 302.140625 38.050781 306.59375 46.246094 C 311.050781 54.445312 313.304688 63.605469 314.96875 72.785156 C 315.519531 75.835938 316.007812 79.042969 315.019531 81.984375 C 314.144531 81.140625 313.1875 80.402344 312.148438 79.769531 C 311.113281 79.136719 310.019531 78.625 308.871094 78.234375 C 307.71875 77.839844 306.542969 77.578125 305.335938 77.441406 C 304.128906 77.308594 302.917969 77.304688 301.710938 77.433594 Z M 157.503906 154.292969 C 157.046875 153.136719 156.632812 151.957031 156.265625 150.746094 C 155.382812 151.609375 154.511719 152.492188 153.703125 153.429688 C 153.453125 153.710938 153.222656 153.996094 152.964844 154.292969 C 154.480469 153.980469 155.992188 153.980469 157.503906 154.292969 Z M 288.117188 131.515625 C 288.457031 131.058594 288.773438 130.542969 289.097656 130.042969 L 287.402344 130.269531 C 285.363281 130.542969 282.835938 131.324219 280.964844 130.203125 C 280.761719 130.082031 280.597656 129.921875 280.46875 129.722656 C 280.339844 129.527344 280.257812 129.308594 280.226562 129.074219 C 280.195312 128.839844 280.21875 128.609375 280.292969 128.386719 C 280.367188 128.160156 280.484375 127.964844 280.648438 127.792969 C 281.605469 126.769531 282.859375 126.570312 284.148438 126.320312 C 285.238281 126.140625 286.355469 125.988281 287.433594 125.816406 L 290.855469 125.292969 C 292.007812 125.066406 293.164062 124.898438 294.332031 124.792969 C 297.410156 124.691406 297.640625 128.109375 298.015625 130.34375 C 298.519531 132.652344 298.886719 134.980469 299.121094 137.332031 C 299.28125 139.890625 295.269531 140.367188 294.699219 137.929688 C 294.265625 136.035156 294.089844 134.058594 293.75 132.136719 C 293.683594 131.757812 293.609375 131.398438 293.539062 131 C 292.792969 132.195312 291.953125 133.324219 291.027344 134.382812 C 290.085938 135.597656 289.078125 136.757812 288.007812 137.855469 C 285.707031 140.144531 283.210938 142.203125 280.523438 144.023438 C 277.835938 145.847656 275.054688 147.503906 272.171875 149 C 270.734375 149.738281 269.285156 150.519531 267.804688 151.210938 C 266.472656 151.816406 264.859375 152.6875 263.445312 152.007812 C 263.226562 151.871094 263.066406 151.683594 262.96875 151.445312 C 262.875 151.207031 262.859375 150.960938 262.921875 150.710938 C 263.210938 149.234375 265.132812 148.425781 266.273438 147.761719 C 267.570312 147.023438 268.894531 146.355469 270.199219 145.640625 C 272.929688 144.160156 275.578125 142.546875 278.144531 140.796875 C 280.65625 139.085938 282.980469 137.152344 285.113281 134.988281 C 286.191406 133.898438 287.191406 132.738281 288.117188 131.515625 Z M 294.179688 129.304688 C 294.179688 129.304688 294.179688 129.304688 294.222656 129.304688 C 294.265625 129.304688 294.25 129.296875 294.179688 129.320312 Z M 294.179688 129.304688 " fill-opacity="1" fill-rule="nonzero"/></g><path fill="#65a1b7" d="M 296.910156 252.851562 C 295.214844 239.5 260.257812 211.734375 238.664062 195.746094 C 217.46875 177.59375 192.023438 168.195312 166.074219 168.992188 L 166.195312 167.308594 L 160.804688 161.753906 C 160.804688 161.753906 136.5 147.746094 120.074219 172.003906 L 119.863281 172.003906 C 119.863281 172.003906 119.441406 172.742188 118.722656 174.105469 C 116.410156 178.003906 114.527344 182.101562 113.070312 186.394531 C 104.109375 208.242188 91.433594 252.097656 108.160156 298.109375 L 223.167969 300.511719 C 223.226562 300.746094 223.292969 300.878906 223.351562 300.894531 C 224.234375 300.894531 225.101562 300.78125 225.957031 300.5625 L 241.570312 300.894531 L 241.675781 296.753906 C 247.808594 295.152344 253.097656 293.695312 253.097656 293.695312 C 253.097656 293.695312 299.332031 272.230469 296.910156 252.851562 Z M 296.910156 252.851562 " fill-opacity="1" fill-rule="nonzero"/><path fill="#eec51d" d="M 218.242188 182.949219 C 218.242188 184.125 218.1875 185.292969 218.078125 186.457031 C 217.972656 187.625 217.8125 188.785156 217.601562 189.933594 C 217.386719 191.082031 217.121094 192.21875 216.804688 193.339844 C 216.488281 194.460938 216.121094 195.5625 215.703125 196.644531 C 215.285156 197.730469 214.820312 198.785156 214.304688 199.820312 C 213.789062 200.855469 213.230469 201.859375 212.621094 202.832031 C 212.015625 203.808594 211.367188 204.746094 210.675781 205.652344 C 209.980469 206.558594 209.25 207.425781 208.476562 208.257812 C 207.707031 209.085938 206.898438 209.871094 206.054688 210.613281 C 205.210938 211.359375 204.332031 212.054688 203.425781 212.707031 C 202.519531 213.359375 201.582031 213.960938 200.621094 214.511719 C 199.65625 215.0625 198.671875 215.566406 197.664062 216.011719 C 196.65625 216.460938 195.628906 216.855469 194.582031 217.195312 C 193.539062 217.535156 192.480469 217.820312 191.410156 218.050781 C 190.339844 218.277344 189.261719 218.449219 188.175781 218.566406 C 187.089844 218.679688 186 218.738281 184.90625 218.738281 C 183.816406 218.738281 182.726562 218.679688 181.640625 218.566406 C 180.554688 218.449219 179.476562 218.277344 178.40625 218.050781 C 177.332031 217.820312 176.277344 217.535156 175.230469 217.195312 C 174.1875 216.855469 173.160156 216.460938 172.152344 216.011719 C 171.144531 215.566406 170.15625 215.0625 169.195312 214.511719 C 168.230469 213.960938 167.296875 213.359375 166.390625 212.707031 C 165.480469 212.054688 164.605469 211.359375 163.761719 210.613281 C 162.917969 209.871094 162.109375 209.085938 161.335938 208.257812 C 160.566406 207.425781 159.832031 206.558594 159.140625 205.652344 C 158.449219 204.746094 157.800781 203.808594 157.191406 202.832031 C 156.585938 201.859375 156.023438 200.855469 155.511719 199.820312 C 154.996094 198.785156 154.53125 197.730469 154.113281 196.644531 C 153.695312 195.5625 153.328125 194.460938 153.011719 193.339844 C 152.691406 192.21875 152.429688 191.082031 152.214844 189.933594 C 152.003906 188.785156 151.84375 187.625 151.734375 186.457031 C 151.628906 185.292969 151.574219 184.125 151.574219 182.949219 C 151.574219 181.777344 151.628906 180.609375 151.734375 179.445312 C 151.84375 178.277344 152.003906 177.117188 152.214844 175.96875 C 152.429688 174.820312 152.691406 173.683594 153.011719 172.5625 C 153.328125 171.441406 153.695312 170.339844 154.113281 169.257812 C 154.53125 168.171875 154.996094 167.113281 155.511719 166.082031 C 156.023438 165.046875 156.585938 164.042969 157.191406 163.070312 C 157.800781 162.09375 158.449219 161.15625 159.140625 160.25 C 159.832031 159.34375 160.566406 158.476562 161.335938 157.644531 C 162.109375 156.816406 162.917969 156.03125 163.761719 155.289062 C 164.605469 154.542969 165.480469 153.847656 166.390625 153.195312 C 167.296875 152.542969 168.230469 151.941406 169.195312 151.390625 C 170.15625 150.835938 171.144531 150.335938 172.152344 149.890625 C 173.160156 149.441406 174.1875 149.046875 175.230469 148.707031 C 176.277344 148.367188 177.332031 148.082031 178.40625 147.851562 C 179.476562 147.625 180.554688 147.453125 181.640625 147.335938 C 182.726562 147.222656 183.816406 147.164062 184.90625 147.164062 C 186 147.164062 187.089844 147.222656 188.175781 147.335938 C 189.261719 147.453125 190.339844 147.625 191.410156 147.851562 C 192.480469 148.082031 193.539062 148.367188 194.582031 148.707031 C 195.628906 149.046875 196.65625 149.441406 197.664062 149.890625 C 198.671875 150.335938 199.65625 150.835938 200.621094 151.390625 C 201.582031 151.941406 202.519531 152.542969 203.425781 153.195312 C 204.332031 153.847656 205.210938 154.542969 206.054688 155.289062 C 206.898438 156.03125 207.707031 156.816406 208.476562 157.644531 C 209.25 158.476562 209.980469 159.34375 210.675781 160.25 C 211.367188 161.15625 212.015625 162.09375 212.621094 163.070312 C 213.230469 164.042969 213.789062 165.046875 214.304688 166.082031 C 214.820312 167.113281 215.285156 168.171875 215.703125 169.257812 C 216.121094 170.339844 216.488281 171.441406 216.804688 172.5625 C 217.121094 173.683594 217.386719 174.820312 217.601562 175.96875 C 217.8125 177.117188 217.972656 178.277344 218.078125 179.445312 C 218.1875 180.609375 218.242188 181.777344 218.242188 182.949219 Z M 218.242188 182.949219 " fill-opacity="1" fill-rule="nonzero"/><path fill="#d16a46" d="M 277.761719 121.625 L 279.160156 122.132812 L 244.703125 166.449219 C 235.128906 178.773438 222.394531 184.875 209.5 185.980469 C 208.089844 199.25 197.617188 209.515625 184.90625 209.515625 C 171.230469 209.515625 160.148438 197.621094 160.148438 182.9375 C 160.140625 180.125 160.550781 177.378906 161.378906 174.691406 C 162.207031 172.003906 163.414062 169.503906 165 167.183594 C 157.546875 158.007812 153.21875 145.910156 154.203125 131.757812 L 156.921875 93.945312 C 156.871094 92.890625 156.839844 91.824219 156.839844 90.753906 C 156.84375 86.59375 157.242188 82.476562 158.035156 78.394531 L 158.035156 78.328125 C 158.257812 77.191406 158.511719 76.0625 158.796875 74.945312 C 159.082031 73.824219 159.394531 72.710938 159.742188 71.605469 C 160.085938 70.503906 160.460938 69.410156 160.863281 68.324219 C 161.265625 67.242188 161.699219 66.167969 162.160156 65.109375 C 162.621094 64.046875 163.109375 63 163.628906 61.96875 C 164.144531 60.933594 164.691406 59.914062 165.261719 58.910156 C 165.835938 57.90625 166.433594 56.917969 167.058594 55.945312 C 167.683594 54.972656 168.335938 54.015625 169.011719 53.078125 C 169.6875 52.140625 170.390625 51.222656 171.117188 50.324219 C 171.84375 49.425781 172.59375 48.546875 173.367188 47.6875 C 174.140625 46.828125 174.9375 45.988281 175.753906 45.171875 C 176.574219 44.355469 177.414062 43.5625 178.273438 42.792969 C 179.136719 42.019531 180.015625 41.273438 180.917969 40.550781 C 181.820312 39.828125 182.738281 39.128906 183.679688 38.453125 C 184.617188 37.78125 185.574219 37.132812 186.546875 36.511719 C 187.523438 35.886719 188.511719 35.292969 189.519531 34.722656 C 190.523438 34.152344 191.542969 33.613281 192.578125 33.097656 C 193.613281 32.585938 194.664062 32.097656 195.722656 31.640625 C 196.785156 31.183594 197.859375 30.753906 198.941406 30.355469 C 200.027344 29.953125 201.121094 29.585938 202.226562 29.242188 C 203.328125 28.902344 204.441406 28.59375 205.5625 28.3125 C 206.683594 28.03125 207.8125 27.78125 208.945312 27.558594 C 210.078125 27.339844 211.21875 27.148438 212.363281 26.992188 C 213.507812 26.832031 214.65625 26.703125 215.808594 26.609375 C 216.960938 26.511719 218.113281 26.445312 219.265625 26.410156 C 220.421875 26.375 221.578125 26.371094 222.730469 26.398438 C 223.886719 26.425781 225.042969 26.484375 226.191406 26.574219 C 227.34375 26.664062 228.492188 26.785156 229.640625 26.9375 C 230.785156 27.089844 231.925781 27.269531 233.0625 27.484375 C 234.195312 27.699219 235.324219 27.941406 236.449219 28.214844 C 237.570312 28.488281 238.6875 28.792969 239.792969 29.125 C 240.898438 29.460938 241.996094 29.824219 243.082031 30.21875 C 244.167969 30.609375 245.242188 31.03125 246.308594 31.484375 C 247.371094 31.933594 248.421875 32.414062 249.460938 32.921875 C 250.5 33.429688 251.523438 33.964844 252.53125 34.527344 C 253.542969 35.089844 254.535156 35.679688 255.511719 36.292969 C 256.492188 36.910156 257.453125 37.554688 258.394531 38.222656 C 259.339844 38.890625 260.261719 39.582031 261.167969 40.300781 C 262.074219 41.015625 262.960938 41.757812 263.828125 42.523438 C 264.691406 43.289062 265.539062 44.078125 266.359375 44.890625 C 267.183594 45.699219 267.984375 46.535156 268.765625 47.386719 C 269.542969 48.242188 270.300781 49.117188 271.03125 50.011719 C 271.761719 50.90625 272.46875 51.820312 273.152344 52.753906 C 273.835938 53.6875 274.492188 54.636719 275.125 55.605469 C 275.753906 56.574219 276.359375 57.558594 276.9375 58.5625 C 277.515625 59.5625 278.066406 60.578125 278.59375 61.609375 C 279.117188 62.640625 279.613281 63.683594 280.078125 64.742188 C 280.546875 65.796875 280.984375 66.867188 281.398438 67.949219 C 281.808594 69.03125 282.1875 70.121094 282.539062 71.222656 C 282.890625 72.324219 283.210938 73.433594 283.503906 74.554688 C 283.796875 75.671875 284.058594 76.800781 284.289062 77.933594 C 284.519531 79.066406 284.71875 80.203125 284.890625 81.347656 C 285.058594 82.492188 285.199219 83.640625 285.308594 84.789062 C 285.414062 85.941406 285.492188 87.09375 285.539062 88.25 C 285.585938 89.40625 285.601562 90.5625 285.585938 91.71875 C 285.566406 92.875 285.519531 94.03125 285.441406 95.183594 C 285.363281 96.339844 285.253906 97.488281 285.117188 98.636719 C 284.976562 99.785156 284.804688 100.929688 284.601562 102.066406 C 284.402344 103.207031 284.167969 104.339844 283.90625 105.464844 C 283.644531 106.589844 283.351562 107.710938 283.03125 108.820312 C 282.707031 109.929688 282.355469 111.03125 281.972656 112.121094 C 281.589844 113.214844 281.179688 114.292969 280.742188 115.363281 C 280.300781 116.433594 279.832031 117.488281 279.335938 118.535156 C 278.839844 119.578125 278.3125 120.609375 277.761719 121.625 Z M 277.761719 121.625 " fill-opacity="1" fill-rule="nonzero"/><path fill="#f8cda2" d="M 221.3125 136.566406 C 222.253906 136.015625 223.238281 135.550781 224.257812 135.164062 C 229.964844 133.261719 237.382812 133.992188 240.460938 139.175781 C 242.351562 142.367188 242.058594 146.546875 240.402344 149.855469 C 238.742188 153.164062 235.914062 155.753906 232.875 157.910156 C 230.519531 159.550781 228.035156 160.953125 225.417969 162.121094 C 222.800781 163.289062 220.097656 164.203125 217.308594 164.859375 C 214.515625 165.515625 211.691406 165.90625 208.828125 166.03125 C 205.964844 166.152344 203.113281 166.007812 200.277344 165.59375 C 195.96875 164.988281 191.863281 163.714844 187.964844 161.777344 C 184.070312 159.839844 180.578125 157.335938 177.492188 154.261719 C 171.460938 148.078125 167.761719 139.519531 167.96875 130.890625 C 167.898438 128.808594 168.371094 126.859375 169.398438 125.042969 C 171.960938 121.0625 177.792969 120.851562 182.292969 122.308594 C 190.230469 124.890625 196.285156 131.222656 199.304688 138.902344 C 199.945312 140.507812 200.527344 142.277344 201.933594 143.28125 C 207.113281 147.003906 217.078125 138.910156 221.3125 136.566406 Z M 221.3125 136.566406 " fill-opacity="1" fill-rule="nonzero"/><path fill="#000000" d="M 166.929688 134.9375 C 167.167969 137.113281 167.601562 139.246094 168.238281 141.339844 C 168.875 143.433594 169.699219 145.449219 170.710938 147.390625 C 171.726562 149.328125 172.910156 151.15625 174.265625 152.875 C 175.621094 154.589844 177.121094 156.167969 178.773438 157.601562 C 182.152344 160.363281 185.867188 162.554688 189.921875 164.171875 C 193.972656 165.789062 198.171875 166.761719 202.523438 167.089844 C 206.820312 167.429688 211.082031 167.179688 215.308594 166.339844 C 219.535156 165.5 223.570312 164.101562 227.410156 162.144531 C 229.316406 161.171875 231.144531 160.074219 232.894531 158.847656 C 234.675781 157.636719 236.3125 156.25 237.800781 154.691406 C 239.332031 153.105469 240.519531 151.292969 241.367188 149.257812 C 242.214844 147.175781 242.511719 145.019531 242.257812 142.785156 C 242.117188 141.675781 241.804688 140.613281 241.328125 139.601562 C 240.828125 138.59375 240.171875 137.699219 239.363281 136.917969 C 238.554688 136.152344 237.648438 135.523438 236.644531 135.039062 C 235.660156 134.582031 234.636719 134.238281 233.574219 134.015625 C 231.433594 133.605469 229.285156 133.585938 227.136719 133.957031 C 226.070312 134.136719 225.023438 134.402344 224 134.75 C 223 135.144531 222.035156 135.613281 221.105469 136.152344 C 217.421875 138.304688 214.085938 140.789062 210.285156 142.425781 C 208.421875 143.214844 206.414062 143.898438 204.496094 143.65625 C 203.542969 143.566406 202.703125 143.207031 201.980469 142.578125 C 201.28125 141.878906 200.765625 141.0625 200.433594 140.132812 C 200.058594 139.195312 199.695312 138.1875 199.246094 137.183594 L 198.5625 135.710938 L 197.824219 134.292969 C 196.757812 132.425781 195.507812 130.691406 194.070312 129.089844 C 192.890625 127.78125 191.597656 126.589844 190.195312 125.523438 C 190.195312 125.433594 190.195312 125.355469 190.230469 125.273438 C 190.304688 124.660156 189.496094 124.394531 189.082031 124.707031 C 187.351562 123.503906 185.503906 122.519531 183.539062 121.757812 C 181.46875 120.921875 179.324219 120.488281 177.09375 120.460938 C 174.71875 120.375 172.535156 120.980469 170.546875 122.28125 C 169.554688 123 168.757812 123.894531 168.160156 124.964844 C 167.613281 126.011719 167.246094 127.117188 167.0625 128.289062 C 166.882812 129.382812 166.804688 130.488281 166.820312 131.597656 C 166.820312 132.140625 166.820312 132.6875 166.820312 133.234375 C 166.820312 133.777344 166.863281 134.390625 166.929688 134.9375 Z M 221.710938 162.453125 C 222 161.375 222.136719 160.273438 222.113281 159.15625 L 222.335938 156.210938 C 222.488281 154.070312 222.644531 151.9375 222.804688 149.8125 C 223.128906 145.566406 223.636719 141.296875 223.652344 137.035156 C 223.652344 136.664062 223.496094 136.371094 223.1875 136.160156 C 223.558594 135.984375 223.925781 135.820312 224.308594 135.679688 C 225.269531 135.355469 226.253906 135.113281 227.253906 134.945312 C 229.277344 134.609375 231.296875 134.644531 233.308594 135.046875 C 234.289062 135.257812 235.234375 135.578125 236.144531 136.003906 C 237.035156 136.449219 237.839844 137.015625 238.558594 137.699219 C 239.261719 138.394531 239.832031 139.1875 240.269531 140.074219 C 240.6875 140.972656 240.953125 141.917969 241.0625 142.902344 C 241.292969 144.929688 241.003906 146.882812 240.203125 148.757812 C 239.371094 150.613281 238.230469 152.257812 236.785156 153.6875 C 235.335938 155.140625 233.75 156.421875 232.027344 157.535156 C 230.304688 158.667969 228.515625 159.671875 226.652344 160.550781 C 225.019531 161.324219 223.351562 161.992188 221.636719 162.554688 C 221.664062 162.523438 221.6875 162.488281 221.710938 162.453125 Z M 189.804688 127.242188 C 190.941406 128.113281 192 129.070312 192.980469 130.117188 C 195.8125 133.175781 197.933594 136.667969 199.335938 140.597656 C 199.734375 141.675781 200.347656 142.617188 201.167969 143.421875 C 201.84375 144 202.613281 144.398438 203.472656 144.613281 C 203.121094 146.117188 202.875 147.640625 202.738281 149.175781 C 202.53125 150.738281 202.332031 152.300781 202.125 153.863281 C 201.71875 156.992188 201.324219 160.117188 200.941406 163.25 C 200.742188 164.824219 203.253906 164.832031 203.421875 163.25 C 203.746094 160.183594 204.058594 157.117188 204.359375 154.050781 L 204.808594 149.539062 C 205.027344 147.980469 205.136719 146.414062 205.136719 144.84375 C 205.140625 144.824219 205.140625 144.804688 205.136719 144.785156 C 207.089844 144.699219 208.941406 144.234375 210.699219 143.382812 C 214.515625 141.703125 217.855469 139.21875 221.296875 137.140625 C 220.558594 141.238281 220.324219 145.417969 219.976562 149.554688 C 219.800781 151.683594 219.617188 153.8125 219.460938 155.945312 L 219.242188 159.144531 C 219.074219 160.242188 219.074219 161.339844 219.242188 162.4375 C 219.300781 162.75 219.460938 162.996094 219.71875 163.175781 C 214.171875 164.773438 208.523438 165.261719 202.78125 164.648438 C 198.726562 164.238281 194.824219 163.226562 191.078125 161.617188 C 187.332031 160.007812 183.914062 157.871094 180.820312 155.214844 C 180.480469 154.933594 180.15625 154.644531 179.832031 154.359375 C 179.875 154.289062 179.90625 154.21875 179.9375 154.144531 C 180.878906 151.765625 181.460938 149.183594 182.269531 146.773438 C 183.082031 144.363281 183.964844 141.886719 184.894531 139.476562 C 185.820312 137.066406 186.816406 134.582031 187.839844 132.164062 C 188.589844 130.5625 189.242188 128.917969 189.804688 127.242188 Z M 169.257812 128.714844 C 169.332031 127.796875 169.582031 126.933594 170.015625 126.117188 C 170.449219 125.304688 171.027344 124.613281 171.746094 124.042969 C 173.359375 122.953125 175.136719 122.421875 177.078125 122.441406 C 179.085938 122.421875 181.027344 122.761719 182.90625 123.46875 C 184.695312 124.105469 186.390625 124.941406 187.984375 125.972656 C 186.886719 127.628906 185.96875 129.378906 185.230469 131.230469 C 184.140625 133.617188 183.125 136.035156 182.183594 138.488281 C 181.238281 140.941406 180.359375 143.375 179.546875 145.785156 C 178.855469 147.859375 178.074219 149.996094 177.527344 152.140625 C 175.300781 149.71875 173.488281 147.019531 172.089844 144.039062 C 170.695312 141.058594 169.777344 137.941406 169.339844 134.679688 C 169.265625 134.175781 169.21875 133.675781 169.191406 133.203125 C 169.144531 132.714844 169.121094 132.222656 169.125 131.730469 C 169.074219 130.71875 169.121094 129.710938 169.257812 128.707031 Z M 171.269531 86.027344 C 173.050781 85.011719 175.480469 84.84375 177.507812 84.796875 C 179.449219 84.765625 181.363281 84.96875 183.257812 85.402344 C 185 85.808594 186.6875 86.386719 188.316406 87.128906 C 189.945312 87.875 191.484375 88.773438 192.933594 89.824219 C 194.382812 90.875 195.714844 92.058594 196.929688 93.375 C 198.144531 94.691406 199.214844 96.117188 200.144531 97.644531 C 202.089844 100.828125 203.453125 104.242188 204.234375 107.890625 C 204.621094 109.761719 204.867188 111.652344 204.96875 113.558594 C 205.066406 115.175781 205.109375 117.320312 204.3125 118.765625 C 204.257812 118.855469 204.195312 118.9375 204.117188 119.011719 C 204.042969 119.085938 203.960938 119.148438 203.867188 119.199219 C 203.777344 119.253906 203.679688 119.292969 203.574219 119.320312 C 203.472656 119.347656 203.371094 119.359375 203.265625 119.359375 C 203.160156 119.359375 203.054688 119.347656 202.953125 119.320312 C 202.851562 119.292969 202.753906 119.253906 202.660156 119.199219 C 202.570312 119.148438 202.484375 119.085938 202.410156 119.011719 C 202.332031 118.9375 202.269531 118.855469 202.214844 118.765625 C 201.34375 116.898438 201.476562 114.40625 201.214844 112.378906 C 200.917969 110.3125 200.449219 108.285156 199.800781 106.300781 C 198.570312 102.34375 196.527344 98.867188 193.679688 95.863281 C 190.957031 93.0625 187.71875 91.113281 183.972656 90.015625 C 182.164062 89.488281 180.316406 89.230469 178.433594 89.234375 C 176.328125 89.234375 174.421875 89.972656 172.351562 90.128906 C 170.140625 90.3125 169.5 87.054688 171.269531 86.023438 Z M 218.152344 121.484375 C 219.476562 117.511719 222.378906 114.5625 225.722656 112.152344 C 228.902344 109.796875 232.40625 108.136719 236.238281 107.160156 C 239.820312 106.464844 243.34375 106.6875 246.808594 107.824219 C 248.714844 108.402344 250.535156 109.179688 252.273438 110.15625 C 254.03125 111.15625 256.007812 112.367188 256.742188 114.363281 C 257.273438 115.785156 255.703125 117.015625 254.414062 116.699219 C 252.679688 116.265625 251.191406 114.761719 249.628906 113.90625 C 248.222656 113.140625 246.75 112.539062 245.210938 112.101562 C 242.640625 111.363281 239.714844 110.921875 237.109375 111.578125 C 233.839844 112.464844 230.796875 113.847656 227.984375 115.734375 C 225.125 117.738281 222.621094 120.117188 220.472656 122.871094 C 219.617188 123.953125 217.710938 122.78125 218.152344 121.484375 Z M 260.976562 145.550781 C 260.902344 145.480469 260.832031 145.480469 260.757812 145.550781 C 257.105469 149.53125 253.535156 153.578125 250.054688 157.699219 C 248.296875 159.738281 246.585938 161.824219 244.847656 163.890625 L 243.566406 165.445312 L 242.269531 166.917969 C 241.835938 167.40625 241.417969 167.90625 240.96875 168.394531 L 239.582031 169.773438 C 235.902344 173.496094 231.757812 176.601562 227.152344 179.089844 C 222.535156 181.621094 217.625 183.296875 212.421875 184.117188 L 210.492188 184.410156 L 208.539062 184.582031 C 207.238281 184.734375 205.925781 184.683594 204.621094 184.742188 C 201.328125 184.710938 198.0625 184.371094 194.832031 183.71875 C 191.597656 183.070312 188.457031 182.121094 185.402344 180.875 C 182.351562 179.628906 179.445312 178.105469 176.679688 176.304688 C 173.917969 174.507812 171.347656 172.464844 168.96875 170.175781 C 165.152344 166.4375 162.023438 162.191406 159.585938 157.433594 C 159.503906 157.269531 159.371094 157.15625 159.195312 157.097656 C 159.019531 157.035156 158.851562 157.046875 158.683594 157.121094 C 158.507812 157.203125 158.390625 157.335938 158.328125 157.515625 C 158.261719 157.695312 158.273438 157.871094 158.359375 158.042969 C 159.820312 161.113281 161.570312 164.007812 163.609375 166.726562 C 162.15625 169.183594 161.054688 171.785156 160.304688 174.539062 C 159.554688 177.289062 159.183594 180.089844 159.191406 182.945312 C 159.242188 189.84375 161.3125 196.949219 165.898438 202.441406 C 168.199219 205.296875 171.007812 207.507812 174.324219 209.074219 C 177.660156 210.640625 181.171875 211.363281 184.855469 211.25 C 188.507812 211.101562 191.945312 210.175781 195.175781 208.460938 C 198.304688 206.796875 201.003906 204.601562 203.273438 201.878906 C 205.5 199.222656 207.230469 196.273438 208.46875 193.035156 C 209.164062 191.210938 209.691406 189.34375 210.050781 187.425781 L 210.859375 187.375 L 212.921875 187.101562 C 218.488281 186.351562 223.777344 184.707031 228.785156 182.167969 C 230.054688 181.585938 231.210938 180.796875 232.425781 180.113281 C 233.640625 179.429688 234.753906 178.574219 235.871094 177.746094 C 238.082031 176.046875 240.132812 174.171875 242.027344 172.125 L 243.425781 170.574219 C 243.875 170.050781 244.289062 169.492188 244.722656 168.953125 L 246.003906 167.324219 L 247.199219 165.6875 C 248.765625 163.476562 250.367188 161.332031 251.90625 159.121094 C 255.035156 154.726562 258.078125 150.269531 261.03125 145.742188 C 261.078125 145.65625 261.058594 145.589844 260.976562 145.535156 Z M 207.332031 192.613281 C 206.203125 195.746094 204.484375 198.511719 202.179688 200.914062 C 201.070312 202.074219 199.851562 203.101562 198.519531 204 C 197.191406 204.898438 195.785156 205.648438 194.296875 206.246094 C 192.808594 206.84375 191.277344 207.277344 189.695312 207.546875 C 188.113281 207.820312 186.523438 207.917969 184.921875 207.851562 C 183.359375 207.78125 181.820312 207.5625 180.300781 207.203125 C 178.777344 206.839844 177.304688 206.335938 175.878906 205.695312 C 174.453125 205.054688 173.101562 204.285156 171.824219 203.386719 C 170.542969 202.488281 169.359375 201.476562 168.269531 200.355469 C 166.003906 198.046875 164.238281 195.40625 162.96875 192.429688 C 161.691406 189.398438 161.050781 186.234375 161.046875 182.945312 C 161.070312 179.65625 161.71875 176.5 162.988281 173.472656 C 163.671875 171.917969 164.5 170.441406 165.472656 169.050781 C 166.207031 169.890625 166.90625 170.707031 167.679688 171.503906 C 171.542969 175.476562 175.917969 178.765625 180.804688 181.367188 C 184.484375 183.304688 188.332031 184.796875 192.351562 185.851562 C 196.375 186.902344 200.460938 187.484375 204.617188 187.59375 C 205.925781 187.59375 207.253906 187.59375 208.570312 187.519531 C 208.34375 189.265625 207.929688 190.960938 207.332031 192.613281 Z M 207.332031 192.613281 " fill-opacity="1" fill-rule="nonzero"/><path fill="#eec51d" d="M 213.644531 250.992188 C 213.644531 251.917969 213.597656 252.839844 213.507812 253.757812 C 213.417969 254.675781 213.285156 255.589844 213.101562 256.496094 C 212.921875 257.402344 212.699219 258.296875 212.429688 259.183594 C 212.164062 260.066406 211.851562 260.933594 211.5 261.789062 C 211.144531 262.640625 210.75 263.476562 210.316406 264.289062 C 209.882812 265.105469 209.40625 265.898438 208.894531 266.664062 C 208.382812 267.433594 207.832031 268.175781 207.246094 268.890625 C 206.660156 269.601562 206.042969 270.285156 205.390625 270.941406 C 204.738281 271.59375 204.054688 272.214844 203.339844 272.800781 C 202.625 273.386719 201.886719 273.933594 201.117188 274.449219 C 200.351562 274.960938 199.558594 275.4375 198.746094 275.871094 C 197.933594 276.308594 197.097656 276.703125 196.246094 277.054688 C 195.394531 277.410156 194.523438 277.71875 193.640625 277.988281 C 192.757812 278.253906 191.863281 278.480469 190.957031 278.660156 C 190.054688 278.839844 189.140625 278.976562 188.222656 279.066406 C 187.304688 279.15625 186.382812 279.203125 185.460938 279.203125 C 184.535156 279.203125 183.617188 279.15625 182.699219 279.066406 C 181.777344 278.976562 180.867188 278.839844 179.960938 278.660156 C 179.054688 278.480469 178.160156 278.253906 177.277344 277.988281 C 176.394531 277.71875 175.527344 277.410156 174.675781 277.054688 C 173.820312 276.703125 172.988281 276.308594 172.171875 275.871094 C 171.359375 275.4375 170.570312 274.960938 169.800781 274.449219 C 169.035156 273.933594 168.292969 273.386719 167.578125 272.800781 C 166.867188 272.214844 166.183594 271.59375 165.53125 270.941406 C 164.878906 270.285156 164.257812 269.601562 163.671875 268.890625 C 163.085938 268.175781 162.539062 267.433594 162.023438 266.664062 C 161.511719 265.898438 161.039062 265.105469 160.601562 264.289062 C 160.167969 263.476562 159.773438 262.640625 159.421875 261.789062 C 159.066406 260.933594 158.757812 260.066406 158.488281 259.183594 C 158.222656 258.296875 157.996094 257.402344 157.816406 256.496094 C 157.636719 255.589844 157.5 254.675781 157.410156 253.757812 C 157.320312 252.839844 157.273438 251.917969 157.273438 250.992188 C 157.273438 250.070312 157.320312 249.148438 157.410156 248.226562 C 157.5 247.308594 157.636719 246.394531 157.816406 245.488281 C 157.996094 244.582031 158.222656 243.6875 158.488281 242.804688 C 158.757812 241.921875 159.066406 241.050781 159.421875 240.199219 C 159.773438 239.34375 160.167969 238.511719 160.601562 237.695312 C 161.039062 236.878906 161.511719 236.089844 162.023438 235.320312 C 162.539062 234.554688 163.085938 233.8125 163.671875 233.097656 C 164.257812 232.382812 164.878906 231.699219 165.53125 231.046875 C 166.183594 230.394531 166.867188 229.773438 167.578125 229.1875 C 168.292969 228.601562 169.035156 228.050781 169.800781 227.539062 C 170.570312 227.023438 171.359375 226.550781 172.171875 226.113281 C 172.988281 225.679688 173.820312 225.285156 174.675781 224.929688 C 175.527344 224.578125 176.394531 224.265625 177.277344 224 C 178.160156 223.730469 179.054688 223.507812 179.960938 223.328125 C 180.867188 223.144531 181.777344 223.011719 182.699219 222.921875 C 183.617188 222.828125 184.535156 222.785156 185.460938 222.785156 C 186.382812 222.785156 187.304688 222.828125 188.222656 222.921875 C 189.140625 223.011719 190.054688 223.144531 190.957031 223.328125 C 191.863281 223.507812 192.757812 223.730469 193.640625 224 C 194.523438 224.265625 195.394531 224.578125 196.246094 224.929688 C 197.097656 225.285156 197.933594 225.679688 198.746094 226.113281 C 199.558594 226.550781 200.351562 227.023438 201.117188 227.539062 C 201.886719 228.050781 202.625 228.601562 203.339844 229.1875 C 204.054688 229.773438 204.738281 230.394531 205.390625 231.046875 C 206.042969 231.699219 206.660156 232.382812 207.246094 233.097656 C 207.832031 233.8125 208.382812 234.554688 208.894531 235.320312 C 209.40625 236.089844 209.882812 236.878906 210.316406 237.695312 C 210.75 238.511719 211.144531 239.34375 211.5 240.199219 C 211.851562 241.050781 212.164062 241.921875 212.429688 242.804688 C 212.699219 243.6875 212.921875 244.582031 213.101562 245.488281 C 213.285156 246.394531 213.417969 247.308594 213.507812 248.226562 C 213.597656 249.148438 213.644531 250.070312 213.644531 250.992188 Z M 213.644531 250.992188 " fill-opacity="1" fill-rule="nonzero"/><path fill="#000000" d="M 173.535156 243.9375 L 173.535156 243.753906 C 173.535156 243.542969 173.589844 243.296875 173.625 243.085938 C 173.621094 243.039062 173.621094 242.992188 173.625 242.945312 C 173.707031 242.703125 173.808594 242.46875 173.925781 242.242188 C 174.140625 241.875 174.429688 241.585938 174.796875 241.367188 C 175.175781 241.152344 175.585938 241.039062 176.027344 241.035156 L 176.097656 241.035156 C 176.152344 241.03125 176.207031 241.03125 176.261719 241.035156 L 176.34375 241.035156 C 176.546875 241.035156 176.753906 241.078125 176.960938 241.117188 C 177.304688 241.214844 177.605469 241.390625 177.859375 241.640625 C 178.058594 241.820312 178.195312 242.039062 178.277344 242.296875 C 178.410156 242.539062 178.464844 242.800781 178.449219 243.078125 C 178.457031 243.152344 178.457031 243.230469 178.449219 243.304688 C 178.484375 243.511719 178.484375 243.71875 178.449219 243.925781 C 178.460938 244.171875 178.4375 244.417969 178.375 244.660156 C 178.292969 244.851562 178.214844 245.050781 178.125 245.242188 C 177.910156 245.617188 177.621094 245.910156 177.25 246.128906 L 176.660156 246.371094 C 176 246.519531 175.371094 246.4375 174.773438 246.128906 C 174.488281 245.976562 174.257812 245.765625 174.082031 245.496094 C 173.863281 245.253906 173.71875 244.976562 173.648438 244.660156 L 173.648438 244.625 L 173.601562 244.285156 C 173.566406 244.160156 173.550781 244.050781 173.535156 243.9375 Z M 192.15625 244.277344 L 192.199219 244.617188 L 192.199219 244.652344 C 192.269531 244.96875 192.414062 245.246094 192.632812 245.488281 C 192.808594 245.757812 193.042969 245.96875 193.324219 246.121094 C 193.605469 246.300781 193.910156 246.394531 194.238281 246.410156 C 194.570312 246.484375 194.894531 246.46875 195.21875 246.363281 L 195.800781 246.121094 C 196.171875 245.902344 196.464844 245.609375 196.683594 245.238281 L 196.925781 244.652344 C 196.992188 244.414062 197.015625 244.167969 197.007812 243.917969 C 197.042969 243.710938 197.042969 243.503906 197.007812 243.296875 C 197.027344 243.222656 197.039062 243.148438 197.042969 243.070312 C 197.054688 242.792969 196.996094 242.53125 196.867188 242.289062 C 196.785156 242.03125 196.644531 241.8125 196.449219 241.632812 C 196.191406 241.382812 195.894531 241.207031 195.550781 241.109375 C 195.34375 241.070312 195.136719 241.050781 194.929688 241.027344 L 194.613281 241.027344 C 194.175781 241.03125 193.765625 241.144531 193.382812 241.359375 C 193.019531 241.578125 192.730469 241.871094 192.515625 242.238281 C 192.398438 242.460938 192.296875 242.695312 192.214844 242.9375 C 192.199219 242.984375 192.183594 243.027344 192.175781 243.078125 C 192.175781 243.289062 192.109375 243.535156 192.089844 243.746094 L 192.089844 243.84375 C 192.085938 243.867188 192.085938 243.890625 192.089844 243.917969 C 192.117188 244.050781 192.140625 244.160156 192.15625 244.277344 Z M 200.359375 255.984375 L 200.226562 255.804688 C 200.160156 255.601562 200.050781 255.417969 199.902344 255.261719 C 199.699219 255.074219 199.476562 254.917969 199.230469 254.789062 C 198.835938 254.601562 198.425781 254.4375 198.007812 254.304688 C 197.285156 254.050781 196.550781 253.84375 195.800781 253.683594 C 194.96875 253.527344 194.132812 253.417969 193.289062 253.359375 C 192.480469 253.25 191.679688 253.273438 190.878906 253.433594 C 190.683594 253.492188 190.519531 253.597656 190.386719 253.753906 C 190.253906 253.910156 190.175781 254.085938 190.148438 254.289062 C 190.125 254.492188 190.152344 254.6875 190.242188 254.871094 C 190.332031 255.054688 190.460938 255.199219 190.636719 255.304688 C 191.378906 255.621094 192.140625 255.867188 192.925781 256.042969 C 193.339844 256.152344 193.753906 256.285156 194.15625 256.410156 C 192.273438 260.929688 189.320312 266.457031 183.847656 266.382812 C 181.445312 266.382812 179.339844 264.910156 177.765625 263.214844 C 176.871094 262.21875 176.113281 261.132812 175.488281 259.949219 C 174.929688 258.910156 174.015625 257.554688 174.242188 256.34375 C 174.28125 256.195312 174.28125 256.042969 174.242188 255.894531 C 174.59375 255.671875 174.824219 255.363281 174.941406 254.964844 C 175.046875 254.53125 174.992188 254.121094 174.78125 253.726562 C 174.59375 253.429688 174.34375 253.199219 174.035156 253.03125 C 173.726562 252.863281 173.394531 252.78125 173.042969 252.785156 C 172.601562 252.699219 172.160156 252.664062 171.710938 252.6875 C 171.261719 252.722656 170.820312 252.792969 170.382812 252.902344 L 169.933594 253.042969 C 169.574219 253.179688 169.25 253.375 168.964844 253.632812 L 168.742188 253.917969 C 168.699219 254.03125 168.652344 254.140625 168.601562 254.25 C 168.519531 254.566406 168.546875 254.871094 168.675781 255.164062 C 168.785156 255.421875 168.953125 255.628906 169.183594 255.785156 C 169.414062 255.941406 169.671875 256.023438 169.949219 256.027344 L 170.246094 256.027344 C 170.355469 256.035156 170.46875 256.035156 170.582031 256.027344 C 171.042969 255.988281 171.507812 255.988281 171.96875 256.027344 C 170.789062 258.289062 173.441406 262.394531 174.605469 264.03125 C 176.570312 266.753906 179.28125 269.03125 182.707031 269.503906 C 186.292969 269.996094 189.777344 268.375 192.207031 265.78125 C 194.472656 263.363281 195.808594 260.355469 196.925781 257.28125 L 197.222656 257.371094 C 197.558594 257.480469 197.90625 257.613281 198.253906 257.695312 C 198.609375 257.777344 198.964844 257.777344 199.320312 257.695312 C 199.46875 257.652344 199.609375 257.585938 199.738281 257.5 C 199.621094 257.574219 199.636719 257.589844 199.785156 257.546875 C 199.941406 257.5 200.082031 257.421875 200.203125 257.308594 C 200.320312 257.199219 200.410156 257.066406 200.46875 256.910156 C 200.523438 256.757812 200.542969 256.597656 200.523438 256.433594 C 200.503906 256.269531 200.449219 256.121094 200.359375 255.984375 Z M 200.359375 255.984375 " fill-opacity="1" fill-rule="nonzero"/><g clip-path="url(#eb0d264d42)"><path fill="#eec51d" d="M 303.332031 360.800781 L 280.039062 276.769531 C 279.84375 276.078125 279.542969 275.433594 279.136719 274.839844 C 278.730469 274.246094 278.242188 273.730469 277.671875 273.292969 C 277.097656 272.859375 276.46875 272.523438 275.789062 272.292969 C 275.109375 272.0625 274.410156 271.945312 273.6875 271.941406 L 88.914062 271.941406 C 88.199219 271.941406 87.503906 272.058594 86.824219 272.289062 C 86.144531 272.519531 85.519531 272.847656 84.949219 273.285156 C 84.378906 273.71875 83.894531 274.230469 83.492188 274.824219 C 83.089844 275.414062 82.789062 276.058594 82.597656 276.746094 L 59.273438 360.800781 C 59.136719 361.289062 59.058594 361.789062 59.039062 362.292969 C 59.019531 362.800781 59.054688 363.304688 59.152344 363.804688 C 59.246094 364.300781 59.398438 364.78125 59.605469 365.246094 C 59.8125 365.710938 60.066406 366.144531 60.375 366.546875 C 60.683594 366.953125 61.03125 367.316406 61.421875 367.640625 C 61.8125 367.964844 62.234375 368.238281 62.691406 368.464844 C 63.144531 368.691406 63.617188 368.859375 64.113281 368.976562 C 64.605469 369.09375 65.105469 369.152344 65.613281 369.152344 L 181.285156 369.152344 L 181.335938 368.65625 L 181.378906 369.152344 L 297.007812 369.152344 C 297.511719 369.148438 298.011719 369.089844 298.503906 368.972656 C 299 368.855469 299.472656 368.683594 299.925781 368.460938 C 300.378906 368.234375 300.800781 367.957031 301.191406 367.632812 C 301.582031 367.308594 301.929688 366.945312 302.234375 366.542969 C 302.539062 366.136719 302.796875 365.703125 303.003906 365.242188 C 303.207031 364.777344 303.359375 364.296875 303.453125 363.800781 C 303.550781 363.300781 303.585938 362.800781 303.566406 362.292969 C 303.546875 361.785156 303.46875 361.289062 303.332031 360.800781 Z M 303.332031 360.800781 " fill-opacity="1" fill-rule="nonzero"/></g><path fill="#f8cda2" d="M 296.175781 356.753906 L 273.011719 284.921875 C 228.417969 245.441406 188.78125 275.597656 187.175781 276.835938 C 175.621094 270.203125 134.386719 250.699219 95.734375 284.945312 L 72.582031 356.753906 L 72.582031 361.617188 L 182.375 362.289062 L 185.222656 362.289062 L 295.011719 361.617188 Z M 296.175781 356.753906 " fill-opacity="1" fill-rule="nonzero"/><path fill="#000000" d="M 97.8125 328.160156 C 101.089844 329.863281 105.523438 329.472656 109.035156 328.800781 C 112.769531 328.089844 116.230469 326.703125 119.421875 324.636719 C 120.605469 323.871094 121.730469 323.027344 122.792969 322.101562 C 127.875 325.160156 135.3125 324.3125 140.800781 322.691406 C 143.773438 321.84375 146.636719 320.714844 149.386719 319.300781 C 152.113281 321.570312 156.753906 320.316406 159.800781 319.300781 C 163.265625 318.109375 166.367188 316.296875 169.109375 313.867188 C 172.152344 311.121094 174.417969 307.835938 175.902344 304.011719 C 176.4375 302.664062 174.140625 301.683594 173.542969 303.019531 C 172.828125 304.601562 171.953125 306.09375 170.921875 307.496094 C 169.890625 308.898438 168.722656 310.175781 167.425781 311.328125 C 166.125 312.484375 164.71875 313.492188 163.207031 314.351562 C 161.695312 315.210938 160.109375 315.902344 158.453125 316.425781 C 156.824219 316.964844 155.152344 317.273438 153.4375 317.347656 C 153.191406 317.351562 152.945312 317.335938 152.703125 317.304688 C 153.171875 316.972656 153.636719 316.632812 154.085938 316.269531 C 157.371094 313.617188 159.351562 308.539062 155.972656 305.097656 C 155.769531 304.871094 155.519531 304.734375 155.222656 304.683594 C 154.921875 304.636719 154.644531 304.6875 154.378906 304.839844 C 154.433594 304.574219 154.410156 304.316406 154.308594 304.066406 C 154.207031 303.816406 154.042969 303.613281 153.820312 303.460938 C 152.40625 302.515625 150.5 303.03125 149.210938 303.960938 C 148.476562 304.511719 147.882812 305.1875 147.429688 305.988281 C 146.976562 306.785156 146.703125 307.640625 146.605469 308.554688 C 146.402344 310.664062 146.542969 312.75 147.03125 314.8125 C 147.15625 315.472656 147.34375 316.113281 147.597656 316.734375 C 145.773438 317.636719 143.894531 318.410156 141.964844 319.050781 C 137 320.703125 130.179688 322.292969 125.238281 319.726562 C 126.089844 318.800781 126.875 317.816406 127.59375 316.78125 C 129.371094 314.191406 131.042969 310.332031 129.257812 307.316406 C 127.257812 303.933594 122.476562 304.789062 120.089844 307.203125 C 119.472656 307.847656 118.964844 308.566406 118.5625 309.359375 C 118.160156 310.152344 117.882812 310.988281 117.730469 311.867188 C 117.578125 312.746094 117.558594 313.625 117.667969 314.507812 C 117.78125 315.390625 118.019531 316.238281 118.382812 317.050781 C 118.871094 318.15625 119.515625 319.160156 120.320312 320.058594 C 119.371094 320.824219 118.375 321.519531 117.328125 322.144531 C 114.535156 323.792969 111.546875 324.921875 108.367188 325.535156 C 106.804688 325.835938 105.226562 325.996094 103.636719 326.023438 C 101.90625 326.058594 100.175781 325.808594 98.484375 325.957031 C 97.328125 326.03125 96.679688 327.570312 97.8125 328.160156 Z M 149.902344 314.605469 C 149.433594 312.710938 149.019531 310.351562 149.476562 308.429688 C 149.652344 307.5 150.125 306.761719 150.898438 306.21875 C 151.589844 305.835938 152.328125 305.714844 153.105469 305.847656 C 153.253906 305.855469 153.398438 305.835938 153.542969 305.789062 C 153.472656 306.027344 153.472656 306.265625 153.535156 306.5 C 153.597656 306.738281 153.71875 306.945312 153.894531 307.117188 C 156.316406 309.652344 153.570312 313.011719 151.390625 314.523438 C 150.976562 314.804688 150.535156 315.054688 150.109375 315.320312 C 150.023438 315.085938 149.957031 314.847656 149.902344 314.605469 Z M 121.269531 310.617188 C 121.785156 309.554688 122.578125 308.777344 123.648438 308.28125 C 124.9375 307.734375 126.652344 307.925781 126.976562 309.503906 C 127.492188 311.980469 125.503906 314.621094 124.03125 316.398438 C 123.605469 316.914062 123.148438 317.40625 122.683594 317.871094 L 122.484375 317.6875 C 122.027344 317.234375 121.648438 316.722656 121.351562 316.152344 C 121.054688 315.582031 120.851562 314.976562 120.742188 314.34375 C 120.632812 313.710938 120.625 313.074219 120.714844 312.4375 C 120.804688 311.796875 120.988281 311.191406 121.269531 310.609375 Z M 261.832031 310.773438 C 263.527344 311.507812 264.683594 308.664062 263.085938 307.824219 C 261.296875 306.921875 259.40625 306.347656 257.417969 306.105469 C 255.429688 305.867188 253.457031 305.972656 251.507812 306.421875 C 250.628906 304.746094 249.476562 303.285156 248.046875 302.042969 C 246.617188 300.796875 245.011719 299.859375 243.230469 299.222656 C 240.339844 298.214844 237.367188 297.785156 234.308594 297.933594 C 232.277344 297.972656 230.257812 298.167969 228.257812 298.515625 C 227.828125 298.148438 227.382812 297.808594 226.914062 297.496094 C 218.335938 291.8125 205.699219 294.667969 199.996094 303.0625 C 199.09375 304.394531 201.226562 305.605469 202.140625 304.316406 C 205.957031 298.925781 213.1875 296.429688 219.609375 297.734375 C 221.304688 298.070312 222.910156 298.660156 224.417969 299.503906 C 219.875 301.277344 215.582031 305.894531 217.878906 311.023438 C 218.113281 311.578125 218.417969 312.089844 218.796875 312.558594 C 219.175781 313.023438 219.613281 313.429688 220.105469 313.769531 C 220.601562 314.113281 221.132812 314.378906 221.703125 314.570312 C 222.273438 314.757812 222.859375 314.863281 223.460938 314.886719 C 226.15625 314.886719 228.617188 312.84375 230.304688 310.882812 C 232.925781 307.773438 232.578125 304.25 230.738281 301.335938 C 232.386719 301.1875 234.035156 301.132812 235.6875 301.167969 C 239.9375 301.226562 244.222656 302.363281 247.09375 305.671875 C 247.5625 306.207031 247.96875 306.785156 248.308594 307.410156 C 245.988281 308.320312 243.988281 309.699219 242.308594 311.546875 C 240.726562 313.382812 239.722656 316.59375 242.125 318.246094 C 244.332031 319.773438 247.957031 319.191406 249.96875 317.597656 C 251.976562 316.003906 252.914062 313.175781 252.683594 310.566406 C 252.683594 310.265625 252.617188 309.96875 252.574219 309.679688 C 254.136719 309.398438 255.707031 309.347656 257.285156 309.535156 C 258.859375 309.71875 260.378906 310.128906 261.832031 310.765625 Z M 228.285156 303.128906 C 228.566406 303.523438 228.78125 303.949219 228.921875 304.410156 C 229.066406 304.875 229.132812 305.347656 229.121094 305.832031 C 229.113281 306.316406 229.023438 306.785156 228.859375 307.242188 C 228.699219 307.695312 228.46875 308.113281 228.167969 308.496094 C 227.144531 309.828125 225.222656 311.664062 223.441406 311.664062 C 221.828125 311.664062 220.65625 309.984375 220.492188 308.503906 C 220.332031 306.660156 221.621094 304.890625 223.027344 303.84375 C 224.339844 302.914062 225.78125 302.269531 227.351562 301.914062 C 227.695312 302.289062 228.003906 302.695312 228.285156 303.121094 Z M 247.332031 315.222656 C 246.71875 315.527344 244.960938 315.960938 244.332031 315.488281 C 244.113281 315.3125 244.074219 315.328125 244.273438 314.8125 C 244.449219 314.421875 244.679688 314.070312 244.972656 313.757812 C 246.199219 312.4375 247.636719 311.425781 249.289062 310.722656 C 249.402344 312.394531 248.945312 314.421875 247.332031 315.21875 Z M 296.226562 356.671875 L 296.121094 356.847656 C 293.808594 355.707031 291.484375 354.59375 289.117188 353.574219 C 286.753906 352.558594 284.414062 351.511719 282.019531 350.574219 C 277.246094 348.675781 272.445312 346.890625 267.523438 345.417969 C 257.753906 342.394531 247.75 339.917969 237.535156 339.261719 C 227.320312 338.605469 216.964844 339.742188 207.449219 343.523438 C 202.699219 345.496094 198.300781 348.078125 194.253906 351.261719 L 191.308594 353.761719 C 190.351562 354.617188 189.503906 355.589844 188.589844 356.496094 L 187.851562 357.230469 C 190.003906 355.640625 192.289062 354.273438 194.710938 353.132812 C 198.242188 351.488281 201.875 350.109375 205.605469 348.992188 C 209.339844 347.875 213.132812 347.03125 216.988281 346.464844 C 220.839844 345.894531 224.714844 345.609375 228.609375 345.601562 C 232.507812 345.597656 236.382812 345.871094 240.238281 346.425781 L 240.089844 347.449219 C 236.285156 346.902344 232.460938 346.632812 228.617188 346.640625 C 224.773438 346.648438 220.949219 346.933594 217.144531 347.492188 C 213.34375 348.054688 209.601562 348.886719 205.917969 349.992188 C 202.234375 351.097656 198.652344 352.460938 195.167969 354.085938 C 193.546875 354.820312 188.796875 357.238281 185.851562 360.410156 C 192.699219 357.152344 199.804688 354.613281 207.164062 352.789062 C 215.636719 350.761719 224.230469 349.679688 232.941406 349.535156 C 241.636719 349.328125 250.296875 349.816406 258.914062 351.011719 C 267.496094 352.257812 276 353.835938 284.417969 355.855469 L 284.417969 356.058594 C 275.804688 355.203125 267.265625 353.929688 258.703125 353.058594 C 250.136719 352.191406 241.585938 351.230469 232.992188 351.21875 C 224.367188 351.15625 215.839844 352.027344 207.40625 353.828125 C 199.804688 355.453125 192.453125 357.84375 185.347656 361.007812 C 184.929688 361.476562 184.558594 361.980469 184.230469 362.515625 L 183.78125 362.265625 L 183.632812 362.761719 C 165.707031 357.496094 143.945312 355.890625 122.367188 358.257812 L 122.253906 357.226562 C 142.78125 355.011719 163.460938 356.304688 180.914062 360.910156 C 177.367188 359.082031 173.652344 357.691406 169.773438 356.738281 C 165.175781 355.6875 160.535156 354.910156 155.847656 354.410156 C 153.496094 354.078125 151.140625 353.761719 148.796875 353.496094 C 146.457031 353.230469 144.105469 352.980469 141.757812 352.757812 C 137.042969 352.375 132.324219 352.09375 127.585938 352.101562 C 122.851562 352.109375 118.125 352.285156 113.410156 352.726562 C 111.046875 352.898438 108.699219 353.230469 106.339844 353.464844 C 103.984375 353.703125 101.648438 354.113281 99.320312 354.5625 C 89.945312 356.164062 80.777344 358.570312 71.820312 361.78125 L 71.75 361.589844 C 80.640625 358.085938 89.765625 355.382812 99.128906 353.480469 C 101.464844 352.972656 103.828125 352.640625 106.179688 352.21875 C 108.527344 351.800781 110.898438 351.527344 113.277344 351.304688 C 118.019531 350.753906 122.792969 350.488281 127.574219 350.363281 C 132.351562 350.238281 137.148438 350.363281 141.914062 350.628906 C 144.296875 350.847656 146.683594 350.980469 149.054688 351.304688 C 151.425781 351.628906 153.792969 351.945312 156.148438 352.300781 C 160.882812 353.007812 165.546875 354.039062 170.140625 355.390625 C 172.445312 356.132812 174.6875 357.035156 176.867188 358.09375 C 178.746094 359.035156 180.542969 360.121094 182.25 361.351562 L 183.050781 361.574219 L 181.296875 359.363281 L 180.097656 357.886719 L 178.773438 356.515625 C 177.875 355.617188 177.027344 354.667969 176.097656 353.804688 L 173.203125 351.328125 C 169.226562 348.148438 164.890625 345.570312 160.199219 343.589844 C 155.496094 341.6875 150.636719 340.378906 145.617188 339.667969 C 140.582031 338.996094 135.53125 338.847656 130.46875 339.226562 C 120.355469 339.851562 110.472656 342.34375 100.824219 345.363281 C 95.976562 346.839844 91.25 348.636719 86.515625 350.523438 C 84.152344 351.460938 81.824219 352.484375 79.503906 353.53125 C 77.183594 354.578125 74.878906 355.667969 72.601562 356.820312 L 72.5 356.640625 C 76.816406 353.871094 81.304688 351.40625 85.960938 349.25 C 90.609375 347.058594 95.355469 345.117188 100.207031 343.425781 C 109.988281 340.015625 120.054688 338.070312 130.402344 337.59375 C 135.5625 337.328125 140.695312 337.59375 145.800781 338.390625 C 150.910156 339.210938 155.847656 340.636719 160.609375 342.667969 C 165.324219 344.800781 169.652344 347.539062 173.601562 350.878906 L 176.460938 353.457031 C 177.378906 354.351562 178.207031 355.335938 179.082031 356.265625 L 180.378906 357.683594 L 181.550781 359.207031 L 183.390625 361.625 L 183.65625 361.5 C 183.597656 359.980469 183.566406 358.476562 183.523438 356.960938 L 183.484375 351.617188 C 183.484375 348.046875 183.523438 344.488281 183.589844 340.925781 C 183.730469 333.800781 184.238281 326.695312 184.628906 319.550781 L 185.769531 298.175781 L 187.019531 276.84375 L 187.226562 276.84375 L 186.808594 298.21875 L 186.277344 319.59375 C 186.117188 326.714844 186.0625 333.84375 185.652344 340.972656 C 185.4375 344.523438 185.222656 348.085938 184.914062 351.628906 L 184.457031 356.960938 C 184.3125 358.292969 184.179688 359.621094 184.03125 360.953125 C 184.683594 360.074219 185.421875 359.265625 186.242188 358.535156 C 186.476562 358.226562 186.703125 357.910156 186.976562 357.609375 L 188.289062 356.183594 C 189.179688 355.242188 190.003906 354.238281 190.953125 353.355469 L 193.839844 350.753906 C 197.871094 347.414062 202.277344 344.683594 207.0625 342.554688 C 216.636719 338.503906 227.253906 337.050781 237.632812 337.59375 C 248.097656 338.085938 258.28125 340.035156 268.1875 343.441406 C 278.046875 346.757812 287.394531 351.164062 296.226562 356.664062 Z M 250.019531 347.996094 L 250.21875 346.980469 L 262.179688 349.308594 L 261.980469 350.324219 Z M 112.925781 357.800781 L 113.050781 358.824219 L 110.582031 359.125 L 105.957031 359.6875 C 105.816406 359.6875 105.449219 359.738281 105.007812 359.773438 C 104.433594 359.828125 103.4375 359.914062 103.046875 359.964844 L 103.046875 360.03125 C 102.796875 360.03125 102.269531 360.03125 102.246094 359.515625 C 102.222656 359 102.246094 358.988281 104.917969 358.742188 L 105.832031 358.664062 L 110.449219 358.09375 Z M 197.53125 271.640625 C 193.914062 273.089844 190.449219 274.839844 187.132812 276.878906 C 190.121094 274.28125 193.375 272.070312 196.890625 270.246094 C 204.007812 266.492188 211.574219 264.214844 219.582031 263.421875 C 223.578125 263.042969 227.570312 263.070312 231.5625 263.5 C 239.589844 264.40625 247.152344 266.789062 254.253906 270.644531 C 261.257812 274.410156 267.507812 279.171875 273.003906 284.921875 C 266.820312 280.191406 260.214844 276.152344 253.1875 272.804688 C 251.460938 271.941406 249.644531 271.328125 247.882812 270.59375 C 246.992188 270.261719 246.078125 269.972656 245.171875 269.65625 L 243.816406 269.199219 L 242.433594 268.816406 C 238.769531 267.730469 235.035156 266.992188 231.230469 266.605469 C 227.4375 266.15625 223.632812 266.078125 219.824219 266.371094 C 216.011719 266.632812 212.25 267.203125 208.535156 268.085938 C 204.773438 268.984375 201.105469 270.167969 197.53125 271.640625 Z M 197.53125 271.640625 " fill-opacity="1" fill-rule="nonzero"/><g clip-path="url(#9b8fb79b7f)"><path fill="#000000" d="M 315.019531 81.9375 C 316.007812 78.988281 315.519531 75.789062 314.96875 72.738281 C 313.304688 63.578125 311.050781 54.394531 306.59375 46.203125 C 302.140625 38.015625 295.253906 30.878906 286.519531 27.6875 C 283.101562 26.445312 279.574219 25.90625 275.941406 26.066406 C 277.351562 24.894531 278.742188 23.714844 280.117188 22.503906 C 282.960938 20.015625 285.839844 17.265625 286.953125 13.660156 C 287.246094 12.933594 287.273438 12.195312 287.042969 11.449219 C 286.347656 9.730469 283.859375 9.910156 282.121094 10.558594 C 276.628906 12.613281 269.867188 17.023438 267.710938 22.734375 C 268.871094 13.394531 264.136719 3.929688 254.828125 0.847656 C 254.300781 0.636719 253.75 0.566406 253.1875 0.636719 C 252.382812 0.898438 251.800781 1.414062 251.441406 2.175781 C 249.164062 6.171875 250.703125 11.316406 253.3125 15.121094 C 255.0625 17.683594 257.238281 19.957031 259.136719 22.410156 C 250.378906 18.398438 241.242188 15.644531 231.726562 14.152344 C 217.953125 12.023438 203.554688 12.722656 190.484375 17.640625 C 177.410156 22.558594 165.839844 31.910156 159.550781 44.351562 C 155.226562 52.875 153.496094 62.433594 151.808594 71.839844 L 192.316406 58.910156 C 197.097656 57.386719 202.242188 55.59375 205.050781 51.421875 C 203.570312 54.753906 201.71875 57.863281 199.488281 60.746094 C 197.257812 63.632812 194.71875 66.207031 191.867188 68.480469 C 211.574219 70.765625 231.953125 65.664062 248.53125 54.8125 C 248.292969 60.25 248.746094 65.628906 249.902344 70.949219 C 252.367188 83.414062 257.597656 96.394531 268.488281 102.910156 C 269.347656 99.878906 270.207031 96.851562 271.058594 93.828125 C 271.332031 103.054688 272.242188 112.21875 273.792969 121.320312 C 275.078125 121.375 276.363281 121.34375 277.644531 121.226562 C 278.925781 121.109375 280.191406 120.90625 281.445312 120.617188 C 282.699219 120.328125 283.929688 119.957031 285.132812 119.5 C 286.335938 119.046875 287.503906 118.515625 288.636719 117.902344 C 289.769531 117.292969 290.859375 116.609375 291.898438 115.851562 C 292.9375 115.09375 293.925781 114.269531 294.855469 113.378906 C 295.785156 112.492188 296.652344 111.542969 297.453125 110.535156 C 298.257812 109.527344 298.988281 108.472656 299.648438 107.367188 C 302.117188 103.121094 303.433594 98.292969 304.222656 93.445312 C 305.121094 87.953125 305.210938 81.777344 301.734375 77.433594 C 302.9375 77.304688 304.144531 77.304688 305.347656 77.4375 C 306.550781 77.566406 307.726562 77.828125 308.875 78.21875 C 310.023438 78.605469 311.113281 79.113281 312.148438 79.742188 C 313.1875 80.371094 314.144531 81.101562 315.019531 81.9375 Z M 315.019531 81.9375 " fill-opacity="1" fill-rule="nonzero"/></g><path fill="#d16a46" d="M 297.199219 288.621094 C 296.402344 289.0625 295.585938 289.464844 294.746094 289.828125 C 293.910156 290.1875 293.058594 290.507812 292.191406 290.785156 C 291.324219 291.0625 290.445312 291.296875 289.554688 291.488281 C 288.664062 291.679688 287.765625 291.824219 286.859375 291.929688 C 285.957031 292.03125 285.046875 292.089844 284.136719 292.101562 C 283.226562 292.117188 282.316406 292.085938 281.410156 292.007812 C 280.5 291.933594 279.597656 291.8125 278.703125 291.648438 C 277.808594 291.484375 276.921875 291.277344 276.046875 291.023438 C 275.171875 290.773438 274.308594 290.476562 273.460938 290.140625 C 272.617188 289.804688 271.789062 289.425781 270.976562 289.007812 C 270.167969 288.589844 269.382812 288.136719 268.617188 287.640625 C 267.851562 287.144531 267.113281 286.613281 266.402344 286.042969 C 265.6875 285.476562 265.003906 284.875 264.351562 284.238281 C 263.699219 283.605469 263.078125 282.9375 262.488281 282.242188 C 261.902344 281.546875 261.347656 280.824219 260.832031 280.074219 C 260.316406 279.320312 259.835938 278.546875 259.394531 277.75 C 257.289062 273.910156 256.140625 269.800781 255.941406 265.425781 L 253.796875 213.878906 C 247.90625 213.578125 241.820312 211.667969 237.816406 207.570312 L 237.484375 207.453125 C 235.347656 206.597656 233.617188 204.984375 232.003906 203.339844 C 227.371094 198.621094 223.070312 192.800781 223.128906 186.1875 C 223.128906 183.238281 224.226562 180.121094 226.695312 178.542969 C 227.210938 178.222656 227.769531 177.996094 228.359375 177.863281 C 228.953125 177.726562 229.554688 177.695312 230.15625 177.761719 C 230.761719 177.828125 231.339844 177.992188 231.890625 178.253906 C 232.441406 178.511719 232.933594 178.855469 233.367188 179.28125 C 233.011719 178.527344 232.757812 177.742188 232.609375 176.925781 C 232.460938 176.105469 232.417969 175.28125 232.488281 174.453125 C 232.558594 173.625 232.734375 172.816406 233.015625 172.035156 C 233.300781 171.253906 233.679688 170.519531 234.15625 169.839844 C 234.730469 169.078125 235.390625 168.40625 236.144531 167.824219 C 236.898438 167.242188 237.714844 166.769531 238.59375 166.410156 C 239.472656 166.046875 240.382812 165.804688 241.328125 165.6875 C 242.273438 165.566406 243.214844 165.574219 244.15625 165.710938 C 245.003906 165.832031 245.824219 166.046875 246.625 166.351562 C 246.320312 162.585938 241.558594 156.261719 240.296875 153.355469 C 238.148438 148.394531 236.460938 143.148438 236.402344 137.691406 C 236.402344 135.0625 236.894531 132.121094 239.015625 130.574219 C 241.136719 129.023438 244.222656 129.453125 246.382812 130.933594 C 248.539062 132.414062 249.980469 134.738281 251.25 137.035156 C 256.398438 146.359375 259.851562 156.273438 261.609375 166.777344 C 267.433594 158.890625 274.144531 151.847656 281.746094 145.660156 C 282.363281 145.015625 283.113281 144.6875 284.007812 144.679688 C 284.664062 144.835938 285.199219 145.179688 285.613281 145.710938 C 286.121094 146.292969 286.578125 146.910156 286.984375 147.5625 C 287.386719 148.21875 287.738281 148.902344 288.027344 149.617188 C 288.320312 150.328125 288.550781 151.0625 288.722656 151.8125 C 288.894531 152.5625 289 153.324219 289.042969 154.09375 C 289.089844 154.863281 289.070312 155.628906 288.988281 156.394531 C 288.902344 157.160156 288.757812 157.914062 288.550781 158.65625 C 288.34375 159.398438 288.074219 160.121094 287.746094 160.816406 C 287.421875 161.515625 287.039062 162.179688 286.601562 162.8125 C 285.28125 164.621094 283.5 166.125 282.585938 168.164062 C 281.15625 171.378906 282.210938 175.078125 282.753906 178.558594 C 283.210938 181.941406 283.359375 185.335938 283.195312 188.746094 C 283.203125 191.488281 282.878906 194.1875 282.234375 196.851562 C 281.820312 198.304688 281.246094 199.691406 280.515625 201.011719 L 308.046875 250.785156 C 308.488281 251.585938 308.886719 252.402344 309.25 253.238281 C 309.609375 254.074219 309.929688 254.925781 310.207031 255.796875 C 310.484375 256.664062 310.71875 257.542969 310.910156 258.433594 C 311.101562 259.328125 311.25 260.226562 311.351562 261.128906 C 311.453125 262.035156 311.511719 262.945312 311.527344 263.855469 C 311.539062 264.769531 311.507812 265.679688 311.433594 266.585938 C 311.359375 267.496094 311.238281 268.398438 311.074219 269.292969 C 310.910156 270.191406 310.703125 271.078125 310.453125 271.953125 C 310.199219 272.828125 309.90625 273.691406 309.570312 274.539062 C 309.234375 275.386719 308.859375 276.214844 308.441406 277.023438 C 308.023438 277.835938 307.566406 278.625 307.074219 279.390625 C 306.578125 280.15625 306.046875 280.894531 305.480469 281.605469 C 304.914062 282.320312 304.3125 283.003906 303.679688 283.660156 C 303.042969 284.3125 302.378906 284.933594 301.683594 285.523438 C 300.988281 286.113281 300.265625 286.664062 299.515625 287.183594 C 298.765625 287.699219 297.996094 288.179688 297.199219 288.621094 Z M 161.847656 144.289062 C 165.257812 140.089844 168.285156 135.488281 169.808594 130.285156 C 170.546875 127.757812 170.839844 124.785156 169.214844 122.722656 C 167.585938 120.660156 164.5 120.238281 162.011719 121.078125 C 159.519531 121.917969 157.519531 123.769531 155.675781 125.640625 C 148.214844 133.238281 142.21875 141.855469 137.691406 151.5 C 134.210938 142.320312 129.644531 133.71875 123.988281 125.699219 C 123.570312 124.910156 122.929688 124.390625 122.070312 124.144531 C 121.398438 124.117188 120.792969 124.304688 120.253906 124.707031 C 119.605469 125.125 119 125.597656 118.433594 126.121094 C 117.867188 126.640625 117.347656 127.207031 116.871094 127.816406 C 116.398438 128.421875 115.980469 129.066406 115.613281 129.746094 C 115.246094 130.421875 114.9375 131.128906 114.6875 131.855469 C 114.4375 132.585938 114.25 133.332031 114.121094 134.089844 C 113.996094 134.851562 113.933594 135.617188 113.933594 136.390625 C 113.933594 137.160156 113.996094 137.925781 114.125 138.6875 C 114.253906 139.449219 114.441406 140.191406 114.691406 140.921875 C 115.480469 143.015625 116.792969 144.9375 117.113281 147.148438 C 117.625 150.636719 115.640625 153.917969 114.167969 157.121094 C 112.816406 160.253906 111.761719 163.484375 111.003906 166.808594 C 110.261719 169.449219 109.84375 172.140625 109.75 174.878906 C 109.753906 176.390625 109.929688 177.882812 110.28125 179.355469 L 70.386719 219.894531 C 67.332031 223.027344 65.121094 226.671875 63.757812 230.832031 C 63.476562 231.699219 63.238281 232.578125 63.042969 233.46875 C 62.847656 234.359375 62.695312 235.257812 62.589844 236.164062 C 62.484375 237.070312 62.421875 237.976562 62.402344 238.886719 C 62.386719 239.800781 62.410156 240.710938 62.484375 241.617188 C 62.554688 242.527344 62.671875 243.429688 62.832031 244.328125 C 62.992188 245.226562 63.195312 246.113281 63.441406 246.988281 C 63.691406 247.867188 63.980469 248.730469 64.3125 249.578125 C 64.644531 250.429688 65.015625 251.257812 65.429688 252.070312 C 65.84375 252.882812 66.296875 253.671875 66.789062 254.441406 C 67.277344 255.207031 67.804688 255.949219 68.371094 256.667969 C 68.933594 257.382812 69.53125 258.070312 70.164062 258.726562 C 70.792969 259.382812 71.457031 260.007812 72.148438 260.597656 C 72.839844 261.191406 73.5625 261.746094 74.308594 262.269531 C 75.054688 262.789062 75.828125 263.273438 76.621094 263.71875 C 77.417969 264.164062 78.230469 264.570312 79.066406 264.933594 C 79.902344 265.300781 80.75 265.625 81.617188 265.90625 C 82.484375 266.1875 83.363281 266.425781 84.25 266.621094 C 85.140625 266.816406 86.039062 266.964844 86.941406 267.074219 C 87.847656 267.179688 88.753906 267.242188 89.664062 267.261719 C 90.574219 267.277344 91.484375 267.25 92.394531 267.179688 C 93.300781 267.109375 94.203125 266.992188 95.101562 266.832031 C 95.996094 266.671875 96.882812 266.46875 97.761719 266.21875 C 98.636719 265.972656 99.5 265.683594 100.347656 265.351562 C 101.195312 265.019531 102.023438 264.644531 102.835938 264.230469 C 103.648438 263.816406 104.4375 263.363281 105.203125 262.871094 C 105.972656 262.382812 106.710938 261.851562 107.429688 261.289062 C 108.144531 260.722656 108.828125 260.125 109.484375 259.496094 C 110.140625 258.863281 110.765625 258.199219 111.359375 257.507812 C 111.949219 256.8125 112.503906 256.09375 113.027344 255.34375 C 113.546875 254.597656 114.03125 253.824219 114.472656 253.03125 C 114.917969 252.234375 115.324219 251.417969 115.6875 250.582031 C 116.054688 249.75 116.378906 248.898438 116.660156 248.03125 L 132.589844 198.960938 C 138.371094 200.265625 144.71875 200.050781 149.675781 197.191406 L 150.027344 197.191406 C 152.3125 196.941406 154.445312 195.859375 156.40625 194.707031 C 162.136719 191.40625 167.84375 186.960938 169.574219 180.578125 C 170.3125 177.746094 170.140625 174.445312 168.195312 172.253906 C 166.570312 170.429688 163.535156 169.898438 161.570312 171.144531 C 162.113281 170.515625 162.570312 169.828125 162.933594 169.078125 C 163.296875 168.332031 163.554688 167.546875 163.710938 166.730469 C 163.867188 165.914062 163.914062 165.089844 163.855469 164.261719 C 163.792969 163.433594 163.625 162.625 163.351562 161.839844 C 163.003906 160.953125 162.542969 160.128906 161.976562 159.367188 C 161.40625 158.601562 160.746094 157.925781 159.996094 157.339844 C 159.246094 156.753906 158.433594 156.277344 157.554688 155.910156 C 156.675781 155.539062 155.765625 155.292969 154.824219 155.167969 C 153.976562 155.0625 153.125 155.046875 152.273438 155.125 C 153.5625 151.550781 159.859375 146.753906 161.847656 144.289062 Z M 161.847656 144.289062 " fill-opacity="1" fill-rule="nonzero"/><path fill="#000000" d="M 153.703125 153.429688 C 153.453125 153.710938 153.222656 153.996094 152.964844 154.292969 C 153.894531 154.101562 154.828125 154.023438 155.773438 154.066406 C 156.71875 154.109375 157.644531 154.269531 158.550781 154.542969 C 159.453125 154.816406 160.3125 155.199219 161.121094 155.691406 C 161.929688 156.179688 162.667969 156.765625 163.328125 157.441406 C 164.027344 158.230469 164.609375 159.101562 165.070312 160.054688 C 165.53125 161.003906 165.851562 162 166.039062 163.039062 C 166.226562 164.078125 166.269531 165.125 166.167969 166.179688 C 166.066406 167.230469 165.824219 168.25 165.441406 169.234375 C 166.183594 169.328125 166.886719 169.539062 167.554688 169.867188 C 169.964844 171.082031 171.105469 173.746094 171.378906 176.300781 C 172.445312 186.347656 162.511719 193.625 154.535156 197.40625 C 149.492188 199.773438 144.054688 201.414062 138.445312 201.453125 C 136.515625 201.464844 134.605469 201.289062 132.714844 200.929688 C 131.757812 204.105469 130.8125 207.289062 129.769531 210.453125 C 128.546875 214.1875 127.316406 217.925781 126.085938 221.664062 C 124.039062 227.957031 121.992188 234.269531 119.722656 240.496094 C 117.625 246.253906 115.164062 252.011719 111.472656 256.949219 C 108.277344 261.222656 104.242188 265.011719 99.34375 267.269531 C 94.042969 269.6875 86.824219 270.777344 81.390625 268.199219 C 80.246094 267.652344 80.753906 265.542969 82.058594 265.71875 C 85.511719 266.183594 88.769531 266.863281 92.265625 266.324219 C 95.28125 265.847656 98.085938 264.808594 100.683594 263.207031 C 110.507812 257.171875 115 245.898438 118.683594 235.566406 C 120.835938 229.5 123.015625 223.445312 125.222656 217.394531 C 126.371094 214.265625 127.515625 211.128906 128.65625 207.992188 C 129.5625 205.507812 130.546875 203.066406 131.519531 200.621094 C 128.566406 199.992188 125.980469 198.65625 123.757812 196.609375 C 122.511719 195.386719 124.097656 193.777344 125.480469 194.398438 C 127.640625 195.449219 129.875 196.292969 132.191406 196.933594 C 134.53125 197.480469 136.902344 197.714844 139.304688 197.632812 C 143.824219 197.382812 148.140625 196.300781 152.246094 194.390625 C 156.03125 192.8125 159.46875 190.671875 162.554688 187.972656 C 165.230469 185.5 167.460938 182.375 167.96875 178.691406 C 168.195312 176.996094 168.0625 175.003906 166.921875 173.589844 C 165.972656 172.449219 164.09375 172.050781 163.019531 173.199219 C 161.546875 174.734375 159.25 172.460938 160.675781 170.863281 C 163.625 167.914062 164 162.636719 161.089844 159.527344 C 158.320312 156.578125 153.886719 156.429688 150.375 157.992188 L 150.226562 158.15625 C 149.9375 158.421875 149.59375 158.535156 149.203125 158.492188 C 148.96875 158.507812 148.757812 158.445312 148.570312 158.304688 C 148.382812 158.167969 148.257812 157.984375 148.203125 157.757812 C 148.074219 157.484375 148.039062 157.199219 148.089844 156.902344 C 148.355469 155.230469 149.84375 153.660156 150.890625 152.382812 C 151.980469 151.089844 153.140625 149.859375 154.375 148.699219 C 156.9375 146.257812 159.707031 144.03125 162.1875 141.503906 C 164.667969 138.976562 166.921875 136.1875 168.078125 132.878906 C 168.652344 131.308594 168.9375 129.6875 168.933594 128.015625 C 168.933594 127.097656 168.796875 126.199219 168.519531 125.324219 C 168.257812 124.492188 168.011719 123.472656 167.675781 122.679688 C 166.691406 122.125 165.640625 121.796875 164.523438 121.6875 C 163.402344 121.578125 162.304688 121.699219 161.238281 122.050781 C 157.8125 123.246094 155.34375 126.320312 153.011719 128.964844 C 150.460938 131.914062 148.03125 134.863281 145.765625 138.039062 C 143.503906 141.144531 141.4375 144.375 139.570312 147.730469 C 138.664062 149.375 137.816406 151.058594 137 152.753906 C 136.277344 154.527344 135.367188 156.199219 134.269531 157.773438 C 134.078125 157.945312 133.855469 158.054688 133.605469 158.101562 C 133.351562 158.144531 133.105469 158.117188 132.867188 158.019531 C 132.632812 157.917969 132.4375 157.765625 132.292969 157.554688 C 132.144531 157.339844 132.066406 157.105469 132.058594 156.851562 C 132.367188 154.367188 133.648438 152.082031 134.820312 149.898438 C 135.992188 147.71875 137.175781 145.707031 138.503906 143.679688 C 140.871094 139.953125 143.429688 136.355469 146.167969 132.894531 C 148.761719 129.492188 151.589844 126.296875 154.652344 123.3125 C 157.378906 120.769531 160.824219 118.632812 164.691406 119.191406 C 165.359375 119.265625 166 119.429688 166.621094 119.691406 C 167.242188 119.949219 167.8125 120.289062 168.332031 120.710938 C 168.855469 121.132812 169.308594 121.617188 169.691406 122.171875 C 170.074219 122.722656 170.371094 123.316406 170.582031 123.953125 C 170.917969 124.644531 171.160156 125.363281 171.320312 126.113281 C 171.695312 127.976562 171.675781 129.832031 171.253906 131.683594 C 170.515625 135.296875 168.484375 138.496094 166.140625 141.269531 C 163.695312 144.214844 160.773438 146.671875 157.980469 149.257812 C 156.476562 150.566406 155.050781 151.957031 153.703125 153.429688 Z M 283.519531 289.925781 C 280.792969 290.035156 278.109375 289.71875 275.480469 288.980469 C 272.847656 288.246094 270.394531 287.125 268.113281 285.613281 C 263.921875 282.71875 261.132812 278.140625 259.511719 273.386719 C 257.574219 267.660156 257.207031 261.59375 257.214844 255.621094 C 257.214844 249.210938 257.480469 242.8125 257.214844 236.398438 C 257.066406 232.667969 256.804688 228.945312 256.425781 225.222656 C 256.152344 222.070312 255.710938 218.941406 255.109375 215.832031 C 257.875 215.886719 260.484375 215.273438 262.9375 213.992188 C 264.09375 213.355469 263.671875 211.144531 262.199219 211.335938 C 260.039062 211.734375 257.859375 211.980469 255.660156 212.074219 C 253.433594 212.0625 251.242188 211.777344 249.082031 211.21875 C 244.953125 210.042969 241.183594 208.144531 237.785156 205.515625 C 231.703125 201.011719 224.667969 193.917969 225.117188 185.730469 C 225.222656 183.828125 225.804688 181.617188 227.328125 180.371094 C 228.566406 179.375 230.640625 179.375 231.429688 180.910156 C 232.46875 182.78125 235.230469 181.128906 234.289062 179.234375 C 232.246094 175.667969 233.308594 170.558594 236.828125 168.3125 C 240.347656 166.0625 244.6875 167.164062 247.691406 169.652344 C 247.730469 169.71875 247.75 169.785156 247.796875 169.851562 C 247.992188 170.183594 248.28125 170.382812 248.664062 170.441406 C 248.886719 170.523438 249.105469 170.523438 249.328125 170.441406 C 249.546875 170.359375 249.714844 170.214844 249.828125 170.007812 C 250.027344 169.777344 250.148438 169.507812 250.179688 169.203125 C 250.34375 167.566406 249.40625 165.753906 248.765625 164.28125 C 248.042969 162.65625 247.21875 161.078125 246.300781 159.554688 C 244.488281 156.519531 242.425781 153.660156 240.71875 150.539062 C 239.007812 147.421875 237.492188 143.863281 237.335938 140.222656 C 237.246094 138.46875 237.488281 136.761719 238.074219 135.105469 C 238.320312 134.414062 238.65625 133.765625 239.074219 133.160156 C 239.53125 132.480469 239.972656 131.625 240.480469 131.007812 C 242.1875 130.515625 243.859375 130.613281 245.496094 131.300781 C 248.566406 132.644531 250.371094 135.804688 251.824219 138.671875 C 255.457031 145.703125 258.300781 153.039062 260.351562 160.683594 C 260.910156 162.894531 261.40625 165.105469 261.824219 167.316406 C 262.246094 169.527344 262.40625 171.738281 263.296875 173.789062 C 263.71875 174.785156 265.507812 174.527344 265.675781 173.480469 C 266.007812 171.269531 265.527344 169.058594 265.074219 166.910156 C 264.617188 164.765625 264.050781 162.488281 263.414062 160.328125 C 262.160156 155.964844 260.660156 151.683594 258.921875 147.488281 C 257.316406 143.4375 255.460938 139.507812 253.347656 135.695312 C 251.585938 132.628906 249.0625 129.445312 245.460938 128.582031 C 242.359375 127.84375 239.148438 128.78125 237.441406 131.457031 C 237.089844 131.863281 236.773438 132.292969 236.488281 132.746094 C 235.617188 134.230469 235.082031 135.828125 234.878906 137.539062 C 234.355469 141.503906 235.386719 145.410156 236.976562 149.023438 C 238.566406 152.632812 240.796875 155.914062 242.867188 159.28125 C 243.898438 160.921875 244.835938 162.609375 245.6875 164.347656 C 245.859375 164.699219 246.011719 165.082031 246.160156 165.414062 C 245.304688 164.972656 244.410156 164.644531 243.472656 164.433594 C 242.53125 164.21875 241.582031 164.128906 240.621094 164.160156 C 239.660156 164.1875 238.71875 164.339844 237.792969 164.613281 C 236.871094 164.882812 235.996094 165.265625 235.171875 165.761719 C 234.3125 166.339844 233.546875 167.023438 232.871094 167.808594 C 232.199219 168.59375 231.640625 169.457031 231.195312 170.394531 C 230.753906 171.328125 230.441406 172.308594 230.261719 173.328125 C 230.082031 174.347656 230.039062 175.375 230.132812 176.40625 C 229.847656 176.359375 229.558594 176.335938 229.265625 176.332031 C 228.140625 176.363281 227.082031 176.648438 226.097656 177.195312 C 225.113281 177.742188 224.308594 178.480469 223.683594 179.421875 C 220.871094 183.320312 221.246094 188.953125 222.945312 193.21875 C 224.832031 197.957031 228.101562 201.976562 231.859375 205.394531 C 235.671875 209.015625 240.011719 211.828125 244.871094 213.828125 C 247.132812 214.722656 249.464844 215.332031 251.875 215.65625 C 252.097656 218.878906 252.515625 222.078125 252.804688 225.289062 C 253.105469 228.671875 253.324219 232.058594 253.457031 235.449219 C 253.738281 242.371094 253.457031 249.269531 253.40625 256.191406 C 253.40625 267.761719 255.34375 280.816406 265.132812 288.351562 C 266.4375 289.332031 267.824219 290.175781 269.292969 290.890625 C 270.761719 291.601562 272.285156 292.167969 273.863281 292.585938 C 275.441406 293.007812 277.042969 293.269531 278.671875 293.378906 C 280.300781 293.488281 281.925781 293.441406 283.542969 293.238281 C 285.523438 292.925781 285.65625 289.898438 283.519531 289.925781 Z M 283.519531 289.925781 " fill-opacity="1" fill-rule="nonzero"/><path fill="#eec51d" d="M 298.042969 130.328125 C 297.640625 128.117188 297.410156 124.675781 294.363281 124.777344 C 293.195312 124.882812 292.035156 125.050781 290.886719 125.28125 L 287.460938 125.804688 C 286.363281 125.972656 285.253906 126.128906 284.175781 126.304688 C 282.859375 126.527344 281.636719 126.726562 280.679688 127.777344 C 280.515625 127.949219 280.394531 128.148438 280.320312 128.371094 C 280.246094 128.597656 280.226562 128.824219 280.257812 129.058594 C 280.289062 129.292969 280.367188 129.511719 280.496094 129.710938 C 280.628906 129.90625 280.792969 130.066406 280.996094 130.1875 C 282.867188 131.308594 285.414062 130.527344 287.433594 130.253906 L 289.125 130.027344 C 288.800781 130.542969 288.484375 131.058594 288.144531 131.5 C 287.238281 132.714844 286.257812 133.863281 285.199219 134.949219 C 283.066406 137.113281 280.746094 139.050781 278.234375 140.757812 C 275.667969 142.507812 273.019531 144.125 270.285156 145.601562 C 268.984375 146.339844 267.65625 146.988281 266.363281 147.726562 C 265.191406 148.386719 263.296875 149.199219 263.011719 150.671875 C 262.945312 150.921875 262.960938 151.167969 263.058594 151.40625 C 263.15625 151.648438 263.3125 151.835938 263.535156 151.96875 C 264.960938 152.65625 266.558594 151.777344 267.894531 151.175781 C 269.367188 150.503906 270.839844 149.753906 272.261719 148.964844 C 275.140625 147.46875 277.925781 145.808594 280.613281 143.988281 C 283.289062 142.175781 285.777344 140.132812 288.074219 137.855469 C 289.144531 136.757812 290.152344 135.597656 291.09375 134.382812 C 292.019531 133.324219 292.859375 132.195312 293.605469 131 C 293.675781 131.382812 293.75 131.738281 293.816406 132.136719 C 294.15625 134.058594 294.332031 136.035156 294.765625 137.929688 C 295.328125 140.367188 299.339844 139.890625 299.1875 137.332031 C 298.941406 134.976562 298.5625 132.640625 298.042969 130.328125 Z M 294.222656 129.304688 C 294.222656 129.304688 294.222656 129.304688 294.179688 129.304688 C 294.132812 129.304688 294.3125 129.28125 294.222656 129.335938 Z M 139.785156 126.644531 C 140.519531 127.792969 141.550781 129.238281 141.160156 130.652344 C 141.09375 130.902344 140.957031 131.101562 140.753906 131.257812 C 140.550781 131.414062 140.320312 131.492188 140.0625 131.492188 C 138.414062 131.347656 137.441406 129.769531 136.519531 128.546875 C 135.601562 127.320312 134.703125 125.980469 133.839844 124.667969 C 132.007812 121.945312 130.335938 119.125 128.832031 116.207031 C 127.339844 113.292969 126.132812 110.261719 125.214844 107.117188 C 124.773438 105.542969 124.4375 103.945312 124.199219 102.328125 C 123.953125 101.109375 123.789062 99.878906 123.707031 98.640625 L 122.832031 99.726562 C 121.652344 101.199219 120.570312 102.796875 119.332031 104.226562 C 117.644531 106.167969 114.441406 103.617188 115.804688 101.5 C 117.152344 99.542969 118.601562 97.664062 120.148438 95.863281 C 121.621094 94.042969 123.347656 91.375 126.042969 92.914062 C 127.003906 93.539062 127.921875 94.226562 128.789062 94.976562 L 131.535156 97.0625 C 132.5 97.800781 133.488281 98.539062 134.4375 99.273438 C 134.894531 99.617188 135.324219 99.988281 135.734375 100.386719 C 136.183594 100.859375 136.46875 101.414062 136.585938 102.054688 C 136.648438 102.285156 136.652344 102.515625 136.609375 102.75 C 136.5625 102.980469 136.464844 103.191406 136.320312 103.382812 C 136.179688 103.570312 136 103.71875 135.789062 103.828125 C 135.578125 103.933594 135.351562 103.988281 135.113281 103.992188 C 133.066406 104.074219 131.308594 102.320312 129.738281 101.167969 L 128.097656 99.960938 C 128.097656 100.566406 128.164062 101.167969 128.242188 101.722656 C 128.476562 103.253906 128.804688 104.765625 129.230469 106.253906 C 130.066406 109.136719 131.167969 111.910156 132.535156 114.578125 C 133.960938 117.363281 135.527344 120.066406 137.234375 122.683594 C 138.066406 123.996094 138.953125 125.289062 139.785156 126.644531 Z M 139.785156 126.644531 " fill-opacity="1" fill-rule="nonzero"/><path fill="#65a1b7" d="M 198.960938 42.554688 C 197.164062 43.375 195.160156 43.785156 193.289062 44.449219 C 191.417969 45.113281 189.472656 45.871094 187.609375 46.660156 C 181.042969 49.570312 174.953125 53.261719 169.335938 57.742188 C 163.722656 62.222656 158.765625 67.34375 154.46875 73.101562 C 153.863281 73.910156 152.488281 73.101562 153.09375 72.296875 C 155.558594 68.902344 158.257812 65.710938 161.191406 62.714844 C 165.074219 58.78125 169.300781 55.265625 173.875 52.164062 C 178.449219 49.0625 183.28125 46.4375 188.367188 44.285156 C 190.019531 43.585938 191.6875 42.9375 193.378906 42.339844 C 195.042969 41.667969 196.761719 41.175781 198.53125 40.867188 C 198.738281 40.867188 198.921875 40.929688 199.082031 41.058594 C 199.242188 41.183594 199.347656 41.347656 199.398438 41.546875 C 199.449219 41.742188 199.433594 41.9375 199.351562 42.125 C 199.269531 42.3125 199.140625 42.457031 198.960938 42.554688 Z M 163.757812 55.085938 C 164.132812 55.078125 164.394531 54.898438 164.539062 54.546875 C 164.683594 54.195312 164.625 53.882812 164.359375 53.613281 C 163.800781 52.941406 164.726562 51.789062 165.097656 51.207031 C 165.71875 50.214844 166.421875 49.285156 167.203125 48.414062 C 168.804688 46.636719 170.601562 45.082031 172.585938 43.75 C 176.578125 41.015625 181.035156 39.214844 185.246094 36.902344 C 186.152344 36.398438 185.539062 34.84375 184.511719 35.199219 C 179.0625 37.097656 174.0625 39.816406 169.5 43.351562 C 167.300781 45.0625 165.410156 47.0625 163.824219 49.351562 C 163.03125 50.335938 162.488281 51.441406 162.1875 52.667969 C 162.011719 53.773438 162.496094 55.003906 163.769531 55.046875 Z M 261.308594 65.109375 C 261.199219 59.214844 261.035156 53.316406 260.867188 47.417969 C 260.851562 47.261719 260.78125 47.132812 260.664062 47.027344 C 260.546875 46.921875 260.410156 46.867188 260.253906 46.867188 C 260.09375 46.867188 259.957031 46.921875 259.839844 47.027344 C 259.722656 47.132812 259.65625 47.261719 259.636719 47.417969 C 259.5625 53.921875 259.496094 60.421875 259.496094 66.921875 C 259.496094 71.347656 259.808594 76.320312 263.628906 79.203125 C 264.367188 79.777344 265.34375 78.519531 264.644531 77.875 C 261.167969 74.679688 261.398438 69.429688 261.308594 65.109375 Z M 266.890625 69.023438 C 266.398438 66.414062 266.242188 63.78125 266.425781 61.128906 C 266.457031 60.925781 266.40625 60.742188 266.28125 60.578125 C 266.15625 60.417969 265.992188 60.320312 265.789062 60.292969 C 265.585938 60.265625 265.402344 60.3125 265.242188 60.4375 C 265.078125 60.5625 264.980469 60.726562 264.953125 60.929688 C 264.628906 62.335938 264.445312 63.761719 264.40625 65.207031 C 264.363281 66.648438 264.46875 68.082031 264.71875 69.507812 C 264.96875 70.929688 265.359375 72.3125 265.890625 73.65625 C 266.417969 75 267.078125 76.277344 267.863281 77.484375 C 268.007812 77.703125 268.207031 77.84375 268.464844 77.902344 C 268.71875 77.960938 268.957031 77.925781 269.183594 77.792969 C 269.410156 77.660156 269.558594 77.46875 269.632812 77.21875 C 269.707031 76.964844 269.683594 76.722656 269.566406 76.492188 C 268.378906 74.109375 267.488281 71.621094 266.890625 69.023438 Z M 295.546875 82.96875 C 294.628906 86.597656 294.074219 90.269531 292.898438 93.828125 C 291.683594 97.457031 290.105469 100.917969 288.160156 104.214844 C 286.257812 107.460938 284.046875 110.484375 281.53125 113.289062 C 280.285156 114.675781 278.96875 116 277.585938 117.253906 C 276.195312 118.519531 274.449219 119.621094 273.226562 121.042969 C 272.5625 121.824219 273.171875 123.46875 274.351562 122.980469 C 276.121094 122.242188 277.660156 120.851562 279.085938 119.605469 C 280.597656 118.289062 282.03125 116.898438 283.390625 115.425781 C 286.105469 112.484375 288.480469 109.289062 290.519531 105.84375 C 292.558594 102.386719 294.21875 98.753906 295.503906 94.949219 C 296.753906 91.261719 297.90625 87.195312 297.84375 83.273438 C 297.832031 82.988281 297.726562 82.742188 297.535156 82.535156 C 297.339844 82.324219 297.105469 82.203125 296.824219 82.164062 C 296.539062 82.128906 296.28125 82.183594 296.039062 82.335938 C 295.800781 82.488281 295.636719 82.699219 295.546875 82.96875 Z M 261.148438 33.539062 C 262.574219 32.617188 261.257812 30.328125 259.808594 31.246094 C 256.527344 33.253906 253.761719 35.8125 251.507812 38.929688 C 249.078125 42.453125 247.824219 46.675781 247.089844 50.855469 C 246.367188 54.960938 246.148438 59.09375 246.433594 63.253906 C 246.703125 67.261719 247.234375 71.613281 248.730469 75.363281 C 250.496094 79.785156 251.832031 84.28125 254.3125 88.425781 C 254.402344 88.578125 254.535156 88.679688 254.707031 88.722656 C 254.882812 88.769531 255.042969 88.746094 255.199219 88.65625 C 255.351562 88.5625 255.453125 88.433594 255.5 88.261719 C 255.542969 88.085938 255.523438 87.921875 255.433594 87.769531 C 253.597656 84.328125 251.75 80.671875 250.753906 76.882812 C 249.828125 73.046875 249.253906 69.160156 249.039062 65.222656 C 248.554688 57.746094 249.039062 49.113281 252.617188 42.371094 C 254.699219 38.691406 257.542969 35.746094 261.148438 33.539062 Z M 261.148438 33.539062 " fill-opacity="1" fill-rule="nonzero"/></svg>