<svg xmlns="http://www.w3.org/2000/svg" xmlns:xlink="http://www.w3.org/1999/xlink" width="500" zoomAndPan="magnify" viewBox="0 0 375 374.999991" height="500" preserveAspectRatio="xMidYMid meet" version="1.0"><defs><clipPath id="aa283fe9b3"><path d="M 147.410156 137.085938 L 193.148438 137.085938 L 193.148438 211.585938 L 147.410156 211.585938 Z M 147.410156 137.085938 " clip-rule="nonzero"/></clipPath><clipPath id="2692311ad7"><path d="M 164.660156 137.085938 L 175.898438 137.085938 C 180.472656 137.085938 184.859375 138.902344 188.09375 142.136719 C 191.328125 145.371094 193.148438 149.757812 193.148438 154.335938 L 193.148438 194.273438 C 193.148438 198.847656 191.328125 203.234375 188.09375 206.46875 C 184.859375 209.703125 180.472656 211.523438 175.898438 211.523438 L 164.660156 211.523438 C 160.085938 211.523438 155.699219 209.703125 152.464844 206.46875 C 149.226562 203.234375 147.410156 198.847656 147.410156 194.273438 L 147.410156 154.335938 C 147.410156 149.757812 149.226562 145.371094 152.464844 142.136719 C 155.699219 138.902344 160.085938 137.085938 164.660156 137.085938 Z M 164.660156 137.085938 " clip-rule="nonzero"/></clipPath><clipPath id="ece5e92109"><path d="M 95 350 L 238 350 L 238 369.550781 L 95 369.550781 Z M 95 350 " clip-rule="nonzero"/></clipPath><clipPath id="a2f8970a9b"><path d="M 238 127 L 314.683594 127 L 314.683594 168 L 238 168 Z M 238 127 " clip-rule="nonzero"/></clipPath></defs><g clip-path="url(#aa283fe9b3)"><g clip-path="url(#2692311ad7)"><path fill="#65a1b7" d="M 147.410156 137.085938 L 193.148438 137.085938 L 193.148438 211.585938 L 147.410156 211.585938 Z M 147.410156 137.085938 " fill-opacity="1" fill-rule="nonzero"/></g></g><g clip-path="url(#ece5e92109)"><path fill="#000000" d="M 176.769531 352.398438 L 181.832031 351.355469 C 225.359375 345.113281 237.292969 367.214844 237.292969 367.214844 C 237.292969 367.214844 178.84375 369.292969 178.0625 369.550781 Z M 155.875 352.398438 L 150.8125 351.355469 C 107.292969 345.113281 95.351562 367.214844 95.351562 367.214844 C 95.351562 367.214844 153.808594 369.292969 154.589844 369.550781 Z M 155.875 352.398438 " fill-opacity="1" fill-rule="nonzero"/></g><path fill="#f8cda2" d="M 180.625 353.238281 C 180.921875 352.503906 181.363281 351.871094 181.949219 351.339844 C 202.933594 348.347656 216.582031 351.960938 225.0625 356.496094 C 218.550781 360.90625 210.046875 361.769531 202.074219 362.332031 C 199.617188 362.605469 197.167969 362.574219 194.722656 362.238281 C 189.140625 361.238281 184.632812 357.242188 180.625 353.238281 Z M 152.050781 353.238281 C 151.75 352.503906 151.304688 351.871094 150.71875 351.339844 C 129.730469 348.347656 116.085938 351.960938 107.601562 356.496094 C 114.117188 360.90625 122.617188 361.769531 130.59375 362.332031 C 133.046875 362.605469 135.5 362.574219 137.945312 362.238281 C 143.53125 361.238281 148.039062 357.242188 152.050781 353.238281 Z M 152.050781 353.238281 " fill-opacity="1" fill-rule="nonzero"/><path fill="#65a1b7" d="M 189.632812 220.707031 C 190.152344 219.796875 190.566406 218.84375 190.886719 217.847656 C 191.046875 217.347656 191.175781 216.839844 191.285156 216.339844 L 191.394531 215.78125 C 191.4375 215.507812 191.464844 215.230469 191.488281 214.949219 L 191.488281 214.585938 L 191.488281 214.753906 C 191.460938 214.855469 191.441406 214.960938 191.429688 215.066406 L 191.386719 215.441406 L 191.34375 215.882812 L 191.253906 216.824219 C 191.152344 218.128906 191.066406 219.519531 190.996094 220.929688 C 190.851562 223.761719 190.742188 226.667969 190.640625 229.570312 C 190.4375 235.363281 190.285156 241.265625 190.15625 247.140625 C 189.898438 258.898438 189.726562 270.679688 189.632812 282.476562 C 189.539062 294.269531 189.503906 306.066406 189.589844 317.832031 C 189.632812 323.722656 189.722656 329.597656 189.859375 335.457031 C 189.929688 338.355469 190.023438 341.308594 190.15625 344.199219 C 190.226562 345.648438 190.300781 347.097656 190.402344 348.488281 C 190.503906 349.875 190.625 351.316406 190.769531 352.382812 L 177.59375 355.910156 C 177.3125 354.835938 177.109375 353.925781 176.957031 353.105469 C 176.804688 352.289062 176.644531 351.46875 176.515625 350.679688 C 176.246094 349.101562 176.023438 347.59375 175.792969 346.074219 C 175.363281 343.054688 174.988281 340.078125 174.632812 337.109375 C 173.910156 331.171875 173.289062 325.261719 172.6875 319.359375 C 171.484375 307.554688 170.386719 295.761719 169.394531 283.976562 C 168.402344 272.191406 167.449219 260.40625 166.542969 248.617188 C 166.113281 242.707031 165.714844 236.78125 165.347656 230.839844 C 165.175781 227.863281 165 224.886719 164.871094 221.851562 C 164.800781 220.335938 164.742188 218.808594 164.699219 217.222656 L 164.699219 212.105469 C 164.699219 211.777344 164.777344 211.453125 164.835938 211.132812 L 164.835938 211.011719 L 164.90625 210.667969 C 164.984375 210.3125 165.078125 209.960938 165.191406 209.613281 C 165.414062 208.914062 165.703125 208.242188 166.050781 207.597656 Z M 143.039062 220.707031 C 142.523438 219.796875 142.105469 218.84375 141.789062 217.847656 C 141.628906 217.351562 141.496094 216.847656 141.390625 216.339844 L 141.28125 215.78125 C 141.238281 215.507812 141.203125 215.230469 141.179688 214.949219 L 141.179688 214.585938 L 141.179688 214.753906 C 141.207031 214.855469 141.222656 214.960938 141.230469 215.066406 L 141.28125 215.441406 L 141.324219 215.882812 L 141.402344 216.824219 C 141.511719 218.128906 141.59375 219.519531 141.664062 220.929688 C 141.816406 223.761719 141.925781 226.667969 142.027344 229.570312 C 142.230469 235.363281 142.382812 241.265625 142.511719 247.140625 C 142.761719 258.898438 142.933594 270.679688 143.023438 282.476562 C 143.117188 294.277344 143.132812 306.0625 143.070312 317.832031 C 143.023438 323.71875 142.953125 329.601562 142.808594 335.457031 C 142.734375 338.355469 142.640625 341.308594 142.511719 344.199219 C 142.4375 345.648438 142.367188 347.097656 142.265625 348.488281 C 142.164062 349.875 142.042969 351.316406 141.890625 352.382812 L 155.074219 355.910156 C 155.355469 354.835938 155.550781 353.925781 155.710938 353.105469 C 155.871094 352.289062 156.015625 351.46875 156.152344 350.679688 C 156.417969 349.101562 156.644531 347.59375 156.875 346.074219 C 157.300781 343.054688 157.679688 340.078125 158.035156 337.109375 C 158.757812 331.171875 159.378906 325.261719 159.980469 319.359375 C 161.179688 307.554688 162.253906 295.765625 163.265625 283.976562 C 164.277344 272.1875 165.21875 260.390625 166.078125 248.574219 C 166.507812 242.664062 166.90625 236.738281 167.265625 230.792969 C 167.449219 227.816406 167.613281 224.84375 167.75 221.808594 C 167.824219 220.292969 167.882812 218.765625 167.917969 217.179688 L 167.917969 212.058594 C 167.917969 211.734375 167.839844 211.410156 167.789062 211.089844 L 167.789062 210.964844 L 167.722656 210.625 C 167.644531 210.269531 167.546875 209.917969 167.433594 209.570312 C 167.214844 208.871094 166.929688 208.199219 166.578125 207.554688 Z M 143.039062 220.707031 " fill-opacity="1" fill-rule="nonzero"/><path fill="#f8cda2" d="M 294.582031 128.644531 C 294.148438 128.644531 293.722656 128.710938 293.308594 128.84375 C 292.890625 128.976562 292.507812 129.167969 292.152344 129.421875 C 291.796875 129.671875 291.488281 129.972656 291.226562 130.320312 C 290.964844 130.667969 290.761719 131.050781 290.617188 131.460938 L 290.507812 131.460938 L 290.507812 131.367188 C 290.507812 131.402344 289.597656 134.371094 285.203125 140.519531 C 284.582031 139.453125 283.859375 138.460938 283.035156 137.542969 C 288.003906 128.46875 289.320312 122.054688 289.386719 121.734375 C 289.449219 121.460938 289.484375 121.183594 289.492188 120.902344 C 289.5 120.621094 289.480469 120.339844 289.433594 120.066406 C 289.386719 119.789062 289.308594 119.519531 289.207031 119.253906 C 289.105469 118.992188 288.976562 118.746094 288.824219 118.507812 C 288.671875 118.273438 288.5 118.054688 288.304688 117.851562 C 288.105469 117.648438 287.890625 117.46875 287.660156 117.3125 C 287.425781 117.152344 287.183594 117.019531 286.921875 116.910156 C 286.664062 116.800781 286.394531 116.722656 286.121094 116.664062 C 285.84375 116.609375 285.566406 116.582031 285.285156 116.585938 C 285.003906 116.585938 284.726562 116.613281 284.449219 116.671875 C 284.175781 116.726562 283.910156 116.8125 283.648438 116.921875 C 283.390625 117.03125 283.148438 117.167969 282.914062 117.328125 C 282.683594 117.488281 282.472656 117.667969 282.277344 117.871094 C 282.082031 118.074219 281.90625 118.292969 281.757812 118.53125 C 281.605469 118.769531 281.480469 119.019531 281.378906 119.28125 C 281.277344 119.542969 281.207031 119.8125 281.160156 120.089844 C 281.160156 120.15625 280.089844 125.269531 276.035156 132.84375 C 275.171875 132.535156 274.289062 132.292969 273.386719 132.121094 C 276.652344 124.429688 277.402344 119.292969 277.445312 119.003906 C 277.484375 118.730469 277.496094 118.457031 277.480469 118.183594 C 277.464844 117.90625 277.421875 117.636719 277.351562 117.371094 C 277.285156 117.101562 277.191406 116.84375 277.070312 116.597656 C 276.949219 116.347656 276.808594 116.113281 276.640625 115.894531 C 276.476562 115.675781 276.289062 115.472656 276.085938 115.289062 C 275.878906 115.105469 275.65625 114.941406 275.421875 114.804688 C 275.183594 114.664062 274.933594 114.546875 274.675781 114.457031 C 274.414062 114.367188 274.148438 114.300781 273.875 114.261719 C 273.601562 114.222656 273.328125 114.210938 273.054688 114.226562 C 272.777344 114.242188 272.507812 114.285156 272.242188 114.355469 C 271.972656 114.421875 271.714844 114.519531 271.46875 114.636719 C 271.21875 114.757812 270.984375 114.898438 270.765625 115.066406 C 270.546875 115.230469 270.34375 115.417969 270.160156 115.621094 C 269.976562 115.828125 269.816406 116.046875 269.675781 116.285156 C 269.535156 116.523438 269.417969 116.773438 269.328125 117.03125 C 269.234375 117.292969 269.171875 117.558594 269.132812 117.832031 C 269.132812 117.902344 268.164062 124.144531 263.699219 133.039062 C 261.90625 133.746094 260.277344 134.730469 258.8125 135.988281 C 258.082031 133.90625 257.546875 131.773438 257.207031 129.59375 C 257.171875 129.242188 257.101562 128.902344 257 128.566406 C 256.894531 128.230469 256.761719 127.90625 256.59375 127.597656 C 256.429688 127.289062 256.234375 127 256.011719 126.730469 C 255.785156 126.460938 255.539062 126.214844 255.269531 125.992188 C 254.996094 125.769531 254.707031 125.578125 254.394531 125.414062 C 254.085938 125.25 253.761719 125.117188 253.425781 125.015625 C 253.089844 124.914062 252.75 124.847656 252.398438 124.8125 C 252.050781 124.78125 251.703125 124.78125 251.351562 124.816406 C 251.003906 124.851562 250.664062 124.921875 250.328125 125.023438 C 249.992188 125.128906 249.671875 125.261719 249.359375 125.429688 C 249.050781 125.59375 248.761719 125.789062 248.492188 126.011719 C 248.222656 126.234375 247.976562 126.484375 247.753906 126.753906 C 247.53125 127.027344 247.339844 127.316406 247.175781 127.625 C 247.011719 127.9375 246.878906 128.257812 246.777344 128.59375 C 246.675781 128.929688 246.609375 129.273438 246.574219 129.625 C 246.542969 129.972656 246.542969 130.320312 246.578125 130.671875 C 246.613281 130.980469 247.402344 138.542969 252.65625 148.730469 C 252.699219 148.8125 252.757812 148.890625 252.808594 148.972656 C 252.792969 150.148438 252.894531 151.316406 253.117188 152.472656 C 253.339844 153.628906 253.675781 154.75 254.125 155.835938 C 254.578125 156.925781 255.132812 157.957031 255.796875 158.929688 C 256.457031 159.90625 257.210938 160.800781 258.054688 161.621094 L 255.007812 166.0625 L 254.535156 166.734375 L 254.304688 167.074219 L 254.101562 167.351562 L 253.285156 168.449219 C 252.726562 169.175781 252.148438 169.898438 251.554688 170.558594 C 250.359375 171.910156 249.078125 173.179688 247.714844 174.359375 C 245.0625 176.664062 242.128906 178.53125 238.917969 179.953125 C 235.707031 181.378906 232.355469 182.300781 228.871094 182.71875 C 228.800781 182.730469 228.730469 182.730469 228.660156 182.71875 L 228.515625 182.71875 C 228.417969 182.710938 228.320312 182.710938 228.226562 182.71875 C 228.039062 182.71875 227.855469 182.644531 227.667969 182.644531 C 227.265625 182.574219 226.878906 182.460938 226.503906 182.304688 C 225.457031 181.867188 224.492188 181.289062 223.609375 180.574219 C 222.425781 179.609375 221.339844 178.542969 220.359375 177.371094 C 219.214844 176.039062 218.164062 174.640625 217.199219 173.171875 C 215.105469 169.976562 213.265625 166.640625 211.675781 163.164062 C 210.84375 161.382812 210.070312 159.542969 209.339844 157.726562 C 208.976562 156.804688 208.613281 155.886719 208.296875 154.96875 L 207.8125 153.605469 L 207.585938 152.9375 C 207.523438 152.742188 207.4375 152.476562 207.414062 152.390625 C 207.261719 151.753906 207.0625 151.128906 206.820312 150.519531 C 206.46875 149.773438 206.050781 149.066406 205.566406 148.398438 C 205.082031 147.730469 204.539062 147.113281 203.9375 146.546875 C 203.335938 145.984375 202.683594 145.480469 201.988281 145.039062 C 201.289062 144.597656 200.558594 144.226562 199.789062 143.925781 C 199.019531 143.625 198.230469 143.398438 197.421875 143.246094 C 196.609375 143.09375 195.792969 143.023438 194.964844 143.027344 C 194.140625 143.03125 193.324219 143.113281 192.515625 143.269531 C 191.703125 143.429688 190.917969 143.664062 190.152344 143.972656 C 189.386719 144.28125 188.660156 144.660156 187.964844 145.109375 C 187.273438 145.558594 186.628906 146.066406 186.03125 146.636719 C 185.433594 147.207031 184.898438 147.828125 184.417969 148.5 C 183.941406 149.175781 183.53125 149.886719 183.1875 150.636719 C 182.84375 151.386719 182.574219 152.164062 182.378906 152.964844 C 182.179688 153.769531 182.0625 154.582031 182.019531 155.40625 C 181.980469 156.230469 182.015625 157.050781 182.128906 157.867188 C 182.246094 158.6875 182.4375 159.484375 182.703125 160.269531 L 183.027344 161.085938 C 183.222656 161.5625 183.332031 161.808594 183.476562 162.121094 L 183.882812 163.011719 L 184.683594 164.714844 C 185.226562 165.828125 185.785156 166.886719 186.347656 168.007812 C 187.484375 170.179688 188.671875 172.355469 189.96875 174.433594 C 192.550781 178.796875 195.445312 182.941406 198.652344 186.867188 C 200.375 188.972656 202.226562 190.960938 204.207031 192.828125 C 206.371094 194.902344 208.714844 196.746094 211.242188 198.359375 C 214.179688 200.234375 217.335938 201.605469 220.714844 202.464844 C 222.574219 202.921875 224.460938 203.175781 226.375 203.234375 C 227.339844 203.261719 228.304688 203.230469 229.269531 203.136719 L 230.714844 202.957031 L 231.4375 202.855469 C 231.652344 202.832031 231.859375 202.792969 232.066406 202.738281 C 237.34375 201.570312 242.332031 199.648438 247.03125 196.976562 C 251.730469 194.304688 255.933594 191 259.636719 187.0625 C 261.421875 185.167969 263.066406 183.164062 264.574219 181.042969 C 265.316406 179.988281 266.027344 178.914062 266.699219 177.820312 L 267.671875 176.171875 L 267.917969 175.757812 L 268.113281 175.394531 L 268.503906 174.671875 L 273.011719 166.300781 C 273.933594 166.148438 274.835938 165.925781 275.722656 165.628906 C 276.605469 165.328125 277.460938 164.960938 278.289062 164.527344 C 279.113281 164.089844 279.898438 163.589844 280.644531 163.023438 C 281.390625 162.460938 282.082031 161.839844 282.726562 161.164062 C 283.371094 160.488281 283.957031 159.761719 284.484375 158.992188 C 285.011719 158.21875 285.472656 157.410156 285.867188 156.5625 C 286.261719 155.714844 286.589844 154.84375 286.84375 153.941406 C 287.097656 153.042969 287.277344 152.128906 287.382812 151.199219 C 287.679688 150.996094 287.945312 150.753906 288.179688 150.476562 C 294.402344 142.734375 296.957031 137.820312 297.992188 135.3125 C 298.445312 134.671875 298.699219 133.957031 298.753906 133.171875 C 298.808594 132.386719 298.65625 131.644531 298.292969 130.945312 C 297.933594 130.246094 297.414062 129.691406 296.742188 129.28125 C 296.070312 128.875 295.339844 128.671875 294.554688 128.671875 Z M 294.582031 128.644531 " fill-opacity="1" fill-rule="nonzero"/><g clip-path="url(#a2f8970a9b)"><path fill="#ed6d45" d="M 270.839844 148.492188 C 270.5625 147.421875 270.109375 146.433594 269.480469 145.523438 C 268.851562 144.617188 268.089844 143.84375 267.1875 143.207031 C 266.273438 142.539062 265.277344 142.042969 264.199219 141.714844 C 263.089844 141.382812 261.945312 141.402344 260.832031 141.140625 C 260.273438 141.019531 259.773438 140.78125 259.328125 140.421875 C 258.882812 140.0625 258.542969 139.621094 258.308594 139.101562 C 257.613281 137.773438 257.035156 136.398438 256.578125 134.972656 C 256.316406 134.097656 257.488281 133.726562 257.96875 134.386719 C 258.871094 135.660156 259.355469 137.28125 260.3125 138.476562 C 261.035156 139.382812 262.722656 139.09375 263.753906 139.265625 C 266.144531 139.710938 268.21875 140.769531 269.980469 142.445312 C 270.867188 143.261719 271.601562 144.195312 272.1875 145.253906 C 272.769531 146.308594 273.167969 147.429688 273.386719 148.617188 C 273.605469 150.054688 273.574219 151.484375 273.292969 152.910156 C 273.171875 153.632812 272.996094 154.316406 272.808594 155.003906 C 272.621094 155.691406 272.46875 156.625 271.816406 157.125 C 271.683594 157.253906 271.527344 157.34375 271.347656 157.390625 C 271.167969 157.4375 270.988281 157.433594 270.808594 157.386719 C 270.628906 157.339844 270.472656 157.253906 270.339844 157.121094 C 270.203125 156.992188 270.113281 156.839844 270.058594 156.660156 C 269.789062 155.84375 270.152344 155.125 270.371094 154.328125 C 270.585938 153.53125 270.738281 152.945312 270.863281 152.242188 C 271.117188 150.992188 271.109375 149.742188 270.839844 148.492188 Z M 278.417969 163.199219 C 277.429688 164 276.339844 164.617188 275.152344 165.058594 C 273.960938 165.5 272.730469 165.734375 271.460938 165.769531 C 270.617188 165.769531 269.546875 165.496094 268.84375 166.082031 C 268.742188 166.183594 268.683594 166.304688 268.667969 166.445312 C 268.648438 166.589844 268.675781 166.71875 268.75 166.84375 C 269.242188 167.71875 270.667969 167.652344 271.542969 167.652344 C 273.050781 167.640625 274.507812 167.363281 275.910156 166.816406 C 277.316406 166.265625 278.578125 165.488281 279.699219 164.476562 C 279.789062 164.390625 279.863281 164.292969 279.914062 164.179688 C 279.964844 164.066406 279.992188 163.949219 279.996094 163.824219 C 280 163.699219 279.980469 163.582031 279.933594 163.464844 C 279.886719 163.347656 279.820312 163.246094 279.730469 163.160156 C 279.640625 163.074219 279.539062 163.003906 279.425781 162.960938 C 279.308594 162.914062 279.1875 162.894531 279.066406 162.898438 C 278.941406 162.902344 278.820312 162.929688 278.710938 162.980469 C 278.597656 163.035156 278.5 163.109375 278.417969 163.199219 Z M 306.457031 127.78125 C 306.402344 127.601562 306.300781 127.457031 306.152344 127.347656 C 306 127.234375 305.832031 127.179688 305.648438 127.179688 C 305.460938 127.179688 305.292969 127.234375 305.140625 127.347656 C 304.992188 127.457031 304.890625 127.601562 304.835938 127.78125 C 304.34375 130.519531 304.554688 133.285156 304.308594 136.042969 C 304.234375 137.078125 304.007812 138.078125 303.621094 139.042969 C 303.164062 139.910156 302.664062 140.75 302.117188 141.5625 C 301.9375 141.886719 301.960938 142.195312 302.1875 142.488281 C 302.410156 142.78125 302.703125 142.882812 303.0625 142.792969 C 305.710938 142.386719 306.5 138.960938 306.769531 136.738281 C 306.894531 135.5 306.929688 134.253906 306.878906 133.011719 C 306.871094 131.257812 306.730469 129.511719 306.449219 127.78125 Z M 312.167969 130.332031 C 311.695312 129.910156 310.71875 130.332031 310.988281 131.011719 C 311.414062 132.058594 311.644531 133.148438 311.683594 134.28125 C 311.71875 135.410156 311.558594 136.511719 311.203125 137.585938 C 310.414062 140.078125 308.59375 142.054688 307.695312 144.480469 C 307.433594 145.203125 308.417969 145.964844 309.019531 145.496094 C 310.210938 144.535156 311.21875 143.414062 312.046875 142.128906 C 312.875 140.84375 313.480469 139.460938 313.859375 137.976562 C 314.511719 135.414062 314.257812 132.183594 312.160156 130.332031 Z M 247.351562 154.472656 C 247.082031 153.832031 246.921875 153.164062 246.875 152.46875 C 246.824219 151.460938 246.886719 150.460938 247.070312 149.46875 C 247.316406 148.339844 247.40625 147.195312 247.335938 146.039062 C 247.277344 145.574219 246.707031 145.199219 246.316406 145.617188 C 245.007812 147.265625 244.320312 149.140625 244.253906 151.246094 C 244.121094 152.984375 244.453125 154.628906 245.246094 156.183594 C 245.644531 157.019531 246.261719 157.640625 247.097656 158.042969 C 247.335938 158.160156 247.585938 158.195312 247.847656 158.140625 C 248.105469 158.089844 248.324219 157.96875 248.5 157.769531 C 248.640625 157.542969 248.703125 157.300781 248.691406 157.035156 C 248.679688 156.769531 248.59375 156.53125 248.4375 156.320312 C 248.042969 155.726562 247.679688 155.109375 247.351562 154.472656 Z M 239.933594 158.601562 Z M 241.84375 157.992188 C 241.816406 157.902344 241.78125 157.8125 241.742188 157.726562 C 241.710938 157.550781 241.671875 157.375 241.621094 157.203125 C 241.582031 157.101562 241.554688 157 241.519531 156.90625 C 241.363281 156.390625 241.234375 155.867188 241.140625 155.335938 L 241.140625 155.175781 C 241.140625 155.03125 241.105469 154.894531 241.097656 154.757812 C 241.097656 154.496094 241.0625 154.234375 241.0625 153.976562 C 241.0625 153.714844 241.0625 153.460938 241.113281 153.199219 C 241.113281 153.0625 241.113281 152.925781 241.113281 152.785156 C 241.113281 152.648438 241.113281 152.65625 241.113281 152.585938 C 241.113281 152.511719 241.113281 152.453125 241.113281 152.519531 C 241.164062 152.304688 241.140625 152.097656 241.042969 151.898438 C 240.945312 151.699219 240.796875 151.558594 240.59375 151.46875 C 240.386719 151.382812 240.179688 151.371094 239.96875 151.441406 C 239.753906 151.507812 239.59375 151.640625 239.476562 151.832031 C 239.339844 152.140625 239.210938 152.453125 239.101562 152.78125 C 239 153.121094 238.933594 153.46875 238.90625 153.824219 C 238.828125 154.429688 238.828125 155.035156 238.90625 155.640625 C 238.96875 156.300781 239.117188 156.941406 239.355469 157.558594 C 239.503906 157.945312 239.703125 158.304688 239.957031 158.632812 L 240.007812 158.695312 C 240.007812 158.753906 240.085938 158.804688 240.128906 158.863281 C 240.285156 159.070312 240.472656 159.246094 240.6875 159.390625 C 241.023438 159.585938 241.34375 159.5625 241.648438 159.328125 C 241.941406 159.085938 242.042969 158.78125 241.953125 158.414062 C 241.933594 158.257812 241.894531 158.105469 241.84375 157.957031 Z M 241.84375 157.992188 " fill-opacity="1" fill-rule="nonzero"/></g><path fill="#000000" d="M 205.445312 160.671875 C 205.445312 159.515625 205.390625 158.363281 205.273438 157.210938 C 205.15625 156.058594 204.980469 154.917969 204.746094 153.785156 C 204.511719 152.648438 204.21875 151.53125 203.871094 150.429688 C 203.523438 149.324219 203.117188 148.242188 202.65625 147.179688 C 202.199219 146.121094 201.683594 145.082031 201.117188 144.074219 C 200.550781 143.066406 199.933594 142.089844 199.269531 141.144531 C 198.601562 140.199219 197.886719 139.289062 197.128906 138.417969 C 196.367188 137.542969 195.566406 136.714844 194.71875 135.921875 C 193.875 135.132812 192.992188 134.390625 192.070312 133.691406 C 191.148438 132.992188 190.191406 132.34375 189.203125 131.742188 C 188.214844 131.140625 187.199219 130.59375 186.152344 130.097656 C 185.109375 129.601562 184.042969 129.160156 182.949219 128.773438 C 181.859375 128.386719 180.753906 128.058594 179.628906 127.785156 C 178.507812 127.511719 177.371094 127.300781 176.226562 127.144531 C 175.078125 126.988281 173.929688 126.890625 172.773438 126.855469 C 171.617188 126.816406 170.460938 126.839844 169.308594 126.917969 C 168.15625 127 167.007812 127.140625 165.871094 127.339844 C 164.730469 127.539062 163.605469 127.796875 162.492188 128.113281 C 161.378906 128.425781 160.285156 128.796875 159.210938 129.226562 C 158.136719 129.652344 157.085938 130.132812 156.0625 130.667969 C 155.035156 131.203125 154.039062 131.792969 153.074219 132.429688 C 152.109375 133.066406 151.179688 133.753906 150.285156 134.484375 C 149.390625 135.21875 148.535156 135.996094 147.722656 136.816406 C 146.90625 137.636719 146.136719 138.5 145.410156 139.398438 C 144.683594 140.300781 144.003906 141.234375 143.375 142.207031 C 142.746094 143.175781 142.164062 144.175781 141.636719 145.207031 C 141.109375 146.234375 140.636719 147.289062 140.214844 148.367188 C 139.796875 149.445312 139.433594 150.542969 139.125 151.660156 C 138.820312 152.773438 138.570312 153.902344 138.378906 155.042969 C 138.1875 156.1875 138.058594 157.335938 137.984375 158.488281 C 137.910156 159.644531 137.898438 160.800781 137.941406 161.957031 C 137.988281 163.113281 138.09375 164.265625 138.257812 165.410156 L 137.578125 165.460938 L 141.5625 232.683594 L 189.632812 235.90625 L 202.09375 175.402344 C 204.339844 170.75 205.457031 165.839844 205.445312 160.671875 Z M 205.445312 160.671875 " fill-opacity="1" fill-rule="nonzero"/><path fill="#f8cda2" d="M 156.652344 158.042969 C 156.375 158.277344 156.085938 158.5 155.789062 158.71875 L 155.347656 159.035156 L 154.9375 159.3125 L 154.328125 159.675781 L 154.0625 159.824219 L 153.582031 160.070312 C 153.25 160.238281 152.980469 160.363281 152.78125 160.457031 L 151.652344 160.933594 L 149.785156 161.65625 L 146.304688 163.027344 C 144.03125 163.925781 141.796875 164.824219 139.582031 165.757812 C 135.160156 167.617188 130.832031 169.574219 126.707031 171.671875 C 122.730469 173.652344 118.914062 175.90625 115.257812 178.429688 C 113.726562 179.515625 112.28125 180.703125 110.917969 181.992188 C 110.40625 182.480469 109.925781 182.992188 109.46875 183.535156 L 109.210938 183.855469 L 109.101562 183.984375 L 109.058594 183.984375 L 108.90625 184.0625 C 108.753906 184.144531 108.558594 184.0625 108.5 184.382812 C 108.441406 184.703125 108.667969 185.332031 109.457031 186.105469 C 110.519531 187.082031 111.722656 187.828125 113.074219 188.335938 C 114.808594 189.042969 116.601562 189.546875 118.449219 189.84375 C 122.757812 190.511719 127.085938 190.644531 131.425781 190.234375 C 136.101562 189.835938 140.730469 189.113281 145.304688 188.0625 L 145.363281 188.0625 C 145.824219 187.953125 146.289062 187.890625 146.761719 187.871094 C 147.234375 187.851562 147.703125 187.878906 148.171875 187.949219 C 148.640625 188.019531 149.097656 188.136719 149.542969 188.292969 C 149.988281 188.453125 150.414062 188.648438 150.824219 188.890625 C 151.230469 189.128906 151.613281 189.40625 151.96875 189.71875 C 152.324219 190.027344 152.648438 190.371094 152.9375 190.746094 C 153.226562 191.121094 153.480469 191.515625 153.695312 191.941406 C 153.910156 192.363281 154.082031 192.800781 154.210938 193.253906 C 154.34375 193.710938 154.429688 194.171875 154.472656 194.644531 C 154.515625 195.117188 154.511719 195.585938 154.464844 196.058594 C 154.417969 196.527344 154.328125 196.992188 154.195312 197.445312 C 154.058594 197.898438 153.882812 198.335938 153.664062 198.753906 C 153.445312 199.175781 153.191406 199.570312 152.894531 199.941406 C 152.601562 200.3125 152.277344 200.652344 151.917969 200.960938 C 151.558594 201.269531 151.175781 201.542969 150.765625 201.777344 C 150.355469 202.015625 149.925781 202.210938 149.480469 202.363281 C 144.367188 204.199219 139.148438 205.667969 133.828125 206.765625 C 128.152344 207.960938 122.421875 208.441406 116.628906 208.214844 C 113.441406 208.070312 110.304688 207.585938 107.21875 206.765625 C 103.621094 205.855469 100.289062 204.359375 97.21875 202.269531 C 95.394531 201.019531 93.773438 199.546875 92.355469 197.851562 C 90.9375 196.152344 89.777344 194.296875 88.875 192.277344 C 87.878906 190 87.289062 187.625 87.101562 185.148438 C 86.925781 182.644531 87.167969 180.179688 87.828125 177.757812 C 88.148438 176.574219 88.558594 175.425781 89.058594 174.308594 L 89.441406 173.492188 L 89.789062 172.804688 C 90.027344 172.339844 90.265625 171.914062 90.511719 171.492188 C 91.417969 169.910156 92.429688 168.402344 93.550781 166.964844 C 95.539062 164.484375 97.707031 162.179688 100.0625 160.042969 C 104.308594 156.246094 108.804688 152.78125 113.558594 149.644531 C 118.109375 146.582031 122.707031 143.800781 127.308594 141.171875 C 129.617188 139.851562 131.933594 138.578125 134.226562 137.332031 L 137.691406 135.507812 L 139.253906 134.652344 C 139.480469 134.523438 139.71875 134.394531 139.832031 134.3125 C 139.949219 134.234375 139.921875 134.25 139.832031 134.261719 L 139.726562 134.3125 L 139.5 134.4375 L 139.097656 134.675781 L 138.734375 134.914062 L 138.335938 135.195312 C 138.074219 135.394531 137.835938 135.597656 137.613281 135.804688 C 138.347656 135.214844 139.128906 134.703125 139.964844 134.261719 C 140.796875 133.824219 141.664062 133.46875 142.566406 133.199219 C 143.46875 132.929688 144.386719 132.746094 145.324219 132.652344 C 146.261719 132.558594 147.199219 132.558594 148.136719 132.644531 C 149.074219 132.734375 149.992188 132.910156 150.894531 133.175781 C 151.800781 133.441406 152.667969 133.789062 153.503906 134.222656 C 154.339844 134.65625 155.128906 135.164062 155.867188 135.75 C 156.605469 136.335938 157.277344 136.984375 157.890625 137.699219 C 158.503906 138.414062 159.042969 139.183594 159.507812 140.003906 C 159.972656 140.820312 160.351562 141.679688 160.652344 142.570312 C 160.953125 143.464844 161.164062 144.378906 161.289062 145.3125 C 161.410156 146.246094 161.445312 147.183594 161.386719 148.125 C 161.328125 149.0625 161.183594 149.988281 160.945312 150.902344 C 160.710938 151.8125 160.390625 152.695312 159.984375 153.546875 C 159.578125 154.394531 159.09375 155.199219 158.535156 155.957031 C 157.972656 156.710938 157.347656 157.410156 156.652344 158.042969 Z M 156.652344 158.042969 " fill-opacity="1" fill-rule="nonzero"/><path fill="#65a1b7" d="M 166.558594 141.851562 C 168.410156 144.394531 171.625 146.039062 174.71875 145.566406 C 177.816406 145.097656 180.507812 142.242188 180.421875 139.101562 C 179.867188 142.105469 182.027344 145.25 184.9375 146.167969 C 185.675781 146.371094 186.429688 146.46875 187.195312 146.460938 C 187.964844 146.457031 188.714844 146.347656 189.449219 146.132812 C 190.1875 145.921875 190.882812 145.613281 191.535156 145.210938 C 192.183594 144.804688 192.769531 144.320312 193.289062 143.757812 C 194.308594 142.59375 195.070312 141.285156 195.570312 139.820312 C 196.070312 138.359375 196.277344 136.855469 196.183594 135.3125 C 196.183594 134.742188 196.085938 134.191406 195.894531 133.65625 C 195.605469 133.042969 195.210938 132.507812 194.714844 132.046875 C 189.191406 126.390625 179.179688 121.785156 171.109375 123.746094 C 163.640625 125.558594 162.492188 136.269531 166.558594 141.851562 Z M 166.558594 141.851562 " fill-opacity="1" fill-rule="nonzero"/><path fill="#ed6d45" d="M 189.640625 127.484375 C 189.640625 127.1875 189.675781 126.890625 189.675781 126.585938 C 189.675781 126.28125 189.675781 125.984375 189.640625 125.6875 L 189.640625 106.796875 L 171.339844 106.796875 L 171.339844 127.609375 C 171.730469 133.953125 175.683594 138.941406 180.472656 138.941406 C 185.261719 138.941406 189.214844 133.953125 189.597656 127.609375 Z M 189.640625 127.484375 " fill-opacity="1" fill-rule="nonzero"/><path fill="#498463" d="M 137.179688 222.960938 L 188.789062 226.226562 L 190.082031 156.074219 L 138.472656 152.816406 C 135.125 153.582031 132.683594 157.269531 132.183594 161.070312 C 132.097656 161.742188 132.078125 162.417969 132.121094 163.09375 L 129.882812 228.941406 L 185.105469 232.4375 L 185.148438 229.953125 C 185.101562 230.007812 185.0625 230.0625 185.023438 230.121094 C 184.820312 230.433594 184.632812 230.75 184.460938 231.085938 L 184.742188 231.085938 L 184.453125 231.085938 L 130.117188 227.722656 C 130.917969 219.546875 137.179688 222.960938 137.179688 222.960938 Z M 137.179688 222.960938 " fill-opacity="1" fill-rule="nonzero"/><path fill="#f8cda2" d="M 184.453125 231.121094 L 184.734375 231.121094 Z M 187.347656 228.621094 L 186.378906 228.101562 C 186.3125 228.070312 186.261719 228.023438 186.226562 227.964844 C 186.199219 227.890625 186.199219 227.816406 186.226562 227.746094 L 186.949219 226.109375 L 137.121094 222.960938 C 137.121094 222.960938 130.859375 219.546875 130.066406 227.746094 L 184.402344 231.105469 C 184.574219 230.773438 184.765625 230.453125 184.96875 230.144531 C 185.042969 230.007812 185.144531 229.902344 185.269531 229.816406 C 185.640625 229.601562 186.140625 229.941406 186.515625 229.75 L 185.699219 229.027344 C 186.265625 228.957031 186.820312 228.824219 187.355469 228.621094 Z M 187.347656 228.621094 " fill-opacity="1" fill-rule="nonzero"/><path fill="#000000" d="M 137.179688 222.960938 C 136.808594 217.109375 136.671875 211.257812 136.613281 205.40625 C 136.5625 202.507812 136.613281 199.5625 136.613281 196.636719 L 136.714844 187.867188 L 136.933594 179.097656 C 137.054688 176.199219 137.128906 173.253906 137.285156 170.332031 C 137.5625 164.488281 137.921875 158.652344 138.503906 152.816406 C 138.871094 158.667969 139.015625 164.519531 139.074219 170.363281 C 139.125 173.257812 139.074219 176.214844 139.074219 179.140625 L 138.972656 187.910156 L 138.75 196.671875 C 138.625 199.570312 138.554688 202.515625 138.394531 205.441406 C 138.113281 211.285156 137.757812 217.121094 137.179688 222.960938 Z M 137.179688 222.960938 " fill-opacity="1" fill-rule="nonzero"/><path fill="#ed6d45" d="M 179.011719 184.714844 C 179.027344 185.105469 178.984375 185.492188 178.890625 185.878906 C 178.792969 186.265625 178.644531 186.640625 178.441406 187.011719 C 178.238281 187.378906 177.984375 187.730469 177.683594 188.066406 C 177.382812 188.402344 177.035156 188.714844 176.648438 189.003906 C 176.257812 189.292969 175.832031 189.554688 175.371094 189.789062 C 174.910156 190.023438 174.421875 190.222656 173.90625 190.390625 C 173.390625 190.558594 172.859375 190.6875 172.308594 190.785156 C 171.757812 190.878906 171.203125 190.9375 170.636719 190.957031 C 170.074219 190.976562 169.515625 190.960938 168.960938 190.902344 C 168.40625 190.847656 167.863281 190.753906 167.335938 190.621094 C 166.8125 190.492188 166.3125 190.324219 165.835938 190.125 C 165.359375 189.925781 164.914062 189.695312 164.507812 189.433594 C 164.097656 189.171875 163.734375 188.882812 163.40625 188.570312 C 163.082031 188.257812 162.808594 187.921875 162.578125 187.570312 C 162.351562 187.21875 162.175781 186.851562 162.050781 186.472656 C 161.925781 186.09375 161.859375 185.710938 161.84375 185.320312 C 161.832031 184.929688 161.871094 184.539062 161.96875 184.15625 C 162.066406 183.769531 162.214844 183.390625 162.417969 183.023438 C 162.621094 182.65625 162.875 182.300781 163.175781 181.96875 C 163.476562 181.632812 163.824219 181.320312 164.210938 181.027344 C 164.601562 180.738281 165.023438 180.476562 165.484375 180.246094 C 165.945312 180.011719 166.433594 179.8125 166.949219 179.644531 C 167.464844 179.476562 168 179.34375 168.550781 179.246094 C 169.097656 179.152344 169.65625 179.09375 170.21875 179.074219 C 170.785156 179.054688 171.34375 179.074219 171.898438 179.128906 C 172.453125 179.1875 172.996094 179.28125 173.519531 179.410156 C 174.046875 179.542969 174.546875 179.707031 175.023438 179.90625 C 175.5 180.109375 175.941406 180.339844 176.351562 180.601562 C 176.757812 180.863281 177.125 181.148438 177.449219 181.464844 C 177.773438 181.777344 178.050781 182.109375 178.28125 182.460938 C 178.507812 182.816406 178.683594 183.179688 178.808594 183.558594 C 178.929688 183.9375 179 184.324219 179.011719 184.714844 Z M 179.011719 184.714844 " fill-opacity="1" fill-rule="nonzero"/><path fill="#65a1b7" d="M 177.019531 211.609375 L 162.925781 215.066406 L 150.8125 165.605469 C 150.695312 165.140625 150.628906 164.671875 150.605469 164.195312 C 150.582031 163.71875 150.609375 163.242188 150.679688 162.773438 C 150.75 162.300781 150.867188 161.839844 151.03125 161.390625 C 151.195312 160.941406 151.398438 160.515625 151.644531 160.105469 C 151.890625 159.699219 152.175781 159.316406 152.5 158.964844 C 152.820312 158.613281 153.175781 158.296875 153.558594 158.015625 C 153.945312 157.734375 154.355469 157.492188 154.785156 157.289062 C 155.21875 157.089844 155.667969 156.933594 156.128906 156.820312 C 156.59375 156.707031 157.0625 156.636719 157.539062 156.617188 C 158.015625 156.59375 158.488281 156.621094 158.957031 156.691406 C 159.429688 156.761719 159.890625 156.878906 160.335938 157.042969 C 160.785156 157.207031 161.214844 157.410156 161.621094 157.660156 C 162.027344 157.90625 162.40625 158.191406 162.757812 158.511719 C 163.109375 158.835938 163.425781 159.1875 163.707031 159.574219 C 163.988281 159.957031 164.230469 160.367188 164.429688 160.800781 C 164.632812 161.230469 164.789062 161.679688 164.902344 162.144531 Z M 177.019531 211.609375 " fill-opacity="1" fill-rule="nonzero"/><path fill="#ed6d45" d="M 177.238281 213.8125 C 176.972656 214.640625 176.65625 215.445312 176.289062 216.230469 C 175.941406 217.042969 175.753906 217.816406 175.496094 218.613281 L 174.769531 220.980469 L 173.945312 223.363281 C 173.65625 224.167969 173.367188 224.964844 173.035156 225.777344 C 172.367188 225.210938 171.738281 224.640625 171.109375 224.066406 L 169.277344 222.328125 L 167.527344 220.570312 C 166.933594 219.988281 166.40625 219.390625 165.726562 218.824219 C 165.035156 218.296875 164.382812 217.730469 163.765625 217.121094 C 163.25 216.558594 162.980469 215.894531 162.960938 215.128906 C 162.964844 215.109375 162.964844 215.085938 162.960938 215.066406 L 177.027344 211.617188 L 177.027344 211.675781 C 177.359375 212.363281 177.429688 213.074219 177.238281 213.8125 Z M 156.128906 156.820312 C 155.667969 156.933594 155.21875 157.089844 154.785156 157.289062 C 154.355469 157.492188 153.945312 157.734375 153.558594 158.015625 C 153.175781 158.296875 152.820312 158.613281 152.5 158.964844 C 152.175781 159.316406 151.890625 159.699219 151.644531 160.105469 C 151.398438 160.515625 151.195312 160.941406 151.03125 161.390625 C 150.867188 161.839844 150.75 162.300781 150.679688 162.773438 C 150.609375 163.242188 150.582031 163.71875 150.605469 164.195312 C 150.628906 164.671875 150.695312 165.140625 150.8125 165.605469 L 152.164062 171.128906 C 155.71875 169.796875 162.542969 167.742188 166.015625 166.707031 L 164.894531 162.128906 C 164.78125 161.664062 164.625 161.21875 164.421875 160.785156 C 164.222656 160.351562 163.980469 159.945312 163.699219 159.558594 C 163.417969 159.175781 163.101562 158.820312 162.75 158.5 C 162.398438 158.175781 162.019531 157.890625 161.613281 157.644531 C 161.207031 157.398438 160.777344 157.191406 160.332031 157.027344 C 159.882812 156.867188 159.421875 156.75 158.953125 156.675781 C 158.480469 156.605469 158.007812 156.578125 157.53125 156.601562 C 157.054688 156.625 156.585938 156.691406 156.121094 156.804688 Z M 156.128906 156.820312 " fill-opacity="1" fill-rule="nonzero"/><path fill="#000000" d="M 174.8125 220.808594 L 174.757812 220.980469 L 173.929688 223.363281 C 173.640625 224.167969 173.351562 224.964844 173.019531 225.777344 C 172.355469 225.210938 171.722656 224.640625 171.09375 224.066406 L 169.265625 222.328125 L 169.164062 222.226562 Z M 166.324219 167.945312 L 165.835938 165.921875 C 162.824219 166.9375 155.789062 169.167969 151.984375 170.371094 L 152.476562 172.390625 L 161.722656 169.449219 C 163.828125 168.777344 165.292969 168.304688 166.324219 167.949219 Z M 153.011719 174.578125 L 153.511719 176.597656 C 156.042969 175.792969 160.089844 174.519531 163.519531 173.410156 C 165.152344 172.890625 166.414062 172.492188 167.359375 172.164062 L 166.863281 170.144531 C 163.300781 171.332031 156.3125 173.542969 153.011719 174.585938 Z M 153.011719 174.578125 " fill-opacity="1" fill-rule="nonzero"/><path fill="#f8cda2" d="M 181.03125 194.933594 C 179.964844 192.917969 178.515625 191.226562 176.6875 189.863281 C 172.113281 186.148438 166.398438 183.347656 160.535156 183.90625 C 156.816406 184.273438 151.757812 185.578125 148.835938 188.074219 C 147.667969 187.769531 146.496094 187.75 145.320312 188.011719 L 145.261719 188.011719 C 140.6875 189.0625 136.058594 189.785156 131.382812 190.183594 C 129.082031 190.375 126.777344 190.4375 124.472656 190.371094 L 111.292969 207.648438 C 113.035156 207.9375 114.789062 208.125 116.554688 208.214844 C 122.347656 208.441406 128.082031 207.960938 133.753906 206.765625 C 137.523438 206 141.238281 205.035156 144.898438 203.871094 C 145.3125 204.871094 145.871094 205.785156 146.570312 206.613281 C 148.554688 208.960938 151.449219 210.300781 154.3125 211.394531 C 156.714844 212.320312 159.269531 213.140625 161.824219 212.84375 C 164.378906 212.546875 166.890625 210.742188 167.324219 208.199219 L 166.507812 207.636719 C 167.375 208.179688 168.308594 208.566406 169.308594 208.792969 C 170.304688 209.023438 171.3125 209.078125 172.332031 208.960938 C 173.902344 208.773438 175.523438 208.070312 176.289062 206.6875 C 176.441406 206.398438 176.542969 206.09375 176.59375 205.773438 C 176.644531 205.449219 176.644531 205.128906 176.585938 204.808594 C 176.53125 204.488281 176.425781 204.183594 176.269531 203.898438 C 176.113281 203.613281 175.914062 203.359375 175.675781 203.136719 C 176.144531 203.296875 176.625 203.378906 177.121094 203.378906 C 177.617188 203.378906 178.101562 203.300781 178.570312 203.140625 C 179.039062 202.984375 179.46875 202.753906 179.863281 202.453125 C 180.257812 202.152344 180.59375 201.796875 180.871094 201.386719 C 182.117188 199.511719 181.984375 196.96875 181.03125 194.933594 Z M 181.03125 194.933594 " fill-opacity="1" fill-rule="nonzero"/><path fill="#ed6d45" d="M 177.144531 203.78125 C 176.703125 204.574219 175.695312 204.109375 175.261719 203.617188 C 174.828125 203.125 174.539062 202.71875 174.175781 202.296875 C 173.414062 201.441406 172.59375 200.640625 171.71875 199.902344 C 169.902344 198.417969 167.992188 197.097656 166.476562 195.265625 C 166.128906 194.839844 166.601562 194.066406 167.113281 194.441406 C 168.988281 195.816406 171.203125 196.613281 173.054688 198.0625 C 174.019531 198.773438 174.890625 199.578125 175.675781 200.480469 C 176.066406 200.953125 176.441406 201.445312 176.796875 201.929688 C 177.035156 202.179688 177.183594 202.472656 177.246094 202.8125 C 177.308594 203.152344 177.277344 203.480469 177.144531 203.796875 Z M 167.628906 208.292969 C 167.890625 207.128906 166.90625 206.050781 166.179688 205.261719 C 165.34375 204.398438 164.4375 203.617188 163.46875 202.90625 C 162.398438 202.074219 161.296875 201.292969 160.125 200.566406 C 158.953125 199.84375 157.671875 199.171875 156.507812 198.4375 C 156.027344 198.140625 155.441406 198.859375 155.890625 199.234375 C 157.925781 200.953125 159.828125 202.789062 161.96875 204.371094 C 162.882812 205.042969 163.785156 205.714844 164.625 206.460938 C 165.464844 207.207031 166.074219 208.242188 167.050781 208.636719 C 167.183594 208.671875 167.308594 208.65625 167.429688 208.589844 C 167.550781 208.519531 167.628906 208.421875 167.664062 208.289062 Z M 143.785156 200.410156 C 143.402344 201.34375 143.710938 202.523438 143.988281 203.457031 C 144.28125 204.457031 144.691406 205.410156 145.21875 206.308594 C 145.671875 207.117188 146.234375 207.84375 146.902344 208.484375 C 147.265625 208.828125 147.664062 209.121094 148.097656 209.367188 C 148.566406 209.734375 149.097656 209.878906 149.691406 209.792969 L 149.226562 209.792969 C 149.546875 209.867188 149.855469 209.917969 150.183594 209.960938 C 150.730469 210.023438 150.90625 209.28125 150.601562 208.9375 C 150.421875 208.742188 150.246094 208.535156 150.082031 208.324219 L 150.339844 208.945312 C 150.242188 208.4375 150 208.011719 149.617188 207.664062 C 149.355469 207.375 149.105469 207.070312 148.851562 206.765625 L 148.445312 206.289062 C 148.445312 206.289062 148.308594 206.121094 148.394531 206.222656 C 148.320312 206.136719 148.257812 206.035156 148.183594 205.949219 C 147.9375 205.601562 147.691406 205.222656 147.460938 204.90625 C 147.027344 204.179688 146.648438 203.421875 146.324219 202.640625 C 145.933594 201.792969 145.652344 200.75 144.929688 200.097656 C 144.839844 200.019531 144.734375 199.964844 144.617188 199.9375 C 144.5 199.910156 144.386719 199.910156 144.269531 199.941406 C 144.152344 199.972656 144.050781 200.027344 143.960938 200.109375 C 143.875 200.191406 143.808594 200.289062 143.769531 200.402344 Z M 143.785156 200.410156 " fill-opacity="1" fill-rule="nonzero"/><path fill="#65a1b7" d="M 160.125 66.667969 C 160.738281 68.550781 164.9375 80.675781 163.367188 82.007812 C 161.253906 83.808594 158.96875 85.347656 156.507812 86.628906 C 156.585938 86.84375 156.664062 87.054688 156.738281 87.273438 C 157.351562 89.15625 161.542969 101.277344 159.972656 102.609375 C 158.140625 104.164062 156.171875 105.519531 154.066406 106.679688 C 154.226562 107.046875 154.371094 107.402344 154.496094 107.800781 C 155.109375 109.683594 159.300781 121.808594 157.738281 123.140625 C 155.5 125.035156 153.070312 126.644531 150.449219 127.960938 C 150.496094 128.175781 150.519531 128.394531 150.515625 128.613281 C 150.589844 136.113281 151.425781 143.527344 153.019531 150.855469 C 150.847656 150.667969 148.726562 150.910156 146.652344 151.578125 C 145.972656 148.476562 145.691406 145.335938 145.804688 142.164062 C 144.566406 144.847656 143.523438 147.601562 142.679688 150.433594 C 137.28125 149.484375 132.015625 148.046875 126.882812 146.125 C 128.597656 142.117188 130.675781 138.308594 133.113281 134.699219 C 134.558594 132.597656 136.546875 129.722656 138.902344 128.65625 C 139.183594 128.535156 139.480469 128.433594 139.785156 128.332031 L 130.601562 120.777344 C 132.441406 116.40625 134.832031 112.359375 137.773438 108.632812 C 138.496094 107.757812 139.21875 106.902344 139.941406 106.054688 L 132.828125 100.261719 C 134.671875 95.890625 137.0625 91.84375 140 88.117188 C 140.863281 87.023438 141.773438 85.945312 142.699219 84.925781 L 136.246094 79.644531 C 138.085938 75.273438 140.472656 71.226562 143.410156 67.5 C 144.785156 65.765625 146.304688 64.113281 147.75 62.433594 C 148.566406 61.519531 149.464844 60.5625 150.644531 60.261719 C 155.652344 59.136719 158.820312 62.671875 160.125 66.667969 Z M 232.957031 153.835938 C 231.128906 149.574219 228.914062 145.519531 226.316406 141.679688 C 224.808594 139.433594 222.660156 136.371094 220.113281 135.242188 C 219.808594 135.109375 219.496094 134.996094 219.179688 134.898438 L 228.992188 126.882812 C 227.03125 122.230469 224.484375 117.921875 221.359375 113.957031 C 220.632812 113.023438 219.851562 112.109375 219.070312 111.210938 L 226.640625 105.027344 C 224.683594 100.375 222.140625 96.066406 219.015625 92.101562 C 218.085938 90.9375 217.117188 89.8125 216.121094 88.699219 L 222.980469 83.09375 C 221.023438 78.4375 218.480469 74.128906 215.351562 70.167969 C 213.90625 68.320312 212.304688 66.546875 210.722656 64.808594 C 209.851562 63.835938 208.898438 62.824219 207.632812 62.519531 C 202.3125 61.265625 198.949219 65.023438 197.542969 69.277344 C 196.890625 71.289062 192.425781 84.195312 194.097656 85.613281 C 196.359375 87.53125 198.804688 89.167969 201.4375 90.53125 C 201.351562 90.753906 201.269531 90.980469 201.191406 91.210938 C 200.539062 93.21875 196.074219 106.121094 197.746094 107.546875 C 199.6875 109.199219 201.769531 110.648438 203.992188 111.894531 C 203.824219 112.285156 203.671875 112.683594 203.542969 113.082031 C 202.882812 115.09375 198.425781 127.992188 200.089844 129.417969 C 202.484375 131.433594 205.082031 133.136719 207.882812 134.53125 C 207.832031 134.769531 207.808594 135.011719 207.820312 135.253906 C 207.738281 143.246094 206.847656 151.148438 205.148438 158.957031 C 207.453125 158.75 209.710938 158.988281 211.921875 159.679688 C 212.65625 156.363281 212.957031 153.007812 212.828125 149.613281 C 214.144531 152.472656 215.257812 155.40625 216.15625 158.421875 C 221.898438 157.410156 227.496094 155.882812 232.957031 153.835938 Z M 232.957031 153.835938 " fill-opacity="1" fill-rule="nonzero"/><path fill="#000000" d="M 150.59375 126.898438 C 153.042969 125.777344 155.425781 124.523438 157.738281 123.140625 C 155.9375 125.269531 153.839844 127.046875 151.441406 128.46875 C 150.253906 129.203125 149.015625 129.84375 147.730469 130.386719 C 147.085938 130.664062 146.433594 130.902344 145.773438 131.113281 C 145.046875 131.390625 144.296875 131.585938 143.523438 131.691406 C 142.96875 131.726562 142.445312 131.613281 141.953125 131.351562 C 141.585938 131.148438 141.246094 130.90625 140.933594 130.628906 L 139.386719 129.308594 C 138.363281 128.417969 137.34375 127.519531 136.359375 126.585938 C 134.339844 124.75 132.425781 122.804688 130.621094 120.75 C 132.996094 122.105469 135.285156 123.589844 137.488281 125.203125 C 138.605469 125.976562 139.660156 126.804688 140.761719 127.621094 L 142.367188 128.875 C 142.558594 129.050781 142.769531 129.203125 142.996094 129.332031 C 143.121094 129.398438 143.253906 129.421875 143.394531 129.402344 C 143.964844 129.304688 144.523438 129.160156 145.066406 128.960938 C 145.695312 128.773438 146.316406 128.554688 146.941406 128.339844 C 148.15625 127.925781 149.378906 127.425781 150.59375 126.898438 Z M 149.4375 116.976562 C 149.464844 116.957031 149.492188 116.933594 149.515625 116.90625 C 149.535156 116.671875 149.617188 116.464844 149.765625 116.285156 C 149.914062 116.109375 150.101562 115.988281 150.328125 115.925781 C 150.472656 115.886719 150.621094 115.878906 150.769531 115.898438 C 150.921875 115.917969 151.0625 115.964844 151.195312 116.039062 C 151.324219 116.117188 151.4375 116.214844 151.53125 116.332031 C 151.625 116.453125 151.691406 116.585938 151.730469 116.730469 C 151.800781 117.136719 151.75 117.527344 151.582031 117.902344 C 151.410156 118.277344 151.152344 118.574219 150.804688 118.792969 L 150.601562 118.953125 L 150.550781 118.988281 C 150.445312 119.070312 150.34375 119.160156 150.246094 119.25 C 150.042969 119.4375 149.855469 119.632812 149.675781 119.835938 C 149.644531 119.882812 149.613281 119.921875 149.574219 119.960938 L 149.53125 120.027344 L 149.269531 120.4375 C 149.128906 120.671875 149 120.914062 148.886719 121.164062 C 148.703125 121.613281 148.566406 122.078125 148.480469 122.558594 C 148.417969 122.78125 148.300781 122.964844 148.125 123.113281 C 147.953125 123.261719 147.753906 123.351562 147.527344 123.382812 C 147.300781 123.414062 147.082031 123.378906 146.875 123.277344 C 146.671875 123.179688 146.507812 123.03125 146.390625 122.835938 L 143.113281 115.339844 C 143.039062 115.207031 142.992188 115.066406 142.976562 114.917969 C 142.957031 114.769531 142.96875 114.621094 143.003906 114.476562 C 143.042969 114.332031 143.109375 114.195312 143.199219 114.074219 C 143.289062 113.953125 143.394531 113.855469 143.523438 113.777344 C 143.65625 113.699219 143.796875 113.652344 143.945312 113.632812 C 144.097656 113.609375 144.246094 113.621094 144.390625 113.660156 C 144.539062 113.699219 144.671875 113.761719 144.792969 113.855469 C 144.914062 113.945312 145.011719 114.058594 145.085938 114.1875 L 147.316406 119.257812 C 147.382812 119.148438 147.445312 119.035156 147.519531 118.925781 C 148.019531 118.195312 148.632812 117.574219 149.351562 117.054688 Z M 149.523438 117.339844 C 149.511719 117.222656 149.511719 117.105469 149.523438 116.992188 C 149.484375 117.105469 149.484375 117.222656 149.523438 117.339844 Z M 149.117188 107.839844 C 148.503906 108.054688 147.878906 108.273438 147.25 108.460938 C 146.707031 108.660156 146.144531 108.808594 145.574219 108.902344 C 145.433594 108.921875 145.304688 108.894531 145.179688 108.828125 C 144.953125 108.699219 144.742188 108.546875 144.542969 108.375 L 142.945312 107.128906 C 141.867188 106.300781 140.773438 105.476562 139.675781 104.703125 C 137.46875 103.089844 135.179688 101.605469 132.808594 100.25 C 134.609375 102.300781 136.523438 104.246094 138.546875 106.085938 C 139.53125 107.019531 140.550781 107.917969 141.570312 108.808594 L 143.121094 110.125 C 143.429688 110.402344 143.769531 110.644531 144.132812 110.851562 C 144.625 111.113281 145.152344 111.226562 145.710938 111.191406 C 146.480469 111.082031 147.230469 110.890625 147.960938 110.613281 C 148.613281 110.371094 149.269531 110.132812 149.914062 109.886719 C 151.195312 109.332031 152.429688 108.683594 153.613281 107.9375 C 156.015625 106.519531 158.117188 104.742188 159.921875 102.609375 C 157.613281 103.996094 155.234375 105.246094 152.785156 106.367188 C 151.578125 106.898438 150.363281 107.402344 149.117188 107.839844 Z M 151.644531 96.445312 C 151.671875 96.425781 151.699219 96.402344 151.722656 96.375 C 151.738281 96.140625 151.820312 95.9375 151.96875 95.757812 C 152.117188 95.578125 152.300781 95.457031 152.527344 95.398438 C 152.675781 95.351562 152.828125 95.339844 152.984375 95.355469 C 153.136719 95.371094 153.28125 95.417969 153.417969 95.492188 C 153.554688 95.570312 153.671875 95.667969 153.769531 95.792969 C 153.863281 95.914062 153.933594 96.050781 153.972656 96.199219 C 154.042969 96.605469 153.992188 96.996094 153.824219 97.375 C 153.65625 97.75 153.394531 98.046875 153.046875 98.265625 L 152.835938 98.421875 L 152.785156 98.460938 C 152.6875 98.539062 152.585938 98.632812 152.484375 98.71875 C 152.285156 98.90625 152.09375 99.105469 151.917969 99.316406 L 151.816406 99.429688 L 151.773438 99.496094 L 151.511719 99.878906 C 151.367188 100.109375 151.246094 100.355469 151.121094 100.601562 C 150.941406 101.054688 150.804688 101.523438 150.71875 102 C 150.652344 102.222656 150.535156 102.40625 150.363281 102.554688 C 150.1875 102.703125 149.988281 102.792969 149.761719 102.824219 C 149.535156 102.855469 149.320312 102.820312 149.113281 102.71875 C 148.90625 102.621094 148.742188 102.472656 148.625 102.277344 L 145.355469 94.78125 C 145.28125 94.648438 145.238281 94.507812 145.21875 94.359375 C 145.199219 94.210938 145.207031 94.0625 145.246094 93.917969 C 145.285156 93.773438 145.347656 93.640625 145.4375 93.519531 C 145.523438 93.398438 145.632812 93.296875 145.761719 93.21875 C 145.890625 93.140625 146.035156 93.09375 146.183594 93.070312 C 146.335938 93.050781 146.484375 93.058594 146.628906 93.097656 C 146.777344 93.136719 146.914062 93.203125 147.035156 93.292969 C 147.15625 93.386719 147.253906 93.5 147.332031 93.628906 C 148.054688 95.324219 148.777344 97.027344 149.558594 98.699219 C 149.625 98.589844 149.691406 98.472656 149.761719 98.375 C 150.097656 97.890625 150.480469 97.449219 150.914062 97.046875 C 151.128906 96.851562 151.355469 96.667969 151.59375 96.496094 Z M 151.730469 96.808594 C 151.714844 96.691406 151.714844 96.578125 151.730469 96.460938 C 151.695312 96.578125 151.695312 96.691406 151.730469 96.808594 Z M 152.546875 87.234375 C 151.925781 87.453125 151.304688 87.667969 150.679688 87.859375 C 150.136719 88.058594 149.574219 88.207031 149.003906 88.300781 C 148.863281 88.320312 148.734375 88.296875 148.613281 88.226562 C 148.382812 88.097656 148.171875 87.945312 147.976562 87.769531 L 146.375 86.519531 C 145.296875 85.699219 144.203125 84.875 143.105469 84.101562 C 140.902344 82.484375 138.613281 81 136.246094 79.644531 C 138.046875 81.699219 139.957031 83.644531 141.976562 85.484375 C 142.960938 86.417969 143.980469 87.316406 145.007812 88.207031 L 146.550781 89.523438 C 146.863281 89.804688 147.203125 90.042969 147.570312 90.246094 C 148.0625 90.511719 148.585938 90.625 149.140625 90.589844 C 149.910156 90.480469 150.664062 90.289062 151.390625 90.007812 C 152.050781 89.769531 152.707031 89.53125 153.34375 89.285156 C 154.632812 88.738281 155.871094 88.101562 157.0625 87.367188 C 159.464844 85.945312 161.570312 84.167969 163.375 82.035156 C 161.0625 83.421875 158.683594 84.675781 156.230469 85.792969 C 155.007812 86.292969 153.785156 86.792969 152.546875 87.234375 Z M 148.742188 74.199219 C 148.671875 74.070312 148.625 73.929688 148.609375 73.78125 C 148.589844 73.632812 148.601562 73.484375 148.640625 73.339844 C 148.675781 73.195312 148.742188 73.0625 148.828125 72.941406 C 148.917969 72.820312 149.027344 72.722656 149.15625 72.644531 C 149.285156 72.566406 149.425781 72.519531 149.574219 72.5 C 149.726562 72.476562 149.875 72.488281 150.019531 72.527344 C 150.167969 72.566406 150.300781 72.628906 150.421875 72.722656 C 150.542969 72.8125 150.640625 72.925781 150.71875 73.054688 L 152.945312 78.125 L 153.15625 77.792969 C 153.5 77.304688 153.894531 76.859375 154.335938 76.460938 C 154.550781 76.265625 154.785156 76.082031 155.015625 75.910156 L 155.109375 75.84375 L 155.1875 75.773438 C 155.207031 75.546875 155.285156 75.347656 155.425781 75.175781 C 155.5625 75 155.742188 74.878906 155.957031 74.816406 C 156.105469 74.769531 156.257812 74.757812 156.414062 74.773438 C 156.566406 74.792969 156.710938 74.835938 156.847656 74.914062 C 156.984375 74.988281 157.101562 75.085938 157.199219 75.210938 C 157.292969 75.332031 157.363281 75.46875 157.402344 75.621094 C 157.472656 76.027344 157.421875 76.417969 157.25 76.792969 C 157.082031 77.167969 156.820312 77.464844 156.46875 77.683594 L 156.269531 77.84375 L 156.21875 77.84375 C 156.117188 77.921875 156.015625 78.015625 155.914062 78.105469 C 155.714844 78.289062 155.527344 78.484375 155.347656 78.691406 L 155.246094 78.8125 L 155.203125 78.878906 C 155.109375 79 155.023438 79.128906 154.945312 79.261719 C 154.796875 79.492188 154.675781 79.738281 154.550781 79.988281 C 154.371094 80.4375 154.234375 80.90625 154.148438 81.382812 C 154.085938 81.605469 153.964844 81.789062 153.792969 81.9375 C 153.617188 82.085938 153.417969 82.175781 153.191406 82.207031 C 152.964844 82.238281 152.75 82.203125 152.542969 82.101562 C 152.335938 82.003906 152.175781 81.855469 152.054688 81.660156 Z M 155.160156 76.234375 C 155.144531 76.121094 155.144531 76.003906 155.160156 75.886719 C 155.128906 75.992188 155.128906 76.101562 155.160156 76.207031 Z M 221.734375 131.699219 C 220.546875 132.53125 219.417969 133.429688 218.261719 134.292969 L 216.566406 135.59375 C 216.339844 135.78125 216.101562 135.945312 215.84375 136.085938 C 215.699219 136.160156 215.546875 136.1875 215.386719 136.175781 C 214.773438 136.074219 214.167969 135.917969 213.578125 135.710938 C 212.914062 135.5 212.253906 135.261719 211.589844 135.03125 C 210.257812 134.574219 208.96875 134.007812 207.675781 133.453125 C 205.070312 132.25 202.542969 130.902344 200.097656 129.402344 C 202.042969 131.644531 204.292969 133.519531 206.847656 135.023438 C 208.121094 135.789062 209.4375 136.460938 210.800781 137.042969 C 211.480469 137.339844 212.183594 137.585938 212.882812 137.832031 C 213.652344 138.136719 214.441406 138.34375 215.257812 138.457031 C 215.835938 138.496094 216.382812 138.378906 216.894531 138.109375 C 217.277344 137.890625 217.632812 137.640625 217.964844 137.347656 L 219.605469 135.941406 C 220.683594 134.980469 221.777344 134.054688 222.839844 133.046875 C 224.996094 131.097656 227.042969 129.039062 228.984375 126.875 C 226.476562 128.34375 224.054688 129.941406 221.71875 131.671875 Z M 215.628906 121.054688 C 214.460938 123.710938 213.296875 126.363281 212.140625 129.019531 C 212.019531 129.214844 211.855469 129.359375 211.652344 129.457031 C 211.445312 129.554688 211.230469 129.585938 211.003906 129.558594 C 210.78125 129.527344 210.582031 129.4375 210.40625 129.292969 C 210.234375 129.144531 210.113281 128.960938 210.046875 128.746094 C 209.949219 128.207031 209.792969 127.6875 209.578125 127.1875 C 209.351562 126.710938 209.078125 126.269531 208.753906 125.855469 C 208.355469 125.40625 207.914062 125 207.429688 124.644531 C 207.097656 124.421875 206.859375 124.125 206.703125 123.757812 C 206.550781 123.390625 206.511719 123.011719 206.582031 122.617188 C 206.625 122.472656 206.691406 122.339844 206.785156 122.222656 C 206.878906 122.101562 206.992188 122.003906 207.125 121.929688 C 207.257812 121.855469 207.398438 121.808594 207.546875 121.789062 C 207.699219 121.765625 207.847656 121.777344 207.992188 121.8125 C 208.21875 121.878906 208.40625 122 208.554688 122.183594 C 208.703125 122.367188 208.78125 122.578125 208.796875 122.8125 L 208.859375 122.878906 L 208.917969 122.9375 L 209.011719 122.996094 C 209.265625 123.1875 209.507812 123.390625 209.738281 123.609375 C 210.171875 124.015625 210.5625 124.464844 210.902344 124.957031 C 211.003906 125.109375 211.097656 125.269531 211.199219 125.429688 L 213.617188 119.886719 C 213.691406 119.757812 213.792969 119.648438 213.914062 119.554688 C 214.035156 119.464844 214.167969 119.398438 214.316406 119.359375 C 214.464844 119.320312 214.613281 119.3125 214.761719 119.332031 C 214.914062 119.351562 215.054688 119.398438 215.1875 119.476562 C 215.449219 119.640625 215.617188 119.871094 215.699219 120.167969 C 215.78125 120.464844 215.753906 120.75 215.613281 121.023438 Z M 208.804688 122.90625 C 208.8125 123.015625 208.8125 123.125 208.804688 123.234375 C 208.835938 123.113281 208.832031 122.996094 208.789062 122.878906 Z M 208.476562 115.21875 C 209.15625 115.515625 209.859375 115.761719 210.554688 116.007812 C 211.320312 116.308594 212.113281 116.515625 212.929688 116.628906 C 213.507812 116.671875 214.050781 116.554688 214.5625 116.28125 C 214.949219 116.066406 215.304688 115.8125 215.632812 115.519531 L 217.285156 114.117188 C 218.363281 113.152344 219.457031 112.226562 220.519531 111.21875 C 222.671875 109.273438 224.71875 107.214844 226.65625 105.050781 C 224.160156 106.519531 221.75 108.117188 219.417969 109.835938 C 218.238281 110.667969 217.101562 111.558594 215.945312 112.429688 L 214.246094 113.761719 C 214.03125 113.945312 213.800781 114.109375 213.558594 114.253906 C 213.410156 114.324219 213.257812 114.355469 213.09375 114.339844 C 212.480469 114.242188 211.878906 114.085938 211.292969 113.878906 C 210.621094 113.667969 209.960938 113.429688 209.300781 113.195312 C 207.972656 112.742188 206.683594 112.175781 205.386719 111.617188 C 202.765625 110.410156 200.21875 109.050781 197.753906 107.546875 C 199.695312 109.789062 201.941406 111.664062 204.496094 113.167969 C 205.773438 113.933594 207.09375 114.605469 208.464844 115.1875 Z M 212.863281 97.628906 C 213.128906 97.792969 213.300781 98.027344 213.378906 98.328125 C 213.457031 98.628906 213.425781 98.917969 213.273438 99.191406 C 212.117188 101.855469 210.953125 104.511719 209.789062 107.15625 C 209.667969 107.351562 209.503906 107.496094 209.300781 107.59375 C 209.09375 107.691406 208.878906 107.722656 208.652344 107.695312 C 208.429688 107.664062 208.226562 107.578125 208.054688 107.429688 C 207.882812 107.28125 207.761719 107.101562 207.695312 106.882812 C 207.605469 106.34375 207.449219 105.824219 207.234375 105.324219 C 207.003906 104.851562 206.726562 104.40625 206.402344 103.992188 C 206.003906 103.542969 205.566406 103.140625 205.082031 102.785156 C 204.753906 102.558594 204.511719 102.265625 204.355469 101.894531 C 204.203125 101.527344 204.164062 101.148438 204.238281 100.753906 C 204.277344 100.609375 204.34375 100.476562 204.4375 100.355469 C 204.53125 100.238281 204.644531 100.140625 204.773438 100.066406 C 204.90625 99.988281 205.046875 99.941406 205.195312 99.921875 C 205.347656 99.902344 205.496094 99.914062 205.640625 99.953125 C 205.867188 100.015625 206.058594 100.136719 206.207031 100.320312 C 206.355469 100.503906 206.4375 100.714844 206.453125 100.949219 L 206.507812 101.015625 L 206.574219 101.074219 C 206.574219 101.074219 206.574219 101.074219 206.660156 101.132812 C 206.929688 101.320312 207.179688 101.527344 207.421875 101.746094 C 207.855469 102.15625 208.242188 102.605469 208.578125 103.09375 C 208.6875 103.246094 208.78125 103.40625 208.875 103.566406 L 211.285156 97.988281 C 211.363281 97.859375 211.464844 97.75 211.585938 97.664062 C 211.707031 97.574219 211.839844 97.511719 211.988281 97.472656 C 212.132812 97.4375 212.28125 97.429688 212.429688 97.453125 C 212.578125 97.472656 212.71875 97.523438 212.847656 97.597656 Z M 206.4375 101.023438 C 206.449219 101.132812 206.449219 101.242188 206.4375 101.347656 C 206.46875 101.242188 206.46875 101.132812 206.4375 101.023438 Z M 204.808594 93.253906 C 205.488281 93.550781 206.191406 93.796875 206.894531 94.050781 C 207.660156 94.347656 208.453125 94.550781 209.265625 94.664062 C 209.84375 94.707031 210.390625 94.589844 210.902344 94.316406 C 211.285156 94.101562 211.640625 93.847656 211.972656 93.558594 L 213.621094 92.152344 C 214.699219 91.1875 215.792969 90.261719 216.851562 89.253906 C 219.007812 87.308594 221.054688 85.253906 222.992188 83.085938 C 220.496094 84.554688 218.085938 86.148438 215.757812 87.871094 C 214.570312 88.707031 213.441406 89.601562 212.285156 90.464844 L 210.578125 91.796875 C 210.363281 91.984375 210.132812 92.148438 209.890625 92.289062 C 209.746094 92.367188 209.59375 92.394531 209.433594 92.375 C 208.816406 92.28125 208.214844 92.125 207.632812 91.914062 C 206.957031 91.703125 206.300781 91.464844 205.632812 91.234375 C 204.308594 90.777344 203.019531 90.210938 201.71875 89.652344 C 199.113281 88.457031 196.585938 87.109375 194.136719 85.613281 C 196.074219 87.855469 198.324219 89.730469 200.878906 91.234375 C 202.140625 92 203.453125 92.671875 204.808594 93.253906 Z M 200.570312 78.804688 C 200.609375 78.65625 200.679688 78.519531 200.777344 78.398438 C 200.871094 78.277344 200.988281 78.175781 201.125 78.101562 C 201.261719 78.027344 201.40625 77.980469 201.558594 77.964844 C 201.714844 77.945312 201.867188 77.957031 202.015625 78.003906 C 202.246094 78.066406 202.433594 78.1875 202.582031 78.375 C 202.730469 78.558594 202.808594 78.773438 202.820312 79.007812 L 202.882812 79.066406 L 202.949219 79.125 L 203.035156 79.183594 C 203.289062 79.371094 203.53125 79.578125 203.757812 79.796875 C 204.195312 80.203125 204.585938 80.652344 204.925781 81.144531 C 205.03125 81.296875 205.128906 81.464844 205.222656 81.621094 C 206.023438 79.769531 206.832031 77.921875 207.644531 76.074219 C 207.722656 75.945312 207.820312 75.835938 207.941406 75.742188 C 208.0625 75.652344 208.195312 75.585938 208.34375 75.546875 C 208.488281 75.511719 208.636719 75.5 208.785156 75.519531 C 208.9375 75.539062 209.078125 75.585938 209.207031 75.664062 C 209.472656 75.828125 209.644531 76.0625 209.726562 76.367188 C 209.804688 76.671875 209.769531 76.960938 209.621094 77.234375 L 206.132812 85.199219 C 206.011719 85.394531 205.851562 85.539062 205.644531 85.636719 C 205.441406 85.734375 205.222656 85.765625 205 85.738281 C 204.773438 85.707031 204.574219 85.621094 204.402344 85.472656 C 204.226562 85.324219 204.109375 85.144531 204.042969 84.925781 C 203.949219 84.386719 203.792969 83.867188 203.578125 83.367188 C 203.347656 82.894531 203.070312 82.449219 202.746094 82.035156 C 202.347656 81.585938 201.90625 81.1875 201.421875 80.832031 C 201.09375 80.609375 200.855469 80.3125 200.699219 79.945312 C 200.542969 79.578125 200.5 79.199219 200.570312 78.804688 Z M 202.789062 79.09375 C 202.804688 79.203125 202.804688 79.308594 202.789062 79.414062 C 202.835938 79.3125 202.84375 79.207031 202.820312 79.09375 Z M 202.789062 79.09375 " fill-opacity="1" fill-rule="nonzero"/><path fill="#ed6d45" d="M 153.667969 128.714844 C 153.78125 129.0625 153.855469 129.414062 153.898438 129.773438 C 153.941406 130.132812 153.953125 130.496094 153.925781 130.855469 C 153.902344 131.21875 153.84375 131.574219 153.75 131.925781 C 153.660156 132.277344 153.535156 132.613281 153.378906 132.941406 C 153.21875 133.269531 153.035156 133.578125 152.820312 133.871094 C 152.605469 134.160156 152.363281 134.429688 152.097656 134.675781 C 151.832031 134.921875 151.542969 135.140625 151.238281 135.332031 C 150.929688 135.527344 150.605469 135.6875 150.269531 135.816406 C 149.929688 135.949219 149.582031 136.046875 149.226562 136.109375 C 148.871094 136.175781 148.511719 136.207031 148.148438 136.203125 C 147.785156 136.199219 147.425781 136.160156 147.070312 136.089844 C 146.714844 136.019531 146.371094 135.914062 146.035156 135.777344 C 145.699219 135.640625 145.378906 135.472656 145.078125 135.277344 C 144.773438 135.078125 144.488281 134.855469 144.226562 134.601562 C 143.96875 134.351562 143.730469 134.078125 143.523438 133.78125 C 143.3125 133.484375 143.132812 133.171875 142.980469 132.84375 C 142.3125 133.550781 141.515625 134.046875 140.585938 134.335938 C 140.238281 134.445312 139.878906 134.523438 139.515625 134.566406 C 139.152344 134.605469 138.785156 134.613281 138.421875 134.585938 C 138.054688 134.558594 137.695312 134.496094 137.34375 134.398438 C 136.988281 134.300781 136.648438 134.171875 136.316406 134.011719 C 135.988281 133.847656 135.679688 133.65625 135.386719 133.433594 C 135.09375 133.210938 134.824219 132.964844 134.582031 132.691406 C 134.335938 132.417969 134.121094 132.125 133.933594 131.808594 C 133.742188 131.496094 133.585938 131.164062 133.460938 130.820312 C 133.335938 130.476562 133.246094 130.121094 133.1875 129.757812 C 133.128906 129.394531 133.109375 129.03125 133.121094 128.664062 C 133.132812 128.296875 133.179688 127.9375 133.261719 127.578125 C 133.34375 127.21875 133.460938 126.875 133.605469 126.539062 C 133.753906 126.203125 133.933594 125.882812 134.144531 125.582031 C 134.351562 125.28125 134.589844 125.003906 134.851562 124.746094 C 135.113281 124.492188 135.398438 124.261719 135.707031 124.058594 C 136.011719 123.859375 136.335938 123.6875 136.671875 123.546875 C 137.011719 123.410156 137.363281 123.304688 137.722656 123.230469 C 138.082031 123.15625 138.445312 123.121094 138.8125 123.117188 C 139.175781 123.113281 139.542969 123.148438 139.902344 123.214844 C 140.261719 123.28125 140.613281 123.382812 140.953125 123.515625 C 141.296875 123.648438 141.621094 123.816406 141.929688 124.011719 C 142.242188 124.207031 142.527344 124.433594 142.796875 124.683594 C 143.0625 124.9375 143.300781 125.210938 143.515625 125.507812 C 143.730469 125.808594 143.914062 126.121094 144.066406 126.457031 C 144.738281 125.75 145.539062 125.253906 146.46875 124.964844 C 146.828125 124.851562 147.195312 124.773438 147.570312 124.734375 C 147.945312 124.691406 148.320312 124.6875 148.695312 124.722656 C 149.070312 124.753906 149.4375 124.824219 149.800781 124.929688 C 150.164062 125.035156 150.511719 125.175781 150.84375 125.351562 C 151.179688 125.523438 151.492188 125.730469 151.789062 125.964844 C 152.082031 126.199219 152.347656 126.464844 152.589844 126.753906 C 152.832031 127.039062 153.046875 127.351562 153.226562 127.679688 C 153.410156 128.011719 153.554688 128.355469 153.667969 128.714844 Z M 222.046875 129.65625 C 221.695312 129.546875 221.335938 129.46875 220.96875 129.421875 C 220.605469 129.375 220.238281 129.363281 219.871094 129.382812 C 219.5 129.402344 219.136719 129.457031 218.78125 129.542969 C 218.421875 129.628906 218.074219 129.746094 217.738281 129.898438 C 217.398438 130.046875 217.078125 130.226562 216.773438 130.433594 C 216.46875 130.640625 216.1875 130.875 215.921875 131.132812 C 215.660156 131.390625 215.425781 131.671875 215.210938 131.972656 C 215 132.277344 214.820312 132.59375 214.664062 132.929688 C 214.363281 132.617188 214.035156 132.339844 213.675781 132.097656 C 213.316406 131.855469 212.933594 131.652344 212.53125 131.492188 C 212.128906 131.328125 211.714844 131.210938 211.289062 131.136719 C 210.859375 131.066406 210.429688 131.039062 209.996094 131.054688 C 209.5625 131.074219 209.136719 131.136719 208.71875 131.246094 C 208.296875 131.355469 207.894531 131.507812 207.507812 131.703125 C 207.121094 131.898438 206.757812 132.128906 206.417969 132.402344 C 206.082031 132.675781 205.777344 132.980469 205.503906 133.316406 C 205.230469 133.652344 204.996094 134.015625 204.800781 134.402344 C 204.605469 134.789062 204.453125 135.191406 204.339844 135.613281 C 204.230469 136.03125 204.164062 136.460938 204.144531 136.894531 C 204.125 137.324219 204.152344 137.757812 204.226562 138.183594 C 204.296875 138.613281 204.414062 139.027344 204.574219 139.429688 C 204.734375 139.835938 204.933594 140.214844 205.175781 140.578125 C 205.417969 140.9375 205.695312 141.269531 206.003906 141.570312 C 206.316406 141.871094 206.65625 142.136719 207.023438 142.367188 C 207.394531 142.59375 207.78125 142.78125 208.191406 142.929688 C 208.597656 143.074219 209.015625 143.175781 209.445312 143.234375 C 209.875 143.292969 210.308594 143.304688 210.738281 143.269531 C 211.171875 143.234375 211.59375 143.15625 212.011719 143.03125 C 212.425781 142.90625 212.824219 142.738281 213.203125 142.53125 C 213.582031 142.320312 213.9375 142.074219 214.265625 141.789062 C 214.589844 141.503906 214.886719 141.1875 215.144531 140.84375 C 215.40625 140.496094 215.625 140.125 215.808594 139.730469 C 216.128906 140.066406 216.488281 140.363281 216.878906 140.621094 C 217.269531 140.875 217.683594 141.082031 218.121094 141.242188 C 218.558594 141.40625 219.007812 141.515625 219.472656 141.570312 C 219.933594 141.628906 220.398438 141.632812 220.863281 141.585938 C 221.328125 141.535156 221.777344 141.4375 222.21875 141.285156 C 222.660156 141.132812 223.078125 140.929688 223.472656 140.683594 C 223.871094 140.433594 224.230469 140.144531 224.5625 139.8125 C 224.890625 139.484375 225.175781 139.117188 225.421875 138.722656 C 225.667969 138.324219 225.867188 137.90625 226.015625 137.464844 C 226.164062 137.019531 226.265625 136.566406 226.308594 136.101562 C 226.355469 135.640625 226.347656 135.175781 226.289062 134.710938 C 226.230469 134.25 226.117188 133.796875 225.953125 133.359375 C 225.792969 132.921875 225.582031 132.511719 225.324219 132.121094 C 225.066406 131.730469 224.769531 131.375 224.429688 131.054688 C 224.089844 130.734375 223.71875 130.457031 223.316406 130.21875 C 222.914062 129.984375 222.492188 129.796875 222.046875 129.65625 Z M 222.046875 129.65625 " fill-opacity="1" fill-rule="nonzero"/><path fill="#f8cda2" d="M 218.09375 61.941406 C 218.117188 65.96875 217.519531 69.902344 216.308594 73.746094 C 215.09375 77.585938 213.320312 81.148438 210.988281 84.433594 C 207.203125 107.28125 191.082031 123.253906 174.808594 120.171875 C 164.53125 118.222656 156.660156 109.121094 153.097656 96.894531 C 152.289062 95.96875 151.652344 94.476562 151.316406 92.289062 C 149.148438 79.089844 150.339844 66.125 151.476562 58.398438 C 151.6875 55.984375 152.117188 53.613281 152.773438 51.28125 L 152.773438 51.214844 C 157.035156 36.3125 169.726562 25.472656 184.726562 25.472656 C 203.160156 25.472656 218.09375 41.800781 218.09375 61.941406 Z M 218.09375 61.941406 " fill-opacity="1" fill-rule="nonzero"/><path fill="#65a1b7" d="M 214.570312 11.625 C 208.984375 9.320312 196.523438 5.832031 175.4375 8.308594 C 145.304688 11.8125 132.625 65.640625 139.40625 65.734375 C 144.109375 65.800781 177.316406 48.078125 198.019531 37.09375 C 200.191406 49.875 204.902344 64.183594 214.664062 70.710938 C 217.558594 72.621094 219.636719 74.070312 221.175781 75.148438 C 225.445312 74.671875 233.191406 71.644531 234.804688 56.277344 C 236.691406 38.050781 241.9375 13.914062 214.570312 11.625 Z M 214.570312 11.625 " fill-opacity="1" fill-rule="nonzero"/><path fill="#000000" d="M 222.820312 62.894531 L 222.734375 71.015625 L 222.691406 74.976562 C 222.792969 76.257812 222.644531 77.515625 222.25 78.742188 C 221.980469 79.378906 221.125 79.066406 220.929688 78.566406 C 220.816406 78.273438 220.738281 77.96875 220.691406 77.65625 C 219.738281 76.699219 219.246094 75.199219 218.703125 73.96875 C 218.117188 72.519531 217.617188 71.042969 217.203125 69.535156 C 216.371094 66.539062 215.757812 63.488281 215.089844 60.449219 C 213.644531 53.625 212.335938 46.761719 211.011719 39.910156 C 210.816406 38.933594 212.296875 38.511719 212.5 39.5 C 213.890625 46.203125 215.332031 52.910156 216.582031 59.644531 C 217.148438 62.722656 217.652344 65.820312 218.441406 68.847656 C 218.8125 70.253906 219.230469 71.636719 219.738281 73 C 219.992188 73.671875 220.339844 74.34375 220.671875 75.019531 C 220.671875 74.875 220.671875 74.734375 220.671875 74.597656 C 220.671875 73.28125 220.734375 71.957031 220.765625 70.636719 C 220.824219 67.992188 220.882812 65.335938 220.945312 62.671875 C 221.070312 57.320312 221.199219 51.945312 221.757812 46.625 C 221.757812 46.515625 221.792969 46.421875 221.871094 46.347656 C 221.945312 46.269531 222.039062 46.234375 222.148438 46.234375 C 222.253906 46.234375 222.347656 46.269531 222.421875 46.347656 C 222.5 46.421875 222.539062 46.515625 222.539062 46.625 C 222.929688 52.046875 222.871094 57.488281 222.820312 62.894531 Z M 177.066406 36.363281 C 175.71875 36.585938 174.445312 38.121094 173.445312 38.976562 C 172.28125 39.976562 171.136719 40.996094 169.964844 41.988281 C 167.523438 44.046875 165.035156 46.039062 162.492188 47.964844 C 157.503906 51.722656 152.359375 55.292969 147.0625 58.578125 C 145.566406 59.507812 144.066406 60.425781 142.554688 61.332031 C 141.5625 61.925781 140.425781 62.484375 139.4375 63.1875 C 144.558594 53.605469 153.078125 46.574219 161.179688 39.527344 C 162.246094 38.941406 161.179688 36.933594 159.945312 37.960938 C 150.925781 45.335938 141.765625 53.53125 136.875 64.34375 C 136.460938 65.269531 137.648438 66.089844 138.234375 65.472656 C 138.4375 65.628906 138.664062 65.6875 138.914062 65.648438 C 140.414062 65.445312 141.875 64.496094 143.183594 63.78125 C 144.496094 63.0625 145.96875 62.238281 147.332031 61.410156 C 150.050781 59.769531 152.730469 58.054688 155.363281 56.269531 C 160.613281 52.695312 165.644531 48.832031 170.457031 44.683594 C 171.832031 43.496094 173.199219 42.292969 174.53125 41.0625 C 175.160156 40.488281 175.761719 39.890625 176.371094 39.289062 C 177.078125 38.726562 177.582031 38.015625 177.875 37.160156 C 177.898438 37.046875 177.894531 36.933594 177.863281 36.824219 C 177.828125 36.714844 177.769531 36.617188 177.6875 36.539062 C 177.605469 36.457031 177.511719 36.402344 177.398438 36.371094 C 177.289062 36.339844 177.175781 36.335938 177.066406 36.363281 Z M 177.066406 36.363281 " fill-opacity="1" fill-rule="nonzero"/><path fill="#f8cda2" d="M 234.78125 80.355469 C 234.78125 81.316406 234.6875 82.265625 234.5 83.207031 C 234.3125 84.148438 234.035156 85.0625 233.667969 85.949219 C 233.300781 86.835938 232.851562 87.679688 232.320312 88.480469 C 231.785156 89.277344 231.179688 90.015625 230.503906 90.695312 C 229.824219 91.375 229.085938 91.980469 228.289062 92.511719 C 227.492188 93.046875 226.648438 93.496094 225.761719 93.863281 C 224.875 94.230469 223.960938 94.507812 223.023438 94.695312 C 222.082031 94.882812 221.128906 94.976562 220.171875 94.976562 C 219.210938 94.976562 218.261719 94.882812 217.320312 94.695312 C 216.378906 94.507812 215.464844 94.230469 214.582031 93.863281 C 213.695312 93.496094 212.851562 93.046875 212.054688 92.511719 C 211.257812 91.980469 210.519531 91.375 209.839844 90.695312 C 209.164062 90.015625 208.554688 89.277344 208.023438 88.480469 C 207.492188 87.679688 207.039062 86.835938 206.671875 85.949219 C 206.304688 85.0625 206.027344 84.148438 205.84375 83.207031 C 205.65625 82.265625 205.5625 81.316406 205.5625 80.355469 C 205.5625 79.394531 205.65625 78.445312 205.84375 77.503906 C 206.027344 76.5625 206.304688 75.648438 206.671875 74.761719 C 207.039062 73.875 207.492188 73.03125 208.023438 72.234375 C 208.554688 71.433594 209.164062 70.695312 209.839844 70.015625 C 210.519531 69.339844 211.257812 68.730469 212.054688 68.199219 C 212.851562 67.664062 213.695312 67.214844 214.582031 66.847656 C 215.464844 66.480469 216.378906 66.203125 217.320312 66.015625 C 218.261719 65.828125 219.210938 65.734375 220.171875 65.734375 C 221.128906 65.734375 222.082031 65.828125 223.023438 66.015625 C 223.960938 66.203125 224.875 66.480469 225.761719 66.847656 C 226.648438 67.214844 227.492188 67.664062 228.289062 68.199219 C 229.085938 68.730469 229.824219 69.339844 230.503906 70.015625 C 231.179688 70.695312 231.785156 71.433594 232.320312 72.234375 C 232.851562 73.03125 233.300781 73.875 233.667969 74.761719 C 234.035156 75.648438 234.3125 76.5625 234.5 77.503906 C 234.6875 78.445312 234.78125 79.394531 234.78125 80.355469 Z M 234.78125 80.355469 " fill-opacity="1" fill-rule="nonzero"/><path fill="#000000" d="M 208.339844 74.265625 C 208.339844 76.070312 206.167969 76.316406 204.875 75.664062 C 203.476562 74.9375 203.160156 73.382812 202.566406 72.042969 C 201.996094 70.792969 201.207031 69.703125 200.191406 68.777344 C 200.878906 69.617188 201.394531 70.546875 201.75 71.574219 C 202.101562 72.597656 202.269531 73.652344 202.246094 74.734375 C 202.246094 79.132812 199.546875 82.703125 196.210938 82.703125 C 192.875 82.703125 190.175781 79.144531 190.175781 74.734375 C 190.175781 70.324219 192.882812 66.769531 196.210938 66.769531 C 196.667969 66.773438 197.113281 66.839844 197.550781 66.972656 C 197.289062 66.851562 197.035156 66.734375 196.769531 66.632812 C 195.484375 66.121094 194.148438 65.882812 192.765625 65.921875 C 191.382812 65.960938 190.0625 66.273438 188.808594 66.855469 C 187.570312 67.480469 186.480469 68.300781 185.539062 69.320312 C 184.574219 70.363281 184.089844 71.636719 183.296875 72.75 C 182.90625 73.289062 181.847656 73.1875 181.921875 72.382812 C 182.109375 69.726562 184.691406 67.183594 186.769531 65.792969 C 187.953125 64.976562 189.238281 64.378906 190.625 64.003906 C 192.015625 63.628906 193.425781 63.496094 194.859375 63.605469 C 196.367188 63.753906 197.804688 64.152344 199.171875 64.800781 C 200.539062 65.453125 201.753906 66.316406 202.820312 67.394531 C 203.835938 68.402344 204.652344 69.550781 205.273438 70.839844 C 205.539062 71.414062 205.714844 72.503906 206.199219 72.941406 C 206.464844 73.1875 206.996094 72.941406 207.5 73.09375 C 207.75 73.179688 207.953125 73.328125 208.109375 73.542969 C 208.261719 73.761719 208.339844 74 208.339844 74.265625 Z M 167.359375 74.308594 C 167.359375 74.128906 167.359375 73.953125 167.359375 73.773438 C 167.53125 73.621094 167.648438 73.4375 167.710938 73.21875 C 167.777344 73 167.78125 72.785156 167.722656 72.5625 C 167.25 70.695312 166.417969 69.007812 165.226562 67.496094 C 164.660156 66.734375 164.054688 66.011719 163.429688 65.320312 C 162.855469 64.566406 162.179688 63.910156 161.40625 63.359375 C 159.742188 62.359375 157.640625 62.636719 155.828125 62.984375 C 154.875 63.1875 153.953125 63.492188 153.070312 63.902344 C 152.203125 64.375 151.390625 64.917969 150.625 65.539062 C 150.039062 65.964844 150.566406 66.945312 151.210938 66.539062 C 152.632812 65.726562 154.160156 65.214844 155.78125 65.003906 C 157.230469 64.777344 159.074219 64.632812 160.21875 65.648438 C 160.371094 65.785156 160.507812 65.929688 160.660156 66.074219 C 158.164062 66.851562 156.273438 70.253906 156.273438 74.308594 C 156.273438 78.949219 158.757812 82.714844 161.816406 82.714844 C 164.878906 82.714844 167.359375 78.949219 167.359375 74.308594 Z M 186.378906 100.207031 C 185.421875 101.921875 183.824219 103.289062 182.363281 104.550781 C 180.882812 105.894531 179.242188 107 177.441406 107.867188 C 174.148438 109.375 170.25 109.621094 166.984375 107.867188 C 166.214844 107.484375 165.539062 106.976562 164.957031 106.347656 C 164.375 105.714844 163.925781 105 163.605469 104.203125 C 163.199219 103.035156 163.25 101.398438 164.285156 100.699219 C 164.351562 100.492188 164.480469 100.347656 164.675781 100.261719 C 164.871094 100.171875 165.066406 100.171875 165.261719 100.257812 C 165.917969 100.488281 166.59375 100.597656 167.289062 100.574219 C 167.863281 100.621094 168.441406 100.621094 169.019531 100.574219 C 170.25 100.367188 171.453125 100.058594 172.636719 99.65625 C 173.78125 99.285156 174.914062 98.988281 176.039062 98.554688 C 177.316406 98.0625 178.597656 97.578125 179.894531 97.105469 L 183.417969 95.859375 C 184.28125 95.5625 185.199219 95.136719 186.082031 95.628906 C 187.761719 96.539062 187.078125 98.945312 186.378906 100.207031 Z M 184.972656 97.53125 C 184.816406 97.4375 183.859375 97.925781 183.628906 98.003906 L 182.21875 98.496094 L 179.75 99.363281 C 177.945312 99.902344 176.171875 100.527344 174.429688 101.242188 C 172.886719 101.910156 171.277344 102.316406 169.605469 102.457031 C 168.746094 102.605469 167.882812 102.640625 167.011719 102.566406 C 166.617188 102.496094 166.230469 102.402344 165.847656 102.285156 C 165.125 104.722656 169.089844 106.449219 171 106.707031 C 173.996094 107.121094 176.898438 105.933594 179.335938 104.273438 C 180.65625 103.355469 181.878906 102.320312 183 101.167969 C 183.628906 100.578125 184.164062 99.910156 184.605469 99.167969 C 184.792969 98.828125 185.3125 97.75 184.972656 97.53125 Z M 184.972656 97.53125 " fill-opacity="1" fill-rule="nonzero"/><path fill="#ed6d45" d="M 227.464844 73.816406 C 227.097656 73.675781 226.722656 73.554688 226.335938 73.460938 C 225.953125 73.367188 225.566406 73.296875 225.175781 73.253906 C 224.78125 73.207031 224.386719 73.1875 223.992188 73.191406 C 223.597656 73.195312 223.207031 73.222656 222.8125 73.277344 C 222.421875 73.328125 222.035156 73.40625 221.65625 73.511719 C 221.273438 73.613281 220.898438 73.738281 220.535156 73.886719 C 220.167969 74.035156 219.8125 74.207031 219.46875 74.402344 C 219.125 74.597656 218.796875 74.8125 218.480469 75.046875 C 218.160156 75.28125 217.859375 75.539062 217.574219 75.8125 C 217.289062 76.085938 217.023438 76.375 216.777344 76.683594 C 216.527344 76.988281 216.300781 77.3125 216.089844 77.648438 C 215.882812 77.984375 215.699219 78.332031 215.535156 78.691406 C 215.371094 79.050781 215.226562 79.417969 215.109375 79.796875 C 214.992188 80.171875 214.898438 80.554688 214.828125 80.945312 C 214.757812 81.332031 214.714844 81.726562 214.695312 82.121094 C 214.675781 82.515625 214.679688 82.910156 214.707031 83.304688 C 214.824219 84.839844 215.28125 86.519531 216.75 87.292969 C 217.054688 87.449219 217.375 87.5625 217.710938 87.640625 C 217.820312 87.695312 217.933594 87.734375 218.050781 87.765625 C 218.164062 87.785156 218.273438 87.785156 218.382812 87.765625 C 219.34375 87.839844 220.285156 87.726562 221.199219 87.421875 C 222.644531 86.976562 224.3125 85.976562 224.628906 84.398438 C 225.019531 82.433594 222.644531 81.890625 221.183594 81.796875 C 219.410156 81.679688 217.480469 82.519531 216.84375 84.289062 C 216.753906 84.546875 216.699219 84.8125 216.675781 85.085938 L 216.605469 84.953125 C 216.203125 83.878906 216.097656 82.777344 216.277344 81.644531 C 216.414062 80.535156 216.765625 79.5 217.339844 78.542969 C 217.910156 77.582031 218.652344 76.78125 219.5625 76.132812 C 220.667969 75.390625 221.882812 74.945312 223.207031 74.800781 C 224.53125 74.65625 225.8125 74.824219 227.054688 75.308594 C 227.988281 75.671875 228.382812 74.171875 227.464844 73.816406 Z M 218.457031 84.484375 C 219.078125 83.457031 220.417969 83.214844 221.523438 83.375 C 221.871094 83.425781 222.972656 83.550781 223.125 83.933594 C 223.277344 84.316406 222.496094 85.027344 222.21875 85.230469 C 221.292969 85.875 220.265625 86.214844 219.136719 86.242188 C 218.882812 86.25 218.628906 86.234375 218.375 86.199219 C 218.375 86.199219 218.375 86.15625 218.339844 86.132812 C 218.339844 85.960938 218.246094 85.800781 218.226562 85.621094 C 218.171875 85.214844 218.25 84.835938 218.457031 84.484375 Z M 174.371094 95.925781 C 172.621094 96.179688 170.753906 95.402344 169.15625 94.816406 C 167.410156 94.195312 165.722656 93.445312 164.089844 92.566406 C 163.953125 92.480469 163.835938 92.375 163.742188 92.25 C 163.644531 92.121094 163.578125 91.980469 163.539062 91.824219 C 163.496094 91.667969 163.488281 91.511719 163.507812 91.355469 C 163.527344 91.195312 163.578125 91.046875 163.65625 90.90625 C 166.257812 86.613281 168.382812 82.097656 170.035156 77.355469 C 171.683594 72.617188 172.820312 67.753906 173.445312 62.773438 C 173.589844 61.570312 175.480469 61.519531 175.371094 62.773438 C 174.941406 67.761719 173.96875 72.644531 172.449219 77.417969 C 170.933594 82.195312 168.910156 86.742188 166.382812 91.066406 C 167.523438 91.679688 168.695312 92.222656 169.902344 92.695312 C 171.398438 93.269531 173.214844 93.46875 174.566406 94.347656 C 175.140625 94.707031 175.167969 95.816406 174.371094 95.925781 Z M 176.5 89.898438 C 176.503906 89.882812 176.503906 89.863281 176.5 89.84375 L 176.457031 89.777344 L 176.363281 89.652344 L 176.464844 89.785156 C 176.410156 89.683594 176.335938 89.601562 176.238281 89.539062 C 176.144531 89.449219 176.035156 89.390625 175.90625 89.363281 L 175.648438 89.328125 C 175.539062 89.304688 175.429688 89.304688 175.320312 89.328125 L 175.132812 89.414062 L 174.964844 89.539062 C 174.890625 89.609375 174.835938 89.699219 174.808594 89.800781 C 174.808594 89.800781 174.808594 89.863281 174.808594 89.898438 C 174.785156 89.941406 174.769531 89.984375 174.757812 90.03125 C 174.703125 90.203125 174.703125 90.378906 174.757812 90.550781 C 174.800781 90.714844 174.882812 90.859375 175.003906 90.980469 C 175.125 91.097656 175.265625 91.183594 175.429688 91.234375 L 175.480469 91.234375 C 175.578125 91.242188 175.679688 91.242188 175.777344 91.234375 C 175.945312 91.230469 176.101562 91.191406 176.246094 91.109375 L 176.328125 91.042969 L 176.363281 91.042969 C 176.363281 91.042969 176.363281 91.042969 176.40625 91 L 176.457031 90.957031 C 176.53125 90.902344 176.597656 90.832031 176.652344 90.753906 C 176.726562 90.632812 176.761719 90.5 176.761719 90.355469 C 176.761719 90.210938 176.726562 90.074219 176.652344 89.949219 C 176.652344 89.949219 176.515625 89.914062 176.5 89.898438 Z M 176.3125 89.703125 Z M 176.3125 89.703125 " fill-opacity="1" fill-rule="nonzero"/></svg>