<svg xmlns="http://www.w3.org/2000/svg" xmlns:xlink="http://www.w3.org/1999/xlink" width="500" zoomAndPan="magnify" viewBox="0 0 375 374.999991" height="500" preserveAspectRatio="xMidYMid meet" version="1.0"><defs><clipPath id="e259f83c10"><path d="M 235.390625 231.925781 L 281.125 231.925781 L 281.125 306.425781 L 235.390625 306.425781 Z M 235.390625 231.925781 " clip-rule="nonzero"/></clipPath><clipPath id="327ae6c9ac"><path d="M 252.640625 231.925781 L 263.875 231.925781 C 268.449219 231.925781 272.835938 233.742188 276.074219 236.976562 C 279.308594 240.214844 281.125 244.601562 281.125 249.175781 L 281.125 289.113281 C 281.125 293.6875 279.308594 298.078125 276.074219 301.3125 C 272.835938 304.546875 268.449219 306.363281 263.875 306.363281 L 252.640625 306.363281 C 248.0625 306.363281 243.675781 304.546875 240.441406 301.3125 C 237.207031 298.078125 235.390625 293.6875 235.390625 289.113281 L 235.390625 249.175781 C 235.390625 244.601562 237.207031 240.214844 240.441406 236.976562 C 243.675781 233.742188 248.0625 231.925781 252.640625 231.925781 Z M 252.640625 231.925781 " clip-rule="nonzero"/></clipPath></defs><g clip-path="url(#e259f83c10)"><g clip-path="url(#327ae6c9ac)"><path fill="#65a1b7" d="M 235.390625 231.925781 L 281.125 231.925781 L 281.125 306.425781 L 235.390625 306.425781 Z M 235.390625 231.925781 " fill-opacity="1" fill-rule="nonzero"/></g></g><path fill="#9b131d" d="M 61.605469 284.96875 C 61.605469 226.4375 124.59375 178.992188 202.300781 178.992188 C 280.003906 178.992188 342.996094 226.4375 342.996094 284.96875 " fill-opacity="1" fill-rule="nonzero"/><path fill="#f8cda2" d="M 320.0625 210.414062 C 330.195312 222.78125 338.769531 236.152344 345.785156 250.527344 C 349.355469 257.9375 352.308594 265.585938 354.644531 273.472656 C 357.039062 281.566406 358.605469 289.816406 359.335938 298.222656 C 359.4375 299.433594 359.429688 300.640625 359.3125 301.847656 C 359.199219 303.058594 358.976562 304.246094 358.648438 305.414062 C 358.320312 306.582031 357.890625 307.710938 357.363281 308.804688 C 356.832031 309.894531 356.207031 310.929688 355.492188 311.910156 C 354.777344 312.890625 353.980469 313.796875 353.101562 314.632812 C 352.222656 315.472656 351.277344 316.222656 350.265625 316.890625 C 349.25 317.558594 348.1875 318.128906 347.070312 318.605469 C 345.957031 319.082031 344.808594 319.457031 343.625 319.726562 C 342.441406 319.996094 341.246094 320.160156 340.035156 320.214844 C 338.824219 320.269531 337.617188 320.21875 336.414062 320.058594 C 335.210938 319.898438 334.03125 319.632812 332.878906 319.261719 C 331.722656 318.886719 330.613281 318.417969 329.542969 317.847656 C 328.472656 317.273438 327.460938 316.613281 326.507812 315.859375 C 325.558594 315.109375 324.679688 314.277344 323.875 313.367188 C 323.074219 312.457031 322.359375 311.484375 321.730469 310.445312 C 321.101562 309.410156 320.570312 308.324219 320.136719 307.191406 L 318.960938 304.097656 C 315 293.714844 308.785156 284.257812 301.207031 275.628906 C 293.375 266.875 284.65625 259.117188 275.050781 252.359375 C 274.148438 251.710938 273.285156 251.019531 272.457031 250.28125 C 271.625 249.542969 270.839844 248.761719 270.09375 247.941406 C 269.347656 247.117188 268.648438 246.257812 267.992188 245.359375 C 267.339844 244.464844 266.734375 243.535156 266.179688 242.574219 C 265.625 241.613281 265.121094 240.625 264.671875 239.609375 C 264.222656 238.59375 263.824219 237.558594 263.484375 236.5 C 263.148438 235.445312 262.863281 234.371094 262.636719 233.285156 C 262.414062 232.195312 262.246094 231.101562 262.136719 229.996094 C 262.027344 228.890625 261.976562 227.78125 261.988281 226.671875 C 261.996094 225.5625 262.0625 224.457031 262.191406 223.351562 C 262.316406 222.25 262.503906 221.15625 262.746094 220.070312 C 262.992188 218.988281 263.289062 217.921875 263.648438 216.871094 C 264.003906 215.820312 264.417969 214.789062 264.882812 213.78125 C 265.351562 212.773438 265.867188 211.792969 266.441406 210.84375 C 267.011719 209.890625 267.628906 208.972656 268.300781 208.085938 C 268.96875 207.199219 269.683594 206.351562 270.441406 205.539062 C 271.199219 204.730469 272 203.964844 272.84375 203.238281 C 273.683594 202.515625 274.558594 201.835938 275.472656 201.203125 C 276.386719 200.574219 277.328125 199.992188 278.304688 199.460938 C 279.28125 198.933594 280.28125 198.453125 281.304688 198.03125 C 282.332031 197.605469 283.378906 197.238281 284.441406 196.925781 C 285.507812 196.613281 286.585938 196.359375 287.679688 196.160156 C 288.769531 195.964844 289.871094 195.824219 290.976562 195.746094 C 292.082031 195.664062 293.191406 195.644531 294.300781 195.679688 C 295.410156 195.71875 296.515625 195.816406 297.613281 195.972656 C 298.710938 196.125 299.800781 196.339844 300.875 196.609375 C 301.953125 196.882812 303.011719 197.210938 304.050781 197.59375 C 305.09375 197.980469 306.109375 198.417969 307.105469 198.910156 C 308.097656 199.402344 309.066406 199.949219 310 200.542969 C 310.9375 201.140625 311.839844 201.78125 312.707031 202.476562 C 313.578125 203.167969 314.40625 203.902344 315.195312 204.683594 C 315.984375 205.464844 316.730469 206.285156 317.433594 207.144531 Z M 320.0625 210.414062 " fill-opacity="1" fill-rule="nonzero"/><path fill="#d16a46" d="M 185.96875 45.308594 C 173.117188 47.914062 161.40625 55.292969 152.953125 65.324219 C 144.503906 75.355469 139.261719 87.925781 137.363281 100.90625 C 135.859375 111.222656 136.675781 122.558594 143.078125 130.78125 C 130.75 140.074219 125.550781 157.976562 129.097656 173 C 132.640625 188.027344 144.210938 200.5625 158.339844 206.769531 C 164.472656 209.464844 170.726562 212.621094 177.398438 213.191406 C 198.679688 215.011719 220.703125 214.4375 240.515625 206.457031 C 260.324219 198.476562 277.65625 182 282.152344 161.109375 C 286.378906 141.460938 276.980469 120.496094 282.382812 101.136719 L 260.261719 58.449219 " fill-opacity="1" fill-rule="nonzero"/><path fill="#9b131d" d="M 226.589844 146.992188 C 226.589844 153.550781 223.144531 158.863281 218.894531 158.863281 C 214.644531 158.863281 211.199219 153.550781 211.199219 146.992188 C 211.199219 140.4375 214.644531 135.121094 218.894531 135.121094 C 223.144531 135.121094 226.589844 140.4375 226.589844 146.992188 Z M 251.109375 131.304688 C 249.117188 130.285156 247.046875 129.398438 244.945312 128.566406 C 242.800781 127.90625 240.613281 127.304688 238.398438 126.832031 C 237.273438 126.679688 236.144531 126.535156 235.011719 126.421875 L 233.316406 126.265625 C 232.746094 126.265625 232.171875 126.296875 231.601562 126.308594 L 228.1875 126.460938 L 224.800781 126.957031 C 220.257812 127.695312 216.027344 129.273438 212.109375 131.691406 C 208.203125 134.113281 205.113281 137.320312 202.839844 141.316406 C 202.796875 141.394531 202.8125 141.457031 202.890625 141.503906 C 202.964844 141.550781 203.027344 141.535156 203.078125 141.464844 L 203.089844 141.449219 C 205.632812 137.804688 208.878906 134.957031 212.824219 132.910156 C 216.675781 130.859375 220.773438 129.625 225.113281 129.195312 L 228.328125 128.964844 L 231.554688 129.109375 L 233.164062 129.164062 L 234.765625 129.351562 C 235.835938 129.46875 236.910156 129.550781 237.988281 129.628906 C 239.066406 129.710938 240.128906 129.941406 241.207031 130.078125 L 244.457031 130.496094 C 246.601562 130.933594 248.769531 131.320312 251.019531 131.570312 L 251.03125 131.570312 C 251.109375 131.578125 251.160156 131.546875 251.183594 131.46875 C 251.207031 131.394531 251.179688 131.339844 251.109375 131.304688 Z M 160.175781 132.640625 C 155.921875 132.640625 152.476562 137.953125 152.476562 144.511719 C 152.476562 151.066406 155.921875 156.382812 160.175781 156.382812 C 164.425781 156.382812 167.871094 151.066406 167.871094 144.511719 C 167.871094 137.953125 164.425781 132.640625 160.175781 132.640625 Z M 166.960938 129.210938 C 163.042969 126.792969 158.8125 125.214844 154.269531 124.476562 L 150.882812 123.980469 L 147.46875 123.828125 C 146.898438 123.816406 146.324219 123.78125 145.753906 123.785156 L 144.058594 123.9375 C 142.925781 124.050781 141.796875 124.199219 140.671875 124.351562 C 138.457031 124.824219 136.269531 125.425781 134.121094 126.085938 C 132.023438 126.917969 129.953125 127.800781 127.957031 128.820312 C 127.886719 128.859375 127.863281 128.914062 127.886719 128.988281 C 127.910156 129.066406 127.960938 129.097656 128.039062 129.089844 L 128.050781 129.089844 C 130.300781 128.839844 132.46875 128.453125 134.613281 128.015625 L 137.863281 127.597656 C 138.941406 127.460938 140.003906 127.230469 141.082031 127.148438 C 142.160156 127.070312 143.230469 126.988281 144.300781 126.871094 L 145.90625 126.683594 L 147.515625 126.628906 L 150.742188 126.484375 L 153.957031 126.714844 C 158.296875 127.140625 162.394531 128.378906 166.246094 130.425781 C 170.191406 132.476562 173.433594 135.324219 175.980469 138.96875 L 175.992188 138.984375 C 176.042969 139.054688 176.105469 139.070312 176.179688 139.023438 C 176.257812 138.976562 176.273438 138.914062 176.230469 138.835938 C 173.957031 134.839844 170.867188 131.632812 166.960938 129.210938 Z M 166.960938 129.210938 " fill-opacity="1" fill-rule="nonzero"/><path fill="#000000" d="M 256.632812 112.40625 C 253.476562 108.789062 249.714844 105.992188 245.339844 104.011719 C 243.148438 103.035156 240.875 102.292969 238.527344 101.789062 C 236.179688 101.28125 233.804688 101.019531 231.402344 101.007812 C 229.003906 100.992188 226.625 101.222656 224.269531 101.703125 C 221.917969 102.183594 219.636719 102.894531 217.433594 103.847656 C 212.992188 105.757812 209.09375 108.457031 205.742188 111.9375 C 204.09375 113.632812 202.632812 115.472656 201.367188 117.46875 C 200.097656 119.460938 199.046875 121.5625 198.210938 123.773438 C 197.375 125.984375 196.777344 128.257812 196.410156 130.589844 C 196.046875 132.925781 195.921875 135.273438 196.039062 137.632812 C 196.148438 139.945312 196.472656 142.230469 197.007812 144.484375 C 196.433594 143.628906 195.789062 142.828125 195.082031 142.085938 C 193.660156 140.554688 191.988281 139.390625 190.054688 138.597656 C 189 138.179688 187.902344 137.992188 186.765625 138.027344 C 185.566406 138.074219 184.476562 138.449219 183.496094 139.144531 C 182.597656 139.792969 181.910156 140.621094 181.433594 141.621094 C 181.363281 141.761719 181.308594 141.902344 181.246094 142.039062 C 181.414062 140.578125 181.503906 139.105469 181.511719 137.632812 C 181.515625 133.074219 180.769531 128.640625 179.273438 124.335938 C 177.738281 119.921875 175.445312 115.945312 172.398438 112.40625 C 169.242188 108.789062 165.476562 105.992188 161.105469 104.011719 C 158.910156 103.035156 156.640625 102.292969 154.292969 101.789062 C 151.945312 101.28125 149.570312 101.019531 147.167969 101.007812 C 144.765625 100.992188 142.390625 101.222656 140.035156 101.703125 C 137.683594 102.179688 135.402344 102.894531 133.195312 103.847656 C 128.753906 105.757812 124.859375 108.457031 121.503906 111.9375 C 119.855469 113.628906 118.398438 115.472656 117.128906 117.46875 C 115.859375 119.460938 114.808594 121.5625 113.976562 123.773438 C 113.140625 125.984375 112.539062 128.257812 112.175781 130.589844 C 111.808594 132.925781 111.683594 135.273438 111.804688 137.632812 C 111.921875 139.925781 112.242188 142.191406 112.765625 144.425781 C 113.292969 146.664062 114.011719 148.832031 114.929688 150.9375 C 115.847656 153.042969 116.945312 155.050781 118.222656 156.957031 C 119.503906 158.867188 120.941406 160.644531 122.542969 162.289062 C 125.757812 165.644531 129.457031 168.328125 133.640625 170.347656 C 137.921875 172.410156 142.4375 173.527344 147.183594 173.703125 C 151.996094 173.855469 156.609375 172.976562 161.03125 171.074219 C 165.421875 169.167969 169.195312 166.414062 172.351562 162.8125 C 175.410156 159.289062 177.703125 155.324219 179.238281 150.917969 C 180.011719 148.6875 180.589844 146.40625 180.96875 144.074219 C 182.144531 142.761719 183.3125 141.578125 184.617188 141.0625 C 185.339844 140.796875 186.082031 140.679688 186.851562 140.710938 C 187.621094 140.742188 188.351562 140.917969 189.050781 141.238281 C 190.675781 141.921875 192.210938 142.765625 193.652344 143.777344 L 197.527344 146.421875 C 198.300781 149.015625 199.332031 151.5 200.621094 153.875 C 201.910156 156.25 203.433594 158.46875 205.183594 160.527344 C 206.9375 162.589844 208.878906 164.445312 211.019531 166.097656 C 213.15625 167.753906 215.445312 169.167969 217.878906 170.347656 C 222.15625 172.410156 226.671875 173.527344 231.421875 173.703125 C 236.230469 173.855469 240.847656 172.976562 245.265625 171.074219 C 249.65625 169.167969 253.429688 166.414062 256.589844 162.8125 C 259.644531 159.289062 261.941406 155.324219 263.472656 150.917969 C 264.972656 146.617188 265.730469 142.1875 265.75 137.632812 C 265.753906 133.074219 265.007812 128.640625 263.507812 124.335938 C 261.972656 119.921875 259.683594 115.945312 256.632812 112.40625 Z M 178.121094 150.453125 C 176.195312 154.410156 173.566406 157.824219 170.230469 160.691406 C 168.636719 162.070312 166.933594 163.304688 165.128906 164.398438 C 163.324219 165.488281 161.441406 166.421875 159.480469 167.195312 C 157.519531 167.96875 155.507812 168.574219 153.441406 169.007812 C 151.378906 169.441406 149.292969 169.699219 147.1875 169.78125 C 142.890625 169.949219 138.707031 169.335938 134.636719 167.945312 C 132.570312 167.234375 130.605469 166.3125 128.742188 165.171875 C 126.875 164.03125 125.15625 162.703125 123.585938 161.183594 C 122.011719 159.667969 120.621094 157.996094 119.414062 156.175781 C 118.207031 154.351562 117.214844 152.421875 116.429688 150.378906 C 114.839844 146.277344 114.160156 142.027344 114.382812 137.632812 C 114.5 135.515625 114.808594 133.429688 115.316406 131.371094 C 115.824219 129.3125 116.515625 127.320312 117.394531 125.390625 C 118.273438 123.460938 119.320312 121.632812 120.542969 119.898438 C 121.761719 118.167969 123.132812 116.5625 124.652344 115.089844 C 127.695312 112.179688 131.171875 109.949219 135.082031 108.394531 C 138.972656 106.863281 143.007812 106.078125 147.1875 106.039062 C 151.378906 106.007812 155.4375 106.738281 159.359375 108.230469 C 163.347656 109.71875 166.957031 111.847656 170.1875 114.621094 C 173.527344 117.472656 176.164062 120.875 178.085938 124.824219 C 179.058594 126.820312 179.789062 128.902344 180.289062 131.0625 C 180.789062 133.226562 181.039062 135.417969 181.042969 137.636719 C 181.046875 139.855469 180.800781 142.046875 180.308594 144.210938 C 179.816406 146.375 179.085938 148.453125 178.121094 150.453125 Z M 262.359375 150.453125 C 260.433594 154.410156 257.800781 157.824219 254.46875 160.691406 C 252.871094 162.070312 251.171875 163.304688 249.367188 164.398438 C 247.5625 165.488281 245.679688 166.421875 243.714844 167.195312 C 241.753906 167.96875 239.742188 168.574219 237.679688 169.007812 C 235.613281 169.441406 233.527344 169.699219 231.421875 169.78125 C 227.125 169.949219 222.941406 169.335938 218.875 167.945312 C 216.804688 167.234375 214.839844 166.3125 212.976562 165.171875 C 211.113281 164.03125 209.394531 162.703125 207.820312 161.183594 C 206.246094 159.667969 204.855469 157.996094 203.652344 156.175781 C 202.445312 154.351562 201.449219 152.421875 200.664062 150.378906 C 199.078125 146.277344 198.394531 142.027344 198.617188 137.632812 C 198.734375 135.515625 199.046875 133.429688 199.550781 131.371094 C 200.058594 129.3125 200.75 127.320312 201.628906 125.390625 C 202.507812 123.460938 203.558594 121.632812 204.777344 119.898438 C 206 118.167969 207.367188 116.5625 208.890625 115.089844 C 211.933594 112.179688 215.410156 109.949219 219.316406 108.394531 C 223.207031 106.863281 227.242188 106.078125 231.421875 106.039062 C 235.617188 106.007812 239.671875 106.738281 243.59375 108.230469 C 247.582031 109.71875 251.191406 111.847656 254.421875 114.621094 C 257.765625 117.472656 260.398438 120.875 262.324219 124.824219 C 263.292969 126.820312 264.027344 128.902344 264.523438 131.0625 C 265.023438 133.226562 265.273438 135.417969 265.277344 137.636719 C 265.28125 139.855469 265.035156 142.046875 264.542969 144.210938 C 264.050781 146.375 263.324219 148.453125 262.359375 150.453125 Z M 326.957031 56.761719 C 323.449219 58.683594 319.753906 60.121094 315.867188 61.074219 C 311.984375 62.027344 308.039062 62.464844 304.042969 62.382812 C 325.847656 96.644531 291.523438 131.59375 291.523438 131.59375 L 280.453125 121.746094 C 263.886719 104.949219 261.269531 90.105469 263.15625 79.046875 C 233.527344 98.921875 176.464844 121.242188 128.003906 46.277344 C 128.003906 46.277344 175.628906 3.546875 227.210938 18.367188 L 227.195312 18.363281 C 258.070312 26.820312 278.363281 37.140625 291.265625 48.078125 C 290.160156 41.667969 290.886719 33.605469 291.390625 30.9375 C 292.070312 27.320312 293.929688 23.726562 297.207031 21.761719 C 300.480469 19.796875 305.304688 19.957031 307.820312 22.75 C 309.492188 24.605469 309.90625 27.1875 310.015625 29.625 C 310.273438 35.007812 309.382812 40.195312 307.335938 45.179688 C 307.265625 45.351562 307.183594 45.542969 307.101562 45.738281 C 309.28125 44.445312 311.589844 43.464844 314.03125 42.796875 C 319.007812 41.464844 324.832031 41.742188 329.0625 44.25 C 330.988281 45.394531 332.578125 47.0625 332.851562 48.988281 C 333.304688 52.164062 330.183594 54.921875 326.957031 56.761719 Z M 326.957031 56.761719 " fill-opacity="1" fill-rule="nonzero"/><path fill="#9b131d" d="M 286.632812 120.765625 C 287.207031 122.09375 287.949219 123.570312 287.863281 125.046875 C 287.859375 125.21875 287.8125 125.378906 287.726562 125.527344 C 287.640625 125.675781 287.519531 125.792969 287.371094 125.878906 C 287.222656 125.964844 287.0625 126.007812 286.890625 126.007812 C 286.71875 126.007812 286.554688 125.96875 286.40625 125.882812 C 285.058594 125.003906 284.308594 123.441406 283.644531 122.023438 C 282.949219 120.539062 282.292969 119.039062 281.695312 117.515625 C 280.476562 114.476562 279.4375 111.375 278.566406 108.21875 C 276.851562 101.8125 275.800781 95.300781 275.414062 88.683594 C 275.304688 86.867188 278.054688 86.910156 278.210938 88.683594 C 278.78125 95.015625 279.964844 101.234375 281.765625 107.335938 C 282.667969 110.410156 283.664062 113.445312 284.839844 116.429688 C 285.414062 117.882812 286.011719 119.328125 286.632812 120.765625 Z M 292.570312 120.046875 C 292.335938 116.378906 292.132812 112.710938 291.964844 109.039062 C 291.628906 101.777344 291.453125 94.503906 291.214844 87.234375 C 291.207031 87.0625 291.167969 86.902344 291.101562 86.742188 C 291.03125 86.585938 290.933594 86.449219 290.808594 86.332031 C 290.6875 86.210938 290.546875 86.121094 290.386719 86.054688 C 290.230469 85.992188 290.0625 85.960938 289.890625 85.960938 C 289.722656 85.960938 289.554688 85.992188 289.398438 86.054688 C 289.238281 86.121094 289.097656 86.210938 288.972656 86.332031 C 288.851562 86.449219 288.753906 86.585938 288.683594 86.742188 C 288.617188 86.902344 288.578125 87.0625 288.570312 87.234375 C 288.125 94.503906 288.105469 101.761719 288.328125 109.039062 C 288.4375 112.632812 288.609375 116.222656 288.847656 119.8125 C 289.078125 123.339844 288.96875 127.367188 290.351562 130.652344 C 290.765625 131.644531 292.394531 131.953125 292.6875 130.652344 C 293.453125 127.234375 292.792969 123.519531 292.570312 120.046875 Z M 196.75 179.667969 C 197.472656 182 197.429688 184.289062 197.472656 186.496094 C 197.398438 188.703125 197.457031 190.992188 196.714844 193.3125 C 196.332031 194.542969 195.675781 195.597656 194.738281 196.480469 C 194.21875 196.960938 193.628906 197.324219 192.96875 197.570312 C 192.304688 197.816406 191.621094 197.929688 190.917969 197.902344 C 189.511719 197.765625 188.339844 197.171875 187.402344 196.121094 C 186.609375 195.21875 185.980469 194.214844 185.515625 193.109375 C 184.585938 190.996094 183.988281 188.792969 183.730469 186.496094 C 183.410156 184.066406 183.742188 181.730469 184.730469 179.488281 C 185.25 178.285156 185.988281 177.234375 186.949219 176.34375 C 187.210938 176.089844 187.496094 175.859375 187.800781 175.660156 C 188.105469 175.464844 188.429688 175.296875 188.765625 175.160156 C 189.105469 175.023438 189.453125 174.921875 189.8125 174.855469 C 190.171875 174.789062 190.53125 174.757812 190.898438 174.761719 C 191.261719 174.765625 191.625 174.804688 191.980469 174.878906 C 192.339844 174.953125 192.683594 175.0625 193.019531 175.203125 C 193.355469 175.347656 193.675781 175.519531 193.976562 175.726562 C 194.277344 175.933594 194.554688 176.164062 194.8125 176.425781 C 195.726562 177.34375 196.375 178.425781 196.75 179.667969 Z M 197.1875 186.496094 C 197.15625 184.265625 196.449219 182.269531 195.074219 180.515625 C 193.828125 178.882812 192.289062 177.726562 190.917969 177.78125 C 190.148438 177.839844 189.460938 178.113281 188.859375 178.59375 C 188.144531 179.183594 187.5625 179.882812 187.113281 180.695312 C 186.625 181.566406 186.238281 182.488281 185.957031 183.449219 C 185.644531 184.445312 185.417969 185.460938 185.277344 186.496094 C 184.960938 188.675781 185.3125 190.746094 186.328125 192.699219 C 186.835938 193.617188 187.527344 194.363281 188.410156 194.929688 C 189.175781 195.417969 190.011719 195.621094 190.917969 195.546875 C 192.449219 195.351562 193.855469 194.144531 195.109375 192.496094 C 196.480469 190.734375 197.171875 188.734375 197.1875 186.496094 Z M 197.1875 186.496094 " fill-opacity="1" fill-rule="nonzero"/><path fill="#f8cda2" d="M 118.878906 210.425781 C 111.699219 188.136719 66.414062 170.019531 66.414062 170.019531 C 66.414062 170.019531 46.675781 179.128906 44.648438 182.488281 L 94.3125 226.976562 C 94.3125 226.976562 105.523438 232.242188 113.09375 229.429688 C 113.363281 229.332031 113.625 229.222656 113.886719 229.101562 C 127.089844 258.554688 214.320312 188.980469 214.320312 188.980469 C 214.320312 188.980469 141.230469 191.101562 118.878906 210.425781 Z M 118.878906 210.425781 " fill-opacity="1" fill-rule="nonzero"/><path fill="#eec51d" d="M 254.972656 176.714844 C 254.597656 174.460938 176.207031 202.03125 138.90625 215.214844 C 135.9375 216.265625 132.886719 216.976562 129.761719 217.347656 C 126.636719 217.71875 123.503906 217.742188 120.375 217.417969 C 117.242188 217.09375 114.183594 216.429688 111.199219 215.425781 C 108.214844 214.421875 105.375 213.101562 102.683594 211.464844 C 80.335938 197.886719 43.628906 176.007812 40.003906 176.582031 L 46.023438 325.425781 L 114.8125 363.410156 C 117.597656 364.949219 120.503906 366.210938 123.527344 367.203125 C 126.550781 368.191406 129.644531 368.890625 132.800781 369.300781 C 135.957031 369.707031 139.121094 369.816406 142.300781 369.625 C 145.476562 369.4375 148.609375 368.953125 151.691406 368.171875 L 261.707031 340.347656 C 261.707031 340.347656 255.453125 179.601562 254.972656 176.714844 Z M 254.972656 176.714844 " fill-opacity="1" fill-rule="nonzero"/><path fill="#f8cda2" d="M 71.289062 225.414062 L 103.996094 232.613281 L 107.84375 340.503906 L 71.289062 325.460938 Z M 71.289062 225.414062 " fill-opacity="1" fill-rule="nonzero"/><path fill="#9b131d" d="M 197.78125 262.964844 C 202.699219 263.273438 205.761719 259.292969 209.757812 257.066406 C 218.121094 252.40625 230.621094 253.21875 235.246094 262.84375 C 237.183594 266.878906 237.097656 271.554688 236.894531 276.03125 C 236.503906 284.644531 235.597656 293.863281 230.089844 300.496094 C 224.683594 307.007812 215.632812 309.695312 207.195312 309.035156 C 203.484375 308.742188 198.832031 306.519531 199.507812 302.855469 C 198.871094 303.773438 198.175781 304.640625 197.414062 305.457031 C 196.65625 306.273438 195.84375 307.03125 194.980469 307.734375 C 194.113281 308.4375 193.203125 309.074219 192.246094 309.648438 C 191.289062 310.21875 190.296875 310.722656 189.269531 311.15625 C 188.242188 311.589844 187.191406 311.945312 186.113281 312.230469 C 185.035156 312.515625 183.941406 312.722656 182.835938 312.851562 C 181.726562 312.980469 180.617188 313.03125 179.503906 313 C 178.390625 312.972656 177.28125 312.867188 176.183594 312.683594 C 175.085938 312.496094 174.003906 312.238281 172.941406 311.898438 C 171.878906 311.5625 170.847656 311.148438 169.84375 310.667969 C 168.835938 310.183594 167.871094 309.628906 166.945312 309.007812 C 166.019531 308.390625 165.144531 307.707031 164.3125 306.960938 C 163.484375 306.21875 162.710938 305.417969 161.992188 304.5625 C 161.277344 303.710938 160.625 302.808594 160.035156 301.863281 C 159.445312 300.914062 158.925781 299.933594 158.476562 298.910156 C 158.027344 297.890625 157.648438 296.84375 157.347656 295.773438 C 156.082031 291.277344 156.171875 286.523438 156.421875 281.859375 C 156.761719 275.410156 157.636719 268.414062 162.1875 263.832031 C 166.875 259.113281 174.191406 258.292969 180.828125 258.6875 C 186.785156 259.046875 192.128906 262.617188 197.78125 262.964844 Z M 76.378906 216.328125 C 74.160156 215.058594 71.769531 214.449219 69.214844 214.5 C 63.910156 214.636719 58.703125 218.542969 57.824219 223.777344 C 57.6875 224.714844 57.671875 225.648438 57.78125 226.589844 C 57.886719 227.527344 58.109375 228.4375 58.453125 229.316406 C 58.796875 230.195312 59.246094 231.019531 59.804688 231.78125 C 60.359375 232.542969 61.003906 233.222656 61.738281 233.816406 C 62.484375 234.398438 63.285156 234.882812 64.144531 235.269531 C 65.003906 235.660156 65.898438 235.945312 66.824219 236.125 C 67.75 236.300781 68.6875 236.371094 69.628906 236.328125 C 70.574219 236.285156 71.496094 236.132812 72.402344 235.871094 C 73.722656 235.5 74.9375 234.910156 76.042969 234.101562 C 77.148438 233.292969 78.078125 232.3125 78.828125 231.164062 C 79.386719 230.242188 79.796875 229.257812 80.050781 228.207031 C 80.304688 227.15625 80.398438 226.09375 80.324219 225.019531 C 80.253906 223.941406 80.019531 222.898438 79.628906 221.894531 C 79.234375 220.886719 78.699219 219.964844 78.023438 219.125 C 77.035156 218.007812 75.882812 217.101562 74.566406 216.402344 C 73.25 215.703125 71.851562 215.257812 70.375 215.066406 " fill-opacity="1" fill-rule="nonzero"/><path fill="#000000" d="M 209.390625 240.863281 C 209.433594 240.789062 209.324219 240.851562 209.25 240.886719 C 209.15625 240.925781 209.070312 240.972656 208.988281 241.027344 C 208.789062 241.132812 208.601562 241.253906 208.414062 241.382812 C 208.023438 241.632812 207.640625 241.941406 207.246094 242.238281 C 204.777344 244.257812 202.804688 246.683594 201.328125 249.511719 C 200.277344 251.511719 199.507812 253.617188 199.019531 255.824219 C 198.753906 256.96875 198.558594 258.121094 198.4375 259.285156 C 198.300781 260.464844 198.308594 261.65625 198.242188 262.878906 L 197.320312 263.054688 C 196.941406 261.886719 196.480469 260.703125 196.164062 259.480469 C 195.832031 258.238281 195.578125 256.984375 195.398438 255.714844 C 195.003906 253.070312 194.964844 250.425781 195.273438 247.769531 C 195.582031 244.996094 196.257812 242.3125 197.296875 239.722656 C 197.828125 238.386719 198.445312 237.089844 199.148438 235.832031 C 199.523438 235.203125 199.886719 234.566406 200.324219 233.9375 C 200.527344 233.625 200.757812 233.308594 201 232.988281 C 201.117188 232.832031 201.238281 232.671875 201.386719 232.496094 C 201.546875 232.289062 201.722656 232.09375 201.910156 231.910156 Z M 209.390625 240.863281 " fill-opacity="1" fill-rule="nonzero"/><path fill="#f8cda2" d="M 170.902344 269.386719 C 171.402344 268.800781 172.125 269.554688 171.875 270.136719 C 169.574219 275.523438 166.160156 286.863281 170.316406 292.070312 C 170.851562 292.742188 171.359375 293.710938 170.984375 294.609375 C 170.863281 295.050781 170.636719 295.433594 170.316406 295.757812 C 169.28125 296.601562 167.621094 296.894531 166.628906 295.757812 C 160.023438 288.222656 165.394531 275.859375 170.902344 269.386719 Z M 177.164062 301.871094 L 177.113281 301.773438 C 176.820312 301.273438 176.421875 300.878906 175.917969 300.589844 C 175.417969 300.300781 174.875 300.15625 174.292969 300.15625 L 173.425781 300.273438 C 172.871094 300.425781 172.394531 300.707031 171.988281 301.113281 C 171.386719 301.765625 171.066406 302.535156 171.03125 303.421875 C 171.03125 304.003906 171.175781 304.542969 171.464844 305.046875 C 171.75 305.550781 172.144531 305.949219 172.648438 306.242188 L 172.746094 306.292969 L 173.515625 306.617188 C 173.941406 306.753906 174.371094 306.773438 174.804688 306.675781 C 175.097656 306.675781 175.367188 306.605469 175.621094 306.457031 C 176.023438 306.324219 176.371094 306.101562 176.660156 305.789062 L 177.164062 305.132812 L 177.488281 304.363281 C 177.625 303.9375 177.644531 303.507812 177.546875 303.074219 C 177.527344 302.636719 177.402344 302.238281 177.164062 301.871094 Z M 177.164062 301.871094 " fill-opacity="1" fill-rule="nonzero"/><path fill="#9b131d" d="M 137.074219 215.90625 L 139.335938 254.449219 L 141.460938 293 C 142.179688 305.847656 143.058594 318.691406 143.441406 331.554688 C 143.625 337.988281 143.804688 344.421875 143.863281 350.859375 L 143.949219 360.515625 C 143.921875 363.738281 143.945312 366.957031 143.871094 370.179688 L 143.589844 370.191406 C 143.230469 366.988281 142.972656 363.777344 142.660156 360.570312 L 141.894531 350.945312 C 141.390625 344.527344 141.003906 338.101562 140.617188 331.679688 C 139.867188 318.832031 139.617188 305.960938 139.203125 293.101562 L 137.925781 254.511719 L 136.789062 215.921875 Z M 112.316406 217.433594 L 113.589844 254.648438 L 115.003906 291.855469 C 115.460938 304.257812 115.761719 316.667969 116.558594 329.050781 C 116.964844 335.246094 117.375 341.4375 117.902344 347.625 L 118.703125 356.902344 C 119.027344 359.992188 119.296875 363.085938 119.664062 366.171875 L 119.949219 366.160156 C 120.011719 363.050781 119.972656 359.945312 119.992188 356.839844 L 119.871094 347.527344 C 119.789062 341.316406 119.585938 335.113281 119.378906 328.910156 C 118.953125 316.507812 118.027344 304.128906 117.261719 291.742188 L 115 254.578125 L 112.597656 217.421875 Z M 112.316406 217.433594 " fill-opacity="1" fill-rule="nonzero"/><path fill="#d16a46" d="M 360.519531 309.679688 C 360.289062 310.464844 360.023438 311.234375 359.71875 311.992188 C 359.410156 312.75 359.070312 313.492188 358.691406 314.214844 C 358.3125 314.941406 357.902344 315.644531 357.453125 316.328125 C 357.007812 317.011719 356.527344 317.671875 356.015625 318.308594 C 355.503906 318.945312 354.960938 319.554688 354.390625 320.136719 C 353.816406 320.722656 353.21875 321.273438 352.59375 321.800781 C 351.96875 322.324219 351.316406 322.816406 350.640625 323.277344 C 349.96875 323.738281 349.273438 324.164062 348.554688 324.554688 C 347.839844 324.945312 347.105469 325.300781 346.355469 325.621094 C 345.601562 325.941406 344.835938 326.222656 344.058594 326.46875 C 343.277344 326.714844 342.488281 326.917969 341.691406 327.085938 C 340.890625 327.253906 340.085938 327.382812 339.273438 327.46875 C 338.460938 327.558594 337.648438 327.605469 336.832031 327.613281 C 336.015625 327.621094 335.199219 327.589844 334.386719 327.515625 C 333.574219 327.445312 332.765625 327.332031 331.964844 327.179688 C 331.160156 327.027344 330.367188 326.835938 329.585938 326.609375 C 327.535156 325.996094 325.589844 325.144531 323.75 324.050781 L 319.558594 321.53125 C 318.261719 320.71875 316.9375 319.964844 315.601562 319.214844 C 314.273438 318.441406 312.917969 317.726562 311.554688 317.015625 C 310.199219 316.277344 308.8125 315.613281 307.421875 314.9375 C 301.792969 312.214844 296.015625 309.863281 290.085938 307.882812 C 285.644531 306.402344 281.105469 305.125 276.464844 304.054688 C 275.398438 306.597656 274.03125 308.964844 272.363281 311.15625 C 270.691406 313.347656 268.773438 315.292969 266.605469 316.996094 C 264.816406 318.359375 262.914062 319.527344 260.886719 320.503906 C 258.863281 321.476562 256.757812 322.238281 254.578125 322.78125 C 252.398438 323.324219 250.183594 323.636719 247.941406 323.726562 C 245.695312 323.816406 243.464844 323.675781 241.246094 323.308594 C 238.335938 322.851562 235.59375 321.910156 233.015625 320.480469 C 231.515625 319.578125 230.148438 318.507812 228.910156 317.269531 C 227.671875 316.035156 226.597656 314.667969 225.691406 313.171875 C 224.785156 311.671875 224.070312 310.089844 223.550781 308.417969 C 223.027344 306.746094 222.714844 305.035156 222.613281 303.289062 C 222.511719 301.574219 222.601562 299.867188 222.875 298.171875 C 223.152344 296.472656 223.605469 294.828125 224.238281 293.230469 C 224.875 291.632812 225.675781 290.125 226.636719 288.703125 C 227.601562 287.277344 228.710938 285.976562 229.957031 284.796875 L 230.441406 284.796875 C 230.601562 284.796875 230.28125 283.910156 230.441406 283.910156 C 228.339844 285.332031 226.40625 286.957031 224.648438 288.785156 C 222.890625 290.613281 221.339844 292.609375 220.003906 294.765625 C 218.664062 296.921875 217.566406 299.195312 216.710938 301.585938 C 215.851562 303.976562 215.253906 306.429688 214.914062 308.945312 C 214.355469 313.296875 214.519531 318.015625 212.058594 321.648438 C 208.664062 322.195312 204.820312 322.632812 202.132812 320.492188 C 200.058594 318.839844 199.269531 316.070312 198.851562 313.449219 C 198.585938 311.667969 198.4375 309.878906 198.402344 308.078125 C 198.371094 306.277344 198.453125 304.480469 198.648438 302.691406 C 198.84375 300.902344 199.15625 299.128906 199.582031 297.378906 C 200.003906 295.628906 200.539062 293.914062 201.183594 292.234375 C 201.828125 290.550781 202.578125 288.917969 203.433594 287.332031 C 204.289062 285.746094 205.242188 284.222656 206.289062 282.761719 C 207.339844 281.296875 208.480469 279.910156 209.710938 278.59375 C 210.9375 277.277344 212.246094 276.046875 213.632812 274.898438 C 216.128906 272.824219 218.886719 271.191406 221.90625 270.003906 C 227.761719 267.792969 234.25 267.960938 240.445312 268.851562 C 244.78125 269.484375 249.042969 270.449219 253.230469 271.746094 L 254.992188 271.441406 L 260.730469 270.613281 C 262.652344 270.398438 264.578125 270.160156 266.507812 269.972656 C 268.441406 269.816406 270.378906 269.628906 272.316406 269.511719 C 280.132812 269.019531 287.949219 269.023438 295.765625 269.523438 C 303.648438 270.027344 311.472656 271.023438 319.234375 272.511719 C 321.179688 272.886719 323.132812 273.261719 325.0625 273.722656 C 327 274.152344 328.9375 274.597656 330.855469 275.113281 C 332.785156 275.601562 334.710938 276.109375 336.617188 276.683594 L 342.039062 278.273438 L 343.601562 278.730469 C 344.386719 278.960938 345.15625 279.226562 345.914062 279.53125 C 346.671875 279.835938 347.410156 280.179688 348.136719 280.558594 C 348.859375 280.9375 349.5625 281.347656 350.246094 281.796875 C 350.929688 282.242188 351.589844 282.722656 352.226562 283.234375 C 352.859375 283.746094 353.46875 284.289062 354.054688 284.863281 C 354.636719 285.433594 355.191406 286.035156 355.714844 286.660156 C 356.238281 287.285156 356.730469 287.9375 357.191406 288.613281 C 357.648438 289.289062 358.074219 289.984375 358.46875 290.699219 C 358.859375 291.417969 359.214844 292.152344 359.535156 292.902344 C 359.855469 293.65625 360.136719 294.421875 360.382812 295.199219 C 360.625 295.980469 360.832031 296.769531 360.996094 297.570312 C 361.164062 298.367188 361.292969 299.175781 361.378906 299.988281 C 361.46875 300.796875 361.515625 301.613281 361.523438 302.429688 C 361.53125 303.246094 361.5 304.0625 361.425781 304.875 C 361.355469 305.691406 361.242188 306.5 361.089844 307.300781 C 360.9375 308.105469 360.75 308.898438 360.519531 309.679688 Z M 294.675781 168.117188 C 295.550781 168.117188 296.425781 168.074219 297.296875 167.988281 C 298.167969 167.902344 299.03125 167.773438 299.890625 167.601562 C 300.75 167.433594 301.597656 167.21875 302.433594 166.964844 C 303.269531 166.710938 304.09375 166.417969 304.902344 166.082031 C 305.710938 165.746094 306.5 165.371094 307.273438 164.960938 C 308.042969 164.546875 308.792969 164.097656 309.523438 163.609375 C 310.25 163.125 310.953125 162.605469 311.628906 162.046875 C 312.304688 161.492188 312.953125 160.90625 313.570312 160.285156 C 314.191406 159.667969 314.777344 159.019531 315.332031 158.34375 C 315.886719 157.664062 316.40625 156.964844 316.894531 156.234375 C 317.378906 155.507812 317.828125 154.757812 318.242188 153.984375 C 318.652344 153.214844 319.027344 152.421875 319.363281 151.613281 C 319.699219 150.804688 319.992188 149.980469 320.246094 149.144531 C 320.5 148.304688 320.710938 147.457031 320.882812 146.597656 C 321.054688 145.738281 321.183594 144.875 321.269531 144.003906 C 321.355469 143.132812 321.398438 142.257812 321.398438 141.382812 C 321.398438 140.507812 321.355469 139.632812 321.269531 138.761719 C 321.183594 137.890625 321.054688 137.027344 320.882812 136.167969 C 320.710938 135.308594 320.5 134.460938 320.246094 133.621094 C 319.992188 132.785156 319.699219 131.960938 319.363281 131.152344 C 319.027344 130.34375 318.652344 129.554688 318.242188 128.78125 C 317.828125 128.007812 317.378906 127.257812 316.894531 126.53125 C 316.40625 125.804688 315.886719 125.101562 315.332031 124.421875 C 314.777344 123.746094 314.191406 123.097656 313.570312 122.480469 C 312.953125 121.859375 312.304688 121.273438 311.628906 120.71875 C 310.953125 120.164062 310.25 119.640625 309.523438 119.15625 C 308.792969 118.667969 308.042969 118.21875 307.273438 117.804688 C 306.5 117.394531 305.710938 117.019531 304.902344 116.683594 C 304.09375 116.351562 303.269531 116.054688 302.433594 115.800781 C 301.597656 115.546875 300.75 115.335938 299.890625 115.164062 C 299.03125 114.992188 298.167969 114.863281 297.296875 114.777344 C 296.425781 114.691406 295.550781 114.648438 294.675781 114.648438 C 293.800781 114.648438 292.929688 114.691406 292.058594 114.777344 C 291.1875 114.863281 290.324219 114.992188 289.464844 115.164062 C 288.605469 115.335938 287.757812 115.546875 286.921875 115.800781 C 286.085938 116.054688 285.261719 116.351562 284.453125 116.683594 C 283.644531 117.019531 282.855469 117.394531 282.082031 117.804688 C 281.3125 118.21875 280.5625 118.667969 279.832031 119.15625 C 279.105469 119.640625 278.402344 120.164062 277.726562 120.71875 C 277.050781 121.273438 276.402344 121.859375 275.785156 122.480469 C 275.164062 123.097656 274.578125 123.746094 274.023438 124.421875 C 273.46875 125.101562 272.949219 125.804688 272.460938 126.53125 C 271.976562 127.257812 271.527344 128.007812 271.113281 128.78125 C 270.699219 129.554688 270.328125 130.34375 269.992188 131.152344 C 269.65625 131.960938 269.363281 132.785156 269.109375 133.621094 C 268.855469 134.460938 268.644531 135.308594 268.472656 136.167969 C 268.300781 137.027344 268.171875 137.890625 268.085938 138.761719 C 268 139.632812 267.957031 140.507812 267.957031 141.382812 C 267.957031 142.257812 268 143.132812 268.085938 144.003906 C 268.171875 144.875 268.300781 145.738281 268.472656 146.597656 C 268.644531 147.457031 268.855469 148.304688 269.109375 149.144531 C 269.363281 149.980469 269.65625 150.804688 269.992188 151.613281 C 270.328125 152.421875 270.699219 153.214844 271.113281 153.984375 C 271.527344 154.757812 271.976562 155.507812 272.460938 156.234375 C 272.949219 156.964844 273.46875 157.664062 274.023438 158.34375 C 274.578125 159.019531 275.164062 159.667969 275.785156 160.285156 C 276.402344 160.90625 277.050781 161.492188 277.726562 162.046875 C 278.402344 162.605469 279.105469 163.125 279.832031 163.609375 C 280.5625 164.097656 281.3125 164.546875 282.082031 164.960938 C 282.855469 165.371094 283.644531 165.746094 284.453125 166.082031 C 285.261719 166.417969 286.085938 166.710938 286.921875 166.964844 C 287.757812 167.21875 288.605469 167.433594 289.464844 167.601562 C 290.324219 167.773438 291.1875 167.902344 292.058594 167.988281 C 292.929688 168.074219 293.800781 168.117188 294.675781 168.117188 Z M 63.136719 249.847656 C 62.34375 249.21875 61.507812 248.648438 60.632812 248.132812 C 59.757812 247.617188 58.855469 247.164062 57.917969 246.773438 C 56.984375 246.382812 56.027344 246.058594 55.046875 245.796875 C 54.066406 245.535156 53.074219 245.339844 52.070312 245.214844 C 51.0625 245.089844 50.054688 245.03125 49.039062 245.042969 C 48.027344 245.054688 47.015625 245.136719 46.015625 245.285156 C 45.011719 245.433594 44.023438 245.648438 43.050781 245.929688 C 42.078125 246.214844 41.125 246.5625 40.199219 246.972656 C 20.742188 255.957031 10.355469 280.546875 24.976562 298.605469 C 33.519531 309.152344 50.042969 312.679688 61.585938 305.546875 C 63.558594 304.410156 65.191406 302.902344 66.484375 301.027344 C 70.382812 294.9375 67.230469 286.855469 68.464844 279.734375 C 68.9375 276.996094 70.070312 274.414062 70.6875 271.707031 C 70.898438 270.714844 71.042969 269.714844 71.117188 268.703125 C 71.191406 267.691406 71.199219 266.679688 71.136719 265.667969 C 71.074219 264.65625 70.945312 263.652344 70.746094 262.65625 C 70.550781 261.660156 70.285156 260.683594 69.953125 259.726562 C 69.621094 258.765625 69.226562 257.835938 68.769531 256.929688 C 68.3125 256.023438 67.796875 255.15625 67.21875 254.320312 C 66.644531 253.484375 66.015625 252.695312 65.332031 251.945312 C 64.648438 251.195312 63.917969 250.496094 63.136719 249.847656 Z M 63.136719 249.847656 " fill-opacity="1" fill-rule="nonzero"/><path fill="#9b131d" d="M 176.871094 95.539062 C 178.617188 97.140625 178.371094 99.902344 176.871094 101.535156 C 175.277344 103.273438 172.511719 103.035156 170.878906 101.535156 C 170.339844 101.039062 169.789062 100.558594 169.21875 100.097656 C 169.09375 99.996094 168.964844 99.894531 168.839844 99.792969 C 168.757812 99.726562 168.722656 99.695312 168.703125 99.679688 C 168.578125 99.59375 168.449219 99.511719 168.335938 99.425781 C 167.242188 98.644531 166.109375 97.925781 164.9375 97.269531 C 164.335938 96.933594 163.722656 96.613281 163.101562 96.3125 C 162.808594 96.167969 162.515625 96.03125 162.21875 95.898438 C 162.121094 95.851562 162.023438 95.808594 161.921875 95.765625 C 160.695312 95.292969 159.464844 94.847656 158.195312 94.488281 C 157.929688 94.410156 157.671875 94.3125 157.425781 94.183594 C 157.179688 94.058594 156.945312 93.910156 156.726562 93.738281 C 156.507812 93.566406 156.308594 93.378906 156.128906 93.167969 C 155.949219 92.957031 155.789062 92.730469 155.652344 92.488281 C 155.519531 92.246094 155.40625 91.992188 155.320312 91.730469 C 155.234375 91.464844 155.171875 91.195312 155.140625 90.921875 C 155.105469 90.644531 155.097656 90.371094 155.117188 90.09375 C 155.140625 89.816406 155.1875 89.542969 155.261719 89.277344 C 155.332031 89.007812 155.433594 88.75 155.558594 88.503906 C 155.679688 88.253906 155.828125 88.019531 156 87.800781 C 156.167969 87.582031 156.359375 87.382812 156.566406 87.199219 C 156.777344 87.019531 157.003906 86.859375 157.242188 86.722656 C 157.484375 86.582031 157.734375 86.46875 158 86.382812 C 158.261719 86.292969 158.53125 86.230469 158.804688 86.195312 C 159.082031 86.160156 159.355469 86.152344 159.632812 86.171875 C 159.910156 86.191406 160.183594 86.234375 160.449219 86.308594 C 163.507812 87.1875 166.425781 88.40625 169.199219 89.964844 C 171.972656 91.523438 174.53125 93.382812 176.871094 95.539062 Z M 218.496094 89.015625 C 214.855469 89.773438 211.351562 90.945312 207.988281 92.53125 C 204.621094 94.117188 201.488281 96.074219 198.585938 98.402344 C 197.757812 99.230469 197.34375 100.230469 197.34375 101.402344 C 197.355469 102.570312 197.769531 103.570312 198.585938 104.402344 C 199.417969 105.226562 200.414062 105.640625 201.585938 105.644531 C 202.71875 105.578125 203.707031 105.167969 204.558594 104.417969 L 204.457031 104.5 C 204.621094 104.375 204.785156 104.25 204.949219 104.128906 C 205.28125 103.886719 205.617188 103.648438 205.957031 103.414062 C 206.632812 102.949219 207.324219 102.503906 208.027344 102.078125 C 209.394531 101.25 210.800781 100.507812 212.25 99.839844 C 212.574219 99.691406 212.898438 99.519531 213.234375 99.402344 C 212.121094 99.792969 213.4375 99.328125 213.648438 99.246094 C 214.417969 98.949219 215.191406 98.675781 215.976562 98.421875 C 217.542969 97.921875 219.136719 97.511719 220.75 97.195312 C 222.929688 96.761719 224.378906 94.046875 223.710938 91.976562 C 223.550781 91.441406 223.296875 90.957031 222.945312 90.519531 C 222.597656 90.082031 222.183594 89.726562 221.695312 89.453125 C 221.210938 89.175781 220.691406 89 220.140625 88.925781 C 219.585938 88.847656 219.039062 88.878906 218.496094 89.015625 Z M 238.527344 293.3125 C 238.996094 291.554688 236.269531 290.800781 235.804688 292.5625 C 233 303.152344 233.042969 315.796875 241.71875 323.753906 C 243.058594 324.980469 245.0625 322.984375 243.71875 321.753906 C 235.789062 314.488281 235.976562 302.949219 238.527344 293.3125 Z M 257.683594 320.230469 C 249.523438 315.316406 249.839844 304.46875 250.234375 296.179688 C 250.320312 294.363281 247.496094 294.367188 247.410156 296.179688 C 246.960938 305.601562 247.117188 317.167969 256.257812 322.671875 C 257.820312 323.613281 259.242188 321.167969 257.683594 320.230469 Z M 307.273438 132.164062 C 306.15625 131.726562 305.003906 131.429688 303.816406 131.273438 C 302.625 131.117188 301.4375 131.101562 300.246094 131.234375 C 299.050781 131.363281 297.894531 131.636719 296.765625 132.046875 C 295.640625 132.457031 294.578125 132.996094 293.582031 133.664062 C 291.917969 134.847656 290.558594 136.316406 289.511719 138.070312 C 288.464844 139.828125 287.816406 141.71875 287.570312 143.75 C 287.238281 145.816406 287.4375 147.832031 288.167969 149.792969 C 288.207031 149.882812 288.257812 149.953125 288.300781 150.035156 C 288.339844 149.539062 288.4375 149.050781 288.597656 148.582031 C 289.753906 145.351562 293.292969 143.8125 296.53125 144.023438 C 299.207031 144.195312 303.546875 145.191406 302.832031 148.777344 C 302.253906 151.675781 299.148438 153.488281 296.558594 154.3125 C 294.886719 154.871094 293.171875 155.078125 291.414062 154.933594 C 291.210938 154.976562 291.007812 154.976562 290.804688 154.933594 C 290.589844 154.886719 290.382812 154.816406 290.183594 154.714844 C 289.570312 154.570312 288.980469 154.355469 288.421875 154.066406 C 285.734375 152.664062 284.902344 149.585938 284.683594 146.777344 C 284.625 146.054688 284.613281 145.332031 284.648438 144.609375 C 284.683594 143.886719 284.765625 143.167969 284.890625 142.457031 C 285.015625 141.742188 285.1875 141.042969 285.398438 140.351562 C 285.613281 139.660156 285.871094 138.984375 286.171875 138.324219 C 286.46875 137.667969 286.808594 137.03125 287.191406 136.414062 C 287.570312 135.796875 287.988281 135.207031 288.441406 134.644531 C 288.898438 134.082031 289.386719 133.550781 289.90625 133.050781 C 290.429688 132.546875 290.980469 132.082031 291.5625 131.648438 C 292.140625 131.21875 292.75 130.824219 293.378906 130.46875 C 294.007812 130.117188 294.660156 129.800781 295.328125 129.53125 C 296 129.257812 296.683594 129.027344 297.382812 128.839844 C 298.082031 128.65625 298.789062 128.515625 299.507812 128.417969 C 300.222656 128.320312 300.945312 128.269531 301.667969 128.265625 C 302.390625 128.261719 303.113281 128.300781 303.832031 128.386719 C 304.550781 128.472656 305.257812 128.601562 305.960938 128.777344 C 306.664062 128.953125 307.351562 129.171875 308.023438 129.4375 C 309.707031 130.085938 308.96875 132.820312 307.273438 132.164062 Z M 291.125 151.019531 C 291.175781 151.335938 291.242188 151.648438 291.332031 151.957031 C 291.34375 151.996094 291.359375 152.035156 291.382812 152.074219 C 291.847656 152.140625 292.316406 152.167969 292.789062 152.152344 C 294.851562 152.097656 296.730469 151.484375 298.425781 150.300781 C 298.921875 149.933594 300.390625 148.707031 300.078125 147.933594 C 299.792969 147.222656 297.78125 147 297.148438 146.910156 C 295.121094 146.625 292.683594 147.050781 291.535156 148.941406 C 291.160156 149.585938 291.023438 150.28125 291.125 151.019531 Z M 66.414062 291.601562 C 62.738281 291.558594 59.117188 291.96875 55.542969 292.832031 C 51.972656 293.695312 48.5625 294.988281 45.3125 296.703125 C 43.703125 297.550781 45.128906 299.992188 46.738281 299.144531 C 49.769531 297.550781 52.949219 296.355469 56.28125 295.554688 C 59.613281 294.757812 62.988281 294.382812 66.414062 294.429688 C 68.230469 294.449219 68.234375 291.625 66.414062 291.601562 Z M 66.894531 276.167969 C 64.453125 276.027344 62.015625 276.09375 59.585938 276.367188 C 57.15625 276.636719 54.765625 277.113281 52.414062 277.789062 C 50.0625 278.464844 47.785156 279.335938 45.582031 280.398438 C 43.378906 281.460938 41.28125 282.703125 39.289062 284.117188 C 37.820312 285.167969 39.230469 287.621094 40.714844 286.5625 C 42.601562 285.210938 44.589844 284.027344 46.679688 283.015625 C 48.765625 282.003906 50.925781 281.175781 53.15625 280.53125 C 55.386719 279.886719 57.652344 279.4375 59.960938 279.179688 C 62.265625 278.921875 64.578125 278.859375 66.894531 278.996094 C 68.710938 279.105469 68.703125 276.277344 66.894531 276.167969 Z M 63.34375 260.28125 C 58.519531 260.65625 53.816406 261.628906 49.234375 263.195312 C 44.65625 264.765625 40.34375 266.882812 36.300781 269.546875 C 34.789062 270.542969 36.203125 272.992188 37.726562 271.988281 C 42.484375 268.847656 47.609375 266.503906 53.097656 264.957031 C 55.792969 264.191406 58.53125 263.644531 61.316406 263.308594 C 62.664062 263.148438 64.019531 263.042969 65.378906 262.984375 C 66.082031 262.957031 68.117188 262.582031 68.535156 263.371094 C 69.386719 264.976562 71.828125 263.550781 70.972656 261.941406 C 69.609375 259.375 65.703125 260.09375 63.34375 260.28125 Z M 63.34375 260.28125 " fill-opacity="1" fill-rule="nonzero"/><path fill="#000000" d="M 233.046875 229.601562 C 230.875 227.925781 228.464844 226.726562 225.820312 226.007812 C 224.664062 223.15625 223.160156 220.503906 221.3125 218.046875 C 215.640625 210.546875 207.085938 206 197.578125 207.21875 C 188.671875 208.363281 175.933594 212.808594 170.460938 220.449219 C 168.011719 223.871094 167.382812 227.71875 167.558594 231.734375 C 165.820312 232.460938 164.238281 233.433594 162.808594 234.65625 C 161.378906 235.878906 160.171875 237.296875 159.191406 238.902344 C 156.984375 242.652344 155.9375 247.570312 158.101562 251.570312 C 160.148438 255.355469 164.042969 257.1875 168.136719 255.777344 C 168.363281 255.707031 168.539062 255.570312 168.667969 255.371094 C 168.796875 255.167969 168.84375 254.949219 168.8125 254.714844 C 168.78125 254.476562 168.675781 254.28125 168.5 254.121094 C 168.324219 253.960938 168.113281 253.875 167.875 253.867188 C 156.839844 253.824219 161.945312 239.835938 167.992188 236.5 C 168.003906 236.492188 168.019531 236.488281 168.03125 236.480469 C 168.5625 240.261719 169.597656 244.164062 172.863281 246.433594 C 180.253906 251.570312 186.867188 242.847656 182.730469 235.984375 C 182.261719 235.144531 181.6875 234.382812 181.011719 233.695312 C 180.335938 233.011719 179.582031 232.429688 178.746094 231.949219 C 177.914062 231.46875 177.03125 231.105469 176.101562 230.863281 C 175.167969 230.625 174.222656 230.507812 173.261719 230.523438 C 173.523438 226.070312 175.355469 222.378906 180.035156 219.578125 C 185.019531 216.675781 190.335938 214.636719 195.980469 213.457031 C 202.179688 212.15625 208.101562 213.542969 212.851562 217.769531 C 215.351562 220.003906 217.4375 222.574219 219.105469 225.488281 C 218.277344 225.585938 217.476562 225.792969 216.707031 226.113281 C 215.9375 226.433594 215.226562 226.855469 214.574219 227.371094 C 213.921875 227.890625 213.351562 228.484375 212.863281 229.160156 C 212.375 229.839844 211.988281 230.566406 211.703125 231.351562 C 209.003906 238.246094 215.296875 246.367188 222.574219 242.101562 C 226.253906 239.945312 227.523438 236.625 227.425781 233.023438 C 232.890625 236.210938 236.570312 243.441406 230.980469 248.394531 C 228.09375 250.953125 232.265625 254.941406 235.164062 252.578125 C 242.910156 246.269531 240.03125 235.164062 233.046875 229.601562 Z M 178.636719 238.378906 C 180.304688 241.261719 177.304688 244.917969 174.828125 240.917969 C 174.144531 239.8125 173.953125 238.210938 173.738281 236.964844 C 173.636719 236.394531 173.554688 235.835938 173.484375 235.28125 C 174.550781 235.328125 175.539062 235.625 176.453125 236.175781 C 177.367188 236.722656 178.097656 237.457031 178.636719 238.378906 Z M 217.234375 236.171875 C 216.6875 235.433594 217.234375 233.429688 217.695312 232.8125 C 218.125 232.285156 218.652344 231.882812 219.273438 231.605469 C 219.894531 231.328125 220.546875 231.207031 221.226562 231.238281 C 221.292969 231.636719 221.335938 232.035156 221.363281 232.4375 C 221.4375 233.703125 219.691406 239.496094 217.234375 236.171875 Z M 227.402344 328.835938 C 225.007812 330.582031 223.625 333.242188 220.804688 334.527344 C 219.558594 335.085938 218.257812 335.425781 216.898438 335.546875 C 217.226562 335.003906 217.515625 334.4375 217.757812 333.847656 C 217.851562 333.671875 217.925781 333.488281 217.980469 333.296875 C 218.050781 333.097656 218.09375 332.898438 218.113281 332.691406 C 218.328125 331.753906 218.3125 330.820312 218.066406 329.890625 C 217.816406 328.960938 217.363281 328.148438 216.707031 327.445312 C 216.109375 326.898438 215.417969 326.523438 214.632812 326.316406 C 213.851562 326.113281 213.0625 326.101562 212.273438 326.28125 C 212.078125 326.277344 211.886719 326.308594 211.703125 326.371094 C 206.554688 328.144531 206.675781 333.273438 209.421875 336.667969 C 208.6875 337.144531 207.921875 337.570312 207.128906 337.949219 C 206.679688 337.949219 206.257812 338.058594 205.867188 338.28125 C 204.574219 339.003906 203.195312 339.480469 201.730469 339.703125 C 204.308594 336.976562 205.042969 333.660156 202.140625 330.640625 C 198.558594 326.917969 192.832031 330.929688 192.59375 335.371094 C 192.449219 336.910156 192.761719 338.351562 193.535156 339.695312 C 187.855469 341.972656 183.429688 340.105469 178.265625 337.613281 C 177.445312 337.21875 176.085938 337.902344 176.515625 338.960938 C 179.871094 347.238281 190.796875 346.578125 197.820312 342.660156 C 200.9375 343.542969 204.832031 343.210938 207.707031 342.644531 C 208.238281 342.558594 208.667969 342.300781 208.996094 341.875 C 210.527344 341.222656 211.960938 340.402344 213.304688 339.417969 C 213.34375 339.433594 213.382812 339.449219 213.421875 339.460938 C 219.160156 341.320312 230.289062 337.621094 229.664062 330.132812 C 229.578125 329.117188 228.410156 328.105469 227.402344 328.835938 Z M 197.078125 332.820312 C 198.4375 333.164062 197.96875 334.097656 197.785156 335.367188 C 197.703125 336.402344 197.296875 337.292969 196.570312 338.035156 C 196.398438 337.328125 196.421875 336.625 196.636719 335.925781 C 195.46875 334.050781 195.613281 333.015625 197.078125 332.820312 Z M 212.4375 329.832031 C 213.613281 329.996094 213.617188 330.835938 213.296875 332.003906 C 213.035156 332.835938 212.632812 333.597656 212.089844 334.28125 C 210.949219 333.199219 209.34375 330.570312 212.4375 329.832031 Z M 129.09375 308.367188 C 127.890625 308.972656 126.855469 309.785156 125.984375 310.808594 C 125.117188 309.269531 124.476562 307.648438 124.054688 305.933594 C 122.828125 301.191406 122.785156 296.433594 123.933594 291.671875 C 124.289062 290.121094 124.742188 288.597656 125.292969 287.105469 C 125.367188 286.890625 125.445312 286.679688 125.523438 286.46875 C 127.699219 288.285156 130.386719 289.109375 132.964844 287.0625 C 136.460938 284.292969 135.015625 278.804688 130.3125 279.15625 C 127.949219 279.328125 126.199219 280.910156 124.894531 283.054688 C 124.699219 282.699219 124.550781 282.328125 124.445312 281.9375 C 121.972656 278.316406 121.425781 273.648438 121.625 269.375 C 121.765625 266.851562 122.132812 264.359375 122.726562 261.902344 C 122.851562 261.351562 123.121094 260.15625 123.550781 258.824219 C 125.644531 260.613281 130.6875 261.921875 132.820312 260.546875 C 135.28125 258.957031 133.945312 255.226562 132.15625 253.675781 C 131.859375 253.414062 131.519531 253.328125 131.136719 253.425781 C 131.132812 253.421875 131.132812 253.414062 131.125 253.410156 C 129.277344 251.617188 127.523438 251.636719 126.035156 252.546875 C 126.007812 251.511719 126.039062 250.476562 126.121094 249.445312 C 126.253906 247.359375 126.699219 245.34375 127.464844 243.398438 C 128.230469 241.453125 129.273438 239.671875 130.601562 238.054688 C 130.675781 237.976562 130.6875 237.886719 130.628906 237.792969 C 130.574219 237.695312 130.492188 237.660156 130.386719 237.6875 C 126.449219 238.574219 124.585938 240.574219 123.132812 244.460938 C 121.910156 247.722656 120.609375 253.746094 122.414062 257.3125 C 122.246094 257.710938 122.097656 258.105469 121.976562 258.488281 C 119.667969 265.75 118.460938 274.28125 121.742188 281.441406 C 122.324219 282.683594 123.058594 283.828125 123.941406 284.875 C 122.695312 287.894531 121.855469 291.023438 121.421875 294.261719 C 120.492188 300.304688 120.839844 307.800781 124.332031 313.15625 C 123.300781 315.113281 122.554688 317.171875 122.085938 319.335938 C 121.621094 321.496094 121.453125 323.683594 121.585938 325.890625 C 122.042969 332.664062 125.625 340.078125 131.726562 343.429688 C 133.082031 344.171875 134.578125 342.367188 133.410156 341.242188 C 128.0625 336.097656 124.742188 330.398438 124.851562 322.773438 C 124.867188 320.253906 125.355469 317.832031 126.3125 315.5 C 129.644531 318.347656 135.292969 318.925781 136.933594 313.785156 C 138.460938 308.976562 132.894531 306.519531 129.09375 308.367188 Z M 130.125 254.40625 C 130.175781 254.449219 130.226562 254.480469 130.285156 254.507812 C 130.289062 254.6875 130.335938 254.855469 130.421875 255.011719 C 131.257812 256.554688 132.445312 256.445312 130.550781 256.414062 C 129.550781 256.378906 128.578125 256.199219 127.628906 255.875 C 126.859375 255.445312 126.394531 254.796875 126.234375 253.929688 C 127.277344 253.054688 128.5625 252.9375 130.125 254.40625 Z M 127.613281 313.09375 C 127.652344 313.039062 127.683594 312.972656 127.726562 312.917969 C 129.085938 310.238281 131.007812 310.476562 133.492188 313.636719 C 131.042969 314.753906 129.085938 314.558594 127.613281 313.09375 Z M 127.613281 313.09375 " fill-opacity="1" fill-rule="nonzero"/><path fill="#eec51d" d="M 98.199219 42.566406 L 98.101562 42.597656 C 98.054688 41.90625 97.988281 41.21875 97.902344 40.53125 C 97.816406 39.84375 97.710938 39.160156 97.585938 38.480469 C 97.457031 37.800781 97.316406 37.125 97.152344 36.453125 C 96.988281 35.78125 96.804688 35.113281 96.605469 34.453125 C 96.40625 33.789062 96.183594 33.132812 95.949219 32.484375 C 95.710938 31.835938 95.453125 31.191406 95.179688 30.558594 C 94.90625 29.921875 94.613281 29.292969 94.304688 28.675781 C 93.996094 28.058594 93.667969 27.449219 93.324219 26.847656 C 92.980469 26.246094 92.621094 25.65625 92.246094 25.078125 C 91.867188 24.496094 91.472656 23.929688 91.066406 23.371094 C 90.65625 22.8125 90.230469 22.265625 89.792969 21.734375 C 89.351562 21.199219 88.898438 20.679688 88.429688 20.167969 C 87.960938 19.660156 87.476562 19.167969 86.980469 18.6875 C 86.484375 18.203125 85.972656 17.738281 85.449219 17.285156 C 84.925781 16.832031 84.390625 16.398438 83.84375 15.976562 C 83.296875 15.554688 82.734375 15.148438 82.164062 14.757812 C 81.59375 14.367188 81.011719 13.992188 80.421875 13.632812 C 79.828125 13.277344 79.226562 12.9375 78.617188 12.613281 C 78.007812 12.289062 77.386719 11.980469 76.757812 11.691406 C 76.128906 11.402344 75.492188 11.132812 74.851562 10.878906 C 74.207031 10.628906 73.554688 10.394531 72.898438 10.175781 C 72.242188 9.960938 71.582031 9.761719 70.914062 9.585938 C 70.246094 9.40625 69.570312 9.246094 68.894531 9.105469 C 68.21875 8.964844 67.539062 8.84375 66.855469 8.738281 C 66.171875 8.636719 65.484375 8.554688 64.796875 8.488281 C 64.105469 8.425781 63.417969 8.382812 62.726562 8.355469 C 62.035156 8.332031 61.34375 8.324219 60.652344 8.339844 C 59.960938 8.355469 59.273438 8.386719 58.582031 8.441406 C 57.894531 8.492188 57.207031 8.566406 56.519531 8.65625 C 55.835938 8.75 55.152344 8.859375 54.472656 8.992188 C 53.792969 9.121094 53.121094 9.269531 52.449219 9.4375 C 51.777344 9.605469 51.113281 9.792969 50.453125 10 C 49.792969 10.207031 49.140625 10.429688 48.492188 10.671875 C 47.84375 10.914062 47.203125 11.175781 46.570312 11.453125 C 45.9375 11.734375 45.3125 12.03125 44.699219 12.34375 C 44.082031 12.65625 43.476562 12.988281 42.878906 13.335938 C 42.28125 13.6875 41.691406 14.050781 41.117188 14.433594 C 40.539062 14.8125 39.972656 15.210938 39.417969 15.625 C 38.863281 16.039062 38.324219 16.464844 37.792969 16.910156 C 37.261719 17.355469 36.746094 17.8125 36.238281 18.285156 C 35.734375 18.757812 35.246094 19.246094 34.769531 19.746094 C 34.289062 20.246094 33.828125 20.761719 33.378906 21.289062 C 32.933594 21.816406 32.5 22.355469 32.082031 22.90625 C 31.664062 23.457031 31.261719 24.019531 30.875 24.59375 C 30.488281 25.167969 30.121094 25.75 29.765625 26.347656 C 29.414062 26.941406 29.078125 27.542969 28.757812 28.160156 C 28.441406 28.773438 28.136719 29.394531 27.855469 30.027344 C 27.570312 30.65625 27.304688 31.292969 27.054688 31.941406 C 26.808594 32.585938 26.578125 33.238281 26.367188 33.898438 C 26.15625 34.554688 25.964844 35.21875 25.789062 35.890625 C 25.617188 36.558594 25.460938 37.234375 25.324219 37.910156 C 25.191406 38.589844 25.074219 39.269531 24.976562 39.957031 C 24.878906 40.640625 24.800781 41.328125 24.742188 42.015625 C 24.683594 42.707031 24.644531 43.398438 24.625 44.089844 C 24.601562 44.78125 24.601562 45.472656 24.621094 46.164062 C 24.640625 46.855469 24.679688 47.546875 24.738281 48.234375 C 24.796875 48.921875 24.875 49.609375 24.96875 50.296875 C 25.066406 50.980469 25.183594 51.664062 25.316406 52.339844 C 25.453125 53.019531 25.609375 53.695312 25.78125 54.363281 C 25.953125 55.03125 26.144531 55.699219 26.355469 56.355469 C 26.566406 57.015625 26.796875 57.667969 27.042969 58.3125 C 27.289062 58.960938 27.554688 59.597656 27.839844 60.230469 C 28.121094 60.859375 28.421875 61.484375 28.742188 62.097656 C 29.058594 62.710938 29.394531 63.316406 29.75 63.910156 C 32.164062 67.976562 35.246094 71.453125 38.992188 74.335938 L 59.523438 97.488281 L 92.710938 87.160156 C 92.710938 87.160156 98.605469 53.703125 98.597656 44.738281 C 98.597656 43.457031 98.476562 42.675781 98.199219 42.566406 Z M 98.199219 42.566406 " fill-opacity="1" fill-rule="nonzero"/><path fill="#000000" d="M 75.792969 99.230469 C 81.554688 98.320312 89.796875 98.113281 94.550781 94.539062 C 96.578125 93.011719 96.636719 89.546875 93.800781 88.804688 C 89.828125 87.769531 85.074219 88.71875 80.628906 89.875 C 78.191406 87.007812 76.464844 83.757812 75.457031 80.132812 C 74.964844 78.402344 74.570312 76.652344 74.273438 74.875 C 76.066406 73.753906 77.488281 72.273438 78.53125 70.433594 C 79.191406 69.289062 79.648438 68.066406 79.894531 66.765625 C 80.144531 65.464844 80.171875 64.160156 79.976562 62.851562 C 79.761719 61.492188 79.28125 60.109375 77.847656 59.640625 C 77.132812 59.46875 76.421875 59.457031 75.703125 59.597656 C 74.984375 59.742188 74.328125 60.027344 73.738281 60.457031 C 71.324219 62.078125 70.441406 64.910156 70.371094 67.691406 C 70.347656 69.484375 70.457031 71.269531 70.703125 73.046875 C 69.6875 73.460938 68.636719 73.726562 67.550781 73.847656 C 66.546875 73.953125 65.539062 73.960938 64.535156 73.871094 C 63.808594 72.5 63.011719 71.167969 62.148438 69.882812 C 60.761719 67.84375 58.914062 65.832031 56.34375 65.484375 C 55.984375 65.394531 55.636719 65.417969 55.292969 65.558594 C 54.953125 65.699219 54.683594 65.925781 54.492188 66.238281 C 54.207031 66.902344 54.03125 67.597656 53.96875 68.316406 C 53.90625 69.035156 53.953125 69.746094 54.117188 70.453125 C 54.277344 71.15625 54.546875 71.816406 54.917969 72.4375 C 55.289062 73.058594 55.75 73.601562 56.292969 74.078125 C 58.066406 75.566406 60.097656 76.488281 62.386719 76.847656 C 62.84375 77.742188 63.289062 78.644531 63.699219 79.5625 C 65.605469 83.871094 66.945312 88.351562 67.726562 92.996094 C 63.894531 93.90625 60.121094 95.105469 57.113281 97.46875 C 56.027344 98.324219 56.734375 100.09375 57.894531 100.421875 C 63.566406 102.039062 70.113281 100.121094 75.792969 99.230469 Z M 76.613281 62.730469 C 76.578125 62.699219 76.589844 62.683594 76.613281 62.730469 Z M 73.703125 67.691406 C 73.742188 65.917969 74.246094 63.546875 76.175781 62.898438 C 76.324219 62.84375 76.476562 62.804688 76.632812 62.785156 C 76.65625 62.875 76.667969 62.960938 76.671875 63.050781 C 76.703125 63.476562 76.820312 63.882812 76.835938 64.316406 C 76.863281 65.265625 76.730469 66.195312 76.433594 67.097656 C 75.925781 68.679688 75.050781 70.023438 73.808594 71.121094 C 73.71875 69.96875 73.679688 68.820312 73.703125 67.691406 Z M 57.132812 69.269531 C 58.355469 70.179688 59.316406 71.304688 60.027344 72.652344 L 60.042969 72.683594 C 58.734375 72.003906 57.324219 70.742188 57.132812 69.269531 Z M 66.1875 77.203125 C 67.894531 77.179688 69.558594 76.894531 71.175781 76.347656 C 72.007812 81.386719 73.675781 86.808594 76.976562 90.855469 C 76.164062 91.074219 75.371094 91.28125 74.613281 91.464844 C 73.382812 91.761719 72.105469 92.035156 70.8125 92.308594 C 69.945312 87.066406 68.402344 82.03125 66.1875 77.203125 Z M 96.921875 104.9375 C 92.902344 108.597656 86.488281 108.230469 81.292969 108.871094 C 75.230469 109.617188 69.042969 110.59375 62.933594 109.894531 C 58.8125 109.417969 57.839844 104.039062 61.945312 102.601562 C 67.726562 100.582031 73.957031 100.074219 79.984375 99.203125 C 85.28125 98.4375 91.121094 96.339844 96.121094 98.691406 C 98.390625 99.761719 98.699219 103.320312 96.921875 104.9375 Z M 93.972656 115.964844 C 89.582031 118.640625 84.109375 118.210938 79.117188 118.585938 C 74.144531 118.960938 68.394531 119.953125 63.628906 118.148438 C 62.472656 117.710938 61.773438 116.15625 62.847656 115.195312 C 66.796875 111.65625 72.550781 110.816406 77.652344 110.09375 C 83.050781 109.324219 88.992188 108.210938 93.972656 110.855469 C 95.988281 111.921875 95.800781 114.851562 93.972656 115.964844 Z M 103.761719 71.980469 C 103.597656 72.074219 103.421875 72.136719 103.234375 72.167969 C 103.046875 72.199219 102.863281 72.195312 102.675781 72.15625 C 102.492188 72.121094 102.320312 72.050781 102.15625 71.953125 C 101.996094 71.851562 101.859375 71.730469 101.742188 71.578125 C 101.625 71.429688 101.539062 71.265625 101.480469 71.085938 C 101.425781 70.902344 101.402344 70.71875 101.414062 70.527344 C 101.425781 70.339844 101.46875 70.160156 101.546875 69.984375 C 101.625 69.8125 101.730469 69.660156 101.867188 69.523438 C 104.195312 67.722656 106.613281 66.035156 108.964844 64.253906 C 110.078125 63.410156 111.179688 62.542969 112.265625 61.660156 C 113.421875 60.71875 114.582031 59.4375 115.972656 58.890625 C 117.378906 58.34375 118.527344 60.179688 117.851562 61.335938 C 117.378906 62.007812 116.804688 62.578125 116.128906 63.046875 C 115.578125 63.5 115.027344 63.949219 114.46875 64.394531 C 113.304688 65.324219 112.128906 66.238281 110.9375 67.136719 C 108.652344 68.910156 106.261719 70.527344 103.761719 71.980469 Z M 121.40625 75.890625 C 120.765625 77.40625 118.601562 77.582031 117.183594 77.921875 C 115.753906 78.261719 114.3125 78.535156 112.875 78.816406 C 111.433594 79.101562 109.996094 79.398438 108.542969 79.617188 C 107.746094 79.742188 106.949219 79.871094 106.148438 79.972656 C 105.347656 80.070312 104.480469 80.292969 103.78125 79.78125 C 103.644531 79.699219 103.527344 79.589844 103.429688 79.460938 C 103.335938 79.332031 103.269531 79.191406 103.226562 79.035156 C 103.1875 78.878906 103.175781 78.722656 103.195312 78.5625 C 103.214844 78.402344 103.265625 78.25 103.34375 78.109375 C 103.832031 77.296875 104.65625 77.140625 105.515625 76.894531 C 106.21875 76.695312 106.933594 76.527344 107.640625 76.34375 C 109.105469 75.957031 110.589844 75.640625 112.066406 75.292969 C 113.542969 74.941406 115.015625 74.582031 116.5 74.261719 C 117.21875 74.109375 117.933594 73.9375 118.660156 73.828125 C 119.109375 73.707031 119.558594 73.699219 120.011719 73.804688 C 120.464844 73.910156 120.867188 74.117188 121.21875 74.425781 C 121.40625 74.621094 121.515625 74.855469 121.550781 75.128906 C 121.585938 75.398438 121.539062 75.652344 121.40625 75.890625 Z M 119.292969 94.730469 C 119.289062 94.917969 119.246094 95.101562 119.171875 95.277344 C 119.097656 95.449219 118.992188 95.605469 118.859375 95.738281 C 118.726562 95.875 118.570312 95.976562 118.394531 96.054688 C 118.222656 96.128906 118.039062 96.167969 117.851562 96.171875 C 117.140625 96.148438 116.511719 95.914062 115.960938 95.464844 C 115.519531 95.195312 115.082031 94.929688 114.652344 94.640625 C 113.792969 94.058594 112.90625 93.523438 111.988281 93.03125 C 111.503906 92.773438 111.003906 92.550781 110.507812 92.316406 L 110.480469 92.304688 L 110.464844 92.296875 C 110.351562 92.25 110.234375 92.207031 110.125 92.160156 C 109.914062 92.074219 109.703125 91.984375 109.492188 91.894531 L 109.449219 91.878906 L 109.359375 91.84375 C 108.386719 91.46875 107.402344 91.140625 106.410156 90.828125 C 106.222656 90.773438 106.046875 90.6875 105.890625 90.570312 C 105.730469 90.453125 105.597656 90.308594 105.488281 90.144531 C 105.382812 89.980469 105.304688 89.800781 105.261719 89.609375 C 105.21875 89.414062 105.210938 89.222656 105.234375 89.027344 C 105.261719 88.828125 105.320312 88.644531 105.414062 88.46875 C 105.503906 88.292969 105.625 88.140625 105.773438 88.011719 C 105.921875 87.878906 106.089844 87.777344 106.273438 87.707031 C 106.457031 87.636719 106.648438 87.601562 106.847656 87.601562 C 109.328125 87.800781 111.671875 88.46875 113.886719 89.605469 C 114.902344 90.101562 115.867188 90.691406 116.773438 91.371094 C 117.785156 92.128906 119.320312 93.339844 119.292969 94.730469 Z M 43.246094 95.25 C 40.199219 96.570312 37.140625 97.804688 34.007812 98.902344 C 32.492188 99.429688 30.964844 99.929688 29.433594 100.402344 C 28.078125 100.8125 25.792969 101.738281 24.515625 100.792969 C 24.285156 100.652344 24.117188 100.457031 24.015625 100.207031 C 23.914062 99.957031 23.898438 99.699219 23.964844 99.4375 C 24.535156 97.84375 26.652344 97.339844 28.109375 96.851562 C 29.632812 96.339844 31.152344 95.824219 32.671875 95.304688 C 35.757812 94.253906 38.84375 93.1875 41.914062 92.085938 C 43.753906 91.425781 45.03125 94.476562 43.246094 95.25 Z M 43.53125 106.308594 C 42.796875 106.996094 42.09375 107.714844 41.429688 108.46875 C 41.089844 108.855469 40.746094 109.238281 40.417969 109.632812 C 40.253906 109.828125 40.089844 110.03125 39.929688 110.230469 C 39.851562 110.332031 39.773438 110.433594 39.691406 110.53125 L 39.683594 110.542969 L 39.648438 110.589844 C 39.289062 111.085938 38.902344 111.5625 38.484375 112.011719 C 38.015625 112.511719 37.71875 113.003906 37.019531 113.222656 C 36.839844 113.269531 36.660156 113.28125 36.476562 113.257812 C 36.292969 113.234375 36.121094 113.179688 35.960938 113.085938 C 35.800781 112.996094 35.664062 112.878906 35.546875 112.730469 C 35.433594 112.585938 35.351562 112.425781 35.300781 112.246094 C 35.191406 111.699219 35.265625 111.175781 35.523438 110.679688 C 35.566406 110.585938 35.609375 110.492188 35.648438 110.394531 C 35.664062 110.359375 35.835938 109.902344 35.726562 110.234375 C 35.945312 109.632812 36.246094 109.074219 36.628906 108.554688 C 37.277344 107.589844 37.984375 106.664062 38.75 105.789062 C 40.273438 104.089844 41.957031 102.570312 43.800781 101.226562 C 44.648438 100.597656 45.875 101.121094 46.378906 101.902344 C 46.5 102.121094 46.574219 102.351562 46.605469 102.597656 C 46.636719 102.84375 46.617188 103.085938 46.554688 103.328125 C 46.492188 103.566406 46.386719 103.789062 46.242188 103.988281 C 46.09375 104.1875 45.914062 104.351562 45.703125 104.480469 C 45.605469 104.554688 45.511719 104.625 45.414062 104.699219 C 45.386719 104.722656 45.34375 104.757812 45.289062 104.800781 C 45.085938 104.960938 44.886719 105.121094 44.691406 105.289062 C 44.296875 105.617188 43.910156 105.960938 43.53125 106.308594 Z M 48.679688 109.734375 C 49.039062 110.878906 48.425781 112.453125 48.164062 113.589844 C 47.902344 114.730469 47.652344 115.871094 47.363281 117.003906 C 46.765625 119.363281 46.132812 121.6875 45.382812 124.003906 C 45.324219 124.183594 45.234375 124.347656 45.113281 124.496094 C 44.996094 124.640625 44.851562 124.761719 44.683594 124.851562 C 44.515625 124.941406 44.339844 125 44.152344 125.019531 C 43.960938 125.042969 43.777344 125.027344 43.59375 124.976562 C 43.410156 124.925781 43.242188 124.84375 43.09375 124.730469 C 42.941406 124.613281 42.816406 124.472656 42.722656 124.308594 C 42.625 124.148438 42.5625 123.972656 42.535156 123.78125 C 42.503906 123.59375 42.511719 123.410156 42.558594 123.222656 C 43.039062 120.835938 43.621094 118.5 44.253906 116.144531 C 44.554688 115.019531 44.894531 113.902344 45.226562 112.78125 C 45.554688 111.664062 45.78125 110.023438 46.65625 109.203125 C 46.730469 109.128906 46.816406 109.066406 46.90625 109.015625 C 47 108.964844 47.097656 108.925781 47.199219 108.898438 C 47.300781 108.871094 47.402344 108.859375 47.507812 108.859375 C 47.613281 108.859375 47.714844 108.875 47.816406 108.898438 C 47.917969 108.925781 48.015625 108.964844 48.109375 109.019531 C 48.199219 109.070312 48.28125 109.132812 48.359375 109.207031 C 48.433594 109.277344 48.5 109.359375 48.554688 109.449219 C 48.605469 109.539062 48.648438 109.636719 48.679688 109.734375 Z M 48.679688 109.734375 " fill-opacity="1" fill-rule="nonzero"/></svg>