<svg xmlns="http://www.w3.org/2000/svg" xmlns:xlink="http://www.w3.org/1999/xlink" width="500" zoomAndPan="magnify" viewBox="0 0 375 374.999991" height="500" preserveAspectRatio="xMidYMid meet" version="1.0"><defs><clipPath id="f79271569e"><path d="M 95.058594 168.6875 L 207.558594 168.6875 L 207.558594 281.1875 L 95.058594 281.1875 Z M 95.058594 168.6875 " clip-rule="nonzero"/></clipPath><clipPath id="f762406464"><path d="M 112.308594 168.6875 L 190.308594 168.6875 C 194.886719 168.6875 199.273438 170.503906 202.507812 173.738281 C 205.742188 176.976562 207.558594 181.363281 207.558594 185.9375 L 207.558594 263.9375 C 207.558594 268.511719 205.742188 272.898438 202.507812 276.136719 C 199.273438 279.371094 194.886719 281.1875 190.308594 281.1875 L 112.308594 281.1875 C 107.734375 281.1875 103.347656 279.371094 100.113281 276.136719 C 96.878906 272.898438 95.058594 268.511719 95.058594 263.9375 L 95.058594 185.9375 C 95.058594 181.363281 96.878906 176.976562 100.113281 173.738281 C 103.347656 170.503906 107.734375 168.6875 112.308594 168.6875 Z M 112.308594 168.6875 " clip-rule="nonzero"/></clipPath><clipPath id="575c73ac86"><path d="M 4 27 L 374 27 L 374 370.601562 L 4 370.601562 Z M 4 27 " clip-rule="nonzero"/></clipPath><clipPath id="30f7e85589"><path d="M 12 242 L 299 242 L 299 370.601562 L 12 370.601562 Z M 12 242 " clip-rule="nonzero"/></clipPath></defs><g clip-path="url(#f79271569e)"><g clip-path="url(#f762406464)"><path fill="#ce4e60" d="M 95.058594 168.6875 L 207.558594 168.6875 L 207.558594 281.1875 L 95.058594 281.1875 Z M 95.058594 168.6875 " fill-opacity="1" fill-rule="nonzero"/></g></g><g clip-path="url(#575c73ac86)"><path fill="#d16a46" d="M 370.523438 227.03125 C 370.054688 226.058594 369.53125 225.117188 368.957031 224.203125 C 365.363281 204.925781 350.316406 193.410156 332.042969 186.53125 C 332.78125 186.101562 333.519531 185.667969 334.257812 185.210938 C 337.179688 183.390625 339.984375 181.40625 342.671875 179.257812 C 345.820312 176.796875 348.742188 174.085938 351.429688 171.128906 L 351.5625 170.257812 C 349.867188 166.644531 347.882812 163.199219 345.613281 159.917969 C 343.683594 157.0625 341.589844 154.335938 339.328125 151.734375 C 337.285156 149.394531 335.113281 147.175781 332.816406 145.085938 C 330.695312 143.140625 328.460938 141.339844 326.113281 139.679688 C 320.972656 135.953125 315.40625 133.042969 309.414062 130.949219 C 303.421875 128.855469 297.257812 127.667969 290.914062 127.378906 C 291.214844 126.605469 291.472656 125.816406 291.699219 125.011719 C 291.921875 124.210938 292.109375 123.402344 292.257812 122.582031 C 292.402344 121.765625 292.511719 120.941406 292.582031 120.113281 C 292.65625 119.28125 292.6875 118.453125 292.679688 117.621094 C 292.671875 116.789062 292.625 115.957031 292.542969 115.132812 C 292.457031 114.304688 292.332031 113.480469 292.171875 112.664062 C 292.011719 111.847656 291.808594 111.042969 291.574219 110.246094 C 291.335938 109.449219 291.0625 108.664062 290.75 107.890625 C 290.441406 107.121094 290.09375 106.363281 289.710938 105.625 C 289.328125 104.886719 288.914062 104.167969 288.464844 103.464844 C 288.015625 102.765625 287.535156 102.089844 287.023438 101.433594 C 286.511719 100.777344 285.96875 100.148438 285.394531 99.542969 C 284.824219 98.9375 284.226562 98.363281 283.601562 97.816406 C 282.976562 97.265625 282.324219 96.75 281.652344 96.261719 C 280.976562 95.773438 280.28125 95.320312 279.566406 94.898438 C 278.847656 94.476562 278.113281 94.089844 277.359375 93.734375 C 277.359375 93.734375 288.433594 4.625 158.488281 33.632812 C 152.582031 29.769531 130.660156 20.046875 95.449219 58.921875 C 68.128906 89.117188 82.210938 113.207031 95.035156 126.140625 C 94.929688 126.246094 94.863281 126.375 94.839844 126.523438 C 94.816406 126.671875 94.839844 126.8125 94.910156 126.945312 C 95.300781 127.605469 95.757812 128.214844 96.28125 128.777344 L 95.773438 128.738281 C 93.257812 128.570312 90.742188 128.554688 88.222656 128.695312 C 85.707031 128.832031 83.207031 129.125 80.726562 129.566406 C 78.246094 130.007812 75.800781 130.601562 73.390625 131.339844 C 70.980469 132.082031 68.625 132.964844 66.320312 133.992188 C 64.019531 135.019531 61.789062 136.183594 59.625 137.480469 C 57.464844 138.78125 55.390625 140.207031 53.40625 141.757812 C 51.417969 143.308594 49.53125 144.976562 47.746094 146.757812 C 45.964844 148.539062 44.292969 150.421875 42.738281 152.40625 C 41.875 153.449219 41.070312 154.621094 40.242188 155.730469 C 39.414062 156.839844 38.640625 158.078125 37.878906 159.34375 C 36.273438 161.941406 34.832031 164.628906 33.546875 167.402344 C 32.125 170.496094 30.894531 173.667969 29.855469 176.914062 C 28.597656 180.679688 27.664062 184.523438 27.054688 188.445312 L 27.417969 189.257812 C 30.746094 191.414062 34.234375 193.277344 37.878906 194.847656 C 40.988281 196.230469 44.167969 197.421875 47.417969 198.425781 C 50.351562 199.335938 53.328125 200.078125 56.34375 200.640625 C 57.824219 200.921875 59.195312 201.089844 60.613281 201.289062 C 62.03125 201.488281 63.398438 201.59375 64.746094 201.644531 L 65.980469 201.695312 L 74.234375 216.152344 C 69.230469 219.652344 64.453125 223.972656 61.5 228.640625 C 59.386719 228.484375 57.273438 228.460938 55.15625 228.574219 C 52.589844 228.722656 50.035156 229.011719 47.5 229.445312 C 42.625 230.300781 37.878906 231.617188 33.257812 233.390625 C 28.691406 235.09375 24.359375 237.269531 20.269531 239.921875 C 18.195312 241.269531 16.226562 242.757812 14.363281 244.390625 C 13.425781 245.230469 12.496094 246.089844 11.609375 247.035156 C 10.679688 247.988281 9.828125 249.011719 9.054688 250.101562 C 7.648438 252.128906 6.542969 254.3125 5.730469 256.644531 C 4.917969 258.976562 4.429688 261.375 4.269531 263.839844 C 4.21875 264.71875 4.207031 265.601562 4.242188 266.484375 C 4.273438 267.367188 4.351562 268.246094 4.46875 269.121094 C 4.589844 269.996094 4.75 270.863281 4.957031 271.722656 C 5.160156 272.578125 5.40625 273.425781 5.695312 274.261719 C 5.984375 275.097656 6.3125 275.914062 6.679688 276.71875 C 7.046875 277.519531 7.453125 278.300781 7.898438 279.066406 C 8.34375 279.828125 8.824219 280.566406 9.34375 281.28125 C 9.863281 281.996094 10.414062 282.683594 11 283.347656 C 11.582031 284.007812 12.199219 284.636719 12.847656 285.238281 C 13.496094 285.839844 14.167969 286.40625 14.871094 286.941406 C 15.574219 287.472656 16.304688 287.972656 17.054688 288.433594 C 17.804688 288.898438 18.578125 289.320312 19.371094 289.707031 C 20.167969 290.09375 20.976562 290.441406 21.804688 290.75 C 22.632812 291.054688 23.472656 291.320312 24.328125 291.546875 C 25.179688 291.769531 26.042969 291.953125 26.914062 292.089844 C 27.785156 292.230469 28.664062 292.328125 29.542969 292.378906 C 30.875 292.445312 32.203125 292.410156 33.53125 292.277344 C 34.816406 292.160156 36.070312 291.964844 37.3125 291.753906 C 39.746094 291.292969 42.132812 290.667969 44.480469 289.875 C 49.09375 288.304688 53.484375 286.253906 57.652344 283.722656 C 61.90625 281.191406 65.878906 278.28125 69.570312 274.984375 C 70.0625 274.535156 70.550781 274.0625 71.046875 273.597656 C 72.324219 274.457031 73.675781 275.183594 75.097656 275.769531 C 77.261719 276.621094 79.503906 276.964844 81.824219 276.792969 C 82.046875 276.78125 82.222656 276.683594 82.351562 276.5 C 84.167969 276.765625 86.042969 276.921875 87.851562 277.007812 C 83.117188 280.582031 78.390625 284.179688 73.660156 287.75 L 43.011719 310.808594 L 12.457031 333.964844 L 12.53125 334.078125 L 12.53125 334.210938 C 15.9375 334.691406 19.339844 335.082031 22.742188 335.515625 L 32.976562 336.675781 C 39.792969 337.414062 46.621094 338.09375 53.453125 338.753906 C 67.101562 340.039062 80.769531 340.855469 94.480469 341.832031 L 101.449219 342.335938 L 93.261719 358.015625 L 288.921875 370.574219 L 291.433594 302.175781 L 292.59375 301.871094 C 296.976562 300.703125 301.214844 299.375 305.335938 297.898438 C 313.410156 294.988281 321.253906 291.554688 328.867188 287.59375 C 336.3125 283.832031 343.375 279.445312 350.050781 274.4375 C 353.351562 271.960938 356.488281 269.289062 359.457031 266.417969 C 360.933594 264.976562 362.410156 263.460938 363.753906 261.910156 C 365.167969 260.332031 366.460938 258.660156 367.636719 256.894531 L 368.507812 255.617188 C 369.203125 254.578125 369.828125 253.496094 370.386719 252.375 C 370.941406 251.253906 371.421875 250.101562 371.828125 248.917969 C 372.234375 247.734375 372.5625 246.53125 372.808594 245.304688 C 373.058594 244.078125 373.226562 242.839844 373.316406 241.59375 C 373.402344 240.34375 373.410156 239.097656 373.335938 237.847656 C 373.261719 236.597656 373.105469 235.359375 372.871094 234.128906 C 372.632812 232.902344 372.320312 231.691406 371.929688 230.503906 C 371.535156 229.316406 371.066406 228.160156 370.523438 227.03125 Z M 284.550781 257.515625 L 282.027344 257.566406 L 290.148438 250.433594 C 288.226562 252.75 286.375 255.121094 284.550781 257.515625 Z M 250.179688 176.308594 C 249.855469 176.308594 249.582031 176.273438 249.375 176.25 L 248.882812 176.117188 L 246.828125 175.601562 C 247.214844 175.074219 247.566406 174.542969 247.953125 174.011719 C 248.683594 174.804688 249.429688 175.570312 250.179688 176.308594 Z M 113.625 182.542969 C 114.148438 183.371094 114.71875 184.164062 115.339844 184.921875 C 116.476562 186.417969 117.707031 187.832031 119.03125 189.160156 C 119.671875 189.847656 120.425781 190.425781 121.113281 191.050781 C 121.652344 191.523438 122.175781 192.003906 122.746094 192.433594 C 121.875 192.980469 121.015625 193.535156 120.175781 194.101562 C 116.296875 193.230469 111.5 193.761719 106.886719 195.917969 C 105.957031 196.359375 105.058594 196.851562 104.191406 197.398438 L 101.308594 192.515625 C 105.847656 189.722656 109.949219 186.398438 113.625 182.542969 Z M 113.625 182.542969 " fill-opacity="1" fill-rule="nonzero"/></g><path fill="#eec51d" d="M 249.347656 176.265625 L 248.851562 176.132812 C 234.511719 172.472656 219.941406 170.664062 205.144531 170.703125 C 139.785156 170.703125 86.800781 205.183594 86.800781 247.722656 L 323.5 247.722656 C 323.496094 244.558594 323.203125 241.421875 322.621094 238.3125 L 369.75 235.238281 C 371.910156 168.828125 257.949219 177.269531 249.347656 176.265625 Z M 249.347656 176.265625 " fill-opacity="1" fill-rule="nonzero"/><path fill="#d16a46" d="M 216.035156 188.488281 C 216.035156 189.496094 215.984375 190.5 215.886719 191.503906 C 215.785156 192.507812 215.640625 193.5 215.441406 194.488281 C 215.246094 195.476562 215 196.453125 214.710938 197.417969 C 214.417969 198.382812 214.078125 199.328125 213.691406 200.257812 C 213.308594 201.191406 212.878906 202.097656 212.402344 202.988281 C 211.929688 203.875 211.410156 204.738281 210.851562 205.578125 C 210.292969 206.414062 209.695312 207.222656 209.054688 208 C 208.417969 208.78125 207.742188 209.527344 207.027344 210.238281 C 206.316406 210.949219 205.570312 211.625 204.792969 212.265625 C 204.015625 212.902344 203.207031 213.503906 202.371094 214.0625 C 201.53125 214.621094 200.667969 215.140625 199.78125 215.613281 C 198.894531 216.089844 197.984375 216.519531 197.054688 216.90625 C 196.125 217.289062 195.175781 217.628906 194.214844 217.921875 C 193.25 218.214844 192.273438 218.457031 191.285156 218.65625 C 190.300781 218.851562 189.304688 219 188.300781 219.097656 C 187.300781 219.195312 186.296875 219.246094 185.289062 219.246094 C 184.28125 219.246094 183.277344 219.195312 182.277344 219.097656 C 181.273438 219 180.277344 218.851562 179.292969 218.65625 C 178.304688 218.457031 177.328125 218.214844 176.363281 217.921875 C 175.402344 217.628906 174.453125 217.289062 173.523438 216.90625 C 172.59375 216.519531 171.683594 216.089844 170.796875 215.613281 C 169.910156 215.140625 169.046875 214.621094 168.207031 214.0625 C 167.371094 213.503906 166.5625 212.902344 165.785156 212.265625 C 165.007812 211.625 164.261719 210.949219 163.550781 210.238281 C 162.835938 209.527344 162.160156 208.78125 161.523438 208 C 160.882812 207.222656 160.285156 206.414062 159.726562 205.578125 C 159.167969 204.738281 158.648438 203.875 158.175781 202.988281 C 157.699219 202.097656 157.269531 201.191406 156.886719 200.257812 C 156.5 199.328125 156.160156 198.382812 155.867188 197.417969 C 155.578125 196.453125 155.332031 195.476562 155.136719 194.488281 C 154.9375 193.5 154.792969 192.507812 154.691406 191.503906 C 154.59375 190.5 154.542969 189.496094 154.542969 188.488281 C 154.542969 187.480469 154.59375 186.476562 154.691406 185.472656 C 154.792969 184.472656 154.9375 183.476562 155.136719 182.488281 C 155.332031 181.5 155.578125 180.523438 155.867188 179.5625 C 156.160156 178.597656 156.5 177.648438 156.886719 176.71875 C 157.269531 175.789062 157.699219 174.878906 158.175781 173.988281 C 158.648438 173.101562 159.167969 172.238281 159.726562 171.402344 C 160.285156 170.5625 160.882812 169.753906 161.523438 168.976562 C 162.160156 168.199219 162.835938 167.453125 163.550781 166.742188 C 164.261719 166.027344 165.007812 165.351562 165.785156 164.714844 C 166.5625 164.074219 167.371094 163.476562 168.207031 162.914062 C 169.046875 162.355469 169.910156 161.839844 170.796875 161.363281 C 171.683594 160.890625 172.59375 160.457031 173.523438 160.074219 C 174.453125 159.6875 175.402344 159.347656 176.363281 159.054688 C 177.328125 158.765625 178.304688 158.519531 179.292969 158.324219 C 180.277344 158.125 181.273438 157.980469 182.277344 157.878906 C 183.277344 157.78125 184.28125 157.730469 185.289062 157.730469 C 186.296875 157.730469 187.300781 157.78125 188.300781 157.878906 C 189.304688 157.980469 190.300781 158.125 191.285156 158.324219 C 192.273438 158.519531 193.25 158.765625 194.214844 159.054688 C 195.175781 159.347656 196.125 159.6875 197.054688 160.074219 C 197.984375 160.457031 198.894531 160.890625 199.78125 161.363281 C 200.667969 161.839844 201.53125 162.355469 202.371094 162.914062 C 203.207031 163.476562 204.015625 164.074219 204.792969 164.714844 C 205.570312 165.351562 206.316406 166.027344 207.027344 166.742188 C 207.742188 167.453125 208.417969 168.199219 209.054688 168.976562 C 209.695312 169.753906 210.292969 170.5625 210.851562 171.402344 C 211.410156 172.238281 211.929688 173.101562 212.402344 173.988281 C 212.878906 174.878906 213.308594 175.789062 213.691406 176.71875 C 214.078125 177.648438 214.417969 178.597656 214.710938 179.5625 C 215 180.523438 215.246094 181.5 215.441406 182.488281 C 215.640625 183.476562 215.785156 184.472656 215.886719 185.472656 C 215.984375 186.476562 216.035156 187.480469 216.035156 188.488281 Z M 216.035156 188.488281 " fill-opacity="1" fill-rule="nonzero"/><path fill="#000000" d="M 197.539062 158.890625 C 195.601562 158.050781 193.601562 157.410156 191.535156 156.976562 C 189.472656 156.542969 187.382812 156.320312 185.273438 156.3125 C 183.164062 156.304688 181.074219 156.511719 179.003906 156.929688 C 176.933594 157.347656 174.929688 157.96875 172.988281 158.796875 C 169.078125 160.46875 165.632812 162.820312 162.652344 165.855469 C 161.191406 167.347656 159.890625 168.96875 158.757812 170.722656 C 157.621094 172.476562 156.675781 174.324219 155.914062 176.269531 C 155.152344 178.214844 154.59375 180.214844 154.234375 182.273438 C 153.878906 184.328125 153.730469 186.402344 153.792969 188.488281 C 153.847656 190.027344 154.007812 191.550781 154.273438 193.066406 C 154.539062 194.578125 154.90625 196.070312 155.378906 197.53125 C 155.851562 198.996094 156.421875 200.417969 157.089844 201.800781 C 157.757812 203.1875 158.519531 204.519531 159.375 205.796875 C 160.226562 207.074219 161.164062 208.289062 162.1875 209.4375 C 163.210938 210.585938 164.304688 211.65625 165.476562 212.65625 C 166.644531 213.652344 167.878906 214.5625 169.175781 215.386719 C 170.472656 216.214844 171.820312 216.945312 173.21875 217.585938 C 177.046875 219.316406 181.066406 220.238281 185.265625 220.355469 C 189.507812 220.433594 193.578125 219.644531 197.480469 217.984375 C 201.367188 216.328125 204.742188 213.945312 207.59375 210.824219 C 208.273438 210.066406 208.917969 209.273438 209.523438 208.457031 C 210.132812 207.636719 210.699219 206.792969 211.230469 205.921875 C 211.761719 205.050781 212.25 204.15625 212.699219 203.238281 C 213.148438 202.324219 213.554688 201.390625 213.917969 200.4375 C 214.28125 199.484375 214.601562 198.515625 214.878906 197.535156 C 215.152344 196.550781 215.382812 195.558594 215.566406 194.554688 C 215.753906 193.554688 215.890625 192.542969 215.984375 191.527344 C 216.078125 190.511719 216.125 189.496094 216.125 188.472656 C 216.125 187.453125 216.078125 186.4375 215.984375 185.421875 C 215.890625 184.40625 215.753906 183.394531 215.566406 182.390625 C 215.382812 181.390625 215.152344 180.398438 214.878906 179.414062 C 214.601562 178.433594 214.28125 177.464844 213.917969 176.511719 C 213.554688 175.558594 213.148438 174.625 212.699219 173.707031 C 212.25 172.792969 211.761719 171.898438 211.230469 171.027344 C 210.699219 170.15625 210.132812 169.3125 209.523438 168.492188 C 208.917969 167.671875 208.273438 166.882812 207.59375 166.121094 C 204.753906 163 201.402344 160.589844 197.539062 158.890625 Z M 215.894531 188.488281 C 215.890625 192.550781 215.050781 196.429688 213.375 200.128906 C 211.695312 203.765625 209.382812 206.941406 206.433594 209.652344 C 205 210.964844 203.457031 212.136719 201.808594 213.171875 C 200.160156 214.207031 198.433594 215.085938 196.628906 215.808594 C 194.824219 216.535156 192.96875 217.09375 191.0625 217.484375 C 189.160156 217.875 187.234375 218.09375 185.289062 218.136719 C 183.320312 218.199219 181.367188 218.066406 179.425781 217.738281 C 177.484375 217.414062 175.59375 216.894531 173.757812 216.191406 C 171.917969 215.488281 170.167969 214.609375 168.503906 213.554688 C 166.84375 212.5 165.300781 211.292969 163.878906 209.933594 C 161 207.113281 158.8125 203.828125 157.320312 200.085938 C 155.855469 196.359375 155.179688 192.492188 155.289062 188.488281 C 155.429688 184.535156 156.292969 180.75 157.882812 177.128906 C 159.464844 173.542969 161.65625 170.375 164.453125 167.628906 C 165.839844 166.289062 167.339844 165.089844 168.957031 164.035156 C 170.570312 162.980469 172.273438 162.089844 174.058594 161.363281 C 175.847656 160.636719 177.6875 160.089844 179.578125 159.714844 C 181.472656 159.34375 183.382812 159.15625 185.3125 159.148438 C 187.246094 159.15625 189.167969 159.339844 191.070312 159.703125 C 192.972656 160.0625 194.824219 160.597656 196.628906 161.304688 C 198.433594 162.007812 200.15625 162.875 201.800781 163.898438 C 203.441406 164.921875 204.976562 166.089844 206.40625 167.402344 C 209.363281 170.097656 211.679688 173.261719 213.351562 176.898438 C 215.027344 180.582031 215.875 184.445312 215.894531 188.488281 Z M 212.527344 161.242188 C 209.023438 157.464844 204.910156 154.554688 200.179688 152.507812 C 197.828125 151.496094 195.394531 150.726562 192.882812 150.203125 C 190.375 149.679688 187.835938 149.414062 185.273438 149.40625 C 182.710938 149.398438 180.171875 149.648438 177.65625 150.152344 C 175.144531 150.660156 172.707031 151.414062 170.34375 152.414062 C 165.597656 154.4375 161.410156 157.292969 157.792969 160.972656 C 156.011719 162.785156 154.429688 164.757812 153.042969 166.886719 C 151.65625 169.015625 150.496094 171.261719 149.5625 173.625 C 148.628906 175.988281 147.941406 178.421875 147.496094 180.925781 C 147.054688 183.425781 146.863281 185.949219 146.925781 188.488281 C 146.980469 190.363281 147.167969 192.226562 147.484375 194.074219 C 147.800781 195.925781 148.246094 197.742188 148.816406 199.53125 C 149.386719 201.316406 150.082031 203.054688 150.894531 204.746094 C 151.710938 206.433594 152.636719 208.058594 153.679688 209.617188 C 154.722656 211.179688 155.867188 212.65625 157.117188 214.058594 C 158.367188 215.457031 159.707031 216.761719 161.136719 217.972656 C 162.570312 219.183594 164.078125 220.289062 165.664062 221.289062 C 167.25 222.289062 168.902344 223.175781 170.609375 223.945312 C 175.289062 226.023438 180.1875 227.121094 185.304688 227.238281 C 190.457031 227.316406 195.410156 226.351562 200.160156 224.34375 C 204.890625 222.335938 209.007812 219.453125 212.511719 215.695312 C 215.976562 211.984375 218.605469 207.757812 220.40625 203.011719 C 221.289062 200.6875 221.953125 198.304688 222.402344 195.859375 C 222.851562 193.414062 223.078125 190.949219 223.078125 188.464844 C 223.078125 185.976562 222.851562 183.511719 222.402344 181.066406 C 221.953125 178.621094 221.289062 176.238281 220.40625 173.914062 C 218.605469 169.175781 215.980469 164.949219 212.527344 161.242188 Z M 219.746094 202.765625 C 217.71875 207.25 214.90625 211.171875 211.316406 214.535156 C 209.558594 216.164062 207.664062 217.621094 205.640625 218.902344 C 203.617188 220.1875 201.492188 221.277344 199.265625 222.171875 C 197.042969 223.066406 194.757812 223.753906 192.40625 224.234375 C 190.058594 224.710938 187.6875 224.972656 185.289062 225.015625 C 182.867188 225.078125 180.460938 224.902344 178.070312 224.488281 C 175.683594 224.070312 173.359375 223.425781 171.101562 222.546875 C 168.839844 221.667969 166.691406 220.578125 164.648438 219.269531 C 162.605469 217.964844 160.710938 216.46875 158.96875 214.785156 C 155.445312 211.316406 152.765625 207.289062 150.917969 202.699219 C 149.105469 198.125 148.253906 193.378906 148.363281 188.460938 C 148.429688 186.054688 148.722656 183.679688 149.242188 181.332031 C 149.761719 178.984375 150.503906 176.707031 151.460938 174.5 C 152.417969 172.292969 153.578125 170.199219 154.941406 168.214844 C 156.300781 166.234375 157.835938 164.398438 159.550781 162.710938 C 161.257812 161.046875 163.105469 159.5625 165.097656 158.257812 C 167.09375 156.953125 169.191406 155.851562 171.398438 154.953125 C 173.601562 154.054688 175.875 153.371094 178.210938 152.914062 C 180.546875 152.453125 182.90625 152.21875 185.289062 152.214844 C 187.679688 152.214844 190.046875 152.441406 192.394531 152.886719 C 194.742188 153.335938 197.03125 153.996094 199.253906 154.871094 C 201.476562 155.746094 203.601562 156.820312 205.625 158.09375 C 207.648438 159.367188 209.535156 160.816406 211.285156 162.445312 C 214.882812 165.792969 217.699219 169.707031 219.726562 174.1875 C 220.738281 176.433594 221.5 178.757812 222.019531 181.164062 C 222.535156 183.570312 222.792969 186.003906 222.792969 188.464844 C 222.792969 190.925781 222.535156 193.359375 222.019531 195.761719 C 221.5 198.167969 220.738281 200.496094 219.726562 202.738281 Z M 307.300781 225.664062 C 306.492188 227.144531 305.5625 228.542969 304.515625 229.859375 C 303.601562 231.210938 302.691406 232.578125 301.835938 233.96875 C 300.980469 235.355469 300.101562 236.863281 299.3125 238.347656 C 298.917969 239.085938 298.535156 239.824219 298.160156 240.511719 C 297.953125 240.859375 297.773438 241.21875 297.621094 241.589844 C 297.625 241.625 297.625 241.660156 297.621094 241.695312 C 297.710938 241.683594 297.800781 241.699219 297.886719 241.738281 C 297.972656 241.777344 298.039062 241.835938 298.09375 241.914062 C 298.148438 241.988281 298.179688 242.074219 298.1875 242.164062 C 298.199219 242.257812 298.183594 242.347656 298.144531 242.433594 C 298 242.667969 297.800781 242.839844 297.542969 242.945312 C 297.285156 243.046875 297.023438 243.066406 296.757812 243 C 296.4375 242.9375 296.191406 242.769531 296.019531 242.5 C 295.914062 242.6875 295.757812 242.8125 295.554688 242.882812 C 295.351562 242.949219 295.152344 242.941406 294.953125 242.851562 C 291.136719 241.496094 287.148438 240.683594 283.382812 239.160156 C 280.289062 237.914062 277.355469 236.359375 274.589844 234.492188 C 271.835938 232.613281 269.3125 230.460938 267.023438 228.035156 C 264.808594 225.65625 262.511719 222.867188 261.308594 219.808594 C 261.117188 219.320312 261.839844 218.9375 262.164062 219.304688 C 264.3125 221.707031 266.167969 224.320312 268.417969 226.640625 C 270.699219 229 273.203125 231.097656 275.925781 232.925781 C 278.648438 234.746094 281.53125 236.25 284.582031 237.4375 C 288.148438 238.804688 291.90625 239.609375 295.484375 240.933594 L 295.582031 240.976562 C 294.730469 238.75 294.3125 236.441406 294.335938 234.054688 C 294.261719 231.15625 294.886719 228.410156 296.210938 225.828125 C 296.296875 225.691406 296.414062 225.597656 296.566406 225.550781 C 296.722656 225.5 296.871094 225.507812 297.019531 225.570312 C 297.167969 225.632812 297.28125 225.734375 297.351562 225.878906 C 297.425781 226.023438 297.445312 226.171875 297.40625 226.328125 C 297.058594 227.613281 296.625 228.855469 296.378906 230.171875 C 296.136719 231.453125 296.003906 232.75 295.980469 234.054688 C 295.964844 235.847656 296.152344 237.617188 296.535156 239.367188 C 296.742188 238.960938 296.960938 238.554688 297.15625 238.171875 C 297.640625 237.21875 298.160156 236.273438 298.691406 235.339844 C 299.769531 233.4375 300.90625 231.542969 302.175781 229.75 C 303.445312 227.953125 304.648438 226.058594 306.347656 224.734375 C 306.9375 224.277344 307.550781 225.140625 307.300781 225.695312 Z M 307.300781 225.664062 " fill-opacity="1" fill-rule="nonzero"/><path fill="#9b131d" d="M 27.039062 188.472656 C 27.648438 184.550781 28.582031 180.707031 29.839844 176.945312 C 30.878906 173.699219 32.109375 170.527344 33.53125 167.429688 C 34.816406 164.648438 36.257812 161.953125 37.863281 159.34375 C 38.601562 158.078125 39.429688 156.910156 40.226562 155.730469 C 41.023438 154.546875 41.859375 153.449219 42.722656 152.40625 C 44.277344 150.417969 45.949219 148.535156 47.734375 146.753906 C 49.515625 144.96875 51.402344 143.300781 53.390625 141.75 C 55.378906 140.195312 57.453125 138.769531 59.613281 137.46875 C 61.773438 136.167969 64.007812 135.003906 66.308594 133.976562 C 68.613281 132.949219 70.96875 132.0625 73.378906 131.320312 C 75.789062 130.582031 78.238281 129.988281 80.71875 129.546875 C 83.203125 129.101562 85.703125 128.8125 88.222656 128.671875 C 90.738281 128.535156 93.257812 128.550781 95.773438 128.71875 C 98.605469 128.875 101.414062 129.210938 104.203125 129.730469 C 107.21875 130.269531 110.191406 130.984375 113.125 131.871094 C 116.378906 132.867188 119.558594 134.054688 122.671875 135.433594 C 126.308594 136.992188 129.789062 138.847656 133.117188 140.992188 L 133.480469 141.800781 C 132.867188 145.710938 131.929688 149.546875 130.667969 153.300781 C 129.632812 156.539062 128.402344 159.703125 126.976562 162.792969 C 125.6875 165.570312 124.238281 168.261719 122.632812 170.871094 C 121.164062 173.289062 119.546875 175.597656 117.78125 177.808594 C 116.230469 179.796875 114.5625 181.6875 112.78125 183.472656 C 111 185.257812 109.117188 186.929688 107.132812 188.488281 C 105.144531 190.042969 103.074219 191.476562 100.914062 192.78125 C 98.753906 194.085938 96.523438 195.253906 94.222656 196.285156 C 91.921875 197.320312 89.566406 198.210938 87.15625 198.957031 C 84.746094 199.703125 82.300781 200.300781 79.816406 200.746094 C 77.335938 201.195312 74.835938 201.492188 72.316406 201.636719 C 69.796875 201.78125 67.28125 201.769531 64.761719 201.609375 C 63.410156 201.554688 62.007812 201.386719 60.628906 201.253906 C 59.246094 201.121094 57.808594 200.882812 56.359375 200.601562 C 53.335938 200.050781 50.355469 199.324219 47.417969 198.425781 C 44.164062 197.421875 40.976562 196.230469 37.863281 194.847656 C 34.21875 193.277344 30.734375 191.414062 27.402344 189.257812 Z M 233.777344 153.292969 C 235.476562 156.929688 237.464844 160.402344 239.75 163.707031 C 241.675781 166.570312 243.769531 169.300781 246.03125 171.90625 C 248.070312 174.25 250.238281 176.464844 252.535156 178.554688 C 253.636719 179.582031 254.753906 180.488281 255.867188 181.421875 C 256.980469 182.351562 258.082031 183.191406 259.242188 183.96875 C 261.332031 185.476562 263.503906 186.855469 265.757812 188.105469 C 268.011719 189.355469 270.332031 190.46875 272.71875 191.441406 C 275.105469 192.417969 277.542969 193.246094 280.027344 193.929688 C 282.511719 194.613281 285.03125 195.148438 287.578125 195.53125 C 290.128906 195.914062 292.691406 196.144531 295.265625 196.226562 C 297.84375 196.304688 300.414062 196.230469 302.984375 196.003906 C 305.550781 195.777344 308.09375 195.398438 310.617188 194.867188 C 313.140625 194.335938 315.621094 193.65625 318.066406 192.832031 C 320.800781 191.9375 323.464844 190.878906 326.066406 189.648438 C 328.882812 188.332031 331.613281 186.855469 334.257812 185.21875 C 337.179688 183.398438 339.984375 181.414062 342.671875 179.261719 C 345.820312 176.804688 348.742188 174.09375 351.429688 171.136719 L 351.5625 170.265625 C 349.867188 166.652344 347.882812 163.207031 345.613281 159.925781 C 343.683594 157.070312 341.589844 154.34375 339.328125 151.742188 C 337.285156 149.398438 335.113281 147.183594 332.816406 145.09375 C 330.695312 143.148438 328.460938 141.347656 326.113281 139.6875 C 324.023438 138.171875 321.855469 136.789062 319.605469 135.535156 C 317.351562 134.28125 315.035156 133.164062 312.648438 132.1875 C 310.265625 131.207031 307.832031 130.375 305.347656 129.683594 C 302.863281 128.996094 300.347656 128.457031 297.800781 128.070312 C 295.25 127.679688 292.691406 127.441406 290.113281 127.359375 C 287.539062 127.273438 284.964844 127.34375 282.398438 127.566406 C 279.832031 127.789062 277.285156 128.160156 274.761719 128.6875 C 272.238281 129.210938 269.753906 129.882812 267.3125 130.703125 C 265.996094 131.109375 264.660156 131.644531 263.339844 132.136719 C 262.015625 132.632812 260.667969 133.238281 259.308594 133.886719 C 256.492188 135.207031 253.761719 136.683594 251.121094 138.320312 C 248.191406 140.128906 245.386719 142.105469 242.703125 144.257812 C 239.550781 146.730469 236.632812 149.449219 233.945312 152.421875 Z M 233.777344 153.292969 " fill-opacity="1" fill-rule="nonzero"/><path fill="#d16a46" d="M 266.0625 91.195312 C 264.429688 91.191406 262.808594 91.339844 261.199219 91.636719 C 259.59375 91.933594 258.027344 92.375 256.5 92.964844 C 254.972656 93.550781 253.515625 94.273438 252.125 95.128906 C 250.730469 95.988281 249.429688 96.964844 248.21875 98.0625 C 243.890625 72.859375 239.160156 46.121094 238.441406 45.621094 C 237.082031 44.71875 163.277344 37.921875 160.5625 37.921875 C 160.347656 37.921875 142.472656 43.597656 133.894531 48.101562 C 125.3125 52.605469 117.414062 58.839844 112.40625 67.136719 C 110.039062 71.3125 108.109375 75.679688 106.617188 80.238281 C 103.878906 87.90625 101.40625 95.75 100.710938 103.875 C 100.480469 106.707031 100.464844 109.539062 100.664062 112.371094 C 100.863281 115.203125 101.269531 118.003906 101.894531 120.773438 C 102.515625 123.542969 103.339844 126.25 104.371094 128.898438 C 105.402344 131.542969 106.625 134.09375 108.042969 136.554688 L 108.042969 159.496094 C 108.042969 160.851562 108.109375 162.203125 108.242188 163.550781 C 108.375 164.898438 108.574219 166.238281 108.839844 167.566406 C 109.101562 168.894531 109.429688 170.207031 109.824219 171.503906 C 110.21875 172.800781 110.671875 174.074219 111.191406 175.328125 C 111.710938 176.578125 112.289062 177.800781 112.925781 178.996094 C 113.566406 180.191406 114.261719 181.351562 115.011719 182.476562 C 115.765625 183.605469 116.570312 184.691406 117.429688 185.738281 C 118.289062 186.785156 119.195312 187.789062 120.15625 188.746094 C 121.113281 189.703125 122.113281 190.613281 123.160156 191.472656 C 124.207031 192.332031 125.292969 193.136719 126.417969 193.890625 C 127.546875 194.644531 128.707031 195.339844 129.898438 195.976562 C 131.09375 196.617188 132.316406 197.195312 133.566406 197.710938 C 134.820312 198.230469 136.09375 198.6875 137.386719 199.082031 C 138.683594 199.472656 139.996094 199.800781 141.324219 200.066406 C 142.652344 200.332031 143.992188 200.53125 145.339844 200.664062 C 146.6875 200.796875 148.035156 200.863281 149.390625 200.863281 L 193.277344 200.863281 C 195.261719 200.859375 197.238281 200.769531 199.210938 200.59375 C 201.1875 200.414062 203.148438 200.144531 205.097656 199.789062 C 207.046875 199.433594 208.976562 198.992188 210.886719 198.460938 C 212.796875 197.933594 214.679688 197.316406 216.535156 196.617188 C 218.390625 195.917969 220.210938 195.136719 221.992188 194.273438 C 223.777344 193.410156 225.519531 192.46875 227.21875 191.449219 C 228.917969 190.425781 230.570312 189.332031 232.167969 188.164062 C 233.769531 186.992188 235.316406 185.753906 236.804688 184.445312 C 238.292969 183.136719 239.722656 181.765625 241.085938 180.328125 C 242.453125 178.890625 243.75 177.394531 244.980469 175.839844 C 246.210938 174.285156 247.371094 172.679688 248.457031 171.019531 C 249.542969 169.359375 250.550781 167.65625 251.484375 165.90625 C 252.417969 164.15625 253.269531 162.367188 254.039062 160.542969 C 254.8125 158.714844 255.5 156.855469 256.101562 154.96875 C 256.707031 153.078125 257.222656 151.167969 257.65625 149.230469 C 258.085938 147.296875 258.429688 145.347656 258.6875 143.378906 C 259.597656 143.632812 260.515625 143.835938 261.445312 143.992188 C 262.375 144.148438 263.3125 144.253906 264.253906 144.308594 C 265.195312 144.363281 266.136719 144.367188 267.078125 144.324219 C 268.023438 144.277344 268.957031 144.183594 269.890625 144.039062 C 270.824219 143.894531 271.746094 143.699219 272.65625 143.457031 C 273.566406 143.214844 274.464844 142.925781 275.34375 142.585938 C 276.222656 142.246094 277.085938 141.863281 277.925781 141.433594 C 278.765625 141.003906 279.578125 140.53125 280.367188 140.015625 C 281.15625 139.496094 281.917969 138.941406 282.648438 138.34375 C 283.375 137.746094 284.074219 137.109375 284.734375 136.4375 C 285.398438 135.765625 286.023438 135.0625 286.609375 134.324219 C 287.199219 133.585938 287.742188 132.816406 288.25 132.023438 C 288.753906 131.226562 289.21875 130.402344 289.636719 129.558594 C 290.054688 128.710938 290.425781 127.847656 290.753906 126.960938 C 291.078125 126.078125 291.359375 125.175781 291.589844 124.261719 C 291.820312 123.347656 292 122.421875 292.132812 121.488281 C 292.265625 120.554688 292.347656 119.613281 292.378906 118.671875 C 292.410156 117.726562 292.394531 116.785156 292.324219 115.84375 C 292.257812 114.902344 292.140625 113.96875 291.972656 113.039062 C 291.804688 112.113281 291.589844 111.195312 291.324219 110.289062 C 291.058594 109.382812 290.746094 108.496094 290.386719 107.621094 C 290.027344 106.75 289.621094 105.898438 289.171875 105.070312 C 288.722656 104.242188 288.226562 103.4375 287.691406 102.660156 C 287.15625 101.882812 286.582031 101.136719 285.964844 100.421875 C 285.351562 99.707031 284.699219 99.027344 284.011719 98.378906 C 283.324219 97.734375 282.605469 97.128906 281.851562 96.558594 C 281.101562 95.988281 280.320312 95.460938 279.511719 94.972656 C 278.703125 94.488281 277.871094 94.046875 277.015625 93.648438 C 276.160156 93.25 275.289062 92.898438 274.394531 92.59375 C 273.503906 92.289062 272.597656 92.035156 271.675781 91.824219 C 270.757812 91.617188 269.828125 91.457031 268.890625 91.351562 C 267.953125 91.242188 267.015625 91.179688 266.070312 91.171875 Z M 266.0625 91.195312 " fill-opacity="1" fill-rule="nonzero"/><path fill="#f8cda2" d="M 242.296875 128.5625 C 242.191406 133.886719 242.25 139.230469 242.207031 144.554688 C 242.207031 147.832031 242.066406 151.402344 239.992188 153.957031 C 237.363281 157.214844 232.644531 157.589844 228.480469 157.710938 C 223.835938 157.84375 219.03125 157.945312 214.726562 156.179688 C 212.621094 155.316406 210.664062 154.007812 208.445312 153.515625 C 203.917969 152.507812 199.265625 155.035156 194.660156 154.519531 C 190.050781 154 186.25 150.5 184.101562 146.394531 C 181.953125 142.285156 181.148438 137.609375 180.410156 133.023438 C 180.230469 131.9375 180.089844 130.703125 180.785156 129.855469 C 181.625 128.8125 183.207031 128.917969 184.433594 128.378906 C 190.972656 125.617188 181.339844 110.25 191.644531 112.503906 C 192.164062 112.613281 192.777344 112.734375 193.160156 112.371094 C 193.367188 112.121094 193.488281 111.832031 193.515625 111.507812 C 193.964844 109.0625 193.890625 106.011719 191.773438 104.742188 C 191.515625 104.628906 191.300781 104.457031 191.136719 104.230469 C 191.039062 103.992188 191.023438 103.746094 191.085938 103.492188 C 191.28125 102.109375 191.890625 100.941406 192.917969 99.992188 C 195.132812 97.996094 198.824219 97.976562 201.695312 99.171875 C 203.628906 99.96875 205.386719 101.328125 207.511719 101.46875 C 210.03125 101.640625 212.28125 99.992188 214.683594 99.207031 C 217.082031 98.425781 220.5 99.066406 220.898438 101.585938 C 220.910156 102.019531 220.988281 102.4375 221.136719 102.84375 C 221.335938 103.125 221.589844 103.347656 221.898438 103.507812 C 222.210938 103.667969 222.539062 103.746094 222.886719 103.742188 C 226.015625 104.113281 229.167969 103.191406 232.320312 103.277344 C 235.472656 103.367188 239.039062 105.007812 239.59375 108.132812 C 239.628906 108.804688 239.769531 109.453125 240.015625 110.082031 C 240.390625 110.753906 241.128906 111.117188 241.683594 111.648438 C 242.902344 112.816406 243.101562 114.667969 243.21875 116.367188 C 243.558594 120.554688 242.386719 124.417969 242.296875 128.5625 Z M 236.191406 165.183594 C 235.835938 165.089844 235.476562 165.054688 235.113281 165.082031 L 232.519531 165.082031 C 232.25 165.054688 232.003906 165.121094 231.78125 165.273438 C 231.566406 165.53125 231.480469 165.828125 231.515625 166.160156 C 231.515625 167.03125 231.515625 167.902344 231.515625 168.773438 C 231.457031 168.988281 231.425781 169.207031 231.417969 169.429688 C 231.414062 169.648438 231.4375 169.867188 231.484375 170.085938 C 231.535156 170.300781 231.609375 170.507812 231.710938 170.707031 C 231.8125 170.902344 231.9375 171.085938 232.082031 171.25 C 232.230469 171.417969 232.394531 171.5625 232.578125 171.6875 C 232.761719 171.8125 232.957031 171.914062 233.167969 171.988281 C 233.375 172.066406 233.589844 172.113281 233.808594 172.136719 C 234.03125 172.160156 234.25 172.152344 234.46875 172.121094 L 237.96875 172.445312 C 238.101562 172.488281 238.234375 172.5 238.371094 172.484375 C 238.503906 172.46875 238.632812 172.425781 238.75 172.355469 C 238.867188 172.28125 238.964844 172.191406 239.042969 172.078125 C 239.121094 171.964844 239.171875 171.839844 239.195312 171.707031 C 239.726562 170.316406 240.011719 168.878906 240.058594 167.394531 C 240.132812 166.765625 239.996094 166.191406 239.644531 165.664062 C 238.832031 164.75 237.445312 165.183594 236.191406 165.183594 Z M 194.710938 161.441406 C 192.8125 160.894531 190.886719 160.742188 188.929688 160.988281 C 188.796875 162.464844 188.65625 163.945312 188.523438 165.421875 C 188.441406 165.898438 188.476562 166.367188 188.625 166.824219 C 189.078125 167.867188 190.480469 167.953125 191.578125 167.960938 C 193.253906 167.960938 195 168.117188 196.554688 167.472656 C 198.113281 166.832031 199.363281 165.042969 198.769531 163.472656 C 198.179688 161.898438 196.355469 161.492188 194.710938 161.441406 Z M 174.367188 124.691406 C 174.367188 124.582031 171.535156 121.546875 171.578125 121.566406 C 170.773438 121.109375 167.347656 121.316406 166.320312 121.375 C 165.328125 121.472656 164.371094 121.703125 163.445312 122.074219 C 162.519531 122.441406 161.664062 122.933594 160.878906 123.550781 C 160.09375 124.164062 159.410156 124.875 158.828125 125.6875 C 158.25 126.496094 157.792969 127.371094 157.460938 128.3125 C 156.871094 130.0625 156.988281 132.390625 158.597656 133.28125 C 159.230469 133.582031 159.894531 133.738281 160.589844 133.746094 L 164.335938 134.085938 C 165.730469 134.339844 167.09375 134.21875 168.425781 133.726562 C 171.378906 132.308594 171.488281 127.988281 173.800781 125.652344 C 174.074219 125.378906 174.40625 125.082031 174.398438 124.691406 Z M 174.472656 139.703125 L 174.664062 137.632812 C 174.304688 137.535156 173.9375 137.492188 173.566406 137.507812 C 173.191406 137.523438 172.832031 137.597656 172.480469 137.722656 C 172.132812 137.851562 171.808594 138.03125 171.511719 138.257812 C 171.21875 138.484375 170.964844 138.753906 170.75 139.058594 C 170.460938 139.449219 170.242188 139.875 170.09375 140.339844 C 169.949219 140.804688 169.882812 141.28125 169.898438 141.769531 C 169.914062 142.253906 170.007812 142.726562 170.179688 143.179688 C 170.355469 143.636719 170.597656 144.050781 170.914062 144.421875 C 171.082031 144.59375 171.261719 144.746094 171.460938 144.878906 C 171.660156 145.011719 171.867188 145.125 172.089844 145.214844 C 172.308594 145.304688 172.539062 145.371094 172.773438 145.414062 C 173.007812 145.460938 173.246094 145.476562 173.484375 145.472656 C 173.722656 145.46875 173.957031 145.441406 174.191406 145.386719 C 174.421875 145.332031 174.648438 145.257812 174.867188 145.15625 C 175.082031 145.058594 175.289062 144.9375 175.480469 144.796875 C 175.671875 144.65625 175.847656 144.496094 176.007812 144.316406 C 177.226562 142.789062 176.390625 140.070312 174.5 139.703125 Z M 243.875 160.191406 L 243.582031 160.566406 C 243.136719 159.875 242.105469 160.914062 242.273438 161.71875 C 242.585938 163.160156 244.703125 163.890625 245.664062 162.785156 C 246.621094 161.675781 245.226562 159.535156 243.921875 160.191406 Z M 180.28125 119.121094 L 179.832031 118.382812 C 178.761719 118.929688 177.65625 119.675781 177.328125 120.84375 C 176.804688 122.703125 179.21875 124.601562 180.886719 123.636719 C 182.558594 122.667969 182.160156 119.601562 180.328125 119.121094 Z M 219.414062 91.414062 L 224.347656 92.566406 C 226.5625 93.085938 229 93.582031 230.992188 92.5 C 232.984375 91.421875 233.730469 88.070312 231.730469 86.953125 C 230.992188 86.535156 230.011719 86.546875 229.308594 86.039062 C 228.214844 85.226562 228.273438 83.558594 228.695312 82.265625 C 229.117188 80.972656 229.789062 79.648438 229.539062 78.3125 C 229.3125 77.28125 228.777344 76.445312 227.933594 75.808594 C 220.242188 69.617188 210.140625 83.296875 215.382812 89.464844 C 216.375 90.65625 217.960938 91.070312 219.4375 91.414062 Z M 182.542969 95.316406 C 183.382812 95.800781 184.289062 96.082031 185.253906 96.15625 C 186.222656 96.234375 187.160156 96.097656 188.066406 95.75 C 188.964844 95.398438 189.746094 94.871094 190.414062 94.171875 C 191.078125 93.472656 191.566406 92.664062 191.875 91.75 C 192.09375 91.242188 192.167969 90.714844 192.097656 90.167969 C 192.03125 89.621094 191.828125 89.128906 191.492188 88.691406 C 191.113281 88.347656 190.679688 88.101562 190.191406 87.953125 C 188.996094 87.539062 187.765625 87.335938 186.5 87.347656 L 186.847656 87.398438 C 186.164062 87.386719 185.496094 87.496094 184.851562 87.71875 C 184.207031 87.945312 183.617188 88.273438 183.085938 88.707031 C 182.554688 89.136719 182.113281 89.648438 181.765625 90.234375 C 181.414062 90.824219 181.171875 91.453125 181.042969 92.125 C 180.910156 92.761719 180.96875 93.378906 181.222656 93.980469 C 181.527344 94.566406 181.976562 95.011719 182.566406 95.316406 Z M 182.542969 95.316406 " fill-opacity="1" fill-rule="nonzero"/><path fill="#000000" d="M 205.296875 97.117188 C 205.382812 96.773438 205.359375 96.441406 205.222656 96.113281 C 205.085938 95.789062 204.863281 95.535156 204.558594 95.359375 C 204.253906 95.179688 203.925781 95.113281 203.574219 95.152344 C 203.222656 95.195312 202.917969 95.335938 202.664062 95.582031 C 196.851562 101.84375 191.433594 106.175781 182.542969 106.867188 C 177.871094 107.1875 173.285156 106.707031 168.78125 105.433594 C 168.210938 105.289062 167.628906 105.125 167.050781 104.960938 C 169.960938 102.457031 173.296875 98.394531 171.320312 95.257812 C 169.460938 92.300781 161.839844 92.390625 159.054688 93.707031 C 155.210938 95.515625 154.300781 99.777344 156.679688 103.160156 C 157.359375 104.105469 158.160156 104.929688 159.085938 105.636719 C 157.875 106.121094 156.632812 106.550781 155.394531 106.941406 C 146.976562 109.632812 138.140625 110.347656 129.832031 106.816406 C 128.828125 106.394531 127.957031 107.734375 128.953125 108.292969 C 138.730469 114.160156 152.78125 113.265625 162.828125 107.792969 C 166.417969 109.269531 170.128906 110.289062 173.96875 110.851562 C 184.917969 112.742188 201.636719 109.578125 205.296875 97.117188 Z M 165.628906 101.726562 C 164.871094 102.414062 164.0625 103.03125 163.199219 103.574219 C 162.945312 103.464844 162.695312 103.359375 162.460938 103.234375 C 159.71875 101.816406 158.464844 101.019531 159.507812 97.96875 C 159.585938 95.617188 160.898438 94.597656 163.441406 94.910156 C 165.019531 95.027344 166.570312 95.300781 168.09375 95.730469 C 169.664062 97.96875 167.050781 100.414062 165.628906 101.726562 Z M 266.484375 118.457031 C 262.636719 118.050781 258.570312 118.996094 256.507812 122.558594 C 256.101562 123.25 255.800781 123.992188 255.609375 124.773438 C 251.066406 117.535156 262.636719 106.832031 270.308594 109.046875 C 271.34375 109.359375 271.75 107.792969 270.746094 107.445312 C 262.910156 104.734375 252.011719 111.875 251.007812 120.140625 C 250.019531 128.265625 258.03125 134.699219 265.640625 131.523438 C 268.875 130.171875 272.109375 126.980469 272.390625 123.304688 C 272.671875 119.625 269.710938 118.796875 266.484375 118.457031 Z M 268.050781 124.203125 C 267.652344 127.359375 263.90625 128.40625 260.820312 128.039062 C 259.882812 126.125 260.214844 124.285156 262.296875 123.066406 C 263.898438 122.171875 268.464844 120.953125 268.050781 124.203125 Z M 174.15625 165.097656 C 170.351562 166.949219 165.292969 165.4375 161.542969 164.085938 C 161.417969 164.046875 161.296875 163.992188 161.183594 163.921875 C 161.070312 163.851562 160.96875 163.769531 160.875 163.675781 C 160.78125 163.578125 160.703125 163.472656 160.640625 163.359375 C 160.574219 163.242188 160.523438 163.121094 160.488281 162.992188 C 160.457031 162.863281 160.4375 162.734375 160.4375 162.601562 C 160.4375 162.46875 160.453125 162.335938 160.488281 162.207031 C 160.519531 162.078125 160.566406 161.957031 160.632812 161.839844 C 160.695312 161.722656 160.773438 161.617188 160.863281 161.519531 C 165.382812 156.578125 167.65625 150.359375 169.140625 143.917969 C 169.152344 143.882812 169.179688 143.863281 169.21875 143.863281 C 169.257812 143.863281 169.285156 143.882812 169.296875 143.917969 C 170.367188 150.300781 168.382812 156.179688 164.808594 161.328125 C 168.0625 161.582031 171.542969 161.851562 174.15625 163.542969 C 174.285156 163.628906 174.390625 163.742188 174.464844 163.878906 C 174.539062 164.015625 174.578125 164.164062 174.578125 164.320312 C 174.578125 164.476562 174.539062 164.625 174.464844 164.761719 C 174.390625 164.898438 174.285156 165.011719 174.15625 165.097656 Z M 235.1875 133.054688 C 235.179688 133.300781 235.105469 133.527344 234.964844 133.734375 C 234.824219 133.9375 234.640625 134.089844 234.410156 134.183594 C 234.179688 134.28125 233.941406 134.304688 233.699219 134.261719 C 233.453125 134.21875 233.242188 134.109375 233.058594 133.941406 C 229.679688 131.304688 227.464844 127.957031 223.617188 125.75 C 219.261719 123.214844 214.570312 121.851562 209.535156 121.664062 C 206.914062 121.554688 204.355469 121.910156 201.859375 122.730469 C 199.367188 123.550781 197.097656 124.78125 195.050781 126.429688 C 192.097656 128.917969 190.871094 132.550781 188.152344 135.121094 C 188.085938 135.1875 188.007812 135.207031 187.917969 135.183594 C 187.824219 135.15625 187.765625 135.101562 187.742188 135.011719 C 186.5 130.636719 190.695312 125.949219 193.832031 123.398438 C 195.960938 121.71875 198.300781 120.421875 200.851562 119.503906 C 203.402344 118.585938 206.035156 118.097656 208.746094 118.035156 C 211.828125 117.9375 214.871094 118.238281 217.875 118.9375 C 220.878906 119.636719 223.742188 120.710938 226.464844 122.160156 C 230.46875 124.300781 235.320312 128.082031 235.1875 133.054688 Z M 140.488281 124.714844 C 136.796875 125.859375 133.648438 128.40625 130.886719 131.023438 C 127.476562 134.226562 126.363281 137.152344 124.980469 141.4375 C 124.890625 141.730469 124.730469 141.976562 124.5 142.171875 C 124.265625 142.371094 123.996094 142.488281 123.695312 142.527344 C 123.390625 142.566406 123.101562 142.523438 122.824219 142.390625 C 122.546875 142.261719 122.328125 142.066406 122.167969 141.804688 C 117.414062 134.050781 130.933594 124.375 136.867188 121.960938 C 142.191406 119.789062 147.582031 120.886719 152.925781 122.378906 C 157.128906 123.546875 161.582031 124.683594 164.261719 128.332031 C 164.277344 128.363281 164.277344 128.394531 164.253906 128.421875 C 164.234375 128.449219 164.207031 128.460938 164.171875 128.453125 C 157.144531 126.160156 147.914062 122.433594 140.488281 124.714844 Z M 225.515625 148.417969 C 220.566406 150.183594 214.4375 149.894531 209.21875 150.183594 C 203.785156 150.484375 198.410156 150.878906 193.09375 149.570312 C 192.902344 149.519531 192.835938 149.199219 193.035156 149.113281 C 194.800781 148.351562 196.625 147.773438 198.503906 147.375 C 197.621094 145.898438 197.957031 143.335938 200.1875 139.09375 C 201.628906 136.363281 203.273438 133.4375 206.09375 132.234375 C 209.789062 130.667969 214.21875 132.789062 216.585938 136.039062 C 218.675781 138.917969 219.539062 142.472656 220.175781 145.996094 C 221.988281 146.113281 223.761719 146.4375 225.5 146.96875 C 225.671875 147.003906 225.8125 147.085938 225.925781 147.222656 C 226.039062 147.355469 226.097656 147.511719 226.097656 147.6875 C 226.101562 147.863281 226.046875 148.019531 225.9375 148.15625 C 225.828125 148.292969 225.683594 148.378906 225.515625 148.417969 Z M 163.492188 148.417969 C 158.546875 150.183594 152.417969 149.894531 147.199219 150.183594 C 141.765625 150.484375 136.390625 150.878906 131.074219 149.570312 C 130.882812 149.519531 130.8125 149.199219 131.015625 149.113281 C 132.78125 148.351562 134.601562 147.773438 136.484375 147.375 C 135.597656 145.898438 135.9375 143.335938 138.167969 139.09375 C 139.644531 136.363281 141.253906 133.4375 144.074219 132.234375 C 147.765625 130.667969 152.195312 132.789062 154.566406 136.039062 C 156.65625 138.917969 157.519531 142.472656 158.15625 145.996094 C 159.96875 146.113281 161.742188 146.4375 163.480469 146.96875 C 163.652344 147.003906 163.792969 147.089844 163.90625 147.222656 C 164.015625 147.359375 164.074219 147.515625 164.074219 147.691406 C 164.074219 147.867188 164.019531 148.023438 163.910156 148.160156 C 163.800781 148.296875 163.65625 148.382812 163.484375 148.417969 Z M 163.492188 148.417969 " fill-opacity="1" fill-rule="nonzero"/><path fill="#9b131d" d="M 205.164062 176.101562 C 205.164062 176.101562 213.285156 152.6875 221.6875 151.910156 C 230.089844 151.136719 230.253906 160.632812 223.027344 168.679688 C 215.796875 176.722656 205.164062 176.101562 205.164062 176.101562 Z M 205.164062 176.101562 " fill-opacity="1" fill-rule="nonzero"/><path fill="#000000" d="M 227.523438 163.109375 C 224.679688 165.417969 221.707031 167.539062 218.601562 169.476562 C 218.683594 169.253906 218.757812 169.039062 218.839844 168.828125 C 219.25 167.683594 219.597656 166.523438 219.886719 165.347656 C 220.164062 164.171875 220.371094 162.984375 220.515625 161.785156 L 220.34375 161.75 C 219.945312 162.871094 219.527344 163.964844 219.046875 165.066406 C 218.613281 166.15625 218.121094 167.214844 217.570312 168.25 C 217.023438 169.261719 216.328125 170.171875 215.820312 171.152344 C 210.40625 174.285156 204.722656 176.816406 198.769531 178.738281 C 187.960938 182.195312 176.84375 182.128906 165.628906 182.378906 C 165.589844 182.378906 165.566406 182.441406 165.628906 182.460938 C 186.75 192.125 214.585938 181.125 228.097656 163.640625 C 228.171875 163.5625 228.207031 163.46875 228.203125 163.359375 C 228.195312 163.25 228.15625 163.160156 228.074219 163.085938 C 227.996094 163.011719 227.902344 162.980469 227.792969 162.984375 C 227.6875 162.988281 227.59375 163.03125 227.523438 163.109375 Z M 227.523438 163.109375 " fill-opacity="1" fill-rule="nonzero"/><g clip-path="url(#30f7e85589)"><path fill="#f8cda2" d="M 298.210938 243.140625 C 298.210938 243.140625 139.960938 242.460938 136.011719 243.140625 L 12.53125 334.078125 L 101.945312 341.375 L 93.261719 358.015625 L 288.921875 370.574219 L 293.027344 257.367188 L 281.332031 257.617188 Z M 298.210938 243.140625 " fill-opacity="1" fill-rule="nonzero"/></g><path fill="#9b131d" d="M 298.210938 243.140625 L 298.210938 243.007812 C 294.828125 242.785156 291.453125 242.667969 288.074219 242.492188 L 277.9375 242.136719 C 271.179688 241.902344 264.425781 241.78125 257.667969 241.664062 C 244.148438 241.441406 230.628906 241.664062 217.113281 241.820312 L 176.5625 242.175781 L 156.285156 242.476562 L 146.148438 242.667969 L 141.078125 242.792969 L 138.542969 242.859375 L 135.988281 243.007812 L 135.988281 243.140625 L 135.917969 243.03125 C 133.222656 244.765625 130.585938 246.570312 127.914062 248.335938 L 120.003906 253.761719 C 114.742188 257.382812 109.535156 261.089844 104.335938 264.804688 C 93.941406 272.238281 83.828125 280.058594 73.621094 287.75 L 43.011719 310.808594 L 12.457031 333.964844 L 12.53125 334.078125 L 12.53125 334.210938 C 15.9375 334.691406 19.339844 335.082031 22.742188 335.515625 L 32.976562 336.675781 C 39.792969 337.414062 46.621094 338.09375 53.453125 338.753906 C 67.101562 340.039062 80.769531 340.855469 94.480469 341.832031 L 135.53125 344.785156 L 176.585938 347.601562 L 176.585938 347.476562 L 176.664062 347.570312 C 179.339844 345.554688 181.9375 343.464844 184.582031 341.410156 L 192.390625 335.132812 C 197.558594 330.953125 202.730469 326.675781 207.851562 322.398438 C 218.101562 313.835938 228.046875 304.921875 238.085938 296.117188 L 268.234375 269.734375 L 298.292969 243.253906 Z M 267.371094 268.714844 L 236.707031 294.492188 C 226.480469 303.074219 216.152344 311.546875 206.132812 320.34375 C 201.125 324.777344 196.121094 329.207031 191.1875 333.691406 L 183.804688 340.449219 C 181.382812 342.734375 178.9375 344.980469 176.546875 347.296875 L 135.644531 343.457031 L 94.664062 339.710938 C 81.007812 338.449219 67.347656 337.039062 53.671875 336.101562 C 46.828125 335.636719 39.984375 335.167969 33.132812 334.824219 L 22.839844 334.335938 C 19.539062 334.222656 16.238281 334.0625 12.929688 333.988281 L 43.800781 311.878906 L 74.90625 289.460938 C 85.28125 282 95.75 274.6875 105.917969 266.949219 C 111.003906 263.078125 116.09375 259.214844 121.113281 255.253906 L 128.644531 249.347656 C 131.109375 247.328125 133.605469 245.351562 136.027344 243.304688 L 138.515625 243.222656 L 146.113281 243.222656 L 156.25 243.296875 L 176.523438 243.527344 L 217.074219 243.96875 C 230.585938 244.144531 244.105469 244.472656 257.617188 244.34375 C 264.378906 244.273438 271.136719 244.199219 277.890625 244.011719 L 288.035156 243.734375 C 291.285156 243.585938 294.535156 243.488281 297.78125 243.3125 Z M 267.371094 268.714844 " fill-opacity="1" fill-rule="nonzero"/><path fill="#000000" d="M 127.382812 199.292969 C 127.707031 199.992188 127.925781 200.726562 128.046875 201.503906 C 128.164062 202.28125 128.175781 203.082031 128.085938 203.90625 C 127.992188 204.734375 127.796875 205.570312 127.5 206.410156 C 127.203125 207.253906 126.804688 208.089844 126.3125 208.921875 C 125.816406 209.75 125.238281 210.554688 124.566406 211.335938 C 123.898438 212.121094 123.152344 212.863281 122.332031 213.570312 C 121.511719 214.273438 120.632812 214.929688 119.695312 215.53125 C 118.753906 216.132812 117.773438 216.667969 116.753906 217.144531 C 115.730469 217.621094 114.6875 218.023438 113.621094 218.351562 C 112.554688 218.683594 111.488281 218.933594 110.421875 219.105469 C 109.355469 219.277344 108.304688 219.367188 107.277344 219.375 C 106.246094 219.382812 105.257812 219.304688 104.304688 219.148438 C 103.351562 218.992188 102.457031 218.757812 101.621094 218.441406 C 100.785156 218.125 100.023438 217.734375 99.332031 217.273438 C 98.640625 216.808594 98.039062 216.285156 97.519531 215.691406 C 97.003906 215.101562 96.582031 214.457031 96.261719 213.761719 C 95.9375 213.0625 95.714844 212.328125 95.597656 211.550781 C 95.480469 210.773438 95.464844 209.972656 95.558594 209.148438 C 95.648438 208.320312 95.84375 207.484375 96.144531 206.640625 C 96.441406 205.800781 96.835938 204.960938 97.332031 204.132812 C 97.824219 203.304688 98.40625 202.5 99.074219 201.71875 C 99.746094 200.933594 100.492188 200.191406 101.3125 199.484375 C 102.128906 198.78125 103.011719 198.125 103.949219 197.523438 C 104.886719 196.921875 105.867188 196.382812 106.890625 195.910156 C 107.914062 195.433594 108.957031 195.03125 110.019531 194.703125 C 111.085938 194.371094 112.152344 194.121094 113.222656 193.949219 C 114.289062 193.777344 115.335938 193.6875 116.367188 193.679688 C 117.394531 193.671875 118.386719 193.746094 119.339844 193.90625 C 120.289062 194.0625 121.183594 194.296875 122.019531 194.613281 C 122.859375 194.929688 123.621094 195.320312 124.3125 195.78125 C 125 196.242188 125.605469 196.769531 126.121094 197.363281 C 126.640625 197.953125 127.058594 198.597656 127.382812 199.292969 Z M 127.382812 199.292969 " fill-opacity="1" fill-rule="nonzero"/><path fill="#eec51d" d="M 140.222656 262.082031 L 110.25 279.210938 L 50.210938 174.046875 C 49.929688 173.558594 49.675781 173.054688 49.445312 172.539062 C 49.214844 172.023438 49.007812 171.496094 48.828125 170.960938 C 48.648438 170.421875 48.5 169.878906 48.371094 169.328125 C 48.246094 168.777344 48.148438 168.222656 48.078125 167.660156 C 48.007812 167.097656 47.964844 166.535156 47.949219 165.972656 C 47.933594 165.40625 47.945312 164.84375 47.984375 164.277344 C 48.023438 163.714844 48.089844 163.152344 48.183594 162.597656 C 48.28125 162.039062 48.402344 161.488281 48.550781 160.941406 C 48.699219 160.398438 48.875 159.859375 49.078125 159.332031 C 49.277344 158.804688 49.503906 158.285156 49.757812 157.78125 C 50.011719 157.273438 50.285156 156.78125 50.585938 156.304688 C 50.886719 155.824219 51.210938 155.363281 51.558594 154.917969 C 51.902344 154.46875 52.269531 154.039062 52.660156 153.628906 C 53.046875 153.21875 53.457031 152.828125 53.882812 152.457031 C 54.308594 152.085938 54.753906 151.738281 55.214844 151.410156 C 55.675781 151.085938 56.148438 150.78125 56.640625 150.5 C 57.132812 150.21875 57.636719 149.964844 58.152344 149.734375 C 58.667969 149.503906 59.191406 149.296875 59.730469 149.117188 C 60.265625 148.9375 60.808594 148.785156 61.359375 148.660156 C 61.910156 148.535156 62.464844 148.4375 63.027344 148.367188 C 63.585938 148.292969 64.152344 148.25 64.714844 148.234375 C 65.28125 148.21875 65.84375 148.230469 66.410156 148.269531 C 66.972656 148.308594 67.53125 148.378906 68.089844 148.472656 C 68.648438 148.566406 69.199219 148.6875 69.742188 148.835938 C 70.289062 148.984375 70.824219 149.160156 71.355469 149.363281 C 71.882812 149.5625 72.398438 149.789062 72.902344 150.042969 C 73.410156 150.296875 73.902344 150.570312 74.378906 150.871094 C 74.859375 151.171875 75.320312 151.496094 75.769531 151.84375 C 76.214844 152.1875 76.644531 152.554688 77.054688 152.945312 C 77.464844 153.332031 77.855469 153.742188 78.226562 154.167969 C 78.597656 154.59375 78.949219 155.039062 79.273438 155.5 C 79.601562 155.960938 79.90625 156.4375 80.1875 156.925781 Z M 140.222656 262.082031 " fill-opacity="1" fill-rule="nonzero"/><path fill="#d16a46" d="M 141.550781 273.125 C 141.292969 275.207031 141.367188 277.105469 141.285156 279.085938 L 141.144531 284.992188 L 140.828125 290.992188 C 140.679688 293.015625 140.539062 295.03125 140.308594 297.101562 C 138.410156 296.242188 136.617188 295.34375 134.792969 294.441406 L 129.464844 291.671875 L 124.292969 288.796875 C 122.546875 287.859375 120.949219 286.832031 119.03125 285.992188 C 117.109375 285.148438 115.019531 284.410156 113.433594 283.375 C 112.6875 282.917969 112.042969 282.339844 111.503906 281.648438 C 110.960938 280.957031 110.558594 280.195312 110.296875 279.359375 L 110.238281 279.203125 L 140.148438 262.109375 L 140.25 262.234375 C 140.835938 262.890625 141.289062 263.625 141.609375 264.441406 C 141.933594 265.257812 142.101562 266.105469 142.117188 266.984375 C 142.238281 268.867188 141.765625 271.070312 141.550781 273.125 Z M 56.640625 150.507812 C 56.152344 150.789062 55.675781 151.089844 55.214844 151.417969 C 54.753906 151.746094 54.308594 152.09375 53.882812 152.464844 C 53.457031 152.835938 53.050781 153.226562 52.660156 153.636719 C 52.273438 154.046875 51.90625 154.476562 51.558594 154.921875 C 51.214844 155.371094 50.890625 155.832031 50.589844 156.308594 C 50.289062 156.789062 50.011719 157.28125 49.761719 157.785156 C 49.507812 158.292969 49.28125 158.808594 49.082031 159.335938 C 48.878906 159.863281 48.703125 160.402344 48.554688 160.945312 C 48.40625 161.492188 48.285156 162.042969 48.1875 162.601562 C 48.09375 163.15625 48.027344 163.71875 47.988281 164.28125 C 47.945312 164.84375 47.933594 165.410156 47.949219 165.972656 C 47.964844 166.539062 48.007812 167.101562 48.082031 167.660156 C 48.152344 168.222656 48.25 168.777344 48.375 169.328125 C 48.5 169.878906 48.652344 170.425781 48.832031 170.960938 C 49.007812 171.496094 49.214844 172.023438 49.445312 172.539062 C 49.675781 173.054688 49.929688 173.558594 50.210938 174.046875 L 56.945312 185.867188 C 64.203125 180.488281 78.453125 171.316406 85.738281 166.660156 L 80.1875 156.941406 C 79.90625 156.449219 79.601562 155.972656 79.277344 155.511719 C 78.949219 155.050781 78.601562 154.605469 78.230469 154.179688 C 77.859375 153.753906 77.46875 153.34375 77.058594 152.957031 C 76.648438 152.566406 76.21875 152.199219 75.773438 151.855469 C 75.324219 151.507812 74.863281 151.183594 74.382812 150.882812 C 73.90625 150.582031 73.414062 150.304688 72.90625 150.050781 C 72.402344 149.800781 71.886719 149.570312 71.355469 149.371094 C 70.828125 149.167969 70.292969 148.992188 69.746094 148.84375 C 69.203125 148.695312 68.652344 148.570312 68.09375 148.476562 C 67.535156 148.382812 66.976562 148.316406 66.410156 148.273438 C 65.847656 148.234375 65.28125 148.222656 64.71875 148.238281 C 64.152344 148.253906 63.589844 148.296875 63.027344 148.367188 C 62.46875 148.4375 61.914062 148.535156 61.359375 148.664062 C 60.808594 148.789062 60.265625 148.941406 59.730469 149.121094 C 59.195312 149.296875 58.667969 149.503906 58.152344 149.734375 C 57.636719 149.964844 57.132812 150.21875 56.640625 150.5 Z M 56.640625 150.507812 " fill-opacity="1" fill-rule="nonzero"/><path fill="#000000" d="M 129.199219 291.492188 L 141.179688 284.550781 L 141.179688 284.980469 L 140.863281 290.976562 C 140.714844 293 140.574219 295.015625 140.347656 297.085938 C 138.449219 296.226562 136.65625 295.328125 134.832031 294.425781 L 129.5 291.65625 Z M 134.964844 251.363281 L 128.007812 238.894531 C 123.371094 230.59375 118.640625 222.332031 113.898438 214.082031 C 109.160156 205.832031 104.367188 197.617188 99.5 189.433594 L 92.207031 177.171875 C 89.726562 173.109375 87.289062 169.046875 84.773438 164.976562 C 78.5625 169.253906 63.9375 178.953125 55.976562 184.183594 L 58.425781 188.472656 C 63.707031 184.980469 71.199219 180.015625 77.625 175.703125 C 81.921875 172.828125 84.925781 170.820312 87.046875 169.335938 C 87.902344 170.925781 88.742188 172.511719 89.601562 174.09375 C 82.15625 179.160156 67.839844 188.636719 61.054688 193.128906 L 63.507812 197.417969 C 68.777344 193.925781 77.195312 188.363281 84.320312 183.597656 C 87.53125 181.449219 90.019531 179.78125 91.964844 178.429688 L 98.34375 190.027344 C 102.933594 198.355469 107.625 206.636719 112.304688 214.917969 C 116.984375 223.199219 121.742188 231.449219 126.554688 239.65625 L 133.78125 251.960938 C 136.242188 256.039062 138.65625 260.136719 141.164062 264.191406 L 141.75 263.859375 C 139.550781 259.730469 137.238281 255.542969 134.964844 251.363281 Z M 134.964844 251.363281 " fill-opacity="1" fill-rule="nonzero"/><path fill="#9b131d" d="M 277.351562 93.707031 L 259.195312 95.011719 C 255.683594 101.601562 242.878906 126.6875 239.941406 151.835938 C 239.941406 151.835938 224.96875 116.609375 236.035156 97.257812 C 237.03125 95.476562 238.203125 93.816406 239.550781 92.28125 C 234.003906 89.863281 223.824219 86.1875 205.164062 80.949219 C 177.632812 73.214844 161.863281 53.417969 155.886719 42.429688 C 141.859375 47.867188 98.171875 70.304688 108.035156 136.519531 C 108.035156 136.519531 53.945312 104.757812 95.484375 58.863281 C 130.6875 20.019531 152.625 29.738281 158.53125 33.601562 C 288.40625 4.59375 277.351562 93.707031 277.351562 93.707031 Z M 277.351562 93.707031 " fill-opacity="1" fill-rule="nonzero"/><path fill="#d16a46" d="M 138.101562 217.828125 C 141.957031 221.519531 144.398438 227.0625 143.21875 232.277344 C 142.191406 236.824219 137.835938 240.609375 133.308594 240.585938 C 136.058594 241.554688 137.953125 244.90625 137.535156 247.972656 C 137.015625 251.664062 134.003906 254.621094 130.675781 256.371094 C 128.511719 257.496094 126.226562 258.230469 123.8125 258.574219 C 121.398438 258.917969 119 258.847656 116.609375 258.371094 L 118.90625 258.933594 C 120.152344 264.933594 116.019531 271.039062 110.613281 273.929688 C 105.207031 276.816406 98.84375 277.164062 92.722656 277.15625 C 85.457031 277.15625 77.917969 276.632812 71.546875 273.144531 C 70.898438 273.78125 70.242188 274.410156 69.570312 275.015625 C 65.878906 278.308594 61.90625 281.222656 57.652344 283.753906 C 53.484375 286.285156 49.09375 288.335938 44.480469 289.90625 C 42.132812 290.699219 39.746094 291.324219 37.3125 291.78125 C 36.070312 291.996094 34.816406 292.1875 33.53125 292.304688 C 32.203125 292.441406 30.875 292.476562 29.542969 292.410156 C 28.664062 292.355469 27.785156 292.257812 26.914062 292.121094 C 26.039062 291.980469 25.175781 291.796875 24.324219 291.574219 C 23.46875 291.347656 22.628906 291.082031 21.800781 290.777344 C 20.972656 290.46875 20.160156 290.121094 19.367188 289.734375 C 18.570312 289.347656 17.796875 288.921875 17.046875 288.460938 C 16.292969 287.996094 15.566406 287.496094 14.863281 286.964844 C 14.160156 286.429688 13.484375 285.859375 12.835938 285.257812 C 12.1875 284.660156 11.574219 284.027344 10.988281 283.363281 C 10.402344 282.703125 9.851562 282.015625 9.332031 281.296875 C 8.816406 280.582031 8.332031 279.84375 7.886719 279.078125 C 7.445312 278.316406 7.039062 277.53125 6.667969 276.730469 C 6.300781 275.925781 5.972656 275.105469 5.6875 274.269531 C 5.398438 273.433594 5.152344 272.585938 4.949219 271.726562 C 4.746094 270.867188 4.582031 270 4.464844 269.125 C 4.34375 268.25 4.269531 267.371094 4.238281 266.484375 C 4.207031 265.601562 4.214844 264.71875 4.269531 263.839844 C 4.425781 261.371094 4.910156 258.964844 5.722656 256.628906 C 6.53125 254.292969 7.640625 252.105469 9.046875 250.070312 C 9.820312 248.980469 10.671875 247.960938 11.601562 247.003906 C 12.488281 246.058594 13.417969 245.203125 14.355469 244.359375 C 16.21875 242.730469 18.1875 241.242188 20.261719 239.890625 C 24.351562 237.238281 28.683594 235.0625 33.25 233.363281 C 37.875 231.597656 42.625 230.292969 47.5 229.445312 C 50.039062 229.003906 52.59375 228.703125 55.164062 228.546875 C 57.28125 228.433594 59.394531 228.453125 61.507812 228.613281 C 66.238281 221.128906 75.667969 214.535156 83.175781 210.773438 C 95.730469 204.511719 110.804688 205.929688 124.109375 210.300781 C 129.183594 211.96875 134.246094 214.121094 138.101562 217.828125 Z M 370.523438 227.03125 C 370.113281 226.179688 369.664062 225.351562 369.171875 224.546875 C 368.679688 223.738281 368.152344 222.957031 367.582031 222.203125 C 367.015625 221.449219 366.410156 220.722656 365.773438 220.027344 C 365.132812 219.332031 364.460938 218.671875 363.757812 218.042969 C 363.054688 217.414062 362.320312 216.820312 361.558594 216.261719 C 360.796875 215.703125 360.007812 215.1875 359.195312 214.707031 C 358.382812 214.226562 357.546875 213.789062 356.691406 213.390625 C 355.835938 212.992188 354.960938 212.636719 354.070312 212.324219 C 353.179688 212.011719 352.277344 211.746094 351.359375 211.519531 C 350.441406 211.296875 349.515625 211.121094 348.582031 210.988281 C 347.644531 210.855469 346.707031 210.769531 345.761719 210.730469 C 344.820312 210.6875 343.875 210.695312 342.933594 210.746094 C 341.992188 210.800781 341.054688 210.898438 340.121094 211.042969 C 339.1875 211.1875 338.265625 211.378906 337.351562 211.613281 C 336.433594 211.847656 335.535156 212.128906 334.648438 212.453125 C 333.761719 212.777344 332.890625 213.140625 332.042969 213.550781 C 330.152344 214.457031 328.324219 215.46875 326.554688 216.585938 C 324.796875 217.679688 323.074219 218.832031 321.386719 220.035156 C 318.039062 222.433594 314.824219 225 311.738281 227.726562 C 305.519531 233.222656 299.722656 239.128906 294.347656 245.453125 C 288.820312 251.820312 283.652344 258.46875 278.84375 265.398438 C 277.816406 266.875 276.8125 268.394531 275.824219 269.925781 C 264.011719 267.109375 252.734375 261.710938 240.539062 260.9375 C 219.585938 256.265625 199.191406 288.894531 215.878906 293.746094 C 220.847656 294.648438 232.121094 286.359375 234.167969 293.746094 C 232.453125 293.511719 229.683594 293.628906 225.574219 294.316406 C 219.023438 295.414062 203.472656 299.890625 211.457031 309.089844 C 217.304688 315.800781 221.222656 307.210938 227.351562 306.636719 C 233.480469 306.058594 240.175781 311.894531 244.953125 315.011719 C 258.039062 321.511719 282.378906 315.90625 290.164062 302.535156 C 290.980469 302.335938 291.792969 302.121094 292.605469 301.910156 C 296.992188 300.742188 301.230469 299.410156 305.351562 297.933594 C 313.421875 295.023438 321.265625 291.589844 328.882812 287.628906 C 336.328125 283.867188 343.390625 279.484375 350.0625 274.476562 C 353.367188 272 356.503906 269.324219 359.46875 266.453125 C 360.945312 265.011719 362.425781 263.5 363.769531 261.949219 C 365.179688 260.367188 366.476562 258.695312 367.652344 256.933594 L 368.523438 255.652344 C 369.21875 254.613281 369.847656 253.53125 370.402344 252.410156 C 370.960938 251.285156 371.441406 250.132812 371.847656 248.945312 C 372.253906 247.761719 372.578125 246.554688 372.828125 245.328125 C 373.078125 244.097656 373.246094 242.859375 373.332031 241.609375 C 373.421875 240.359375 373.425781 239.109375 373.351562 237.859375 C 373.273438 236.609375 373.117188 235.367188 372.882812 234.136719 C 372.644531 232.90625 372.328125 231.695312 371.933594 230.507812 C 371.539062 229.316406 371.070312 228.160156 370.523438 227.03125 Z M 370.523438 227.03125 " fill-opacity="1" fill-rule="nonzero"/><path fill="#f8cda2" d="M 302.277344 254.347656 C 302.367188 253.113281 302.929688 250.75 303.851562 249.914062 C 305.328125 248.613281 308.613281 248.792969 310.40625 248.886719 C 312.503906 249 314.675781 249.367188 316.714844 249.53125 C 317.585938 249.597656 318.582031 249.738281 319.054688 250.476562 C 319.644531 251.398438 319.007812 252.617188 318.316406 253.46875 C 317.144531 254.886719 315.78125 256.085938 314.230469 257.074219 C 312.679688 258.0625 311.011719 258.789062 309.234375 259.25 C 307.625 259.664062 305.816406 259.828125 304.375 258.984375 C 302.757812 258.0625 302.144531 256.121094 302.277344 254.347656 Z M 48.953125 244.679688 C 47.949219 245.292969 46.738281 245.378906 45.601562 245.71875 C 44.890625 245.945312 44.226562 246.265625 43.605469 246.679688 C 42.988281 247.09375 42.4375 247.585938 41.957031 248.15625 C 41.476562 248.726562 41.085938 249.355469 40.78125 250.035156 C 40.480469 250.71875 40.277344 251.429688 40.175781 252.167969 L 45.667969 252.167969 C 46.117188 252.125 46.542969 252.207031 46.945312 252.410156 C 47.292969 252.707031 47.582031 253.046875 47.816406 253.4375 C 49.339844 255.308594 52.3125 254.382812 54.460938 253.304688 C 55.425781 252.945312 56.164062 252.320312 56.679688 251.429688 C 57.113281 250.425781 56.730469 249.25 56.898438 248.164062 C 57.363281 245.210938 62.066406 240.246094 56.804688 238.222656 C 52.261719 236.464844 51.820312 242.925781 48.953125 244.679688 Z M 44.238281 261.601562 C 44.039062 261.410156 43.8125 261.269531 43.554688 261.179688 C 43.296875 261.089844 43.03125 261.058594 42.757812 261.085938 C 42.484375 261.117188 42.230469 261.199219 41.996094 261.34375 C 41.761719 261.484375 41.570312 261.667969 41.417969 261.894531 C 41.285156 262.136719 41.199219 262.394531 41.160156 262.667969 C 41.121094 262.9375 41.125 263.210938 41.179688 263.480469 C 41.234375 263.75 41.332031 264 41.472656 264.238281 C 41.617188 264.472656 41.792969 264.675781 42.007812 264.851562 C 42.457031 265.183594 42.960938 265.386719 43.519531 265.460938 C 44.074219 265.535156 44.613281 265.472656 45.136719 265.269531 C 45.484375 265.160156 45.785156 264.976562 46.039062 264.71875 C 46.953125 263.71875 46.039062 261.953125 44.785156 261.542969 C 43.527344 261.128906 42.109375 261.59375 40.832031 262.058594 M 318.183594 237.683594 C 316.1875 236.457031 313.421875 239.070312 314.167969 241.296875 C 314.910156 243.519531 318.035156 244.25 320.019531 243.023438 C 321.429688 242.144531 322.308594 240.253906 321.59375 238.761719 C 320.878906 237.269531 318.285156 237.03125 317.644531 238.5625 M 304.921875 266.378906 C 303.695312 265.691406 302.136719 265.339844 300.898438 265.996094 C 299.65625 266.652344 299.164062 268.625 300.269531 269.503906 C 300.839844 269.816406 301.429688 270.089844 302.035156 270.324219 C 303.667969 271.300781 303.902344 274.210938 305.800781 274.347656 C 306.199219 274.34375 306.574219 274.25 306.921875 274.058594 C 307.273438 273.871094 307.558594 273.609375 307.78125 273.277344 C 308.085938 272.878906 308.316406 272.441406 308.472656 271.964844 C 308.625 271.488281 308.699219 270.996094 308.683594 270.496094 C 308.671875 269.992188 308.574219 269.507812 308.394531 269.039062 C 308.214844 268.570312 307.960938 268.144531 307.636719 267.761719 C 307.308594 267.382812 306.929688 267.066406 306.492188 266.816406 C 306.058594 266.5625 305.59375 266.394531 305.101562 266.300781 C 304.609375 266.210938 304.113281 266.203125 303.617188 266.285156 C 303.121094 266.363281 302.652344 266.523438 302.210938 266.761719 M 294.007812 259.621094 C 293.128906 259.753906 292.636719 260.683594 292.273438 261.496094 C 292.125 261.742188 292.085938 262.003906 292.148438 262.28125 C 292.324219 262.597656 292.59375 262.757812 292.953125 262.761719 C 293.625 262.851562 294.277344 262.769531 294.902344 262.507812 C 295.402344 262.347656 295.742188 262.019531 295.921875 261.527344 C 295.960938 261.195312 295.890625 260.890625 295.707031 260.613281 C 295.523438 260.332031 295.273438 260.144531 294.953125 260.050781 C 294.316406 259.875 293.671875 259.863281 293.027344 260.011719 " fill-opacity="1" fill-rule="nonzero"/><path fill="#9b131d" d="M 136.003906 240.527344 C 136.042969 240.707031 136.015625 240.878906 135.925781 241.042969 C 135.832031 241.203125 135.699219 241.316406 135.523438 241.375 C 134.285156 241.582031 133.308594 240.820312 132.269531 240.203125 C 131.226562 239.582031 130.054688 238.886719 128.878906 238.304688 C 126.554688 237.117188 124.144531 236.132812 121.652344 235.347656 C 116.484375 233.761719 111.160156 232.710938 106.257812 230.332031 C 105.636719 230.03125 106.082031 228.996094 106.730469 229.21875 C 111.996094 231.027344 117.621094 231.285156 122.9375 232.910156 C 125.472656 233.679688 127.914062 234.683594 130.261719 235.917969 C 131.457031 236.558594 132.628906 237.261719 133.761719 238.015625 C 134.675781 238.605469 135.835938 239.324219 136.003906 240.527344 Z M 81.996094 275.457031 C 78.007812 274.273438 74.359375 272.417969 71.054688 269.894531 C 69.421875 268.597656 67.910156 267.171875 66.519531 265.617188 C 65.085938 264.050781 63.832031 262.28125 62.207031 260.90625 C 61.632812 260.417969 60.605469 260.863281 60.855469 261.6875 C 61.65625 263.855469 62.832031 265.800781 64.378906 267.515625 C 65.84375 269.324219 67.488281 270.945312 69.316406 272.382812 C 71.082031 273.789062 73.011719 274.917969 75.097656 275.769531 C 77.261719 276.621094 79.503906 276.964844 81.824219 276.792969 C 82.152344 276.710938 82.335938 276.503906 82.378906 276.167969 C 82.417969 275.835938 82.292969 275.585938 81.996094 275.429688 Z M 112.933594 254.28125 C 110.4375 253.222656 107.886719 252.328125 105.273438 251.605469 C 99.089844 249.761719 92.769531 248.519531 86.46875 247.101562 C 86.316406 247.0625 86.167969 247.085938 86.03125 247.167969 C 85.894531 247.246094 85.804688 247.363281 85.761719 247.515625 C 85.71875 247.667969 85.738281 247.816406 85.8125 247.957031 C 85.886719 248.097656 86 248.191406 86.152344 248.238281 C 92.058594 250.039062 97.863281 252.042969 103.785156 253.726562 C 106.28125 254.464844 108.769531 255.152344 111.203125 256.054688 C 113.640625 256.953125 115.789062 258.5 118.195312 259.515625 C 118.691406 259.722656 119.304688 259.273438 118.984375 258.71875 C 117.707031 256.519531 115.160156 255.253906 112.933594 254.25 Z M 235.679688 274.835938 C 230.011719 275.382812 224.636719 276.933594 219.546875 279.492188 C 215.695312 281.441406 209.269531 284.949219 210.820312 290.253906 C 210.90625 290.503906 211.0625 290.699219 211.285156 290.839844 C 211.511719 290.980469 211.757812 291.035156 212.019531 290.996094 C 212.285156 290.960938 212.507812 290.84375 212.6875 290.648438 C 212.867188 290.453125 212.964844 290.222656 212.976562 289.957031 C 213.480469 285.835938 218.847656 283.441406 222.101562 281.933594 C 226.425781 279.957031 230.953125 278.726562 235.679688 278.242188 C 235.90625 278.238281 236.121094 278.191406 236.328125 278.101562 C 236.535156 278.011719 236.71875 277.890625 236.878906 277.730469 C 237.035156 277.570312 237.160156 277.390625 237.25 277.183594 C 237.339844 276.976562 237.386719 276.761719 237.394531 276.535156 C 237.394531 276.308594 237.351562 276.085938 237.265625 275.875 C 237.179688 275.664062 237.054688 275.480469 236.894531 275.316406 C 236.734375 275.15625 236.546875 275.03125 236.339844 274.941406 C 236.128906 274.851562 235.910156 274.808594 235.679688 274.808594 Z M 215.449219 273.410156 C 216.238281 273.171875 216.953125 272.792969 217.589844 272.273438 C 218.394531 271.796875 219.222656 271.363281 220.070312 270.972656 C 221.738281 270.207031 223.460938 269.597656 225.242188 269.140625 C 226.964844 268.714844 228.710938 268.453125 230.484375 268.359375 C 231.414062 268.308594 232.34375 268.316406 233.273438 268.359375 C 234.15625 268.464844 235.039062 268.445312 235.917969 268.300781 C 236.210938 268.203125 236.378906 268 236.417969 267.691406 C 236.457031 267.382812 236.347656 267.144531 236.085938 266.976562 C 234.609375 266.023438 232.179688 266.15625 230.484375 266.238281 C 228.457031 266.308594 226.46875 266.617188 224.515625 267.164062 C 222.621094 267.675781 220.816406 268.417969 219.105469 269.378906 C 218.246094 269.867188 217.414062 270.40625 216.617188 270.988281 C 215.828125 271.421875 215.222656 272.03125 214.792969 272.820312 C 214.644531 273.160156 215.101562 273.433594 215.449219 273.382812 Z M 293.78125 272.089844 C 290.960938 270.101562 287.136719 269.402344 283.789062 268.980469 C 282.015625 268.757812 280.238281 268.691406 278.453125 268.773438 C 276.695312 268.78125 274.972656 269.027344 273.285156 269.511719 C 273.242188 269.53125 273.199219 269.554688 273.160156 269.578125 C 271.792969 269.097656 270.398438 268.667969 268.988281 268.285156 C 268.839844 268.246094 268.703125 268.261719 268.570312 268.335938 C 268.4375 268.410156 268.351562 268.519531 268.3125 268.664062 C 268.269531 268.8125 268.289062 268.949219 268.363281 269.082031 C 268.4375 269.214844 268.546875 269.300781 268.691406 269.339844 C 271.644531 270.363281 274.53125 271.546875 277.351562 272.894531 C 280.136719 274.214844 282.71875 275.9375 285.472656 277.246094 C 286.066406 277.527344 286.804688 276.765625 286.210938 276.277344 C 283.820312 274.230469 280.792969 272.804688 277.949219 271.503906 C 277.390625 271.246094 276.828125 271.011719 276.257812 270.765625 C 277 270.714844 277.691406 270.679688 278.410156 270.6875 C 280.101562 270.710938 281.785156 270.839844 283.457031 271.078125 C 286.796875 271.558594 289.835938 272.851562 293.09375 273.601562 C 293.308594 273.699219 293.523438 273.703125 293.738281 273.621094 C 293.957031 273.535156 294.113281 273.386719 294.207031 273.175781 C 294.304688 272.960938 294.308594 272.746094 294.226562 272.527344 C 294.140625 272.3125 293.992188 272.15625 293.78125 272.058594 Z M 293.78125 272.089844 " fill-opacity="1" fill-rule="nonzero"/><path fill="#000000" d="M 211.738281 259.472656 C 201.105469 265.9375 190.691406 272.738281 180.496094 279.867188 C 187.191406 285.003906 193.40625 290.667969 199.140625 296.855469 C 199.269531 297.003906 199.34375 297.171875 199.363281 297.367188 C 199.382812 297.5625 199.339844 297.742188 199.242188 297.910156 C 199.144531 298.082031 199.003906 298.203125 198.824219 298.28125 C 198.644531 298.359375 198.460938 298.375 198.269531 298.332031 C 187.792969 296.5 177.4375 294.140625 167.199219 291.25 C 158.546875 302.121094 150.355469 313.339844 142.628906 324.902344 C 142.523438 325.0625 142.386719 325.175781 142.207031 325.242188 C 142.03125 325.3125 141.851562 325.320312 141.667969 325.269531 C 141.484375 325.222656 141.332031 325.121094 141.214844 324.972656 C 141.097656 324.824219 141.035156 324.65625 141.027344 324.464844 C 140.648438 315.269531 139.777344 306.125 139.128906 296.953125 C 139.078125 296.25 140.25 296.085938 140.359375 296.789062 C 141.609375 305.078125 142.191406 313.476562 142.613281 321.851562 C 150.046875 310.773438 157.96875 300.070312 166.238281 289.660156 C 166.476562 289.414062 166.753906 289.339844 167.082031 289.441406 C 176.597656 292.128906 186.234375 294.328125 195.964844 296.089844 C 190.5625 290.4375 184.75 285.257812 178.519531 280.539062 C 178.386719 280.457031 178.285156 280.34375 178.207031 280.207031 C 178.132812 280.070312 178.097656 279.921875 178.097656 279.765625 C 178.097656 279.609375 178.132812 279.464844 178.207031 279.328125 C 178.285156 279.191406 178.386719 279.078125 178.519531 278.996094 C 188.078125 272.289062 197.839844 265.886719 207.800781 259.789062 C 202.632812 260.167969 197.515625 260.734375 192.414062 261.519531 C 186.925781 262.359375 181.488281 263.441406 176.097656 264.753906 C 171.933594 265.765625 167.304688 267.914062 163.132812 265.945312 C 160.253906 264.578125 158.167969 261.941406 156.035156 259.664062 C 154.144531 257.664062 151.988281 255.542969 149.148438 255.386719 C 147.179688 263.148438 145.996094 271.027344 145.597656 279.023438 C 145.597656 279.230469 145.535156 279.417969 145.410156 279.582031 C 145.285156 279.746094 145.125 279.855469 144.925781 279.910156 L 142.289062 280.414062 C 141.144531 280.589844 140.648438 278.847656 141.808594 278.664062 L 143.867188 278.324219 C 144.351562 270.207031 145.617188 262.210938 147.664062 254.339844 C 147.71875 254.148438 147.828125 253.992188 147.984375 253.875 C 148.144531 253.753906 148.320312 253.691406 148.519531 253.691406 C 152.09375 253.484375 154.855469 255.90625 157.164062 258.3125 C 159.292969 260.53125 161.359375 263.351562 164.285156 264.597656 C 166.351562 265.476562 168.449219 265.027344 170.542969 264.472656 C 173.21875 263.734375 175.90625 263.085938 178.605469 262.480469 C 189.386719 260.046875 200.292969 258.511719 211.324219 257.878906 C 211.503906 257.898438 211.660156 257.972656 211.796875 258.089844 C 211.933594 258.210938 212.027344 258.359375 212.070312 258.535156 C 212.117188 258.710938 212.109375 258.882812 212.046875 259.054688 C 211.988281 259.226562 211.882812 259.367188 211.738281 259.472656 Z M 103.894531 85.121094 C 104.804688 85.195312 105.089844 83.535156 105.320312 82.90625 C 105.644531 82.042969 106.007812 81.191406 106.414062 80.367188 C 107.238281 78.683594 108.214844 77.085938 109.171875 75.476562 C 109.550781 74.855469 108.65625 74.132812 108.15625 74.6875 C 106.808594 76.210938 105.710938 77.898438 104.863281 79.746094 C 104.425781 80.660156 104.035156 81.59375 103.695312 82.539062 C 103.421875 83.195312 102.617188 85.027344 103.894531 85.121094 Z M 232.113281 63.296875 C 233.589844 64.035156 235.023438 65.046875 236.476562 65.917969 C 237.179688 66.347656 237.875 66.789062 238.554688 67.261719 C 239.25 67.851562 240.03125 68.292969 240.902344 68.578125 C 241.28125 68.667969 241.589844 68.5625 241.828125 68.25 C 242.066406 67.941406 242.09375 67.613281 241.90625 67.269531 C 241.382812 66.457031 240.699219 65.816406 239.851562 65.347656 C 239.113281 64.855469 238.375 64.390625 237.636719 63.945312 C 236.0625 63.101562 234.425781 62.40625 232.726562 61.855469 C 232.539062 61.804688 232.351562 61.820312 232.175781 61.90625 C 232 61.992188 231.871094 62.128906 231.792969 62.308594 C 231.71875 62.488281 231.710938 62.675781 231.769531 62.863281 C 231.832031 63.050781 231.945312 63.195312 232.113281 63.296875 Z M 201.722656 62.890625 C 210.25 68.425781 219.132812 73.324219 228.363281 77.582031 C 237.527344 81.894531 246.886719 85.734375 256.433594 89.105469 C 261.671875 90.941406 266.980469 92.566406 272.289062 94.179688 C 273.402344 95.019531 275.003906 93.3125 273.898438 92.234375 C 270.714844 89.082031 267.359375 86.128906 263.824219 83.371094 C 260.265625 80.652344 256.441406 78.328125 252.832031 75.683594 C 252.242188 75.253906 251.457031 76.25 252.042969 76.710938 C 255.519531 79.414062 258.886719 82.285156 262.289062 85.085938 C 264.4375 86.851562 266.566406 88.644531 268.601562 90.535156 C 250.957031 85.070312 233.925781 78.09375 217.511719 69.609375 C 212.441406 67.074219 207.390625 64.460938 202.359375 61.773438 C 202.207031 61.6875 202.042969 61.667969 201.871094 61.714844 C 201.703125 61.761719 201.574219 61.859375 201.484375 62.015625 C 201.398438 62.167969 201.378906 62.332031 201.425781 62.5 C 201.472656 62.671875 201.570312 62.800781 201.722656 62.890625 Z M 235.953125 89.480469 C 233.503906 88.625 230.976562 87.589844 228.445312 86.679688 C 223.386719 84.847656 218.234375 83.3125 213.066406 81.867188 L 205.296875 79.789062 C 202.75 79.101562 200.234375 78.292969 197.757812 77.367188 C 187.730469 73.558594 178.796875 67.988281 170.957031 60.660156 C 167.03125 57.042969 163.488281 53.089844 160.324219 48.789062 C 158.84375 46.769531 157.476562 44.671875 156.226562 42.503906 L 157.179688 42.109375 L 157.09375 41.867188 C 156.753906 41.984375 156.421875 42.125 156.082031 42.25 L 155.984375 42.082031 C 155.34375 40.921875 154.730469 39.734375 154.203125 38.515625 C 153.933594 37.90625 153.703125 37.285156 153.503906 36.652344 C 153.398438 36.339844 153.320312 36.023438 153.265625 35.699219 C 153.253906 35.542969 153.253906 35.390625 153.265625 35.234375 C 153.265625 35.078125 153.328125 34.945312 153.378906 34.9375 L 153.320312 34.679688 C 153.082031 34.777344 152.972656 34.957031 152.988281 35.210938 C 152.964844 35.390625 152.964844 35.566406 152.988281 35.742188 C 153.03125 36.085938 153.105469 36.417969 153.199219 36.75 C 153.382812 37.398438 153.597656 38.035156 153.851562 38.660156 C 154.34375 39.921875 154.90625 41.15625 155.535156 42.355469 C 155.550781 42.394531 155.570312 42.429688 155.59375 42.464844 C 146.945312 45.777344 139.113281 50.453125 132.097656 56.5 C 124.597656 62.925781 118.640625 70.558594 114.222656 79.398438 C 112.046875 83.792969 110.289062 88.347656 108.953125 93.0625 C 107.671875 97.792969 106.753906 102.589844 106.199219 107.460938 C 105.410156 115.507812 105.4375 123.550781 106.28125 131.589844 C 105.355469 129.765625 104.535156 127.894531 103.820312 125.976562 C 102.527344 122.390625 101.570312 118.71875 100.941406 114.957031 C 99.664062 107.289062 99.75 99.636719 101.199219 92 C 101.339844 91.261719 100.21875 90.90625 100.019531 91.675781 C 98.09375 99.414062 97.75 107.226562 98.984375 115.105469 C 99.59375 119.023438 100.578125 122.847656 101.9375 126.574219 C 102.914062 129.449219 104.132812 132.21875 105.59375 134.878906 L 104.351562 133.8125 C 103.371094 132.972656 102.417969 132.09375 101.464844 131.230469 C 100.511719 130.363281 99.613281 129.523438 98.710938 128.644531 C 97.84375 127.699219 96.898438 126.835938 95.875 126.058594 C 95.300781 125.667969 94.664062 126.414062 94.96875 126.960938 C 95.664062 128.046875 96.484375 129.03125 97.425781 129.914062 C 98.320312 130.84375 99.222656 131.769531 100.164062 132.648438 C 101.109375 133.527344 102.035156 134.332031 102.992188 135.144531 C 103.976562 136.054688 105.0625 136.820312 106.25 137.441406 C 106.453125 137.53125 106.652344 137.53125 106.855469 137.441406 L 106.664062 158.535156 C 106.664062 159.445312 106.699219 160.398438 106.753906 161.34375 C 106.804688 162.289062 106.824219 163.234375 106.9375 164.171875 L 107.371094 166.980469 C 107.460938 167.445312 107.496094 167.917969 107.625 168.375 L 107.976562 169.75 C 108.890625 173.441406 110.292969 176.9375 112.1875 180.238281 C 113.128906 181.875 114.179688 183.4375 115.339844 184.929688 C 116.476562 186.425781 117.707031 187.835938 119.03125 189.167969 C 119.671875 189.855469 120.425781 190.433594 121.113281 191.058594 C 121.808594 191.703125 122.546875 192.292969 123.328125 192.832031 L 125.625 194.457031 C 126.414062 194.960938 127.242188 195.402344 128.046875 195.875 L 129.257812 196.570312 L 130.535156 197.152344 L 133.082031 198.296875 L 135.71875 199.164062 C 136.160156 199.308594 136.59375 199.472656 137.046875 199.589844 L 138.40625 199.894531 C 139.3125 200.085938 140.214844 200.308594 141.128906 200.476562 L 143.882812 200.800781 C 144.339844 200.847656 144.796875 200.921875 145.257812 200.949219 L 149.40625 200.949219 L 183.621094 201.480469 L 192.179688 201.578125 C 193.59375 201.628906 195.050781 201.519531 196.488281 201.488281 C 197.933594 201.480469 199.375 201.386719 200.808594 201.214844 L 205.113281 200.675781 C 206.539062 200.433594 207.941406 200.070312 209.359375 199.777344 C 210.097656 199.621094 210.769531 199.480469 211.46875 199.304688 L 213.546875 198.644531 L 215.613281 197.996094 C 216.3125 197.792969 216.996094 197.546875 217.664062 197.257812 L 221.6875 195.601562 C 222.359375 195.328125 223.011719 195.015625 223.644531 194.664062 L 225.582031 193.660156 L 227.515625 192.65625 C 228.136719 192.285156 228.742188 191.878906 229.359375 191.496094 C 230.570312 190.699219 231.839844 189.972656 233.007812 189.117188 C 237.765625 185.734375 241.960938 181.757812 245.589844 177.1875 C 249.222656 172.617188 252.148438 167.628906 254.367188 162.230469 C 256.519531 156.851562 257.914062 151.28125 258.554688 145.523438 L 258.296875 145.476562 C 257.46875 148.226562 256.960938 151.015625 255.875 153.648438 L 255.179688 155.648438 L 254.832031 156.652344 L 254.40625 157.621094 L 252.675781 161.476562 C 252.402344 162.121094 252.003906 162.710938 251.679688 163.339844 L 250.667969 165.183594 C 250.328125 165.796875 250.019531 166.425781 249.648438 167.023438 L 248.492188 168.773438 L 247.339844 170.53125 C 246.976562 171.132812 246.574219 171.707031 246.136719 172.253906 L 243.550781 175.554688 C 242.679688 176.648438 241.691406 177.636719 240.769531 178.6875 C 240.296875 179.203125 239.835938 179.730469 239.351562 180.230469 L 237.808594 181.648438 L 236.285156 183.089844 C 235.796875 183.589844 235.277344 184.054688 234.726562 184.484375 L 231.457031 187.109375 C 230.355469 187.972656 229.152344 188.695312 228.007812 189.5 C 227.425781 189.886719 226.859375 190.292969 226.265625 190.667969 L 224.4375 191.6875 L 222.597656 192.714844 C 221.996094 193.074219 221.375 193.394531 220.730469 193.675781 L 216.890625 195.394531 C 216.25 195.679688 215.59375 195.925781 214.925781 196.132812 L 212.933594 196.8125 L 210.9375 197.492188 C 210.257812 197.683594 209.574219 197.832031 208.894531 198.003906 C 207.527344 198.320312 206.167969 198.695312 204.789062 198.96875 L 200.617188 199.589844 C 199.222656 199.792969 197.824219 199.914062 196.414062 199.953125 C 195 200.011719 193.609375 200.160156 192.179688 200.144531 L 183.621094 200.25 L 149.40625 200.78125 L 146.675781 200.523438 L 145.316406 200.394531 C 144.871094 200.335938 144.421875 200.234375 143.980469 200.160156 L 141.304688 199.648438 C 140.425781 199.421875 139.5625 199.148438 138.691406 198.910156 L 137.394531 198.527344 C 136.972656 198.378906 136.558594 198.195312 136.128906 198.03125 L 133.621094 197.042969 L 131.214844 195.773438 L 130.015625 195.152344 L 128.878906 194.414062 C 128.140625 193.917969 127.359375 193.460938 126.664062 192.9375 L 124.566406 191.289062 C 123.859375 190.742188 123.191406 190.148438 122.558594 189.515625 C 121.925781 188.886719 121.222656 188.320312 120.640625 187.648438 C 119.421875 186.34375 118.296875 184.964844 117.265625 183.511719 C 116.210938 182.074219 115.257812 180.574219 114.402344 179.011719 C 113.945312 178.273438 113.625 177.417969 113.234375 176.617188 C 112.832031 175.828125 112.488281 175.011719 112.199219 174.175781 L 111.277344 171.671875 C 111.003906 170.820312 110.828125 169.949219 110.597656 169.097656 L 110.273438 167.808594 C 110.164062 167.378906 110.132812 166.933594 110.050781 166.5 L 109.667969 163.871094 C 109.566406 162.992188 109.574219 162.105469 109.511719 161.21875 C 109.453125 160.332031 109.417969 159.460938 109.425781 158.53125 L 109.246094 136.546875 L 109.246094 136.378906 C 107.683594 126.863281 107.296875 117.304688 108.082031 107.695312 C 108.542969 102.914062 109.363281 98.195312 110.539062 93.535156 C 111.777344 88.890625 113.429688 84.402344 115.492188 80.0625 C 119.695312 71.292969 125.414062 63.660156 132.652344 57.164062 C 136.242188 53.929688 140.09375 51.054688 144.214844 48.539062 C 147.882812 46.273438 151.714844 44.332031 155.710938 42.71875 C 156.90625 44.960938 158.230469 47.125 159.675781 49.21875 C 162.722656 53.675781 166.167969 57.796875 170.011719 61.589844 C 173.882812 65.390625 178.085938 68.785156 182.621094 71.769531 C 187.152344 74.75 191.929688 77.265625 196.953125 79.316406 C 199.464844 80.339844 202.023438 81.246094 204.625 82.027344 L 212.296875 84.363281 C 217.40625 85.917969 222.492188 87.519531 227.558594 89.171875 C 230.105469 89.96875 232.566406 90.890625 235.199219 91.6875 C 237.820312 92.453125 240.472656 93.070312 243.160156 93.535156 C 248.472656 94.410156 253.8125 94.984375 259.1875 95.265625 L 259.226562 95 C 253.96875 93.925781 248.699219 92.972656 243.550781 91.703125 C 240.972656 91.074219 238.425781 90.367188 235.953125 89.480469 Z M 349.605469 168.441406 C 347.773438 169.027344 346.039062 170.117188 344.296875 170.925781 C 342.554688 171.730469 340.820312 172.46875 339.039062 173.140625 C 335.5 174.527344 331.902344 175.734375 328.238281 176.757812 C 320.777344 178.839844 313.183594 180.167969 305.460938 180.742188 C 305.289062 180.742188 305.144531 180.800781 305.023438 180.921875 C 304.902344 181.042969 304.84375 181.191406 304.84375 181.359375 C 304.84375 181.53125 304.902344 181.679688 305.023438 181.800781 C 305.144531 181.921875 305.289062 181.980469 305.460938 181.980469 C 313.382812 181.953125 321.175781 180.917969 328.828125 178.871094 C 332.636719 177.875 336.363281 176.640625 340.015625 175.179688 C 341.839844 174.441406 343.632812 173.664062 345.414062 172.828125 C 347.238281 172.101562 348.960938 171.179688 350.582031 170.058594 C 351.289062 169.433594 350.5 168.140625 349.605469 168.441406 Z M 297.605469 179.691406 C 294.242188 179.242188 290.925781 178.570312 287.652344 177.683594 C 284.28125 176.625 281.019531 175.285156 277.875 173.671875 C 271.722656 170.425781 265.882812 166.691406 260.347656 162.472656 C 259.867188 162.121094 259.226562 162.9375 259.699219 163.316406 C 265.222656 167.851562 271.15625 171.769531 277.492188 175.074219 C 280.585938 176.644531 283.785156 177.960938 287.089844 179.019531 C 290.363281 180.046875 293.957031 181.042969 297.429688 181.109375 C 298.203125 181.132812 298.425781 179.832031 297.605469 179.691406 Z M 297.605469 179.691406 " fill-opacity="1" fill-rule="nonzero"/></svg>